<?xml version="1.0" encoding="UTF-8" standalone="no"?>
<!DOCTYPE svg PUBLIC "-//W3C//DTD SVG 1.1//EN"
 "http://www.w3.org/Graphics/SVG/1.1/DTD/svg11.dtd">
<!-- Generated by graphviz version 2.43.0 (0)
 -->
<!-- Title: %3 Pages: 1 -->
<svg width="262pt" height="100pt"
 viewBox="0.00 0.00 262.00 100.00" xmlns="http://www.w3.org/2000/svg" xmlns:xlink="http://www.w3.org/1999/xlink">
<g id="graph0" class="graph" transform="scale(1 1) rotate(0) translate(4 96)">
<title>%3</title>
<polygon fill="white" stroke="transparent" points="-4,4 -4,-96 258,-96 258,4 -4,4"/>
<!-- a -->
<g id="node1" class="node">
<title>a</title>
<polygon fill="none" stroke="black" points="0,-0.5 0,-36.5 254,-36.5 254,-0.5 0,-0.5"/>
<text text-anchor="middle" x="24" y="-14.8" font-family="Times,serif" font-size="14.00">type</text>
<polyline fill="none" stroke="black" points="48,-0.5 48,-36.5 "/>
<text text-anchor="middle" x="99" y="-14.8" font-family="Times,serif" font-size="14.00">data 3.0000</text>
<polyline fill="none" stroke="black" points="150,-0.5 150,-36.5 "/>
<text text-anchor="middle" x="202" y="-14.8" font-family="Times,serif" font-size="14.00">grad 4.0000</text>
</g>
<!-- b -->
<g id="node2" class="node">
<title>b</title>
<polygon fill="none" stroke="black" points="0,-55.5 0,-91.5 254,-91.5 254,-55.5 0,-55.5"/>
<text text-anchor="middle" x="24" y="-69.8" font-family="Times,serif" font-size="14.00">type</text>
<polyline fill="none" stroke="black" points="48,-55.5 48,-91.5 "/>
<text text-anchor="middle" x="99" y="-69.8" font-family="Times,serif" font-size="14.00">data 3.0000</text>
<polyline fill="none" stroke="black" points="150,-55.5 150,-91.5 "/>
<text text-anchor="middle" x="202" y="-69.8" font-family="Times,serif" font-size="14.00">grad 4.0000</text>
</g>
</g>
</svg>


