<?xml version="1.0" encoding="UTF-8" standalone="no"?>
<!DOCTYPE svg PUBLIC "-//W3C//DTD SVG 1.1//EN"
 "http://www.w3.org/Graphics/SVG/1.1/DTD/svg11.dtd">
<!-- Generated by graphviz version 2.43.0 (0)
 -->
<!-- Title: %3 Pages: 1 -->
<svg width="1288pt" height="128pt"
 viewBox="0.00 0.00 1288.00 128.00" xmlns="http://www.w3.org/2000/svg" xmlns:xlink="http://www.w3.org/1999/xlink">
<g id="graph0" class="graph" transform="scale(1 1) rotate(0) translate(4 124)">
<title>%3</title>
<polygon fill="white" stroke="transparent" points="-4,4 -4,-124 1284,-124 1284,4 -4,4"/>
<!-- 139907687650816 -->
<g id="node1" class="node">
<title>139907687650816</title>
<polygon fill="none" stroke="black" points="0,-83.5 0,-119.5 351,-119.5 351,-83.5 0,-83.5"/>
<text text-anchor="middle" x="26" y="-97.8" font-family="Times,serif" font-size="14.00">v001</text>
<polyline fill="none" stroke="black" points="52,-83.5 52,-119.5 "/>
<text text-anchor="middle" x="65" y="-97.8" font-family="Times,serif" font-size="14.00">L</text>
<polyline fill="none" stroke="black" points="78,-83.5 78,-119.5 "/>
<text text-anchor="middle" x="92.5" y="-97.8" font-family="Times,serif" font-size="14.00">N</text>
<polyline fill="none" stroke="black" points="107,-83.5 107,-119.5 "/>
<text text-anchor="middle" x="126" y="-97.8" font-family="Times,serif" font-size="14.00">w1</text>
<polyline fill="none" stroke="black" points="145,-83.5 145,-119.5 "/>
<text text-anchor="middle" x="196" y="-97.8" font-family="Times,serif" font-size="14.00">data 0.5000</text>
<polyline fill="none" stroke="black" points="247,-83.5 247,-119.5 "/>
<text text-anchor="middle" x="299" y="-97.8" font-family="Times,serif" font-size="14.00">grad 1.0000</text>
</g>
<!-- 139907687647216* -->
<g id="node7" class="node">
<title>139907687647216*</title>
<ellipse fill="none" stroke="black" cx="414" cy="-73.5" rx="27" ry="18"/>
<text text-anchor="middle" x="414" y="-69.8" font-family="Times,serif" font-size="14.00">*</text>
</g>
<!-- 139907687650816&#45;&gt;139907687647216* -->
<g id="edge3" class="edge">
<title>139907687650816&#45;&gt;139907687647216*</title>
<path fill="none" stroke="black" d="M328.62,-83.49C346.63,-81.36 363.49,-79.36 377.33,-77.72"/>
<polygon fill="black" stroke="black" points="377.78,-81.19 387.3,-76.54 376.96,-74.24 377.78,-81.19"/>
</g>
<!-- 139907687647312 -->
<g id="node2" class="node">
<title>139907687647312</title>
<polygon fill="none" stroke="black" points="15,-28.5 15,-64.5 336,-64.5 336,-28.5 15,-28.5"/>
<text text-anchor="middle" x="41" y="-42.8" font-family="Times,serif" font-size="14.00">v003</text>
<polyline fill="none" stroke="black" points="67,-28.5 67,-64.5 "/>
<text text-anchor="middle" x="77.5" y="-42.8" font-family="Times,serif" font-size="14.00"> </text>
<polyline fill="none" stroke="black" points="88,-28.5 88,-64.5 "/>
<text text-anchor="middle" x="98.5" y="-42.8" font-family="Times,serif" font-size="14.00"> </text>
<polyline fill="none" stroke="black" points="109,-28.5 109,-64.5 "/>
<text text-anchor="middle" x="119.5" y="-42.8" font-family="Times,serif" font-size="14.00">i</text>
<polyline fill="none" stroke="black" points="130,-28.5 130,-64.5 "/>
<text text-anchor="middle" x="181" y="-42.8" font-family="Times,serif" font-size="14.00">data 1.0000</text>
<polyline fill="none" stroke="black" points="232,-28.5 232,-64.5 "/>
<text text-anchor="middle" x="284" y="-42.8" font-family="Times,serif" font-size="14.00">grad 0.5000</text>
</g>
<!-- 139907687647312&#45;&gt;139907687647216* -->
<g id="edge6" class="edge">
<title>139907687647312&#45;&gt;139907687647216*</title>
<path fill="none" stroke="black" d="M334.25,-64.51C349.98,-66.3 364.65,-67.98 376.97,-69.39"/>
<polygon fill="black" stroke="black" points="376.82,-72.89 387.16,-70.55 377.62,-65.94 376.82,-72.89"/>
</g>
<!-- 139907687653648 -->
<g id="node3" class="node">
<title>139907687653648</title>
<polygon fill="none" stroke="black" points="942,-27.5 942,-63.5 1280,-63.5 1280,-27.5 942,-27.5"/>
<text text-anchor="middle" x="968" y="-41.8" font-family="Times,serif" font-size="14.00">v005</text>
<polyline fill="none" stroke="black" points="994,-27.5 994,-63.5 "/>
<text text-anchor="middle" x="1007" y="-41.8" font-family="Times,serif" font-size="14.00">L</text>
<polyline fill="none" stroke="black" points="1020,-27.5 1020,-63.5 "/>
<text text-anchor="middle" x="1034.5" y="-41.8" font-family="Times,serif" font-size="14.00">N</text>
<polyline fill="none" stroke="black" points="1049,-27.5 1049,-63.5 "/>
<text text-anchor="middle" x="1061.5" y="-41.8" font-family="Times,serif" font-size="14.00">a</text>
<polyline fill="none" stroke="black" points="1074,-27.5 1074,-63.5 "/>
<text text-anchor="middle" x="1125" y="-41.8" font-family="Times,serif" font-size="14.00">data 0.5000</text>
<polyline fill="none" stroke="black" points="1176,-27.5 1176,-63.5 "/>
<text text-anchor="middle" x="1228" y="-41.8" font-family="Times,serif" font-size="14.00">grad 1.0000</text>
</g>
<!-- 139907687653648+ -->
<g id="node4" class="node">
<title>139907687653648+</title>
<ellipse fill="none" stroke="black" cx="879" cy="-45.5" rx="27" ry="18"/>
<text text-anchor="middle" x="879" y="-41.8" font-family="Times,serif" font-size="14.00">+</text>
</g>
<!-- 139907687653648+&#45;&gt;139907687653648 -->
<g id="edge1" class="edge">
<title>139907687653648+&#45;&gt;139907687653648</title>
<path fill="none" stroke="black" d="M906.38,-45.5C913.74,-45.5 922.32,-45.5 931.73,-45.5"/>
<polygon fill="black" stroke="black" points="931.81,-49 941.81,-45.5 931.81,-42 931.81,-49"/>
</g>
<!-- 139907687654800 -->
<g id="node5" class="node">
<title>139907687654800</title>
<polygon fill="none" stroke="black" points="477,-0.5 477,-36.5 816,-36.5 816,-0.5 477,-0.5"/>
<text text-anchor="middle" x="503" y="-14.8" font-family="Times,serif" font-size="14.00">v002</text>
<polyline fill="none" stroke="black" points="529,-0.5 529,-36.5 "/>
<text text-anchor="middle" x="542" y="-14.8" font-family="Times,serif" font-size="14.00">L</text>
<polyline fill="none" stroke="black" points="555,-0.5 555,-36.5 "/>
<text text-anchor="middle" x="569.5" y="-14.8" font-family="Times,serif" font-size="14.00">N</text>
<polyline fill="none" stroke="black" points="584,-0.5 584,-36.5 "/>
<text text-anchor="middle" x="597" y="-14.8" font-family="Times,serif" font-size="14.00">b</text>
<polyline fill="none" stroke="black" points="610,-0.5 610,-36.5 "/>
<text text-anchor="middle" x="661" y="-14.8" font-family="Times,serif" font-size="14.00">data 0.0000</text>
<polyline fill="none" stroke="black" points="712,-0.5 712,-36.5 "/>
<text text-anchor="middle" x="764" y="-14.8" font-family="Times,serif" font-size="14.00">grad 1.0000</text>
</g>
<!-- 139907687654800&#45;&gt;139907687653648+ -->
<g id="edge4" class="edge">
<title>139907687654800&#45;&gt;139907687653648+</title>
<path fill="none" stroke="black" d="M801.25,-36.51C816.17,-38.26 830.12,-39.89 841.92,-41.27"/>
<polygon fill="black" stroke="black" points="841.79,-44.78 852.13,-42.47 842.6,-37.83 841.79,-44.78"/>
</g>
<!-- 139907687647216 -->
<g id="node6" class="node">
<title>139907687647216</title>
<polygon fill="none" stroke="black" points="486,-55.5 486,-91.5 807,-91.5 807,-55.5 486,-55.5"/>
<text text-anchor="middle" x="512" y="-69.8" font-family="Times,serif" font-size="14.00">v004</text>
<polyline fill="none" stroke="black" points="538,-55.5 538,-91.5 "/>
<text text-anchor="middle" x="548.5" y="-69.8" font-family="Times,serif" font-size="14.00"> </text>
<polyline fill="none" stroke="black" points="559,-55.5 559,-91.5 "/>
<text text-anchor="middle" x="569.5" y="-69.8" font-family="Times,serif" font-size="14.00"> </text>
<polyline fill="none" stroke="black" points="580,-55.5 580,-91.5 "/>
<text text-anchor="middle" x="590.5" y="-69.8" font-family="Times,serif" font-size="14.00"> </text>
<polyline fill="none" stroke="black" points="601,-55.5 601,-91.5 "/>
<text text-anchor="middle" x="652" y="-69.8" font-family="Times,serif" font-size="14.00">data 0.5000</text>
<polyline fill="none" stroke="black" points="703,-55.5 703,-91.5 "/>
<text text-anchor="middle" x="755" y="-69.8" font-family="Times,serif" font-size="14.00">grad 1.0000</text>
</g>
<!-- 139907687647216&#45;&gt;139907687653648+ -->
<g id="edge5" class="edge">
<title>139907687647216&#45;&gt;139907687653648+</title>
<path fill="none" stroke="black" d="M795.76,-55.49C812.86,-53.41 828.9,-51.46 842.2,-49.85"/>
<polygon fill="black" stroke="black" points="842.74,-53.31 852.24,-48.63 841.89,-46.36 842.74,-53.31"/>
</g>
<!-- 139907687647216*&#45;&gt;139907687647216 -->
<g id="edge2" class="edge">
<title>139907687647216*&#45;&gt;139907687647216</title>
<path fill="none" stroke="black" d="M441.44,-73.5C451.05,-73.5 462.76,-73.5 475.64,-73.5"/>
<polygon fill="black" stroke="black" points="475.71,-77 485.71,-73.5 475.71,-70 475.71,-77"/>
</g>
</g>
</svg>
