<?xml version="1.0" encoding="UTF-8" standalone="no"?>
<!DOCTYPE svg PUBLIC "-//W3C//DTD SVG 1.1//EN"
 "http://www.w3.org/Graphics/SVG/1.1/DTD/svg11.dtd">
<!-- Generated by graphviz version 2.43.0 (0)
 -->
<!-- Title: %3 Pages: 1 -->
<svg width="3034pt" height="238pt"
 viewBox="0.00 0.00 3034.00 238.00" xmlns="http://www.w3.org/2000/svg" xmlns:xlink="http://www.w3.org/1999/xlink">
<g id="graph0" class="graph" transform="scale(1 1) rotate(0) translate(4 234)">
<title>%3</title>
<polygon fill="white" stroke="transparent" points="-4,4 -4,-234 3030,-234 3030,4 -4,4"/>
<!-- 140135168832512 -->
<g id="node1" class="node">
<title>140135168832512</title>
<polygon fill="none" stroke="black" points="2670,-82.5 2670,-118.5 3026,-118.5 3026,-82.5 2670,-82.5"/>
<text text-anchor="middle" x="2696" y="-96.8" font-family="Times,serif" font-size="14.00">v016</text>
<polyline fill="none" stroke="black" points="2722,-82.5 2722,-118.5 "/>
<text text-anchor="middle" x="2739.5" y="-96.8" font-family="Times,serif" font-size="14.00">L2</text>
<polyline fill="none" stroke="black" points="2757,-82.5 2757,-118.5 "/>
<text text-anchor="middle" x="2776" y="-96.8" font-family="Times,serif" font-size="14.00">N1</text>
<polyline fill="none" stroke="black" points="2795,-82.5 2795,-118.5 "/>
<text text-anchor="middle" x="2807.5" y="-96.8" font-family="Times,serif" font-size="14.00">a</text>
<polyline fill="none" stroke="black" points="2820,-82.5 2820,-118.5 "/>
<text text-anchor="middle" x="2871" y="-96.8" font-family="Times,serif" font-size="14.00">data 3.6000</text>
<polyline fill="none" stroke="black" points="2922,-82.5 2922,-118.5 "/>
<text text-anchor="middle" x="2974" y="-96.8" font-family="Times,serif" font-size="14.00">grad 0.0000</text>
</g>
<!-- 140135168832512+ -->
<g id="node2" class="node">
<title>140135168832512+</title>
<ellipse fill="none" stroke="black" cx="2607" cy="-100.5" rx="27" ry="18"/>
<text text-anchor="middle" x="2607" y="-96.8" font-family="Times,serif" font-size="14.00">+</text>
</g>
<!-- 140135168832512+&#45;&gt;140135168832512 -->
<g id="edge1" class="edge">
<title>140135168832512+&#45;&gt;140135168832512</title>
<path fill="none" stroke="black" d="M2634.03,-100.5C2641.4,-100.5 2650.02,-100.5 2659.49,-100.5"/>
<polygon fill="black" stroke="black" points="2659.66,-104 2669.66,-100.5 2659.66,-97 2659.66,-104"/>
</g>
<!-- 140135168824352 -->
<g id="node3" class="node">
<title>140135168824352</title>
<polygon fill="none" stroke="black" points="0,-193.5 0,-229.5 369,-229.5 369,-193.5 0,-193.5"/>
<text text-anchor="middle" x="26" y="-207.8" font-family="Times,serif" font-size="14.00">v001</text>
<polyline fill="none" stroke="black" points="52,-193.5 52,-229.5 "/>
<text text-anchor="middle" x="69.5" y="-207.8" font-family="Times,serif" font-size="14.00">L1</text>
<polyline fill="none" stroke="black" points="87,-193.5 87,-229.5 "/>
<text text-anchor="middle" x="106" y="-207.8" font-family="Times,serif" font-size="14.00">N1</text>
<polyline fill="none" stroke="black" points="125,-193.5 125,-229.5 "/>
<text text-anchor="middle" x="144" y="-207.8" font-family="Times,serif" font-size="14.00">w1</text>
<polyline fill="none" stroke="black" points="163,-193.5 163,-229.5 "/>
<text text-anchor="middle" x="214" y="-207.8" font-family="Times,serif" font-size="14.00">data 0.5000</text>
<polyline fill="none" stroke="black" points="265,-193.5 265,-229.5 "/>
<text text-anchor="middle" x="317" y="-207.8" font-family="Times,serif" font-size="14.00">grad 0.0000</text>
</g>
<!-- 140135168835008* -->
<g id="node23" class="node">
<title>140135168835008*</title>
<ellipse fill="none" stroke="black" cx="432" cy="-211.5" rx="27" ry="18"/>
<text text-anchor="middle" x="432" y="-207.8" font-family="Times,serif" font-size="14.00">*</text>
</g>
<!-- 140135168824352&#45;&gt;140135168835008* -->
<g id="edge11" class="edge">
<title>140135168824352&#45;&gt;140135168835008*</title>
<path fill="none" stroke="black" d="M369.05,-211.5C378.29,-211.5 386.92,-211.5 394.62,-211.5"/>
<polygon fill="black" stroke="black" points="394.87,-215 404.87,-211.5 394.87,-208 394.87,-215"/>
</g>
<!-- 140135658919520 -->
<g id="node4" class="node">
<title>140135658919520</title>
<polygon fill="none" stroke="black" points="24,-138.5 24,-174.5 345,-174.5 345,-138.5 24,-138.5"/>
<text text-anchor="middle" x="50" y="-152.8" font-family="Times,serif" font-size="14.00">v008</text>
<polyline fill="none" stroke="black" points="76,-138.5 76,-174.5 "/>
<text text-anchor="middle" x="86.5" y="-152.8" font-family="Times,serif" font-size="14.00"> </text>
<polyline fill="none" stroke="black" points="97,-138.5 97,-174.5 "/>
<text text-anchor="middle" x="107.5" y="-152.8" font-family="Times,serif" font-size="14.00"> </text>
<polyline fill="none" stroke="black" points="118,-138.5 118,-174.5 "/>
<text text-anchor="middle" x="128.5" y="-152.8" font-family="Times,serif" font-size="14.00">i</text>
<polyline fill="none" stroke="black" points="139,-138.5 139,-174.5 "/>
<text text-anchor="middle" x="190" y="-152.8" font-family="Times,serif" font-size="14.00">data 4.0000</text>
<polyline fill="none" stroke="black" points="241,-138.5 241,-174.5 "/>
<text text-anchor="middle" x="293" y="-152.8" font-family="Times,serif" font-size="14.00">grad 0.0000</text>
</g>
<!-- 140135168834240* -->
<g id="node12" class="node">
<title>140135168834240*</title>
<ellipse fill="none" stroke="black" cx="432" cy="-101.5" rx="27" ry="18"/>
<text text-anchor="middle" x="432" y="-97.8" font-family="Times,serif" font-size="14.00">*</text>
</g>
<!-- 140135658919520&#45;&gt;140135168834240* -->
<g id="edge21" class="edge">
<title>140135658919520&#45;&gt;140135168834240*</title>
<path fill="none" stroke="black" d="M328.05,-138.49C341.99,-135.61 355.84,-132.3 369,-128.5 379.68,-125.42 390.95,-120.92 400.91,-116.47"/>
<polygon fill="black" stroke="black" points="402.38,-119.65 409.99,-112.28 399.44,-113.29 402.38,-119.65"/>
</g>
<!-- 140135658919520&#45;&gt;140135168835008* -->
<g id="edge23" class="edge">
<title>140135658919520&#45;&gt;140135168835008*</title>
<path fill="none" stroke="black" d="M328.05,-174.51C341.99,-177.39 355.84,-180.7 369,-184.5 379.68,-187.58 390.95,-192.08 400.91,-196.53"/>
<polygon fill="black" stroke="black" points="399.44,-199.71 409.99,-200.72 402.38,-193.35 399.44,-199.71"/>
</g>
<!-- 140135168833664 -->
<g id="node5" class="node">
<title>140135168833664</title>
<polygon fill="none" stroke="black" points="2223,-108.5 2223,-144.5 2544,-144.5 2544,-108.5 2223,-108.5"/>
<text text-anchor="middle" x="2249" y="-122.8" font-family="Times,serif" font-size="14.00">v014</text>
<polyline fill="none" stroke="black" points="2275,-108.5 2275,-144.5 "/>
<text text-anchor="middle" x="2285.5" y="-122.8" font-family="Times,serif" font-size="14.00"> </text>
<polyline fill="none" stroke="black" points="2296,-108.5 2296,-144.5 "/>
<text text-anchor="middle" x="2306.5" y="-122.8" font-family="Times,serif" font-size="14.00"> </text>
<polyline fill="none" stroke="black" points="2317,-108.5 2317,-144.5 "/>
<text text-anchor="middle" x="2327.5" y="-122.8" font-family="Times,serif" font-size="14.00"> </text>
<polyline fill="none" stroke="black" points="2338,-108.5 2338,-144.5 "/>
<text text-anchor="middle" x="2389" y="-122.8" font-family="Times,serif" font-size="14.00">data 1.2000</text>
<polyline fill="none" stroke="black" points="2440,-108.5 2440,-144.5 "/>
<text text-anchor="middle" x="2492" y="-122.8" font-family="Times,serif" font-size="14.00">grad 0.0000</text>
</g>
<!-- 140135168833664&#45;&gt;140135168832512+ -->
<g id="edge13" class="edge">
<title>140135168833664&#45;&gt;140135168832512+</title>
<path fill="none" stroke="black" d="M2538.04,-108.48C2549.67,-107.11 2560.55,-105.83 2570.06,-104.72"/>
<polygon fill="black" stroke="black" points="2570.64,-108.17 2580.17,-103.53 2569.83,-101.22 2570.64,-108.17"/>
</g>
<!-- 140135168833664+ -->
<g id="node6" class="node">
<title>140135168833664+</title>
<ellipse fill="none" stroke="black" cx="2026.5" cy="-128.5" rx="27" ry="18"/>
<text text-anchor="middle" x="2026.5" y="-124.8" font-family="Times,serif" font-size="14.00">+</text>
</g>
<!-- 140135168833664+&#45;&gt;140135168833664 -->
<g id="edge2" class="edge">
<title>140135168833664+&#45;&gt;140135168833664</title>
<path fill="none" stroke="black" d="M2053.6,-128.35C2087.81,-128.16 2150.72,-127.81 2212.43,-127.46"/>
<polygon fill="black" stroke="black" points="2212.74,-130.96 2222.72,-127.4 2212.7,-123.96 2212.74,-130.96"/>
</g>
<!-- 140135168833472 -->
<g id="node7" class="node">
<title>140135168833472</title>
<polygon fill="none" stroke="black" points="1866,-55.5 1866,-91.5 2187,-91.5 2187,-55.5 1866,-55.5"/>
<text text-anchor="middle" x="1892" y="-69.8" font-family="Times,serif" font-size="14.00">v015</text>
<polyline fill="none" stroke="black" points="1918,-55.5 1918,-91.5 "/>
<text text-anchor="middle" x="1928.5" y="-69.8" font-family="Times,serif" font-size="14.00"> </text>
<polyline fill="none" stroke="black" points="1939,-55.5 1939,-91.5 "/>
<text text-anchor="middle" x="1949.5" y="-69.8" font-family="Times,serif" font-size="14.00"> </text>
<polyline fill="none" stroke="black" points="1960,-55.5 1960,-91.5 "/>
<text text-anchor="middle" x="1970.5" y="-69.8" font-family="Times,serif" font-size="14.00"> </text>
<polyline fill="none" stroke="black" points="1981,-55.5 1981,-91.5 "/>
<text text-anchor="middle" x="2032" y="-69.8" font-family="Times,serif" font-size="14.00">data 2.4000</text>
<polyline fill="none" stroke="black" points="2083,-55.5 2083,-91.5 "/>
<text text-anchor="middle" x="2135" y="-69.8" font-family="Times,serif" font-size="14.00">grad 0.0000</text>
</g>
<!-- 140135168833472&#45;&gt;140135168832512+ -->
<g id="edge12" class="edge">
<title>140135168833472&#45;&gt;140135168832512+</title>
<path fill="none" stroke="black" d="M2187.11,-80.95C2318.28,-87.07 2494.3,-95.29 2569.48,-98.8"/>
<polygon fill="black" stroke="black" points="2569.67,-102.31 2579.82,-99.28 2570,-95.32 2569.67,-102.31"/>
</g>
<!-- 140135168833472* -->
<g id="node8" class="node">
<title>140135168833472*</title>
<ellipse fill="none" stroke="black" cx="1410" cy="-73.5" rx="27" ry="18"/>
<text text-anchor="middle" x="1410" y="-69.8" font-family="Times,serif" font-size="14.00">*</text>
</g>
<!-- 140135168833472*&#45;&gt;140135168833472 -->
<g id="edge3" class="edge">
<title>140135168833472*&#45;&gt;140135168833472</title>
<path fill="none" stroke="black" d="M1437.01,-73.5C1507.8,-73.5 1708.47,-73.5 1855.87,-73.5"/>
<polygon fill="black" stroke="black" points="1855.95,-77 1865.95,-73.5 1855.95,-70 1855.95,-77"/>
</g>
<!-- 140135168828576 -->
<g id="node9" class="node">
<title>140135168828576</title>
<polygon fill="none" stroke="black" points="495,-28.5 495,-64.5 852,-64.5 852,-28.5 495,-28.5"/>
<text text-anchor="middle" x="521" y="-42.8" font-family="Times,serif" font-size="14.00">v004</text>
<polyline fill="none" stroke="black" points="547,-28.5 547,-64.5 "/>
<text text-anchor="middle" x="564.5" y="-42.8" font-family="Times,serif" font-size="14.00">L1</text>
<polyline fill="none" stroke="black" points="582,-28.5 582,-64.5 "/>
<text text-anchor="middle" x="601" y="-42.8" font-family="Times,serif" font-size="14.00">N2</text>
<polyline fill="none" stroke="black" points="620,-28.5 620,-64.5 "/>
<text text-anchor="middle" x="633" y="-42.8" font-family="Times,serif" font-size="14.00">b</text>
<polyline fill="none" stroke="black" points="646,-28.5 646,-64.5 "/>
<text text-anchor="middle" x="697" y="-42.8" font-family="Times,serif" font-size="14.00">data 0.0000</text>
<polyline fill="none" stroke="black" points="748,-28.5 748,-64.5 "/>
<text text-anchor="middle" x="800" y="-42.8" font-family="Times,serif" font-size="14.00">grad 0.0000</text>
</g>
<!-- 140135168833856+ -->
<g id="node19" class="node">
<title>140135168833856+</title>
<ellipse fill="none" stroke="black" cx="915" cy="-73.5" rx="27" ry="18"/>
<text text-anchor="middle" x="915" y="-69.8" font-family="Times,serif" font-size="14.00">+</text>
</g>
<!-- 140135168828576&#45;&gt;140135168833856+ -->
<g id="edge22" class="edge">
<title>140135168828576&#45;&gt;140135168833856+</title>
<path fill="none" stroke="black" d="M834.25,-64.51C850.47,-66.34 865.59,-68.04 878.2,-69.46"/>
<polygon fill="black" stroke="black" points="877.85,-72.95 888.18,-70.59 878.64,-65.99 877.85,-72.95"/>
</g>
<!-- 140135168823968 -->
<g id="node10" class="node">
<title>140135168823968</title>
<polygon fill="none" stroke="black" points="0,-83.5 0,-119.5 369,-119.5 369,-83.5 0,-83.5"/>
<text text-anchor="middle" x="26" y="-97.8" font-family="Times,serif" font-size="14.00">v003</text>
<polyline fill="none" stroke="black" points="52,-83.5 52,-119.5 "/>
<text text-anchor="middle" x="69.5" y="-97.8" font-family="Times,serif" font-size="14.00">L1</text>
<polyline fill="none" stroke="black" points="87,-83.5 87,-119.5 "/>
<text text-anchor="middle" x="106" y="-97.8" font-family="Times,serif" font-size="14.00">N2</text>
<polyline fill="none" stroke="black" points="125,-83.5 125,-119.5 "/>
<text text-anchor="middle" x="144" y="-97.8" font-family="Times,serif" font-size="14.00">w1</text>
<polyline fill="none" stroke="black" points="163,-83.5 163,-119.5 "/>
<text text-anchor="middle" x="214" y="-97.8" font-family="Times,serif" font-size="14.00">data 0.5000</text>
<polyline fill="none" stroke="black" points="265,-83.5 265,-119.5 "/>
<text text-anchor="middle" x="317" y="-97.8" font-family="Times,serif" font-size="14.00">grad 0.0000</text>
</g>
<!-- 140135168823968&#45;&gt;140135168834240* -->
<g id="edge17" class="edge">
<title>140135168823968&#45;&gt;140135168834240*</title>
<path fill="none" stroke="black" d="M369.05,-101.5C378.29,-101.5 386.92,-101.5 394.62,-101.5"/>
<polygon fill="black" stroke="black" points="394.87,-105 404.87,-101.5 394.87,-98 394.87,-105"/>
</g>
<!-- 140135168834240 -->
<g id="node11" class="node">
<title>140135168834240</title>
<polygon fill="none" stroke="black" points="513,-83.5 513,-119.5 834,-119.5 834,-83.5 513,-83.5"/>
<text text-anchor="middle" x="539" y="-97.8" font-family="Times,serif" font-size="14.00">v011</text>
<polyline fill="none" stroke="black" points="565,-83.5 565,-119.5 "/>
<text text-anchor="middle" x="575.5" y="-97.8" font-family="Times,serif" font-size="14.00"> </text>
<polyline fill="none" stroke="black" points="586,-83.5 586,-119.5 "/>
<text text-anchor="middle" x="596.5" y="-97.8" font-family="Times,serif" font-size="14.00"> </text>
<polyline fill="none" stroke="black" points="607,-83.5 607,-119.5 "/>
<text text-anchor="middle" x="617.5" y="-97.8" font-family="Times,serif" font-size="14.00"> </text>
<polyline fill="none" stroke="black" points="628,-83.5 628,-119.5 "/>
<text text-anchor="middle" x="679" y="-97.8" font-family="Times,serif" font-size="14.00">data 2.0000</text>
<polyline fill="none" stroke="black" points="730,-83.5 730,-119.5 "/>
<text text-anchor="middle" x="782" y="-97.8" font-family="Times,serif" font-size="14.00">grad 0.0000</text>
</g>
<!-- 140135168834240&#45;&gt;140135168833856+ -->
<g id="edge19" class="edge">
<title>140135168834240&#45;&gt;140135168833856+</title>
<path fill="none" stroke="black" d="M828.55,-83.49C846.93,-81.34 864.13,-79.33 878.21,-77.68"/>
<polygon fill="black" stroke="black" points="878.82,-81.14 888.34,-76.5 878,-74.18 878.82,-81.14"/>
</g>
<!-- 140135168834240*&#45;&gt;140135168834240 -->
<g id="edge4" class="edge">
<title>140135168834240*&#45;&gt;140135168834240</title>
<path fill="none" stroke="black" d="M459.09,-101.5C470.83,-101.5 485.78,-101.5 502.29,-101.5"/>
<polygon fill="black" stroke="black" points="502.75,-105 512.75,-101.5 502.75,-98 502.75,-105"/>
</g>
<!-- 140135168826560 -->
<g id="node13" class="node">
<title>140135168826560</title>
<polygon fill="none" stroke="black" points="978,-0.5 978,-36.5 1347,-36.5 1347,-0.5 978,-0.5"/>
<text text-anchor="middle" x="1004" y="-14.8" font-family="Times,serif" font-size="14.00">v006</text>
<polyline fill="none" stroke="black" points="1030,-0.5 1030,-36.5 "/>
<text text-anchor="middle" x="1047.5" y="-14.8" font-family="Times,serif" font-size="14.00">L2</text>
<polyline fill="none" stroke="black" points="1065,-0.5 1065,-36.5 "/>
<text text-anchor="middle" x="1084" y="-14.8" font-family="Times,serif" font-size="14.00">N1</text>
<polyline fill="none" stroke="black" points="1103,-0.5 1103,-36.5 "/>
<text text-anchor="middle" x="1122" y="-14.8" font-family="Times,serif" font-size="14.00">w2</text>
<polyline fill="none" stroke="black" points="1141,-0.5 1141,-36.5 "/>
<text text-anchor="middle" x="1192" y="-14.8" font-family="Times,serif" font-size="14.00">data 1.2000</text>
<polyline fill="none" stroke="black" points="1243,-0.5 1243,-36.5 "/>
<text text-anchor="middle" x="1295" y="-14.8" font-family="Times,serif" font-size="14.00">grad 0.0000</text>
</g>
<!-- 140135168826560&#45;&gt;140135168833472* -->
<g id="edge10" class="edge">
<title>140135168826560&#45;&gt;140135168833472*</title>
<path fill="none" stroke="black" d="M1311.02,-36.51C1323.28,-39.12 1335.41,-42.1 1347,-45.5 1357.82,-48.67 1369.2,-53.37 1379.21,-58.02"/>
<polygon fill="black" stroke="black" points="1377.79,-61.23 1388.32,-62.41 1380.83,-54.92 1377.79,-61.23"/>
</g>
<!-- 140135168826608 -->
<g id="node14" class="node">
<title>140135168826608</title>
<polygon fill="none" stroke="black" points="1473,-165.5 1473,-201.5 1830,-201.5 1830,-165.5 1473,-165.5"/>
<text text-anchor="middle" x="1499" y="-179.8" font-family="Times,serif" font-size="14.00">v007</text>
<polyline fill="none" stroke="black" points="1525,-165.5 1525,-201.5 "/>
<text text-anchor="middle" x="1542.5" y="-179.8" font-family="Times,serif" font-size="14.00">L2</text>
<polyline fill="none" stroke="black" points="1560,-165.5 1560,-201.5 "/>
<text text-anchor="middle" x="1579" y="-179.8" font-family="Times,serif" font-size="14.00">N1</text>
<polyline fill="none" stroke="black" points="1598,-165.5 1598,-201.5 "/>
<text text-anchor="middle" x="1611" y="-179.8" font-family="Times,serif" font-size="14.00">b</text>
<polyline fill="none" stroke="black" points="1624,-165.5 1624,-201.5 "/>
<text text-anchor="middle" x="1675" y="-179.8" font-family="Times,serif" font-size="14.00">data 0.0000</text>
<polyline fill="none" stroke="black" points="1726,-165.5 1726,-201.5 "/>
<text text-anchor="middle" x="1778" y="-179.8" font-family="Times,serif" font-size="14.00">grad 0.0000</text>
</g>
<!-- 140135168826608&#45;&gt;140135168833664+ -->
<g id="edge20" class="edge">
<title>140135168826608&#45;&gt;140135168833664+</title>
<path fill="none" stroke="black" d="M1774.63,-165.49C1849.65,-154.43 1940.51,-141.03 1989.68,-133.78"/>
<polygon fill="black" stroke="black" points="1990.43,-137.21 1999.81,-132.29 1989.41,-130.28 1990.43,-137.21"/>
</g>
<!-- 140135168834336 -->
<g id="node15" class="node">
<title>140135168834336</title>
<polygon fill="none" stroke="black" points="984.5,-165.5 984.5,-201.5 1340.5,-201.5 1340.5,-165.5 984.5,-165.5"/>
<text text-anchor="middle" x="1010.5" y="-179.8" font-family="Times,serif" font-size="14.00">v010</text>
<polyline fill="none" stroke="black" points="1036.5,-165.5 1036.5,-201.5 "/>
<text text-anchor="middle" x="1054" y="-179.8" font-family="Times,serif" font-size="14.00">L1</text>
<polyline fill="none" stroke="black" points="1071.5,-165.5 1071.5,-201.5 "/>
<text text-anchor="middle" x="1090.5" y="-179.8" font-family="Times,serif" font-size="14.00">N1</text>
<polyline fill="none" stroke="black" points="1109.5,-165.5 1109.5,-201.5 "/>
<text text-anchor="middle" x="1122" y="-179.8" font-family="Times,serif" font-size="14.00">a</text>
<polyline fill="none" stroke="black" points="1134.5,-165.5 1134.5,-201.5 "/>
<text text-anchor="middle" x="1185.5" y="-179.8" font-family="Times,serif" font-size="14.00">data 2.0000</text>
<polyline fill="none" stroke="black" points="1236.5,-165.5 1236.5,-201.5 "/>
<text text-anchor="middle" x="1288.5" y="-179.8" font-family="Times,serif" font-size="14.00">grad 0.0000</text>
</g>
<!-- 140135168833904* -->
<g id="node21" class="node">
<title>140135168833904*</title>
<ellipse fill="none" stroke="black" cx="1410" cy="-128.5" rx="27" ry="18"/>
<text text-anchor="middle" x="1410" y="-124.8" font-family="Times,serif" font-size="14.00">*</text>
</g>
<!-- 140135168834336&#45;&gt;140135168833904* -->
<g id="edge9" class="edge">
<title>140135168834336&#45;&gt;140135168833904*</title>
<path fill="none" stroke="black" d="M1306.05,-165.49C1319.99,-162.61 1333.84,-159.3 1347,-155.5 1357.68,-152.42 1368.95,-147.92 1378.91,-143.47"/>
<polygon fill="black" stroke="black" points="1380.38,-146.65 1387.99,-139.28 1377.44,-140.29 1380.38,-146.65"/>
</g>
<!-- 140135168834336+ -->
<g id="node16" class="node">
<title>140135168834336+</title>
<ellipse fill="none" stroke="black" cx="915" cy="-183.5" rx="27" ry="18"/>
<text text-anchor="middle" x="915" y="-179.8" font-family="Times,serif" font-size="14.00">+</text>
</g>
<!-- 140135168834336+&#45;&gt;140135168834336 -->
<g id="edge5" class="edge">
<title>140135168834336+&#45;&gt;140135168834336</title>
<path fill="none" stroke="black" d="M942.27,-183.5C951.26,-183.5 962.11,-183.5 974.12,-183.5"/>
<polygon fill="black" stroke="black" points="974.46,-187 984.46,-183.5 974.46,-180 974.46,-187"/>
</g>
<!-- 140135168826656 -->
<g id="node17" class="node">
<title>140135168826656</title>
<polygon fill="none" stroke="black" points="978,-110.5 978,-146.5 1347,-146.5 1347,-110.5 978,-110.5"/>
<text text-anchor="middle" x="1004" y="-124.8" font-family="Times,serif" font-size="14.00">v005</text>
<polyline fill="none" stroke="black" points="1030,-110.5 1030,-146.5 "/>
<text text-anchor="middle" x="1047.5" y="-124.8" font-family="Times,serif" font-size="14.00">L2</text>
<polyline fill="none" stroke="black" points="1065,-110.5 1065,-146.5 "/>
<text text-anchor="middle" x="1084" y="-124.8" font-family="Times,serif" font-size="14.00">N1</text>
<polyline fill="none" stroke="black" points="1103,-110.5 1103,-146.5 "/>
<text text-anchor="middle" x="1122" y="-124.8" font-family="Times,serif" font-size="14.00">w1</text>
<polyline fill="none" stroke="black" points="1141,-110.5 1141,-146.5 "/>
<text text-anchor="middle" x="1192" y="-124.8" font-family="Times,serif" font-size="14.00">data 0.6000</text>
<polyline fill="none" stroke="black" points="1243,-110.5 1243,-146.5 "/>
<text text-anchor="middle" x="1295" y="-124.8" font-family="Times,serif" font-size="14.00">grad 0.0000</text>
</g>
<!-- 140135168826656&#45;&gt;140135168833904* -->
<g id="edge14" class="edge">
<title>140135168826656&#45;&gt;140135168833904*</title>
<path fill="none" stroke="black" d="M1347.05,-128.5C1356.29,-128.5 1364.92,-128.5 1372.62,-128.5"/>
<polygon fill="black" stroke="black" points="1372.87,-132 1382.87,-128.5 1372.87,-125 1372.87,-132"/>
</g>
<!-- 140135168833856 -->
<g id="node18" class="node">
<title>140135168833856</title>
<polygon fill="none" stroke="black" points="984.5,-55.5 984.5,-91.5 1340.5,-91.5 1340.5,-55.5 984.5,-55.5"/>
<text text-anchor="middle" x="1010.5" y="-69.8" font-family="Times,serif" font-size="14.00">v012</text>
<polyline fill="none" stroke="black" points="1036.5,-55.5 1036.5,-91.5 "/>
<text text-anchor="middle" x="1054" y="-69.8" font-family="Times,serif" font-size="14.00">L1</text>
<polyline fill="none" stroke="black" points="1071.5,-55.5 1071.5,-91.5 "/>
<text text-anchor="middle" x="1090.5" y="-69.8" font-family="Times,serif" font-size="14.00">N2</text>
<polyline fill="none" stroke="black" points="1109.5,-55.5 1109.5,-91.5 "/>
<text text-anchor="middle" x="1122" y="-69.8" font-family="Times,serif" font-size="14.00">a</text>
<polyline fill="none" stroke="black" points="1134.5,-55.5 1134.5,-91.5 "/>
<text text-anchor="middle" x="1185.5" y="-69.8" font-family="Times,serif" font-size="14.00">data 2.0000</text>
<polyline fill="none" stroke="black" points="1236.5,-55.5 1236.5,-91.5 "/>
<text text-anchor="middle" x="1288.5" y="-69.8" font-family="Times,serif" font-size="14.00">grad 0.0000</text>
</g>
<!-- 140135168833856&#45;&gt;140135168833472* -->
<g id="edge15" class="edge">
<title>140135168833856&#45;&gt;140135168833472*</title>
<path fill="none" stroke="black" d="M1340.61,-73.5C1352.37,-73.5 1363.29,-73.5 1372.8,-73.5"/>
<polygon fill="black" stroke="black" points="1372.91,-77 1382.91,-73.5 1372.91,-70 1372.91,-77"/>
</g>
<!-- 140135168833856+&#45;&gt;140135168833856 -->
<g id="edge6" class="edge">
<title>140135168833856+&#45;&gt;140135168833856</title>
<path fill="none" stroke="black" d="M942.27,-73.5C951.26,-73.5 962.11,-73.5 974.12,-73.5"/>
<polygon fill="black" stroke="black" points="974.46,-77 984.46,-73.5 974.46,-70 974.46,-77"/>
</g>
<!-- 140135168833904 -->
<g id="node20" class="node">
<title>140135168833904</title>
<polygon fill="none" stroke="black" points="1491,-110.5 1491,-146.5 1812,-146.5 1812,-110.5 1491,-110.5"/>
<text text-anchor="middle" x="1517" y="-124.8" font-family="Times,serif" font-size="14.00">v013</text>
<polyline fill="none" stroke="black" points="1543,-110.5 1543,-146.5 "/>
<text text-anchor="middle" x="1553.5" y="-124.8" font-family="Times,serif" font-size="14.00"> </text>
<polyline fill="none" stroke="black" points="1564,-110.5 1564,-146.5 "/>
<text text-anchor="middle" x="1574.5" y="-124.8" font-family="Times,serif" font-size="14.00"> </text>
<polyline fill="none" stroke="black" points="1585,-110.5 1585,-146.5 "/>
<text text-anchor="middle" x="1595.5" y="-124.8" font-family="Times,serif" font-size="14.00"> </text>
<polyline fill="none" stroke="black" points="1606,-110.5 1606,-146.5 "/>
<text text-anchor="middle" x="1657" y="-124.8" font-family="Times,serif" font-size="14.00">data 1.2000</text>
<polyline fill="none" stroke="black" points="1708,-110.5 1708,-146.5 "/>
<text text-anchor="middle" x="1760" y="-124.8" font-family="Times,serif" font-size="14.00">grad 0.0000</text>
</g>
<!-- 140135168833904&#45;&gt;140135168833664+ -->
<g id="edge16" class="edge">
<title>140135168833904&#45;&gt;140135168833664+</title>
<path fill="none" stroke="black" d="M1812.04,-128.5C1877.75,-128.5 1948.02,-128.5 1989.29,-128.5"/>
<polygon fill="black" stroke="black" points="1989.39,-132 1999.39,-128.5 1989.39,-125 1989.39,-132"/>
</g>
<!-- 140135168833904*&#45;&gt;140135168833904 -->
<g id="edge7" class="edge">
<title>140135168833904*&#45;&gt;140135168833904</title>
<path fill="none" stroke="black" d="M1437.09,-128.5C1448.83,-128.5 1463.78,-128.5 1480.29,-128.5"/>
<polygon fill="black" stroke="black" points="1480.75,-132 1490.75,-128.5 1480.75,-125 1480.75,-132"/>
</g>
<!-- 140135168835008 -->
<g id="node22" class="node">
<title>140135168835008</title>
<polygon fill="none" stroke="black" points="513,-193.5 513,-229.5 834,-229.5 834,-193.5 513,-193.5"/>
<text text-anchor="middle" x="539" y="-207.8" font-family="Times,serif" font-size="14.00">v009</text>
<polyline fill="none" stroke="black" points="565,-193.5 565,-229.5 "/>
<text text-anchor="middle" x="575.5" y="-207.8" font-family="Times,serif" font-size="14.00"> </text>
<polyline fill="none" stroke="black" points="586,-193.5 586,-229.5 "/>
<text text-anchor="middle" x="596.5" y="-207.8" font-family="Times,serif" font-size="14.00"> </text>
<polyline fill="none" stroke="black" points="607,-193.5 607,-229.5 "/>
<text text-anchor="middle" x="617.5" y="-207.8" font-family="Times,serif" font-size="14.00"> </text>
<polyline fill="none" stroke="black" points="628,-193.5 628,-229.5 "/>
<text text-anchor="middle" x="679" y="-207.8" font-family="Times,serif" font-size="14.00">data 2.0000</text>
<polyline fill="none" stroke="black" points="730,-193.5 730,-229.5 "/>
<text text-anchor="middle" x="782" y="-207.8" font-family="Times,serif" font-size="14.00">grad 0.0000</text>
</g>
<!-- 140135168835008&#45;&gt;140135168834336+ -->
<g id="edge18" class="edge">
<title>140135168835008&#45;&gt;140135168834336+</title>
<path fill="none" stroke="black" d="M828.55,-193.49C846.93,-191.34 864.13,-189.33 878.21,-187.68"/>
<polygon fill="black" stroke="black" points="878.82,-191.14 888.34,-186.5 878,-184.18 878.82,-191.14"/>
</g>
<!-- 140135168835008*&#45;&gt;140135168835008 -->
<g id="edge8" class="edge">
<title>140135168835008*&#45;&gt;140135168835008</title>
<path fill="none" stroke="black" d="M459.09,-211.5C470.83,-211.5 485.78,-211.5 502.29,-211.5"/>
<polygon fill="black" stroke="black" points="502.75,-215 512.75,-211.5 502.75,-208 502.75,-215"/>
</g>
<!-- 140135168824304 -->
<g id="node24" class="node">
<title>140135168824304</title>
<polygon fill="none" stroke="black" points="495,-138.5 495,-174.5 852,-174.5 852,-138.5 495,-138.5"/>
<text text-anchor="middle" x="521" y="-152.8" font-family="Times,serif" font-size="14.00">v002</text>
<polyline fill="none" stroke="black" points="547,-138.5 547,-174.5 "/>
<text text-anchor="middle" x="564.5" y="-152.8" font-family="Times,serif" font-size="14.00">L1</text>
<polyline fill="none" stroke="black" points="582,-138.5 582,-174.5 "/>
<text text-anchor="middle" x="601" y="-152.8" font-family="Times,serif" font-size="14.00">N1</text>
<polyline fill="none" stroke="black" points="620,-138.5 620,-174.5 "/>
<text text-anchor="middle" x="633" y="-152.8" font-family="Times,serif" font-size="14.00">b</text>
<polyline fill="none" stroke="black" points="646,-138.5 646,-174.5 "/>
<text text-anchor="middle" x="697" y="-152.8" font-family="Times,serif" font-size="14.00">data 0.0000</text>
<polyline fill="none" stroke="black" points="748,-138.5 748,-174.5 "/>
<text text-anchor="middle" x="800" y="-152.8" font-family="Times,serif" font-size="14.00">grad 0.0000</text>
</g>
<!-- 140135168824304&#45;&gt;140135168834336+ -->
<g id="edge24" class="edge">
<title>140135168824304&#45;&gt;140135168834336+</title>
<path fill="none" stroke="black" d="M834.25,-174.51C850.47,-176.34 865.59,-178.04 878.2,-179.46"/>
<polygon fill="black" stroke="black" points="877.85,-182.95 888.18,-180.59 878.64,-175.99 877.85,-182.95"/>
</g>
</g>
</svg>
