<?xml version="1.0" encoding="UTF-8" standalone="no"?>
<!DOCTYPE svg PUBLIC "-//W3C//DTD SVG 1.1//EN"
 "http://www.w3.org/Graphics/SVG/1.1/DTD/svg11.dtd">
<!-- Generated by graphviz version 2.43.0 (0)
 -->
<!-- Title: %3 Pages: 1 -->
<svg width="3053pt" height="210pt"
 viewBox="0.00 0.00 3053.00 210.00" xmlns="http://www.w3.org/2000/svg" xmlns:xlink="http://www.w3.org/1999/xlink">
<g id="graph0" class="graph" transform="scale(1 1) rotate(0) translate(4 206)">
<title>%3</title>
<polygon fill="white" stroke="transparent" points="-4,4 -4,-206 3049,-206 3049,4 -4,4"/>
<!-- 140135168824352 -->
<g id="node1" class="node">
<title>140135168824352</title>
<polygon fill="none" stroke="black" points="0,-165.5 0,-201.5 369,-201.5 369,-165.5 0,-165.5"/>
<text text-anchor="middle" x="26" y="-179.8" font-family="Times,serif" font-size="14.00">v001</text>
<polyline fill="none" stroke="black" points="52,-165.5 52,-201.5 "/>
<text text-anchor="middle" x="69.5" y="-179.8" font-family="Times,serif" font-size="14.00">L1</text>
<polyline fill="none" stroke="black" points="87,-165.5 87,-201.5 "/>
<text text-anchor="middle" x="106" y="-179.8" font-family="Times,serif" font-size="14.00">N1</text>
<polyline fill="none" stroke="black" points="125,-165.5 125,-201.5 "/>
<text text-anchor="middle" x="144" y="-179.8" font-family="Times,serif" font-size="14.00">w1</text>
<polyline fill="none" stroke="black" points="163,-165.5 163,-201.5 "/>
<text text-anchor="middle" x="214" y="-179.8" font-family="Times,serif" font-size="14.00">data 0.2600</text>
<polyline fill="none" stroke="black" points="265,-165.5 265,-201.5 "/>
<text text-anchor="middle" x="317" y="-179.8" font-family="Times,serif" font-size="14.00">grad 1.6000</text>
</g>
<!-- 140135168831264* -->
<g id="node19" class="node">
<title>140135168831264*</title>
<ellipse fill="none" stroke="black" cx="432" cy="-183.5" rx="27" ry="18"/>
<text text-anchor="middle" x="432" y="-179.8" font-family="Times,serif" font-size="14.00">*</text>
</g>
<!-- 140135168824352&#45;&gt;140135168831264* -->
<g id="edge9" class="edge">
<title>140135168824352&#45;&gt;140135168831264*</title>
<path fill="none" stroke="black" d="M369.05,-183.5C378.29,-183.5 386.92,-183.5 394.62,-183.5"/>
<polygon fill="black" stroke="black" points="394.87,-187 404.87,-183.5 394.87,-180 394.87,-187"/>
</g>
<!-- 140135168830496 -->
<g id="node2" class="node">
<title>140135168830496</title>
<polygon fill="none" stroke="black" points="515.5,-55.5 515.5,-91.5 836.5,-91.5 836.5,-55.5 515.5,-55.5"/>
<text text-anchor="middle" x="541.5" y="-69.8" font-family="Times,serif" font-size="14.00">v019</text>
<polyline fill="none" stroke="black" points="567.5,-55.5 567.5,-91.5 "/>
<text text-anchor="middle" x="578" y="-69.8" font-family="Times,serif" font-size="14.00"> </text>
<polyline fill="none" stroke="black" points="588.5,-55.5 588.5,-91.5 "/>
<text text-anchor="middle" x="599" y="-69.8" font-family="Times,serif" font-size="14.00"> </text>
<polyline fill="none" stroke="black" points="609.5,-55.5 609.5,-91.5 "/>
<text text-anchor="middle" x="620" y="-69.8" font-family="Times,serif" font-size="14.00"> </text>
<polyline fill="none" stroke="black" points="630.5,-55.5 630.5,-91.5 "/>
<text text-anchor="middle" x="681.5" y="-69.8" font-family="Times,serif" font-size="14.00">data 0.0800</text>
<polyline fill="none" stroke="black" points="732.5,-55.5 732.5,-91.5 "/>
<text text-anchor="middle" x="784.5" y="-69.8" font-family="Times,serif" font-size="14.00">grad 1.0000</text>
</g>
<!-- 140135168829392+ -->
<g id="node23" class="node">
<title>140135168829392+</title>
<ellipse fill="none" stroke="black" cx="920" cy="-18.5" rx="27" ry="18"/>
<text text-anchor="middle" x="920" y="-14.8" font-family="Times,serif" font-size="14.00">+</text>
</g>
<!-- 140135168830496&#45;&gt;140135168829392+ -->
<g id="edge17" class="edge">
<title>140135168830496&#45;&gt;140135168829392+</title>
<path fill="none" stroke="black" d="M816.35,-55.48C830.19,-52.6 843.94,-49.29 857,-45.5 867.68,-42.4 878.95,-37.9 888.9,-33.45"/>
<polygon fill="black" stroke="black" points="890.37,-36.63 897.98,-29.26 887.44,-30.28 890.37,-36.63"/>
</g>
<!-- 140135168830496* -->
<g id="node3" class="node">
<title>140135168830496*</title>
<ellipse fill="none" stroke="black" cx="432" cy="-73.5" rx="27" ry="18"/>
<text text-anchor="middle" x="432" y="-69.8" font-family="Times,serif" font-size="14.00">*</text>
</g>
<!-- 140135168830496*&#45;&gt;140135168830496 -->
<g id="edge1" class="edge">
<title>140135168830496*&#45;&gt;140135168830496</title>
<path fill="none" stroke="black" d="M459.36,-73.5C471.7,-73.5 487.53,-73.5 505,-73.5"/>
<polygon fill="black" stroke="black" points="505.46,-77 515.46,-73.5 505.46,-70 505.46,-77"/>
</g>
<!-- 140135658919520 -->
<g id="node4" class="node">
<title>140135658919520</title>
<polygon fill="none" stroke="black" points="24,-110.5 24,-146.5 345,-146.5 345,-110.5 24,-110.5"/>
<text text-anchor="middle" x="50" y="-124.8" font-family="Times,serif" font-size="14.00">v008</text>
<polyline fill="none" stroke="black" points="76,-110.5 76,-146.5 "/>
<text text-anchor="middle" x="86.5" y="-124.8" font-family="Times,serif" font-size="14.00"> </text>
<polyline fill="none" stroke="black" points="97,-110.5 97,-146.5 "/>
<text text-anchor="middle" x="107.5" y="-124.8" font-family="Times,serif" font-size="14.00"> </text>
<polyline fill="none" stroke="black" points="118,-110.5 118,-146.5 "/>
<text text-anchor="middle" x="128.5" y="-124.8" font-family="Times,serif" font-size="14.00">i</text>
<polyline fill="none" stroke="black" points="139,-110.5 139,-146.5 "/>
<text text-anchor="middle" x="190" y="-124.8" font-family="Times,serif" font-size="14.00">data 4.0000</text>
<polyline fill="none" stroke="black" points="241,-110.5 241,-146.5 "/>
<text text-anchor="middle" x="293" y="-124.8" font-family="Times,serif" font-size="14.00">grad 0.1240</text>
</g>
<!-- 140135658919520&#45;&gt;140135168830496* -->
<g id="edge20" class="edge">
<title>140135658919520&#45;&gt;140135168830496*</title>
<path fill="none" stroke="black" d="M328.05,-110.49C341.99,-107.61 355.84,-104.3 369,-100.5 379.68,-97.42 390.95,-92.92 400.91,-88.47"/>
<polygon fill="black" stroke="black" points="402.38,-91.65 409.99,-84.28 399.44,-85.29 402.38,-91.65"/>
</g>
<!-- 140135658919520&#45;&gt;140135168831264* -->
<g id="edge22" class="edge">
<title>140135658919520&#45;&gt;140135168831264*</title>
<path fill="none" stroke="black" d="M328.05,-146.51C341.99,-149.39 355.84,-152.7 369,-156.5 379.68,-159.58 390.95,-164.08 400.91,-168.53"/>
<polygon fill="black" stroke="black" points="399.44,-171.71 409.99,-172.72 402.38,-165.35 399.44,-171.71"/>
</g>
<!-- 140135168825456 -->
<g id="node5" class="node">
<title>140135168825456</title>
<polygon fill="none" stroke="black" points="2689,-56.5 2689,-92.5 3045,-92.5 3045,-56.5 2689,-56.5"/>
<text text-anchor="middle" x="2715" y="-70.8" font-family="Times,serif" font-size="14.00">v024</text>
<polyline fill="none" stroke="black" points="2741,-56.5 2741,-92.5 "/>
<text text-anchor="middle" x="2758.5" y="-70.8" font-family="Times,serif" font-size="14.00">L2</text>
<polyline fill="none" stroke="black" points="2776,-56.5 2776,-92.5 "/>
<text text-anchor="middle" x="2795" y="-70.8" font-family="Times,serif" font-size="14.00">N1</text>
<polyline fill="none" stroke="black" points="2814,-56.5 2814,-92.5 "/>
<text text-anchor="middle" x="2826.5" y="-70.8" font-family="Times,serif" font-size="14.00">a</text>
<polyline fill="none" stroke="black" points="2839,-56.5 2839,-92.5 "/>
<text text-anchor="middle" x="2890" y="-70.8" font-family="Times,serif" font-size="14.00">data 0.2520</text>
<polyline fill="none" stroke="black" points="2941,-56.5 2941,-92.5 "/>
<text text-anchor="middle" x="2993" y="-70.8" font-family="Times,serif" font-size="14.00">grad 1.0000</text>
</g>
<!-- 140135168825456+ -->
<g id="node6" class="node">
<title>140135168825456+</title>
<ellipse fill="none" stroke="black" cx="2626" cy="-74.5" rx="27" ry="18"/>
<text text-anchor="middle" x="2626" y="-70.8" font-family="Times,serif" font-size="14.00">+</text>
</g>
<!-- 140135168825456+&#45;&gt;140135168825456 -->
<g id="edge2" class="edge">
<title>140135168825456+&#45;&gt;140135168825456</title>
<path fill="none" stroke="black" d="M2653.03,-74.5C2660.4,-74.5 2669.02,-74.5 2678.49,-74.5"/>
<polygon fill="black" stroke="black" points="2678.66,-78 2688.66,-74.5 2678.66,-71 2678.66,-78"/>
</g>
<!-- 140135168823968 -->
<g id="node7" class="node">
<title>140135168823968</title>
<polygon fill="none" stroke="black" points="0,-55.5 0,-91.5 369,-91.5 369,-55.5 0,-55.5"/>
<text text-anchor="middle" x="26" y="-69.8" font-family="Times,serif" font-size="14.00">v003</text>
<polyline fill="none" stroke="black" points="52,-55.5 52,-91.5 "/>
<text text-anchor="middle" x="69.5" y="-69.8" font-family="Times,serif" font-size="14.00">L1</text>
<polyline fill="none" stroke="black" points="87,-55.5 87,-91.5 "/>
<text text-anchor="middle" x="106" y="-69.8" font-family="Times,serif" font-size="14.00">N2</text>
<polyline fill="none" stroke="black" points="125,-55.5 125,-91.5 "/>
<text text-anchor="middle" x="144" y="-69.8" font-family="Times,serif" font-size="14.00">w1</text>
<polyline fill="none" stroke="black" points="163,-55.5 163,-91.5 "/>
<text text-anchor="middle" x="214" y="-69.8" font-family="Times,serif" font-size="14.00">data 0.0200</text>
<polyline fill="none" stroke="black" points="265,-55.5 265,-91.5 "/>
<text text-anchor="middle" x="317" y="-69.8" font-family="Times,serif" font-size="14.00">grad 4.0000</text>
</g>
<!-- 140135168823968&#45;&gt;140135168830496* -->
<g id="edge11" class="edge">
<title>140135168823968&#45;&gt;140135168830496*</title>
<path fill="none" stroke="black" d="M369.05,-73.5C378.29,-73.5 386.92,-73.5 394.62,-73.5"/>
<polygon fill="black" stroke="black" points="394.87,-77 404.87,-73.5 394.87,-70 394.87,-77"/>
</g>
<!-- 140135168830640 -->
<g id="node8" class="node">
<title>140135168830640</title>
<polygon fill="none" stroke="black" points="2242,-82.5 2242,-118.5 2563,-118.5 2563,-82.5 2242,-82.5"/>
<text text-anchor="middle" x="2268" y="-96.8" font-family="Times,serif" font-size="14.00">v022</text>
<polyline fill="none" stroke="black" points="2294,-82.5 2294,-118.5 "/>
<text text-anchor="middle" x="2304.5" y="-96.8" font-family="Times,serif" font-size="14.00"> </text>
<polyline fill="none" stroke="black" points="2315,-82.5 2315,-118.5 "/>
<text text-anchor="middle" x="2325.5" y="-96.8" font-family="Times,serif" font-size="14.00"> </text>
<polyline fill="none" stroke="black" points="2336,-82.5 2336,-118.5 "/>
<text text-anchor="middle" x="2346.5" y="-96.8" font-family="Times,serif" font-size="14.00"> </text>
<polyline fill="none" stroke="black" points="2357,-82.5 2357,-118.5 "/>
<text text-anchor="middle" x="2408" y="-96.8" font-family="Times,serif" font-size="14.00">data 0.2920</text>
<polyline fill="none" stroke="black" points="2459,-82.5 2459,-118.5 "/>
<text text-anchor="middle" x="2511" y="-96.8" font-family="Times,serif" font-size="14.00">grad 1.0000</text>
</g>
<!-- 140135168830640&#45;&gt;140135168825456+ -->
<g id="edge24" class="edge">
<title>140135168830640&#45;&gt;140135168825456+</title>
<path fill="none" stroke="black" d="M2557.04,-82.48C2568.67,-81.11 2579.55,-79.83 2589.06,-78.72"/>
<polygon fill="black" stroke="black" points="2589.64,-82.17 2599.17,-77.53 2588.83,-75.22 2589.64,-82.17"/>
</g>
<!-- 140135168830640+ -->
<g id="node9" class="node">
<title>140135168830640+</title>
<ellipse fill="none" stroke="black" cx="2043" cy="-102.5" rx="27" ry="18"/>
<text text-anchor="middle" x="2043" y="-98.8" font-family="Times,serif" font-size="14.00">+</text>
</g>
<!-- 140135168830640+&#45;&gt;140135168830640 -->
<g id="edge3" class="edge">
<title>140135168830640+&#45;&gt;140135168830640</title>
<path fill="none" stroke="black" d="M2070.29,-102.35C2105.03,-102.16 2169.19,-101.8 2231.86,-101.45"/>
<polygon fill="black" stroke="black" points="2231.92,-104.95 2241.9,-101.39 2231.88,-97.95 2231.92,-104.95"/>
</g>
<!-- 140135168826560 -->
<g id="node10" class="node">
<title>140135168826560</title>
<polygon fill="none" stroke="black" points="983,-55.5 983,-91.5 1356,-91.5 1356,-55.5 983,-55.5"/>
<text text-anchor="middle" x="1009" y="-69.8" font-family="Times,serif" font-size="14.00">v006</text>
<polyline fill="none" stroke="black" points="1035,-55.5 1035,-91.5 "/>
<text text-anchor="middle" x="1052.5" y="-69.8" font-family="Times,serif" font-size="14.00">L2</text>
<polyline fill="none" stroke="black" points="1070,-55.5 1070,-91.5 "/>
<text text-anchor="middle" x="1089" y="-69.8" font-family="Times,serif" font-size="14.00">N1</text>
<polyline fill="none" stroke="black" points="1108,-55.5 1108,-91.5 "/>
<text text-anchor="middle" x="1127" y="-69.8" font-family="Times,serif" font-size="14.00">w2</text>
<polyline fill="none" stroke="black" points="1146,-55.5 1146,-91.5 "/>
<text text-anchor="middle" x="1197" y="-69.8" font-family="Times,serif" font-size="14.00">data 1.0000</text>
<polyline fill="none" stroke="black" points="1248,-55.5 1248,-91.5 "/>
<text text-anchor="middle" x="1302" y="-69.8" font-family="Times,serif" font-size="14.00">grad &#45;0.0400</text>
</g>
<!-- 140135168825648* -->
<g id="node21" class="node">
<title>140135168825648*</title>
<ellipse fill="none" stroke="black" cx="1419" cy="-47.5" rx="27" ry="18"/>
<text text-anchor="middle" x="1419" y="-43.8" font-family="Times,serif" font-size="14.00">*</text>
</g>
<!-- 140135168826560&#45;&gt;140135168825648* -->
<g id="edge14" class="edge">
<title>140135168826560&#45;&gt;140135168825648*</title>
<path fill="none" stroke="black" d="M1342.06,-55.48C1356.89,-53.92 1370.64,-52.47 1382.25,-51.26"/>
<polygon fill="black" stroke="black" points="1382.7,-54.73 1392.28,-50.2 1381.97,-47.77 1382.7,-54.73"/>
</g>
<!-- 140135168828576 -->
<g id="node11" class="node">
<title>140135168828576</title>
<polygon fill="none" stroke="black" points="495,-0.5 495,-36.5 857,-36.5 857,-0.5 495,-0.5"/>
<text text-anchor="middle" x="521" y="-14.8" font-family="Times,serif" font-size="14.00">v004</text>
<polyline fill="none" stroke="black" points="547,-0.5 547,-36.5 "/>
<text text-anchor="middle" x="564.5" y="-14.8" font-family="Times,serif" font-size="14.00">L1</text>
<polyline fill="none" stroke="black" points="582,-0.5 582,-36.5 "/>
<text text-anchor="middle" x="601" y="-14.8" font-family="Times,serif" font-size="14.00">N2</text>
<polyline fill="none" stroke="black" points="620,-0.5 620,-36.5 "/>
<text text-anchor="middle" x="633" y="-14.8" font-family="Times,serif" font-size="14.00">b</text>
<polyline fill="none" stroke="black" points="646,-0.5 646,-36.5 "/>
<text text-anchor="middle" x="699.5" y="-14.8" font-family="Times,serif" font-size="14.00">data &#45;0.1200</text>
<polyline fill="none" stroke="black" points="753,-0.5 753,-36.5 "/>
<text text-anchor="middle" x="805" y="-14.8" font-family="Times,serif" font-size="14.00">grad 1.0000</text>
</g>
<!-- 140135168828576&#45;&gt;140135168829392+ -->
<g id="edge21" class="edge">
<title>140135168828576&#45;&gt;140135168829392+</title>
<path fill="none" stroke="black" d="M857.31,-18.5C866.5,-18.5 875.08,-18.5 882.76,-18.5"/>
<polygon fill="black" stroke="black" points="882.96,-22 892.96,-18.5 882.96,-15 882.96,-22"/>
</g>
<!-- 140135168832752 -->
<g id="node12" class="node">
<title>140135168832752</title>
<polygon fill="none" stroke="black" points="991.5,-165.5 991.5,-201.5 1347.5,-201.5 1347.5,-165.5 991.5,-165.5"/>
<text text-anchor="middle" x="1017.5" y="-179.8" font-family="Times,serif" font-size="14.00">v018</text>
<polyline fill="none" stroke="black" points="1043.5,-165.5 1043.5,-201.5 "/>
<text text-anchor="middle" x="1061" y="-179.8" font-family="Times,serif" font-size="14.00">L1</text>
<polyline fill="none" stroke="black" points="1078.5,-165.5 1078.5,-201.5 "/>
<text text-anchor="middle" x="1097.5" y="-179.8" font-family="Times,serif" font-size="14.00">N1</text>
<polyline fill="none" stroke="black" points="1116.5,-165.5 1116.5,-201.5 "/>
<text text-anchor="middle" x="1129" y="-179.8" font-family="Times,serif" font-size="14.00">a</text>
<polyline fill="none" stroke="black" points="1141.5,-165.5 1141.5,-201.5 "/>
<text text-anchor="middle" x="1192.5" y="-179.8" font-family="Times,serif" font-size="14.00">data 0.9800</text>
<polyline fill="none" stroke="black" points="1243.5,-165.5 1243.5,-201.5 "/>
<text text-anchor="middle" x="1295.5" y="-179.8" font-family="Times,serif" font-size="14.00">grad 0.4000</text>
</g>
<!-- 140135168831792* -->
<g id="node17" class="node">
<title>140135168831792*</title>
<ellipse fill="none" stroke="black" cx="1419" cy="-153.5" rx="27" ry="18"/>
<text text-anchor="middle" x="1419" y="-149.8" font-family="Times,serif" font-size="14.00">*</text>
</g>
<!-- 140135168832752&#45;&gt;140135168831792* -->
<g id="edge10" class="edge">
<title>140135168832752&#45;&gt;140135168831792*</title>
<path fill="none" stroke="black" d="M1319.11,-165.49C1342.58,-162.64 1364.8,-159.95 1382.21,-157.84"/>
<polygon fill="black" stroke="black" points="1382.89,-161.28 1392.4,-156.6 1382.05,-154.33 1382.89,-161.28"/>
</g>
<!-- 140135168832752+ -->
<g id="node13" class="node">
<title>140135168832752+</title>
<ellipse fill="none" stroke="black" cx="920" cy="-183.5" rx="27" ry="18"/>
<text text-anchor="middle" x="920" y="-179.8" font-family="Times,serif" font-size="14.00">+</text>
</g>
<!-- 140135168832752+&#45;&gt;140135168832752 -->
<g id="edge4" class="edge">
<title>140135168832752+&#45;&gt;140135168832752</title>
<path fill="none" stroke="black" d="M947.02,-183.5C956.56,-183.5 968.24,-183.5 981.18,-183.5"/>
<polygon fill="black" stroke="black" points="981.32,-187 991.32,-183.5 981.32,-180 981.32,-187"/>
</g>
<!-- 140135168826608 -->
<g id="node14" class="node">
<title>140135168826608</title>
<polygon fill="none" stroke="black" points="1482,-80.5 1482,-116.5 1844,-116.5 1844,-80.5 1482,-80.5"/>
<text text-anchor="middle" x="1508" y="-94.8" font-family="Times,serif" font-size="14.00">v007</text>
<polyline fill="none" stroke="black" points="1534,-80.5 1534,-116.5 "/>
<text text-anchor="middle" x="1551.5" y="-94.8" font-family="Times,serif" font-size="14.00">L2</text>
<polyline fill="none" stroke="black" points="1569,-80.5 1569,-116.5 "/>
<text text-anchor="middle" x="1588" y="-94.8" font-family="Times,serif" font-size="14.00">N1</text>
<polyline fill="none" stroke="black" points="1607,-80.5 1607,-116.5 "/>
<text text-anchor="middle" x="1620" y="-94.8" font-family="Times,serif" font-size="14.00">b</text>
<polyline fill="none" stroke="black" points="1633,-80.5 1633,-116.5 "/>
<text text-anchor="middle" x="1686.5" y="-94.8" font-family="Times,serif" font-size="14.00">data &#45;0.1000</text>
<polyline fill="none" stroke="black" points="1740,-80.5 1740,-116.5 "/>
<text text-anchor="middle" x="1792" y="-94.8" font-family="Times,serif" font-size="14.00">grad 1.0000</text>
</g>
<!-- 140135168826608&#45;&gt;140135168830640+ -->
<g id="edge18" class="edge">
<title>140135168826608&#45;&gt;140135168830640+</title>
<path fill="none" stroke="black" d="M1844.14,-100.41C1905.32,-101.05 1967.75,-101.71 2005.69,-102.12"/>
<polygon fill="black" stroke="black" points="2005.68,-105.62 2015.72,-102.22 2005.76,-98.62 2005.68,-105.62"/>
</g>
<!-- 140135168826656 -->
<g id="node15" class="node">
<title>140135168826656</title>
<polygon fill="none" stroke="black" points="985,-110.5 985,-146.5 1354,-146.5 1354,-110.5 985,-110.5"/>
<text text-anchor="middle" x="1011" y="-124.8" font-family="Times,serif" font-size="14.00">v005</text>
<polyline fill="none" stroke="black" points="1037,-110.5 1037,-146.5 "/>
<text text-anchor="middle" x="1054.5" y="-124.8" font-family="Times,serif" font-size="14.00">L2</text>
<polyline fill="none" stroke="black" points="1072,-110.5 1072,-146.5 "/>
<text text-anchor="middle" x="1091" y="-124.8" font-family="Times,serif" font-size="14.00">N1</text>
<polyline fill="none" stroke="black" points="1110,-110.5 1110,-146.5 "/>
<text text-anchor="middle" x="1129" y="-124.8" font-family="Times,serif" font-size="14.00">w1</text>
<polyline fill="none" stroke="black" points="1148,-110.5 1148,-146.5 "/>
<text text-anchor="middle" x="1199" y="-124.8" font-family="Times,serif" font-size="14.00">data 0.4000</text>
<polyline fill="none" stroke="black" points="1250,-110.5 1250,-146.5 "/>
<text text-anchor="middle" x="1302" y="-124.8" font-family="Times,serif" font-size="14.00">grad 0.9800</text>
</g>
<!-- 140135168826656&#45;&gt;140135168831792* -->
<g id="edge12" class="edge">
<title>140135168826656&#45;&gt;140135168831792*</title>
<path fill="none" stroke="black" d="M1348.73,-146.5C1360.98,-147.74 1372.35,-148.89 1382.18,-149.88"/>
<polygon fill="black" stroke="black" points="1381.91,-153.37 1392.21,-150.9 1382.62,-146.41 1381.91,-153.37"/>
</g>
<!-- 140135168831792 -->
<g id="node16" class="node">
<title>140135168831792</title>
<polygon fill="none" stroke="black" points="1502.5,-135.5 1502.5,-171.5 1823.5,-171.5 1823.5,-135.5 1502.5,-135.5"/>
<text text-anchor="middle" x="1528.5" y="-149.8" font-family="Times,serif" font-size="14.00">v021</text>
<polyline fill="none" stroke="black" points="1554.5,-135.5 1554.5,-171.5 "/>
<text text-anchor="middle" x="1565" y="-149.8" font-family="Times,serif" font-size="14.00"> </text>
<polyline fill="none" stroke="black" points="1575.5,-135.5 1575.5,-171.5 "/>
<text text-anchor="middle" x="1586" y="-149.8" font-family="Times,serif" font-size="14.00"> </text>
<polyline fill="none" stroke="black" points="1596.5,-135.5 1596.5,-171.5 "/>
<text text-anchor="middle" x="1607" y="-149.8" font-family="Times,serif" font-size="14.00"> </text>
<polyline fill="none" stroke="black" points="1617.5,-135.5 1617.5,-171.5 "/>
<text text-anchor="middle" x="1668.5" y="-149.8" font-family="Times,serif" font-size="14.00">data 0.3920</text>
<polyline fill="none" stroke="black" points="1719.5,-135.5 1719.5,-171.5 "/>
<text text-anchor="middle" x="1771.5" y="-149.8" font-family="Times,serif" font-size="14.00">grad 1.0000</text>
</g>
<!-- 140135168831792&#45;&gt;140135168830640+ -->
<g id="edge19" class="edge">
<title>140135168831792&#45;&gt;140135168830640+</title>
<path fill="none" stroke="black" d="M1797.53,-135.48C1871.81,-125.46 1958.61,-113.75 2006.22,-107.33"/>
<polygon fill="black" stroke="black" points="2006.89,-110.77 2016.33,-105.96 2005.95,-103.83 2006.89,-110.77"/>
</g>
<!-- 140135168831792*&#45;&gt;140135168831792 -->
<g id="edge5" class="edge">
<title>140135168831792*&#45;&gt;140135168831792</title>
<path fill="none" stroke="black" d="M1446.36,-153.5C1458.7,-153.5 1474.53,-153.5 1492,-153.5"/>
<polygon fill="black" stroke="black" points="1492.46,-157 1502.46,-153.5 1492.46,-150 1492.46,-157"/>
</g>
<!-- 140135168831264 -->
<g id="node18" class="node">
<title>140135168831264</title>
<polygon fill="none" stroke="black" points="515.5,-165.5 515.5,-201.5 836.5,-201.5 836.5,-165.5 515.5,-165.5"/>
<text text-anchor="middle" x="541.5" y="-179.8" font-family="Times,serif" font-size="14.00">v017</text>
<polyline fill="none" stroke="black" points="567.5,-165.5 567.5,-201.5 "/>
<text text-anchor="middle" x="578" y="-179.8" font-family="Times,serif" font-size="14.00"> </text>
<polyline fill="none" stroke="black" points="588.5,-165.5 588.5,-201.5 "/>
<text text-anchor="middle" x="599" y="-179.8" font-family="Times,serif" font-size="14.00"> </text>
<polyline fill="none" stroke="black" points="609.5,-165.5 609.5,-201.5 "/>
<text text-anchor="middle" x="620" y="-179.8" font-family="Times,serif" font-size="14.00"> </text>
<polyline fill="none" stroke="black" points="630.5,-165.5 630.5,-201.5 "/>
<text text-anchor="middle" x="681.5" y="-179.8" font-family="Times,serif" font-size="14.00">data 1.0400</text>
<polyline fill="none" stroke="black" points="732.5,-165.5 732.5,-201.5 "/>
<text text-anchor="middle" x="784.5" y="-179.8" font-family="Times,serif" font-size="14.00">grad 0.4000</text>
</g>
<!-- 140135168831264&#45;&gt;140135168832752+ -->
<g id="edge15" class="edge">
<title>140135168831264&#45;&gt;140135168832752+</title>
<path fill="none" stroke="black" d="M836.73,-183.5C853.54,-183.5 869.24,-183.5 882.32,-183.5"/>
<polygon fill="black" stroke="black" points="882.66,-187 892.66,-183.5 882.66,-180 882.66,-187"/>
</g>
<!-- 140135168831264*&#45;&gt;140135168831264 -->
<g id="edge6" class="edge">
<title>140135168831264*&#45;&gt;140135168831264</title>
<path fill="none" stroke="black" d="M459.36,-183.5C471.7,-183.5 487.53,-183.5 505,-183.5"/>
<polygon fill="black" stroke="black" points="505.46,-187 515.46,-183.5 505.46,-180 505.46,-187"/>
</g>
<!-- 140135168825648 -->
<g id="node20" class="node">
<title>140135168825648</title>
<polygon fill="none" stroke="black" points="1880,-29.5 1880,-65.5 2206,-65.5 2206,-29.5 1880,-29.5"/>
<text text-anchor="middle" x="1906" y="-43.8" font-family="Times,serif" font-size="14.00">v023</text>
<polyline fill="none" stroke="black" points="1932,-29.5 1932,-65.5 "/>
<text text-anchor="middle" x="1942.5" y="-43.8" font-family="Times,serif" font-size="14.00"> </text>
<polyline fill="none" stroke="black" points="1953,-29.5 1953,-65.5 "/>
<text text-anchor="middle" x="1963.5" y="-43.8" font-family="Times,serif" font-size="14.00"> </text>
<polyline fill="none" stroke="black" points="1974,-29.5 1974,-65.5 "/>
<text text-anchor="middle" x="1984.5" y="-43.8" font-family="Times,serif" font-size="14.00"> </text>
<polyline fill="none" stroke="black" points="1995,-29.5 1995,-65.5 "/>
<text text-anchor="middle" x="2048.5" y="-43.8" font-family="Times,serif" font-size="14.00">data &#45;0.0400</text>
<polyline fill="none" stroke="black" points="2102,-29.5 2102,-65.5 "/>
<text text-anchor="middle" x="2154" y="-43.8" font-family="Times,serif" font-size="14.00">grad 1.0000</text>
</g>
<!-- 140135168825648&#45;&gt;140135168825456+ -->
<g id="edge13" class="edge">
<title>140135168825648&#45;&gt;140135168825456+</title>
<path fill="none" stroke="black" d="M2206.23,-55.04C2337.75,-61.15 2513.16,-69.3 2588.31,-72.79"/>
<polygon fill="black" stroke="black" points="2588.5,-76.31 2598.65,-73.28 2588.82,-69.31 2588.5,-76.31"/>
</g>
<!-- 140135168825648*&#45;&gt;140135168825648 -->
<g id="edge7" class="edge">
<title>140135168825648*&#45;&gt;140135168825648</title>
<path fill="none" stroke="black" d="M1446.33,-47.5C1517.87,-47.5 1720.46,-47.5 1869.6,-47.5"/>
<polygon fill="black" stroke="black" points="1869.79,-51 1879.79,-47.5 1869.79,-44 1869.79,-51"/>
</g>
<!-- 140135168829392 -->
<g id="node22" class="node">
<title>140135168829392</title>
<polygon fill="none" stroke="black" points="989,-0.5 989,-36.5 1350,-36.5 1350,-0.5 989,-0.5"/>
<text text-anchor="middle" x="1015" y="-14.8" font-family="Times,serif" font-size="14.00">v020</text>
<polyline fill="none" stroke="black" points="1041,-0.5 1041,-36.5 "/>
<text text-anchor="middle" x="1058.5" y="-14.8" font-family="Times,serif" font-size="14.00">L1</text>
<polyline fill="none" stroke="black" points="1076,-0.5 1076,-36.5 "/>
<text text-anchor="middle" x="1095" y="-14.8" font-family="Times,serif" font-size="14.00">N2</text>
<polyline fill="none" stroke="black" points="1114,-0.5 1114,-36.5 "/>
<text text-anchor="middle" x="1126.5" y="-14.8" font-family="Times,serif" font-size="14.00">a</text>
<polyline fill="none" stroke="black" points="1139,-0.5 1139,-36.5 "/>
<text text-anchor="middle" x="1192.5" y="-14.8" font-family="Times,serif" font-size="14.00">data &#45;0.0400</text>
<polyline fill="none" stroke="black" points="1246,-0.5 1246,-36.5 "/>
<text text-anchor="middle" x="1298" y="-14.8" font-family="Times,serif" font-size="14.00">grad 1.0000</text>
</g>
<!-- 140135168829392&#45;&gt;140135168825648* -->
<g id="edge16" class="edge">
<title>140135168829392&#45;&gt;140135168825648*</title>
<path fill="none" stroke="black" d="M1324.43,-36.54C1345.88,-39.05 1366.04,-41.41 1382.12,-43.3"/>
<polygon fill="black" stroke="black" points="1381.73,-46.77 1392.06,-44.46 1382.54,-39.82 1381.73,-46.77"/>
</g>
<!-- 140135168829392+&#45;&gt;140135168829392 -->
<g id="edge8" class="edge">
<title>140135168829392+&#45;&gt;140135168829392</title>
<path fill="none" stroke="black" d="M947.02,-18.5C955.94,-18.5 966.72,-18.5 978.66,-18.5"/>
<polygon fill="black" stroke="black" points="978.95,-22 988.95,-18.5 978.95,-15 978.95,-22"/>
</g>
<!-- 140135168824304 -->
<g id="node24" class="node">
<title>140135168824304</title>
<polygon fill="none" stroke="black" points="495,-110.5 495,-146.5 857,-146.5 857,-110.5 495,-110.5"/>
<text text-anchor="middle" x="521" y="-124.8" font-family="Times,serif" font-size="14.00">v002</text>
<polyline fill="none" stroke="black" points="547,-110.5 547,-146.5 "/>
<text text-anchor="middle" x="564.5" y="-124.8" font-family="Times,serif" font-size="14.00">L1</text>
<polyline fill="none" stroke="black" points="582,-110.5 582,-146.5 "/>
<text text-anchor="middle" x="601" y="-124.8" font-family="Times,serif" font-size="14.00">N1</text>
<polyline fill="none" stroke="black" points="620,-110.5 620,-146.5 "/>
<text text-anchor="middle" x="633" y="-124.8" font-family="Times,serif" font-size="14.00">b</text>
<polyline fill="none" stroke="black" points="646,-110.5 646,-146.5 "/>
<text text-anchor="middle" x="699.5" y="-124.8" font-family="Times,serif" font-size="14.00">data &#45;0.0600</text>
<polyline fill="none" stroke="black" points="753,-110.5 753,-146.5 "/>
<text text-anchor="middle" x="805" y="-124.8" font-family="Times,serif" font-size="14.00">grad 0.4000</text>
</g>
<!-- 140135168824304&#45;&gt;140135168832752+ -->
<g id="edge23" class="edge">
<title>140135168824304&#45;&gt;140135168832752+</title>
<path fill="none" stroke="black" d="M816.35,-146.52C830.19,-149.4 843.94,-152.71 857,-156.5 867.68,-159.6 878.95,-164.1 888.9,-168.55"/>
<polygon fill="black" stroke="black" points="887.44,-171.72 897.98,-172.74 890.37,-165.37 887.44,-171.72"/>
</g>
</g>
</svg>
