<?xml version="1.0" encoding="UTF-8" standalone="no"?>
<!DOCTYPE svg PUBLIC "-//W3C//DTD SVG 1.1//EN"
 "http://www.w3.org/Graphics/SVG/1.1/DTD/svg11.dtd">
<!-- Generated by graphviz version 2.43.0 (0)
 -->
<!-- Title: %3 Pages: 1 -->
<svg width="3049pt" height="210pt"
 viewBox="0.00 0.00 3049.00 210.00" xmlns="http://www.w3.org/2000/svg" xmlns:xlink="http://www.w3.org/1999/xlink">
<g id="graph0" class="graph" transform="scale(1 1) rotate(0) translate(4 206)">
<title>%3</title>
<polygon fill="white" stroke="transparent" points="-4,4 -4,-206 3045,-206 3045,4 -4,4"/>
<!-- 140135168824352 -->
<g id="node1" class="node">
<title>140135168824352</title>
<polygon fill="none" stroke="black" points="0,-165.5 0,-201.5 369,-201.5 369,-165.5 0,-165.5"/>
<text text-anchor="middle" x="26" y="-179.8" font-family="Times,serif" font-size="14.00">v001</text>
<polyline fill="none" stroke="black" points="52,-165.5 52,-201.5 "/>
<text text-anchor="middle" x="69.5" y="-179.8" font-family="Times,serif" font-size="14.00">L1</text>
<polyline fill="none" stroke="black" points="87,-165.5 87,-201.5 "/>
<text text-anchor="middle" x="106" y="-179.8" font-family="Times,serif" font-size="14.00">N1</text>
<polyline fill="none" stroke="black" points="125,-165.5 125,-201.5 "/>
<text text-anchor="middle" x="144" y="-179.8" font-family="Times,serif" font-size="14.00">w1</text>
<polyline fill="none" stroke="black" points="163,-165.5 163,-201.5 "/>
<text text-anchor="middle" x="214" y="-179.8" font-family="Times,serif" font-size="14.00">data 0.2600</text>
<polyline fill="none" stroke="black" points="265,-165.5 265,-201.5 "/>
<text text-anchor="middle" x="317" y="-179.8" font-family="Times,serif" font-size="14.00">grad 2.4000</text>
</g>
<!-- 140135168831264* -->
<g id="node19" class="node">
<title>140135168831264*</title>
<ellipse fill="none" stroke="black" cx="432" cy="-183.5" rx="27" ry="18"/>
<text text-anchor="middle" x="432" y="-179.8" font-family="Times,serif" font-size="14.00">*</text>
</g>
<!-- 140135168824352&#45;&gt;140135168831264* -->
<g id="edge9" class="edge">
<title>140135168824352&#45;&gt;140135168831264*</title>
<path fill="none" stroke="black" d="M369.05,-183.5C378.29,-183.5 386.92,-183.5 394.62,-183.5"/>
<polygon fill="black" stroke="black" points="394.87,-187 404.87,-183.5 394.87,-180 394.87,-187"/>
</g>
<!-- 140135168830496 -->
<g id="node2" class="node">
<title>140135168830496</title>
<polygon fill="none" stroke="black" points="515.5,-55.5 515.5,-91.5 836.5,-91.5 836.5,-55.5 515.5,-55.5"/>
<text text-anchor="middle" x="541.5" y="-69.8" font-family="Times,serif" font-size="14.00">v019</text>
<polyline fill="none" stroke="black" points="567.5,-55.5 567.5,-91.5 "/>
<text text-anchor="middle" x="578" y="-69.8" font-family="Times,serif" font-size="14.00"> </text>
<polyline fill="none" stroke="black" points="588.5,-55.5 588.5,-91.5 "/>
<text text-anchor="middle" x="599" y="-69.8" font-family="Times,serif" font-size="14.00"> </text>
<polyline fill="none" stroke="black" points="609.5,-55.5 609.5,-91.5 "/>
<text text-anchor="middle" x="620" y="-69.8" font-family="Times,serif" font-size="14.00"> </text>
<polyline fill="none" stroke="black" points="630.5,-55.5 630.5,-91.5 "/>
<text text-anchor="middle" x="681.5" y="-69.8" font-family="Times,serif" font-size="14.00">data 0.0800</text>
<polyline fill="none" stroke="black" points="732.5,-55.5 732.5,-91.5 "/>
<text text-anchor="middle" x="784.5" y="-69.8" font-family="Times,serif" font-size="14.00">grad 0.0000</text>
</g>
<!-- 140135168829392+ -->
<g id="node23" class="node">
<title>140135168829392+</title>
<ellipse fill="none" stroke="black" cx="920" cy="-18.5" rx="27" ry="18"/>
<text text-anchor="middle" x="920" y="-14.8" font-family="Times,serif" font-size="14.00">+</text>
</g>
<!-- 140135168830496&#45;&gt;140135168829392+ -->
<g id="edge17" class="edge">
<title>140135168830496&#45;&gt;140135168829392+</title>
<path fill="none" stroke="black" d="M816.35,-55.48C830.19,-52.6 843.94,-49.29 857,-45.5 867.68,-42.4 878.95,-37.9 888.9,-33.45"/>
<polygon fill="black" stroke="black" points="890.37,-36.63 897.98,-29.26 887.44,-30.28 890.37,-36.63"/>
</g>
<!-- 140135168830496* -->
<g id="node3" class="node">
<title>140135168830496*</title>
<ellipse fill="none" stroke="black" cx="432" cy="-73.5" rx="27" ry="18"/>
<text text-anchor="middle" x="432" y="-69.8" font-family="Times,serif" font-size="14.00">*</text>
</g>
<!-- 140135168830496*&#45;&gt;140135168830496 -->
<g id="edge1" class="edge">
<title>140135168830496*&#45;&gt;140135168830496</title>
<path fill="none" stroke="black" d="M459.36,-73.5C471.7,-73.5 487.53,-73.5 505,-73.5"/>
<polygon fill="black" stroke="black" points="505.46,-77 515.46,-73.5 505.46,-70 505.46,-77"/>
</g>
<!-- 140135658919520 -->
<g id="node4" class="node">
<title>140135658919520</title>
<polygon fill="none" stroke="black" points="24,-110.5 24,-146.5 345,-146.5 345,-110.5 24,-110.5"/>
<text text-anchor="middle" x="50" y="-124.8" font-family="Times,serif" font-size="14.00">v008</text>
<polyline fill="none" stroke="black" points="76,-110.5 76,-146.5 "/>
<text text-anchor="middle" x="86.5" y="-124.8" font-family="Times,serif" font-size="14.00"> </text>
<polyline fill="none" stroke="black" points="97,-110.5 97,-146.5 "/>
<text text-anchor="middle" x="107.5" y="-124.8" font-family="Times,serif" font-size="14.00"> </text>
<polyline fill="none" stroke="black" points="118,-110.5 118,-146.5 "/>
<text text-anchor="middle" x="128.5" y="-124.8" font-family="Times,serif" font-size="14.00">i</text>
<polyline fill="none" stroke="black" points="139,-110.5 139,-146.5 "/>
<text text-anchor="middle" x="190" y="-124.8" font-family="Times,serif" font-size="14.00">data 4.0000</text>
<polyline fill="none" stroke="black" points="241,-110.5 241,-146.5 "/>
<text text-anchor="middle" x="293" y="-124.8" font-family="Times,serif" font-size="14.00">grad 0.9000</text>
</g>
<!-- 140135658919520&#45;&gt;140135168830496* -->
<g id="edge20" class="edge">
<title>140135658919520&#45;&gt;140135168830496*</title>
<path fill="none" stroke="black" d="M328.05,-110.49C341.99,-107.61 355.84,-104.3 369,-100.5 379.68,-97.42 390.95,-92.92 400.91,-88.47"/>
<polygon fill="black" stroke="black" points="402.38,-91.65 409.99,-84.28 399.44,-85.29 402.38,-91.65"/>
</g>
<!-- 140135658919520&#45;&gt;140135168831264* -->
<g id="edge22" class="edge">
<title>140135658919520&#45;&gt;140135168831264*</title>
<path fill="none" stroke="black" d="M328.05,-146.51C341.99,-149.39 355.84,-152.7 369,-156.5 379.68,-159.58 390.95,-164.08 400.91,-168.53"/>
<polygon fill="black" stroke="black" points="399.44,-171.71 409.99,-172.72 402.38,-165.35 399.44,-171.71"/>
</g>
<!-- 140135168825456 -->
<g id="node5" class="node">
<title>140135168825456</title>
<polygon fill="none" stroke="black" points="2685,-56.5 2685,-92.5 3041,-92.5 3041,-56.5 2685,-56.5"/>
<text text-anchor="middle" x="2711" y="-70.8" font-family="Times,serif" font-size="14.00">v024</text>
<polyline fill="none" stroke="black" points="2737,-56.5 2737,-92.5 "/>
<text text-anchor="middle" x="2754.5" y="-70.8" font-family="Times,serif" font-size="14.00">L2</text>
<polyline fill="none" stroke="black" points="2772,-56.5 2772,-92.5 "/>
<text text-anchor="middle" x="2791" y="-70.8" font-family="Times,serif" font-size="14.00">N1</text>
<polyline fill="none" stroke="black" points="2810,-56.5 2810,-92.5 "/>
<text text-anchor="middle" x="2822.5" y="-70.8" font-family="Times,serif" font-size="14.00">a</text>
<polyline fill="none" stroke="black" points="2835,-56.5 2835,-92.5 "/>
<text text-anchor="middle" x="2886" y="-70.8" font-family="Times,serif" font-size="14.00">data 0.2520</text>
<polyline fill="none" stroke="black" points="2937,-56.5 2937,-92.5 "/>
<text text-anchor="middle" x="2989" y="-70.8" font-family="Times,serif" font-size="14.00">grad 0.0000</text>
</g>
<!-- 140135168825456+ -->
<g id="node6" class="node">
<title>140135168825456+</title>
<ellipse fill="none" stroke="black" cx="2622" cy="-74.5" rx="27" ry="18"/>
<text text-anchor="middle" x="2622" y="-70.8" font-family="Times,serif" font-size="14.00">+</text>
</g>
<!-- 140135168825456+&#45;&gt;140135168825456 -->
<g id="edge2" class="edge">
<title>140135168825456+&#45;&gt;140135168825456</title>
<path fill="none" stroke="black" d="M2649.03,-74.5C2656.4,-74.5 2665.02,-74.5 2674.49,-74.5"/>
<polygon fill="black" stroke="black" points="2674.66,-78 2684.66,-74.5 2674.66,-71 2674.66,-78"/>
</g>
<!-- 140135168823968 -->
<g id="node7" class="node">
<title>140135168823968</title>
<polygon fill="none" stroke="black" points="0,-55.5 0,-91.5 369,-91.5 369,-55.5 0,-55.5"/>
<text text-anchor="middle" x="26" y="-69.8" font-family="Times,serif" font-size="14.00">v003</text>
<polyline fill="none" stroke="black" points="52,-55.5 52,-91.5 "/>
<text text-anchor="middle" x="69.5" y="-69.8" font-family="Times,serif" font-size="14.00">L1</text>
<polyline fill="none" stroke="black" points="87,-55.5 87,-91.5 "/>
<text text-anchor="middle" x="106" y="-69.8" font-family="Times,serif" font-size="14.00">N2</text>
<polyline fill="none" stroke="black" points="125,-55.5 125,-91.5 "/>
<text text-anchor="middle" x="144" y="-69.8" font-family="Times,serif" font-size="14.00">w1</text>
<polyline fill="none" stroke="black" points="163,-55.5 163,-91.5 "/>
<text text-anchor="middle" x="214" y="-69.8" font-family="Times,serif" font-size="14.00">data 0.0200</text>
<polyline fill="none" stroke="black" points="265,-55.5 265,-91.5 "/>
<text text-anchor="middle" x="317" y="-69.8" font-family="Times,serif" font-size="14.00">grad 4.8000</text>
</g>
<!-- 140135168823968&#45;&gt;140135168830496* -->
<g id="edge11" class="edge">
<title>140135168823968&#45;&gt;140135168830496*</title>
<path fill="none" stroke="black" d="M369.05,-73.5C378.29,-73.5 386.92,-73.5 394.62,-73.5"/>
<polygon fill="black" stroke="black" points="394.87,-77 404.87,-73.5 394.87,-70 394.87,-77"/>
</g>
<!-- 140135168830640 -->
<g id="node8" class="node">
<title>140135168830640</title>
<polygon fill="none" stroke="black" points="2238,-82.5 2238,-118.5 2559,-118.5 2559,-82.5 2238,-82.5"/>
<text text-anchor="middle" x="2264" y="-96.8" font-family="Times,serif" font-size="14.00">v022</text>
<polyline fill="none" stroke="black" points="2290,-82.5 2290,-118.5 "/>
<text text-anchor="middle" x="2300.5" y="-96.8" font-family="Times,serif" font-size="14.00"> </text>
<polyline fill="none" stroke="black" points="2311,-82.5 2311,-118.5 "/>
<text text-anchor="middle" x="2321.5" y="-96.8" font-family="Times,serif" font-size="14.00"> </text>
<polyline fill="none" stroke="black" points="2332,-82.5 2332,-118.5 "/>
<text text-anchor="middle" x="2342.5" y="-96.8" font-family="Times,serif" font-size="14.00"> </text>
<polyline fill="none" stroke="black" points="2353,-82.5 2353,-118.5 "/>
<text text-anchor="middle" x="2404" y="-96.8" font-family="Times,serif" font-size="14.00">data 0.2920</text>
<polyline fill="none" stroke="black" points="2455,-82.5 2455,-118.5 "/>
<text text-anchor="middle" x="2507" y="-96.8" font-family="Times,serif" font-size="14.00">grad 0.0000</text>
</g>
<!-- 140135168830640&#45;&gt;140135168825456+ -->
<g id="edge24" class="edge">
<title>140135168830640&#45;&gt;140135168825456+</title>
<path fill="none" stroke="black" d="M2553.04,-82.48C2564.67,-81.11 2575.55,-79.83 2585.06,-78.72"/>
<polygon fill="black" stroke="black" points="2585.64,-82.17 2595.17,-77.53 2584.83,-75.22 2585.64,-82.17"/>
</g>
<!-- 140135168830640+ -->
<g id="node9" class="node">
<title>140135168830640+</title>
<ellipse fill="none" stroke="black" cx="2039" cy="-102.5" rx="27" ry="18"/>
<text text-anchor="middle" x="2039" y="-98.8" font-family="Times,serif" font-size="14.00">+</text>
</g>
<!-- 140135168830640+&#45;&gt;140135168830640 -->
<g id="edge3" class="edge">
<title>140135168830640+&#45;&gt;140135168830640</title>
<path fill="none" stroke="black" d="M2066.29,-102.35C2101.03,-102.16 2165.19,-101.8 2227.86,-101.45"/>
<polygon fill="black" stroke="black" points="2227.92,-104.95 2237.9,-101.39 2227.88,-97.95 2227.92,-104.95"/>
</g>
<!-- 140135168826560 -->
<g id="node10" class="node">
<title>140135168826560</title>
<polygon fill="none" stroke="black" points="983,-55.5 983,-91.5 1352,-91.5 1352,-55.5 983,-55.5"/>
<text text-anchor="middle" x="1009" y="-69.8" font-family="Times,serif" font-size="14.00">v006</text>
<polyline fill="none" stroke="black" points="1035,-55.5 1035,-91.5 "/>
<text text-anchor="middle" x="1052.5" y="-69.8" font-family="Times,serif" font-size="14.00">L2</text>
<polyline fill="none" stroke="black" points="1070,-55.5 1070,-91.5 "/>
<text text-anchor="middle" x="1089" y="-69.8" font-family="Times,serif" font-size="14.00">N1</text>
<polyline fill="none" stroke="black" points="1108,-55.5 1108,-91.5 "/>
<text text-anchor="middle" x="1127" y="-69.8" font-family="Times,serif" font-size="14.00">w2</text>
<polyline fill="none" stroke="black" points="1146,-55.5 1146,-91.5 "/>
<text text-anchor="middle" x="1197" y="-69.8" font-family="Times,serif" font-size="14.00">data 1.0000</text>
<polyline fill="none" stroke="black" points="1248,-55.5 1248,-91.5 "/>
<text text-anchor="middle" x="1300" y="-69.8" font-family="Times,serif" font-size="14.00">grad 2.0000</text>
</g>
<!-- 140135168825648* -->
<g id="node21" class="node">
<title>140135168825648*</title>
<ellipse fill="none" stroke="black" cx="1415" cy="-47.5" rx="27" ry="18"/>
<text text-anchor="middle" x="1415" y="-43.8" font-family="Times,serif" font-size="14.00">*</text>
</g>
<!-- 140135168826560&#45;&gt;140135168825648* -->
<g id="edge14" class="edge">
<title>140135168826560&#45;&gt;140135168825648*</title>
<path fill="none" stroke="black" d="M1338.67,-55.48C1353.11,-53.95 1366.52,-52.53 1377.9,-51.32"/>
<polygon fill="black" stroke="black" points="1378.58,-54.77 1388.15,-50.24 1377.84,-47.81 1378.58,-54.77"/>
</g>
<!-- 140135168828576 -->
<g id="node11" class="node">
<title>140135168828576</title>
<polygon fill="none" stroke="black" points="495,-0.5 495,-36.5 857,-36.5 857,-0.5 495,-0.5"/>
<text text-anchor="middle" x="521" y="-14.8" font-family="Times,serif" font-size="14.00">v004</text>
<polyline fill="none" stroke="black" points="547,-0.5 547,-36.5 "/>
<text text-anchor="middle" x="564.5" y="-14.8" font-family="Times,serif" font-size="14.00">L1</text>
<polyline fill="none" stroke="black" points="582,-0.5 582,-36.5 "/>
<text text-anchor="middle" x="601" y="-14.8" font-family="Times,serif" font-size="14.00">N2</text>
<polyline fill="none" stroke="black" points="620,-0.5 620,-36.5 "/>
<text text-anchor="middle" x="633" y="-14.8" font-family="Times,serif" font-size="14.00">b</text>
<polyline fill="none" stroke="black" points="646,-0.5 646,-36.5 "/>
<text text-anchor="middle" x="699.5" y="-14.8" font-family="Times,serif" font-size="14.00">data &#45;0.1200</text>
<polyline fill="none" stroke="black" points="753,-0.5 753,-36.5 "/>
<text text-anchor="middle" x="805" y="-14.8" font-family="Times,serif" font-size="14.00">grad 1.2000</text>
</g>
<!-- 140135168828576&#45;&gt;140135168829392+ -->
<g id="edge21" class="edge">
<title>140135168828576&#45;&gt;140135168829392+</title>
<path fill="none" stroke="black" d="M857.31,-18.5C866.5,-18.5 875.08,-18.5 882.76,-18.5"/>
<polygon fill="black" stroke="black" points="882.96,-22 892.96,-18.5 882.96,-15 882.96,-22"/>
</g>
<!-- 140135168832752 -->
<g id="node12" class="node">
<title>140135168832752</title>
<polygon fill="none" stroke="black" points="989.5,-165.5 989.5,-201.5 1345.5,-201.5 1345.5,-165.5 989.5,-165.5"/>
<text text-anchor="middle" x="1015.5" y="-179.8" font-family="Times,serif" font-size="14.00">v018</text>
<polyline fill="none" stroke="black" points="1041.5,-165.5 1041.5,-201.5 "/>
<text text-anchor="middle" x="1059" y="-179.8" font-family="Times,serif" font-size="14.00">L1</text>
<polyline fill="none" stroke="black" points="1076.5,-165.5 1076.5,-201.5 "/>
<text text-anchor="middle" x="1095.5" y="-179.8" font-family="Times,serif" font-size="14.00">N1</text>
<polyline fill="none" stroke="black" points="1114.5,-165.5 1114.5,-201.5 "/>
<text text-anchor="middle" x="1127" y="-179.8" font-family="Times,serif" font-size="14.00">a</text>
<polyline fill="none" stroke="black" points="1139.5,-165.5 1139.5,-201.5 "/>
<text text-anchor="middle" x="1190.5" y="-179.8" font-family="Times,serif" font-size="14.00">data 0.9800</text>
<polyline fill="none" stroke="black" points="1241.5,-165.5 1241.5,-201.5 "/>
<text text-anchor="middle" x="1293.5" y="-179.8" font-family="Times,serif" font-size="14.00">grad 0.0000</text>
</g>
<!-- 140135168831792* -->
<g id="node17" class="node">
<title>140135168831792*</title>
<ellipse fill="none" stroke="black" cx="1415" cy="-153.5" rx="27" ry="18"/>
<text text-anchor="middle" x="1415" y="-149.8" font-family="Times,serif" font-size="14.00">*</text>
</g>
<!-- 140135168832752&#45;&gt;140135168831792* -->
<g id="edge10" class="edge">
<title>140135168832752&#45;&gt;140135168831792*</title>
<path fill="none" stroke="black" d="M1315.91,-165.49C1339.02,-162.66 1360.91,-159.99 1378.13,-157.88"/>
<polygon fill="black" stroke="black" points="1378.71,-161.34 1388.21,-156.65 1377.86,-154.39 1378.71,-161.34"/>
</g>
<!-- 140135168832752+ -->
<g id="node13" class="node">
<title>140135168832752+</title>
<ellipse fill="none" stroke="black" cx="920" cy="-183.5" rx="27" ry="18"/>
<text text-anchor="middle" x="920" y="-179.8" font-family="Times,serif" font-size="14.00">+</text>
</g>
<!-- 140135168832752+&#45;&gt;140135168832752 -->
<g id="edge4" class="edge">
<title>140135168832752+&#45;&gt;140135168832752</title>
<path fill="none" stroke="black" d="M947.27,-183.5C956.26,-183.5 967.11,-183.5 979.12,-183.5"/>
<polygon fill="black" stroke="black" points="979.46,-187 989.46,-183.5 979.46,-180 979.46,-187"/>
</g>
<!-- 140135168826608 -->
<g id="node14" class="node">
<title>140135168826608</title>
<polygon fill="none" stroke="black" points="1478,-80.5 1478,-116.5 1840,-116.5 1840,-80.5 1478,-80.5"/>
<text text-anchor="middle" x="1504" y="-94.8" font-family="Times,serif" font-size="14.00">v007</text>
<polyline fill="none" stroke="black" points="1530,-80.5 1530,-116.5 "/>
<text text-anchor="middle" x="1547.5" y="-94.8" font-family="Times,serif" font-size="14.00">L2</text>
<polyline fill="none" stroke="black" points="1565,-80.5 1565,-116.5 "/>
<text text-anchor="middle" x="1584" y="-94.8" font-family="Times,serif" font-size="14.00">N1</text>
<polyline fill="none" stroke="black" points="1603,-80.5 1603,-116.5 "/>
<text text-anchor="middle" x="1616" y="-94.8" font-family="Times,serif" font-size="14.00">b</text>
<polyline fill="none" stroke="black" points="1629,-80.5 1629,-116.5 "/>
<text text-anchor="middle" x="1682.5" y="-94.8" font-family="Times,serif" font-size="14.00">data &#45;0.1000</text>
<polyline fill="none" stroke="black" points="1736,-80.5 1736,-116.5 "/>
<text text-anchor="middle" x="1788" y="-94.8" font-family="Times,serif" font-size="14.00">grad 1.0000</text>
</g>
<!-- 140135168826608&#45;&gt;140135168830640+ -->
<g id="edge18" class="edge">
<title>140135168826608&#45;&gt;140135168830640+</title>
<path fill="none" stroke="black" d="M1840.14,-100.41C1901.32,-101.05 1963.75,-101.71 2001.69,-102.12"/>
<polygon fill="black" stroke="black" points="2001.68,-105.62 2011.72,-102.22 2001.76,-98.62 2001.68,-105.62"/>
</g>
<!-- 140135168826656 -->
<g id="node15" class="node">
<title>140135168826656</title>
<polygon fill="none" stroke="black" points="983,-110.5 983,-146.5 1352,-146.5 1352,-110.5 983,-110.5"/>
<text text-anchor="middle" x="1009" y="-124.8" font-family="Times,serif" font-size="14.00">v005</text>
<polyline fill="none" stroke="black" points="1035,-110.5 1035,-146.5 "/>
<text text-anchor="middle" x="1052.5" y="-124.8" font-family="Times,serif" font-size="14.00">L2</text>
<polyline fill="none" stroke="black" points="1070,-110.5 1070,-146.5 "/>
<text text-anchor="middle" x="1089" y="-124.8" font-family="Times,serif" font-size="14.00">N1</text>
<polyline fill="none" stroke="black" points="1108,-110.5 1108,-146.5 "/>
<text text-anchor="middle" x="1127" y="-124.8" font-family="Times,serif" font-size="14.00">w1</text>
<polyline fill="none" stroke="black" points="1146,-110.5 1146,-146.5 "/>
<text text-anchor="middle" x="1197" y="-124.8" font-family="Times,serif" font-size="14.00">data 0.4000</text>
<polyline fill="none" stroke="black" points="1248,-110.5 1248,-146.5 "/>
<text text-anchor="middle" x="1300" y="-124.8" font-family="Times,serif" font-size="14.00">grad 2.0000</text>
</g>
<!-- 140135168826656&#45;&gt;140135168831792* -->
<g id="edge12" class="edge">
<title>140135168826656&#45;&gt;140135168831792*</title>
<path fill="none" stroke="black" d="M1345.29,-146.5C1357.2,-147.72 1368.27,-148.84 1377.89,-149.82"/>
<polygon fill="black" stroke="black" points="1377.8,-153.33 1388.1,-150.86 1378.51,-146.37 1377.8,-153.33"/>
</g>
<!-- 140135168831792 -->
<g id="node16" class="node">
<title>140135168831792</title>
<polygon fill="none" stroke="black" points="1498.5,-135.5 1498.5,-171.5 1819.5,-171.5 1819.5,-135.5 1498.5,-135.5"/>
<text text-anchor="middle" x="1524.5" y="-149.8" font-family="Times,serif" font-size="14.00">v021</text>
<polyline fill="none" stroke="black" points="1550.5,-135.5 1550.5,-171.5 "/>
<text text-anchor="middle" x="1561" y="-149.8" font-family="Times,serif" font-size="14.00"> </text>
<polyline fill="none" stroke="black" points="1571.5,-135.5 1571.5,-171.5 "/>
<text text-anchor="middle" x="1582" y="-149.8" font-family="Times,serif" font-size="14.00"> </text>
<polyline fill="none" stroke="black" points="1592.5,-135.5 1592.5,-171.5 "/>
<text text-anchor="middle" x="1603" y="-149.8" font-family="Times,serif" font-size="14.00"> </text>
<polyline fill="none" stroke="black" points="1613.5,-135.5 1613.5,-171.5 "/>
<text text-anchor="middle" x="1664.5" y="-149.8" font-family="Times,serif" font-size="14.00">data 0.3920</text>
<polyline fill="none" stroke="black" points="1715.5,-135.5 1715.5,-171.5 "/>
<text text-anchor="middle" x="1767.5" y="-149.8" font-family="Times,serif" font-size="14.00">grad 0.0000</text>
</g>
<!-- 140135168831792&#45;&gt;140135168830640+ -->
<g id="edge19" class="edge">
<title>140135168831792&#45;&gt;140135168830640+</title>
<path fill="none" stroke="black" d="M1793.53,-135.48C1867.81,-125.46 1954.61,-113.75 2002.22,-107.33"/>
<polygon fill="black" stroke="black" points="2002.89,-110.77 2012.33,-105.96 2001.95,-103.83 2002.89,-110.77"/>
</g>
<!-- 140135168831792*&#45;&gt;140135168831792 -->
<g id="edge5" class="edge">
<title>140135168831792*&#45;&gt;140135168831792</title>
<path fill="none" stroke="black" d="M1442.36,-153.5C1454.7,-153.5 1470.53,-153.5 1488,-153.5"/>
<polygon fill="black" stroke="black" points="1488.46,-157 1498.46,-153.5 1488.46,-150 1488.46,-157"/>
</g>
<!-- 140135168831264 -->
<g id="node18" class="node">
<title>140135168831264</title>
<polygon fill="none" stroke="black" points="515.5,-165.5 515.5,-201.5 836.5,-201.5 836.5,-165.5 515.5,-165.5"/>
<text text-anchor="middle" x="541.5" y="-179.8" font-family="Times,serif" font-size="14.00">v017</text>
<polyline fill="none" stroke="black" points="567.5,-165.5 567.5,-201.5 "/>
<text text-anchor="middle" x="578" y="-179.8" font-family="Times,serif" font-size="14.00"> </text>
<polyline fill="none" stroke="black" points="588.5,-165.5 588.5,-201.5 "/>
<text text-anchor="middle" x="599" y="-179.8" font-family="Times,serif" font-size="14.00"> </text>
<polyline fill="none" stroke="black" points="609.5,-165.5 609.5,-201.5 "/>
<text text-anchor="middle" x="620" y="-179.8" font-family="Times,serif" font-size="14.00"> </text>
<polyline fill="none" stroke="black" points="630.5,-165.5 630.5,-201.5 "/>
<text text-anchor="middle" x="681.5" y="-179.8" font-family="Times,serif" font-size="14.00">data 1.0400</text>
<polyline fill="none" stroke="black" points="732.5,-165.5 732.5,-201.5 "/>
<text text-anchor="middle" x="784.5" y="-179.8" font-family="Times,serif" font-size="14.00">grad 0.0000</text>
</g>
<!-- 140135168831264&#45;&gt;140135168832752+ -->
<g id="edge15" class="edge">
<title>140135168831264&#45;&gt;140135168832752+</title>
<path fill="none" stroke="black" d="M836.73,-183.5C853.54,-183.5 869.24,-183.5 882.32,-183.5"/>
<polygon fill="black" stroke="black" points="882.66,-187 892.66,-183.5 882.66,-180 882.66,-187"/>
</g>
<!-- 140135168831264*&#45;&gt;140135168831264 -->
<g id="edge6" class="edge">
<title>140135168831264*&#45;&gt;140135168831264</title>
<path fill="none" stroke="black" d="M459.36,-183.5C471.7,-183.5 487.53,-183.5 505,-183.5"/>
<polygon fill="black" stroke="black" points="505.46,-187 515.46,-183.5 505.46,-180 505.46,-187"/>
</g>
<!-- 140135168825648 -->
<g id="node20" class="node">
<title>140135168825648</title>
<polygon fill="none" stroke="black" points="1876,-29.5 1876,-65.5 2202,-65.5 2202,-29.5 1876,-29.5"/>
<text text-anchor="middle" x="1902" y="-43.8" font-family="Times,serif" font-size="14.00">v023</text>
<polyline fill="none" stroke="black" points="1928,-29.5 1928,-65.5 "/>
<text text-anchor="middle" x="1938.5" y="-43.8" font-family="Times,serif" font-size="14.00"> </text>
<polyline fill="none" stroke="black" points="1949,-29.5 1949,-65.5 "/>
<text text-anchor="middle" x="1959.5" y="-43.8" font-family="Times,serif" font-size="14.00"> </text>
<polyline fill="none" stroke="black" points="1970,-29.5 1970,-65.5 "/>
<text text-anchor="middle" x="1980.5" y="-43.8" font-family="Times,serif" font-size="14.00"> </text>
<polyline fill="none" stroke="black" points="1991,-29.5 1991,-65.5 "/>
<text text-anchor="middle" x="2044.5" y="-43.8" font-family="Times,serif" font-size="14.00">data &#45;0.0400</text>
<polyline fill="none" stroke="black" points="2098,-29.5 2098,-65.5 "/>
<text text-anchor="middle" x="2150" y="-43.8" font-family="Times,serif" font-size="14.00">grad 0.0000</text>
</g>
<!-- 140135168825648&#45;&gt;140135168825456+ -->
<g id="edge13" class="edge">
<title>140135168825648&#45;&gt;140135168825456+</title>
<path fill="none" stroke="black" d="M2202.23,-55.04C2333.75,-61.15 2509.16,-69.3 2584.31,-72.79"/>
<polygon fill="black" stroke="black" points="2584.5,-76.31 2594.65,-73.28 2584.82,-69.31 2584.5,-76.31"/>
</g>
<!-- 140135168825648*&#45;&gt;140135168825648 -->
<g id="edge7" class="edge">
<title>140135168825648*&#45;&gt;140135168825648</title>
<path fill="none" stroke="black" d="M1442.33,-47.5C1513.87,-47.5 1716.46,-47.5 1865.6,-47.5"/>
<polygon fill="black" stroke="black" points="1865.79,-51 1875.79,-47.5 1865.79,-44 1865.79,-51"/>
</g>
<!-- 140135168829392 -->
<g id="node22" class="node">
<title>140135168829392</title>
<polygon fill="none" stroke="black" points="987,-0.5 987,-36.5 1348,-36.5 1348,-0.5 987,-0.5"/>
<text text-anchor="middle" x="1013" y="-14.8" font-family="Times,serif" font-size="14.00">v020</text>
<polyline fill="none" stroke="black" points="1039,-0.5 1039,-36.5 "/>
<text text-anchor="middle" x="1056.5" y="-14.8" font-family="Times,serif" font-size="14.00">L1</text>
<polyline fill="none" stroke="black" points="1074,-0.5 1074,-36.5 "/>
<text text-anchor="middle" x="1093" y="-14.8" font-family="Times,serif" font-size="14.00">N2</text>
<polyline fill="none" stroke="black" points="1112,-0.5 1112,-36.5 "/>
<text text-anchor="middle" x="1124.5" y="-14.8" font-family="Times,serif" font-size="14.00">a</text>
<polyline fill="none" stroke="black" points="1137,-0.5 1137,-36.5 "/>
<text text-anchor="middle" x="1190.5" y="-14.8" font-family="Times,serif" font-size="14.00">data &#45;0.0400</text>
<polyline fill="none" stroke="black" points="1244,-0.5 1244,-36.5 "/>
<text text-anchor="middle" x="1296" y="-14.8" font-family="Times,serif" font-size="14.00">grad 0.0000</text>
</g>
<!-- 140135168829392&#45;&gt;140135168825648* -->
<g id="edge16" class="edge">
<title>140135168829392&#45;&gt;140135168825648*</title>
<path fill="none" stroke="black" d="M1321.19,-36.54C1342.26,-39.03 1362.08,-41.37 1377.95,-43.24"/>
<polygon fill="black" stroke="black" points="1377.93,-46.76 1388.27,-44.46 1378.75,-39.81 1377.93,-46.76"/>
</g>
<!-- 140135168829392+&#45;&gt;140135168829392 -->
<g id="edge8" class="edge">
<title>140135168829392+&#45;&gt;140135168829392</title>
<path fill="none" stroke="black" d="M947.27,-18.5C955.69,-18.5 965.75,-18.5 976.85,-18.5"/>
<polygon fill="black" stroke="black" points="976.87,-22 986.87,-18.5 976.87,-15 976.87,-22"/>
</g>
<!-- 140135168824304 -->
<g id="node24" class="node">
<title>140135168824304</title>
<polygon fill="none" stroke="black" points="495,-110.5 495,-146.5 857,-146.5 857,-110.5 495,-110.5"/>
<text text-anchor="middle" x="521" y="-124.8" font-family="Times,serif" font-size="14.00">v002</text>
<polyline fill="none" stroke="black" points="547,-110.5 547,-146.5 "/>
<text text-anchor="middle" x="564.5" y="-124.8" font-family="Times,serif" font-size="14.00">L1</text>
<polyline fill="none" stroke="black" points="582,-110.5 582,-146.5 "/>
<text text-anchor="middle" x="601" y="-124.8" font-family="Times,serif" font-size="14.00">N1</text>
<polyline fill="none" stroke="black" points="620,-110.5 620,-146.5 "/>
<text text-anchor="middle" x="633" y="-124.8" font-family="Times,serif" font-size="14.00">b</text>
<polyline fill="none" stroke="black" points="646,-110.5 646,-146.5 "/>
<text text-anchor="middle" x="699.5" y="-124.8" font-family="Times,serif" font-size="14.00">data &#45;0.0600</text>
<polyline fill="none" stroke="black" points="753,-110.5 753,-146.5 "/>
<text text-anchor="middle" x="805" y="-124.8" font-family="Times,serif" font-size="14.00">grad 0.6000</text>
</g>
<!-- 140135168824304&#45;&gt;140135168832752+ -->
<g id="edge23" class="edge">
<title>140135168824304&#45;&gt;140135168832752+</title>
<path fill="none" stroke="black" d="M816.35,-146.52C830.19,-149.4 843.94,-152.71 857,-156.5 867.68,-159.6 878.95,-164.1 888.9,-168.55"/>
<polygon fill="black" stroke="black" points="887.44,-171.72 897.98,-172.74 890.37,-165.37 887.44,-171.72"/>
</g>
</g>
</svg>
