<?xml version="1.0" encoding="UTF-8" standalone="no"?>
<!DOCTYPE svg PUBLIC "-//W3C//DTD SVG 1.1//EN"
 "http://www.w3.org/Graphics/SVG/1.1/DTD/svg11.dtd">
<!-- Generated by graphviz version 2.43.0 (0)
 -->
<!-- Title: %3 Pages: 1 -->
<svg width="3044pt" height="210pt"
 viewBox="0.00 0.00 3044.00 210.00" xmlns="http://www.w3.org/2000/svg" xmlns:xlink="http://www.w3.org/1999/xlink">
<g id="graph0" class="graph" transform="scale(1 1) rotate(0) translate(4 206)">
<title>%3</title>
<polygon fill="white" stroke="transparent" points="-4,4 -4,-206 3040,-206 3040,4 -4,4"/>
<!-- 140402538963456 -->
<g id="node1" class="node">
<title>140402538963456</title>
<polygon fill="none" stroke="black" points="1478,-80.5 1478,-116.5 1840,-116.5 1840,-80.5 1478,-80.5"/>
<text text-anchor="middle" x="1504" y="-94.8" font-family="Times,serif" font-size="14.00">v007</text>
<polyline fill="none" stroke="black" points="1530,-80.5 1530,-116.5 "/>
<text text-anchor="middle" x="1547.5" y="-94.8" font-family="Times,serif" font-size="14.00">L2</text>
<polyline fill="none" stroke="black" points="1565,-80.5 1565,-116.5 "/>
<text text-anchor="middle" x="1584" y="-94.8" font-family="Times,serif" font-size="14.00">N1</text>
<polyline fill="none" stroke="black" points="1603,-80.5 1603,-116.5 "/>
<text text-anchor="middle" x="1616" y="-94.8" font-family="Times,serif" font-size="14.00">b</text>
<polyline fill="none" stroke="black" points="1629,-80.5 1629,-116.5 "/>
<text text-anchor="middle" x="1682.5" y="-94.8" font-family="Times,serif" font-size="14.00">data &#45;0.0500</text>
<polyline fill="none" stroke="black" points="1736,-80.5 1736,-116.5 "/>
<text text-anchor="middle" x="1788" y="-94.8" font-family="Times,serif" font-size="14.00">grad 0.0000</text>
</g>
<!-- 140402538969648+ -->
<g id="node4" class="node">
<title>140402538969648+</title>
<ellipse fill="none" stroke="black" cx="2036.5" cy="-102.5" rx="27" ry="18"/>
<text text-anchor="middle" x="2036.5" y="-98.8" font-family="Times,serif" font-size="14.00">+</text>
</g>
<!-- 140402538963456&#45;&gt;140402538969648+ -->
<g id="edge18" class="edge">
<title>140402538963456&#45;&gt;140402538969648+</title>
<path fill="none" stroke="black" d="M1840.05,-100.42C1900.18,-101.06 1961.37,-101.71 1998.88,-102.11"/>
<polygon fill="black" stroke="black" points="1999.24,-105.61 2009.27,-102.22 1999.31,-98.61 1999.24,-105.61"/>
</g>
<!-- 140402538963408 -->
<g id="node2" class="node">
<title>140402538963408</title>
<polygon fill="none" stroke="black" points="983,-55.5 983,-91.5 1352,-91.5 1352,-55.5 983,-55.5"/>
<text text-anchor="middle" x="1009" y="-69.8" font-family="Times,serif" font-size="14.00">v006</text>
<polyline fill="none" stroke="black" points="1035,-55.5 1035,-91.5 "/>
<text text-anchor="middle" x="1052.5" y="-69.8" font-family="Times,serif" font-size="14.00">L2</text>
<polyline fill="none" stroke="black" points="1070,-55.5 1070,-91.5 "/>
<text text-anchor="middle" x="1089" y="-69.8" font-family="Times,serif" font-size="14.00">N1</text>
<polyline fill="none" stroke="black" points="1108,-55.5 1108,-91.5 "/>
<text text-anchor="middle" x="1127" y="-69.8" font-family="Times,serif" font-size="14.00">w2</text>
<polyline fill="none" stroke="black" points="1146,-55.5 1146,-91.5 "/>
<text text-anchor="middle" x="1197" y="-69.8" font-family="Times,serif" font-size="14.00">data 1.1000</text>
<polyline fill="none" stroke="black" points="1248,-55.5 1248,-91.5 "/>
<text text-anchor="middle" x="1300" y="-69.8" font-family="Times,serif" font-size="14.00">grad 0.0000</text>
</g>
<!-- 140402538969984* -->
<g id="node18" class="node">
<title>140402538969984*</title>
<ellipse fill="none" stroke="black" cx="1415" cy="-47.5" rx="27" ry="18"/>
<text text-anchor="middle" x="1415" y="-43.8" font-family="Times,serif" font-size="14.00">*</text>
</g>
<!-- 140402538963408&#45;&gt;140402538969984* -->
<g id="edge21" class="edge">
<title>140402538963408&#45;&gt;140402538969984*</title>
<path fill="none" stroke="black" d="M1338.67,-55.48C1353.11,-53.95 1366.52,-52.53 1377.9,-51.32"/>
<polygon fill="black" stroke="black" points="1378.58,-54.77 1388.15,-50.24 1377.84,-47.81 1378.58,-54.77"/>
</g>
<!-- 140402538969648 -->
<g id="node3" class="node">
<title>140402538969648</title>
<polygon fill="none" stroke="black" points="2233,-82.5 2233,-118.5 2554,-118.5 2554,-82.5 2233,-82.5"/>
<text text-anchor="middle" x="2259" y="-96.8" font-family="Times,serif" font-size="14.00">v030</text>
<polyline fill="none" stroke="black" points="2285,-82.5 2285,-118.5 "/>
<text text-anchor="middle" x="2295.5" y="-96.8" font-family="Times,serif" font-size="14.00"> </text>
<polyline fill="none" stroke="black" points="2306,-82.5 2306,-118.5 "/>
<text text-anchor="middle" x="2316.5" y="-96.8" font-family="Times,serif" font-size="14.00"> </text>
<polyline fill="none" stroke="black" points="2327,-82.5 2327,-118.5 "/>
<text text-anchor="middle" x="2337.5" y="-96.8" font-family="Times,serif" font-size="14.00"> </text>
<polyline fill="none" stroke="black" points="2348,-82.5 2348,-118.5 "/>
<text text-anchor="middle" x="2399" y="-96.8" font-family="Times,serif" font-size="14.00">data 0.6950</text>
<polyline fill="none" stroke="black" points="2450,-82.5 2450,-118.5 "/>
<text text-anchor="middle" x="2502" y="-96.8" font-family="Times,serif" font-size="14.00">grad 0.0000</text>
</g>
<!-- 140402538966480+ -->
<g id="node24" class="node">
<title>140402538966480+</title>
<ellipse fill="none" stroke="black" cx="2617" cy="-74.5" rx="27" ry="18"/>
<text text-anchor="middle" x="2617" y="-70.8" font-family="Times,serif" font-size="14.00">+</text>
</g>
<!-- 140402538969648&#45;&gt;140402538966480+ -->
<g id="edge19" class="edge">
<title>140402538969648&#45;&gt;140402538966480+</title>
<path fill="none" stroke="black" d="M2548.04,-82.48C2559.67,-81.11 2570.55,-79.83 2580.06,-78.72"/>
<polygon fill="black" stroke="black" points="2580.64,-82.17 2590.17,-77.53 2579.83,-75.22 2580.64,-82.17"/>
</g>
<!-- 140402538969648+&#45;&gt;140402538969648 -->
<g id="edge1" class="edge">
<title>140402538969648+&#45;&gt;140402538969648</title>
<path fill="none" stroke="black" d="M2063.6,-102.35C2097.81,-102.16 2160.72,-101.81 2222.43,-101.46"/>
<polygon fill="black" stroke="black" points="2222.74,-104.96 2232.72,-101.4 2222.7,-97.96 2222.74,-104.96"/>
</g>
<!-- 140402538963504 -->
<g id="node5" class="node">
<title>140402538963504</title>
<polygon fill="none" stroke="black" points="983,-110.5 983,-146.5 1352,-146.5 1352,-110.5 983,-110.5"/>
<text text-anchor="middle" x="1009" y="-124.8" font-family="Times,serif" font-size="14.00">v005</text>
<polyline fill="none" stroke="black" points="1035,-110.5 1035,-146.5 "/>
<text text-anchor="middle" x="1052.5" y="-124.8" font-family="Times,serif" font-size="14.00">L2</text>
<polyline fill="none" stroke="black" points="1070,-110.5 1070,-146.5 "/>
<text text-anchor="middle" x="1089" y="-124.8" font-family="Times,serif" font-size="14.00">N1</text>
<polyline fill="none" stroke="black" points="1108,-110.5 1108,-146.5 "/>
<text text-anchor="middle" x="1127" y="-124.8" font-family="Times,serif" font-size="14.00">w1</text>
<polyline fill="none" stroke="black" points="1146,-110.5 1146,-146.5 "/>
<text text-anchor="middle" x="1197" y="-124.8" font-family="Times,serif" font-size="14.00">data 0.5000</text>
<polyline fill="none" stroke="black" points="1248,-110.5 1248,-146.5 "/>
<text text-anchor="middle" x="1300" y="-124.8" font-family="Times,serif" font-size="14.00">grad 0.0000</text>
</g>
<!-- 140402538969312* -->
<g id="node14" class="node">
<title>140402538969312*</title>
<ellipse fill="none" stroke="black" cx="1415" cy="-153.5" rx="27" ry="18"/>
<text text-anchor="middle" x="1415" y="-149.8" font-family="Times,serif" font-size="14.00">*</text>
</g>
<!-- 140402538963504&#45;&gt;140402538969312* -->
<g id="edge13" class="edge">
<title>140402538963504&#45;&gt;140402538969312*</title>
<path fill="none" stroke="black" d="M1345.29,-146.5C1357.2,-147.72 1368.27,-148.84 1377.89,-149.82"/>
<polygon fill="black" stroke="black" points="1377.8,-153.33 1388.1,-150.86 1378.51,-146.37 1377.8,-153.33"/>
</g>
<!-- 140402538964032 -->
<g id="node6" class="node">
<title>140402538964032</title>
<polygon fill="none" stroke="black" points="495,-110.5 495,-146.5 857,-146.5 857,-110.5 495,-110.5"/>
<text text-anchor="middle" x="521" y="-124.8" font-family="Times,serif" font-size="14.00">v002</text>
<polyline fill="none" stroke="black" points="547,-110.5 547,-146.5 "/>
<text text-anchor="middle" x="564.5" y="-124.8" font-family="Times,serif" font-size="14.00">L1</text>
<polyline fill="none" stroke="black" points="582,-110.5 582,-146.5 "/>
<text text-anchor="middle" x="601" y="-124.8" font-family="Times,serif" font-size="14.00">N1</text>
<polyline fill="none" stroke="black" points="620,-110.5 620,-146.5 "/>
<text text-anchor="middle" x="633" y="-124.8" font-family="Times,serif" font-size="14.00">b</text>
<polyline fill="none" stroke="black" points="646,-110.5 646,-146.5 "/>
<text text-anchor="middle" x="699.5" y="-124.8" font-family="Times,serif" font-size="14.00">data &#45;0.0300</text>
<polyline fill="none" stroke="black" points="753,-110.5 753,-146.5 "/>
<text text-anchor="middle" x="805" y="-124.8" font-family="Times,serif" font-size="14.00">grad 0.0000</text>
</g>
<!-- 140402538965712+ -->
<g id="node12" class="node">
<title>140402538965712+</title>
<ellipse fill="none" stroke="black" cx="920" cy="-183.5" rx="27" ry="18"/>
<text text-anchor="middle" x="920" y="-179.8" font-family="Times,serif" font-size="14.00">+</text>
</g>
<!-- 140402538964032&#45;&gt;140402538965712+ -->
<g id="edge14" class="edge">
<title>140402538964032&#45;&gt;140402538965712+</title>
<path fill="none" stroke="black" d="M821.22,-146.51C833.42,-149.12 845.48,-152.11 857,-155.5 867.82,-158.69 879.19,-163.39 889.2,-168.04"/>
<polygon fill="black" stroke="black" points="887.79,-171.24 898.32,-172.43 890.82,-164.94 887.79,-171.24"/>
</g>
<!-- 140402538964080 -->
<g id="node7" class="node">
<title>140402538964080</title>
<polygon fill="none" stroke="black" points="0,-158.5 0,-194.5 369,-194.5 369,-158.5 0,-158.5"/>
<text text-anchor="middle" x="26" y="-172.8" font-family="Times,serif" font-size="14.00">v001</text>
<polyline fill="none" stroke="black" points="52,-158.5 52,-194.5 "/>
<text text-anchor="middle" x="69.5" y="-172.8" font-family="Times,serif" font-size="14.00">L1</text>
<polyline fill="none" stroke="black" points="87,-158.5 87,-194.5 "/>
<text text-anchor="middle" x="106" y="-172.8" font-family="Times,serif" font-size="14.00">N1</text>
<polyline fill="none" stroke="black" points="125,-158.5 125,-194.5 "/>
<text text-anchor="middle" x="144" y="-172.8" font-family="Times,serif" font-size="14.00">w1</text>
<polyline fill="none" stroke="black" points="163,-158.5 163,-194.5 "/>
<text text-anchor="middle" x="214" y="-172.8" font-family="Times,serif" font-size="14.00">data 0.3800</text>
<polyline fill="none" stroke="black" points="265,-158.5 265,-194.5 "/>
<text text-anchor="middle" x="317" y="-172.8" font-family="Times,serif" font-size="14.00">grad 0.0000</text>
</g>
<!-- 140402538963264* -->
<g id="node16" class="node">
<title>140402538963264*</title>
<ellipse fill="none" stroke="black" cx="432" cy="-176.5" rx="27" ry="18"/>
<text text-anchor="middle" x="432" y="-172.8" font-family="Times,serif" font-size="14.00">*</text>
</g>
<!-- 140402538964080&#45;&gt;140402538963264* -->
<g id="edge12" class="edge">
<title>140402538964080&#45;&gt;140402538963264*</title>
<path fill="none" stroke="black" d="M369.05,-176.5C378.29,-176.5 386.92,-176.5 394.62,-176.5"/>
<polygon fill="black" stroke="black" points="394.87,-180 404.87,-176.5 394.87,-173 394.87,-180"/>
</g>
<!-- 140402538963840 -->
<g id="node8" class="node">
<title>140402538963840</title>
<polygon fill="none" stroke="black" points="495,-55.5 495,-91.5 857,-91.5 857,-55.5 495,-55.5"/>
<text text-anchor="middle" x="521" y="-69.8" font-family="Times,serif" font-size="14.00">v004</text>
<polyline fill="none" stroke="black" points="547,-55.5 547,-91.5 "/>
<text text-anchor="middle" x="564.5" y="-69.8" font-family="Times,serif" font-size="14.00">L1</text>
<polyline fill="none" stroke="black" points="582,-55.5 582,-91.5 "/>
<text text-anchor="middle" x="601" y="-69.8" font-family="Times,serif" font-size="14.00">N2</text>
<polyline fill="none" stroke="black" points="620,-55.5 620,-91.5 "/>
<text text-anchor="middle" x="633" y="-69.8" font-family="Times,serif" font-size="14.00">b</text>
<polyline fill="none" stroke="black" points="646,-55.5 646,-91.5 "/>
<text text-anchor="middle" x="699.5" y="-69.8" font-family="Times,serif" font-size="14.00">data &#45;0.0600</text>
<polyline fill="none" stroke="black" points="753,-55.5 753,-91.5 "/>
<text text-anchor="middle" x="805" y="-69.8" font-family="Times,serif" font-size="14.00">grad 0.0000</text>
</g>
<!-- 140402538969264+ -->
<g id="node10" class="node">
<title>140402538969264+</title>
<ellipse fill="none" stroke="black" cx="920" cy="-18.5" rx="27" ry="18"/>
<text text-anchor="middle" x="920" y="-14.8" font-family="Times,serif" font-size="14.00">+</text>
</g>
<!-- 140402538963840&#45;&gt;140402538969264+ -->
<g id="edge11" class="edge">
<title>140402538963840&#45;&gt;140402538969264+</title>
<path fill="none" stroke="black" d="M816.35,-55.48C830.19,-52.6 843.94,-49.29 857,-45.5 867.68,-42.4 878.95,-37.9 888.9,-33.45"/>
<polygon fill="black" stroke="black" points="890.37,-36.63 897.98,-29.26 887.44,-30.28 890.37,-36.63"/>
</g>
<!-- 140402538969264 -->
<g id="node9" class="node">
<title>140402538969264</title>
<polygon fill="none" stroke="black" points="989.5,-0.5 989.5,-36.5 1345.5,-36.5 1345.5,-0.5 989.5,-0.5"/>
<text text-anchor="middle" x="1015.5" y="-14.8" font-family="Times,serif" font-size="14.00">v028</text>
<polyline fill="none" stroke="black" points="1041.5,-0.5 1041.5,-36.5 "/>
<text text-anchor="middle" x="1059" y="-14.8" font-family="Times,serif" font-size="14.00">L1</text>
<polyline fill="none" stroke="black" points="1076.5,-0.5 1076.5,-36.5 "/>
<text text-anchor="middle" x="1095.5" y="-14.8" font-family="Times,serif" font-size="14.00">N2</text>
<polyline fill="none" stroke="black" points="1114.5,-0.5 1114.5,-36.5 "/>
<text text-anchor="middle" x="1127" y="-14.8" font-family="Times,serif" font-size="14.00">a</text>
<polyline fill="none" stroke="black" points="1139.5,-0.5 1139.5,-36.5 "/>
<text text-anchor="middle" x="1190.5" y="-14.8" font-family="Times,serif" font-size="14.00">data 0.9800</text>
<polyline fill="none" stroke="black" points="1241.5,-0.5 1241.5,-36.5 "/>
<text text-anchor="middle" x="1293.5" y="-14.8" font-family="Times,serif" font-size="14.00">grad 0.0000</text>
</g>
<!-- 140402538969264&#45;&gt;140402538969984* -->
<g id="edge10" class="edge">
<title>140402538969264&#45;&gt;140402538969984*</title>
<path fill="none" stroke="black" d="M1321.19,-36.54C1342.26,-39.03 1362.08,-41.37 1377.95,-43.24"/>
<polygon fill="black" stroke="black" points="1377.93,-46.76 1388.27,-44.46 1378.75,-39.81 1377.93,-46.76"/>
</g>
<!-- 140402538969264+&#45;&gt;140402538969264 -->
<g id="edge2" class="edge">
<title>140402538969264+&#45;&gt;140402538969264</title>
<path fill="none" stroke="black" d="M947.27,-18.5C956.26,-18.5 967.11,-18.5 979.12,-18.5"/>
<polygon fill="black" stroke="black" points="979.46,-22 989.46,-18.5 979.46,-15 979.46,-22"/>
</g>
<!-- 140402538965712 -->
<g id="node11" class="node">
<title>140402538965712</title>
<polygon fill="none" stroke="black" points="989.5,-165.5 989.5,-201.5 1345.5,-201.5 1345.5,-165.5 989.5,-165.5"/>
<text text-anchor="middle" x="1015.5" y="-179.8" font-family="Times,serif" font-size="14.00">v026</text>
<polyline fill="none" stroke="black" points="1041.5,-165.5 1041.5,-201.5 "/>
<text text-anchor="middle" x="1059" y="-179.8" font-family="Times,serif" font-size="14.00">L1</text>
<polyline fill="none" stroke="black" points="1076.5,-165.5 1076.5,-201.5 "/>
<text text-anchor="middle" x="1095.5" y="-179.8" font-family="Times,serif" font-size="14.00">N1</text>
<polyline fill="none" stroke="black" points="1114.5,-165.5 1114.5,-201.5 "/>
<text text-anchor="middle" x="1127" y="-179.8" font-family="Times,serif" font-size="14.00">a</text>
<polyline fill="none" stroke="black" points="1139.5,-165.5 1139.5,-201.5 "/>
<text text-anchor="middle" x="1190.5" y="-179.8" font-family="Times,serif" font-size="14.00">data 1.4900</text>
<polyline fill="none" stroke="black" points="1241.5,-165.5 1241.5,-201.5 "/>
<text text-anchor="middle" x="1293.5" y="-179.8" font-family="Times,serif" font-size="14.00">grad 0.0000</text>
</g>
<!-- 140402538965712&#45;&gt;140402538969312* -->
<g id="edge20" class="edge">
<title>140402538965712&#45;&gt;140402538969312*</title>
<path fill="none" stroke="black" d="M1315.91,-165.49C1339.02,-162.66 1360.91,-159.99 1378.13,-157.88"/>
<polygon fill="black" stroke="black" points="1378.71,-161.34 1388.21,-156.65 1377.86,-154.39 1378.71,-161.34"/>
</g>
<!-- 140402538965712+&#45;&gt;140402538965712 -->
<g id="edge3" class="edge">
<title>140402538965712+&#45;&gt;140402538965712</title>
<path fill="none" stroke="black" d="M947.27,-183.5C956.26,-183.5 967.11,-183.5 979.12,-183.5"/>
<polygon fill="black" stroke="black" points="979.46,-187 989.46,-183.5 979.46,-180 979.46,-187"/>
</g>
<!-- 140402538969312 -->
<g id="node13" class="node">
<title>140402538969312</title>
<polygon fill="none" stroke="black" points="1498.5,-135.5 1498.5,-171.5 1819.5,-171.5 1819.5,-135.5 1498.5,-135.5"/>
<text text-anchor="middle" x="1524.5" y="-149.8" font-family="Times,serif" font-size="14.00">v029</text>
<polyline fill="none" stroke="black" points="1550.5,-135.5 1550.5,-171.5 "/>
<text text-anchor="middle" x="1561" y="-149.8" font-family="Times,serif" font-size="14.00"> </text>
<polyline fill="none" stroke="black" points="1571.5,-135.5 1571.5,-171.5 "/>
<text text-anchor="middle" x="1582" y="-149.8" font-family="Times,serif" font-size="14.00"> </text>
<polyline fill="none" stroke="black" points="1592.5,-135.5 1592.5,-171.5 "/>
<text text-anchor="middle" x="1603" y="-149.8" font-family="Times,serif" font-size="14.00"> </text>
<polyline fill="none" stroke="black" points="1613.5,-135.5 1613.5,-171.5 "/>
<text text-anchor="middle" x="1664.5" y="-149.8" font-family="Times,serif" font-size="14.00">data 0.7450</text>
<polyline fill="none" stroke="black" points="1715.5,-135.5 1715.5,-171.5 "/>
<text text-anchor="middle" x="1767.5" y="-149.8" font-family="Times,serif" font-size="14.00">grad 0.0000</text>
</g>
<!-- 140402538969312&#45;&gt;140402538969648+ -->
<g id="edge24" class="edge">
<title>140402538969312&#45;&gt;140402538969648+</title>
<path fill="none" stroke="black" d="M1792.65,-135.48C1866.43,-125.46 1952.67,-113.75 1999.96,-107.33"/>
<polygon fill="black" stroke="black" points="2000.56,-110.78 2010,-105.96 1999.62,-103.84 2000.56,-110.78"/>
</g>
<!-- 140402538969312*&#45;&gt;140402538969312 -->
<g id="edge4" class="edge">
<title>140402538969312*&#45;&gt;140402538969312</title>
<path fill="none" stroke="black" d="M1442.36,-153.5C1454.7,-153.5 1470.53,-153.5 1488,-153.5"/>
<polygon fill="black" stroke="black" points="1488.46,-157 1498.46,-153.5 1488.46,-150 1488.46,-157"/>
</g>
<!-- 140402538963264 -->
<g id="node15" class="node">
<title>140402538963264</title>
<polygon fill="none" stroke="black" points="515.5,-165.5 515.5,-201.5 836.5,-201.5 836.5,-165.5 515.5,-165.5"/>
<text text-anchor="middle" x="541.5" y="-179.8" font-family="Times,serif" font-size="14.00">v025</text>
<polyline fill="none" stroke="black" points="567.5,-165.5 567.5,-201.5 "/>
<text text-anchor="middle" x="578" y="-179.8" font-family="Times,serif" font-size="14.00"> </text>
<polyline fill="none" stroke="black" points="588.5,-165.5 588.5,-201.5 "/>
<text text-anchor="middle" x="599" y="-179.8" font-family="Times,serif" font-size="14.00"> </text>
<polyline fill="none" stroke="black" points="609.5,-165.5 609.5,-201.5 "/>
<text text-anchor="middle" x="620" y="-179.8" font-family="Times,serif" font-size="14.00"> </text>
<polyline fill="none" stroke="black" points="630.5,-165.5 630.5,-201.5 "/>
<text text-anchor="middle" x="681.5" y="-179.8" font-family="Times,serif" font-size="14.00">data 1.5200</text>
<polyline fill="none" stroke="black" points="732.5,-165.5 732.5,-201.5 "/>
<text text-anchor="middle" x="784.5" y="-179.8" font-family="Times,serif" font-size="14.00">grad 0.0000</text>
</g>
<!-- 140402538963264&#45;&gt;140402538965712+ -->
<g id="edge16" class="edge">
<title>140402538963264&#45;&gt;140402538965712+</title>
<path fill="none" stroke="black" d="M836.73,-183.5C853.54,-183.5 869.24,-183.5 882.32,-183.5"/>
<polygon fill="black" stroke="black" points="882.66,-187 892.66,-183.5 882.66,-180 882.66,-187"/>
</g>
<!-- 140402538963264*&#45;&gt;140402538963264 -->
<g id="edge5" class="edge">
<title>140402538963264*&#45;&gt;140402538963264</title>
<path fill="none" stroke="black" d="M459.36,-177.26C471.7,-177.62 487.53,-178.08 505,-178.58"/>
<polygon fill="black" stroke="black" points="505.37,-182.09 515.46,-178.89 505.57,-175.1 505.37,-182.09"/>
</g>
<!-- 140402538969984 -->
<g id="node17" class="node">
<title>140402538969984</title>
<polygon fill="none" stroke="black" points="1876,-29.5 1876,-65.5 2197,-65.5 2197,-29.5 1876,-29.5"/>
<text text-anchor="middle" x="1902" y="-43.8" font-family="Times,serif" font-size="14.00">v031</text>
<polyline fill="none" stroke="black" points="1928,-29.5 1928,-65.5 "/>
<text text-anchor="middle" x="1938.5" y="-43.8" font-family="Times,serif" font-size="14.00"> </text>
<polyline fill="none" stroke="black" points="1949,-29.5 1949,-65.5 "/>
<text text-anchor="middle" x="1959.5" y="-43.8" font-family="Times,serif" font-size="14.00"> </text>
<polyline fill="none" stroke="black" points="1970,-29.5 1970,-65.5 "/>
<text text-anchor="middle" x="1980.5" y="-43.8" font-family="Times,serif" font-size="14.00"> </text>
<polyline fill="none" stroke="black" points="1991,-29.5 1991,-65.5 "/>
<text text-anchor="middle" x="2042" y="-43.8" font-family="Times,serif" font-size="14.00">data 1.0780</text>
<polyline fill="none" stroke="black" points="2093,-29.5 2093,-65.5 "/>
<text text-anchor="middle" x="2145" y="-43.8" font-family="Times,serif" font-size="14.00">grad 0.0000</text>
</g>
<!-- 140402538969984&#45;&gt;140402538966480+ -->
<g id="edge17" class="edge">
<title>140402538969984&#45;&gt;140402538966480+</title>
<path fill="none" stroke="black" d="M2197.11,-54.95C2328.28,-61.07 2504.3,-69.29 2579.48,-72.8"/>
<polygon fill="black" stroke="black" points="2579.67,-76.31 2589.82,-73.28 2580,-69.32 2579.67,-76.31"/>
</g>
<!-- 140402538969984*&#45;&gt;140402538969984 -->
<g id="edge6" class="edge">
<title>140402538969984*&#45;&gt;140402538969984</title>
<path fill="none" stroke="black" d="M1442.22,-47.5C1513.76,-47.5 1716.85,-47.5 1865.55,-47.5"/>
<polygon fill="black" stroke="black" points="1865.71,-51 1875.71,-47.5 1865.71,-44 1865.71,-51"/>
</g>
<!-- 140402538968976 -->
<g id="node19" class="node">
<title>140402538968976</title>
<polygon fill="none" stroke="black" points="515.5,-0.5 515.5,-36.5 836.5,-36.5 836.5,-0.5 515.5,-0.5"/>
<text text-anchor="middle" x="541.5" y="-14.8" font-family="Times,serif" font-size="14.00">v027</text>
<polyline fill="none" stroke="black" points="567.5,-0.5 567.5,-36.5 "/>
<text text-anchor="middle" x="578" y="-14.8" font-family="Times,serif" font-size="14.00"> </text>
<polyline fill="none" stroke="black" points="588.5,-0.5 588.5,-36.5 "/>
<text text-anchor="middle" x="599" y="-14.8" font-family="Times,serif" font-size="14.00"> </text>
<polyline fill="none" stroke="black" points="609.5,-0.5 609.5,-36.5 "/>
<text text-anchor="middle" x="620" y="-14.8" font-family="Times,serif" font-size="14.00"> </text>
<polyline fill="none" stroke="black" points="630.5,-0.5 630.5,-36.5 "/>
<text text-anchor="middle" x="681.5" y="-14.8" font-family="Times,serif" font-size="14.00">data 1.0400</text>
<polyline fill="none" stroke="black" points="732.5,-0.5 732.5,-36.5 "/>
<text text-anchor="middle" x="784.5" y="-14.8" font-family="Times,serif" font-size="14.00">grad 0.0000</text>
</g>
<!-- 140402538968976&#45;&gt;140402538969264+ -->
<g id="edge15" class="edge">
<title>140402538968976&#45;&gt;140402538969264+</title>
<path fill="none" stroke="black" d="M836.73,-18.5C853.54,-18.5 869.24,-18.5 882.32,-18.5"/>
<polygon fill="black" stroke="black" points="882.66,-22 892.66,-18.5 882.66,-15 882.66,-22"/>
</g>
<!-- 140402538968976* -->
<g id="node20" class="node">
<title>140402538968976*</title>
<ellipse fill="none" stroke="black" cx="432" cy="-45.5" rx="27" ry="18"/>
<text text-anchor="middle" x="432" y="-41.8" font-family="Times,serif" font-size="14.00">*</text>
</g>
<!-- 140402538968976*&#45;&gt;140402538968976 -->
<g id="edge7" class="edge">
<title>140402538968976*&#45;&gt;140402538968976</title>
<path fill="none" stroke="black" d="M458.9,-42.61C471.4,-41.22 487.56,-39.41 505.41,-37.42"/>
<polygon fill="black" stroke="black" points="505.93,-40.88 515.48,-36.3 505.16,-33.93 505.93,-40.88"/>
</g>
<!-- 140402538963888 -->
<g id="node21" class="node">
<title>140402538963888</title>
<polygon fill="none" stroke="black" points="0,-27.5 0,-63.5 369,-63.5 369,-27.5 0,-27.5"/>
<text text-anchor="middle" x="26" y="-41.8" font-family="Times,serif" font-size="14.00">v003</text>
<polyline fill="none" stroke="black" points="52,-27.5 52,-63.5 "/>
<text text-anchor="middle" x="69.5" y="-41.8" font-family="Times,serif" font-size="14.00">L1</text>
<polyline fill="none" stroke="black" points="87,-27.5 87,-63.5 "/>
<text text-anchor="middle" x="106" y="-41.8" font-family="Times,serif" font-size="14.00">N2</text>
<polyline fill="none" stroke="black" points="125,-27.5 125,-63.5 "/>
<text text-anchor="middle" x="144" y="-41.8" font-family="Times,serif" font-size="14.00">w1</text>
<polyline fill="none" stroke="black" points="163,-27.5 163,-63.5 "/>
<text text-anchor="middle" x="214" y="-41.8" font-family="Times,serif" font-size="14.00">data 0.2600</text>
<polyline fill="none" stroke="black" points="265,-27.5 265,-63.5 "/>
<text text-anchor="middle" x="317" y="-41.8" font-family="Times,serif" font-size="14.00">grad 0.0000</text>
</g>
<!-- 140402538963888&#45;&gt;140402538968976* -->
<g id="edge9" class="edge">
<title>140402538963888&#45;&gt;140402538968976*</title>
<path fill="none" stroke="black" d="M369.05,-45.5C378.29,-45.5 386.92,-45.5 394.62,-45.5"/>
<polygon fill="black" stroke="black" points="394.87,-49 404.87,-45.5 394.87,-42 394.87,-49"/>
</g>
<!-- 140403021704128 -->
<g id="node22" class="node">
<title>140403021704128</title>
<polygon fill="none" stroke="black" points="19.5,-96.5 19.5,-132.5 349.5,-132.5 349.5,-96.5 19.5,-96.5"/>
<text text-anchor="middle" x="45.5" y="-110.8" font-family="Times,serif" font-size="14.00">v008</text>
<polyline fill="none" stroke="black" points="71.5,-96.5 71.5,-132.5 "/>
<text text-anchor="middle" x="82" y="-110.8" font-family="Times,serif" font-size="14.00"> </text>
<polyline fill="none" stroke="black" points="92.5,-96.5 92.5,-132.5 "/>
<text text-anchor="middle" x="103" y="-110.8" font-family="Times,serif" font-size="14.00"> </text>
<polyline fill="none" stroke="black" points="113.5,-96.5 113.5,-132.5 "/>
<text text-anchor="middle" x="128.5" y="-110.8" font-family="Times,serif" font-size="14.00">i1</text>
<polyline fill="none" stroke="black" points="143.5,-96.5 143.5,-132.5 "/>
<text text-anchor="middle" x="194.5" y="-110.8" font-family="Times,serif" font-size="14.00">data 4.0000</text>
<polyline fill="none" stroke="black" points="245.5,-96.5 245.5,-132.5 "/>
<text text-anchor="middle" x="297.5" y="-110.8" font-family="Times,serif" font-size="14.00">grad 0.0000</text>
</g>
<!-- 140403021704128&#45;&gt;140402538963264* -->
<g id="edge23" class="edge">
<title>140403021704128&#45;&gt;140402538963264*</title>
<path fill="none" stroke="black" d="M305.96,-132.52C327.18,-136.91 348.9,-142.2 369,-148.5 379.76,-151.87 391.12,-156.62 401.13,-161.26"/>
<polygon fill="black" stroke="black" points="399.73,-164.46 410.26,-165.61 402.74,-158.15 399.73,-164.46"/>
</g>
<!-- 140403021704128&#45;&gt;140402538968976* -->
<g id="edge22" class="edge">
<title>140403021704128&#45;&gt;140402538968976*</title>
<path fill="none" stroke="black" d="M279.77,-96.44C308.71,-89.96 340.44,-81.9 369,-72.5 379.46,-69.06 390.57,-64.52 400.45,-60.14"/>
<polygon fill="black" stroke="black" points="402.2,-63.19 409.86,-55.87 399.31,-56.82 402.2,-63.19"/>
</g>
<!-- 140402538966480 -->
<g id="node23" class="node">
<title>140402538966480</title>
<polygon fill="none" stroke="black" points="2680,-56.5 2680,-92.5 3036,-92.5 3036,-56.5 2680,-56.5"/>
<text text-anchor="middle" x="2706" y="-70.8" font-family="Times,serif" font-size="14.00">v032</text>
<polyline fill="none" stroke="black" points="2732,-56.5 2732,-92.5 "/>
<text text-anchor="middle" x="2749.5" y="-70.8" font-family="Times,serif" font-size="14.00">L2</text>
<polyline fill="none" stroke="black" points="2767,-56.5 2767,-92.5 "/>
<text text-anchor="middle" x="2786" y="-70.8" font-family="Times,serif" font-size="14.00">N1</text>
<polyline fill="none" stroke="black" points="2805,-56.5 2805,-92.5 "/>
<text text-anchor="middle" x="2817.5" y="-70.8" font-family="Times,serif" font-size="14.00">a</text>
<polyline fill="none" stroke="black" points="2830,-56.5 2830,-92.5 "/>
<text text-anchor="middle" x="2881" y="-70.8" font-family="Times,serif" font-size="14.00">data 1.7730</text>
<polyline fill="none" stroke="black" points="2932,-56.5 2932,-92.5 "/>
<text text-anchor="middle" x="2984" y="-70.8" font-family="Times,serif" font-size="14.00">grad 0.0000</text>
</g>
<!-- 140402538966480+&#45;&gt;140402538966480 -->
<g id="edge8" class="edge">
<title>140402538966480+&#45;&gt;140402538966480</title>
<path fill="none" stroke="black" d="M2644.03,-74.5C2651.4,-74.5 2660.02,-74.5 2669.49,-74.5"/>
<polygon fill="black" stroke="black" points="2669.66,-78 2679.66,-74.5 2669.66,-71 2669.66,-78"/>
</g>
</g>
</svg>
