<?xml version="1.0" encoding="UTF-8" standalone="no"?>
<!DOCTYPE svg PUBLIC "-//W3C//DTD SVG 1.1//EN"
 "http://www.w3.org/Graphics/SVG/1.1/DTD/svg11.dtd">
<!-- Generated by graphviz version 2.43.0 (0)
 -->
<!-- Title: %3 Pages: 1 -->
<svg width="3553pt" height="238pt"
 viewBox="0.00 0.00 3553.00 238.00" xmlns="http://www.w3.org/2000/svg" xmlns:xlink="http://www.w3.org/1999/xlink">
<g id="graph0" class="graph" transform="scale(1 1) rotate(0) translate(4 234)">
<title>%3</title>
<polygon fill="white" stroke="transparent" points="-4,4 -4,-234 3549,-234 3549,4 -4,4"/>
<!-- 140260402425872 -->
<g id="node1" class="node">
<title>140260402425872</title>
<polygon fill="none" stroke="black" points="531,-69.5 531,-105.5 861,-105.5 861,-69.5 531,-69.5"/>
<text text-anchor="middle" x="557" y="-83.8" font-family="Times,serif" font-size="14.00">v021</text>
<polyline fill="none" stroke="black" points="583,-69.5 583,-105.5 "/>
<text text-anchor="middle" x="593.5" y="-83.8" font-family="Times,serif" font-size="14.00"> </text>
<polyline fill="none" stroke="black" points="604,-69.5 604,-105.5 "/>
<text text-anchor="middle" x="614.5" y="-83.8" font-family="Times,serif" font-size="14.00"> </text>
<polyline fill="none" stroke="black" points="625,-69.5 625,-105.5 "/>
<text text-anchor="middle" x="635.5" y="-83.8" font-family="Times,serif" font-size="14.00"> </text>
<polyline fill="none" stroke="black" points="646,-69.5 646,-105.5 "/>
<text text-anchor="middle" x="699.5" y="-83.8" font-family="Times,serif" font-size="14.00">data &#45;4.9120</text>
<polyline fill="none" stroke="black" points="753,-69.5 753,-105.5 "/>
<text text-anchor="middle" x="807" y="-83.8" font-family="Times,serif" font-size="14.00">grad &#45;2.6155</text>
</g>
<!-- 140260402421936+ -->
<g id="node12" class="node">
<title>140260402421936+</title>
<ellipse fill="none" stroke="black" cx="942" cy="-73.5" rx="27" ry="18"/>
<text text-anchor="middle" x="942" y="-69.8" font-family="Times,serif" font-size="14.00">+</text>
</g>
<!-- 140260402425872&#45;&gt;140260402421936+ -->
<g id="edge12" class="edge">
<title>140260402425872&#45;&gt;140260402421936+</title>
<path fill="none" stroke="black" d="M861.11,-78.08C877.11,-77.17 892.01,-76.31 904.5,-75.59"/>
<polygon fill="black" stroke="black" points="905.05,-79.07 914.83,-75 904.65,-72.08 905.05,-79.07"/>
</g>
<!-- 140260402425872* -->
<g id="node2" class="node">
<title>140260402425872*</title>
<ellipse fill="none" stroke="black" cx="450" cy="-87.5" rx="27" ry="18"/>
<text text-anchor="middle" x="450" y="-83.8" font-family="Times,serif" font-size="14.00">*</text>
</g>
<!-- 140260402425872*&#45;&gt;140260402425872 -->
<g id="edge1" class="edge">
<title>140260402425872*&#45;&gt;140260402425872</title>
<path fill="none" stroke="black" d="M477.11,-87.5C488.98,-87.5 504.12,-87.5 520.88,-87.5"/>
<polygon fill="black" stroke="black" points="520.92,-91 530.92,-87.5 520.92,-84 520.92,-91"/>
</g>
<!-- 140260402428464 -->
<g id="node3" class="node">
<title>140260402428464</title>
<polygon fill="none" stroke="black" points="1529.5,-135.5 1529.5,-171.5 1854.5,-171.5 1854.5,-135.5 1529.5,-135.5"/>
<text text-anchor="middle" x="1555.5" y="-149.8" font-family="Times,serif" font-size="14.00">v023</text>
<polyline fill="none" stroke="black" points="1581.5,-135.5 1581.5,-171.5 "/>
<text text-anchor="middle" x="1592" y="-149.8" font-family="Times,serif" font-size="14.00"> </text>
<polyline fill="none" stroke="black" points="1602.5,-135.5 1602.5,-171.5 "/>
<text text-anchor="middle" x="1613" y="-149.8" font-family="Times,serif" font-size="14.00"> </text>
<polyline fill="none" stroke="black" points="1623.5,-135.5 1623.5,-171.5 "/>
<text text-anchor="middle" x="1634" y="-149.8" font-family="Times,serif" font-size="14.00"> </text>
<polyline fill="none" stroke="black" points="1644.5,-135.5 1644.5,-171.5 "/>
<text text-anchor="middle" x="1695.5" y="-149.8" font-family="Times,serif" font-size="14.00">data 0.2006</text>
<polyline fill="none" stroke="black" points="1746.5,-135.5 1746.5,-171.5 "/>
<text text-anchor="middle" x="1800.5" y="-149.8" font-family="Times,serif" font-size="14.00">grad &#45;5.4490</text>
</g>
<!-- 140260402423568+ -->
<g id="node15" class="node">
<title>140260402423568+</title>
<ellipse fill="none" stroke="black" cx="2076" cy="-102.5" rx="27" ry="18"/>
<text text-anchor="middle" x="2076" y="-98.8" font-family="Times,serif" font-size="14.00">+</text>
</g>
<!-- 140260402428464&#45;&gt;140260402423568+ -->
<g id="edge11" class="edge">
<title>140260402428464&#45;&gt;140260402423568+</title>
<path fill="none" stroke="black" d="M1827.95,-135.48C1903.2,-125.44 1991.2,-113.69 2039.23,-107.28"/>
<polygon fill="black" stroke="black" points="2039.96,-110.71 2049.41,-105.92 2039.04,-103.77 2039.96,-110.71"/>
</g>
<!-- 140260402428464* -->
<g id="node4" class="node">
<title>140260402428464*</title>
<ellipse fill="none" stroke="black" cx="1446" cy="-153.5" rx="27" ry="18"/>
<text text-anchor="middle" x="1446" y="-149.8" font-family="Times,serif" font-size="14.00">*</text>
</g>
<!-- 140260402428464*&#45;&gt;140260402428464 -->
<g id="edge2" class="edge">
<title>140260402428464*&#45;&gt;140260402428464</title>
<path fill="none" stroke="black" d="M1473.11,-153.5C1485.56,-153.5 1501.61,-153.5 1519.34,-153.5"/>
<polygon fill="black" stroke="black" points="1519.35,-157 1529.35,-153.5 1519.35,-150 1519.35,-157"/>
</g>
<!-- 140260402427984 -->
<g id="node5" class="node">
<title>140260402427984</title>
<polygon fill="none" stroke="black" points="1911,-29.5 1911,-65.5 2241,-65.5 2241,-29.5 1911,-29.5"/>
<text text-anchor="middle" x="1937" y="-43.8" font-family="Times,serif" font-size="14.00">v025</text>
<polyline fill="none" stroke="black" points="1963,-29.5 1963,-65.5 "/>
<text text-anchor="middle" x="1973.5" y="-43.8" font-family="Times,serif" font-size="14.00"> </text>
<polyline fill="none" stroke="black" points="1984,-29.5 1984,-65.5 "/>
<text text-anchor="middle" x="1994.5" y="-43.8" font-family="Times,serif" font-size="14.00"> </text>
<polyline fill="none" stroke="black" points="2005,-29.5 2005,-65.5 "/>
<text text-anchor="middle" x="2015.5" y="-43.8" font-family="Times,serif" font-size="14.00"> </text>
<polyline fill="none" stroke="black" points="2026,-29.5 2026,-65.5 "/>
<text text-anchor="middle" x="2079.5" y="-43.8" font-family="Times,serif" font-size="14.00">data &#45;2.5651</text>
<polyline fill="none" stroke="black" points="2133,-29.5 2133,-65.5 "/>
<text text-anchor="middle" x="2187" y="-43.8" font-family="Times,serif" font-size="14.00">grad &#45;5.4490</text>
</g>
<!-- 140260402428320+ -->
<g id="node21" class="node">
<title>140260402428320+</title>
<ellipse fill="none" stroke="black" cx="2670" cy="-74.5" rx="27" ry="18"/>
<text text-anchor="middle" x="2670" y="-70.8" font-family="Times,serif" font-size="14.00">+</text>
</g>
<!-- 140260402427984&#45;&gt;140260402428320+ -->
<g id="edge25" class="edge">
<title>140260402427984&#45;&gt;140260402428320+</title>
<path fill="none" stroke="black" d="M2241.12,-54.99C2376.09,-61.14 2557.06,-69.39 2633.04,-72.86"/>
<polygon fill="black" stroke="black" points="2632.9,-76.36 2643.05,-73.32 2633.22,-69.36 2632.9,-76.36"/>
</g>
<!-- 140260402427984* -->
<g id="node6" class="node">
<title>140260402427984*</title>
<ellipse fill="none" stroke="black" cx="1446" cy="-47.5" rx="27" ry="18"/>
<text text-anchor="middle" x="1446" y="-43.8" font-family="Times,serif" font-size="14.00">*</text>
</g>
<!-- 140260402427984*&#45;&gt;140260402427984 -->
<g id="edge3" class="edge">
<title>140260402427984*&#45;&gt;140260402427984</title>
<path fill="none" stroke="black" d="M1473.18,-47.5C1545.01,-47.5 1749.78,-47.5 1900.6,-47.5"/>
<polygon fill="black" stroke="black" points="1900.91,-51 1910.91,-47.5 1900.91,-44 1900.91,-51"/>
</g>
<!-- 140260402419344 -->
<g id="node7" class="node">
<title>140260402419344</title>
<polygon fill="none" stroke="black" points="1005,-0.5 1005,-36.5 1383,-36.5 1383,-0.5 1005,-0.5"/>
<text text-anchor="middle" x="1031" y="-14.8" font-family="Times,serif" font-size="14.00">v006</text>
<polyline fill="none" stroke="black" points="1057,-0.5 1057,-36.5 "/>
<text text-anchor="middle" x="1074.5" y="-14.8" font-family="Times,serif" font-size="14.00">L2</text>
<polyline fill="none" stroke="black" points="1092,-0.5 1092,-36.5 "/>
<text text-anchor="middle" x="1111" y="-14.8" font-family="Times,serif" font-size="14.00">N1</text>
<polyline fill="none" stroke="black" points="1130,-0.5 1130,-36.5 "/>
<text text-anchor="middle" x="1149" y="-14.8" font-family="Times,serif" font-size="14.00">w2</text>
<polyline fill="none" stroke="black" points="1168,-0.5 1168,-36.5 "/>
<text text-anchor="middle" x="1219" y="-14.8" font-family="Times,serif" font-size="14.00">data 0.4800</text>
<polyline fill="none" stroke="black" points="1270,-0.5 1270,-36.5 "/>
<text text-anchor="middle" x="1326.5" y="-14.8" font-family="Times,serif" font-size="14.00">grad 29.1192</text>
</g>
<!-- 140260402419344&#45;&gt;140260402427984* -->
<g id="edge22" class="edge">
<title>140260402419344&#45;&gt;140260402427984*</title>
<path fill="none" stroke="black" d="M1350.49,-36.54C1372.32,-39.07 1392.82,-41.45 1409.12,-43.34"/>
<polygon fill="black" stroke="black" points="1408.86,-46.83 1419.19,-44.51 1409.66,-39.88 1408.86,-46.83"/>
</g>
<!-- 140260402422656 -->
<g id="node8" class="node">
<title>140260402422656</title>
<polygon fill="none" stroke="black" points="0,-69.5 0,-105.5 387,-105.5 387,-69.5 0,-69.5"/>
<text text-anchor="middle" x="26" y="-83.8" font-family="Times,serif" font-size="14.00">v003</text>
<polyline fill="none" stroke="black" points="52,-69.5 52,-105.5 "/>
<text text-anchor="middle" x="69.5" y="-83.8" font-family="Times,serif" font-size="14.00">L1</text>
<polyline fill="none" stroke="black" points="87,-69.5 87,-105.5 "/>
<text text-anchor="middle" x="106" y="-83.8" font-family="Times,serif" font-size="14.00">N2</text>
<polyline fill="none" stroke="black" points="125,-69.5 125,-105.5 "/>
<text text-anchor="middle" x="144" y="-83.8" font-family="Times,serif" font-size="14.00">w1</text>
<polyline fill="none" stroke="black" points="163,-69.5 163,-105.5 "/>
<text text-anchor="middle" x="216.5" y="-83.8" font-family="Times,serif" font-size="14.00">data &#45;1.2280</text>
<polyline fill="none" stroke="black" points="270,-69.5 270,-105.5 "/>
<text text-anchor="middle" x="328.5" y="-83.8" font-family="Times,serif" font-size="14.00">grad &#45;10.4620</text>
</g>
<!-- 140260402422656&#45;&gt;140260402425872* -->
<g id="edge21" class="edge">
<title>140260402422656&#45;&gt;140260402425872*</title>
<path fill="none" stroke="black" d="M387.07,-87.5C396.35,-87.5 404.99,-87.5 412.7,-87.5"/>
<polygon fill="black" stroke="black" points="412.95,-91 422.95,-87.5 412.95,-84 412.95,-91"/>
</g>
<!-- 140260402426544 -->
<g id="node9" class="node">
<title>140260402426544</title>
<polygon fill="none" stroke="black" points="3224,-56.5 3224,-92.5 3545,-92.5 3545,-56.5 3224,-56.5"/>
<text text-anchor="middle" x="3250" y="-70.8" font-family="Times,serif" font-size="14.00">v027</text>
<polyline fill="none" stroke="black" points="3276,-56.5 3276,-92.5 "/>
<text text-anchor="middle" x="3286.5" y="-70.8" font-family="Times,serif" font-size="14.00"> </text>
<polyline fill="none" stroke="black" points="3297,-56.5 3297,-92.5 "/>
<text text-anchor="middle" x="3307.5" y="-70.8" font-family="Times,serif" font-size="14.00"> </text>
<polyline fill="none" stroke="black" points="3318,-56.5 3318,-92.5 "/>
<text text-anchor="middle" x="3328.5" y="-70.8" font-family="Times,serif" font-size="14.00">l</text>
<polyline fill="none" stroke="black" points="3339,-56.5 3339,-92.5 "/>
<text text-anchor="middle" x="3390" y="-70.8" font-family="Times,serif" font-size="14.00">data 7.4228</text>
<polyline fill="none" stroke="black" points="3441,-56.5 3441,-92.5 "/>
<text text-anchor="middle" x="3493" y="-70.8" font-family="Times,serif" font-size="14.00">grad 1.0000</text>
</g>
<!-- 140260402426544* -->
<g id="node10" class="node">
<title>140260402426544*</title>
<ellipse fill="none" stroke="black" cx="3161" cy="-74.5" rx="27" ry="18"/>
<text text-anchor="middle" x="3161" y="-70.8" font-family="Times,serif" font-size="14.00">*</text>
</g>
<!-- 140260402426544*&#45;&gt;140260402426544 -->
<g id="edge4" class="edge">
<title>140260402426544*&#45;&gt;140260402426544</title>
<path fill="none" stroke="black" d="M3188.28,-74.5C3195.68,-74.5 3204.32,-74.5 3213.76,-74.5"/>
<polygon fill="black" stroke="black" points="3213.88,-78 3223.88,-74.5 3213.88,-71 3213.88,-78"/>
</g>
<!-- 140260402421936 -->
<g id="node11" class="node">
<title>140260402421936</title>
<polygon fill="none" stroke="black" points="1011.5,-55.5 1011.5,-91.5 1376.5,-91.5 1376.5,-55.5 1011.5,-55.5"/>
<text text-anchor="middle" x="1037.5" y="-69.8" font-family="Times,serif" font-size="14.00">v022</text>
<polyline fill="none" stroke="black" points="1063.5,-55.5 1063.5,-91.5 "/>
<text text-anchor="middle" x="1081" y="-69.8" font-family="Times,serif" font-size="14.00">L1</text>
<polyline fill="none" stroke="black" points="1098.5,-55.5 1098.5,-91.5 "/>
<text text-anchor="middle" x="1117.5" y="-69.8" font-family="Times,serif" font-size="14.00">N2</text>
<polyline fill="none" stroke="black" points="1136.5,-55.5 1136.5,-91.5 "/>
<text text-anchor="middle" x="1149" y="-69.8" font-family="Times,serif" font-size="14.00">a</text>
<polyline fill="none" stroke="black" points="1161.5,-55.5 1161.5,-91.5 "/>
<text text-anchor="middle" x="1215" y="-69.8" font-family="Times,serif" font-size="14.00">data &#45;5.3440</text>
<polyline fill="none" stroke="black" points="1268.5,-55.5 1268.5,-91.5 "/>
<text text-anchor="middle" x="1322.5" y="-69.8" font-family="Times,serif" font-size="14.00">grad &#45;2.6155</text>
</g>
<!-- 140260402421936&#45;&gt;140260402427984* -->
<g id="edge20" class="edge">
<title>140260402421936&#45;&gt;140260402427984*</title>
<path fill="none" stroke="black" d="M1368.29,-55.48C1383.28,-53.92 1397.17,-52.47 1408.89,-51.26"/>
<polygon fill="black" stroke="black" points="1409.44,-54.72 1419.02,-50.2 1408.72,-47.75 1409.44,-54.72"/>
</g>
<!-- 140260402421936+&#45;&gt;140260402421936 -->
<g id="edge5" class="edge">
<title>140260402421936+&#45;&gt;140260402421936</title>
<path fill="none" stroke="black" d="M969.28,-73.5C978.24,-73.5 989.06,-73.5 1001.05,-73.5"/>
<polygon fill="black" stroke="black" points="1001.37,-77 1011.37,-73.5 1001.37,-70 1001.37,-77"/>
</g>
<!-- 140260402422512 -->
<g id="node13" class="node">
<title>140260402422512</title>
<polygon fill="none" stroke="black" points="515,-193.5 515,-229.5 877,-229.5 877,-193.5 515,-193.5"/>
<text text-anchor="middle" x="541" y="-207.8" font-family="Times,serif" font-size="14.00">v002</text>
<polyline fill="none" stroke="black" points="567,-193.5 567,-229.5 "/>
<text text-anchor="middle" x="584.5" y="-207.8" font-family="Times,serif" font-size="14.00">L1</text>
<polyline fill="none" stroke="black" points="602,-193.5 602,-229.5 "/>
<text text-anchor="middle" x="621" y="-207.8" font-family="Times,serif" font-size="14.00">N1</text>
<polyline fill="none" stroke="black" points="640,-193.5 640,-229.5 "/>
<text text-anchor="middle" x="653" y="-207.8" font-family="Times,serif" font-size="14.00">b</text>
<polyline fill="none" stroke="black" points="666,-193.5 666,-229.5 "/>
<text text-anchor="middle" x="719.5" y="-207.8" font-family="Times,serif" font-size="14.00">data &#45;0.2160</text>
<polyline fill="none" stroke="black" points="773,-193.5 773,-229.5 "/>
<text text-anchor="middle" x="825" y="-207.8" font-family="Times,serif" font-size="14.00">grad 0.6539</text>
</g>
<!-- 140260402426640+ -->
<g id="node17" class="node">
<title>140260402426640+</title>
<ellipse fill="none" stroke="black" cx="942" cy="-183.5" rx="27" ry="18"/>
<text text-anchor="middle" x="942" y="-179.8" font-family="Times,serif" font-size="14.00">+</text>
</g>
<!-- 140260402422512&#45;&gt;140260402426640+ -->
<g id="edge17" class="edge">
<title>140260402422512&#45;&gt;140260402426640+</title>
<path fill="none" stroke="black" d="M853.94,-193.49C872.82,-191.32 890.47,-189.3 904.88,-187.64"/>
<polygon fill="black" stroke="black" points="905.7,-191.07 915.23,-186.46 904.9,-184.12 905.7,-191.07"/>
</g>
<!-- 140260402423568 -->
<g id="node14" class="node">
<title>140260402423568</title>
<polygon fill="none" stroke="black" points="2277,-82.5 2277,-118.5 2607,-118.5 2607,-82.5 2277,-82.5"/>
<text text-anchor="middle" x="2303" y="-96.8" font-family="Times,serif" font-size="14.00">v024</text>
<polyline fill="none" stroke="black" points="2329,-82.5 2329,-118.5 "/>
<text text-anchor="middle" x="2339.5" y="-96.8" font-family="Times,serif" font-size="14.00"> </text>
<polyline fill="none" stroke="black" points="2350,-82.5 2350,-118.5 "/>
<text text-anchor="middle" x="2360.5" y="-96.8" font-family="Times,serif" font-size="14.00"> </text>
<polyline fill="none" stroke="black" points="2371,-82.5 2371,-118.5 "/>
<text text-anchor="middle" x="2381.5" y="-96.8" font-family="Times,serif" font-size="14.00"> </text>
<polyline fill="none" stroke="black" points="2392,-82.5 2392,-118.5 "/>
<text text-anchor="middle" x="2445.5" y="-96.8" font-family="Times,serif" font-size="14.00">data &#45;0.1594</text>
<polyline fill="none" stroke="black" points="2499,-82.5 2499,-118.5 "/>
<text text-anchor="middle" x="2553" y="-96.8" font-family="Times,serif" font-size="14.00">grad &#45;5.4490</text>
</g>
<!-- 140260402423568&#45;&gt;140260402428320+ -->
<g id="edge10" class="edge">
<title>140260402423568&#45;&gt;140260402428320+</title>
<path fill="none" stroke="black" d="M2599.66,-82.48C2611.87,-81.07 2623.28,-79.76 2633.18,-78.62"/>
<polygon fill="black" stroke="black" points="2633.76,-82.08 2643.29,-77.46 2632.96,-75.12 2633.76,-82.08"/>
</g>
<!-- 140260402423568+&#45;&gt;140260402423568 -->
<g id="edge6" class="edge">
<title>140260402423568+&#45;&gt;140260402423568</title>
<path fill="none" stroke="black" d="M2103.18,-102.36C2138.07,-102.16 2202.83,-101.81 2266.39,-101.46"/>
<polygon fill="black" stroke="black" points="2266.59,-104.96 2276.58,-101.4 2266.56,-97.96 2266.59,-104.96"/>
</g>
<!-- 140260402426640 -->
<g id="node16" class="node">
<title>140260402426640</title>
<polygon fill="none" stroke="black" points="1013.5,-165.5 1013.5,-201.5 1374.5,-201.5 1374.5,-165.5 1013.5,-165.5"/>
<text text-anchor="middle" x="1039.5" y="-179.8" font-family="Times,serif" font-size="14.00">v020</text>
<polyline fill="none" stroke="black" points="1065.5,-165.5 1065.5,-201.5 "/>
<text text-anchor="middle" x="1083" y="-179.8" font-family="Times,serif" font-size="14.00">L1</text>
<polyline fill="none" stroke="black" points="1100.5,-165.5 1100.5,-201.5 "/>
<text text-anchor="middle" x="1119.5" y="-179.8" font-family="Times,serif" font-size="14.00">N1</text>
<polyline fill="none" stroke="black" points="1138.5,-165.5 1138.5,-201.5 "/>
<text text-anchor="middle" x="1151" y="-179.8" font-family="Times,serif" font-size="14.00">a</text>
<polyline fill="none" stroke="black" points="1163.5,-165.5 1163.5,-201.5 "/>
<text text-anchor="middle" x="1217" y="-179.8" font-family="Times,serif" font-size="14.00">data &#45;1.6720</text>
<polyline fill="none" stroke="black" points="1270.5,-165.5 1270.5,-201.5 "/>
<text text-anchor="middle" x="1322.5" y="-179.8" font-family="Times,serif" font-size="14.00">grad 0.6539</text>
</g>
<!-- 140260402426640&#45;&gt;140260402428464* -->
<g id="edge24" class="edge">
<title>140260402426640&#45;&gt;140260402428464*</title>
<path fill="none" stroke="black" d="M1345.12,-165.49C1368.82,-162.64 1391.26,-159.95 1408.85,-157.84"/>
<polygon fill="black" stroke="black" points="1409.63,-161.27 1419.14,-156.6 1408.8,-154.32 1409.63,-161.27"/>
</g>
<!-- 140260402426640+&#45;&gt;140260402426640 -->
<g id="edge7" class="edge">
<title>140260402426640+&#45;&gt;140260402426640</title>
<path fill="none" stroke="black" d="M969.28,-183.5C978.82,-183.5 990.47,-183.5 1003.39,-183.5"/>
<polygon fill="black" stroke="black" points="1003.5,-187 1013.5,-183.5 1003.5,-180 1003.5,-187"/>
</g>
<!-- 140260402419584 -->
<g id="node18" class="node">
<title>140260402419584</title>
<polygon fill="none" stroke="black" points="6.5,-179.5 6.5,-215.5 380.5,-215.5 380.5,-179.5 6.5,-179.5"/>
<text text-anchor="middle" x="32.5" y="-193.8" font-family="Times,serif" font-size="14.00">v001</text>
<polyline fill="none" stroke="black" points="58.5,-179.5 58.5,-215.5 "/>
<text text-anchor="middle" x="76" y="-193.8" font-family="Times,serif" font-size="14.00">L1</text>
<polyline fill="none" stroke="black" points="93.5,-179.5 93.5,-215.5 "/>
<text text-anchor="middle" x="112.5" y="-193.8" font-family="Times,serif" font-size="14.00">N1</text>
<polyline fill="none" stroke="black" points="131.5,-179.5 131.5,-215.5 "/>
<text text-anchor="middle" x="150.5" y="-193.8" font-family="Times,serif" font-size="14.00">w1</text>
<polyline fill="none" stroke="black" points="169.5,-179.5 169.5,-215.5 "/>
<text text-anchor="middle" x="223" y="-193.8" font-family="Times,serif" font-size="14.00">data &#45;0.3640</text>
<polyline fill="none" stroke="black" points="276.5,-179.5 276.5,-215.5 "/>
<text text-anchor="middle" x="328.5" y="-193.8" font-family="Times,serif" font-size="14.00">grad 2.6155</text>
</g>
<!-- 140260402426832* -->
<g id="node24" class="node">
<title>140260402426832*</title>
<ellipse fill="none" stroke="black" cx="450" cy="-156.5" rx="27" ry="18"/>
<text text-anchor="middle" x="450" y="-152.8" font-family="Times,serif" font-size="14.00">*</text>
</g>
<!-- 140260402419584&#45;&gt;140260402426832* -->
<g id="edge26" class="edge">
<title>140260402419584&#45;&gt;140260402426832*</title>
<path fill="none" stroke="black" d="M332.99,-179.48C351.19,-176.7 369.57,-173.68 387,-170.5 395.89,-168.87 405.45,-166.86 414.32,-164.86"/>
<polygon fill="black" stroke="black" points="415.39,-168.21 424.36,-162.56 413.83,-161.38 415.39,-168.21"/>
</g>
<!-- 140260402422704 -->
<g id="node19" class="node">
<title>140260402422704</title>
<polygon fill="none" stroke="black" points="513,-14.5 513,-50.5 879,-50.5 879,-14.5 513,-14.5"/>
<text text-anchor="middle" x="539" y="-28.8" font-family="Times,serif" font-size="14.00">v004</text>
<polyline fill="none" stroke="black" points="565,-14.5 565,-50.5 "/>
<text text-anchor="middle" x="582.5" y="-28.8" font-family="Times,serif" font-size="14.00">L1</text>
<polyline fill="none" stroke="black" points="600,-14.5 600,-50.5 "/>
<text text-anchor="middle" x="619" y="-28.8" font-family="Times,serif" font-size="14.00">N2</text>
<polyline fill="none" stroke="black" points="638,-14.5 638,-50.5 "/>
<text text-anchor="middle" x="651" y="-28.8" font-family="Times,serif" font-size="14.00">b</text>
<polyline fill="none" stroke="black" points="664,-14.5 664,-50.5 "/>
<text text-anchor="middle" x="717.5" y="-28.8" font-family="Times,serif" font-size="14.00">data &#45;0.4320</text>
<polyline fill="none" stroke="black" points="771,-14.5 771,-50.5 "/>
<text text-anchor="middle" x="825" y="-28.8" font-family="Times,serif" font-size="14.00">grad &#45;2.6155</text>
</g>
<!-- 140260402422704&#45;&gt;140260402421936+ -->
<g id="edge23" class="edge">
<title>140260402422704&#45;&gt;140260402421936+</title>
<path fill="none" stroke="black" d="M820.02,-50.5C839.77,-53.66 859.97,-57.04 879,-60.5 887.79,-62.1 897.24,-63.99 906.05,-65.83"/>
<polygon fill="black" stroke="black" points="905.51,-69.29 916.02,-67.94 906.97,-62.44 905.51,-69.29"/>
</g>
<!-- 140260402428320 -->
<g id="node20" class="node">
<title>140260402428320</title>
<polygon fill="none" stroke="black" points="2733,-56.5 2733,-92.5 3098,-92.5 3098,-56.5 2733,-56.5"/>
<text text-anchor="middle" x="2759" y="-70.8" font-family="Times,serif" font-size="14.00">v026</text>
<polyline fill="none" stroke="black" points="2785,-56.5 2785,-92.5 "/>
<text text-anchor="middle" x="2802.5" y="-70.8" font-family="Times,serif" font-size="14.00">L2</text>
<polyline fill="none" stroke="black" points="2820,-56.5 2820,-92.5 "/>
<text text-anchor="middle" x="2839" y="-70.8" font-family="Times,serif" font-size="14.00">N1</text>
<polyline fill="none" stroke="black" points="2858,-56.5 2858,-92.5 "/>
<text text-anchor="middle" x="2870.5" y="-70.8" font-family="Times,serif" font-size="14.00">a</text>
<polyline fill="none" stroke="black" points="2883,-56.5 2883,-92.5 "/>
<text text-anchor="middle" x="2936.5" y="-70.8" font-family="Times,serif" font-size="14.00">data &#45;2.7245</text>
<polyline fill="none" stroke="black" points="2990,-56.5 2990,-92.5 "/>
<text text-anchor="middle" x="3044" y="-70.8" font-family="Times,serif" font-size="14.00">grad &#45;5.4490</text>
</g>
<!-- 140260402428320&#45;&gt;140260402426544* -->
<g id="edge14" class="edge">
<title>140260402428320&#45;&gt;140260402426544*</title>
<path fill="none" stroke="black" d="M3098.24,-74.5C3107.45,-74.5 3116.04,-74.5 3123.73,-74.5"/>
<polygon fill="black" stroke="black" points="3123.94,-78 3133.94,-74.5 3123.94,-71 3123.94,-78"/>
</g>
<!-- 140260402428320+&#45;&gt;140260402428320 -->
<g id="edge8" class="edge">
<title>140260402428320+&#45;&gt;140260402428320</title>
<path fill="none" stroke="black" d="M2697.06,-74.5C2704.43,-74.5 2713.08,-74.5 2722.58,-74.5"/>
<polygon fill="black" stroke="black" points="2722.79,-78 2732.79,-74.5 2722.79,-71 2722.79,-78"/>
</g>
<!-- 140260402419632 -->
<g id="node22" class="node">
<title>140260402419632</title>
<polygon fill="none" stroke="black" points="1509,-80.5 1509,-116.5 1875,-116.5 1875,-80.5 1509,-80.5"/>
<text text-anchor="middle" x="1535" y="-94.8" font-family="Times,serif" font-size="14.00">v007</text>
<polyline fill="none" stroke="black" points="1561,-80.5 1561,-116.5 "/>
<text text-anchor="middle" x="1578.5" y="-94.8" font-family="Times,serif" font-size="14.00">L2</text>
<polyline fill="none" stroke="black" points="1596,-80.5 1596,-116.5 "/>
<text text-anchor="middle" x="1615" y="-94.8" font-family="Times,serif" font-size="14.00">N1</text>
<polyline fill="none" stroke="black" points="1634,-80.5 1634,-116.5 "/>
<text text-anchor="middle" x="1647" y="-94.8" font-family="Times,serif" font-size="14.00">b</text>
<polyline fill="none" stroke="black" points="1660,-80.5 1660,-116.5 "/>
<text text-anchor="middle" x="1713.5" y="-94.8" font-family="Times,serif" font-size="14.00">data &#45;0.3600</text>
<polyline fill="none" stroke="black" points="1767,-80.5 1767,-116.5 "/>
<text text-anchor="middle" x="1821" y="-94.8" font-family="Times,serif" font-size="14.00">grad &#45;5.4490</text>
</g>
<!-- 140260402419632&#45;&gt;140260402423568+ -->
<g id="edge13" class="edge">
<title>140260402419632&#45;&gt;140260402423568+</title>
<path fill="none" stroke="black" d="M1875.05,-100.41C1937.05,-101.06 2000.32,-101.72 2038.63,-102.12"/>
<polygon fill="black" stroke="black" points="2038.72,-105.62 2048.75,-102.23 2038.79,-98.62 2038.72,-105.62"/>
</g>
<!-- 140260402426832 -->
<g id="node23" class="node">
<title>140260402426832</title>
<polygon fill="none" stroke="black" points="533,-138.5 533,-174.5 859,-174.5 859,-138.5 533,-138.5"/>
<text text-anchor="middle" x="559" y="-152.8" font-family="Times,serif" font-size="14.00">v019</text>
<polyline fill="none" stroke="black" points="585,-138.5 585,-174.5 "/>
<text text-anchor="middle" x="595.5" y="-152.8" font-family="Times,serif" font-size="14.00"> </text>
<polyline fill="none" stroke="black" points="606,-138.5 606,-174.5 "/>
<text text-anchor="middle" x="616.5" y="-152.8" font-family="Times,serif" font-size="14.00"> </text>
<polyline fill="none" stroke="black" points="627,-138.5 627,-174.5 "/>
<text text-anchor="middle" x="637.5" y="-152.8" font-family="Times,serif" font-size="14.00"> </text>
<polyline fill="none" stroke="black" points="648,-138.5 648,-174.5 "/>
<text text-anchor="middle" x="701.5" y="-152.8" font-family="Times,serif" font-size="14.00">data &#45;1.4560</text>
<polyline fill="none" stroke="black" points="755,-138.5 755,-174.5 "/>
<text text-anchor="middle" x="807" y="-152.8" font-family="Times,serif" font-size="14.00">grad 0.6539</text>
</g>
<!-- 140260402426832&#45;&gt;140260402426640+ -->
<g id="edge18" class="edge">
<title>140260402426832&#45;&gt;140260402426640+</title>
<path fill="none" stroke="black" d="M859.07,-174.43C876.16,-176.32 892.06,-178.09 905.23,-179.54"/>
<polygon fill="black" stroke="black" points="904.85,-183.02 915.17,-180.64 905.62,-176.06 904.85,-183.02"/>
</g>
<!-- 140260402426832*&#45;&gt;140260402426832 -->
<g id="edge9" class="edge">
<title>140260402426832*&#45;&gt;140260402426832</title>
<path fill="none" stroke="black" d="M477.11,-156.5C489.34,-156.5 505.04,-156.5 522.41,-156.5"/>
<polygon fill="black" stroke="black" points="522.81,-160 532.81,-156.5 522.81,-153 522.81,-160"/>
</g>
<!-- 140260402419680 -->
<g id="node25" class="node">
<title>140260402419680</title>
<polygon fill="none" stroke="black" points="1007,-110.5 1007,-146.5 1381,-146.5 1381,-110.5 1007,-110.5"/>
<text text-anchor="middle" x="1033" y="-124.8" font-family="Times,serif" font-size="14.00">v005</text>
<polyline fill="none" stroke="black" points="1059,-110.5 1059,-146.5 "/>
<text text-anchor="middle" x="1076.5" y="-124.8" font-family="Times,serif" font-size="14.00">L2</text>
<polyline fill="none" stroke="black" points="1094,-110.5 1094,-146.5 "/>
<text text-anchor="middle" x="1113" y="-124.8" font-family="Times,serif" font-size="14.00">N1</text>
<polyline fill="none" stroke="black" points="1132,-110.5 1132,-146.5 "/>
<text text-anchor="middle" x="1151" y="-124.8" font-family="Times,serif" font-size="14.00">w1</text>
<polyline fill="none" stroke="black" points="1170,-110.5 1170,-146.5 "/>
<text text-anchor="middle" x="1223.5" y="-124.8" font-family="Times,serif" font-size="14.00">data &#45;0.1200</text>
<polyline fill="none" stroke="black" points="1277,-110.5 1277,-146.5 "/>
<text text-anchor="middle" x="1329" y="-124.8" font-family="Times,serif" font-size="14.00">grad 9.1107</text>
</g>
<!-- 140260402419680&#45;&gt;140260402428464* -->
<g id="edge16" class="edge">
<title>140260402419680&#45;&gt;140260402428464*</title>
<path fill="none" stroke="black" d="M1375.03,-146.5C1387.41,-147.74 1398.88,-148.89 1408.82,-149.88"/>
<polygon fill="black" stroke="black" points="1408.66,-153.38 1418.95,-150.9 1409.35,-146.42 1408.66,-153.38"/>
</g>
<!-- 140260953974256 -->
<g id="node26" class="node">
<title>140260953974256</title>
<polygon fill="none" stroke="black" points="28.5,-124.5 28.5,-160.5 358.5,-160.5 358.5,-124.5 28.5,-124.5"/>
<text text-anchor="middle" x="54.5" y="-138.8" font-family="Times,serif" font-size="14.00">v008</text>
<polyline fill="none" stroke="black" points="80.5,-124.5 80.5,-160.5 "/>
<text text-anchor="middle" x="91" y="-138.8" font-family="Times,serif" font-size="14.00"> </text>
<polyline fill="none" stroke="black" points="101.5,-124.5 101.5,-160.5 "/>
<text text-anchor="middle" x="112" y="-138.8" font-family="Times,serif" font-size="14.00"> </text>
<polyline fill="none" stroke="black" points="122.5,-124.5 122.5,-160.5 "/>
<text text-anchor="middle" x="137.5" y="-138.8" font-family="Times,serif" font-size="14.00">i1</text>
<polyline fill="none" stroke="black" points="152.5,-124.5 152.5,-160.5 "/>
<text text-anchor="middle" x="203.5" y="-138.8" font-family="Times,serif" font-size="14.00">data 4.0000</text>
<polyline fill="none" stroke="black" points="254.5,-124.5 254.5,-160.5 "/>
<text text-anchor="middle" x="306.5" y="-138.8" font-family="Times,serif" font-size="14.00">grad 2.9738</text>
</g>
<!-- 140260953974256&#45;&gt;140260402425872* -->
<g id="edge15" class="edge">
<title>140260953974256&#45;&gt;140260402425872*</title>
<path fill="none" stroke="black" d="M350.54,-124.49C362.97,-121.88 375.25,-118.9 387,-115.5 397.92,-112.34 409.39,-107.6 419.46,-102.91"/>
<polygon fill="black" stroke="black" points="421.13,-105.99 428.61,-98.49 418.09,-99.69 421.13,-105.99"/>
</g>
<!-- 140260953974256&#45;&gt;140260402426832* -->
<g id="edge19" class="edge">
<title>140260953974256&#45;&gt;140260402426832*</title>
<path fill="none" stroke="black" d="M358.56,-151.52C378.68,-152.63 397.46,-153.66 412.63,-154.5"/>
<polygon fill="black" stroke="black" points="412.83,-158.02 423.01,-155.07 413.22,-151.03 412.83,-158.02"/>
</g>
</g>
</svg>
