<?xml version="1.0" encoding="UTF-8" standalone="no"?>
<!DOCTYPE svg PUBLIC "-//W3C//DTD SVG 1.1//EN"
 "http://www.w3.org/Graphics/SVG/1.1/DTD/svg11.dtd">
<!-- Generated by graphviz version 2.43.0 (0)
 -->
<!-- Title: %3 Pages: 1 -->
<svg width="3506pt" height="210pt"
 viewBox="0.00 0.00 3506.00 210.00" xmlns="http://www.w3.org/2000/svg" xmlns:xlink="http://www.w3.org/1999/xlink">
<g id="graph0" class="graph" transform="scale(1 1) rotate(0) translate(4 206)">
<title>%3</title>
<polygon fill="white" stroke="transparent" points="-4,4 -4,-206 3502,-206 3502,4 -4,4"/>
<!-- 140625757229584 -->
<g id="node1" class="node">
<title>140625757229584</title>
<polygon fill="none" stroke="black" points="2.5,-165.5 2.5,-201.5 371.5,-201.5 371.5,-165.5 2.5,-165.5"/>
<text text-anchor="middle" x="28.5" y="-179.8" font-family="Times,serif" font-size="14.00">v001</text>
<polyline fill="none" stroke="black" points="54.5,-165.5 54.5,-201.5 "/>
<text text-anchor="middle" x="72" y="-179.8" font-family="Times,serif" font-size="14.00">L1</text>
<polyline fill="none" stroke="black" points="89.5,-165.5 89.5,-201.5 "/>
<text text-anchor="middle" x="108.5" y="-179.8" font-family="Times,serif" font-size="14.00">N1</text>
<polyline fill="none" stroke="black" points="127.5,-165.5 127.5,-201.5 "/>
<text text-anchor="middle" x="146.5" y="-179.8" font-family="Times,serif" font-size="14.00">w1</text>
<polyline fill="none" stroke="black" points="165.5,-165.5 165.5,-201.5 "/>
<text text-anchor="middle" x="216.5" y="-179.8" font-family="Times,serif" font-size="14.00">data 0.1949</text>
<polyline fill="none" stroke="black" points="267.5,-165.5 267.5,-201.5 "/>
<text text-anchor="middle" x="319.5" y="-179.8" font-family="Times,serif" font-size="14.00">grad 0.0000</text>
</g>
<!-- 140625756890848* -->
<g id="node11" class="node">
<title>140625756890848*</title>
<ellipse fill="none" stroke="black" cx="437" cy="-183.5" rx="27" ry="18"/>
<text text-anchor="middle" x="437" y="-179.8" font-family="Times,serif" font-size="14.00">*</text>
</g>
<!-- 140625757229584&#45;&gt;140625756890848* -->
<g id="edge15" class="edge">
<title>140625757229584&#45;&gt;140625756890848*</title>
<path fill="none" stroke="black" d="M371.81,-183.5C381.88,-183.5 391.25,-183.5 399.55,-183.5"/>
<polygon fill="black" stroke="black" points="399.82,-187 409.82,-183.5 399.82,-180 399.82,-187"/>
</g>
<!-- 140625757228576 -->
<g id="node2" class="node">
<title>140625757228576</title>
<polygon fill="none" stroke="black" points="0,-55.5 0,-91.5 374,-91.5 374,-55.5 0,-55.5"/>
<text text-anchor="middle" x="26" y="-69.8" font-family="Times,serif" font-size="14.00">v003</text>
<polyline fill="none" stroke="black" points="52,-55.5 52,-91.5 "/>
<text text-anchor="middle" x="69.5" y="-69.8" font-family="Times,serif" font-size="14.00">L1</text>
<polyline fill="none" stroke="black" points="87,-55.5 87,-91.5 "/>
<text text-anchor="middle" x="106" y="-69.8" font-family="Times,serif" font-size="14.00">N2</text>
<polyline fill="none" stroke="black" points="125,-55.5 125,-91.5 "/>
<text text-anchor="middle" x="144" y="-69.8" font-family="Times,serif" font-size="14.00">w1</text>
<polyline fill="none" stroke="black" points="163,-55.5 163,-91.5 "/>
<text text-anchor="middle" x="216.5" y="-69.8" font-family="Times,serif" font-size="14.00">data &#45;0.1702</text>
<polyline fill="none" stroke="black" points="270,-55.5 270,-91.5 "/>
<text text-anchor="middle" x="322" y="-69.8" font-family="Times,serif" font-size="14.00">grad 0.0000</text>
</g>
<!-- 140625756888640* -->
<g id="node6" class="node">
<title>140625756888640*</title>
<ellipse fill="none" stroke="black" cx="437" cy="-73.5" rx="27" ry="18"/>
<text text-anchor="middle" x="437" y="-69.8" font-family="Times,serif" font-size="14.00">*</text>
</g>
<!-- 140625757228576&#45;&gt;140625756888640* -->
<g id="edge18" class="edge">
<title>140625757228576&#45;&gt;140625756888640*</title>
<path fill="none" stroke="black" d="M374.06,-73.5C383.31,-73.5 391.94,-73.5 399.65,-73.5"/>
<polygon fill="black" stroke="black" points="399.9,-77 409.9,-73.5 399.9,-70 399.9,-77"/>
</g>
<!-- 140625756894256 -->
<g id="node3" class="node">
<title>140625756894256</title>
<polygon fill="none" stroke="black" points="1503.5,-135.5 1503.5,-171.5 1824.5,-171.5 1824.5,-135.5 1503.5,-135.5"/>
<text text-anchor="middle" x="1529.5" y="-149.8" font-family="Times,serif" font-size="14.00">v041</text>
<polyline fill="none" stroke="black" points="1555.5,-135.5 1555.5,-171.5 "/>
<text text-anchor="middle" x="1566" y="-149.8" font-family="Times,serif" font-size="14.00"> </text>
<polyline fill="none" stroke="black" points="1576.5,-135.5 1576.5,-171.5 "/>
<text text-anchor="middle" x="1587" y="-149.8" font-family="Times,serif" font-size="14.00"> </text>
<polyline fill="none" stroke="black" points="1597.5,-135.5 1597.5,-171.5 "/>
<text text-anchor="middle" x="1608" y="-149.8" font-family="Times,serif" font-size="14.00"> </text>
<polyline fill="none" stroke="black" points="1618.5,-135.5 1618.5,-171.5 "/>
<text text-anchor="middle" x="1669.5" y="-149.8" font-family="Times,serif" font-size="14.00">data 0.2618</text>
<polyline fill="none" stroke="black" points="1720.5,-135.5 1720.5,-171.5 "/>
<text text-anchor="middle" x="1772.5" y="-149.8" font-family="Times,serif" font-size="14.00">grad 0.0000</text>
</g>
<!-- 140625756895552+ -->
<g id="node18" class="node">
<title>140625756895552+</title>
<ellipse fill="none" stroke="black" cx="2044" cy="-102.5" rx="27" ry="18"/>
<text text-anchor="middle" x="2044" y="-98.8" font-family="Times,serif" font-size="14.00">+</text>
</g>
<!-- 140625756894256&#45;&gt;140625756895552+ -->
<g id="edge12" class="edge">
<title>140625756894256&#45;&gt;140625756895552+</title>
<path fill="none" stroke="black" d="M1798.53,-135.48C1872.81,-125.46 1959.61,-113.75 2007.22,-107.33"/>
<polygon fill="black" stroke="black" points="2007.89,-110.77 2017.33,-105.96 2006.95,-103.83 2007.89,-110.77"/>
</g>
<!-- 140625756894256* -->
<g id="node4" class="node">
<title>140625756894256*</title>
<ellipse fill="none" stroke="black" cx="1420" cy="-153.5" rx="27" ry="18"/>
<text text-anchor="middle" x="1420" y="-149.8" font-family="Times,serif" font-size="14.00">*</text>
</g>
<!-- 140625756894256*&#45;&gt;140625756894256 -->
<g id="edge1" class="edge">
<title>140625756894256*&#45;&gt;140625756894256</title>
<path fill="none" stroke="black" d="M1447.36,-153.5C1459.7,-153.5 1475.53,-153.5 1493,-153.5"/>
<polygon fill="black" stroke="black" points="1493.46,-157 1503.46,-153.5 1493.46,-150 1493.46,-157"/>
</g>
<!-- 140625756888640 -->
<g id="node5" class="node">
<title>140625756888640</title>
<polygon fill="none" stroke="black" points="518,-55.5 518,-91.5 844,-91.5 844,-55.5 518,-55.5"/>
<text text-anchor="middle" x="544" y="-69.8" font-family="Times,serif" font-size="14.00">v039</text>
<polyline fill="none" stroke="black" points="570,-55.5 570,-91.5 "/>
<text text-anchor="middle" x="580.5" y="-69.8" font-family="Times,serif" font-size="14.00"> </text>
<polyline fill="none" stroke="black" points="591,-55.5 591,-91.5 "/>
<text text-anchor="middle" x="601.5" y="-69.8" font-family="Times,serif" font-size="14.00"> </text>
<polyline fill="none" stroke="black" points="612,-55.5 612,-91.5 "/>
<text text-anchor="middle" x="622.5" y="-69.8" font-family="Times,serif" font-size="14.00"> </text>
<polyline fill="none" stroke="black" points="633,-55.5 633,-91.5 "/>
<text text-anchor="middle" x="686.5" y="-69.8" font-family="Times,serif" font-size="14.00">data &#45;0.6808</text>
<polyline fill="none" stroke="black" points="740,-55.5 740,-91.5 "/>
<text text-anchor="middle" x="792" y="-69.8" font-family="Times,serif" font-size="14.00">grad 0.0000</text>
</g>
<!-- 140625756884896+ -->
<g id="node23" class="node">
<title>140625756884896+</title>
<ellipse fill="none" stroke="black" cx="925" cy="-18.5" rx="27" ry="18"/>
<text text-anchor="middle" x="925" y="-14.8" font-family="Times,serif" font-size="14.00">+</text>
</g>
<!-- 140625756888640&#45;&gt;140625756884896+ -->
<g id="edge21" class="edge">
<title>140625756888640&#45;&gt;140625756884896+</title>
<path fill="none" stroke="black" d="M821.35,-55.48C835.19,-52.6 848.94,-49.29 862,-45.5 872.68,-42.4 883.95,-37.9 893.9,-33.45"/>
<polygon fill="black" stroke="black" points="895.37,-36.63 902.98,-29.26 892.44,-30.28 895.37,-36.63"/>
</g>
<!-- 140625756888640*&#45;&gt;140625756888640 -->
<g id="edge2" class="edge">
<title>140625756888640*&#45;&gt;140625756888640</title>
<path fill="none" stroke="black" d="M464.36,-73.5C476.08,-73.5 490.94,-73.5 507.37,-73.5"/>
<polygon fill="black" stroke="black" points="507.79,-77 517.79,-73.5 507.79,-70 507.79,-77"/>
</g>
<!-- 140625757228720 -->
<g id="node7" class="node">
<title>140625757228720</title>
<polygon fill="none" stroke="black" points="500,-110.5 500,-146.5 862,-146.5 862,-110.5 500,-110.5"/>
<text text-anchor="middle" x="526" y="-124.8" font-family="Times,serif" font-size="14.00">v002</text>
<polyline fill="none" stroke="black" points="552,-110.5 552,-146.5 "/>
<text text-anchor="middle" x="569.5" y="-124.8" font-family="Times,serif" font-size="14.00">L1</text>
<polyline fill="none" stroke="black" points="587,-110.5 587,-146.5 "/>
<text text-anchor="middle" x="606" y="-124.8" font-family="Times,serif" font-size="14.00">N1</text>
<polyline fill="none" stroke="black" points="625,-110.5 625,-146.5 "/>
<text text-anchor="middle" x="638" y="-124.8" font-family="Times,serif" font-size="14.00">b</text>
<polyline fill="none" stroke="black" points="651,-110.5 651,-146.5 "/>
<text text-anchor="middle" x="704.5" y="-124.8" font-family="Times,serif" font-size="14.00">data &#45;0.0763</text>
<polyline fill="none" stroke="black" points="758,-110.5 758,-146.5 "/>
<text text-anchor="middle" x="810" y="-124.8" font-family="Times,serif" font-size="14.00">grad 0.0000</text>
</g>
<!-- 140625756894496+ -->
<g id="node16" class="node">
<title>140625756894496+</title>
<ellipse fill="none" stroke="black" cx="925" cy="-183.5" rx="27" ry="18"/>
<text text-anchor="middle" x="925" y="-179.8" font-family="Times,serif" font-size="14.00">+</text>
</g>
<!-- 140625757228720&#45;&gt;140625756894496+ -->
<g id="edge20" class="edge">
<title>140625757228720&#45;&gt;140625756894496+</title>
<path fill="none" stroke="black" d="M821.35,-146.52C835.19,-149.4 848.94,-152.71 862,-156.5 872.68,-159.6 883.95,-164.1 893.9,-168.55"/>
<polygon fill="black" stroke="black" points="892.44,-171.72 902.98,-172.74 895.37,-165.37 892.44,-171.72"/>
</g>
<!-- 140625756888784 -->
<g id="node8" class="node">
<title>140625756888784</title>
<polygon fill="none" stroke="black" points="1881,-29.5 1881,-65.5 2207,-65.5 2207,-29.5 1881,-29.5"/>
<text text-anchor="middle" x="1907" y="-43.8" font-family="Times,serif" font-size="14.00">v043</text>
<polyline fill="none" stroke="black" points="1933,-29.5 1933,-65.5 "/>
<text text-anchor="middle" x="1943.5" y="-43.8" font-family="Times,serif" font-size="14.00"> </text>
<polyline fill="none" stroke="black" points="1954,-29.5 1954,-65.5 "/>
<text text-anchor="middle" x="1964.5" y="-43.8" font-family="Times,serif" font-size="14.00"> </text>
<polyline fill="none" stroke="black" points="1975,-29.5 1975,-65.5 "/>
<text text-anchor="middle" x="1985.5" y="-43.8" font-family="Times,serif" font-size="14.00"> </text>
<polyline fill="none" stroke="black" points="1996,-29.5 1996,-65.5 "/>
<text text-anchor="middle" x="2049.5" y="-43.8" font-family="Times,serif" font-size="14.00">data &#45;0.8897</text>
<polyline fill="none" stroke="black" points="2103,-29.5 2103,-65.5 "/>
<text text-anchor="middle" x="2155" y="-43.8" font-family="Times,serif" font-size="14.00">grad 0.0000</text>
</g>
<!-- 140625756896224+ -->
<g id="node26" class="node">
<title>140625756896224+</title>
<ellipse fill="none" stroke="black" cx="2627" cy="-74.5" rx="27" ry="18"/>
<text text-anchor="middle" x="2627" y="-70.8" font-family="Times,serif" font-size="14.00">+</text>
</g>
<!-- 140625756888784&#45;&gt;140625756896224+ -->
<g id="edge26" class="edge">
<title>140625756888784&#45;&gt;140625756896224+</title>
<path fill="none" stroke="black" d="M2207.23,-55.04C2338.75,-61.15 2514.16,-69.3 2589.31,-72.79"/>
<polygon fill="black" stroke="black" points="2589.5,-76.31 2599.65,-73.28 2589.82,-69.31 2589.5,-76.31"/>
</g>
<!-- 140625756888784* -->
<g id="node9" class="node">
<title>140625756888784*</title>
<ellipse fill="none" stroke="black" cx="1420" cy="-47.5" rx="27" ry="18"/>
<text text-anchor="middle" x="1420" y="-43.8" font-family="Times,serif" font-size="14.00">*</text>
</g>
<!-- 140625756888784*&#45;&gt;140625756888784 -->
<g id="edge3" class="edge">
<title>140625756888784*&#45;&gt;140625756888784</title>
<path fill="none" stroke="black" d="M1447.33,-47.5C1518.87,-47.5 1721.46,-47.5 1870.6,-47.5"/>
<polygon fill="black" stroke="black" points="1870.79,-51 1880.79,-47.5 1870.79,-44 1870.79,-51"/>
</g>
<!-- 140625756890848 -->
<g id="node10" class="node">
<title>140625756890848</title>
<polygon fill="none" stroke="black" points="520.5,-165.5 520.5,-201.5 841.5,-201.5 841.5,-165.5 520.5,-165.5"/>
<text text-anchor="middle" x="546.5" y="-179.8" font-family="Times,serif" font-size="14.00">v037</text>
<polyline fill="none" stroke="black" points="572.5,-165.5 572.5,-201.5 "/>
<text text-anchor="middle" x="583" y="-179.8" font-family="Times,serif" font-size="14.00"> </text>
<polyline fill="none" stroke="black" points="593.5,-165.5 593.5,-201.5 "/>
<text text-anchor="middle" x="604" y="-179.8" font-family="Times,serif" font-size="14.00"> </text>
<polyline fill="none" stroke="black" points="614.5,-165.5 614.5,-201.5 "/>
<text text-anchor="middle" x="625" y="-179.8" font-family="Times,serif" font-size="14.00"> </text>
<polyline fill="none" stroke="black" points="635.5,-165.5 635.5,-201.5 "/>
<text text-anchor="middle" x="686.5" y="-179.8" font-family="Times,serif" font-size="14.00">data 0.7796</text>
<polyline fill="none" stroke="black" points="737.5,-165.5 737.5,-201.5 "/>
<text text-anchor="middle" x="789.5" y="-179.8" font-family="Times,serif" font-size="14.00">grad 0.0000</text>
</g>
<!-- 140625756890848&#45;&gt;140625756894496+ -->
<g id="edge24" class="edge">
<title>140625756890848&#45;&gt;140625756894496+</title>
<path fill="none" stroke="black" d="M841.73,-183.5C858.54,-183.5 874.24,-183.5 887.32,-183.5"/>
<polygon fill="black" stroke="black" points="887.66,-187 897.66,-183.5 887.66,-180 887.66,-187"/>
</g>
<!-- 140625756890848*&#45;&gt;140625756890848 -->
<g id="edge4" class="edge">
<title>140625756890848*&#45;&gt;140625756890848</title>
<path fill="none" stroke="black" d="M464.36,-183.5C476.7,-183.5 492.53,-183.5 510,-183.5"/>
<polygon fill="black" stroke="black" points="510.46,-187 520.46,-183.5 510.46,-180 510.46,-187"/>
</g>
<!-- 140626157073648 -->
<g id="node12" class="node">
<title>140626157073648</title>
<polygon fill="none" stroke="black" points="22,-110.5 22,-146.5 352,-146.5 352,-110.5 22,-110.5"/>
<text text-anchor="middle" x="48" y="-124.8" font-family="Times,serif" font-size="14.00">v008</text>
<polyline fill="none" stroke="black" points="74,-110.5 74,-146.5 "/>
<text text-anchor="middle" x="84.5" y="-124.8" font-family="Times,serif" font-size="14.00"> </text>
<polyline fill="none" stroke="black" points="95,-110.5 95,-146.5 "/>
<text text-anchor="middle" x="105.5" y="-124.8" font-family="Times,serif" font-size="14.00"> </text>
<polyline fill="none" stroke="black" points="116,-110.5 116,-146.5 "/>
<text text-anchor="middle" x="131" y="-124.8" font-family="Times,serif" font-size="14.00">i1</text>
<polyline fill="none" stroke="black" points="146,-110.5 146,-146.5 "/>
<text text-anchor="middle" x="197" y="-124.8" font-family="Times,serif" font-size="14.00">data 4.0000</text>
<polyline fill="none" stroke="black" points="248,-110.5 248,-146.5 "/>
<text text-anchor="middle" x="300" y="-124.8" font-family="Times,serif" font-size="14.00">grad 0.0000</text>
</g>
<!-- 140626157073648&#45;&gt;140625756888640* -->
<g id="edge22" class="edge">
<title>140626157073648&#45;&gt;140625756888640*</title>
<path fill="none" stroke="black" d="M332.99,-110.46C346.96,-107.59 360.82,-104.29 374,-100.5 384.69,-97.43 395.96,-92.93 405.91,-88.49"/>
<polygon fill="black" stroke="black" points="407.38,-91.66 414.99,-84.29 404.44,-85.31 407.38,-91.66"/>
</g>
<!-- 140626157073648&#45;&gt;140625756890848* -->
<g id="edge19" class="edge">
<title>140626157073648&#45;&gt;140625756890848*</title>
<path fill="none" stroke="black" d="M332.99,-146.54C346.96,-149.41 360.82,-152.71 374,-156.5 384.69,-159.57 395.96,-164.07 405.91,-168.51"/>
<polygon fill="black" stroke="black" points="404.44,-171.69 414.99,-172.71 407.38,-165.34 404.44,-171.69"/>
</g>
<!-- 140625757232368 -->
<g id="node13" class="node">
<title>140625757232368</title>
<polygon fill="none" stroke="black" points="988,-110.5 988,-146.5 1357,-146.5 1357,-110.5 988,-110.5"/>
<text text-anchor="middle" x="1014" y="-124.8" font-family="Times,serif" font-size="14.00">v005</text>
<polyline fill="none" stroke="black" points="1040,-110.5 1040,-146.5 "/>
<text text-anchor="middle" x="1057.5" y="-124.8" font-family="Times,serif" font-size="14.00">L2</text>
<polyline fill="none" stroke="black" points="1075,-110.5 1075,-146.5 "/>
<text text-anchor="middle" x="1094" y="-124.8" font-family="Times,serif" font-size="14.00">N1</text>
<polyline fill="none" stroke="black" points="1113,-110.5 1113,-146.5 "/>
<text text-anchor="middle" x="1132" y="-124.8" font-family="Times,serif" font-size="14.00">w1</text>
<polyline fill="none" stroke="black" points="1151,-110.5 1151,-146.5 "/>
<text text-anchor="middle" x="1202" y="-124.8" font-family="Times,serif" font-size="14.00">data 0.3723</text>
<polyline fill="none" stroke="black" points="1253,-110.5 1253,-146.5 "/>
<text text-anchor="middle" x="1305" y="-124.8" font-family="Times,serif" font-size="14.00">grad 0.0000</text>
</g>
<!-- 140625757232368&#45;&gt;140625756894256* -->
<g id="edge14" class="edge">
<title>140625757232368&#45;&gt;140625756894256*</title>
<path fill="none" stroke="black" d="M1350.29,-146.5C1362.2,-147.72 1373.27,-148.84 1382.89,-149.82"/>
<polygon fill="black" stroke="black" points="1382.8,-153.33 1393.1,-150.86 1383.51,-146.37 1382.8,-153.33"/>
</g>
<!-- 140625757228768 -->
<g id="node14" class="node">
<title>140625757228768</title>
<polygon fill="none" stroke="black" points="500,-0.5 500,-36.5 862,-36.5 862,-0.5 500,-0.5"/>
<text text-anchor="middle" x="526" y="-14.8" font-family="Times,serif" font-size="14.00">v004</text>
<polyline fill="none" stroke="black" points="552,-0.5 552,-36.5 "/>
<text text-anchor="middle" x="569.5" y="-14.8" font-family="Times,serif" font-size="14.00">L1</text>
<polyline fill="none" stroke="black" points="587,-0.5 587,-36.5 "/>
<text text-anchor="middle" x="606" y="-14.8" font-family="Times,serif" font-size="14.00">N2</text>
<polyline fill="none" stroke="black" points="625,-0.5 625,-36.5 "/>
<text text-anchor="middle" x="638" y="-14.8" font-family="Times,serif" font-size="14.00">b</text>
<polyline fill="none" stroke="black" points="651,-0.5 651,-36.5 "/>
<text text-anchor="middle" x="704.5" y="-14.8" font-family="Times,serif" font-size="14.00">data &#45;0.1676</text>
<polyline fill="none" stroke="black" points="758,-0.5 758,-36.5 "/>
<text text-anchor="middle" x="810" y="-14.8" font-family="Times,serif" font-size="14.00">grad 0.0000</text>
</g>
<!-- 140625757228768&#45;&gt;140625756884896+ -->
<g id="edge23" class="edge">
<title>140625757228768&#45;&gt;140625756884896+</title>
<path fill="none" stroke="black" d="M862.31,-18.5C871.5,-18.5 880.08,-18.5 887.76,-18.5"/>
<polygon fill="black" stroke="black" points="887.96,-22 897.96,-18.5 887.96,-15 887.96,-22"/>
</g>
<!-- 140625756894496 -->
<g id="node15" class="node">
<title>140625756894496</title>
<polygon fill="none" stroke="black" points="994.5,-165.5 994.5,-201.5 1350.5,-201.5 1350.5,-165.5 994.5,-165.5"/>
<text text-anchor="middle" x="1020.5" y="-179.8" font-family="Times,serif" font-size="14.00">v038</text>
<polyline fill="none" stroke="black" points="1046.5,-165.5 1046.5,-201.5 "/>
<text text-anchor="middle" x="1064" y="-179.8" font-family="Times,serif" font-size="14.00">L1</text>
<polyline fill="none" stroke="black" points="1081.5,-165.5 1081.5,-201.5 "/>
<text text-anchor="middle" x="1100.5" y="-179.8" font-family="Times,serif" font-size="14.00">N1</text>
<polyline fill="none" stroke="black" points="1119.5,-165.5 1119.5,-201.5 "/>
<text text-anchor="middle" x="1132" y="-179.8" font-family="Times,serif" font-size="14.00">a</text>
<polyline fill="none" stroke="black" points="1144.5,-165.5 1144.5,-201.5 "/>
<text text-anchor="middle" x="1195.5" y="-179.8" font-family="Times,serif" font-size="14.00">data 0.7033</text>
<polyline fill="none" stroke="black" points="1246.5,-165.5 1246.5,-201.5 "/>
<text text-anchor="middle" x="1298.5" y="-179.8" font-family="Times,serif" font-size="14.00">grad 0.0000</text>
</g>
<!-- 140625756894496&#45;&gt;140625756894256* -->
<g id="edge13" class="edge">
<title>140625756894496&#45;&gt;140625756894256*</title>
<path fill="none" stroke="black" d="M1320.91,-165.49C1344.02,-162.66 1365.91,-159.99 1383.13,-157.88"/>
<polygon fill="black" stroke="black" points="1383.71,-161.34 1393.21,-156.65 1382.86,-154.39 1383.71,-161.34"/>
</g>
<!-- 140625756894496+&#45;&gt;140625756894496 -->
<g id="edge5" class="edge">
<title>140625756894496+&#45;&gt;140625756894496</title>
<path fill="none" stroke="black" d="M952.27,-183.5C961.26,-183.5 972.11,-183.5 984.12,-183.5"/>
<polygon fill="black" stroke="black" points="984.46,-187 994.46,-183.5 984.46,-180 984.46,-187"/>
</g>
<!-- 140625756895552 -->
<g id="node17" class="node">
<title>140625756895552</title>
<polygon fill="none" stroke="black" points="2243,-82.5 2243,-118.5 2564,-118.5 2564,-82.5 2243,-82.5"/>
<text text-anchor="middle" x="2269" y="-96.8" font-family="Times,serif" font-size="14.00">v042</text>
<polyline fill="none" stroke="black" points="2295,-82.5 2295,-118.5 "/>
<text text-anchor="middle" x="2305.5" y="-96.8" font-family="Times,serif" font-size="14.00"> </text>
<polyline fill="none" stroke="black" points="2316,-82.5 2316,-118.5 "/>
<text text-anchor="middle" x="2326.5" y="-96.8" font-family="Times,serif" font-size="14.00"> </text>
<polyline fill="none" stroke="black" points="2337,-82.5 2337,-118.5 "/>
<text text-anchor="middle" x="2347.5" y="-96.8" font-family="Times,serif" font-size="14.00"> </text>
<polyline fill="none" stroke="black" points="2358,-82.5 2358,-118.5 "/>
<text text-anchor="middle" x="2409" y="-96.8" font-family="Times,serif" font-size="14.00">data 0.1118</text>
<polyline fill="none" stroke="black" points="2460,-82.5 2460,-118.5 "/>
<text text-anchor="middle" x="2512" y="-96.8" font-family="Times,serif" font-size="14.00">grad 0.0000</text>
</g>
<!-- 140625756895552&#45;&gt;140625756896224+ -->
<g id="edge25" class="edge">
<title>140625756895552&#45;&gt;140625756896224+</title>
<path fill="none" stroke="black" d="M2558.04,-82.48C2569.67,-81.11 2580.55,-79.83 2590.06,-78.72"/>
<polygon fill="black" stroke="black" points="2590.64,-82.17 2600.17,-77.53 2589.83,-75.22 2590.64,-82.17"/>
</g>
<!-- 140625756895552+&#45;&gt;140625756895552 -->
<g id="edge6" class="edge">
<title>140625756895552+&#45;&gt;140625756895552</title>
<path fill="none" stroke="black" d="M2071.29,-102.35C2106.03,-102.16 2170.19,-101.8 2232.86,-101.45"/>
<polygon fill="black" stroke="black" points="2232.92,-104.95 2242.9,-101.39 2232.88,-97.95 2232.92,-104.95"/>
</g>
<!-- 140625756883264 -->
<g id="node19" class="node">
<title>140625756883264</title>
<polygon fill="none" stroke="black" points="3177,-56.5 3177,-92.5 3498,-92.5 3498,-56.5 3177,-56.5"/>
<text text-anchor="middle" x="3203" y="-70.8" font-family="Times,serif" font-size="14.00">v045</text>
<polyline fill="none" stroke="black" points="3229,-56.5 3229,-92.5 "/>
<text text-anchor="middle" x="3239.5" y="-70.8" font-family="Times,serif" font-size="14.00"> </text>
<polyline fill="none" stroke="black" points="3250,-56.5 3250,-92.5 "/>
<text text-anchor="middle" x="3260.5" y="-70.8" font-family="Times,serif" font-size="14.00"> </text>
<polyline fill="none" stroke="black" points="3271,-56.5 3271,-92.5 "/>
<text text-anchor="middle" x="3281.5" y="-70.8" font-family="Times,serif" font-size="14.00"> </text>
<polyline fill="none" stroke="black" points="3292,-56.5 3292,-92.5 "/>
<text text-anchor="middle" x="3343" y="-70.8" font-family="Times,serif" font-size="14.00">data 0.6051</text>
<polyline fill="none" stroke="black" points="3394,-56.5 3394,-92.5 "/>
<text text-anchor="middle" x="3446" y="-70.8" font-family="Times,serif" font-size="14.00">grad 0.0000</text>
</g>
<!-- 140625756883264* -->
<g id="node20" class="node">
<title>140625756883264*</title>
<ellipse fill="none" stroke="black" cx="3114" cy="-74.5" rx="27" ry="18"/>
<text text-anchor="middle" x="3114" y="-70.8" font-family="Times,serif" font-size="14.00">*</text>
</g>
<!-- 140625756883264*&#45;&gt;140625756883264 -->
<g id="edge7" class="edge">
<title>140625756883264*&#45;&gt;140625756883264</title>
<path fill="none" stroke="black" d="M3141.28,-74.5C3148.68,-74.5 3157.32,-74.5 3166.76,-74.5"/>
<polygon fill="black" stroke="black" points="3166.88,-78 3176.88,-74.5 3166.88,-71 3166.88,-78"/>
</g>
<!-- 140625757226464 -->
<g id="node21" class="node">
<title>140625757226464</title>
<polygon fill="none" stroke="black" points="988,-55.5 988,-91.5 1357,-91.5 1357,-55.5 988,-55.5"/>
<text text-anchor="middle" x="1014" y="-69.8" font-family="Times,serif" font-size="14.00">v006</text>
<polyline fill="none" stroke="black" points="1040,-55.5 1040,-91.5 "/>
<text text-anchor="middle" x="1057.5" y="-69.8" font-family="Times,serif" font-size="14.00">L2</text>
<polyline fill="none" stroke="black" points="1075,-55.5 1075,-91.5 "/>
<text text-anchor="middle" x="1094" y="-69.8" font-family="Times,serif" font-size="14.00">N1</text>
<polyline fill="none" stroke="black" points="1113,-55.5 1113,-91.5 "/>
<text text-anchor="middle" x="1132" y="-69.8" font-family="Times,serif" font-size="14.00">w2</text>
<polyline fill="none" stroke="black" points="1151,-55.5 1151,-91.5 "/>
<text text-anchor="middle" x="1202" y="-69.8" font-family="Times,serif" font-size="14.00">data 1.0488</text>
<polyline fill="none" stroke="black" points="1253,-55.5 1253,-91.5 "/>
<text text-anchor="middle" x="1305" y="-69.8" font-family="Times,serif" font-size="14.00">grad 0.0000</text>
</g>
<!-- 140625757226464&#45;&gt;140625756888784* -->
<g id="edge11" class="edge">
<title>140625757226464&#45;&gt;140625756888784*</title>
<path fill="none" stroke="black" d="M1343.67,-55.48C1358.11,-53.95 1371.52,-52.53 1382.9,-51.32"/>
<polygon fill="black" stroke="black" points="1383.58,-54.77 1393.15,-50.24 1382.84,-47.81 1383.58,-54.77"/>
</g>
<!-- 140625756884896 -->
<g id="node22" class="node">
<title>140625756884896</title>
<polygon fill="none" stroke="black" points="992,-0.5 992,-36.5 1353,-36.5 1353,-0.5 992,-0.5"/>
<text text-anchor="middle" x="1018" y="-14.8" font-family="Times,serif" font-size="14.00">v040</text>
<polyline fill="none" stroke="black" points="1044,-0.5 1044,-36.5 "/>
<text text-anchor="middle" x="1061.5" y="-14.8" font-family="Times,serif" font-size="14.00">L1</text>
<polyline fill="none" stroke="black" points="1079,-0.5 1079,-36.5 "/>
<text text-anchor="middle" x="1098" y="-14.8" font-family="Times,serif" font-size="14.00">N2</text>
<polyline fill="none" stroke="black" points="1117,-0.5 1117,-36.5 "/>
<text text-anchor="middle" x="1129.5" y="-14.8" font-family="Times,serif" font-size="14.00">a</text>
<polyline fill="none" stroke="black" points="1142,-0.5 1142,-36.5 "/>
<text text-anchor="middle" x="1195.5" y="-14.8" font-family="Times,serif" font-size="14.00">data &#45;0.8484</text>
<polyline fill="none" stroke="black" points="1249,-0.5 1249,-36.5 "/>
<text text-anchor="middle" x="1301" y="-14.8" font-family="Times,serif" font-size="14.00">grad 0.0000</text>
</g>
<!-- 140625756884896&#45;&gt;140625756888784* -->
<g id="edge17" class="edge">
<title>140625756884896&#45;&gt;140625756888784*</title>
<path fill="none" stroke="black" d="M1326.19,-36.54C1347.26,-39.03 1367.08,-41.37 1382.95,-43.24"/>
<polygon fill="black" stroke="black" points="1382.93,-46.76 1393.27,-44.46 1383.75,-39.81 1382.93,-46.76"/>
</g>
<!-- 140625756884896+&#45;&gt;140625756884896 -->
<g id="edge8" class="edge">
<title>140625756884896+&#45;&gt;140625756884896</title>
<path fill="none" stroke="black" d="M952.27,-18.5C960.69,-18.5 970.75,-18.5 981.85,-18.5"/>
<polygon fill="black" stroke="black" points="981.87,-22 991.87,-18.5 981.87,-15 981.87,-22"/>
</g>
<!-- 140625757226416 -->
<g id="node24" class="node">
<title>140625757226416</title>
<polygon fill="none" stroke="black" points="1483,-80.5 1483,-116.5 1845,-116.5 1845,-80.5 1483,-80.5"/>
<text text-anchor="middle" x="1509" y="-94.8" font-family="Times,serif" font-size="14.00">v007</text>
<polyline fill="none" stroke="black" points="1535,-80.5 1535,-116.5 "/>
<text text-anchor="middle" x="1552.5" y="-94.8" font-family="Times,serif" font-size="14.00">L2</text>
<polyline fill="none" stroke="black" points="1570,-80.5 1570,-116.5 "/>
<text text-anchor="middle" x="1589" y="-94.8" font-family="Times,serif" font-size="14.00">N1</text>
<polyline fill="none" stroke="black" points="1608,-80.5 1608,-116.5 "/>
<text text-anchor="middle" x="1621" y="-94.8" font-family="Times,serif" font-size="14.00">b</text>
<polyline fill="none" stroke="black" points="1634,-80.5 1634,-116.5 "/>
<text text-anchor="middle" x="1687.5" y="-94.8" font-family="Times,serif" font-size="14.00">data &#45;0.1500</text>
<polyline fill="none" stroke="black" points="1741,-80.5 1741,-116.5 "/>
<text text-anchor="middle" x="1793" y="-94.8" font-family="Times,serif" font-size="14.00">grad 0.0000</text>
</g>
<!-- 140625757226416&#45;&gt;140625756895552+ -->
<g id="edge10" class="edge">
<title>140625757226416&#45;&gt;140625756895552+</title>
<path fill="none" stroke="black" d="M1845.14,-100.41C1906.32,-101.05 1968.75,-101.71 2006.69,-102.12"/>
<polygon fill="black" stroke="black" points="2006.68,-105.62 2016.72,-102.22 2006.76,-98.62 2006.68,-105.62"/>
</g>
<!-- 140625756896224 -->
<g id="node25" class="node">
<title>140625756896224</title>
<polygon fill="none" stroke="black" points="2690,-56.5 2690,-92.5 3051,-92.5 3051,-56.5 2690,-56.5"/>
<text text-anchor="middle" x="2716" y="-70.8" font-family="Times,serif" font-size="14.00">v044</text>
<polyline fill="none" stroke="black" points="2742,-56.5 2742,-92.5 "/>
<text text-anchor="middle" x="2759.5" y="-70.8" font-family="Times,serif" font-size="14.00">L2</text>
<polyline fill="none" stroke="black" points="2777,-56.5 2777,-92.5 "/>
<text text-anchor="middle" x="2796" y="-70.8" font-family="Times,serif" font-size="14.00">N1</text>
<polyline fill="none" stroke="black" points="2815,-56.5 2815,-92.5 "/>
<text text-anchor="middle" x="2827.5" y="-70.8" font-family="Times,serif" font-size="14.00">a</text>
<polyline fill="none" stroke="black" points="2840,-56.5 2840,-92.5 "/>
<text text-anchor="middle" x="2893.5" y="-70.8" font-family="Times,serif" font-size="14.00">data &#45;0.7779</text>
<polyline fill="none" stroke="black" points="2947,-56.5 2947,-92.5 "/>
<text text-anchor="middle" x="2999" y="-70.8" font-family="Times,serif" font-size="14.00">grad 0.0000</text>
</g>
<!-- 140625756896224&#45;&gt;140625756883264* -->
<g id="edge16" class="edge">
<title>140625756896224&#45;&gt;140625756883264*</title>
<path fill="none" stroke="black" d="M3051.12,-74.5C3060.34,-74.5 3068.94,-74.5 3076.64,-74.5"/>
<polygon fill="black" stroke="black" points="3076.87,-78 3086.87,-74.5 3076.87,-71 3076.87,-78"/>
</g>
<!-- 140625756896224+&#45;&gt;140625756896224 -->
<g id="edge9" class="edge">
<title>140625756896224+&#45;&gt;140625756896224</title>
<path fill="none" stroke="black" d="M2654.3,-74.5C2661.65,-74.5 2670.24,-74.5 2679.68,-74.5"/>
<polygon fill="black" stroke="black" points="2679.81,-78 2689.81,-74.5 2679.81,-71 2679.81,-78"/>
</g>
</g>
</svg>
