<?xml version="1.0" encoding="UTF-8" standalone="no"?>
<!DOCTYPE svg PUBLIC "-//W3C//DTD SVG 1.1//EN"
 "http://www.w3.org/Graphics/SVG/1.1/DTD/svg11.dtd">
<!-- Generated by graphviz version 2.43.0 (0)
 -->
<!-- Title: %3 Pages: 1 -->
<svg width="3496pt" height="240pt"
 viewBox="0.00 0.00 3496.00 240.00" xmlns="http://www.w3.org/2000/svg" xmlns:xlink="http://www.w3.org/1999/xlink">
<g id="graph0" class="graph" transform="scale(1 1) rotate(0) translate(4 236)">
<title>%3</title>
<polygon fill="white" stroke="transparent" points="-4,4 -4,-236 3492,-236 3492,4 -4,4"/>
<!-- 140625756894736 -->
<g id="node1" class="node">
<title>140625756894736</title>
<polygon fill="none" stroke="black" points="3167,-75.5 3167,-111.5 3488,-111.5 3488,-75.5 3167,-75.5"/>
<text text-anchor="middle" x="3193" y="-89.8" font-family="Times,serif" font-size="14.00">v036</text>
<polyline fill="none" stroke="black" points="3219,-75.5 3219,-111.5 "/>
<text text-anchor="middle" x="3229.5" y="-89.8" font-family="Times,serif" font-size="14.00"> </text>
<polyline fill="none" stroke="black" points="3240,-75.5 3240,-111.5 "/>
<text text-anchor="middle" x="3250.5" y="-89.8" font-family="Times,serif" font-size="14.00"> </text>
<polyline fill="none" stroke="black" points="3261,-75.5 3261,-111.5 "/>
<text text-anchor="middle" x="3271.5" y="-89.8" font-family="Times,serif" font-size="14.00"> </text>
<polyline fill="none" stroke="black" points="3282,-75.5 3282,-111.5 "/>
<text text-anchor="middle" x="3333" y="-89.8" font-family="Times,serif" font-size="14.00">data 0.1604</text>
<polyline fill="none" stroke="black" points="3384,-75.5 3384,-111.5 "/>
<text text-anchor="middle" x="3436" y="-89.8" font-family="Times,serif" font-size="14.00">grad 0.0000</text>
</g>
<!-- 140625756894736* -->
<g id="node2" class="node">
<title>140625756894736*</title>
<ellipse fill="none" stroke="black" cx="3104" cy="-93.5" rx="27" ry="18"/>
<text text-anchor="middle" x="3104" y="-89.8" font-family="Times,serif" font-size="14.00">*</text>
</g>
<!-- 140625756894736*&#45;&gt;140625756894736 -->
<g id="edge1" class="edge">
<title>140625756894736*&#45;&gt;140625756894736</title>
<path fill="none" stroke="black" d="M3131.28,-93.5C3138.68,-93.5 3147.32,-93.5 3156.76,-93.5"/>
<polygon fill="black" stroke="black" points="3156.88,-97 3166.88,-93.5 3156.88,-90 3156.88,-97"/>
</g>
<!-- 140625757229584 -->
<g id="node3" class="node">
<title>140625757229584</title>
<polygon fill="none" stroke="black" points="2.5,-188.5 2.5,-224.5 371.5,-224.5 371.5,-188.5 2.5,-188.5"/>
<text text-anchor="middle" x="28.5" y="-202.8" font-family="Times,serif" font-size="14.00">v001</text>
<polyline fill="none" stroke="black" points="54.5,-188.5 54.5,-224.5 "/>
<text text-anchor="middle" x="72" y="-202.8" font-family="Times,serif" font-size="14.00">L1</text>
<polyline fill="none" stroke="black" points="89.5,-188.5 89.5,-224.5 "/>
<text text-anchor="middle" x="108.5" y="-202.8" font-family="Times,serif" font-size="14.00">N1</text>
<polyline fill="none" stroke="black" points="127.5,-188.5 127.5,-224.5 "/>
<text text-anchor="middle" x="146.5" y="-202.8" font-family="Times,serif" font-size="14.00">w1</text>
<polyline fill="none" stroke="black" points="165.5,-188.5 165.5,-224.5 "/>
<text text-anchor="middle" x="216.5" y="-202.8" font-family="Times,serif" font-size="14.00">data 0.1949</text>
<polyline fill="none" stroke="black" points="267.5,-188.5 267.5,-224.5 "/>
<text text-anchor="middle" x="319.5" y="-202.8" font-family="Times,serif" font-size="14.00">grad 1.7020</text>
</g>
<!-- 140625756889168* -->
<g id="node6" class="node">
<title>140625756889168*</title>
<ellipse fill="none" stroke="black" cx="437" cy="-206.5" rx="27" ry="18"/>
<text text-anchor="middle" x="437" y="-202.8" font-family="Times,serif" font-size="14.00">*</text>
</g>
<!-- 140625757229584&#45;&gt;140625756889168* -->
<g id="edge25" class="edge">
<title>140625757229584&#45;&gt;140625756889168*</title>
<path fill="none" stroke="black" d="M371.81,-206.5C381.88,-206.5 391.25,-206.5 399.55,-206.5"/>
<polygon fill="black" stroke="black" points="399.82,-210 409.82,-206.5 399.82,-203 399.82,-210"/>
</g>
<!-- 140625757228576 -->
<g id="node4" class="node">
<title>140625757228576</title>
<polygon fill="none" stroke="black" points="0,-78.5 0,-114.5 374,-114.5 374,-78.5 0,-78.5"/>
<text text-anchor="middle" x="26" y="-92.8" font-family="Times,serif" font-size="14.00">v003</text>
<polyline fill="none" stroke="black" points="52,-78.5 52,-114.5 "/>
<text text-anchor="middle" x="69.5" y="-92.8" font-family="Times,serif" font-size="14.00">L1</text>
<polyline fill="none" stroke="black" points="87,-78.5 87,-114.5 "/>
<text text-anchor="middle" x="106" y="-92.8" font-family="Times,serif" font-size="14.00">N2</text>
<polyline fill="none" stroke="black" points="125,-78.5 125,-114.5 "/>
<text text-anchor="middle" x="144" y="-92.8" font-family="Times,serif" font-size="14.00">w1</text>
<polyline fill="none" stroke="black" points="163,-78.5 163,-114.5 "/>
<text text-anchor="middle" x="216.5" y="-92.8" font-family="Times,serif" font-size="14.00">data &#45;0.1702</text>
<polyline fill="none" stroke="black" points="270,-78.5 270,-114.5 "/>
<text text-anchor="middle" x="322" y="-92.8" font-family="Times,serif" font-size="14.00">grad 4.2040</text>
</g>
<!-- 140625756892528* -->
<g id="node20" class="node">
<title>140625756892528*</title>
<ellipse fill="none" stroke="black" cx="437" cy="-96.5" rx="27" ry="18"/>
<text text-anchor="middle" x="437" y="-92.8" font-family="Times,serif" font-size="14.00">*</text>
</g>
<!-- 140625757228576&#45;&gt;140625756892528* -->
<g id="edge23" class="edge">
<title>140625757228576&#45;&gt;140625756892528*</title>
<path fill="none" stroke="black" d="M374.06,-96.5C383.31,-96.5 391.94,-96.5 399.65,-96.5"/>
<polygon fill="black" stroke="black" points="399.9,-100 409.9,-96.5 399.9,-93 399.9,-100"/>
</g>
<!-- 140625756889168 -->
<g id="node5" class="node">
<title>140625756889168</title>
<polygon fill="none" stroke="black" points="520.5,-188.5 520.5,-224.5 841.5,-224.5 841.5,-188.5 520.5,-188.5"/>
<text text-anchor="middle" x="546.5" y="-202.8" font-family="Times,serif" font-size="14.00">v028</text>
<polyline fill="none" stroke="black" points="572.5,-188.5 572.5,-224.5 "/>
<text text-anchor="middle" x="583" y="-202.8" font-family="Times,serif" font-size="14.00"> </text>
<polyline fill="none" stroke="black" points="593.5,-188.5 593.5,-224.5 "/>
<text text-anchor="middle" x="604" y="-202.8" font-family="Times,serif" font-size="14.00"> </text>
<polyline fill="none" stroke="black" points="614.5,-188.5 614.5,-224.5 "/>
<text text-anchor="middle" x="625" y="-202.8" font-family="Times,serif" font-size="14.00"> </text>
<polyline fill="none" stroke="black" points="635.5,-188.5 635.5,-224.5 "/>
<text text-anchor="middle" x="686.5" y="-202.8" font-family="Times,serif" font-size="14.00">data 1.1200</text>
<polyline fill="none" stroke="black" points="737.5,-188.5 737.5,-224.5 "/>
<text text-anchor="middle" x="789.5" y="-202.8" font-family="Times,serif" font-size="14.00">grad 0.4255</text>
</g>
<!-- 140625756894112+ -->
<g id="node23" class="node">
<title>140625756894112+</title>
<ellipse fill="none" stroke="black" cx="925" cy="-158.5" rx="27" ry="18"/>
<text text-anchor="middle" x="925" y="-154.8" font-family="Times,serif" font-size="14.00">+</text>
</g>
<!-- 140625756889168&#45;&gt;140625756894112+ -->
<g id="edge11" class="edge">
<title>140625756889168&#45;&gt;140625756894112+</title>
<path fill="none" stroke="black" d="M819.59,-188.44C833.98,-185.79 848.33,-182.81 862,-179.5 871.84,-177.12 882.33,-173.85 891.84,-170.6"/>
<polygon fill="black" stroke="black" points="893.05,-173.89 901.32,-167.26 890.72,-167.28 893.05,-173.89"/>
</g>
<!-- 140625756889168*&#45;&gt;140625756889168 -->
<g id="edge2" class="edge">
<title>140625756889168*&#45;&gt;140625756889168</title>
<path fill="none" stroke="black" d="M464.36,-206.5C476.7,-206.5 492.53,-206.5 510,-206.5"/>
<polygon fill="black" stroke="black" points="510.46,-210 520.46,-206.5 510.46,-203 510.46,-210"/>
</g>
<!-- 140625756895888 -->
<g id="node7" class="node">
<title>140625756895888</title>
<polygon fill="none" stroke="black" points="2238,-101.5 2238,-137.5 2559,-137.5 2559,-101.5 2238,-101.5"/>
<text text-anchor="middle" x="2264" y="-115.8" font-family="Times,serif" font-size="14.00">v033</text>
<polyline fill="none" stroke="black" points="2290,-101.5 2290,-137.5 "/>
<text text-anchor="middle" x="2300.5" y="-115.8" font-family="Times,serif" font-size="14.00"> </text>
<polyline fill="none" stroke="black" points="2311,-101.5 2311,-137.5 "/>
<text text-anchor="middle" x="2321.5" y="-115.8" font-family="Times,serif" font-size="14.00"> </text>
<polyline fill="none" stroke="black" points="2332,-101.5 2332,-137.5 "/>
<text text-anchor="middle" x="2342.5" y="-115.8" font-family="Times,serif" font-size="14.00"> </text>
<polyline fill="none" stroke="black" points="2353,-101.5 2353,-137.5 "/>
<text text-anchor="middle" x="2404" y="-115.8" font-family="Times,serif" font-size="14.00">data 0.3532</text>
<polyline fill="none" stroke="black" points="2455,-101.5 2455,-137.5 "/>
<text text-anchor="middle" x="2507" y="-115.8" font-family="Times,serif" font-size="14.00">grad 1.0000</text>
</g>
<!-- 140625756885472+ -->
<g id="node26" class="node">
<title>140625756885472+</title>
<ellipse fill="none" stroke="black" cx="2622" cy="-93.5" rx="27" ry="18"/>
<text text-anchor="middle" x="2622" y="-89.8" font-family="Times,serif" font-size="14.00">+</text>
</g>
<!-- 140625756895888&#45;&gt;140625756885472+ -->
<g id="edge18" class="edge">
<title>140625756895888&#45;&gt;140625756885472+</title>
<path fill="none" stroke="black" d="M2553.04,-101.48C2564.67,-100.11 2575.55,-98.83 2585.06,-97.72"/>
<polygon fill="black" stroke="black" points="2585.64,-101.17 2595.17,-96.53 2584.83,-94.22 2585.64,-101.17"/>
</g>
<!-- 140625756895888+ -->
<g id="node8" class="node">
<title>140625756895888+</title>
<ellipse fill="none" stroke="black" cx="2041.5" cy="-121.5" rx="27" ry="18"/>
<text text-anchor="middle" x="2041.5" y="-117.8" font-family="Times,serif" font-size="14.00">+</text>
</g>
<!-- 140625756895888+&#45;&gt;140625756895888 -->
<g id="edge3" class="edge">
<title>140625756895888+&#45;&gt;140625756895888</title>
<path fill="none" stroke="black" d="M2068.6,-121.35C2102.81,-121.16 2165.72,-120.81 2227.43,-120.46"/>
<polygon fill="black" stroke="black" points="2227.74,-123.96 2237.72,-120.4 2227.7,-116.96 2227.74,-123.96"/>
</g>
<!-- 140625756888736 -->
<g id="node9" class="node">
<title>140625756888736</title>
<polygon fill="none" stroke="black" points="1503.5,-154.5 1503.5,-190.5 1824.5,-190.5 1824.5,-154.5 1503.5,-154.5"/>
<text text-anchor="middle" x="1529.5" y="-168.8" font-family="Times,serif" font-size="14.00">v032</text>
<polyline fill="none" stroke="black" points="1555.5,-154.5 1555.5,-190.5 "/>
<text text-anchor="middle" x="1566" y="-168.8" font-family="Times,serif" font-size="14.00"> </text>
<polyline fill="none" stroke="black" points="1576.5,-154.5 1576.5,-190.5 "/>
<text text-anchor="middle" x="1587" y="-168.8" font-family="Times,serif" font-size="14.00"> </text>
<polyline fill="none" stroke="black" points="1597.5,-154.5 1597.5,-190.5 "/>
<text text-anchor="middle" x="1608" y="-168.8" font-family="Times,serif" font-size="14.00"> </text>
<polyline fill="none" stroke="black" points="1618.5,-154.5 1618.5,-190.5 "/>
<text text-anchor="middle" x="1669.5" y="-168.8" font-family="Times,serif" font-size="14.00">data 0.4532</text>
<polyline fill="none" stroke="black" points="1720.5,-154.5 1720.5,-190.5 "/>
<text text-anchor="middle" x="1772.5" y="-168.8" font-family="Times,serif" font-size="14.00">grad 1.0000</text>
</g>
<!-- 140625756888736&#45;&gt;140625756895888+ -->
<g id="edge20" class="edge">
<title>140625756888736&#45;&gt;140625756895888+</title>
<path fill="none" stroke="black" d="M1797.65,-154.48C1871.43,-144.46 1957.67,-132.75 2004.96,-126.33"/>
<polygon fill="black" stroke="black" points="2005.56,-129.78 2015,-124.96 2004.62,-122.84 2005.56,-129.78"/>
</g>
<!-- 140625756888736* -->
<g id="node10" class="node">
<title>140625756888736*</title>
<ellipse fill="none" stroke="black" cx="1420" cy="-172.5" rx="27" ry="18"/>
<text text-anchor="middle" x="1420" y="-168.8" font-family="Times,serif" font-size="14.00">*</text>
</g>
<!-- 140625756888736*&#45;&gt;140625756888736 -->
<g id="edge4" class="edge">
<title>140625756888736*&#45;&gt;140625756888736</title>
<path fill="none" stroke="black" d="M1447.36,-172.5C1459.7,-172.5 1475.53,-172.5 1493,-172.5"/>
<polygon fill="black" stroke="black" points="1493.46,-176 1503.46,-172.5 1493.46,-169 1493.46,-176"/>
</g>
<!-- 140625757228720 -->
<g id="node11" class="node">
<title>140625757228720</title>
<polygon fill="none" stroke="black" points="500,-133.5 500,-169.5 862,-169.5 862,-133.5 500,-133.5"/>
<text text-anchor="middle" x="526" y="-147.8" font-family="Times,serif" font-size="14.00">v002</text>
<polyline fill="none" stroke="black" points="552,-133.5 552,-169.5 "/>
<text text-anchor="middle" x="569.5" y="-147.8" font-family="Times,serif" font-size="14.00">L1</text>
<polyline fill="none" stroke="black" points="587,-133.5 587,-169.5 "/>
<text text-anchor="middle" x="606" y="-147.8" font-family="Times,serif" font-size="14.00">N1</text>
<polyline fill="none" stroke="black" points="625,-133.5 625,-169.5 "/>
<text text-anchor="middle" x="638" y="-147.8" font-family="Times,serif" font-size="14.00">b</text>
<polyline fill="none" stroke="black" points="651,-133.5 651,-169.5 "/>
<text text-anchor="middle" x="704.5" y="-147.8" font-family="Times,serif" font-size="14.00">data &#45;0.0763</text>
<polyline fill="none" stroke="black" points="758,-133.5 758,-169.5 "/>
<text text-anchor="middle" x="810" y="-147.8" font-family="Times,serif" font-size="14.00">grad 0.4255</text>
</g>
<!-- 140625757228720&#45;&gt;140625756894112+ -->
<g id="edge26" class="edge">
<title>140625757228720&#45;&gt;140625756894112+</title>
<path fill="none" stroke="black" d="M862.31,-156.72C871.5,-156.98 880.08,-157.23 887.76,-157.45"/>
<polygon fill="black" stroke="black" points="887.86,-160.96 897.96,-157.75 888.07,-153.96 887.86,-160.96"/>
</g>
<!-- 140625756893344 -->
<g id="node12" class="node">
<title>140625756893344</title>
<polygon fill="none" stroke="black" points="1881,-48.5 1881,-84.5 2202,-84.5 2202,-48.5 1881,-48.5"/>
<text text-anchor="middle" x="1907" y="-62.8" font-family="Times,serif" font-size="14.00">v034</text>
<polyline fill="none" stroke="black" points="1933,-48.5 1933,-84.5 "/>
<text text-anchor="middle" x="1943.5" y="-62.8" font-family="Times,serif" font-size="14.00"> </text>
<polyline fill="none" stroke="black" points="1954,-48.5 1954,-84.5 "/>
<text text-anchor="middle" x="1964.5" y="-62.8" font-family="Times,serif" font-size="14.00"> </text>
<polyline fill="none" stroke="black" points="1975,-48.5 1975,-84.5 "/>
<text text-anchor="middle" x="1985.5" y="-62.8" font-family="Times,serif" font-size="14.00"> </text>
<polyline fill="none" stroke="black" points="1996,-48.5 1996,-84.5 "/>
<text text-anchor="middle" x="2047" y="-62.8" font-family="Times,serif" font-size="14.00">data 0.0473</text>
<polyline fill="none" stroke="black" points="2098,-48.5 2098,-84.5 "/>
<text text-anchor="middle" x="2150" y="-62.8" font-family="Times,serif" font-size="14.00">grad 1.0000</text>
</g>
<!-- 140625756893344&#45;&gt;140625756885472+ -->
<g id="edge15" class="edge">
<title>140625756893344&#45;&gt;140625756885472+</title>
<path fill="none" stroke="black" d="M2202.11,-73.95C2333.28,-80.07 2509.3,-88.29 2584.48,-91.8"/>
<polygon fill="black" stroke="black" points="2584.67,-95.31 2594.82,-92.28 2585,-88.32 2584.67,-95.31"/>
</g>
<!-- 140625756893344* -->
<g id="node13" class="node">
<title>140625756893344*</title>
<ellipse fill="none" stroke="black" cx="1420" cy="-66.5" rx="27" ry="18"/>
<text text-anchor="middle" x="1420" y="-62.8" font-family="Times,serif" font-size="14.00">*</text>
</g>
<!-- 140625756893344*&#45;&gt;140625756893344 -->
<g id="edge5" class="edge">
<title>140625756893344*&#45;&gt;140625756893344</title>
<path fill="none" stroke="black" d="M1447.22,-66.5C1518.76,-66.5 1721.85,-66.5 1870.55,-66.5"/>
<polygon fill="black" stroke="black" points="1870.71,-70 1880.71,-66.5 1870.71,-63 1870.71,-70"/>
</g>
<!-- 140625757228768 -->
<g id="node14" class="node">
<title>140625757228768</title>
<polygon fill="none" stroke="black" points="500,-23.5 500,-59.5 862,-59.5 862,-23.5 500,-23.5"/>
<text text-anchor="middle" x="526" y="-37.8" font-family="Times,serif" font-size="14.00">v004</text>
<polyline fill="none" stroke="black" points="552,-23.5 552,-59.5 "/>
<text text-anchor="middle" x="569.5" y="-37.8" font-family="Times,serif" font-size="14.00">L1</text>
<polyline fill="none" stroke="black" points="587,-23.5 587,-59.5 "/>
<text text-anchor="middle" x="606" y="-37.8" font-family="Times,serif" font-size="14.00">N2</text>
<polyline fill="none" stroke="black" points="625,-23.5 625,-59.5 "/>
<text text-anchor="middle" x="638" y="-37.8" font-family="Times,serif" font-size="14.00">b</text>
<polyline fill="none" stroke="black" points="651,-23.5 651,-59.5 "/>
<text text-anchor="middle" x="704.5" y="-37.8" font-family="Times,serif" font-size="14.00">data &#45;0.1676</text>
<polyline fill="none" stroke="black" points="758,-23.5 758,-59.5 "/>
<text text-anchor="middle" x="810" y="-37.8" font-family="Times,serif" font-size="14.00">grad 1.0510</text>
</g>
<!-- 140625756889936+ -->
<g id="node18" class="node">
<title>140625756889936+</title>
<ellipse fill="none" stroke="black" cx="925" cy="-73.5" rx="27" ry="18"/>
<text text-anchor="middle" x="925" y="-69.8" font-family="Times,serif" font-size="14.00">+</text>
</g>
<!-- 140625757228768&#45;&gt;140625756889936+ -->
<g id="edge14" class="edge">
<title>140625757228768&#45;&gt;140625756889936+</title>
<path fill="none" stroke="black" d="M818.21,-59.51C844.14,-62.94 869.13,-66.24 888.3,-68.78"/>
<polygon fill="black" stroke="black" points="887.95,-72.26 898.33,-70.11 888.87,-65.32 887.95,-72.26"/>
</g>
<!-- 140626157073648 -->
<g id="node15" class="node">
<title>140626157073648</title>
<polygon fill="none" stroke="black" points="22,-133.5 22,-169.5 352,-169.5 352,-133.5 22,-133.5"/>
<text text-anchor="middle" x="48" y="-147.8" font-family="Times,serif" font-size="14.00">v008</text>
<polyline fill="none" stroke="black" points="74,-133.5 74,-169.5 "/>
<text text-anchor="middle" x="84.5" y="-147.8" font-family="Times,serif" font-size="14.00"> </text>
<polyline fill="none" stroke="black" points="95,-133.5 95,-169.5 "/>
<text text-anchor="middle" x="105.5" y="-147.8" font-family="Times,serif" font-size="14.00"> </text>
<polyline fill="none" stroke="black" points="116,-133.5 116,-169.5 "/>
<text text-anchor="middle" x="131" y="-147.8" font-family="Times,serif" font-size="14.00">i1</text>
<polyline fill="none" stroke="black" points="146,-133.5 146,-169.5 "/>
<text text-anchor="middle" x="197" y="-147.8" font-family="Times,serif" font-size="14.00">data 4.0000</text>
<polyline fill="none" stroke="black" points="248,-133.5 248,-169.5 "/>
<text text-anchor="middle" x="300" y="-147.8" font-family="Times,serif" font-size="14.00">grad 0.1612</text>
</g>
<!-- 140626157073648&#45;&gt;140625756889168* -->
<g id="edge13" class="edge">
<title>140626157073648&#45;&gt;140625756889168*</title>
<path fill="none" stroke="black" d="M332.99,-169.54C346.96,-172.41 360.82,-175.71 374,-179.5 384.69,-182.57 395.96,-187.07 405.91,-191.51"/>
<polygon fill="black" stroke="black" points="404.44,-194.69 414.99,-195.71 407.38,-188.34 404.44,-194.69"/>
</g>
<!-- 140626157073648&#45;&gt;140625756892528* -->
<g id="edge24" class="edge">
<title>140626157073648&#45;&gt;140625756892528*</title>
<path fill="none" stroke="black" d="M332.99,-133.46C346.96,-130.59 360.82,-127.29 374,-123.5 384.69,-120.43 395.96,-115.93 405.91,-111.49"/>
<polygon fill="black" stroke="black" points="407.38,-114.66 414.99,-107.29 404.44,-108.31 407.38,-114.66"/>
</g>
<!-- 140625757232368 -->
<g id="node16" class="node">
<title>140625757232368</title>
<polygon fill="none" stroke="black" points="988,-195.5 988,-231.5 1357,-231.5 1357,-195.5 988,-195.5"/>
<text text-anchor="middle" x="1014" y="-209.8" font-family="Times,serif" font-size="14.00">v005</text>
<polyline fill="none" stroke="black" points="1040,-195.5 1040,-231.5 "/>
<text text-anchor="middle" x="1057.5" y="-209.8" font-family="Times,serif" font-size="14.00">L2</text>
<polyline fill="none" stroke="black" points="1075,-195.5 1075,-231.5 "/>
<text text-anchor="middle" x="1094" y="-209.8" font-family="Times,serif" font-size="14.00">N1</text>
<polyline fill="none" stroke="black" points="1113,-195.5 1113,-231.5 "/>
<text text-anchor="middle" x="1132" y="-209.8" font-family="Times,serif" font-size="14.00">w1</text>
<polyline fill="none" stroke="black" points="1151,-195.5 1151,-231.5 "/>
<text text-anchor="middle" x="1202" y="-209.8" font-family="Times,serif" font-size="14.00">data 0.3723</text>
<polyline fill="none" stroke="black" points="1253,-195.5 1253,-231.5 "/>
<text text-anchor="middle" x="1305" y="-209.8" font-family="Times,serif" font-size="14.00">grad 1.0650</text>
</g>
<!-- 140625757232368&#45;&gt;140625756888736* -->
<g id="edge22" class="edge">
<title>140625757232368&#45;&gt;140625756888736*</title>
<path fill="none" stroke="black" d="M1304.52,-195.46C1322.19,-192.67 1340.06,-189.65 1357,-186.5 1365.89,-184.84 1375.44,-182.82 1384.32,-180.82"/>
<polygon fill="black" stroke="black" points="1385.39,-184.17 1394.35,-178.52 1383.82,-177.34 1385.39,-184.17"/>
</g>
<!-- 140625756889936 -->
<g id="node17" class="node">
<title>140625756889936</title>
<polygon fill="none" stroke="black" points="994.5,-55.5 994.5,-91.5 1350.5,-91.5 1350.5,-55.5 994.5,-55.5"/>
<text text-anchor="middle" x="1020.5" y="-69.8" font-family="Times,serif" font-size="14.00">v031</text>
<polyline fill="none" stroke="black" points="1046.5,-55.5 1046.5,-91.5 "/>
<text text-anchor="middle" x="1064" y="-69.8" font-family="Times,serif" font-size="14.00">L1</text>
<polyline fill="none" stroke="black" points="1081.5,-55.5 1081.5,-91.5 "/>
<text text-anchor="middle" x="1100.5" y="-69.8" font-family="Times,serif" font-size="14.00">N2</text>
<polyline fill="none" stroke="black" points="1119.5,-55.5 1119.5,-91.5 "/>
<text text-anchor="middle" x="1132" y="-69.8" font-family="Times,serif" font-size="14.00">a</text>
<polyline fill="none" stroke="black" points="1144.5,-55.5 1144.5,-91.5 "/>
<text text-anchor="middle" x="1195.5" y="-69.8" font-family="Times,serif" font-size="14.00">data 0.0450</text>
<polyline fill="none" stroke="black" points="1246.5,-55.5 1246.5,-91.5 "/>
<text text-anchor="middle" x="1298.5" y="-69.8" font-family="Times,serif" font-size="14.00">grad 1.0510</text>
</g>
<!-- 140625756889936&#45;&gt;140625756893344* -->
<g id="edge17" class="edge">
<title>140625756889936&#45;&gt;140625756893344*</title>
<path fill="none" stroke="black" d="M1350.61,-68.45C1362.37,-68.11 1373.29,-67.8 1382.8,-67.53"/>
<polygon fill="black" stroke="black" points="1383.02,-71.03 1392.91,-67.24 1382.82,-64.03 1383.02,-71.03"/>
</g>
<!-- 140625756889936+&#45;&gt;140625756889936 -->
<g id="edge6" class="edge">
<title>140625756889936+&#45;&gt;140625756889936</title>
<path fill="none" stroke="black" d="M952.27,-73.5C961.26,-73.5 972.11,-73.5 984.12,-73.5"/>
<polygon fill="black" stroke="black" points="984.46,-77 994.46,-73.5 984.46,-70 984.46,-77"/>
</g>
<!-- 140625756892528 -->
<g id="node19" class="node">
<title>140625756892528</title>
<polygon fill="none" stroke="black" points="520.5,-78.5 520.5,-114.5 841.5,-114.5 841.5,-78.5 520.5,-78.5"/>
<text text-anchor="middle" x="546.5" y="-92.8" font-family="Times,serif" font-size="14.00">v030</text>
<polyline fill="none" stroke="black" points="572.5,-78.5 572.5,-114.5 "/>
<text text-anchor="middle" x="583" y="-92.8" font-family="Times,serif" font-size="14.00"> </text>
<polyline fill="none" stroke="black" points="593.5,-78.5 593.5,-114.5 "/>
<text text-anchor="middle" x="604" y="-92.8" font-family="Times,serif" font-size="14.00"> </text>
<polyline fill="none" stroke="black" points="614.5,-78.5 614.5,-114.5 "/>
<text text-anchor="middle" x="625" y="-92.8" font-family="Times,serif" font-size="14.00"> </text>
<polyline fill="none" stroke="black" points="635.5,-78.5 635.5,-114.5 "/>
<text text-anchor="middle" x="686.5" y="-92.8" font-family="Times,serif" font-size="14.00">data 0.1600</text>
<polyline fill="none" stroke="black" points="737.5,-78.5 737.5,-114.5 "/>
<text text-anchor="middle" x="789.5" y="-92.8" font-family="Times,serif" font-size="14.00">grad 1.0510</text>
</g>
<!-- 140625756892528&#45;&gt;140625756889936+ -->
<g id="edge12" class="edge">
<title>140625756892528&#45;&gt;140625756889936+</title>
<path fill="none" stroke="black" d="M841.73,-81.32C858.85,-79.69 874.82,-78.17 888.04,-76.92"/>
<polygon fill="black" stroke="black" points="888.4,-80.4 898.03,-75.97 887.74,-73.43 888.4,-80.4"/>
</g>
<!-- 140625756892528*&#45;&gt;140625756892528 -->
<g id="edge7" class="edge">
<title>140625756892528*&#45;&gt;140625756892528</title>
<path fill="none" stroke="black" d="M464.36,-96.5C476.7,-96.5 492.53,-96.5 510,-96.5"/>
<polygon fill="black" stroke="black" points="510.46,-100 520.46,-96.5 510.46,-93 510.46,-100"/>
</g>
<!-- 140625757226464 -->
<g id="node21" class="node">
<title>140625757226464</title>
<polygon fill="none" stroke="black" points="988,-0.5 988,-36.5 1357,-36.5 1357,-0.5 988,-0.5"/>
<text text-anchor="middle" x="1014" y="-14.8" font-family="Times,serif" font-size="14.00">v006</text>
<polyline fill="none" stroke="black" points="1040,-0.5 1040,-36.5 "/>
<text text-anchor="middle" x="1057.5" y="-14.8" font-family="Times,serif" font-size="14.00">L2</text>
<polyline fill="none" stroke="black" points="1075,-0.5 1075,-36.5 "/>
<text text-anchor="middle" x="1094" y="-14.8" font-family="Times,serif" font-size="14.00">N1</text>
<polyline fill="none" stroke="black" points="1113,-0.5 1113,-36.5 "/>
<text text-anchor="middle" x="1132" y="-14.8" font-family="Times,serif" font-size="14.00">w2</text>
<polyline fill="none" stroke="black" points="1151,-0.5 1151,-36.5 "/>
<text text-anchor="middle" x="1202" y="-14.8" font-family="Times,serif" font-size="14.00">data 1.0488</text>
<polyline fill="none" stroke="black" points="1253,-0.5 1253,-36.5 "/>
<text text-anchor="middle" x="1305" y="-14.8" font-family="Times,serif" font-size="14.00">grad 0.0450</text>
</g>
<!-- 140625757226464&#45;&gt;140625756893344* -->
<g id="edge21" class="edge">
<title>140625757226464&#45;&gt;140625756893344*</title>
<path fill="none" stroke="black" d="M1314.26,-36.56C1328.77,-39.21 1343.23,-42.18 1357,-45.5 1366.84,-47.87 1377.34,-51.13 1386.84,-54.38"/>
<polygon fill="black" stroke="black" points="1385.73,-57.7 1396.32,-57.72 1388.06,-51.1 1385.73,-57.7"/>
</g>
<!-- 140625756894112 -->
<g id="node22" class="node">
<title>140625756894112</title>
<polygon fill="none" stroke="black" points="994.5,-140.5 994.5,-176.5 1350.5,-176.5 1350.5,-140.5 994.5,-140.5"/>
<text text-anchor="middle" x="1020.5" y="-154.8" font-family="Times,serif" font-size="14.00">v029</text>
<polyline fill="none" stroke="black" points="1046.5,-140.5 1046.5,-176.5 "/>
<text text-anchor="middle" x="1064" y="-154.8" font-family="Times,serif" font-size="14.00">L1</text>
<polyline fill="none" stroke="black" points="1081.5,-140.5 1081.5,-176.5 "/>
<text text-anchor="middle" x="1100.5" y="-154.8" font-family="Times,serif" font-size="14.00">N1</text>
<polyline fill="none" stroke="black" points="1119.5,-140.5 1119.5,-176.5 "/>
<text text-anchor="middle" x="1132" y="-154.8" font-family="Times,serif" font-size="14.00">a</text>
<polyline fill="none" stroke="black" points="1144.5,-140.5 1144.5,-176.5 "/>
<text text-anchor="middle" x="1195.5" y="-154.8" font-family="Times,serif" font-size="14.00">data 1.0650</text>
<polyline fill="none" stroke="black" points="1246.5,-140.5 1246.5,-176.5 "/>
<text text-anchor="middle" x="1298.5" y="-154.8" font-family="Times,serif" font-size="14.00">grad 0.4255</text>
</g>
<!-- 140625756894112&#45;&gt;140625756888736* -->
<g id="edge16" class="edge">
<title>140625756894112&#45;&gt;140625756888736*</title>
<path fill="none" stroke="black" d="M1350.61,-168.6C1362.37,-169.27 1373.29,-169.89 1382.8,-170.44"/>
<polygon fill="black" stroke="black" points="1382.73,-173.94 1392.91,-171.01 1383.13,-166.95 1382.73,-173.94"/>
</g>
<!-- 140625756894112+&#45;&gt;140625756894112 -->
<g id="edge8" class="edge">
<title>140625756894112+&#45;&gt;140625756894112</title>
<path fill="none" stroke="black" d="M952.27,-158.5C961.26,-158.5 972.11,-158.5 984.12,-158.5"/>
<polygon fill="black" stroke="black" points="984.46,-162 994.46,-158.5 984.46,-155 984.46,-162"/>
</g>
<!-- 140625757226416 -->
<g id="node24" class="node">
<title>140625757226416</title>
<polygon fill="none" stroke="black" points="1483,-99.5 1483,-135.5 1845,-135.5 1845,-99.5 1483,-99.5"/>
<text text-anchor="middle" x="1509" y="-113.8" font-family="Times,serif" font-size="14.00">v007</text>
<polyline fill="none" stroke="black" points="1535,-99.5 1535,-135.5 "/>
<text text-anchor="middle" x="1552.5" y="-113.8" font-family="Times,serif" font-size="14.00">L2</text>
<polyline fill="none" stroke="black" points="1570,-99.5 1570,-135.5 "/>
<text text-anchor="middle" x="1589" y="-113.8" font-family="Times,serif" font-size="14.00">N1</text>
<polyline fill="none" stroke="black" points="1608,-99.5 1608,-135.5 "/>
<text text-anchor="middle" x="1621" y="-113.8" font-family="Times,serif" font-size="14.00">b</text>
<polyline fill="none" stroke="black" points="1634,-99.5 1634,-135.5 "/>
<text text-anchor="middle" x="1687.5" y="-113.8" font-family="Times,serif" font-size="14.00">data &#45;0.1500</text>
<polyline fill="none" stroke="black" points="1741,-99.5 1741,-135.5 "/>
<text text-anchor="middle" x="1793" y="-113.8" font-family="Times,serif" font-size="14.00">grad 1.0000</text>
</g>
<!-- 140625757226416&#45;&gt;140625756895888+ -->
<g id="edge19" class="edge">
<title>140625757226416&#45;&gt;140625756895888+</title>
<path fill="none" stroke="black" d="M1845.05,-119.42C1905.18,-120.06 1966.37,-120.71 2003.88,-121.11"/>
<polygon fill="black" stroke="black" points="2004.24,-124.61 2014.27,-121.22 2004.31,-117.61 2004.24,-124.61"/>
</g>
<!-- 140625756885472 -->
<g id="node25" class="node">
<title>140625756885472</title>
<polygon fill="none" stroke="black" points="2685,-75.5 2685,-111.5 3041,-111.5 3041,-75.5 2685,-75.5"/>
<text text-anchor="middle" x="2711" y="-89.8" font-family="Times,serif" font-size="14.00">v035</text>
<polyline fill="none" stroke="black" points="2737,-75.5 2737,-111.5 "/>
<text text-anchor="middle" x="2754.5" y="-89.8" font-family="Times,serif" font-size="14.00">L2</text>
<polyline fill="none" stroke="black" points="2772,-75.5 2772,-111.5 "/>
<text text-anchor="middle" x="2791" y="-89.8" font-family="Times,serif" font-size="14.00">N1</text>
<polyline fill="none" stroke="black" points="2810,-75.5 2810,-111.5 "/>
<text text-anchor="middle" x="2822.5" y="-89.8" font-family="Times,serif" font-size="14.00">a</text>
<polyline fill="none" stroke="black" points="2835,-75.5 2835,-111.5 "/>
<text text-anchor="middle" x="2886" y="-89.8" font-family="Times,serif" font-size="14.00">data 0.4005</text>
<polyline fill="none" stroke="black" points="2937,-75.5 2937,-111.5 "/>
<text text-anchor="middle" x="2989" y="-89.8" font-family="Times,serif" font-size="14.00">grad 1.0000</text>
</g>
<!-- 140625756885472&#45;&gt;140625756894736* -->
<g id="edge10" class="edge">
<title>140625756885472&#45;&gt;140625756894736*</title>
<path fill="none" stroke="black" d="M3041.14,-93.5C3050.34,-93.5 3058.94,-93.5 3066.63,-93.5"/>
<polygon fill="black" stroke="black" points="3066.86,-97 3076.86,-93.5 3066.86,-90 3066.86,-97"/>
</g>
<!-- 140625756885472+&#45;&gt;140625756885472 -->
<g id="edge9" class="edge">
<title>140625756885472+&#45;&gt;140625756885472</title>
<path fill="none" stroke="black" d="M2649.03,-93.5C2656.4,-93.5 2665.02,-93.5 2674.49,-93.5"/>
<polygon fill="black" stroke="black" points="2674.66,-97 2684.66,-93.5 2674.66,-90 2674.66,-97"/>
</g>
</g>
</svg>
