<?xml version="1.0" encoding="UTF-8" standalone="no"?>
<!DOCTYPE svg PUBLIC "-//W3C//DTD SVG 1.1//EN"
 "http://www.w3.org/Graphics/SVG/1.1/DTD/svg11.dtd">
<!-- Generated by graphviz version 2.43.0 (0)
 -->
<!-- Title: %3 Pages: 1 -->
<svg width="3064pt" height="240pt"
 viewBox="0.00 0.00 3064.00 240.00" xmlns="http://www.w3.org/2000/svg" xmlns:xlink="http://www.w3.org/1999/xlink">
<g id="graph0" class="graph" transform="scale(1 1) rotate(0) translate(4 236)">
<title>%3</title>
<polygon fill="white" stroke="transparent" points="-4,4 -4,-236 3060,-236 3060,4 -4,4"/>
<!-- 139883124753408 -->
<g id="node1" class="node">
<title>139883124753408</title>
<polygon fill="none" stroke="black" points="2695,-75.5 2695,-111.5 3056,-111.5 3056,-75.5 2695,-75.5"/>
<text text-anchor="middle" x="2721" y="-89.8" font-family="Times,serif" font-size="14.00">v092</text>
<polyline fill="none" stroke="black" points="2747,-75.5 2747,-111.5 "/>
<text text-anchor="middle" x="2764.5" y="-89.8" font-family="Times,serif" font-size="14.00">L2</text>
<polyline fill="none" stroke="black" points="2782,-75.5 2782,-111.5 "/>
<text text-anchor="middle" x="2801" y="-89.8" font-family="Times,serif" font-size="14.00">N1</text>
<polyline fill="none" stroke="black" points="2820,-75.5 2820,-111.5 "/>
<text text-anchor="middle" x="2832.5" y="-89.8" font-family="Times,serif" font-size="14.00">a</text>
<polyline fill="none" stroke="black" points="2845,-75.5 2845,-111.5 "/>
<text text-anchor="middle" x="2898.5" y="-89.8" font-family="Times,serif" font-size="14.00">data &#45;3.3606</text>
<polyline fill="none" stroke="black" points="2952,-75.5 2952,-111.5 "/>
<text text-anchor="middle" x="3004" y="-89.8" font-family="Times,serif" font-size="14.00">grad 0.0000</text>
</g>
<!-- 139883124753408+ -->
<g id="node2" class="node">
<title>139883124753408+</title>
<ellipse fill="none" stroke="black" cx="2632" cy="-93.5" rx="27" ry="18"/>
<text text-anchor="middle" x="2632" y="-89.8" font-family="Times,serif" font-size="14.00">+</text>
</g>
<!-- 139883124753408+&#45;&gt;139883124753408 -->
<g id="edge1" class="edge">
<title>139883124753408+&#45;&gt;139883124753408</title>
<path fill="none" stroke="black" d="M2659.3,-93.5C2666.65,-93.5 2675.24,-93.5 2684.68,-93.5"/>
<polygon fill="black" stroke="black" points="2684.81,-97 2694.81,-93.5 2684.81,-90 2684.81,-97"/>
</g>
<!-- 139883124754464 -->
<g id="node3" class="node">
<title>139883124754464</title>
<polygon fill="none" stroke="black" points="1503.5,-154.5 1503.5,-190.5 1824.5,-190.5 1824.5,-154.5 1503.5,-154.5"/>
<text text-anchor="middle" x="1529.5" y="-168.8" font-family="Times,serif" font-size="14.00">v089</text>
<polyline fill="none" stroke="black" points="1555.5,-154.5 1555.5,-190.5 "/>
<text text-anchor="middle" x="1566" y="-168.8" font-family="Times,serif" font-size="14.00"> </text>
<polyline fill="none" stroke="black" points="1576.5,-154.5 1576.5,-190.5 "/>
<text text-anchor="middle" x="1587" y="-168.8" font-family="Times,serif" font-size="14.00"> </text>
<polyline fill="none" stroke="black" points="1597.5,-154.5 1597.5,-190.5 "/>
<text text-anchor="middle" x="1608" y="-168.8" font-family="Times,serif" font-size="14.00"> </text>
<polyline fill="none" stroke="black" points="1618.5,-154.5 1618.5,-190.5 "/>
<text text-anchor="middle" x="1669.5" y="-168.8" font-family="Times,serif" font-size="14.00">data 0.0319</text>
<polyline fill="none" stroke="black" points="1720.5,-154.5 1720.5,-190.5 "/>
<text text-anchor="middle" x="1772.5" y="-168.8" font-family="Times,serif" font-size="14.00">grad 0.0000</text>
</g>
<!-- 139883124754080+ -->
<g id="node12" class="node">
<title>139883124754080+</title>
<ellipse fill="none" stroke="black" cx="2044" cy="-121.5" rx="27" ry="18"/>
<text text-anchor="middle" x="2044" y="-117.8" font-family="Times,serif" font-size="14.00">+</text>
</g>
<!-- 139883124754464&#45;&gt;139883124754080+ -->
<g id="edge18" class="edge">
<title>139883124754464&#45;&gt;139883124754080+</title>
<path fill="none" stroke="black" d="M1798.53,-154.48C1872.81,-144.46 1959.61,-132.75 2007.22,-126.33"/>
<polygon fill="black" stroke="black" points="2007.89,-129.77 2017.33,-124.96 2006.95,-122.83 2007.89,-129.77"/>
</g>
<!-- 139883124754464* -->
<g id="node4" class="node">
<title>139883124754464*</title>
<ellipse fill="none" stroke="black" cx="1420" cy="-172.5" rx="27" ry="18"/>
<text text-anchor="middle" x="1420" y="-168.8" font-family="Times,serif" font-size="14.00">*</text>
</g>
<!-- 139883124754464*&#45;&gt;139883124754464 -->
<g id="edge2" class="edge">
<title>139883124754464*&#45;&gt;139883124754464</title>
<path fill="none" stroke="black" d="M1447.36,-172.5C1459.7,-172.5 1475.53,-172.5 1493,-172.5"/>
<polygon fill="black" stroke="black" points="1493.46,-176 1503.46,-172.5 1493.46,-169 1493.46,-176"/>
</g>
<!-- 139883734297632 -->
<g id="node5" class="node">
<title>139883734297632</title>
<polygon fill="none" stroke="black" points="500,-188.5 500,-224.5 862,-224.5 862,-188.5 500,-188.5"/>
<text text-anchor="middle" x="526" y="-202.8" font-family="Times,serif" font-size="14.00">v002</text>
<polyline fill="none" stroke="black" points="552,-188.5 552,-224.5 "/>
<text text-anchor="middle" x="569.5" y="-202.8" font-family="Times,serif" font-size="14.00">L1</text>
<polyline fill="none" stroke="black" points="587,-188.5 587,-224.5 "/>
<text text-anchor="middle" x="606" y="-202.8" font-family="Times,serif" font-size="14.00">N1</text>
<polyline fill="none" stroke="black" points="625,-188.5 625,-224.5 "/>
<text text-anchor="middle" x="638" y="-202.8" font-family="Times,serif" font-size="14.00">b</text>
<polyline fill="none" stroke="black" points="651,-188.5 651,-224.5 "/>
<text text-anchor="middle" x="704.5" y="-202.8" font-family="Times,serif" font-size="14.00">data &#45;0.1117</text>
<polyline fill="none" stroke="black" points="758,-188.5 758,-224.5 "/>
<text text-anchor="middle" x="810" y="-202.8" font-family="Times,serif" font-size="14.00">grad 0.0000</text>
</g>
<!-- 139883124752640+ -->
<g id="node14" class="node">
<title>139883124752640+</title>
<ellipse fill="none" stroke="black" cx="925" cy="-158.5" rx="27" ry="18"/>
<text text-anchor="middle" x="925" y="-154.8" font-family="Times,serif" font-size="14.00">+</text>
</g>
<!-- 139883734297632&#45;&gt;139883124752640+ -->
<g id="edge24" class="edge">
<title>139883734297632&#45;&gt;139883124752640+</title>
<path fill="none" stroke="black" d="M813.71,-188.47C830.05,-185.51 846.46,-182.19 862,-178.5 871.62,-176.22 881.89,-173.16 891.26,-170.13"/>
<polygon fill="black" stroke="black" points="892.61,-173.37 900.99,-166.88 890.39,-166.73 892.61,-173.37"/>
</g>
<!-- 139883124658752 -->
<g id="node6" class="node">
<title>139883124658752</title>
<polygon fill="none" stroke="black" points="988,-195.5 988,-231.5 1357,-231.5 1357,-195.5 988,-195.5"/>
<text text-anchor="middle" x="1014" y="-209.8" font-family="Times,serif" font-size="14.00">v005</text>
<polyline fill="none" stroke="black" points="1040,-195.5 1040,-231.5 "/>
<text text-anchor="middle" x="1057.5" y="-209.8" font-family="Times,serif" font-size="14.00">L2</text>
<polyline fill="none" stroke="black" points="1075,-195.5 1075,-231.5 "/>
<text text-anchor="middle" x="1094" y="-209.8" font-family="Times,serif" font-size="14.00">N1</text>
<polyline fill="none" stroke="black" points="1113,-195.5 1113,-231.5 "/>
<text text-anchor="middle" x="1132" y="-209.8" font-family="Times,serif" font-size="14.00">w1</text>
<polyline fill="none" stroke="black" points="1151,-195.5 1151,-231.5 "/>
<text text-anchor="middle" x="1202" y="-209.8" font-family="Times,serif" font-size="14.00">data 0.3177</text>
<polyline fill="none" stroke="black" points="1253,-195.5 1253,-231.5 "/>
<text text-anchor="middle" x="1305" y="-209.8" font-family="Times,serif" font-size="14.00">grad 0.0000</text>
</g>
<!-- 139883124658752&#45;&gt;139883124754464* -->
<g id="edge14" class="edge">
<title>139883124658752&#45;&gt;139883124754464*</title>
<path fill="none" stroke="black" d="M1298.03,-195.45C1317.79,-192.31 1337.97,-188.94 1357,-185.5 1365.79,-183.91 1375.24,-182.02 1384.05,-180.18"/>
<polygon fill="black" stroke="black" points="1384.97,-183.56 1394.02,-178.07 1383.51,-176.72 1384.97,-183.56"/>
</g>
<!-- 139883124755520 -->
<g id="node7" class="node">
<title>139883124755520</title>
<polygon fill="none" stroke="black" points="518,-78.5 518,-114.5 844,-114.5 844,-78.5 518,-78.5"/>
<text text-anchor="middle" x="544" y="-92.8" font-family="Times,serif" font-size="14.00">v087</text>
<polyline fill="none" stroke="black" points="570,-78.5 570,-114.5 "/>
<text text-anchor="middle" x="580.5" y="-92.8" font-family="Times,serif" font-size="14.00"> </text>
<polyline fill="none" stroke="black" points="591,-78.5 591,-114.5 "/>
<text text-anchor="middle" x="601.5" y="-92.8" font-family="Times,serif" font-size="14.00"> </text>
<polyline fill="none" stroke="black" points="612,-78.5 612,-114.5 "/>
<text text-anchor="middle" x="622.5" y="-92.8" font-family="Times,serif" font-size="14.00"> </text>
<polyline fill="none" stroke="black" points="633,-78.5 633,-114.5 "/>
<text text-anchor="middle" x="686.5" y="-92.8" font-family="Times,serif" font-size="14.00">data &#45;2.3927</text>
<polyline fill="none" stroke="black" points="740,-78.5 740,-114.5 "/>
<text text-anchor="middle" x="792" y="-92.8" font-family="Times,serif" font-size="14.00">grad 0.0000</text>
</g>
<!-- 139883124754224+ -->
<g id="node18" class="node">
<title>139883124754224+</title>
<ellipse fill="none" stroke="black" cx="925" cy="-73.5" rx="27" ry="18"/>
<text text-anchor="middle" x="925" y="-69.8" font-family="Times,serif" font-size="14.00">+</text>
</g>
<!-- 139883124755520&#45;&gt;139883124754224+ -->
<g id="edge11" class="edge">
<title>139883124755520&#45;&gt;139883124754224+</title>
<path fill="none" stroke="black" d="M844.09,-81.09C860.37,-79.55 875.52,-78.11 888.16,-76.91"/>
<polygon fill="black" stroke="black" points="888.53,-80.39 898.15,-75.96 887.87,-73.42 888.53,-80.39"/>
</g>
<!-- 139883124755520* -->
<g id="node8" class="node">
<title>139883124755520*</title>
<ellipse fill="none" stroke="black" cx="437" cy="-96.5" rx="27" ry="18"/>
<text text-anchor="middle" x="437" y="-92.8" font-family="Times,serif" font-size="14.00">*</text>
</g>
<!-- 139883124755520*&#45;&gt;139883124755520 -->
<g id="edge3" class="edge">
<title>139883124755520*&#45;&gt;139883124755520</title>
<path fill="none" stroke="black" d="M464.36,-96.5C476.08,-96.5 490.94,-96.5 507.37,-96.5"/>
<polygon fill="black" stroke="black" points="507.79,-100 517.79,-96.5 507.79,-93 507.79,-100"/>
</g>
<!-- 139883124753024 -->
<g id="node9" class="node">
<title>139883124753024</title>
<polygon fill="none" stroke="black" points="520.5,-133.5 520.5,-169.5 841.5,-169.5 841.5,-133.5 520.5,-133.5"/>
<text text-anchor="middle" x="546.5" y="-147.8" font-family="Times,serif" font-size="14.00">v085</text>
<polyline fill="none" stroke="black" points="572.5,-133.5 572.5,-169.5 "/>
<text text-anchor="middle" x="583" y="-147.8" font-family="Times,serif" font-size="14.00"> </text>
<polyline fill="none" stroke="black" points="593.5,-133.5 593.5,-169.5 "/>
<text text-anchor="middle" x="604" y="-147.8" font-family="Times,serif" font-size="14.00"> </text>
<polyline fill="none" stroke="black" points="614.5,-133.5 614.5,-169.5 "/>
<text text-anchor="middle" x="625" y="-147.8" font-family="Times,serif" font-size="14.00"> </text>
<polyline fill="none" stroke="black" points="635.5,-133.5 635.5,-169.5 "/>
<text text-anchor="middle" x="686.5" y="-147.8" font-family="Times,serif" font-size="14.00">data 0.2121</text>
<polyline fill="none" stroke="black" points="737.5,-133.5 737.5,-169.5 "/>
<text text-anchor="middle" x="789.5" y="-147.8" font-family="Times,serif" font-size="14.00">grad 0.0000</text>
</g>
<!-- 139883124753024&#45;&gt;139883124752640+ -->
<g id="edge22" class="edge">
<title>139883124753024&#45;&gt;139883124752640+</title>
<path fill="none" stroke="black" d="M841.73,-156.12C858.54,-156.61 874.24,-157.06 887.32,-157.44"/>
<polygon fill="black" stroke="black" points="887.57,-160.95 897.66,-157.74 887.77,-153.95 887.57,-160.95"/>
</g>
<!-- 139883124753024* -->
<g id="node10" class="node">
<title>139883124753024*</title>
<ellipse fill="none" stroke="black" cx="437" cy="-151.5" rx="27" ry="18"/>
<text text-anchor="middle" x="437" y="-147.8" font-family="Times,serif" font-size="14.00">*</text>
</g>
<!-- 139883124753024*&#45;&gt;139883124753024 -->
<g id="edge4" class="edge">
<title>139883124753024*&#45;&gt;139883124753024</title>
<path fill="none" stroke="black" d="M464.36,-151.5C476.7,-151.5 492.53,-151.5 510,-151.5"/>
<polygon fill="black" stroke="black" points="510.46,-155 520.46,-151.5 510.46,-148 510.46,-155"/>
</g>
<!-- 139883124754080 -->
<g id="node11" class="node">
<title>139883124754080</title>
<polygon fill="none" stroke="black" points="2243,-101.5 2243,-137.5 2569,-137.5 2569,-101.5 2243,-101.5"/>
<text text-anchor="middle" x="2269" y="-115.8" font-family="Times,serif" font-size="14.00">v090</text>
<polyline fill="none" stroke="black" points="2295,-101.5 2295,-137.5 "/>
<text text-anchor="middle" x="2305.5" y="-115.8" font-family="Times,serif" font-size="14.00"> </text>
<polyline fill="none" stroke="black" points="2316,-101.5 2316,-137.5 "/>
<text text-anchor="middle" x="2326.5" y="-115.8" font-family="Times,serif" font-size="14.00"> </text>
<polyline fill="none" stroke="black" points="2337,-101.5 2337,-137.5 "/>
<text text-anchor="middle" x="2347.5" y="-115.8" font-family="Times,serif" font-size="14.00"> </text>
<polyline fill="none" stroke="black" points="2358,-101.5 2358,-137.5 "/>
<text text-anchor="middle" x="2411.5" y="-115.8" font-family="Times,serif" font-size="14.00">data &#45;0.2181</text>
<polyline fill="none" stroke="black" points="2465,-101.5 2465,-137.5 "/>
<text text-anchor="middle" x="2517" y="-115.8" font-family="Times,serif" font-size="14.00">grad 0.0000</text>
</g>
<!-- 139883124754080&#45;&gt;139883124753408+ -->
<g id="edge12" class="edge">
<title>139883124754080&#45;&gt;139883124753408+</title>
<path fill="none" stroke="black" d="M2562.27,-101.48C2574.27,-100.09 2585.48,-98.78 2595.23,-97.65"/>
<polygon fill="black" stroke="black" points="2595.67,-101.12 2605.2,-96.49 2594.86,-94.17 2595.67,-101.12"/>
</g>
<!-- 139883124754080+&#45;&gt;139883124754080 -->
<g id="edge5" class="edge">
<title>139883124754080+&#45;&gt;139883124754080</title>
<path fill="none" stroke="black" d="M2071.18,-121.35C2105.81,-121.16 2169.83,-120.81 2232.62,-120.46"/>
<polygon fill="black" stroke="black" points="2232.7,-123.96 2242.68,-120.4 2232.66,-116.96 2232.7,-123.96"/>
</g>
<!-- 139883124752640 -->
<g id="node13" class="node">
<title>139883124752640</title>
<polygon fill="none" stroke="black" points="994.5,-140.5 994.5,-176.5 1350.5,-176.5 1350.5,-140.5 994.5,-140.5"/>
<text text-anchor="middle" x="1020.5" y="-154.8" font-family="Times,serif" font-size="14.00">v086</text>
<polyline fill="none" stroke="black" points="1046.5,-140.5 1046.5,-176.5 "/>
<text text-anchor="middle" x="1064" y="-154.8" font-family="Times,serif" font-size="14.00">L1</text>
<polyline fill="none" stroke="black" points="1081.5,-140.5 1081.5,-176.5 "/>
<text text-anchor="middle" x="1100.5" y="-154.8" font-family="Times,serif" font-size="14.00">N1</text>
<polyline fill="none" stroke="black" points="1119.5,-140.5 1119.5,-176.5 "/>
<text text-anchor="middle" x="1132" y="-154.8" font-family="Times,serif" font-size="14.00">a</text>
<polyline fill="none" stroke="black" points="1144.5,-140.5 1144.5,-176.5 "/>
<text text-anchor="middle" x="1195.5" y="-154.8" font-family="Times,serif" font-size="14.00">data 0.1004</text>
<polyline fill="none" stroke="black" points="1246.5,-140.5 1246.5,-176.5 "/>
<text text-anchor="middle" x="1298.5" y="-154.8" font-family="Times,serif" font-size="14.00">grad 0.0000</text>
</g>
<!-- 139883124752640&#45;&gt;139883124754464* -->
<g id="edge19" class="edge">
<title>139883124752640&#45;&gt;139883124754464*</title>
<path fill="none" stroke="black" d="M1350.61,-168.6C1362.37,-169.27 1373.29,-169.89 1382.8,-170.44"/>
<polygon fill="black" stroke="black" points="1382.73,-173.94 1392.91,-171.01 1383.13,-166.95 1382.73,-173.94"/>
</g>
<!-- 139883124752640+&#45;&gt;139883124752640 -->
<g id="edge6" class="edge">
<title>139883124752640+&#45;&gt;139883124752640</title>
<path fill="none" stroke="black" d="M952.27,-158.5C961.26,-158.5 972.11,-158.5 984.12,-158.5"/>
<polygon fill="black" stroke="black" points="984.46,-162 994.46,-158.5 984.46,-155 984.46,-162"/>
</g>
<!-- 139883124664080 -->
<g id="node15" class="node">
<title>139883124664080</title>
<polygon fill="none" stroke="black" points="1483,-99.5 1483,-135.5 1845,-135.5 1845,-99.5 1483,-99.5"/>
<text text-anchor="middle" x="1509" y="-113.8" font-family="Times,serif" font-size="14.00">v007</text>
<polyline fill="none" stroke="black" points="1535,-99.5 1535,-135.5 "/>
<text text-anchor="middle" x="1552.5" y="-113.8" font-family="Times,serif" font-size="14.00">L2</text>
<polyline fill="none" stroke="black" points="1570,-99.5 1570,-135.5 "/>
<text text-anchor="middle" x="1589" y="-113.8" font-family="Times,serif" font-size="14.00">N1</text>
<polyline fill="none" stroke="black" points="1608,-99.5 1608,-135.5 "/>
<text text-anchor="middle" x="1621" y="-113.8" font-family="Times,serif" font-size="14.00">b</text>
<polyline fill="none" stroke="black" points="1634,-99.5 1634,-135.5 "/>
<text text-anchor="middle" x="1687.5" y="-113.8" font-family="Times,serif" font-size="14.00">data &#45;0.2500</text>
<polyline fill="none" stroke="black" points="1741,-99.5 1741,-135.5 "/>
<text text-anchor="middle" x="1793" y="-113.8" font-family="Times,serif" font-size="14.00">grad 0.0000</text>
</g>
<!-- 139883124664080&#45;&gt;139883124754080+ -->
<g id="edge20" class="edge">
<title>139883124664080&#45;&gt;139883124754080+</title>
<path fill="none" stroke="black" d="M1845.14,-119.41C1906.32,-120.05 1968.75,-120.71 2006.69,-121.12"/>
<polygon fill="black" stroke="black" points="2006.68,-124.62 2016.72,-121.22 2006.76,-117.62 2006.68,-124.62"/>
</g>
<!-- 139883734292256 -->
<g id="node16" class="node">
<title>139883734292256</title>
<polygon fill="none" stroke="black" points="2.5,-161.5 2.5,-197.5 371.5,-197.5 371.5,-161.5 2.5,-161.5"/>
<text text-anchor="middle" x="28.5" y="-175.8" font-family="Times,serif" font-size="14.00">v001</text>
<polyline fill="none" stroke="black" points="54.5,-161.5 54.5,-197.5 "/>
<text text-anchor="middle" x="72" y="-175.8" font-family="Times,serif" font-size="14.00">L1</text>
<polyline fill="none" stroke="black" points="89.5,-161.5 89.5,-197.5 "/>
<text text-anchor="middle" x="108.5" y="-175.8" font-family="Times,serif" font-size="14.00">N1</text>
<polyline fill="none" stroke="black" points="127.5,-161.5 127.5,-197.5 "/>
<text text-anchor="middle" x="146.5" y="-175.8" font-family="Times,serif" font-size="14.00">w1</text>
<polyline fill="none" stroke="black" points="165.5,-161.5 165.5,-197.5 "/>
<text text-anchor="middle" x="216.5" y="-175.8" font-family="Times,serif" font-size="14.00">data 0.0530</text>
<polyline fill="none" stroke="black" points="267.5,-161.5 267.5,-197.5 "/>
<text text-anchor="middle" x="319.5" y="-175.8" font-family="Times,serif" font-size="14.00">grad 0.0000</text>
</g>
<!-- 139883734292256&#45;&gt;139883124753024* -->
<g id="edge16" class="edge">
<title>139883734292256&#45;&gt;139883124753024*</title>
<path fill="none" stroke="black" d="M347.52,-161.49C367.04,-159.29 385.28,-157.23 400.06,-155.56"/>
<polygon fill="black" stroke="black" points="400.64,-159.01 410.19,-154.41 399.86,-152.06 400.64,-159.01"/>
</g>
<!-- 139883124754224 -->
<g id="node17" class="node">
<title>139883124754224</title>
<polygon fill="none" stroke="black" points="992,-55.5 992,-91.5 1353,-91.5 1353,-55.5 992,-55.5"/>
<text text-anchor="middle" x="1018" y="-69.8" font-family="Times,serif" font-size="14.00">v088</text>
<polyline fill="none" stroke="black" points="1044,-55.5 1044,-91.5 "/>
<text text-anchor="middle" x="1061.5" y="-69.8" font-family="Times,serif" font-size="14.00">L1</text>
<polyline fill="none" stroke="black" points="1079,-55.5 1079,-91.5 "/>
<text text-anchor="middle" x="1098" y="-69.8" font-family="Times,serif" font-size="14.00">N2</text>
<polyline fill="none" stroke="black" points="1117,-55.5 1117,-91.5 "/>
<text text-anchor="middle" x="1129.5" y="-69.8" font-family="Times,serif" font-size="14.00">a</text>
<polyline fill="none" stroke="black" points="1142,-55.5 1142,-91.5 "/>
<text text-anchor="middle" x="1195.5" y="-69.8" font-family="Times,serif" font-size="14.00">data &#45;2.6673</text>
<polyline fill="none" stroke="black" points="1249,-55.5 1249,-91.5 "/>
<text text-anchor="middle" x="1301" y="-69.8" font-family="Times,serif" font-size="14.00">grad 0.0000</text>
</g>
<!-- 139883124753216* -->
<g id="node20" class="node">
<title>139883124753216*</title>
<ellipse fill="none" stroke="black" cx="1420" cy="-66.5" rx="27" ry="18"/>
<text text-anchor="middle" x="1420" y="-62.8" font-family="Times,serif" font-size="14.00">*</text>
</g>
<!-- 139883124754224&#45;&gt;139883124753216* -->
<g id="edge17" class="edge">
<title>139883124754224&#45;&gt;139883124753216*</title>
<path fill="none" stroke="black" d="M1353.21,-68.38C1363.92,-68.07 1373.88,-67.79 1382.65,-67.54"/>
<polygon fill="black" stroke="black" points="1382.83,-71.03 1392.73,-67.25 1382.64,-64.04 1382.83,-71.03"/>
</g>
<!-- 139883124754224+&#45;&gt;139883124754224 -->
<g id="edge7" class="edge">
<title>139883124754224+&#45;&gt;139883124754224</title>
<path fill="none" stroke="black" d="M952.27,-73.5C960.69,-73.5 970.75,-73.5 981.85,-73.5"/>
<polygon fill="black" stroke="black" points="981.87,-77 991.87,-73.5 981.87,-70 981.87,-77"/>
</g>
<!-- 139883124753216 -->
<g id="node19" class="node">
<title>139883124753216</title>
<polygon fill="none" stroke="black" points="1881,-48.5 1881,-84.5 2207,-84.5 2207,-48.5 1881,-48.5"/>
<text text-anchor="middle" x="1907" y="-62.8" font-family="Times,serif" font-size="14.00">v091</text>
<polyline fill="none" stroke="black" points="1933,-48.5 1933,-84.5 "/>
<text text-anchor="middle" x="1943.5" y="-62.8" font-family="Times,serif" font-size="14.00"> </text>
<polyline fill="none" stroke="black" points="1954,-48.5 1954,-84.5 "/>
<text text-anchor="middle" x="1964.5" y="-62.8" font-family="Times,serif" font-size="14.00"> </text>
<polyline fill="none" stroke="black" points="1975,-48.5 1975,-84.5 "/>
<text text-anchor="middle" x="1985.5" y="-62.8" font-family="Times,serif" font-size="14.00"> </text>
<polyline fill="none" stroke="black" points="1996,-48.5 1996,-84.5 "/>
<text text-anchor="middle" x="2049.5" y="-62.8" font-family="Times,serif" font-size="14.00">data &#45;3.1425</text>
<polyline fill="none" stroke="black" points="2103,-48.5 2103,-84.5 "/>
<text text-anchor="middle" x="2155" y="-62.8" font-family="Times,serif" font-size="14.00">grad 0.0000</text>
</g>
<!-- 139883124753216&#45;&gt;139883124753408+ -->
<g id="edge9" class="edge">
<title>139883124753216&#45;&gt;139883124753408+</title>
<path fill="none" stroke="black" d="M2207.07,-73.97C2340.09,-80.1 2518.44,-88.31 2594.34,-91.81"/>
<polygon fill="black" stroke="black" points="2594.62,-95.33 2604.77,-92.29 2594.95,-88.33 2594.62,-95.33"/>
</g>
<!-- 139883124753216*&#45;&gt;139883124753216 -->
<g id="edge8" class="edge">
<title>139883124753216*&#45;&gt;139883124753216</title>
<path fill="none" stroke="black" d="M1447.33,-66.5C1518.87,-66.5 1721.46,-66.5 1870.6,-66.5"/>
<polygon fill="black" stroke="black" points="1870.79,-70 1880.79,-66.5 1870.79,-63 1870.79,-70"/>
</g>
<!-- 139883735116112 -->
<g id="node21" class="node">
<title>139883735116112</title>
<polygon fill="none" stroke="black" points="22,-106.5 22,-142.5 352,-142.5 352,-106.5 22,-106.5"/>
<text text-anchor="middle" x="48" y="-120.8" font-family="Times,serif" font-size="14.00">v008</text>
<polyline fill="none" stroke="black" points="74,-106.5 74,-142.5 "/>
<text text-anchor="middle" x="84.5" y="-120.8" font-family="Times,serif" font-size="14.00"> </text>
<polyline fill="none" stroke="black" points="95,-106.5 95,-142.5 "/>
<text text-anchor="middle" x="105.5" y="-120.8" font-family="Times,serif" font-size="14.00"> </text>
<polyline fill="none" stroke="black" points="116,-106.5 116,-142.5 "/>
<text text-anchor="middle" x="131" y="-120.8" font-family="Times,serif" font-size="14.00">i1</text>
<polyline fill="none" stroke="black" points="146,-106.5 146,-142.5 "/>
<text text-anchor="middle" x="197" y="-120.8" font-family="Times,serif" font-size="14.00">data 4.0000</text>
<polyline fill="none" stroke="black" points="248,-106.5 248,-142.5 "/>
<text text-anchor="middle" x="300" y="-120.8" font-family="Times,serif" font-size="14.00">grad 0.0000</text>
</g>
<!-- 139883735116112&#45;&gt;139883124755520* -->
<g id="edge13" class="edge">
<title>139883735116112&#45;&gt;139883124755520*</title>
<path fill="none" stroke="black" d="M347.52,-106.49C367.04,-104.29 385.28,-102.23 400.06,-100.56"/>
<polygon fill="black" stroke="black" points="400.64,-104.01 410.19,-99.41 399.86,-97.06 400.64,-104.01"/>
</g>
<!-- 139883735116112&#45;&gt;139883124753024* -->
<g id="edge23" class="edge">
<title>139883735116112&#45;&gt;139883124753024*</title>
<path fill="none" stroke="black" d="M352.04,-142.36C369.81,-144.29 386.35,-146.09 399.97,-147.58"/>
<polygon fill="black" stroke="black" points="399.91,-151.09 410.23,-148.69 400.67,-144.13 399.91,-151.09"/>
</g>
<!-- 139883124658992 -->
<g id="node22" class="node">
<title>139883124658992</title>
<polygon fill="none" stroke="black" points="500,-23.5 500,-59.5 862,-59.5 862,-23.5 500,-23.5"/>
<text text-anchor="middle" x="526" y="-37.8" font-family="Times,serif" font-size="14.00">v004</text>
<polyline fill="none" stroke="black" points="552,-23.5 552,-59.5 "/>
<text text-anchor="middle" x="569.5" y="-37.8" font-family="Times,serif" font-size="14.00">L1</text>
<polyline fill="none" stroke="black" points="587,-23.5 587,-59.5 "/>
<text text-anchor="middle" x="606" y="-37.8" font-family="Times,serif" font-size="14.00">N2</text>
<polyline fill="none" stroke="black" points="625,-23.5 625,-59.5 "/>
<text text-anchor="middle" x="638" y="-37.8" font-family="Times,serif" font-size="14.00">b</text>
<polyline fill="none" stroke="black" points="651,-23.5 651,-59.5 "/>
<text text-anchor="middle" x="704.5" y="-37.8" font-family="Times,serif" font-size="14.00">data &#45;0.2745</text>
<polyline fill="none" stroke="black" points="758,-23.5 758,-59.5 "/>
<text text-anchor="middle" x="810" y="-37.8" font-family="Times,serif" font-size="14.00">grad 0.0000</text>
</g>
<!-- 139883124658992&#45;&gt;139883124754224+ -->
<g id="edge10" class="edge">
<title>139883124658992&#45;&gt;139883124754224+</title>
<path fill="none" stroke="black" d="M818.21,-59.51C844.14,-62.94 869.13,-66.24 888.3,-68.78"/>
<polygon fill="black" stroke="black" points="887.95,-72.26 898.33,-70.11 888.87,-65.32 887.95,-72.26"/>
</g>
<!-- 139883124659040 -->
<g id="node23" class="node">
<title>139883124659040</title>
<polygon fill="none" stroke="black" points="0,-51.5 0,-87.5 374,-87.5 374,-51.5 0,-51.5"/>
<text text-anchor="middle" x="26" y="-65.8" font-family="Times,serif" font-size="14.00">v003</text>
<polyline fill="none" stroke="black" points="52,-51.5 52,-87.5 "/>
<text text-anchor="middle" x="69.5" y="-65.8" font-family="Times,serif" font-size="14.00">L1</text>
<polyline fill="none" stroke="black" points="87,-51.5 87,-87.5 "/>
<text text-anchor="middle" x="106" y="-65.8" font-family="Times,serif" font-size="14.00">N2</text>
<polyline fill="none" stroke="black" points="125,-51.5 125,-87.5 "/>
<text text-anchor="middle" x="144" y="-65.8" font-family="Times,serif" font-size="14.00">w1</text>
<polyline fill="none" stroke="black" points="163,-51.5 163,-87.5 "/>
<text text-anchor="middle" x="216.5" y="-65.8" font-family="Times,serif" font-size="14.00">data &#45;0.5982</text>
<polyline fill="none" stroke="black" points="270,-51.5 270,-87.5 "/>
<text text-anchor="middle" x="322" y="-65.8" font-family="Times,serif" font-size="14.00">grad 0.0000</text>
</g>
<!-- 139883124659040&#45;&gt;139883124755520* -->
<g id="edge21" class="edge">
<title>139883124659040&#45;&gt;139883124755520*</title>
<path fill="none" stroke="black" d="M353.42,-87.51C370.67,-89.39 386.71,-91.13 399.97,-92.58"/>
<polygon fill="black" stroke="black" points="399.67,-96.07 409.99,-93.67 400.43,-89.11 399.67,-96.07"/>
</g>
<!-- 139883124664128 -->
<g id="node24" class="node">
<title>139883124664128</title>
<polygon fill="none" stroke="black" points="988,-0.5 988,-36.5 1357,-36.5 1357,-0.5 988,-0.5"/>
<text text-anchor="middle" x="1014" y="-14.8" font-family="Times,serif" font-size="14.00">v006</text>
<polyline fill="none" stroke="black" points="1040,-0.5 1040,-36.5 "/>
<text text-anchor="middle" x="1057.5" y="-14.8" font-family="Times,serif" font-size="14.00">L2</text>
<polyline fill="none" stroke="black" points="1075,-0.5 1075,-36.5 "/>
<text text-anchor="middle" x="1094" y="-14.8" font-family="Times,serif" font-size="14.00">N1</text>
<polyline fill="none" stroke="black" points="1113,-0.5 1113,-36.5 "/>
<text text-anchor="middle" x="1132" y="-14.8" font-family="Times,serif" font-size="14.00">w2</text>
<polyline fill="none" stroke="black" points="1151,-0.5 1151,-36.5 "/>
<text text-anchor="middle" x="1202" y="-14.8" font-family="Times,serif" font-size="14.00">data 1.1782</text>
<polyline fill="none" stroke="black" points="1253,-0.5 1253,-36.5 "/>
<text text-anchor="middle" x="1305" y="-14.8" font-family="Times,serif" font-size="14.00">grad 0.0000</text>
</g>
<!-- 139883124664128&#45;&gt;139883124753216* -->
<g id="edge15" class="edge">
<title>139883124664128&#45;&gt;139883124753216*</title>
<path fill="none" stroke="black" d="M1314.26,-36.56C1328.77,-39.21 1343.23,-42.18 1357,-45.5 1366.84,-47.87 1377.34,-51.13 1386.84,-54.38"/>
<polygon fill="black" stroke="black" points="1385.73,-57.7 1396.32,-57.72 1388.06,-51.1 1385.73,-57.7"/>
</g>
</g>
</svg>
