<?xml version="1.0" encoding="UTF-8" standalone="no"?>
<!DOCTYPE svg PUBLIC "-//W3C//DTD SVG 1.1//EN"
 "http://www.w3.org/Graphics/SVG/1.1/DTD/svg11.dtd">
<!-- Generated by graphviz version 2.43.0 (0)
 -->
<!-- Title: %3 Pages: 1 -->
<svg width="3044pt" height="238pt"
 viewBox="0.00 0.00 3044.00 238.00" xmlns="http://www.w3.org/2000/svg" xmlns:xlink="http://www.w3.org/1999/xlink">
<g id="graph0" class="graph" transform="scale(1 1) rotate(0) translate(4 234)">
<title>%3</title>
<polygon fill="white" stroke="transparent" points="-4,4 -4,-234 3040,-234 3040,4 -4,4"/>
<!-- 139883124667920 -->
<g id="node1" class="node">
<title>139883124667920</title>
<polygon fill="none" stroke="black" points="515.5,-28.5 515.5,-64.5 836.5,-64.5 836.5,-28.5 515.5,-28.5"/>
<text text-anchor="middle" x="541.5" y="-42.8" font-family="Times,serif" font-size="14.00">v040</text>
<polyline fill="none" stroke="black" points="567.5,-28.5 567.5,-64.5 "/>
<text text-anchor="middle" x="578" y="-42.8" font-family="Times,serif" font-size="14.00"> </text>
<polyline fill="none" stroke="black" points="588.5,-28.5 588.5,-64.5 "/>
<text text-anchor="middle" x="599" y="-42.8" font-family="Times,serif" font-size="14.00"> </text>
<polyline fill="none" stroke="black" points="609.5,-28.5 609.5,-64.5 "/>
<text text-anchor="middle" x="620" y="-42.8" font-family="Times,serif" font-size="14.00"> </text>
<polyline fill="none" stroke="black" points="630.5,-28.5 630.5,-64.5 "/>
<text text-anchor="middle" x="681.5" y="-42.8" font-family="Times,serif" font-size="14.00">data 1.1200</text>
<polyline fill="none" stroke="black" points="732.5,-28.5 732.5,-64.5 "/>
<text text-anchor="middle" x="784.5" y="-42.8" font-family="Times,serif" font-size="14.00">grad 0.0000</text>
</g>
<!-- 139883124660912+ -->
<g id="node10" class="node">
<title>139883124660912+</title>
<ellipse fill="none" stroke="black" cx="920" cy="-73.5" rx="27" ry="18"/>
<text text-anchor="middle" x="920" y="-69.8" font-family="Times,serif" font-size="14.00">+</text>
</g>
<!-- 139883124667920&#45;&gt;139883124660912+ -->
<g id="edge14" class="edge">
<title>139883124667920&#45;&gt;139883124660912+</title>
<path fill="none" stroke="black" d="M836.73,-64.32C853.85,-66.23 869.82,-68.01 883.04,-69.49"/>
<polygon fill="black" stroke="black" points="882.7,-72.97 893.03,-70.6 883.48,-66.01 882.7,-72.97"/>
</g>
<!-- 139883124667920* -->
<g id="node2" class="node">
<title>139883124667920*</title>
<ellipse fill="none" stroke="black" cx="432" cy="-46.5" rx="27" ry="18"/>
<text text-anchor="middle" x="432" y="-42.8" font-family="Times,serif" font-size="14.00">*</text>
</g>
<!-- 139883124667920*&#45;&gt;139883124667920 -->
<g id="edge1" class="edge">
<title>139883124667920*&#45;&gt;139883124667920</title>
<path fill="none" stroke="black" d="M459.36,-46.5C471.7,-46.5 487.53,-46.5 505,-46.5"/>
<polygon fill="black" stroke="black" points="505.46,-50 515.46,-46.5 505.46,-43 505.46,-50"/>
</g>
<!-- 139883734297632 -->
<g id="node3" class="node">
<title>139883734297632</title>
<polygon fill="none" stroke="black" points="495,-83.5 495,-119.5 857,-119.5 857,-83.5 495,-83.5"/>
<text text-anchor="middle" x="521" y="-97.8" font-family="Times,serif" font-size="14.00">v002</text>
<polyline fill="none" stroke="black" points="547,-83.5 547,-119.5 "/>
<text text-anchor="middle" x="564.5" y="-97.8" font-family="Times,serif" font-size="14.00">L1</text>
<polyline fill="none" stroke="black" points="582,-83.5 582,-119.5 "/>
<text text-anchor="middle" x="601" y="-97.8" font-family="Times,serif" font-size="14.00">N1</text>
<polyline fill="none" stroke="black" points="620,-83.5 620,-119.5 "/>
<text text-anchor="middle" x="633" y="-97.8" font-family="Times,serif" font-size="14.00">b</text>
<polyline fill="none" stroke="black" points="646,-83.5 646,-119.5 "/>
<text text-anchor="middle" x="699.5" y="-97.8" font-family="Times,serif" font-size="14.00">data &#45;0.0550</text>
<polyline fill="none" stroke="black" points="753,-83.5 753,-119.5 "/>
<text text-anchor="middle" x="805" y="-97.8" font-family="Times,serif" font-size="14.00">grad 0.5000</text>
</g>
<!-- 139883734297632&#45;&gt;139883124660912+ -->
<g id="edge18" class="edge">
<title>139883734297632&#45;&gt;139883124660912+</title>
<path fill="none" stroke="black" d="M832.66,-83.49C851.23,-81.34 868.61,-79.33 882.84,-77.68"/>
<polygon fill="black" stroke="black" points="883.54,-81.13 893.08,-76.5 882.74,-74.17 883.54,-81.13"/>
</g>
<!-- 139883124658752 -->
<g id="node4" class="node">
<title>139883124658752</title>
<polygon fill="none" stroke="black" points="983,-0.5 983,-36.5 1352,-36.5 1352,-0.5 983,-0.5"/>
<text text-anchor="middle" x="1009" y="-14.8" font-family="Times,serif" font-size="14.00">v005</text>
<polyline fill="none" stroke="black" points="1035,-0.5 1035,-36.5 "/>
<text text-anchor="middle" x="1052.5" y="-14.8" font-family="Times,serif" font-size="14.00">L2</text>
<polyline fill="none" stroke="black" points="1070,-0.5 1070,-36.5 "/>
<text text-anchor="middle" x="1089" y="-14.8" font-family="Times,serif" font-size="14.00">N1</text>
<polyline fill="none" stroke="black" points="1108,-0.5 1108,-36.5 "/>
<text text-anchor="middle" x="1127" y="-14.8" font-family="Times,serif" font-size="14.00">w1</text>
<polyline fill="none" stroke="black" points="1146,-0.5 1146,-36.5 "/>
<text text-anchor="middle" x="1197" y="-14.8" font-family="Times,serif" font-size="14.00">data 0.4255</text>
<polyline fill="none" stroke="black" points="1248,-0.5 1248,-36.5 "/>
<text text-anchor="middle" x="1300" y="-14.8" font-family="Times,serif" font-size="14.00">grad 1.4900</text>
</g>
<!-- 139883124668064* -->
<g id="node8" class="node">
<title>139883124668064*</title>
<ellipse fill="none" stroke="black" cx="1415" cy="-47.5" rx="27" ry="18"/>
<text text-anchor="middle" x="1415" y="-43.8" font-family="Times,serif" font-size="14.00">*</text>
</g>
<!-- 139883124658752&#45;&gt;139883124668064* -->
<g id="edge16" class="edge">
<title>139883124658752&#45;&gt;139883124668064*</title>
<path fill="none" stroke="black" d="M1321.19,-36.54C1342.26,-39.03 1362.08,-41.37 1377.95,-43.24"/>
<polygon fill="black" stroke="black" points="1377.93,-46.76 1388.27,-44.46 1378.75,-39.81 1377.93,-46.76"/>
</g>
<!-- 139883124659328 -->
<g id="node5" class="node">
<title>139883124659328</title>
<polygon fill="none" stroke="black" points="989.5,-165.5 989.5,-201.5 1345.5,-201.5 1345.5,-165.5 989.5,-165.5"/>
<text text-anchor="middle" x="1015.5" y="-179.8" font-family="Times,serif" font-size="14.00">v043</text>
<polyline fill="none" stroke="black" points="1041.5,-165.5 1041.5,-201.5 "/>
<text text-anchor="middle" x="1059" y="-179.8" font-family="Times,serif" font-size="14.00">L1</text>
<polyline fill="none" stroke="black" points="1076.5,-165.5 1076.5,-201.5 "/>
<text text-anchor="middle" x="1095.5" y="-179.8" font-family="Times,serif" font-size="14.00">N2</text>
<polyline fill="none" stroke="black" points="1114.5,-165.5 1114.5,-201.5 "/>
<text text-anchor="middle" x="1127" y="-179.8" font-family="Times,serif" font-size="14.00">a</text>
<polyline fill="none" stroke="black" points="1139.5,-165.5 1139.5,-201.5 "/>
<text text-anchor="middle" x="1190.5" y="-179.8" font-family="Times,serif" font-size="14.00">data 0.0450</text>
<polyline fill="none" stroke="black" points="1241.5,-165.5 1241.5,-201.5 "/>
<text text-anchor="middle" x="1293.5" y="-179.8" font-family="Times,serif" font-size="14.00">grad 0.0000</text>
</g>
<!-- 139883124661008* -->
<g id="node12" class="node">
<title>139883124661008*</title>
<ellipse fill="none" stroke="black" cx="1415" cy="-153.5" rx="27" ry="18"/>
<text text-anchor="middle" x="1415" y="-149.8" font-family="Times,serif" font-size="14.00">*</text>
</g>
<!-- 139883124659328&#45;&gt;139883124661008* -->
<g id="edge15" class="edge">
<title>139883124659328&#45;&gt;139883124661008*</title>
<path fill="none" stroke="black" d="M1315.91,-165.49C1339.02,-162.66 1360.91,-159.99 1378.13,-157.88"/>
<polygon fill="black" stroke="black" points="1378.71,-161.34 1388.21,-156.65 1377.86,-154.39 1378.71,-161.34"/>
</g>
<!-- 139883124659328+ -->
<g id="node6" class="node">
<title>139883124659328+</title>
<ellipse fill="none" stroke="black" cx="920" cy="-183.5" rx="27" ry="18"/>
<text text-anchor="middle" x="920" y="-179.8" font-family="Times,serif" font-size="14.00">+</text>
</g>
<!-- 139883124659328+&#45;&gt;139883124659328 -->
<g id="edge2" class="edge">
<title>139883124659328+&#45;&gt;139883124659328</title>
<path fill="none" stroke="black" d="M947.27,-183.5C956.26,-183.5 967.11,-183.5 979.12,-183.5"/>
<polygon fill="black" stroke="black" points="979.46,-187 989.46,-183.5 979.46,-180 979.46,-187"/>
</g>
<!-- 139883124668064 -->
<g id="node7" class="node">
<title>139883124668064</title>
<polygon fill="none" stroke="black" points="1498.5,-29.5 1498.5,-65.5 1819.5,-65.5 1819.5,-29.5 1498.5,-29.5"/>
<text text-anchor="middle" x="1524.5" y="-43.8" font-family="Times,serif" font-size="14.00">v044</text>
<polyline fill="none" stroke="black" points="1550.5,-29.5 1550.5,-65.5 "/>
<text text-anchor="middle" x="1561" y="-43.8" font-family="Times,serif" font-size="14.00"> </text>
<polyline fill="none" stroke="black" points="1571.5,-29.5 1571.5,-65.5 "/>
<text text-anchor="middle" x="1582" y="-43.8" font-family="Times,serif" font-size="14.00"> </text>
<polyline fill="none" stroke="black" points="1592.5,-29.5 1592.5,-65.5 "/>
<text text-anchor="middle" x="1603" y="-43.8" font-family="Times,serif" font-size="14.00"> </text>
<polyline fill="none" stroke="black" points="1613.5,-29.5 1613.5,-65.5 "/>
<text text-anchor="middle" x="1664.5" y="-43.8" font-family="Times,serif" font-size="14.00">data 0.4532</text>
<polyline fill="none" stroke="black" points="1715.5,-29.5 1715.5,-65.5 "/>
<text text-anchor="middle" x="1767.5" y="-43.8" font-family="Times,serif" font-size="14.00">grad 0.0000</text>
</g>
<!-- 139883124660720+ -->
<g id="node24" class="node">
<title>139883124660720+</title>
<ellipse fill="none" stroke="black" cx="2036.5" cy="-98.5" rx="27" ry="18"/>
<text text-anchor="middle" x="2036.5" y="-94.8" font-family="Times,serif" font-size="14.00">+</text>
</g>
<!-- 139883124668064&#45;&gt;139883124660720+ -->
<g id="edge22" class="edge">
<title>139883124668064&#45;&gt;139883124660720+</title>
<path fill="none" stroke="black" d="M1792.65,-65.52C1866.43,-75.54 1952.67,-87.25 1999.96,-93.67"/>
<polygon fill="black" stroke="black" points="1999.62,-97.16 2010,-95.04 2000.56,-90.22 1999.62,-97.16"/>
</g>
<!-- 139883124668064*&#45;&gt;139883124668064 -->
<g id="edge3" class="edge">
<title>139883124668064*&#45;&gt;139883124668064</title>
<path fill="none" stroke="black" d="M1442.36,-47.5C1454.7,-47.5 1470.53,-47.5 1488,-47.5"/>
<polygon fill="black" stroke="black" points="1488.46,-51 1498.46,-47.5 1488.46,-44 1488.46,-51"/>
</g>
<!-- 139883124660912 -->
<g id="node9" class="node">
<title>139883124660912</title>
<polygon fill="none" stroke="black" points="989.5,-55.5 989.5,-91.5 1345.5,-91.5 1345.5,-55.5 989.5,-55.5"/>
<text text-anchor="middle" x="1015.5" y="-69.8" font-family="Times,serif" font-size="14.00">v041</text>
<polyline fill="none" stroke="black" points="1041.5,-55.5 1041.5,-91.5 "/>
<text text-anchor="middle" x="1059" y="-69.8" font-family="Times,serif" font-size="14.00">L1</text>
<polyline fill="none" stroke="black" points="1076.5,-55.5 1076.5,-91.5 "/>
<text text-anchor="middle" x="1095.5" y="-69.8" font-family="Times,serif" font-size="14.00">N1</text>
<polyline fill="none" stroke="black" points="1114.5,-55.5 1114.5,-91.5 "/>
<text text-anchor="middle" x="1127" y="-69.8" font-family="Times,serif" font-size="14.00">a</text>
<polyline fill="none" stroke="black" points="1139.5,-55.5 1139.5,-91.5 "/>
<text text-anchor="middle" x="1190.5" y="-69.8" font-family="Times,serif" font-size="14.00">data 1.0650</text>
<polyline fill="none" stroke="black" points="1241.5,-55.5 1241.5,-91.5 "/>
<text text-anchor="middle" x="1293.5" y="-69.8" font-family="Times,serif" font-size="14.00">grad 0.0000</text>
</g>
<!-- 139883124660912&#45;&gt;139883124668064* -->
<g id="edge13" class="edge">
<title>139883124660912&#45;&gt;139883124668064*</title>
<path fill="none" stroke="black" d="M1338.67,-55.48C1353.11,-53.95 1366.52,-52.53 1377.9,-51.32"/>
<polygon fill="black" stroke="black" points="1378.58,-54.77 1388.15,-50.24 1377.84,-47.81 1378.58,-54.77"/>
</g>
<!-- 139883124660912+&#45;&gt;139883124660912 -->
<g id="edge4" class="edge">
<title>139883124660912+&#45;&gt;139883124660912</title>
<path fill="none" stroke="black" d="M947.27,-73.5C956.26,-73.5 967.11,-73.5 979.12,-73.5"/>
<polygon fill="black" stroke="black" points="979.46,-77 989.46,-73.5 979.46,-70 979.46,-77"/>
</g>
<!-- 139883124661008 -->
<g id="node11" class="node">
<title>139883124661008</title>
<polygon fill="none" stroke="black" points="1876,-135.5 1876,-171.5 2197,-171.5 2197,-135.5 1876,-135.5"/>
<text text-anchor="middle" x="1902" y="-149.8" font-family="Times,serif" font-size="14.00">v046</text>
<polyline fill="none" stroke="black" points="1928,-135.5 1928,-171.5 "/>
<text text-anchor="middle" x="1938.5" y="-149.8" font-family="Times,serif" font-size="14.00"> </text>
<polyline fill="none" stroke="black" points="1949,-135.5 1949,-171.5 "/>
<text text-anchor="middle" x="1959.5" y="-149.8" font-family="Times,serif" font-size="14.00"> </text>
<polyline fill="none" stroke="black" points="1970,-135.5 1970,-171.5 "/>
<text text-anchor="middle" x="1980.5" y="-149.8" font-family="Times,serif" font-size="14.00"> </text>
<polyline fill="none" stroke="black" points="1991,-135.5 1991,-171.5 "/>
<text text-anchor="middle" x="2042" y="-149.8" font-family="Times,serif" font-size="14.00">data 0.0473</text>
<polyline fill="none" stroke="black" points="2093,-135.5 2093,-171.5 "/>
<text text-anchor="middle" x="2145" y="-149.8" font-family="Times,serif" font-size="14.00">grad 0.0000</text>
</g>
<!-- 139883124661056+ -->
<g id="node16" class="node">
<title>139883124661056+</title>
<ellipse fill="none" stroke="black" cx="2617" cy="-125.5" rx="27" ry="18"/>
<text text-anchor="middle" x="2617" y="-121.8" font-family="Times,serif" font-size="14.00">+</text>
</g>
<!-- 139883124661008&#45;&gt;139883124661056+ -->
<g id="edge19" class="edge">
<title>139883124661008&#45;&gt;139883124661056+</title>
<path fill="none" stroke="black" d="M2197.25,-147.87C2299.34,-143.9 2434.52,-137.98 2554,-130.5 2562.43,-129.97 2571.49,-129.3 2580.02,-128.62"/>
<polygon fill="black" stroke="black" points="2580.39,-132.1 2590.07,-127.8 2579.82,-125.13 2580.39,-132.1"/>
</g>
<!-- 139883124661008*&#45;&gt;139883124661008 -->
<g id="edge5" class="edge">
<title>139883124661008*&#45;&gt;139883124661008</title>
<path fill="none" stroke="black" d="M1442.22,-153.5C1513.76,-153.5 1716.85,-153.5 1865.55,-153.5"/>
<polygon fill="black" stroke="black" points="1865.71,-157 1875.71,-153.5 1865.71,-150 1865.71,-157"/>
</g>
<!-- 139883124664080 -->
<g id="node13" class="node">
<title>139883124664080</title>
<polygon fill="none" stroke="black" points="1478,-84.5 1478,-120.5 1840,-120.5 1840,-84.5 1478,-84.5"/>
<text text-anchor="middle" x="1504" y="-98.8" font-family="Times,serif" font-size="14.00">v007</text>
<polyline fill="none" stroke="black" points="1530,-84.5 1530,-120.5 "/>
<text text-anchor="middle" x="1547.5" y="-98.8" font-family="Times,serif" font-size="14.00">L2</text>
<polyline fill="none" stroke="black" points="1565,-84.5 1565,-120.5 "/>
<text text-anchor="middle" x="1584" y="-98.8" font-family="Times,serif" font-size="14.00">N1</text>
<polyline fill="none" stroke="black" points="1603,-84.5 1603,-120.5 "/>
<text text-anchor="middle" x="1616" y="-98.8" font-family="Times,serif" font-size="14.00">b</text>
<polyline fill="none" stroke="black" points="1629,-84.5 1629,-120.5 "/>
<text text-anchor="middle" x="1682.5" y="-98.8" font-family="Times,serif" font-size="14.00">data &#45;0.1000</text>
<polyline fill="none" stroke="black" points="1736,-84.5 1736,-120.5 "/>
<text text-anchor="middle" x="1788" y="-98.8" font-family="Times,serif" font-size="14.00">grad 1.0000</text>
</g>
<!-- 139883124664080&#45;&gt;139883124660720+ -->
<g id="edge9" class="edge">
<title>139883124664080&#45;&gt;139883124660720+</title>
<path fill="none" stroke="black" d="M1840.05,-100.58C1900.18,-99.94 1961.37,-99.29 1998.88,-98.89"/>
<polygon fill="black" stroke="black" points="1999.31,-102.39 2009.27,-98.78 1999.24,-95.39 1999.31,-102.39"/>
</g>
<!-- 139883124658992 -->
<g id="node14" class="node">
<title>139883124658992</title>
<polygon fill="none" stroke="black" points="495,-193.5 495,-229.5 857,-229.5 857,-193.5 495,-193.5"/>
<text text-anchor="middle" x="521" y="-207.8" font-family="Times,serif" font-size="14.00">v004</text>
<polyline fill="none" stroke="black" points="547,-193.5 547,-229.5 "/>
<text text-anchor="middle" x="564.5" y="-207.8" font-family="Times,serif" font-size="14.00">L1</text>
<polyline fill="none" stroke="black" points="582,-193.5 582,-229.5 "/>
<text text-anchor="middle" x="601" y="-207.8" font-family="Times,serif" font-size="14.00">N2</text>
<polyline fill="none" stroke="black" points="620,-193.5 620,-229.5 "/>
<text text-anchor="middle" x="633" y="-207.8" font-family="Times,serif" font-size="14.00">b</text>
<polyline fill="none" stroke="black" points="646,-193.5 646,-229.5 "/>
<text text-anchor="middle" x="699.5" y="-207.8" font-family="Times,serif" font-size="14.00">data &#45;0.1150</text>
<polyline fill="none" stroke="black" points="753,-193.5 753,-229.5 "/>
<text text-anchor="middle" x="805" y="-207.8" font-family="Times,serif" font-size="14.00">grad 1.1000</text>
</g>
<!-- 139883124658992&#45;&gt;139883124659328+ -->
<g id="edge11" class="edge">
<title>139883124658992&#45;&gt;139883124659328+</title>
<path fill="none" stroke="black" d="M832.66,-193.49C851.23,-191.34 868.61,-189.33 882.84,-187.68"/>
<polygon fill="black" stroke="black" points="883.54,-191.13 893.08,-186.5 882.74,-184.17 883.54,-191.13"/>
</g>
<!-- 139883124661056 -->
<g id="node15" class="node">
<title>139883124661056</title>
<polygon fill="none" stroke="black" points="2680,-107.5 2680,-143.5 3036,-143.5 3036,-107.5 2680,-107.5"/>
<text text-anchor="middle" x="2706" y="-121.8" font-family="Times,serif" font-size="14.00">v047</text>
<polyline fill="none" stroke="black" points="2732,-107.5 2732,-143.5 "/>
<text text-anchor="middle" x="2749.5" y="-121.8" font-family="Times,serif" font-size="14.00">L2</text>
<polyline fill="none" stroke="black" points="2767,-107.5 2767,-143.5 "/>
<text text-anchor="middle" x="2786" y="-121.8" font-family="Times,serif" font-size="14.00">N1</text>
<polyline fill="none" stroke="black" points="2805,-107.5 2805,-143.5 "/>
<text text-anchor="middle" x="2817.5" y="-121.8" font-family="Times,serif" font-size="14.00">a</text>
<polyline fill="none" stroke="black" points="2830,-107.5 2830,-143.5 "/>
<text text-anchor="middle" x="2881" y="-121.8" font-family="Times,serif" font-size="14.00">data 0.4005</text>
<polyline fill="none" stroke="black" points="2932,-107.5 2932,-143.5 "/>
<text text-anchor="middle" x="2984" y="-121.8" font-family="Times,serif" font-size="14.00">grad 0.0000</text>
</g>
<!-- 139883124661056+&#45;&gt;139883124661056 -->
<g id="edge6" class="edge">
<title>139883124661056+&#45;&gt;139883124661056</title>
<path fill="none" stroke="black" d="M2644.03,-125.5C2651.4,-125.5 2660.02,-125.5 2669.49,-125.5"/>
<polygon fill="black" stroke="black" points="2669.66,-129 2679.66,-125.5 2669.66,-122 2669.66,-129"/>
</g>
<!-- 139883735116112 -->
<g id="node17" class="node">
<title>139883735116112</title>
<polygon fill="none" stroke="black" points="19.5,-83.5 19.5,-119.5 349.5,-119.5 349.5,-83.5 19.5,-83.5"/>
<text text-anchor="middle" x="45.5" y="-97.8" font-family="Times,serif" font-size="14.00">v008</text>
<polyline fill="none" stroke="black" points="71.5,-83.5 71.5,-119.5 "/>
<text text-anchor="middle" x="82" y="-97.8" font-family="Times,serif" font-size="14.00"> </text>
<polyline fill="none" stroke="black" points="92.5,-83.5 92.5,-119.5 "/>
<text text-anchor="middle" x="103" y="-97.8" font-family="Times,serif" font-size="14.00"> </text>
<polyline fill="none" stroke="black" points="113.5,-83.5 113.5,-119.5 "/>
<text text-anchor="middle" x="128.5" y="-97.8" font-family="Times,serif" font-size="14.00">i1</text>
<polyline fill="none" stroke="black" points="143.5,-83.5 143.5,-119.5 "/>
<text text-anchor="middle" x="194.5" y="-97.8" font-family="Times,serif" font-size="14.00">data 4.0000</text>
<polyline fill="none" stroke="black" points="245.5,-83.5 245.5,-119.5 "/>
<text text-anchor="middle" x="297.5" y="-97.8" font-family="Times,serif" font-size="14.00">grad 0.4760</text>
</g>
<!-- 139883735116112&#45;&gt;139883124667920* -->
<g id="edge21" class="edge">
<title>139883735116112&#45;&gt;139883124667920*</title>
<path fill="none" stroke="black" d="M333.02,-83.49C345.28,-80.88 357.41,-77.9 369,-74.5 379.82,-71.33 391.2,-66.63 401.21,-61.98"/>
<polygon fill="black" stroke="black" points="402.83,-65.08 410.32,-57.59 399.79,-58.77 402.83,-65.08"/>
</g>
<!-- 139883124662160* -->
<g id="node22" class="node">
<title>139883124662160*</title>
<ellipse fill="none" stroke="black" cx="432" cy="-156.5" rx="27" ry="18"/>
<text text-anchor="middle" x="432" y="-152.8" font-family="Times,serif" font-size="14.00">*</text>
</g>
<!-- 139883735116112&#45;&gt;139883124662160* -->
<g id="edge20" class="edge">
<title>139883735116112&#45;&gt;139883124662160*</title>
<path fill="none" stroke="black" d="M328.05,-119.51C341.99,-122.39 355.84,-125.7 369,-129.5 379.68,-132.58 390.95,-137.08 400.91,-141.53"/>
<polygon fill="black" stroke="black" points="399.44,-144.71 409.99,-145.72 402.38,-138.35 399.44,-144.71"/>
</g>
<!-- 139883124659040 -->
<g id="node18" class="node">
<title>139883124659040</title>
<polygon fill="none" stroke="black" points="0,-138.5 0,-174.5 369,-174.5 369,-138.5 0,-138.5"/>
<text text-anchor="middle" x="26" y="-152.8" font-family="Times,serif" font-size="14.00">v003</text>
<polyline fill="none" stroke="black" points="52,-138.5 52,-174.5 "/>
<text text-anchor="middle" x="69.5" y="-152.8" font-family="Times,serif" font-size="14.00">L1</text>
<polyline fill="none" stroke="black" points="87,-138.5 87,-174.5 "/>
<text text-anchor="middle" x="106" y="-152.8" font-family="Times,serif" font-size="14.00">N2</text>
<polyline fill="none" stroke="black" points="125,-138.5 125,-174.5 "/>
<text text-anchor="middle" x="144" y="-152.8" font-family="Times,serif" font-size="14.00">w1</text>
<polyline fill="none" stroke="black" points="163,-138.5 163,-174.5 "/>
<text text-anchor="middle" x="214" y="-152.8" font-family="Times,serif" font-size="14.00">data 0.0400</text>
<polyline fill="none" stroke="black" points="265,-138.5 265,-174.5 "/>
<text text-anchor="middle" x="317" y="-152.8" font-family="Times,serif" font-size="14.00">grad 4.4000</text>
</g>
<!-- 139883124659040&#45;&gt;139883124662160* -->
<g id="edge23" class="edge">
<title>139883124659040&#45;&gt;139883124662160*</title>
<path fill="none" stroke="black" d="M369.05,-156.5C378.29,-156.5 386.92,-156.5 394.62,-156.5"/>
<polygon fill="black" stroke="black" points="394.87,-160 404.87,-156.5 394.87,-153 394.87,-160"/>
</g>
<!-- 139883124664128 -->
<g id="node19" class="node">
<title>139883124664128</title>
<polygon fill="none" stroke="black" points="983,-110.5 983,-146.5 1352,-146.5 1352,-110.5 983,-110.5"/>
<text text-anchor="middle" x="1009" y="-124.8" font-family="Times,serif" font-size="14.00">v006</text>
<polyline fill="none" stroke="black" points="1035,-110.5 1035,-146.5 "/>
<text text-anchor="middle" x="1052.5" y="-124.8" font-family="Times,serif" font-size="14.00">L2</text>
<polyline fill="none" stroke="black" points="1070,-110.5 1070,-146.5 "/>
<text text-anchor="middle" x="1089" y="-124.8" font-family="Times,serif" font-size="14.00">N1</text>
<polyline fill="none" stroke="black" points="1108,-110.5 1108,-146.5 "/>
<text text-anchor="middle" x="1127" y="-124.8" font-family="Times,serif" font-size="14.00">w2</text>
<polyline fill="none" stroke="black" points="1146,-110.5 1146,-146.5 "/>
<text text-anchor="middle" x="1197" y="-124.8" font-family="Times,serif" font-size="14.00">data 1.0510</text>
<polyline fill="none" stroke="black" points="1248,-110.5 1248,-146.5 "/>
<text text-anchor="middle" x="1300" y="-124.8" font-family="Times,serif" font-size="14.00">grad 0.9800</text>
</g>
<!-- 139883124664128&#45;&gt;139883124661008* -->
<g id="edge12" class="edge">
<title>139883124664128&#45;&gt;139883124661008*</title>
<path fill="none" stroke="black" d="M1345.29,-146.5C1357.2,-147.72 1368.27,-148.84 1377.89,-149.82"/>
<polygon fill="black" stroke="black" points="1377.8,-153.33 1388.1,-150.86 1378.51,-146.37 1377.8,-153.33"/>
</g>
<!-- 139883734292256 -->
<g id="node20" class="node">
<title>139883734292256</title>
<polygon fill="none" stroke="black" points="0,-28.5 0,-64.5 369,-64.5 369,-28.5 0,-28.5"/>
<text text-anchor="middle" x="26" y="-42.8" font-family="Times,serif" font-size="14.00">v001</text>
<polyline fill="none" stroke="black" points="52,-28.5 52,-64.5 "/>
<text text-anchor="middle" x="69.5" y="-42.8" font-family="Times,serif" font-size="14.00">L1</text>
<polyline fill="none" stroke="black" points="87,-28.5 87,-64.5 "/>
<text text-anchor="middle" x="106" y="-42.8" font-family="Times,serif" font-size="14.00">N1</text>
<polyline fill="none" stroke="black" points="125,-28.5 125,-64.5 "/>
<text text-anchor="middle" x="144" y="-42.8" font-family="Times,serif" font-size="14.00">w1</text>
<polyline fill="none" stroke="black" points="163,-28.5 163,-64.5 "/>
<text text-anchor="middle" x="214" y="-42.8" font-family="Times,serif" font-size="14.00">data 0.2800</text>
<polyline fill="none" stroke="black" points="265,-28.5 265,-64.5 "/>
<text text-anchor="middle" x="317" y="-42.8" font-family="Times,serif" font-size="14.00">grad 2.0000</text>
</g>
<!-- 139883734292256&#45;&gt;139883124667920* -->
<g id="edge24" class="edge">
<title>139883734292256&#45;&gt;139883124667920*</title>
<path fill="none" stroke="black" d="M369.05,-46.5C378.29,-46.5 386.92,-46.5 394.62,-46.5"/>
<polygon fill="black" stroke="black" points="394.87,-50 404.87,-46.5 394.87,-43 394.87,-50"/>
</g>
<!-- 139883124662160 -->
<g id="node21" class="node">
<title>139883124662160</title>
<polygon fill="none" stroke="black" points="515.5,-138.5 515.5,-174.5 836.5,-174.5 836.5,-138.5 515.5,-138.5"/>
<text text-anchor="middle" x="541.5" y="-152.8" font-family="Times,serif" font-size="14.00">v042</text>
<polyline fill="none" stroke="black" points="567.5,-138.5 567.5,-174.5 "/>
<text text-anchor="middle" x="578" y="-152.8" font-family="Times,serif" font-size="14.00"> </text>
<polyline fill="none" stroke="black" points="588.5,-138.5 588.5,-174.5 "/>
<text text-anchor="middle" x="599" y="-152.8" font-family="Times,serif" font-size="14.00"> </text>
<polyline fill="none" stroke="black" points="609.5,-138.5 609.5,-174.5 "/>
<text text-anchor="middle" x="620" y="-152.8" font-family="Times,serif" font-size="14.00"> </text>
<polyline fill="none" stroke="black" points="630.5,-138.5 630.5,-174.5 "/>
<text text-anchor="middle" x="681.5" y="-152.8" font-family="Times,serif" font-size="14.00">data 0.1600</text>
<polyline fill="none" stroke="black" points="732.5,-138.5 732.5,-174.5 "/>
<text text-anchor="middle" x="784.5" y="-152.8" font-family="Times,serif" font-size="14.00">grad 0.0000</text>
</g>
<!-- 139883124662160&#45;&gt;139883124659328+ -->
<g id="edge10" class="edge">
<title>139883124662160&#45;&gt;139883124659328+</title>
<path fill="none" stroke="black" d="M836.73,-174.32C853.85,-176.23 869.82,-178.01 883.04,-179.49"/>
<polygon fill="black" stroke="black" points="882.7,-182.97 893.03,-180.6 883.48,-176.01 882.7,-182.97"/>
</g>
<!-- 139883124662160*&#45;&gt;139883124662160 -->
<g id="edge7" class="edge">
<title>139883124662160*&#45;&gt;139883124662160</title>
<path fill="none" stroke="black" d="M459.36,-156.5C471.7,-156.5 487.53,-156.5 505,-156.5"/>
<polygon fill="black" stroke="black" points="505.46,-160 515.46,-156.5 505.46,-153 505.46,-160"/>
</g>
<!-- 139883124660720 -->
<g id="node23" class="node">
<title>139883124660720</title>
<polygon fill="none" stroke="black" points="2233,-84.5 2233,-120.5 2554,-120.5 2554,-84.5 2233,-84.5"/>
<text text-anchor="middle" x="2259" y="-98.8" font-family="Times,serif" font-size="14.00">v045</text>
<polyline fill="none" stroke="black" points="2285,-84.5 2285,-120.5 "/>
<text text-anchor="middle" x="2295.5" y="-98.8" font-family="Times,serif" font-size="14.00"> </text>
<polyline fill="none" stroke="black" points="2306,-84.5 2306,-120.5 "/>
<text text-anchor="middle" x="2316.5" y="-98.8" font-family="Times,serif" font-size="14.00"> </text>
<polyline fill="none" stroke="black" points="2327,-84.5 2327,-120.5 "/>
<text text-anchor="middle" x="2337.5" y="-98.8" font-family="Times,serif" font-size="14.00"> </text>
<polyline fill="none" stroke="black" points="2348,-84.5 2348,-120.5 "/>
<text text-anchor="middle" x="2399" y="-98.8" font-family="Times,serif" font-size="14.00">data 0.3532</text>
<polyline fill="none" stroke="black" points="2450,-84.5 2450,-120.5 "/>
<text text-anchor="middle" x="2502" y="-98.8" font-family="Times,serif" font-size="14.00">grad 0.0000</text>
</g>
<!-- 139883124660720&#45;&gt;139883124661056+ -->
<g id="edge17" class="edge">
<title>139883124660720&#45;&gt;139883124661056+</title>
<path fill="none" stroke="black" d="M2554.01,-119.06C2563.42,-120.04 2572.26,-120.96 2580.13,-121.78"/>
<polygon fill="black" stroke="black" points="2579.95,-125.28 2590.26,-122.83 2580.67,-118.31 2579.95,-125.28"/>
</g>
<!-- 139883124660720+&#45;&gt;139883124660720 -->
<g id="edge8" class="edge">
<title>139883124660720+&#45;&gt;139883124660720</title>
<path fill="none" stroke="black" d="M2063.6,-98.79C2097.81,-99.18 2160.72,-99.89 2222.43,-100.58"/>
<polygon fill="black" stroke="black" points="2222.68,-104.09 2232.72,-100.7 2222.76,-97.09 2222.68,-104.09"/>
</g>
</g>
</svg>
