<?xml version="1.0" encoding="UTF-8" standalone="no"?>
<!DOCTYPE svg PUBLIC "-//W3C//DTD SVG 1.1//EN"
 "http://www.w3.org/Graphics/SVG/1.1/DTD/svg11.dtd">
<!-- Generated by graphviz version 2.43.0 (0)
 -->
<!-- Title: %3 Pages: 1 -->
<svg width="3516pt" height="238pt"
 viewBox="0.00 0.00 3516.00 238.00" xmlns="http://www.w3.org/2000/svg" xmlns:xlink="http://www.w3.org/1999/xlink">
<g id="graph0" class="graph" transform="scale(1 1) rotate(0) translate(4 234)">
<title>%3</title>
<polygon fill="white" stroke="transparent" points="-4,4 -4,-234 3512,-234 3512,4 -4,4"/>
<!-- 140260402425872 -->
<g id="node1" class="node">
<title>140260402425872</title>
<polygon fill="none" stroke="black" points="518,-69.5 518,-105.5 844,-105.5 844,-69.5 518,-69.5"/>
<text text-anchor="middle" x="544" y="-83.8" font-family="Times,serif" font-size="14.00">v021</text>
<polyline fill="none" stroke="black" points="570,-69.5 570,-105.5 "/>
<text text-anchor="middle" x="580.5" y="-83.8" font-family="Times,serif" font-size="14.00"> </text>
<polyline fill="none" stroke="black" points="591,-69.5 591,-105.5 "/>
<text text-anchor="middle" x="601.5" y="-83.8" font-family="Times,serif" font-size="14.00"> </text>
<polyline fill="none" stroke="black" points="612,-69.5 612,-105.5 "/>
<text text-anchor="middle" x="622.5" y="-83.8" font-family="Times,serif" font-size="14.00"> </text>
<polyline fill="none" stroke="black" points="633,-69.5 633,-105.5 "/>
<text text-anchor="middle" x="686.5" y="-83.8" font-family="Times,serif" font-size="14.00">data &#45;4.9120</text>
<polyline fill="none" stroke="black" points="740,-69.5 740,-105.5 "/>
<text text-anchor="middle" x="792" y="-83.8" font-family="Times,serif" font-size="14.00">grad 0.0000</text>
</g>
<!-- 140260402421936+ -->
<g id="node12" class="node">
<title>140260402421936+</title>
<ellipse fill="none" stroke="black" cx="925" cy="-73.5" rx="27" ry="18"/>
<text text-anchor="middle" x="925" y="-69.8" font-family="Times,serif" font-size="14.00">+</text>
</g>
<!-- 140260402425872&#45;&gt;140260402421936+ -->
<g id="edge12" class="edge">
<title>140260402425872&#45;&gt;140260402421936+</title>
<path fill="none" stroke="black" d="M844.09,-78.12C860.07,-77.2 874.97,-76.34 887.47,-75.61"/>
<polygon fill="black" stroke="black" points="888.02,-79.09 897.8,-75.02 887.61,-72.1 888.02,-79.09"/>
</g>
<!-- 140260402425872* -->
<g id="node2" class="node">
<title>140260402425872*</title>
<ellipse fill="none" stroke="black" cx="437" cy="-87.5" rx="27" ry="18"/>
<text text-anchor="middle" x="437" y="-83.8" font-family="Times,serif" font-size="14.00">*</text>
</g>
<!-- 140260402425872*&#45;&gt;140260402425872 -->
<g id="edge1" class="edge">
<title>140260402425872*&#45;&gt;140260402425872</title>
<path fill="none" stroke="black" d="M464.36,-87.5C476.08,-87.5 490.94,-87.5 507.37,-87.5"/>
<polygon fill="black" stroke="black" points="507.79,-91 517.79,-87.5 507.79,-84 507.79,-91"/>
</g>
<!-- 140260402428464 -->
<g id="node3" class="node">
<title>140260402428464</title>
<polygon fill="none" stroke="black" points="1508.5,-135.5 1508.5,-171.5 1829.5,-171.5 1829.5,-135.5 1508.5,-135.5"/>
<text text-anchor="middle" x="1534.5" y="-149.8" font-family="Times,serif" font-size="14.00">v023</text>
<polyline fill="none" stroke="black" points="1560.5,-135.5 1560.5,-171.5 "/>
<text text-anchor="middle" x="1571" y="-149.8" font-family="Times,serif" font-size="14.00"> </text>
<polyline fill="none" stroke="black" points="1581.5,-135.5 1581.5,-171.5 "/>
<text text-anchor="middle" x="1592" y="-149.8" font-family="Times,serif" font-size="14.00"> </text>
<polyline fill="none" stroke="black" points="1602.5,-135.5 1602.5,-171.5 "/>
<text text-anchor="middle" x="1613" y="-149.8" font-family="Times,serif" font-size="14.00"> </text>
<polyline fill="none" stroke="black" points="1623.5,-135.5 1623.5,-171.5 "/>
<text text-anchor="middle" x="1674.5" y="-149.8" font-family="Times,serif" font-size="14.00">data 0.2006</text>
<polyline fill="none" stroke="black" points="1725.5,-135.5 1725.5,-171.5 "/>
<text text-anchor="middle" x="1777.5" y="-149.8" font-family="Times,serif" font-size="14.00">grad 0.0000</text>
</g>
<!-- 140260402423568+ -->
<g id="node15" class="node">
<title>140260402423568+</title>
<ellipse fill="none" stroke="black" cx="2049" cy="-102.5" rx="27" ry="18"/>
<text text-anchor="middle" x="2049" y="-98.8" font-family="Times,serif" font-size="14.00">+</text>
</g>
<!-- 140260402428464&#45;&gt;140260402423568+ -->
<g id="edge11" class="edge">
<title>140260402428464&#45;&gt;140260402423568+</title>
<path fill="none" stroke="black" d="M1803.53,-135.48C1877.81,-125.46 1964.61,-113.75 2012.22,-107.33"/>
<polygon fill="black" stroke="black" points="2012.89,-110.77 2022.33,-105.96 2011.95,-103.83 2012.89,-110.77"/>
</g>
<!-- 140260402428464* -->
<g id="node4" class="node">
<title>140260402428464*</title>
<ellipse fill="none" stroke="black" cx="1425" cy="-153.5" rx="27" ry="18"/>
<text text-anchor="middle" x="1425" y="-149.8" font-family="Times,serif" font-size="14.00">*</text>
</g>
<!-- 140260402428464*&#45;&gt;140260402428464 -->
<g id="edge2" class="edge">
<title>140260402428464*&#45;&gt;140260402428464</title>
<path fill="none" stroke="black" d="M1452.36,-153.5C1464.7,-153.5 1480.53,-153.5 1498,-153.5"/>
<polygon fill="black" stroke="black" points="1498.46,-157 1508.46,-153.5 1498.46,-150 1498.46,-157"/>
</g>
<!-- 140260402427984 -->
<g id="node5" class="node">
<title>140260402427984</title>
<polygon fill="none" stroke="black" points="1886,-29.5 1886,-65.5 2212,-65.5 2212,-29.5 1886,-29.5"/>
<text text-anchor="middle" x="1912" y="-43.8" font-family="Times,serif" font-size="14.00">v025</text>
<polyline fill="none" stroke="black" points="1938,-29.5 1938,-65.5 "/>
<text text-anchor="middle" x="1948.5" y="-43.8" font-family="Times,serif" font-size="14.00"> </text>
<polyline fill="none" stroke="black" points="1959,-29.5 1959,-65.5 "/>
<text text-anchor="middle" x="1969.5" y="-43.8" font-family="Times,serif" font-size="14.00"> </text>
<polyline fill="none" stroke="black" points="1980,-29.5 1980,-65.5 "/>
<text text-anchor="middle" x="1990.5" y="-43.8" font-family="Times,serif" font-size="14.00"> </text>
<polyline fill="none" stroke="black" points="2001,-29.5 2001,-65.5 "/>
<text text-anchor="middle" x="2054.5" y="-43.8" font-family="Times,serif" font-size="14.00">data &#45;2.5651</text>
<polyline fill="none" stroke="black" points="2108,-29.5 2108,-65.5 "/>
<text text-anchor="middle" x="2160" y="-43.8" font-family="Times,serif" font-size="14.00">grad 0.0000</text>
</g>
<!-- 140260402428320+ -->
<g id="node21" class="node">
<title>140260402428320+</title>
<ellipse fill="none" stroke="black" cx="2637" cy="-74.5" rx="27" ry="18"/>
<text text-anchor="middle" x="2637" y="-70.8" font-family="Times,serif" font-size="14.00">+</text>
</g>
<!-- 140260402427984&#45;&gt;140260402428320+ -->
<g id="edge25" class="edge">
<title>140260402427984&#45;&gt;140260402428320+</title>
<path fill="none" stroke="black" d="M2212.07,-54.97C2345.09,-61.1 2523.44,-69.31 2599.34,-72.81"/>
<polygon fill="black" stroke="black" points="2599.62,-76.33 2609.77,-73.29 2599.95,-69.33 2599.62,-76.33"/>
</g>
<!-- 140260402427984* -->
<g id="node6" class="node">
<title>140260402427984*</title>
<ellipse fill="none" stroke="black" cx="1425" cy="-47.5" rx="27" ry="18"/>
<text text-anchor="middle" x="1425" y="-43.8" font-family="Times,serif" font-size="14.00">*</text>
</g>
<!-- 140260402427984*&#45;&gt;140260402427984 -->
<g id="edge3" class="edge">
<title>140260402427984*&#45;&gt;140260402427984</title>
<path fill="none" stroke="black" d="M1452.33,-47.5C1523.87,-47.5 1726.46,-47.5 1875.6,-47.5"/>
<polygon fill="black" stroke="black" points="1875.79,-51 1885.79,-47.5 1875.79,-44 1875.79,-51"/>
</g>
<!-- 140260402419344 -->
<g id="node7" class="node">
<title>140260402419344</title>
<polygon fill="none" stroke="black" points="990.5,-0.5 990.5,-36.5 1359.5,-36.5 1359.5,-0.5 990.5,-0.5"/>
<text text-anchor="middle" x="1016.5" y="-14.8" font-family="Times,serif" font-size="14.00">v006</text>
<polyline fill="none" stroke="black" points="1042.5,-0.5 1042.5,-36.5 "/>
<text text-anchor="middle" x="1060" y="-14.8" font-family="Times,serif" font-size="14.00">L2</text>
<polyline fill="none" stroke="black" points="1077.5,-0.5 1077.5,-36.5 "/>
<text text-anchor="middle" x="1096.5" y="-14.8" font-family="Times,serif" font-size="14.00">N1</text>
<polyline fill="none" stroke="black" points="1115.5,-0.5 1115.5,-36.5 "/>
<text text-anchor="middle" x="1134.5" y="-14.8" font-family="Times,serif" font-size="14.00">w2</text>
<polyline fill="none" stroke="black" points="1153.5,-0.5 1153.5,-36.5 "/>
<text text-anchor="middle" x="1204.5" y="-14.8" font-family="Times,serif" font-size="14.00">data 0.4800</text>
<polyline fill="none" stroke="black" points="1255.5,-0.5 1255.5,-36.5 "/>
<text text-anchor="middle" x="1307.5" y="-14.8" font-family="Times,serif" font-size="14.00">grad 0.0000</text>
</g>
<!-- 140260402419344&#45;&gt;140260402427984* -->
<g id="edge22" class="edge">
<title>140260402419344&#45;&gt;140260402427984*</title>
<path fill="none" stroke="black" d="M1330.24,-36.54C1351.74,-39.05 1371.94,-41.41 1388.05,-43.3"/>
<polygon fill="black" stroke="black" points="1387.67,-46.78 1398.01,-44.46 1388.49,-39.82 1387.67,-46.78"/>
</g>
<!-- 140260402422656 -->
<g id="node8" class="node">
<title>140260402422656</title>
<polygon fill="none" stroke="black" points="0,-69.5 0,-105.5 374,-105.5 374,-69.5 0,-69.5"/>
<text text-anchor="middle" x="26" y="-83.8" font-family="Times,serif" font-size="14.00">v003</text>
<polyline fill="none" stroke="black" points="52,-69.5 52,-105.5 "/>
<text text-anchor="middle" x="69.5" y="-83.8" font-family="Times,serif" font-size="14.00">L1</text>
<polyline fill="none" stroke="black" points="87,-69.5 87,-105.5 "/>
<text text-anchor="middle" x="106" y="-83.8" font-family="Times,serif" font-size="14.00">N2</text>
<polyline fill="none" stroke="black" points="125,-69.5 125,-105.5 "/>
<text text-anchor="middle" x="144" y="-83.8" font-family="Times,serif" font-size="14.00">w1</text>
<polyline fill="none" stroke="black" points="163,-69.5 163,-105.5 "/>
<text text-anchor="middle" x="216.5" y="-83.8" font-family="Times,serif" font-size="14.00">data &#45;1.2280</text>
<polyline fill="none" stroke="black" points="270,-69.5 270,-105.5 "/>
<text text-anchor="middle" x="322" y="-83.8" font-family="Times,serif" font-size="14.00">grad 0.0000</text>
</g>
<!-- 140260402422656&#45;&gt;140260402425872* -->
<g id="edge21" class="edge">
<title>140260402422656&#45;&gt;140260402425872*</title>
<path fill="none" stroke="black" d="M374.06,-87.5C383.31,-87.5 391.94,-87.5 399.65,-87.5"/>
<polygon fill="black" stroke="black" points="399.9,-91 409.9,-87.5 399.9,-84 399.9,-91"/>
</g>
<!-- 140260402426544 -->
<g id="node9" class="node">
<title>140260402426544</title>
<polygon fill="none" stroke="black" points="3187,-56.5 3187,-92.5 3508,-92.5 3508,-56.5 3187,-56.5"/>
<text text-anchor="middle" x="3213" y="-70.8" font-family="Times,serif" font-size="14.00">v027</text>
<polyline fill="none" stroke="black" points="3239,-56.5 3239,-92.5 "/>
<text text-anchor="middle" x="3249.5" y="-70.8" font-family="Times,serif" font-size="14.00"> </text>
<polyline fill="none" stroke="black" points="3260,-56.5 3260,-92.5 "/>
<text text-anchor="middle" x="3270.5" y="-70.8" font-family="Times,serif" font-size="14.00"> </text>
<polyline fill="none" stroke="black" points="3281,-56.5 3281,-92.5 "/>
<text text-anchor="middle" x="3291.5" y="-70.8" font-family="Times,serif" font-size="14.00">l</text>
<polyline fill="none" stroke="black" points="3302,-56.5 3302,-92.5 "/>
<text text-anchor="middle" x="3353" y="-70.8" font-family="Times,serif" font-size="14.00">data 7.4228</text>
<polyline fill="none" stroke="black" points="3404,-56.5 3404,-92.5 "/>
<text text-anchor="middle" x="3456" y="-70.8" font-family="Times,serif" font-size="14.00">grad 0.0000</text>
</g>
<!-- 140260402426544* -->
<g id="node10" class="node">
<title>140260402426544*</title>
<ellipse fill="none" stroke="black" cx="3124" cy="-74.5" rx="27" ry="18"/>
<text text-anchor="middle" x="3124" y="-70.8" font-family="Times,serif" font-size="14.00">*</text>
</g>
<!-- 140260402426544*&#45;&gt;140260402426544 -->
<g id="edge4" class="edge">
<title>140260402426544*&#45;&gt;140260402426544</title>
<path fill="none" stroke="black" d="M3151.28,-74.5C3158.68,-74.5 3167.32,-74.5 3176.76,-74.5"/>
<polygon fill="black" stroke="black" points="3176.88,-78 3186.88,-74.5 3176.88,-71 3176.88,-78"/>
</g>
<!-- 140260402421936 -->
<g id="node11" class="node">
<title>140260402421936</title>
<polygon fill="none" stroke="black" points="994.5,-55.5 994.5,-91.5 1355.5,-91.5 1355.5,-55.5 994.5,-55.5"/>
<text text-anchor="middle" x="1020.5" y="-69.8" font-family="Times,serif" font-size="14.00">v022</text>
<polyline fill="none" stroke="black" points="1046.5,-55.5 1046.5,-91.5 "/>
<text text-anchor="middle" x="1064" y="-69.8" font-family="Times,serif" font-size="14.00">L1</text>
<polyline fill="none" stroke="black" points="1081.5,-55.5 1081.5,-91.5 "/>
<text text-anchor="middle" x="1100.5" y="-69.8" font-family="Times,serif" font-size="14.00">N2</text>
<polyline fill="none" stroke="black" points="1119.5,-55.5 1119.5,-91.5 "/>
<text text-anchor="middle" x="1132" y="-69.8" font-family="Times,serif" font-size="14.00">a</text>
<polyline fill="none" stroke="black" points="1144.5,-55.5 1144.5,-91.5 "/>
<text text-anchor="middle" x="1198" y="-69.8" font-family="Times,serif" font-size="14.00">data &#45;5.3440</text>
<polyline fill="none" stroke="black" points="1251.5,-55.5 1251.5,-91.5 "/>
<text text-anchor="middle" x="1303.5" y="-69.8" font-family="Times,serif" font-size="14.00">grad 0.0000</text>
</g>
<!-- 140260402421936&#45;&gt;140260402427984* -->
<g id="edge20" class="edge">
<title>140260402421936&#45;&gt;140260402427984*</title>
<path fill="none" stroke="black" d="M1347.91,-55.48C1362.77,-53.92 1376.55,-52.47 1388.18,-51.26"/>
<polygon fill="black" stroke="black" points="1388.65,-54.73 1398.23,-50.2 1387.92,-47.76 1388.65,-54.73"/>
</g>
<!-- 140260402421936+&#45;&gt;140260402421936 -->
<g id="edge5" class="edge">
<title>140260402421936+&#45;&gt;140260402421936</title>
<path fill="none" stroke="black" d="M952.07,-73.5C961.15,-73.5 972.15,-73.5 984.34,-73.5"/>
<polygon fill="black" stroke="black" points="984.35,-77 994.35,-73.5 984.35,-70 984.35,-77"/>
</g>
<!-- 140260402422512 -->
<g id="node13" class="node">
<title>140260402422512</title>
<polygon fill="none" stroke="black" points="500,-193.5 500,-229.5 862,-229.5 862,-193.5 500,-193.5"/>
<text text-anchor="middle" x="526" y="-207.8" font-family="Times,serif" font-size="14.00">v002</text>
<polyline fill="none" stroke="black" points="552,-193.5 552,-229.5 "/>
<text text-anchor="middle" x="569.5" y="-207.8" font-family="Times,serif" font-size="14.00">L1</text>
<polyline fill="none" stroke="black" points="587,-193.5 587,-229.5 "/>
<text text-anchor="middle" x="606" y="-207.8" font-family="Times,serif" font-size="14.00">N1</text>
<polyline fill="none" stroke="black" points="625,-193.5 625,-229.5 "/>
<text text-anchor="middle" x="638" y="-207.8" font-family="Times,serif" font-size="14.00">b</text>
<polyline fill="none" stroke="black" points="651,-193.5 651,-229.5 "/>
<text text-anchor="middle" x="704.5" y="-207.8" font-family="Times,serif" font-size="14.00">data &#45;0.2160</text>
<polyline fill="none" stroke="black" points="758,-193.5 758,-229.5 "/>
<text text-anchor="middle" x="810" y="-207.8" font-family="Times,serif" font-size="14.00">grad 0.0000</text>
</g>
<!-- 140260402426640+ -->
<g id="node17" class="node">
<title>140260402426640+</title>
<ellipse fill="none" stroke="black" cx="925" cy="-183.5" rx="27" ry="18"/>
<text text-anchor="middle" x="925" y="-179.8" font-family="Times,serif" font-size="14.00">+</text>
</g>
<!-- 140260402422512&#45;&gt;140260402426640+ -->
<g id="edge17" class="edge">
<title>140260402422512&#45;&gt;140260402426640+</title>
<path fill="none" stroke="black" d="M837.66,-193.49C856.23,-191.34 873.61,-189.33 887.84,-187.68"/>
<polygon fill="black" stroke="black" points="888.54,-191.13 898.08,-186.5 887.74,-184.17 888.54,-191.13"/>
</g>
<!-- 140260402423568 -->
<g id="node14" class="node">
<title>140260402423568</title>
<polygon fill="none" stroke="black" points="2248,-82.5 2248,-118.5 2574,-118.5 2574,-82.5 2248,-82.5"/>
<text text-anchor="middle" x="2274" y="-96.8" font-family="Times,serif" font-size="14.00">v024</text>
<polyline fill="none" stroke="black" points="2300,-82.5 2300,-118.5 "/>
<text text-anchor="middle" x="2310.5" y="-96.8" font-family="Times,serif" font-size="14.00"> </text>
<polyline fill="none" stroke="black" points="2321,-82.5 2321,-118.5 "/>
<text text-anchor="middle" x="2331.5" y="-96.8" font-family="Times,serif" font-size="14.00"> </text>
<polyline fill="none" stroke="black" points="2342,-82.5 2342,-118.5 "/>
<text text-anchor="middle" x="2352.5" y="-96.8" font-family="Times,serif" font-size="14.00"> </text>
<polyline fill="none" stroke="black" points="2363,-82.5 2363,-118.5 "/>
<text text-anchor="middle" x="2416.5" y="-96.8" font-family="Times,serif" font-size="14.00">data &#45;0.1594</text>
<polyline fill="none" stroke="black" points="2470,-82.5 2470,-118.5 "/>
<text text-anchor="middle" x="2522" y="-96.8" font-family="Times,serif" font-size="14.00">grad 0.0000</text>
</g>
<!-- 140260402423568&#45;&gt;140260402428320+ -->
<g id="edge10" class="edge">
<title>140260402423568&#45;&gt;140260402428320+</title>
<path fill="none" stroke="black" d="M2567.27,-82.48C2579.27,-81.09 2590.48,-79.78 2600.23,-78.65"/>
<polygon fill="black" stroke="black" points="2600.67,-82.12 2610.2,-77.49 2599.86,-75.17 2600.67,-82.12"/>
</g>
<!-- 140260402423568+&#45;&gt;140260402423568 -->
<g id="edge6" class="edge">
<title>140260402423568+&#45;&gt;140260402423568</title>
<path fill="none" stroke="black" d="M2076.18,-102.35C2110.81,-102.16 2174.83,-101.81 2237.62,-101.46"/>
<polygon fill="black" stroke="black" points="2237.7,-104.96 2247.68,-101.4 2237.66,-97.96 2237.7,-104.96"/>
</g>
<!-- 140260402426640 -->
<g id="node16" class="node">
<title>140260402426640</title>
<polygon fill="none" stroke="black" points="994.5,-165.5 994.5,-201.5 1355.5,-201.5 1355.5,-165.5 994.5,-165.5"/>
<text text-anchor="middle" x="1020.5" y="-179.8" font-family="Times,serif" font-size="14.00">v020</text>
<polyline fill="none" stroke="black" points="1046.5,-165.5 1046.5,-201.5 "/>
<text text-anchor="middle" x="1064" y="-179.8" font-family="Times,serif" font-size="14.00">L1</text>
<polyline fill="none" stroke="black" points="1081.5,-165.5 1081.5,-201.5 "/>
<text text-anchor="middle" x="1100.5" y="-179.8" font-family="Times,serif" font-size="14.00">N1</text>
<polyline fill="none" stroke="black" points="1119.5,-165.5 1119.5,-201.5 "/>
<text text-anchor="middle" x="1132" y="-179.8" font-family="Times,serif" font-size="14.00">a</text>
<polyline fill="none" stroke="black" points="1144.5,-165.5 1144.5,-201.5 "/>
<text text-anchor="middle" x="1198" y="-179.8" font-family="Times,serif" font-size="14.00">data &#45;1.6720</text>
<polyline fill="none" stroke="black" points="1251.5,-165.5 1251.5,-201.5 "/>
<text text-anchor="middle" x="1303.5" y="-179.8" font-family="Times,serif" font-size="14.00">grad 0.0000</text>
</g>
<!-- 140260402426640&#45;&gt;140260402428464* -->
<g id="edge24" class="edge">
<title>140260402426640&#45;&gt;140260402428464*</title>
<path fill="none" stroke="black" d="M1324.91,-165.49C1348.43,-162.64 1370.69,-159.95 1388.14,-157.84"/>
<polygon fill="black" stroke="black" points="1388.84,-161.28 1398.35,-156.6 1388,-154.33 1388.84,-161.28"/>
</g>
<!-- 140260402426640+&#45;&gt;140260402426640 -->
<g id="edge7" class="edge">
<title>140260402426640+&#45;&gt;140260402426640</title>
<path fill="none" stroke="black" d="M952.07,-183.5C961.15,-183.5 972.15,-183.5 984.34,-183.5"/>
<polygon fill="black" stroke="black" points="984.35,-187 994.35,-183.5 984.35,-180 984.35,-187"/>
</g>
<!-- 140260402419584 -->
<g id="node18" class="node">
<title>140260402419584</title>
<polygon fill="none" stroke="black" points="0,-179.5 0,-215.5 374,-215.5 374,-179.5 0,-179.5"/>
<text text-anchor="middle" x="26" y="-193.8" font-family="Times,serif" font-size="14.00">v001</text>
<polyline fill="none" stroke="black" points="52,-179.5 52,-215.5 "/>
<text text-anchor="middle" x="69.5" y="-193.8" font-family="Times,serif" font-size="14.00">L1</text>
<polyline fill="none" stroke="black" points="87,-179.5 87,-215.5 "/>
<text text-anchor="middle" x="106" y="-193.8" font-family="Times,serif" font-size="14.00">N1</text>
<polyline fill="none" stroke="black" points="125,-179.5 125,-215.5 "/>
<text text-anchor="middle" x="144" y="-193.8" font-family="Times,serif" font-size="14.00">w1</text>
<polyline fill="none" stroke="black" points="163,-179.5 163,-215.5 "/>
<text text-anchor="middle" x="216.5" y="-193.8" font-family="Times,serif" font-size="14.00">data &#45;0.3640</text>
<polyline fill="none" stroke="black" points="270,-179.5 270,-215.5 "/>
<text text-anchor="middle" x="322" y="-193.8" font-family="Times,serif" font-size="14.00">grad 0.0000</text>
</g>
<!-- 140260402426832* -->
<g id="node24" class="node">
<title>140260402426832*</title>
<ellipse fill="none" stroke="black" cx="437" cy="-156.5" rx="27" ry="18"/>
<text text-anchor="middle" x="437" y="-152.8" font-family="Times,serif" font-size="14.00">*</text>
</g>
<!-- 140260402419584&#45;&gt;140260402426832* -->
<g id="edge26" class="edge">
<title>140260402419584&#45;&gt;140260402426832*</title>
<path fill="none" stroke="black" d="M321.06,-179.47C338.89,-176.68 356.91,-173.66 374,-170.5 382.89,-168.85 392.44,-166.83 401.32,-164.83"/>
<polygon fill="black" stroke="black" points="402.39,-168.18 411.35,-162.53 400.82,-161.36 402.39,-168.18"/>
</g>
<!-- 140260402422704 -->
<g id="node19" class="node">
<title>140260402422704</title>
<polygon fill="none" stroke="black" points="500,-14.5 500,-50.5 862,-50.5 862,-14.5 500,-14.5"/>
<text text-anchor="middle" x="526" y="-28.8" font-family="Times,serif" font-size="14.00">v004</text>
<polyline fill="none" stroke="black" points="552,-14.5 552,-50.5 "/>
<text text-anchor="middle" x="569.5" y="-28.8" font-family="Times,serif" font-size="14.00">L1</text>
<polyline fill="none" stroke="black" points="587,-14.5 587,-50.5 "/>
<text text-anchor="middle" x="606" y="-28.8" font-family="Times,serif" font-size="14.00">N2</text>
<polyline fill="none" stroke="black" points="625,-14.5 625,-50.5 "/>
<text text-anchor="middle" x="638" y="-28.8" font-family="Times,serif" font-size="14.00">b</text>
<polyline fill="none" stroke="black" points="651,-14.5 651,-50.5 "/>
<text text-anchor="middle" x="704.5" y="-28.8" font-family="Times,serif" font-size="14.00">data &#45;0.4320</text>
<polyline fill="none" stroke="black" points="758,-14.5 758,-50.5 "/>
<text text-anchor="middle" x="810" y="-28.8" font-family="Times,serif" font-size="14.00">grad 0.0000</text>
</g>
<!-- 140260402422704&#45;&gt;140260402421936+ -->
<g id="edge23" class="edge">
<title>140260402422704&#45;&gt;140260402421936+</title>
<path fill="none" stroke="black" d="M803.66,-50.54C823.2,-53.69 843.18,-57.07 862,-60.5 870.79,-62.1 880.24,-64 889.05,-65.84"/>
<polygon fill="black" stroke="black" points="888.51,-69.3 899.02,-67.95 889.96,-62.45 888.51,-69.3"/>
</g>
<!-- 140260402428320 -->
<g id="node20" class="node">
<title>140260402428320</title>
<polygon fill="none" stroke="black" points="2700,-56.5 2700,-92.5 3061,-92.5 3061,-56.5 2700,-56.5"/>
<text text-anchor="middle" x="2726" y="-70.8" font-family="Times,serif" font-size="14.00">v026</text>
<polyline fill="none" stroke="black" points="2752,-56.5 2752,-92.5 "/>
<text text-anchor="middle" x="2769.5" y="-70.8" font-family="Times,serif" font-size="14.00">L2</text>
<polyline fill="none" stroke="black" points="2787,-56.5 2787,-92.5 "/>
<text text-anchor="middle" x="2806" y="-70.8" font-family="Times,serif" font-size="14.00">N1</text>
<polyline fill="none" stroke="black" points="2825,-56.5 2825,-92.5 "/>
<text text-anchor="middle" x="2837.5" y="-70.8" font-family="Times,serif" font-size="14.00">a</text>
<polyline fill="none" stroke="black" points="2850,-56.5 2850,-92.5 "/>
<text text-anchor="middle" x="2903.5" y="-70.8" font-family="Times,serif" font-size="14.00">data &#45;2.7245</text>
<polyline fill="none" stroke="black" points="2957,-56.5 2957,-92.5 "/>
<text text-anchor="middle" x="3009" y="-70.8" font-family="Times,serif" font-size="14.00">grad 0.0000</text>
</g>
<!-- 140260402428320&#45;&gt;140260402426544* -->
<g id="edge14" class="edge">
<title>140260402428320&#45;&gt;140260402426544*</title>
<path fill="none" stroke="black" d="M3061.12,-74.5C3070.34,-74.5 3078.94,-74.5 3086.64,-74.5"/>
<polygon fill="black" stroke="black" points="3086.87,-78 3096.87,-74.5 3086.87,-71 3086.87,-78"/>
</g>
<!-- 140260402428320+&#45;&gt;140260402428320 -->
<g id="edge8" class="edge">
<title>140260402428320+&#45;&gt;140260402428320</title>
<path fill="none" stroke="black" d="M2664.3,-74.5C2671.65,-74.5 2680.24,-74.5 2689.68,-74.5"/>
<polygon fill="black" stroke="black" points="2689.81,-78 2699.81,-74.5 2689.81,-71 2689.81,-78"/>
</g>
<!-- 140260402419632 -->
<g id="node22" class="node">
<title>140260402419632</title>
<polygon fill="none" stroke="black" points="1488,-80.5 1488,-116.5 1850,-116.5 1850,-80.5 1488,-80.5"/>
<text text-anchor="middle" x="1514" y="-94.8" font-family="Times,serif" font-size="14.00">v007</text>
<polyline fill="none" stroke="black" points="1540,-80.5 1540,-116.5 "/>
<text text-anchor="middle" x="1557.5" y="-94.8" font-family="Times,serif" font-size="14.00">L2</text>
<polyline fill="none" stroke="black" points="1575,-80.5 1575,-116.5 "/>
<text text-anchor="middle" x="1594" y="-94.8" font-family="Times,serif" font-size="14.00">N1</text>
<polyline fill="none" stroke="black" points="1613,-80.5 1613,-116.5 "/>
<text text-anchor="middle" x="1626" y="-94.8" font-family="Times,serif" font-size="14.00">b</text>
<polyline fill="none" stroke="black" points="1639,-80.5 1639,-116.5 "/>
<text text-anchor="middle" x="1692.5" y="-94.8" font-family="Times,serif" font-size="14.00">data &#45;0.3600</text>
<polyline fill="none" stroke="black" points="1746,-80.5 1746,-116.5 "/>
<text text-anchor="middle" x="1798" y="-94.8" font-family="Times,serif" font-size="14.00">grad 0.0000</text>
</g>
<!-- 140260402419632&#45;&gt;140260402423568+ -->
<g id="edge13" class="edge">
<title>140260402419632&#45;&gt;140260402423568+</title>
<path fill="none" stroke="black" d="M1850.14,-100.41C1911.32,-101.05 1973.75,-101.71 2011.69,-102.12"/>
<polygon fill="black" stroke="black" points="2011.68,-105.62 2021.72,-102.22 2011.76,-98.62 2011.68,-105.62"/>
</g>
<!-- 140260402426832 -->
<g id="node23" class="node">
<title>140260402426832</title>
<polygon fill="none" stroke="black" points="518,-138.5 518,-174.5 844,-174.5 844,-138.5 518,-138.5"/>
<text text-anchor="middle" x="544" y="-152.8" font-family="Times,serif" font-size="14.00">v019</text>
<polyline fill="none" stroke="black" points="570,-138.5 570,-174.5 "/>
<text text-anchor="middle" x="580.5" y="-152.8" font-family="Times,serif" font-size="14.00"> </text>
<polyline fill="none" stroke="black" points="591,-138.5 591,-174.5 "/>
<text text-anchor="middle" x="601.5" y="-152.8" font-family="Times,serif" font-size="14.00"> </text>
<polyline fill="none" stroke="black" points="612,-138.5 612,-174.5 "/>
<text text-anchor="middle" x="622.5" y="-152.8" font-family="Times,serif" font-size="14.00"> </text>
<polyline fill="none" stroke="black" points="633,-138.5 633,-174.5 "/>
<text text-anchor="middle" x="686.5" y="-152.8" font-family="Times,serif" font-size="14.00">data &#45;1.4560</text>
<polyline fill="none" stroke="black" points="740,-138.5 740,-174.5 "/>
<text text-anchor="middle" x="792" y="-152.8" font-family="Times,serif" font-size="14.00">grad 0.0000</text>
</g>
<!-- 140260402426832&#45;&gt;140260402426640+ -->
<g id="edge18" class="edge">
<title>140260402426832&#45;&gt;140260402426640+</title>
<path fill="none" stroke="black" d="M843.42,-174.51C859.94,-176.35 875.34,-178.07 888.15,-179.5"/>
<polygon fill="black" stroke="black" points="887.94,-183 898.27,-180.63 888.72,-176.04 887.94,-183"/>
</g>
<!-- 140260402426832*&#45;&gt;140260402426832 -->
<g id="edge9" class="edge">
<title>140260402426832*&#45;&gt;140260402426832</title>
<path fill="none" stroke="black" d="M464.36,-156.5C476.08,-156.5 490.94,-156.5 507.37,-156.5"/>
<polygon fill="black" stroke="black" points="507.79,-160 517.79,-156.5 507.79,-153 507.79,-160"/>
</g>
<!-- 140260402419680 -->
<g id="node25" class="node">
<title>140260402419680</title>
<polygon fill="none" stroke="black" points="988,-110.5 988,-146.5 1362,-146.5 1362,-110.5 988,-110.5"/>
<text text-anchor="middle" x="1014" y="-124.8" font-family="Times,serif" font-size="14.00">v005</text>
<polyline fill="none" stroke="black" points="1040,-110.5 1040,-146.5 "/>
<text text-anchor="middle" x="1057.5" y="-124.8" font-family="Times,serif" font-size="14.00">L2</text>
<polyline fill="none" stroke="black" points="1075,-110.5 1075,-146.5 "/>
<text text-anchor="middle" x="1094" y="-124.8" font-family="Times,serif" font-size="14.00">N1</text>
<polyline fill="none" stroke="black" points="1113,-110.5 1113,-146.5 "/>
<text text-anchor="middle" x="1132" y="-124.8" font-family="Times,serif" font-size="14.00">w1</text>
<polyline fill="none" stroke="black" points="1151,-110.5 1151,-146.5 "/>
<text text-anchor="middle" x="1204.5" y="-124.8" font-family="Times,serif" font-size="14.00">data &#45;0.1200</text>
<polyline fill="none" stroke="black" points="1258,-110.5 1258,-146.5 "/>
<text text-anchor="middle" x="1310" y="-124.8" font-family="Times,serif" font-size="14.00">grad 0.0000</text>
</g>
<!-- 140260402419680&#45;&gt;140260402428464* -->
<g id="edge16" class="edge">
<title>140260402419680&#45;&gt;140260402428464*</title>
<path fill="none" stroke="black" d="M1354.59,-146.5C1366.87,-147.74 1378.25,-148.89 1388.11,-149.88"/>
<polygon fill="black" stroke="black" points="1387.86,-153.37 1398.16,-150.9 1388.56,-146.41 1387.86,-153.37"/>
</g>
<!-- 140260953974256 -->
<g id="node26" class="node">
<title>140260953974256</title>
<polygon fill="none" stroke="black" points="22,-124.5 22,-160.5 352,-160.5 352,-124.5 22,-124.5"/>
<text text-anchor="middle" x="48" y="-138.8" font-family="Times,serif" font-size="14.00">v008</text>
<polyline fill="none" stroke="black" points="74,-124.5 74,-160.5 "/>
<text text-anchor="middle" x="84.5" y="-138.8" font-family="Times,serif" font-size="14.00"> </text>
<polyline fill="none" stroke="black" points="95,-124.5 95,-160.5 "/>
<text text-anchor="middle" x="105.5" y="-138.8" font-family="Times,serif" font-size="14.00"> </text>
<polyline fill="none" stroke="black" points="116,-124.5 116,-160.5 "/>
<text text-anchor="middle" x="131" y="-138.8" font-family="Times,serif" font-size="14.00">i1</text>
<polyline fill="none" stroke="black" points="146,-124.5 146,-160.5 "/>
<text text-anchor="middle" x="197" y="-138.8" font-family="Times,serif" font-size="14.00">data 4.0000</text>
<polyline fill="none" stroke="black" points="248,-124.5 248,-160.5 "/>
<text text-anchor="middle" x="300" y="-138.8" font-family="Times,serif" font-size="14.00">grad 0.0000</text>
</g>
<!-- 140260953974256&#45;&gt;140260402425872* -->
<g id="edge15" class="edge">
<title>140260953974256&#45;&gt;140260402425872*</title>
<path fill="none" stroke="black" d="M338.02,-124.46C350.29,-121.86 362.41,-118.88 374,-115.5 384.83,-112.34 396.2,-107.64 406.21,-102.99"/>
<polygon fill="black" stroke="black" points="407.83,-106.09 415.32,-98.6 404.8,-99.79 407.83,-106.09"/>
</g>
<!-- 140260953974256&#45;&gt;140260402426832* -->
<g id="edge19" class="edge">
<title>140260953974256&#45;&gt;140260402426832*</title>
<path fill="none" stroke="black" d="M352.04,-151.76C369.67,-152.76 386.08,-153.68 399.64,-154.45"/>
<polygon fill="black" stroke="black" points="399.69,-157.96 409.87,-155.02 400.08,-150.97 399.69,-157.96"/>
</g>
</g>
</svg>
