<?xml version="1.0" encoding="UTF-8" standalone="no"?>
<!DOCTYPE svg PUBLIC "-//W3C//DTD SVG 1.1//EN"
 "http://www.w3.org/Graphics/SVG/1.1/DTD/svg11.dtd">
<!-- Generated by graphviz version 2.43.0 (0)
 -->
<!-- Title: %3 Pages: 1 -->
<svg width="3500pt" height="265pt"
 viewBox="0.00 0.00 3500.00 265.00" xmlns="http://www.w3.org/2000/svg" xmlns:xlink="http://www.w3.org/1999/xlink">
<g id="graph0" class="graph" transform="scale(1 1) rotate(0) translate(4 261)">
<title>%3</title>
<polygon fill="white" stroke="transparent" points="-4,4 -4,-261 3496,-261 3496,4 -4,4"/>
<!-- 140625757229584 -->
<g id="node1" class="node">
<title>140625757229584</title>
<polygon fill="none" stroke="black" points="0,-220.5 0,-256.5 369,-256.5 369,-220.5 0,-220.5"/>
<text text-anchor="middle" x="26" y="-234.8" font-family="Times,serif" font-size="14.00">v001</text>
<polyline fill="none" stroke="black" points="52,-220.5 52,-256.5 "/>
<text text-anchor="middle" x="69.5" y="-234.8" font-family="Times,serif" font-size="14.00">L1</text>
<polyline fill="none" stroke="black" points="87,-220.5 87,-256.5 "/>
<text text-anchor="middle" x="106" y="-234.8" font-family="Times,serif" font-size="14.00">N1</text>
<polyline fill="none" stroke="black" points="125,-220.5 125,-256.5 "/>
<text text-anchor="middle" x="144" y="-234.8" font-family="Times,serif" font-size="14.00">w1</text>
<polyline fill="none" stroke="black" points="163,-220.5 163,-256.5 "/>
<text text-anchor="middle" x="214" y="-234.8" font-family="Times,serif" font-size="14.00">data 0.3800</text>
<polyline fill="none" stroke="black" points="265,-220.5 265,-256.5 "/>
<text text-anchor="middle" x="317" y="-234.8" font-family="Times,serif" font-size="14.00">grad 2.4000</text>
</g>
<!-- 140625756790384* -->
<g id="node10" class="node">
<title>140625756790384*</title>
<ellipse fill="none" stroke="black" cx="432" cy="-238.5" rx="27" ry="18"/>
<text text-anchor="middle" x="432" y="-234.8" font-family="Times,serif" font-size="14.00">*</text>
</g>
<!-- 140625757229584&#45;&gt;140625756790384* -->
<g id="edge20" class="edge">
<title>140625757229584&#45;&gt;140625756790384*</title>
<path fill="none" stroke="black" d="M369.05,-238.5C378.29,-238.5 386.92,-238.5 394.62,-238.5"/>
<polygon fill="black" stroke="black" points="394.87,-242 404.87,-238.5 394.87,-235 394.87,-242"/>
</g>
<!-- 140625757228576 -->
<g id="node2" class="node">
<title>140625757228576</title>
<polygon fill="none" stroke="black" points="0,-110.5 0,-146.5 369,-146.5 369,-110.5 0,-110.5"/>
<text text-anchor="middle" x="26" y="-124.8" font-family="Times,serif" font-size="14.00">v003</text>
<polyline fill="none" stroke="black" points="52,-110.5 52,-146.5 "/>
<text text-anchor="middle" x="69.5" y="-124.8" font-family="Times,serif" font-size="14.00">L1</text>
<polyline fill="none" stroke="black" points="87,-110.5 87,-146.5 "/>
<text text-anchor="middle" x="106" y="-124.8" font-family="Times,serif" font-size="14.00">N2</text>
<polyline fill="none" stroke="black" points="125,-110.5 125,-146.5 "/>
<text text-anchor="middle" x="144" y="-124.8" font-family="Times,serif" font-size="14.00">w1</text>
<polyline fill="none" stroke="black" points="163,-110.5 163,-146.5 "/>
<text text-anchor="middle" x="214" y="-124.8" font-family="Times,serif" font-size="14.00">data 0.2600</text>
<polyline fill="none" stroke="black" points="265,-110.5 265,-146.5 "/>
<text text-anchor="middle" x="317" y="-124.8" font-family="Times,serif" font-size="14.00">grad 4.8000</text>
</g>
<!-- 140625756787360* -->
<g id="node12" class="node">
<title>140625756787360*</title>
<ellipse fill="none" stroke="black" cx="432" cy="-128.5" rx="27" ry="18"/>
<text text-anchor="middle" x="432" y="-124.8" font-family="Times,serif" font-size="14.00">*</text>
</g>
<!-- 140625757228576&#45;&gt;140625756787360* -->
<g id="edge21" class="edge">
<title>140625757228576&#45;&gt;140625756787360*</title>
<path fill="none" stroke="black" d="M369.05,-128.5C378.29,-128.5 386.92,-128.5 394.62,-128.5"/>
<polygon fill="black" stroke="black" points="394.87,-132 404.87,-128.5 394.87,-125 394.87,-132"/>
</g>
<!-- 140625756794416 -->
<g id="node3" class="node">
<title>140625756794416</title>
<polygon fill="none" stroke="black" points="3162,-69.5 3162,-105.5 3492,-105.5 3492,-69.5 3162,-69.5"/>
<text text-anchor="middle" x="3188" y="-83.8" font-family="Times,serif" font-size="14.00">v018</text>
<polyline fill="none" stroke="black" points="3214,-69.5 3214,-105.5 "/>
<text text-anchor="middle" x="3224.5" y="-83.8" font-family="Times,serif" font-size="14.00"> </text>
<polyline fill="none" stroke="black" points="3235,-69.5 3235,-105.5 "/>
<text text-anchor="middle" x="3245.5" y="-83.8" font-family="Times,serif" font-size="14.00"> </text>
<polyline fill="none" stroke="black" points="3256,-69.5 3256,-105.5 "/>
<text text-anchor="middle" x="3266.5" y="-83.8" font-family="Times,serif" font-size="14.00"> </text>
<polyline fill="none" stroke="black" points="3277,-69.5 3277,-105.5 "/>
<text text-anchor="middle" x="3332.5" y="-83.8" font-family="Times,serif" font-size="14.00">data 12.9600</text>
<polyline fill="none" stroke="black" points="3388,-69.5 3388,-105.5 "/>
<text text-anchor="middle" x="3440" y="-83.8" font-family="Times,serif" font-size="14.00">grad 0.0000</text>
</g>
<!-- 140625756794416* -->
<g id="node4" class="node">
<title>140625756794416*</title>
<ellipse fill="none" stroke="black" cx="3099" cy="-87.5" rx="27" ry="18"/>
<text text-anchor="middle" x="3099" y="-83.8" font-family="Times,serif" font-size="14.00">*</text>
</g>
<!-- 140625756794416*&#45;&gt;140625756794416 -->
<g id="edge1" class="edge">
<title>140625756794416*&#45;&gt;140625756794416</title>
<path fill="none" stroke="black" d="M3126.37,-87.5C3133.71,-87.5 3142.28,-87.5 3151.65,-87.5"/>
<polygon fill="black" stroke="black" points="3151.7,-91 3161.7,-87.5 3151.7,-84 3151.7,-91"/>
</g>
<!-- 140625756790240 -->
<g id="node5" class="node">
<title>140625756790240</title>
<polygon fill="none" stroke="black" points="989.5,-190.5 989.5,-226.5 1345.5,-226.5 1345.5,-190.5 989.5,-190.5"/>
<text text-anchor="middle" x="1015.5" y="-204.8" font-family="Times,serif" font-size="14.00">v011</text>
<polyline fill="none" stroke="black" points="1041.5,-190.5 1041.5,-226.5 "/>
<text text-anchor="middle" x="1059" y="-204.8" font-family="Times,serif" font-size="14.00">L1</text>
<polyline fill="none" stroke="black" points="1076.5,-190.5 1076.5,-226.5 "/>
<text text-anchor="middle" x="1095.5" y="-204.8" font-family="Times,serif" font-size="14.00">N1</text>
<polyline fill="none" stroke="black" points="1114.5,-190.5 1114.5,-226.5 "/>
<text text-anchor="middle" x="1127" y="-204.8" font-family="Times,serif" font-size="14.00">a</text>
<polyline fill="none" stroke="black" points="1139.5,-190.5 1139.5,-226.5 "/>
<text text-anchor="middle" x="1190.5" y="-204.8" font-family="Times,serif" font-size="14.00">data 2.0000</text>
<polyline fill="none" stroke="black" points="1241.5,-190.5 1241.5,-226.5 "/>
<text text-anchor="middle" x="1293.5" y="-204.8" font-family="Times,serif" font-size="14.00">grad 0.6000</text>
</g>
<!-- 140625756791488* -->
<g id="node15" class="node">
<title>140625756791488*</title>
<ellipse fill="none" stroke="black" cx="1415" cy="-166.5" rx="27" ry="18"/>
<text text-anchor="middle" x="1415" y="-162.8" font-family="Times,serif" font-size="14.00">*</text>
</g>
<!-- 140625756790240&#45;&gt;140625756791488* -->
<g id="edge18" class="edge">
<title>140625756790240&#45;&gt;140625756791488*</title>
<path fill="none" stroke="black" d="M1301.05,-190.47C1318.23,-187.7 1335.56,-184.69 1352,-181.5 1361.08,-179.74 1370.84,-177.53 1379.87,-175.35"/>
<polygon fill="black" stroke="black" points="1380.8,-178.72 1389.67,-172.93 1379.12,-171.93 1380.8,-178.72"/>
</g>
<!-- 140625756790240+ -->
<g id="node6" class="node">
<title>140625756790240+</title>
<ellipse fill="none" stroke="black" cx="920" cy="-208.5" rx="27" ry="18"/>
<text text-anchor="middle" x="920" y="-204.8" font-family="Times,serif" font-size="14.00">+</text>
</g>
<!-- 140625756790240+&#45;&gt;140625756790240 -->
<g id="edge2" class="edge">
<title>140625756790240+&#45;&gt;140625756790240</title>
<path fill="none" stroke="black" d="M947.27,-208.5C956.26,-208.5 967.11,-208.5 979.12,-208.5"/>
<polygon fill="black" stroke="black" points="979.46,-212 989.46,-208.5 979.46,-205 979.46,-212"/>
</g>
<!-- 140625756794992 -->
<g id="node7" class="node">
<title>140625756794992</title>
<polygon fill="none" stroke="black" points="2233,-95.5 2233,-131.5 2554,-131.5 2554,-95.5 2233,-95.5"/>
<text text-anchor="middle" x="2259" y="-109.8" font-family="Times,serif" font-size="14.00">v015</text>
<polyline fill="none" stroke="black" points="2285,-95.5 2285,-131.5 "/>
<text text-anchor="middle" x="2295.5" y="-109.8" font-family="Times,serif" font-size="14.00"> </text>
<polyline fill="none" stroke="black" points="2306,-95.5 2306,-131.5 "/>
<text text-anchor="middle" x="2316.5" y="-109.8" font-family="Times,serif" font-size="14.00"> </text>
<polyline fill="none" stroke="black" points="2327,-95.5 2327,-131.5 "/>
<text text-anchor="middle" x="2337.5" y="-109.8" font-family="Times,serif" font-size="14.00"> </text>
<polyline fill="none" stroke="black" points="2348,-95.5 2348,-131.5 "/>
<text text-anchor="middle" x="2399" y="-109.8" font-family="Times,serif" font-size="14.00">data 1.2000</text>
<polyline fill="none" stroke="black" points="2450,-95.5 2450,-131.5 "/>
<text text-anchor="middle" x="2502" y="-109.8" font-family="Times,serif" font-size="14.00">grad 1.0000</text>
</g>
<!-- 140625756894448+ -->
<g id="node21" class="node">
<title>140625756894448+</title>
<ellipse fill="none" stroke="black" cx="2617" cy="-87.5" rx="27" ry="18"/>
<text text-anchor="middle" x="2617" y="-83.8" font-family="Times,serif" font-size="14.00">+</text>
</g>
<!-- 140625756794992&#45;&gt;140625756894448+ -->
<g id="edge22" class="edge">
<title>140625756794992&#45;&gt;140625756894448+</title>
<path fill="none" stroke="black" d="M2548.04,-95.48C2559.67,-94.11 2570.55,-92.83 2580.06,-91.72"/>
<polygon fill="black" stroke="black" points="2580.64,-95.17 2590.17,-90.53 2579.83,-88.22 2580.64,-95.17"/>
</g>
<!-- 140625756794992+ -->
<g id="node8" class="node">
<title>140625756794992+</title>
<ellipse fill="none" stroke="black" cx="2036.5" cy="-115.5" rx="27" ry="18"/>
<text text-anchor="middle" x="2036.5" y="-111.8" font-family="Times,serif" font-size="14.00">+</text>
</g>
<!-- 140625756794992+&#45;&gt;140625756794992 -->
<g id="edge3" class="edge">
<title>140625756794992+&#45;&gt;140625756794992</title>
<path fill="none" stroke="black" d="M2063.6,-115.35C2097.81,-115.16 2160.72,-114.81 2222.43,-114.46"/>
<polygon fill="black" stroke="black" points="2222.74,-117.96 2232.72,-114.4 2222.7,-110.96 2222.74,-117.96"/>
</g>
<!-- 140625756790384 -->
<g id="node9" class="node">
<title>140625756790384</title>
<polygon fill="none" stroke="black" points="515.5,-220.5 515.5,-256.5 836.5,-256.5 836.5,-220.5 515.5,-220.5"/>
<text text-anchor="middle" x="541.5" y="-234.8" font-family="Times,serif" font-size="14.00">v010</text>
<polyline fill="none" stroke="black" points="567.5,-220.5 567.5,-256.5 "/>
<text text-anchor="middle" x="578" y="-234.8" font-family="Times,serif" font-size="14.00"> </text>
<polyline fill="none" stroke="black" points="588.5,-220.5 588.5,-256.5 "/>
<text text-anchor="middle" x="599" y="-234.8" font-family="Times,serif" font-size="14.00"> </text>
<polyline fill="none" stroke="black" points="609.5,-220.5 609.5,-256.5 "/>
<text text-anchor="middle" x="620" y="-234.8" font-family="Times,serif" font-size="14.00"> </text>
<polyline fill="none" stroke="black" points="630.5,-220.5 630.5,-256.5 "/>
<text text-anchor="middle" x="681.5" y="-234.8" font-family="Times,serif" font-size="14.00">data 2.0000</text>
<polyline fill="none" stroke="black" points="732.5,-220.5 732.5,-256.5 "/>
<text text-anchor="middle" x="784.5" y="-234.8" font-family="Times,serif" font-size="14.00">grad 0.6000</text>
</g>
<!-- 140625756790384&#45;&gt;140625756790240+ -->
<g id="edge12" class="edge">
<title>140625756790384&#45;&gt;140625756790240+</title>
<path fill="none" stroke="black" d="M822.31,-220.49C844.71,-217.71 865.95,-215.08 882.78,-212.99"/>
<polygon fill="black" stroke="black" points="883.69,-216.4 893.18,-211.7 882.83,-209.46 883.69,-216.4"/>
</g>
<!-- 140625756790384*&#45;&gt;140625756790384 -->
<g id="edge4" class="edge">
<title>140625756790384*&#45;&gt;140625756790384</title>
<path fill="none" stroke="black" d="M459.36,-238.5C471.7,-238.5 487.53,-238.5 505,-238.5"/>
<polygon fill="black" stroke="black" points="505.46,-242 515.46,-238.5 505.46,-235 505.46,-242"/>
</g>
<!-- 140625756787360 -->
<g id="node11" class="node">
<title>140625756787360</title>
<polygon fill="none" stroke="black" points="515.5,-110.5 515.5,-146.5 836.5,-146.5 836.5,-110.5 515.5,-110.5"/>
<text text-anchor="middle" x="541.5" y="-124.8" font-family="Times,serif" font-size="14.00">v012</text>
<polyline fill="none" stroke="black" points="567.5,-110.5 567.5,-146.5 "/>
<text text-anchor="middle" x="578" y="-124.8" font-family="Times,serif" font-size="14.00"> </text>
<polyline fill="none" stroke="black" points="588.5,-110.5 588.5,-146.5 "/>
<text text-anchor="middle" x="599" y="-124.8" font-family="Times,serif" font-size="14.00"> </text>
<polyline fill="none" stroke="black" points="609.5,-110.5 609.5,-146.5 "/>
<text text-anchor="middle" x="620" y="-124.8" font-family="Times,serif" font-size="14.00"> </text>
<polyline fill="none" stroke="black" points="630.5,-110.5 630.5,-146.5 "/>
<text text-anchor="middle" x="681.5" y="-124.8" font-family="Times,serif" font-size="14.00">data 2.0000</text>
<polyline fill="none" stroke="black" points="732.5,-110.5 732.5,-146.5 "/>
<text text-anchor="middle" x="784.5" y="-124.8" font-family="Times,serif" font-size="14.00">grad 1.2000</text>
</g>
<!-- 140625756798160+ -->
<g id="node17" class="node">
<title>140625756798160+</title>
<ellipse fill="none" stroke="black" cx="920" cy="-73.5" rx="27" ry="18"/>
<text text-anchor="middle" x="920" y="-69.8" font-family="Times,serif" font-size="14.00">+</text>
</g>
<!-- 140625756787360&#45;&gt;140625756798160+ -->
<g id="edge25" class="edge">
<title>140625756787360&#45;&gt;140625756798160+</title>
<path fill="none" stroke="black" d="M816.35,-110.48C830.19,-107.6 843.94,-104.29 857,-100.5 867.68,-97.4 878.95,-92.9 888.9,-88.45"/>
<polygon fill="black" stroke="black" points="890.37,-91.63 897.98,-84.26 887.44,-85.28 890.37,-91.63"/>
</g>
<!-- 140625756787360*&#45;&gt;140625756787360 -->
<g id="edge5" class="edge">
<title>140625756787360*&#45;&gt;140625756787360</title>
<path fill="none" stroke="black" d="M459.36,-128.5C471.7,-128.5 487.53,-128.5 505,-128.5"/>
<polygon fill="black" stroke="black" points="505.46,-132 515.46,-128.5 505.46,-125 505.46,-132"/>
</g>
<!-- 140625757228720 -->
<g id="node13" class="node">
<title>140625757228720</title>
<polygon fill="none" stroke="black" points="495,-165.5 495,-201.5 857,-201.5 857,-165.5 495,-165.5"/>
<text text-anchor="middle" x="521" y="-179.8" font-family="Times,serif" font-size="14.00">v002</text>
<polyline fill="none" stroke="black" points="547,-165.5 547,-201.5 "/>
<text text-anchor="middle" x="564.5" y="-179.8" font-family="Times,serif" font-size="14.00">L1</text>
<polyline fill="none" stroke="black" points="582,-165.5 582,-201.5 "/>
<text text-anchor="middle" x="601" y="-179.8" font-family="Times,serif" font-size="14.00">N1</text>
<polyline fill="none" stroke="black" points="620,-165.5 620,-201.5 "/>
<text text-anchor="middle" x="633" y="-179.8" font-family="Times,serif" font-size="14.00">b</text>
<polyline fill="none" stroke="black" points="646,-165.5 646,-201.5 "/>
<text text-anchor="middle" x="699.5" y="-179.8" font-family="Times,serif" font-size="14.00">data &#45;0.0300</text>
<polyline fill="none" stroke="black" points="753,-165.5 753,-201.5 "/>
<text text-anchor="middle" x="805" y="-179.8" font-family="Times,serif" font-size="14.00">grad 0.6000</text>
</g>
<!-- 140625757228720&#45;&gt;140625756790240+ -->
<g id="edge16" class="edge">
<title>140625757228720&#45;&gt;140625756790240+</title>
<path fill="none" stroke="black" d="M851.27,-201.5C862.9,-202.7 873.72,-203.82 883.14,-204.8"/>
<polygon fill="black" stroke="black" points="882.84,-208.28 893.15,-205.83 883.56,-201.32 882.84,-208.28"/>
</g>
<!-- 140625756791488 -->
<g id="node14" class="node">
<title>140625756791488</title>
<polygon fill="none" stroke="black" points="1498.5,-148.5 1498.5,-184.5 1819.5,-184.5 1819.5,-148.5 1498.5,-148.5"/>
<text text-anchor="middle" x="1524.5" y="-162.8" font-family="Times,serif" font-size="14.00">v014</text>
<polyline fill="none" stroke="black" points="1550.5,-148.5 1550.5,-184.5 "/>
<text text-anchor="middle" x="1561" y="-162.8" font-family="Times,serif" font-size="14.00"> </text>
<polyline fill="none" stroke="black" points="1571.5,-148.5 1571.5,-184.5 "/>
<text text-anchor="middle" x="1582" y="-162.8" font-family="Times,serif" font-size="14.00"> </text>
<polyline fill="none" stroke="black" points="1592.5,-148.5 1592.5,-184.5 "/>
<text text-anchor="middle" x="1603" y="-162.8" font-family="Times,serif" font-size="14.00"> </text>
<polyline fill="none" stroke="black" points="1613.5,-148.5 1613.5,-184.5 "/>
<text text-anchor="middle" x="1664.5" y="-162.8" font-family="Times,serif" font-size="14.00">data 1.2000</text>
<polyline fill="none" stroke="black" points="1715.5,-148.5 1715.5,-184.5 "/>
<text text-anchor="middle" x="1767.5" y="-162.8" font-family="Times,serif" font-size="14.00">grad 1.0000</text>
</g>
<!-- 140625756791488&#45;&gt;140625756794992+ -->
<g id="edge11" class="edge">
<title>140625756791488&#45;&gt;140625756794992+</title>
<path fill="none" stroke="black" d="M1792.65,-148.48C1866.43,-138.46 1952.67,-126.75 1999.96,-120.33"/>
<polygon fill="black" stroke="black" points="2000.56,-123.78 2010,-118.96 1999.62,-116.84 2000.56,-123.78"/>
</g>
<!-- 140625756791488*&#45;&gt;140625756791488 -->
<g id="edge6" class="edge">
<title>140625756791488*&#45;&gt;140625756791488</title>
<path fill="none" stroke="black" d="M1442.36,-166.5C1454.7,-166.5 1470.53,-166.5 1488,-166.5"/>
<polygon fill="black" stroke="black" points="1488.46,-170 1498.46,-166.5 1488.46,-163 1488.46,-170"/>
</g>
<!-- 140625756798160 -->
<g id="node16" class="node">
<title>140625756798160</title>
<polygon fill="none" stroke="black" points="989.5,-55.5 989.5,-91.5 1345.5,-91.5 1345.5,-55.5 989.5,-55.5"/>
<text text-anchor="middle" x="1015.5" y="-69.8" font-family="Times,serif" font-size="14.00">v013</text>
<polyline fill="none" stroke="black" points="1041.5,-55.5 1041.5,-91.5 "/>
<text text-anchor="middle" x="1059" y="-69.8" font-family="Times,serif" font-size="14.00">L1</text>
<polyline fill="none" stroke="black" points="1076.5,-55.5 1076.5,-91.5 "/>
<text text-anchor="middle" x="1095.5" y="-69.8" font-family="Times,serif" font-size="14.00">N2</text>
<polyline fill="none" stroke="black" points="1114.5,-55.5 1114.5,-91.5 "/>
<text text-anchor="middle" x="1127" y="-69.8" font-family="Times,serif" font-size="14.00">a</text>
<polyline fill="none" stroke="black" points="1139.5,-55.5 1139.5,-91.5 "/>
<text text-anchor="middle" x="1190.5" y="-69.8" font-family="Times,serif" font-size="14.00">data 2.0000</text>
<polyline fill="none" stroke="black" points="1241.5,-55.5 1241.5,-91.5 "/>
<text text-anchor="middle" x="1293.5" y="-69.8" font-family="Times,serif" font-size="14.00">grad 1.2000</text>
</g>
<!-- 140625756892384* -->
<g id="node19" class="node">
<title>140625756892384*</title>
<ellipse fill="none" stroke="black" cx="1415" cy="-60.5" rx="27" ry="18"/>
<text text-anchor="middle" x="1415" y="-56.8" font-family="Times,serif" font-size="14.00">*</text>
</g>
<!-- 140625756798160&#45;&gt;140625756892384* -->
<g id="edge14" class="edge">
<title>140625756798160&#45;&gt;140625756892384*</title>
<path fill="none" stroke="black" d="M1345.61,-64.12C1357.37,-63.5 1368.29,-62.92 1377.8,-62.42"/>
<polygon fill="black" stroke="black" points="1378.11,-65.91 1387.91,-61.88 1377.74,-58.92 1378.11,-65.91"/>
</g>
<!-- 140625756798160+&#45;&gt;140625756798160 -->
<g id="edge7" class="edge">
<title>140625756798160+&#45;&gt;140625756798160</title>
<path fill="none" stroke="black" d="M947.27,-73.5C956.26,-73.5 967.11,-73.5 979.12,-73.5"/>
<polygon fill="black" stroke="black" points="979.46,-77 989.46,-73.5 979.46,-70 979.46,-77"/>
</g>
<!-- 140625756892384 -->
<g id="node18" class="node">
<title>140625756892384</title>
<polygon fill="none" stroke="black" points="1876,-42.5 1876,-78.5 2197,-78.5 2197,-42.5 1876,-42.5"/>
<text text-anchor="middle" x="1902" y="-56.8" font-family="Times,serif" font-size="14.00">v016</text>
<polyline fill="none" stroke="black" points="1928,-42.5 1928,-78.5 "/>
<text text-anchor="middle" x="1938.5" y="-56.8" font-family="Times,serif" font-size="14.00"> </text>
<polyline fill="none" stroke="black" points="1949,-42.5 1949,-78.5 "/>
<text text-anchor="middle" x="1959.5" y="-56.8" font-family="Times,serif" font-size="14.00"> </text>
<polyline fill="none" stroke="black" points="1970,-42.5 1970,-78.5 "/>
<text text-anchor="middle" x="1980.5" y="-56.8" font-family="Times,serif" font-size="14.00"> </text>
<polyline fill="none" stroke="black" points="1991,-42.5 1991,-78.5 "/>
<text text-anchor="middle" x="2042" y="-56.8" font-family="Times,serif" font-size="14.00">data 2.4000</text>
<polyline fill="none" stroke="black" points="2093,-42.5 2093,-78.5 "/>
<text text-anchor="middle" x="2145" y="-56.8" font-family="Times,serif" font-size="14.00">grad 1.0000</text>
</g>
<!-- 140625756892384&#45;&gt;140625756894448+ -->
<g id="edge15" class="edge">
<title>140625756892384&#45;&gt;140625756894448+</title>
<path fill="none" stroke="black" d="M2197.11,-67.95C2328.28,-74.07 2504.3,-82.29 2579.48,-85.8"/>
<polygon fill="black" stroke="black" points="2579.67,-89.31 2589.82,-86.28 2580,-82.32 2579.67,-89.31"/>
</g>
<!-- 140625756892384*&#45;&gt;140625756892384 -->
<g id="edge8" class="edge">
<title>140625756892384*&#45;&gt;140625756892384</title>
<path fill="none" stroke="black" d="M1442.22,-60.5C1513.76,-60.5 1716.85,-60.5 1865.55,-60.5"/>
<polygon fill="black" stroke="black" points="1865.71,-64 1875.71,-60.5 1865.71,-57 1865.71,-64"/>
</g>
<!-- 140625756894448 -->
<g id="node20" class="node">
<title>140625756894448</title>
<polygon fill="none" stroke="black" points="2680,-69.5 2680,-105.5 3036,-105.5 3036,-69.5 2680,-69.5"/>
<text text-anchor="middle" x="2706" y="-83.8" font-family="Times,serif" font-size="14.00">v017</text>
<polyline fill="none" stroke="black" points="2732,-69.5 2732,-105.5 "/>
<text text-anchor="middle" x="2749.5" y="-83.8" font-family="Times,serif" font-size="14.00">L2</text>
<polyline fill="none" stroke="black" points="2767,-69.5 2767,-105.5 "/>
<text text-anchor="middle" x="2786" y="-83.8" font-family="Times,serif" font-size="14.00">N1</text>
<polyline fill="none" stroke="black" points="2805,-69.5 2805,-105.5 "/>
<text text-anchor="middle" x="2817.5" y="-83.8" font-family="Times,serif" font-size="14.00">a</text>
<polyline fill="none" stroke="black" points="2830,-69.5 2830,-105.5 "/>
<text text-anchor="middle" x="2881" y="-83.8" font-family="Times,serif" font-size="14.00">data 3.6000</text>
<polyline fill="none" stroke="black" points="2932,-69.5 2932,-105.5 "/>
<text text-anchor="middle" x="2984" y="-83.8" font-family="Times,serif" font-size="14.00">grad 1.0000</text>
</g>
<!-- 140625756894448&#45;&gt;140625756794416* -->
<g id="edge23" class="edge">
<title>140625756894448&#45;&gt;140625756794416*</title>
<path fill="none" stroke="black" d="M3036.14,-87.5C3045.34,-87.5 3053.94,-87.5 3061.63,-87.5"/>
<polygon fill="black" stroke="black" points="3061.86,-91 3071.86,-87.5 3061.86,-84 3061.86,-91"/>
</g>
<!-- 140625756894448+&#45;&gt;140625756894448 -->
<g id="edge9" class="edge">
<title>140625756894448+&#45;&gt;140625756894448</title>
<path fill="none" stroke="black" d="M2644.03,-87.5C2651.4,-87.5 2660.02,-87.5 2669.49,-87.5"/>
<polygon fill="black" stroke="black" points="2669.66,-91 2679.66,-87.5 2669.66,-84 2669.66,-91"/>
</g>
<!-- 140626157073648 -->
<g id="node22" class="node">
<title>140626157073648</title>
<polygon fill="none" stroke="black" points="19.5,-165.5 19.5,-201.5 349.5,-201.5 349.5,-165.5 19.5,-165.5"/>
<text text-anchor="middle" x="45.5" y="-179.8" font-family="Times,serif" font-size="14.00">v008</text>
<polyline fill="none" stroke="black" points="71.5,-165.5 71.5,-201.5 "/>
<text text-anchor="middle" x="82" y="-179.8" font-family="Times,serif" font-size="14.00"> </text>
<polyline fill="none" stroke="black" points="92.5,-165.5 92.5,-201.5 "/>
<text text-anchor="middle" x="103" y="-179.8" font-family="Times,serif" font-size="14.00"> </text>
<polyline fill="none" stroke="black" points="113.5,-165.5 113.5,-201.5 "/>
<text text-anchor="middle" x="128.5" y="-179.8" font-family="Times,serif" font-size="14.00">i1</text>
<polyline fill="none" stroke="black" points="143.5,-165.5 143.5,-201.5 "/>
<text text-anchor="middle" x="194.5" y="-179.8" font-family="Times,serif" font-size="14.00">data 4.0000</text>
<polyline fill="none" stroke="black" points="245.5,-165.5 245.5,-201.5 "/>
<text text-anchor="middle" x="297.5" y="-179.8" font-family="Times,serif" font-size="14.00">grad 0.9000</text>
</g>
<!-- 140626157073648&#45;&gt;140625756790384* -->
<g id="edge26" class="edge">
<title>140626157073648&#45;&gt;140625756790384*</title>
<path fill="none" stroke="black" d="M328.05,-201.51C341.99,-204.39 355.84,-207.7 369,-211.5 379.68,-214.58 390.95,-219.08 400.91,-223.53"/>
<polygon fill="black" stroke="black" points="399.44,-226.71 409.99,-227.72 402.38,-220.35 399.44,-226.71"/>
</g>
<!-- 140626157073648&#45;&gt;140625756787360* -->
<g id="edge19" class="edge">
<title>140626157073648&#45;&gt;140625756787360*</title>
<path fill="none" stroke="black" d="M333.02,-165.49C345.28,-162.88 357.41,-159.9 369,-156.5 379.82,-153.33 391.2,-148.63 401.21,-143.98"/>
<polygon fill="black" stroke="black" points="402.83,-147.08 410.32,-139.59 399.79,-140.77 402.83,-147.08"/>
</g>
<!-- 140625757228768 -->
<g id="node23" class="node">
<title>140625757228768</title>
<polygon fill="none" stroke="black" points="495,-55.5 495,-91.5 857,-91.5 857,-55.5 495,-55.5"/>
<text text-anchor="middle" x="521" y="-69.8" font-family="Times,serif" font-size="14.00">v004</text>
<polyline fill="none" stroke="black" points="547,-55.5 547,-91.5 "/>
<text text-anchor="middle" x="564.5" y="-69.8" font-family="Times,serif" font-size="14.00">L1</text>
<polyline fill="none" stroke="black" points="582,-55.5 582,-91.5 "/>
<text text-anchor="middle" x="601" y="-69.8" font-family="Times,serif" font-size="14.00">N2</text>
<polyline fill="none" stroke="black" points="620,-55.5 620,-91.5 "/>
<text text-anchor="middle" x="633" y="-69.8" font-family="Times,serif" font-size="14.00">b</text>
<polyline fill="none" stroke="black" points="646,-55.5 646,-91.5 "/>
<text text-anchor="middle" x="699.5" y="-69.8" font-family="Times,serif" font-size="14.00">data &#45;0.0600</text>
<polyline fill="none" stroke="black" points="753,-55.5 753,-91.5 "/>
<text text-anchor="middle" x="805" y="-69.8" font-family="Times,serif" font-size="14.00">grad 1.2000</text>
</g>
<!-- 140625757228768&#45;&gt;140625756798160+ -->
<g id="edge24" class="edge">
<title>140625757228768&#45;&gt;140625756798160+</title>
<path fill="none" stroke="black" d="M857.31,-73.5C866.5,-73.5 875.08,-73.5 882.76,-73.5"/>
<polygon fill="black" stroke="black" points="882.96,-77 892.96,-73.5 882.96,-70 882.96,-77"/>
</g>
<!-- 140625757232368 -->
<g id="node24" class="node">
<title>140625757232368</title>
<polygon fill="none" stroke="black" points="983,-135.5 983,-171.5 1352,-171.5 1352,-135.5 983,-135.5"/>
<text text-anchor="middle" x="1009" y="-149.8" font-family="Times,serif" font-size="14.00">v005</text>
<polyline fill="none" stroke="black" points="1035,-135.5 1035,-171.5 "/>
<text text-anchor="middle" x="1052.5" y="-149.8" font-family="Times,serif" font-size="14.00">L2</text>
<polyline fill="none" stroke="black" points="1070,-135.5 1070,-171.5 "/>
<text text-anchor="middle" x="1089" y="-149.8" font-family="Times,serif" font-size="14.00">N1</text>
<polyline fill="none" stroke="black" points="1108,-135.5 1108,-171.5 "/>
<text text-anchor="middle" x="1127" y="-149.8" font-family="Times,serif" font-size="14.00">w1</text>
<polyline fill="none" stroke="black" points="1146,-135.5 1146,-171.5 "/>
<text text-anchor="middle" x="1197" y="-149.8" font-family="Times,serif" font-size="14.00">data 0.5000</text>
<polyline fill="none" stroke="black" points="1248,-135.5 1248,-171.5 "/>
<text text-anchor="middle" x="1300" y="-149.8" font-family="Times,serif" font-size="14.00">grad 2.0000</text>
</g>
<!-- 140625757232368&#45;&gt;140625756791488* -->
<g id="edge17" class="edge">
<title>140625757232368&#45;&gt;140625756791488*</title>
<path fill="none" stroke="black" d="M1352.05,-163.22C1361.29,-163.71 1369.92,-164.17 1377.62,-164.57"/>
<polygon fill="black" stroke="black" points="1377.7,-168.08 1387.87,-165.12 1378.07,-161.09 1377.7,-168.08"/>
</g>
<!-- 140625757226416 -->
<g id="node25" class="node">
<title>140625757226416</title>
<polygon fill="none" stroke="black" points="1478,-93.5 1478,-129.5 1840,-129.5 1840,-93.5 1478,-93.5"/>
<text text-anchor="middle" x="1504" y="-107.8" font-family="Times,serif" font-size="14.00">v007</text>
<polyline fill="none" stroke="black" points="1530,-93.5 1530,-129.5 "/>
<text text-anchor="middle" x="1547.5" y="-107.8" font-family="Times,serif" font-size="14.00">L2</text>
<polyline fill="none" stroke="black" points="1565,-93.5 1565,-129.5 "/>
<text text-anchor="middle" x="1584" y="-107.8" font-family="Times,serif" font-size="14.00">N1</text>
<polyline fill="none" stroke="black" points="1603,-93.5 1603,-129.5 "/>
<text text-anchor="middle" x="1616" y="-107.8" font-family="Times,serif" font-size="14.00">b</text>
<polyline fill="none" stroke="black" points="1629,-93.5 1629,-129.5 "/>
<text text-anchor="middle" x="1682.5" y="-107.8" font-family="Times,serif" font-size="14.00">data &#45;0.0500</text>
<polyline fill="none" stroke="black" points="1736,-93.5 1736,-129.5 "/>
<text text-anchor="middle" x="1788" y="-107.8" font-family="Times,serif" font-size="14.00">grad 1.0000</text>
</g>
<!-- 140625757226416&#45;&gt;140625756794992+ -->
<g id="edge13" class="edge">
<title>140625757226416&#45;&gt;140625756794992+</title>
<path fill="none" stroke="black" d="M1840.05,-113.42C1900.18,-114.06 1961.37,-114.71 1998.88,-115.11"/>
<polygon fill="black" stroke="black" points="1999.24,-118.61 2009.27,-115.22 1999.31,-111.61 1999.24,-118.61"/>
</g>
<!-- 140625757226464 -->
<g id="node26" class="node">
<title>140625757226464</title>
<polygon fill="none" stroke="black" points="983,-0.5 983,-36.5 1352,-36.5 1352,-0.5 983,-0.5"/>
<text text-anchor="middle" x="1009" y="-14.8" font-family="Times,serif" font-size="14.00">v006</text>
<polyline fill="none" stroke="black" points="1035,-0.5 1035,-36.5 "/>
<text text-anchor="middle" x="1052.5" y="-14.8" font-family="Times,serif" font-size="14.00">L2</text>
<polyline fill="none" stroke="black" points="1070,-0.5 1070,-36.5 "/>
<text text-anchor="middle" x="1089" y="-14.8" font-family="Times,serif" font-size="14.00">N1</text>
<polyline fill="none" stroke="black" points="1108,-0.5 1108,-36.5 "/>
<text text-anchor="middle" x="1127" y="-14.8" font-family="Times,serif" font-size="14.00">w2</text>
<polyline fill="none" stroke="black" points="1146,-0.5 1146,-36.5 "/>
<text text-anchor="middle" x="1197" y="-14.8" font-family="Times,serif" font-size="14.00">data 1.1000</text>
<polyline fill="none" stroke="black" points="1248,-0.5 1248,-36.5 "/>
<text text-anchor="middle" x="1300" y="-14.8" font-family="Times,serif" font-size="14.00">grad 2.0000</text>
</g>
<!-- 140625757226464&#45;&gt;140625756892384* -->
<g id="edge10" class="edge">
<title>140625757226464&#45;&gt;140625756892384*</title>
<path fill="none" stroke="black" d="M1301.05,-36.53C1318.23,-39.3 1335.56,-42.31 1352,-45.5 1361.08,-47.26 1370.84,-49.47 1379.87,-51.65"/>
<polygon fill="black" stroke="black" points="1379.12,-55.07 1389.67,-54.07 1380.8,-48.28 1379.12,-55.07"/>
</g>
</g>
</svg>
