<?xml version="1.0" encoding="UTF-8" standalone="no"?>
<!DOCTYPE svg PUBLIC "-//W3C//DTD SVG 1.1//EN"
 "http://www.w3.org/Graphics/SVG/1.1/DTD/svg11.dtd">
<!-- Generated by graphviz version 2.43.0 (0)
 -->
<!-- Title: %3 Pages: 1 -->
<svg width="3059pt" height="265pt"
 viewBox="0.00 0.00 3059.00 265.00" xmlns="http://www.w3.org/2000/svg" xmlns:xlink="http://www.w3.org/1999/xlink">
<g id="graph0" class="graph" transform="scale(1 1) rotate(0) translate(4 261)">
<title>%3</title>
<polygon fill="white" stroke="transparent" points="-4,4 -4,-261 3055,-261 3055,4 -4,4"/>
<!-- 139883124669456 -->
<g id="node1" class="node">
<title>139883124669456</title>
<polygon fill="none" stroke="black" points="520.5,-220.5 520.5,-256.5 841.5,-256.5 841.5,-220.5 520.5,-220.5"/>
<text text-anchor="middle" x="546.5" y="-234.8" font-family="Times,serif" font-size="14.00">v055</text>
<polyline fill="none" stroke="black" points="572.5,-220.5 572.5,-256.5 "/>
<text text-anchor="middle" x="583" y="-234.8" font-family="Times,serif" font-size="14.00"> </text>
<polyline fill="none" stroke="black" points="593.5,-220.5 593.5,-256.5 "/>
<text text-anchor="middle" x="604" y="-234.8" font-family="Times,serif" font-size="14.00"> </text>
<polyline fill="none" stroke="black" points="614.5,-220.5 614.5,-256.5 "/>
<text text-anchor="middle" x="625" y="-234.8" font-family="Times,serif" font-size="14.00"> </text>
<polyline fill="none" stroke="black" points="635.5,-220.5 635.5,-256.5 "/>
<text text-anchor="middle" x="686.5" y="-234.8" font-family="Times,serif" font-size="14.00">data 0.7796</text>
<polyline fill="none" stroke="black" points="737.5,-220.5 737.5,-256.5 "/>
<text text-anchor="middle" x="789.5" y="-234.8" font-family="Times,serif" font-size="14.00">grad 0.0000</text>
</g>
<!-- 139883124670416+ -->
<g id="node22" class="node">
<title>139883124670416+</title>
<ellipse fill="none" stroke="black" cx="925" cy="-208.5" rx="27" ry="18"/>
<text text-anchor="middle" x="925" y="-204.8" font-family="Times,serif" font-size="14.00">+</text>
</g>
<!-- 139883124669456&#45;&gt;139883124670416+ -->
<g id="edge21" class="edge">
<title>139883124669456&#45;&gt;139883124670416+</title>
<path fill="none" stroke="black" d="M827.31,-220.49C849.71,-217.71 870.95,-215.08 887.78,-212.99"/>
<polygon fill="black" stroke="black" points="888.69,-216.4 898.18,-211.7 887.83,-209.46 888.69,-216.4"/>
</g>
<!-- 139883124669456* -->
<g id="node2" class="node">
<title>139883124669456*</title>
<ellipse fill="none" stroke="black" cx="437" cy="-238.5" rx="27" ry="18"/>
<text text-anchor="middle" x="437" y="-234.8" font-family="Times,serif" font-size="14.00">*</text>
</g>
<!-- 139883124669456*&#45;&gt;139883124669456 -->
<g id="edge1" class="edge">
<title>139883124669456*&#45;&gt;139883124669456</title>
<path fill="none" stroke="black" d="M464.36,-238.5C476.7,-238.5 492.53,-238.5 510,-238.5"/>
<polygon fill="black" stroke="black" points="510.46,-242 520.46,-238.5 510.46,-235 510.46,-242"/>
</g>
<!-- 139883734297632 -->
<g id="node3" class="node">
<title>139883734297632</title>
<polygon fill="none" stroke="black" points="500,-165.5 500,-201.5 862,-201.5 862,-165.5 500,-165.5"/>
<text text-anchor="middle" x="526" y="-179.8" font-family="Times,serif" font-size="14.00">v002</text>
<polyline fill="none" stroke="black" points="552,-165.5 552,-201.5 "/>
<text text-anchor="middle" x="569.5" y="-179.8" font-family="Times,serif" font-size="14.00">L1</text>
<polyline fill="none" stroke="black" points="587,-165.5 587,-201.5 "/>
<text text-anchor="middle" x="606" y="-179.8" font-family="Times,serif" font-size="14.00">N1</text>
<polyline fill="none" stroke="black" points="625,-165.5 625,-201.5 "/>
<text text-anchor="middle" x="638" y="-179.8" font-family="Times,serif" font-size="14.00">b</text>
<polyline fill="none" stroke="black" points="651,-165.5 651,-201.5 "/>
<text text-anchor="middle" x="704.5" y="-179.8" font-family="Times,serif" font-size="14.00">data &#45;0.0763</text>
<polyline fill="none" stroke="black" points="758,-165.5 758,-201.5 "/>
<text text-anchor="middle" x="810" y="-179.8" font-family="Times,serif" font-size="14.00">grad 0.0000</text>
</g>
<!-- 139883734297632&#45;&gt;139883124670416+ -->
<g id="edge20" class="edge">
<title>139883734297632&#45;&gt;139883124670416+</title>
<path fill="none" stroke="black" d="M856.27,-201.5C867.9,-202.7 878.72,-203.82 888.14,-204.8"/>
<polygon fill="black" stroke="black" points="887.84,-208.28 898.15,-205.83 888.56,-201.32 887.84,-208.28"/>
</g>
<!-- 139883124658752 -->
<g id="node4" class="node">
<title>139883124658752</title>
<polygon fill="none" stroke="black" points="988,-135.5 988,-171.5 1357,-171.5 1357,-135.5 988,-135.5"/>
<text text-anchor="middle" x="1014" y="-149.8" font-family="Times,serif" font-size="14.00">v005</text>
<polyline fill="none" stroke="black" points="1040,-135.5 1040,-171.5 "/>
<text text-anchor="middle" x="1057.5" y="-149.8" font-family="Times,serif" font-size="14.00">L2</text>
<polyline fill="none" stroke="black" points="1075,-135.5 1075,-171.5 "/>
<text text-anchor="middle" x="1094" y="-149.8" font-family="Times,serif" font-size="14.00">N1</text>
<polyline fill="none" stroke="black" points="1113,-135.5 1113,-171.5 "/>
<text text-anchor="middle" x="1132" y="-149.8" font-family="Times,serif" font-size="14.00">w1</text>
<polyline fill="none" stroke="black" points="1151,-135.5 1151,-171.5 "/>
<text text-anchor="middle" x="1202" y="-149.8" font-family="Times,serif" font-size="14.00">data 0.3723</text>
<polyline fill="none" stroke="black" points="1253,-135.5 1253,-171.5 "/>
<text text-anchor="middle" x="1305" y="-149.8" font-family="Times,serif" font-size="14.00">grad 0.0000</text>
</g>
<!-- 139883124669120* -->
<g id="node6" class="node">
<title>139883124669120*</title>
<ellipse fill="none" stroke="black" cx="1420" cy="-166.5" rx="27" ry="18"/>
<text text-anchor="middle" x="1420" y="-162.8" font-family="Times,serif" font-size="14.00">*</text>
</g>
<!-- 139883124658752&#45;&gt;139883124669120* -->
<g id="edge22" class="edge">
<title>139883124658752&#45;&gt;139883124669120*</title>
<path fill="none" stroke="black" d="M1357.05,-163.22C1366.29,-163.71 1374.92,-164.17 1382.62,-164.57"/>
<polygon fill="black" stroke="black" points="1382.7,-168.08 1392.87,-165.12 1383.07,-161.09 1382.7,-168.08"/>
</g>
<!-- 139883124669120 -->
<g id="node5" class="node">
<title>139883124669120</title>
<polygon fill="none" stroke="black" points="1503.5,-148.5 1503.5,-184.5 1824.5,-184.5 1824.5,-148.5 1503.5,-148.5"/>
<text text-anchor="middle" x="1529.5" y="-162.8" font-family="Times,serif" font-size="14.00">v059</text>
<polyline fill="none" stroke="black" points="1555.5,-148.5 1555.5,-184.5 "/>
<text text-anchor="middle" x="1566" y="-162.8" font-family="Times,serif" font-size="14.00"> </text>
<polyline fill="none" stroke="black" points="1576.5,-148.5 1576.5,-184.5 "/>
<text text-anchor="middle" x="1587" y="-162.8" font-family="Times,serif" font-size="14.00"> </text>
<polyline fill="none" stroke="black" points="1597.5,-148.5 1597.5,-184.5 "/>
<text text-anchor="middle" x="1608" y="-162.8" font-family="Times,serif" font-size="14.00"> </text>
<polyline fill="none" stroke="black" points="1618.5,-148.5 1618.5,-184.5 "/>
<text text-anchor="middle" x="1669.5" y="-162.8" font-family="Times,serif" font-size="14.00">data 0.2618</text>
<polyline fill="none" stroke="black" points="1720.5,-148.5 1720.5,-184.5 "/>
<text text-anchor="middle" x="1772.5" y="-162.8" font-family="Times,serif" font-size="14.00">grad 0.0000</text>
</g>
<!-- 139883124660192+ -->
<g id="node24" class="node">
<title>139883124660192+</title>
<ellipse fill="none" stroke="black" cx="2044" cy="-115.5" rx="27" ry="18"/>
<text text-anchor="middle" x="2044" y="-111.8" font-family="Times,serif" font-size="14.00">+</text>
</g>
<!-- 139883124669120&#45;&gt;139883124660192+ -->
<g id="edge9" class="edge">
<title>139883124669120&#45;&gt;139883124660192+</title>
<path fill="none" stroke="black" d="M1798.53,-148.48C1872.81,-138.46 1959.61,-126.75 2007.22,-120.33"/>
<polygon fill="black" stroke="black" points="2007.89,-123.77 2017.33,-118.96 2006.95,-116.83 2007.89,-123.77"/>
</g>
<!-- 139883124669120*&#45;&gt;139883124669120 -->
<g id="edge2" class="edge">
<title>139883124669120*&#45;&gt;139883124669120</title>
<path fill="none" stroke="black" d="M1447.36,-166.5C1459.7,-166.5 1475.53,-166.5 1493,-166.5"/>
<polygon fill="black" stroke="black" points="1493.46,-170 1503.46,-166.5 1493.46,-163 1493.46,-170"/>
</g>
<!-- 139883124664080 -->
<g id="node7" class="node">
<title>139883124664080</title>
<polygon fill="none" stroke="black" points="1483,-93.5 1483,-129.5 1845,-129.5 1845,-93.5 1483,-93.5"/>
<text text-anchor="middle" x="1509" y="-107.8" font-family="Times,serif" font-size="14.00">v007</text>
<polyline fill="none" stroke="black" points="1535,-93.5 1535,-129.5 "/>
<text text-anchor="middle" x="1552.5" y="-107.8" font-family="Times,serif" font-size="14.00">L2</text>
<polyline fill="none" stroke="black" points="1570,-93.5 1570,-129.5 "/>
<text text-anchor="middle" x="1589" y="-107.8" font-family="Times,serif" font-size="14.00">N1</text>
<polyline fill="none" stroke="black" points="1608,-93.5 1608,-129.5 "/>
<text text-anchor="middle" x="1621" y="-107.8" font-family="Times,serif" font-size="14.00">b</text>
<polyline fill="none" stroke="black" points="1634,-93.5 1634,-129.5 "/>
<text text-anchor="middle" x="1687.5" y="-107.8" font-family="Times,serif" font-size="14.00">data &#45;0.1500</text>
<polyline fill="none" stroke="black" points="1741,-93.5 1741,-129.5 "/>
<text text-anchor="middle" x="1793" y="-107.8" font-family="Times,serif" font-size="14.00">grad 0.0000</text>
</g>
<!-- 139883124664080&#45;&gt;139883124660192+ -->
<g id="edge15" class="edge">
<title>139883124664080&#45;&gt;139883124660192+</title>
<path fill="none" stroke="black" d="M1845.14,-113.41C1906.32,-114.05 1968.75,-114.71 2006.69,-115.12"/>
<polygon fill="black" stroke="black" points="2006.68,-118.62 2016.72,-115.22 2006.76,-111.62 2006.68,-118.62"/>
</g>
<!-- 139883734292256 -->
<g id="node8" class="node">
<title>139883734292256</title>
<polygon fill="none" stroke="black" points="2.5,-220.5 2.5,-256.5 371.5,-256.5 371.5,-220.5 2.5,-220.5"/>
<text text-anchor="middle" x="28.5" y="-234.8" font-family="Times,serif" font-size="14.00">v001</text>
<polyline fill="none" stroke="black" points="54.5,-220.5 54.5,-256.5 "/>
<text text-anchor="middle" x="72" y="-234.8" font-family="Times,serif" font-size="14.00">L1</text>
<polyline fill="none" stroke="black" points="89.5,-220.5 89.5,-256.5 "/>
<text text-anchor="middle" x="108.5" y="-234.8" font-family="Times,serif" font-size="14.00">N1</text>
<polyline fill="none" stroke="black" points="127.5,-220.5 127.5,-256.5 "/>
<text text-anchor="middle" x="146.5" y="-234.8" font-family="Times,serif" font-size="14.00">w1</text>
<polyline fill="none" stroke="black" points="165.5,-220.5 165.5,-256.5 "/>
<text text-anchor="middle" x="216.5" y="-234.8" font-family="Times,serif" font-size="14.00">data 0.1949</text>
<polyline fill="none" stroke="black" points="267.5,-220.5 267.5,-256.5 "/>
<text text-anchor="middle" x="319.5" y="-234.8" font-family="Times,serif" font-size="14.00">grad 0.0000</text>
</g>
<!-- 139883734292256&#45;&gt;139883124669456* -->
<g id="edge12" class="edge">
<title>139883734292256&#45;&gt;139883124669456*</title>
<path fill="none" stroke="black" d="M371.81,-238.5C381.88,-238.5 391.25,-238.5 399.55,-238.5"/>
<polygon fill="black" stroke="black" points="399.82,-242 409.82,-238.5 399.82,-235 399.82,-242"/>
</g>
<!-- 139883124664608 -->
<g id="node9" class="node">
<title>139883124664608</title>
<polygon fill="none" stroke="black" points="992,-55.5 992,-91.5 1353,-91.5 1353,-55.5 992,-55.5"/>
<text text-anchor="middle" x="1018" y="-69.8" font-family="Times,serif" font-size="14.00">v058</text>
<polyline fill="none" stroke="black" points="1044,-55.5 1044,-91.5 "/>
<text text-anchor="middle" x="1061.5" y="-69.8" font-family="Times,serif" font-size="14.00">L1</text>
<polyline fill="none" stroke="black" points="1079,-55.5 1079,-91.5 "/>
<text text-anchor="middle" x="1098" y="-69.8" font-family="Times,serif" font-size="14.00">N2</text>
<polyline fill="none" stroke="black" points="1117,-55.5 1117,-91.5 "/>
<text text-anchor="middle" x="1129.5" y="-69.8" font-family="Times,serif" font-size="14.00">a</text>
<polyline fill="none" stroke="black" points="1142,-55.5 1142,-91.5 "/>
<text text-anchor="middle" x="1195.5" y="-69.8" font-family="Times,serif" font-size="14.00">data &#45;0.8484</text>
<polyline fill="none" stroke="black" points="1249,-55.5 1249,-91.5 "/>
<text text-anchor="middle" x="1301" y="-69.8" font-family="Times,serif" font-size="14.00">grad 0.0000</text>
</g>
<!-- 139883124659568* -->
<g id="node17" class="node">
<title>139883124659568*</title>
<ellipse fill="none" stroke="black" cx="1420" cy="-60.5" rx="27" ry="18"/>
<text text-anchor="middle" x="1420" y="-56.8" font-family="Times,serif" font-size="14.00">*</text>
</g>
<!-- 139883124664608&#45;&gt;139883124659568* -->
<g id="edge23" class="edge">
<title>139883124664608&#45;&gt;139883124659568*</title>
<path fill="none" stroke="black" d="M1353.21,-63.98C1364.02,-63.41 1374.08,-62.88 1382.91,-62.41"/>
<polygon fill="black" stroke="black" points="1383.25,-65.9 1393.05,-61.87 1382.88,-58.91 1383.25,-65.9"/>
</g>
<!-- 139883124664608+ -->
<g id="node10" class="node">
<title>139883124664608+</title>
<ellipse fill="none" stroke="black" cx="925" cy="-73.5" rx="27" ry="18"/>
<text text-anchor="middle" x="925" y="-69.8" font-family="Times,serif" font-size="14.00">+</text>
</g>
<!-- 139883124664608+&#45;&gt;139883124664608 -->
<g id="edge3" class="edge">
<title>139883124664608+&#45;&gt;139883124664608</title>
<path fill="none" stroke="black" d="M952.27,-73.5C960.69,-73.5 970.75,-73.5 981.85,-73.5"/>
<polygon fill="black" stroke="black" points="981.87,-77 991.87,-73.5 981.87,-70 981.87,-77"/>
</g>
<!-- 139883124662544 -->
<g id="node11" class="node">
<title>139883124662544</title>
<polygon fill="none" stroke="black" points="518,-110.5 518,-146.5 844,-146.5 844,-110.5 518,-110.5"/>
<text text-anchor="middle" x="544" y="-124.8" font-family="Times,serif" font-size="14.00">v057</text>
<polyline fill="none" stroke="black" points="570,-110.5 570,-146.5 "/>
<text text-anchor="middle" x="580.5" y="-124.8" font-family="Times,serif" font-size="14.00"> </text>
<polyline fill="none" stroke="black" points="591,-110.5 591,-146.5 "/>
<text text-anchor="middle" x="601.5" y="-124.8" font-family="Times,serif" font-size="14.00"> </text>
<polyline fill="none" stroke="black" points="612,-110.5 612,-146.5 "/>
<text text-anchor="middle" x="622.5" y="-124.8" font-family="Times,serif" font-size="14.00"> </text>
<polyline fill="none" stroke="black" points="633,-110.5 633,-146.5 "/>
<text text-anchor="middle" x="686.5" y="-124.8" font-family="Times,serif" font-size="14.00">data &#45;0.6808</text>
<polyline fill="none" stroke="black" points="740,-110.5 740,-146.5 "/>
<text text-anchor="middle" x="792" y="-124.8" font-family="Times,serif" font-size="14.00">grad 0.0000</text>
</g>
<!-- 139883124662544&#45;&gt;139883124664608+ -->
<g id="edge13" class="edge">
<title>139883124662544&#45;&gt;139883124664608+</title>
<path fill="none" stroke="black" d="M821.35,-110.48C835.19,-107.6 848.94,-104.29 862,-100.5 872.68,-97.4 883.95,-92.9 893.9,-88.45"/>
<polygon fill="black" stroke="black" points="895.37,-91.63 902.98,-84.26 892.44,-85.28 895.37,-91.63"/>
</g>
<!-- 139883124662544* -->
<g id="node12" class="node">
<title>139883124662544*</title>
<ellipse fill="none" stroke="black" cx="437" cy="-128.5" rx="27" ry="18"/>
<text text-anchor="middle" x="437" y="-124.8" font-family="Times,serif" font-size="14.00">*</text>
</g>
<!-- 139883124662544*&#45;&gt;139883124662544 -->
<g id="edge4" class="edge">
<title>139883124662544*&#45;&gt;139883124662544</title>
<path fill="none" stroke="black" d="M464.36,-128.5C476.08,-128.5 490.94,-128.5 507.37,-128.5"/>
<polygon fill="black" stroke="black" points="507.79,-132 517.79,-128.5 507.79,-125 507.79,-132"/>
</g>
<!-- 139883124664656 -->
<g id="node13" class="node">
<title>139883124664656</title>
<polygon fill="none" stroke="black" points="2690,-69.5 2690,-105.5 3051,-105.5 3051,-69.5 2690,-69.5"/>
<text text-anchor="middle" x="2716" y="-83.8" font-family="Times,serif" font-size="14.00">v062</text>
<polyline fill="none" stroke="black" points="2742,-69.5 2742,-105.5 "/>
<text text-anchor="middle" x="2759.5" y="-83.8" font-family="Times,serif" font-size="14.00">L2</text>
<polyline fill="none" stroke="black" points="2777,-69.5 2777,-105.5 "/>
<text text-anchor="middle" x="2796" y="-83.8" font-family="Times,serif" font-size="14.00">N1</text>
<polyline fill="none" stroke="black" points="2815,-69.5 2815,-105.5 "/>
<text text-anchor="middle" x="2827.5" y="-83.8" font-family="Times,serif" font-size="14.00">a</text>
<polyline fill="none" stroke="black" points="2840,-69.5 2840,-105.5 "/>
<text text-anchor="middle" x="2893.5" y="-83.8" font-family="Times,serif" font-size="14.00">data &#45;0.7779</text>
<polyline fill="none" stroke="black" points="2947,-69.5 2947,-105.5 "/>
<text text-anchor="middle" x="2999" y="-83.8" font-family="Times,serif" font-size="14.00">grad 0.0000</text>
</g>
<!-- 139883124664656+ -->
<g id="node14" class="node">
<title>139883124664656+</title>
<ellipse fill="none" stroke="black" cx="2627" cy="-87.5" rx="27" ry="18"/>
<text text-anchor="middle" x="2627" y="-83.8" font-family="Times,serif" font-size="14.00">+</text>
</g>
<!-- 139883124664656+&#45;&gt;139883124664656 -->
<g id="edge5" class="edge">
<title>139883124664656+&#45;&gt;139883124664656</title>
<path fill="none" stroke="black" d="M2654.3,-87.5C2661.65,-87.5 2670.24,-87.5 2679.68,-87.5"/>
<polygon fill="black" stroke="black" points="2679.81,-91 2689.81,-87.5 2679.81,-84 2679.81,-91"/>
</g>
<!-- 139883735116112 -->
<g id="node15" class="node">
<title>139883735116112</title>
<polygon fill="none" stroke="black" points="22,-165.5 22,-201.5 352,-201.5 352,-165.5 22,-165.5"/>
<text text-anchor="middle" x="48" y="-179.8" font-family="Times,serif" font-size="14.00">v008</text>
<polyline fill="none" stroke="black" points="74,-165.5 74,-201.5 "/>
<text text-anchor="middle" x="84.5" y="-179.8" font-family="Times,serif" font-size="14.00"> </text>
<polyline fill="none" stroke="black" points="95,-165.5 95,-201.5 "/>
<text text-anchor="middle" x="105.5" y="-179.8" font-family="Times,serif" font-size="14.00"> </text>
<polyline fill="none" stroke="black" points="116,-165.5 116,-201.5 "/>
<text text-anchor="middle" x="131" y="-179.8" font-family="Times,serif" font-size="14.00">i1</text>
<polyline fill="none" stroke="black" points="146,-165.5 146,-201.5 "/>
<text text-anchor="middle" x="197" y="-179.8" font-family="Times,serif" font-size="14.00">data 4.0000</text>
<polyline fill="none" stroke="black" points="248,-165.5 248,-201.5 "/>
<text text-anchor="middle" x="300" y="-179.8" font-family="Times,serif" font-size="14.00">grad 0.0000</text>
</g>
<!-- 139883735116112&#45;&gt;139883124669456* -->
<g id="edge24" class="edge">
<title>139883735116112&#45;&gt;139883124669456*</title>
<path fill="none" stroke="black" d="M332.99,-201.54C346.96,-204.41 360.82,-207.71 374,-211.5 384.69,-214.57 395.96,-219.07 405.91,-223.51"/>
<polygon fill="black" stroke="black" points="404.44,-226.69 414.99,-227.71 407.38,-220.34 404.44,-226.69"/>
</g>
<!-- 139883735116112&#45;&gt;139883124662544* -->
<g id="edge11" class="edge">
<title>139883735116112&#45;&gt;139883124662544*</title>
<path fill="none" stroke="black" d="M338.02,-165.46C350.29,-162.86 362.41,-159.88 374,-156.5 384.83,-153.34 396.2,-148.64 406.21,-143.99"/>
<polygon fill="black" stroke="black" points="407.83,-147.09 415.32,-139.6 404.8,-140.79 407.83,-147.09"/>
</g>
<!-- 139883124659568 -->
<g id="node16" class="node">
<title>139883124659568</title>
<polygon fill="none" stroke="black" points="1881,-42.5 1881,-78.5 2207,-78.5 2207,-42.5 1881,-42.5"/>
<text text-anchor="middle" x="1907" y="-56.8" font-family="Times,serif" font-size="14.00">v061</text>
<polyline fill="none" stroke="black" points="1933,-42.5 1933,-78.5 "/>
<text text-anchor="middle" x="1943.5" y="-56.8" font-family="Times,serif" font-size="14.00"> </text>
<polyline fill="none" stroke="black" points="1954,-42.5 1954,-78.5 "/>
<text text-anchor="middle" x="1964.5" y="-56.8" font-family="Times,serif" font-size="14.00"> </text>
<polyline fill="none" stroke="black" points="1975,-42.5 1975,-78.5 "/>
<text text-anchor="middle" x="1985.5" y="-56.8" font-family="Times,serif" font-size="14.00"> </text>
<polyline fill="none" stroke="black" points="1996,-42.5 1996,-78.5 "/>
<text text-anchor="middle" x="2049.5" y="-56.8" font-family="Times,serif" font-size="14.00">data &#45;0.8897</text>
<polyline fill="none" stroke="black" points="2103,-42.5 2103,-78.5 "/>
<text text-anchor="middle" x="2155" y="-56.8" font-family="Times,serif" font-size="14.00">grad 0.0000</text>
</g>
<!-- 139883124659568&#45;&gt;139883124664656+ -->
<g id="edge14" class="edge">
<title>139883124659568&#45;&gt;139883124664656+</title>
<path fill="none" stroke="black" d="M2207.23,-68.04C2338.75,-74.15 2514.16,-82.3 2589.31,-85.79"/>
<polygon fill="black" stroke="black" points="2589.5,-89.31 2599.65,-86.28 2589.82,-82.31 2589.5,-89.31"/>
</g>
<!-- 139883124659568*&#45;&gt;139883124659568 -->
<g id="edge6" class="edge">
<title>139883124659568*&#45;&gt;139883124659568</title>
<path fill="none" stroke="black" d="M1447.33,-60.5C1518.87,-60.5 1721.46,-60.5 1870.6,-60.5"/>
<polygon fill="black" stroke="black" points="1870.79,-64 1880.79,-60.5 1870.79,-57 1870.79,-64"/>
</g>
<!-- 139883124659040 -->
<g id="node18" class="node">
<title>139883124659040</title>
<polygon fill="none" stroke="black" points="0,-110.5 0,-146.5 374,-146.5 374,-110.5 0,-110.5"/>
<text text-anchor="middle" x="26" y="-124.8" font-family="Times,serif" font-size="14.00">v003</text>
<polyline fill="none" stroke="black" points="52,-110.5 52,-146.5 "/>
<text text-anchor="middle" x="69.5" y="-124.8" font-family="Times,serif" font-size="14.00">L1</text>
<polyline fill="none" stroke="black" points="87,-110.5 87,-146.5 "/>
<text text-anchor="middle" x="106" y="-124.8" font-family="Times,serif" font-size="14.00">N2</text>
<polyline fill="none" stroke="black" points="125,-110.5 125,-146.5 "/>
<text text-anchor="middle" x="144" y="-124.8" font-family="Times,serif" font-size="14.00">w1</text>
<polyline fill="none" stroke="black" points="163,-110.5 163,-146.5 "/>
<text text-anchor="middle" x="216.5" y="-124.8" font-family="Times,serif" font-size="14.00">data &#45;0.1702</text>
<polyline fill="none" stroke="black" points="270,-110.5 270,-146.5 "/>
<text text-anchor="middle" x="322" y="-124.8" font-family="Times,serif" font-size="14.00">grad 0.0000</text>
</g>
<!-- 139883124659040&#45;&gt;139883124662544* -->
<g id="edge19" class="edge">
<title>139883124659040&#45;&gt;139883124662544*</title>
<path fill="none" stroke="black" d="M374.06,-128.5C383.31,-128.5 391.94,-128.5 399.65,-128.5"/>
<polygon fill="black" stroke="black" points="399.9,-132 409.9,-128.5 399.9,-125 399.9,-132"/>
</g>
<!-- 139883124658992 -->
<g id="node19" class="node">
<title>139883124658992</title>
<polygon fill="none" stroke="black" points="500,-55.5 500,-91.5 862,-91.5 862,-55.5 500,-55.5"/>
<text text-anchor="middle" x="526" y="-69.8" font-family="Times,serif" font-size="14.00">v004</text>
<polyline fill="none" stroke="black" points="552,-55.5 552,-91.5 "/>
<text text-anchor="middle" x="569.5" y="-69.8" font-family="Times,serif" font-size="14.00">L1</text>
<polyline fill="none" stroke="black" points="587,-55.5 587,-91.5 "/>
<text text-anchor="middle" x="606" y="-69.8" font-family="Times,serif" font-size="14.00">N2</text>
<polyline fill="none" stroke="black" points="625,-55.5 625,-91.5 "/>
<text text-anchor="middle" x="638" y="-69.8" font-family="Times,serif" font-size="14.00">b</text>
<polyline fill="none" stroke="black" points="651,-55.5 651,-91.5 "/>
<text text-anchor="middle" x="704.5" y="-69.8" font-family="Times,serif" font-size="14.00">data &#45;0.1676</text>
<polyline fill="none" stroke="black" points="758,-55.5 758,-91.5 "/>
<text text-anchor="middle" x="810" y="-69.8" font-family="Times,serif" font-size="14.00">grad 0.0000</text>
</g>
<!-- 139883124658992&#45;&gt;139883124664608+ -->
<g id="edge16" class="edge">
<title>139883124658992&#45;&gt;139883124664608+</title>
<path fill="none" stroke="black" d="M862.31,-73.5C871.5,-73.5 880.08,-73.5 887.76,-73.5"/>
<polygon fill="black" stroke="black" points="887.96,-77 897.96,-73.5 887.96,-70 887.96,-77"/>
</g>
<!-- 139883124664128 -->
<g id="node20" class="node">
<title>139883124664128</title>
<polygon fill="none" stroke="black" points="988,-0.5 988,-36.5 1357,-36.5 1357,-0.5 988,-0.5"/>
<text text-anchor="middle" x="1014" y="-14.8" font-family="Times,serif" font-size="14.00">v006</text>
<polyline fill="none" stroke="black" points="1040,-0.5 1040,-36.5 "/>
<text text-anchor="middle" x="1057.5" y="-14.8" font-family="Times,serif" font-size="14.00">L2</text>
<polyline fill="none" stroke="black" points="1075,-0.5 1075,-36.5 "/>
<text text-anchor="middle" x="1094" y="-14.8" font-family="Times,serif" font-size="14.00">N1</text>
<polyline fill="none" stroke="black" points="1113,-0.5 1113,-36.5 "/>
<text text-anchor="middle" x="1132" y="-14.8" font-family="Times,serif" font-size="14.00">w2</text>
<polyline fill="none" stroke="black" points="1151,-0.5 1151,-36.5 "/>
<text text-anchor="middle" x="1202" y="-14.8" font-family="Times,serif" font-size="14.00">data 1.0488</text>
<polyline fill="none" stroke="black" points="1253,-0.5 1253,-36.5 "/>
<text text-anchor="middle" x="1305" y="-14.8" font-family="Times,serif" font-size="14.00">grad 0.0000</text>
</g>
<!-- 139883124664128&#45;&gt;139883124659568* -->
<g id="edge10" class="edge">
<title>139883124664128&#45;&gt;139883124659568*</title>
<path fill="none" stroke="black" d="M1306.05,-36.53C1323.23,-39.3 1340.56,-42.31 1357,-45.5 1366.08,-47.26 1375.84,-49.47 1384.87,-51.65"/>
<polygon fill="black" stroke="black" points="1384.12,-55.07 1394.67,-54.07 1385.8,-48.28 1384.12,-55.07"/>
</g>
<!-- 139883124670416 -->
<g id="node21" class="node">
<title>139883124670416</title>
<polygon fill="none" stroke="black" points="994.5,-190.5 994.5,-226.5 1350.5,-226.5 1350.5,-190.5 994.5,-190.5"/>
<text text-anchor="middle" x="1020.5" y="-204.8" font-family="Times,serif" font-size="14.00">v056</text>
<polyline fill="none" stroke="black" points="1046.5,-190.5 1046.5,-226.5 "/>
<text text-anchor="middle" x="1064" y="-204.8" font-family="Times,serif" font-size="14.00">L1</text>
<polyline fill="none" stroke="black" points="1081.5,-190.5 1081.5,-226.5 "/>
<text text-anchor="middle" x="1100.5" y="-204.8" font-family="Times,serif" font-size="14.00">N1</text>
<polyline fill="none" stroke="black" points="1119.5,-190.5 1119.5,-226.5 "/>
<text text-anchor="middle" x="1132" y="-204.8" font-family="Times,serif" font-size="14.00">a</text>
<polyline fill="none" stroke="black" points="1144.5,-190.5 1144.5,-226.5 "/>
<text text-anchor="middle" x="1195.5" y="-204.8" font-family="Times,serif" font-size="14.00">data 0.7033</text>
<polyline fill="none" stroke="black" points="1246.5,-190.5 1246.5,-226.5 "/>
<text text-anchor="middle" x="1298.5" y="-204.8" font-family="Times,serif" font-size="14.00">grad 0.0000</text>
</g>
<!-- 139883124670416&#45;&gt;139883124669120* -->
<g id="edge18" class="edge">
<title>139883124670416&#45;&gt;139883124669120*</title>
<path fill="none" stroke="black" d="M1306.05,-190.47C1323.23,-187.7 1340.56,-184.69 1357,-181.5 1366.08,-179.74 1375.84,-177.53 1384.87,-175.35"/>
<polygon fill="black" stroke="black" points="1385.8,-178.72 1394.67,-172.93 1384.12,-171.93 1385.8,-178.72"/>
</g>
<!-- 139883124670416+&#45;&gt;139883124670416 -->
<g id="edge7" class="edge">
<title>139883124670416+&#45;&gt;139883124670416</title>
<path fill="none" stroke="black" d="M952.27,-208.5C961.26,-208.5 972.11,-208.5 984.12,-208.5"/>
<polygon fill="black" stroke="black" points="984.46,-212 994.46,-208.5 984.46,-205 984.46,-212"/>
</g>
<!-- 139883124660192 -->
<g id="node23" class="node">
<title>139883124660192</title>
<polygon fill="none" stroke="black" points="2243,-95.5 2243,-131.5 2564,-131.5 2564,-95.5 2243,-95.5"/>
<text text-anchor="middle" x="2269" y="-109.8" font-family="Times,serif" font-size="14.00">v060</text>
<polyline fill="none" stroke="black" points="2295,-95.5 2295,-131.5 "/>
<text text-anchor="middle" x="2305.5" y="-109.8" font-family="Times,serif" font-size="14.00"> </text>
<polyline fill="none" stroke="black" points="2316,-95.5 2316,-131.5 "/>
<text text-anchor="middle" x="2326.5" y="-109.8" font-family="Times,serif" font-size="14.00"> </text>
<polyline fill="none" stroke="black" points="2337,-95.5 2337,-131.5 "/>
<text text-anchor="middle" x="2347.5" y="-109.8" font-family="Times,serif" font-size="14.00"> </text>
<polyline fill="none" stroke="black" points="2358,-95.5 2358,-131.5 "/>
<text text-anchor="middle" x="2409" y="-109.8" font-family="Times,serif" font-size="14.00">data 0.1118</text>
<polyline fill="none" stroke="black" points="2460,-95.5 2460,-131.5 "/>
<text text-anchor="middle" x="2512" y="-109.8" font-family="Times,serif" font-size="14.00">grad 0.0000</text>
</g>
<!-- 139883124660192&#45;&gt;139883124664656+ -->
<g id="edge17" class="edge">
<title>139883124660192&#45;&gt;139883124664656+</title>
<path fill="none" stroke="black" d="M2558.04,-95.48C2569.67,-94.11 2580.55,-92.83 2590.06,-91.72"/>
<polygon fill="black" stroke="black" points="2590.64,-95.17 2600.17,-90.53 2589.83,-88.22 2590.64,-95.17"/>
</g>
<!-- 139883124660192+&#45;&gt;139883124660192 -->
<g id="edge8" class="edge">
<title>139883124660192+&#45;&gt;139883124660192</title>
<path fill="none" stroke="black" d="M2071.29,-115.35C2106.03,-115.16 2170.19,-114.8 2232.86,-114.45"/>
<polygon fill="black" stroke="black" points="2232.92,-117.95 2242.9,-114.39 2232.88,-110.95 2232.92,-117.95"/>
</g>
</g>
</svg>
