<?xml version="1.0" encoding="UTF-8" standalone="no"?>
<!DOCTYPE svg PUBLIC "-//W3C//DTD SVG 1.1//EN"
 "http://www.w3.org/Graphics/SVG/1.1/DTD/svg11.dtd">
<!-- Generated by graphviz version 2.43.0 (0)
 -->
<!-- Title: %3 Pages: 1 -->
<svg width="3515pt" height="238pt"
 viewBox="0.00 0.00 3515.00 238.00" xmlns="http://www.w3.org/2000/svg" xmlns:xlink="http://www.w3.org/1999/xlink">
<g id="graph0" class="graph" transform="scale(1 1) rotate(0) translate(4 234)">
<title>%3</title>
<polygon fill="white" stroke="transparent" points="-4,4 -4,-234 3511,-234 3511,4 -4,4"/>
<!-- 140625757230592 -->
<g id="node1" class="node">
<title>140625757230592</title>
<polygon fill="none" stroke="black" points="1885,-55.5 1885,-91.5 2211,-91.5 2211,-55.5 1885,-55.5"/>
<text text-anchor="middle" x="1911" y="-69.8" font-family="Times,serif" font-size="14.00">v052</text>
<polyline fill="none" stroke="black" points="1937,-55.5 1937,-91.5 "/>
<text text-anchor="middle" x="1947.5" y="-69.8" font-family="Times,serif" font-size="14.00"> </text>
<polyline fill="none" stroke="black" points="1958,-55.5 1958,-91.5 "/>
<text text-anchor="middle" x="1968.5" y="-69.8" font-family="Times,serif" font-size="14.00"> </text>
<polyline fill="none" stroke="black" points="1979,-55.5 1979,-91.5 "/>
<text text-anchor="middle" x="1989.5" y="-69.8" font-family="Times,serif" font-size="14.00"> </text>
<polyline fill="none" stroke="black" points="2000,-55.5 2000,-91.5 "/>
<text text-anchor="middle" x="2053.5" y="-69.8" font-family="Times,serif" font-size="14.00">data &#45;1.8984</text>
<polyline fill="none" stroke="black" points="2107,-55.5 2107,-91.5 "/>
<text text-anchor="middle" x="2159" y="-69.8" font-family="Times,serif" font-size="14.00">grad 1.0000</text>
</g>
<!-- 140625757226320+ -->
<g id="node18" class="node">
<title>140625757226320+</title>
<ellipse fill="none" stroke="black" cx="2636" cy="-100.5" rx="27" ry="18"/>
<text text-anchor="middle" x="2636" y="-96.8" font-family="Times,serif" font-size="14.00">+</text>
</g>
<!-- 140625757230592&#45;&gt;140625757226320+ -->
<g id="edge26" class="edge">
<title>140625757230592&#45;&gt;140625757226320+</title>
<path fill="none" stroke="black" d="M2211.07,-80.97C2344.09,-87.1 2522.44,-95.31 2598.34,-98.81"/>
<polygon fill="black" stroke="black" points="2598.62,-102.33 2608.77,-99.29 2598.95,-95.33 2598.62,-102.33"/>
</g>
<!-- 140625757230592* -->
<g id="node2" class="node">
<title>140625757230592*</title>
<ellipse fill="none" stroke="black" cx="1424" cy="-73.5" rx="27" ry="18"/>
<text text-anchor="middle" x="1424" y="-69.8" font-family="Times,serif" font-size="14.00">*</text>
</g>
<!-- 140625757230592*&#45;&gt;140625757230592 -->
<g id="edge1" class="edge">
<title>140625757230592*&#45;&gt;140625757230592</title>
<path fill="none" stroke="black" d="M1451.33,-73.5C1522.87,-73.5 1725.46,-73.5 1874.6,-73.5"/>
<polygon fill="black" stroke="black" points="1874.79,-77 1884.79,-73.5 1874.79,-70 1874.79,-77"/>
</g>
<!-- 140626156264448 -->
<g id="node3" class="node">
<title>140626156264448</title>
<polygon fill="none" stroke="black" points="994,-55.5 994,-91.5 1355,-91.5 1355,-55.5 994,-55.5"/>
<text text-anchor="middle" x="1020" y="-69.8" font-family="Times,serif" font-size="14.00">v049</text>
<polyline fill="none" stroke="black" points="1046,-55.5 1046,-91.5 "/>
<text text-anchor="middle" x="1063.5" y="-69.8" font-family="Times,serif" font-size="14.00">L1</text>
<polyline fill="none" stroke="black" points="1081,-55.5 1081,-91.5 "/>
<text text-anchor="middle" x="1100" y="-69.8" font-family="Times,serif" font-size="14.00">N2</text>
<polyline fill="none" stroke="black" points="1119,-55.5 1119,-91.5 "/>
<text text-anchor="middle" x="1131.5" y="-69.8" font-family="Times,serif" font-size="14.00">a</text>
<polyline fill="none" stroke="black" points="1144,-55.5 1144,-91.5 "/>
<text text-anchor="middle" x="1197.5" y="-69.8" font-family="Times,serif" font-size="14.00">data &#45;1.7398</text>
<polyline fill="none" stroke="black" points="1251,-55.5 1251,-91.5 "/>
<text text-anchor="middle" x="1303" y="-69.8" font-family="Times,serif" font-size="14.00">grad 1.0912</text>
</g>
<!-- 140626156264448&#45;&gt;140625757230592* -->
<g id="edge23" class="edge">
<title>140626156264448&#45;&gt;140625757230592*</title>
<path fill="none" stroke="black" d="M1355.04,-73.5C1366.51,-73.5 1377.18,-73.5 1386.5,-73.5"/>
<polygon fill="black" stroke="black" points="1386.79,-77 1396.79,-73.5 1386.79,-70 1386.79,-77"/>
</g>
<!-- 140626156264448+ -->
<g id="node4" class="node">
<title>140626156264448+</title>
<ellipse fill="none" stroke="black" cx="925" cy="-73.5" rx="27" ry="18"/>
<text text-anchor="middle" x="925" y="-69.8" font-family="Times,serif" font-size="14.00">+</text>
</g>
<!-- 140626156264448+&#45;&gt;140626156264448 -->
<g id="edge2" class="edge">
<title>140626156264448+&#45;&gt;140626156264448</title>
<path fill="none" stroke="black" d="M952.02,-73.5C960.94,-73.5 971.72,-73.5 983.66,-73.5"/>
<polygon fill="black" stroke="black" points="983.95,-77 993.95,-73.5 983.95,-70 983.95,-77"/>
</g>
<!-- 140625757228576 -->
<g id="node5" class="node">
<title>140625757228576</title>
<polygon fill="none" stroke="black" points="0,-56.5 0,-92.5 374,-92.5 374,-56.5 0,-56.5"/>
<text text-anchor="middle" x="26" y="-70.8" font-family="Times,serif" font-size="14.00">v003</text>
<polyline fill="none" stroke="black" points="52,-56.5 52,-92.5 "/>
<text text-anchor="middle" x="69.5" y="-70.8" font-family="Times,serif" font-size="14.00">L1</text>
<polyline fill="none" stroke="black" points="87,-56.5 87,-92.5 "/>
<text text-anchor="middle" x="106" y="-70.8" font-family="Times,serif" font-size="14.00">N2</text>
<polyline fill="none" stroke="black" points="125,-56.5 125,-92.5 "/>
<text text-anchor="middle" x="144" y="-70.8" font-family="Times,serif" font-size="14.00">w1</text>
<polyline fill="none" stroke="black" points="163,-56.5 163,-92.5 "/>
<text text-anchor="middle" x="216.5" y="-70.8" font-family="Times,serif" font-size="14.00">data &#45;0.5982</text>
<polyline fill="none" stroke="black" points="270,-56.5 270,-92.5 "/>
<text text-anchor="middle" x="322" y="-70.8" font-family="Times,serif" font-size="14.00">grad 4.3647</text>
</g>
<!-- 140626156268480* -->
<g id="node23" class="node">
<title>140626156268480*</title>
<ellipse fill="none" stroke="black" cx="437" cy="-101.5" rx="27" ry="18"/>
<text text-anchor="middle" x="437" y="-97.8" font-family="Times,serif" font-size="14.00">*</text>
</g>
<!-- 140625757228576&#45;&gt;140626156268480* -->
<g id="edge18" class="edge">
<title>140625757228576&#45;&gt;140626156268480*</title>
<path fill="none" stroke="black" d="M353.42,-92.51C370.67,-94.39 386.71,-96.13 399.97,-97.58"/>
<polygon fill="black" stroke="black" points="399.67,-101.07 409.99,-98.67 400.43,-94.11 399.67,-101.07"/>
</g>
<!-- 140625757229584 -->
<g id="node6" class="node">
<title>140625757229584</title>
<polygon fill="none" stroke="black" points="2.5,-166.5 2.5,-202.5 371.5,-202.5 371.5,-166.5 2.5,-166.5"/>
<text text-anchor="middle" x="28.5" y="-180.8" font-family="Times,serif" font-size="14.00">v001</text>
<polyline fill="none" stroke="black" points="54.5,-166.5 54.5,-202.5 "/>
<text text-anchor="middle" x="72" y="-180.8" font-family="Times,serif" font-size="14.00">L1</text>
<polyline fill="none" stroke="black" points="89.5,-166.5 89.5,-202.5 "/>
<text text-anchor="middle" x="108.5" y="-180.8" font-family="Times,serif" font-size="14.00">N1</text>
<polyline fill="none" stroke="black" points="127.5,-166.5 127.5,-202.5 "/>
<text text-anchor="middle" x="146.5" y="-180.8" font-family="Times,serif" font-size="14.00">w1</text>
<polyline fill="none" stroke="black" points="165.5,-166.5 165.5,-202.5 "/>
<text text-anchor="middle" x="216.5" y="-180.8" font-family="Times,serif" font-size="14.00">data 0.0530</text>
<polyline fill="none" stroke="black" points="267.5,-166.5 267.5,-202.5 "/>
<text text-anchor="middle" x="319.5" y="-180.8" font-family="Times,serif" font-size="14.00">grad 1.3483</text>
</g>
<!-- 140626156264352* -->
<g id="node20" class="node">
<title>140626156264352*</title>
<ellipse fill="none" stroke="black" cx="437" cy="-156.5" rx="27" ry="18"/>
<text text-anchor="middle" x="437" y="-152.8" font-family="Times,serif" font-size="14.00">*</text>
</g>
<!-- 140625757229584&#45;&gt;140626156264352* -->
<g id="edge21" class="edge">
<title>140625757229584&#45;&gt;140626156264352*</title>
<path fill="none" stroke="black" d="M347.52,-166.49C367.04,-164.29 385.28,-162.23 400.06,-160.56"/>
<polygon fill="black" stroke="black" points="400.64,-164.01 410.19,-159.41 399.86,-157.06 400.64,-164.01"/>
</g>
<!-- 140626156263008 -->
<g id="node7" class="node">
<title>140626156263008</title>
<polygon fill="none" stroke="black" points="2247,-108.5 2247,-144.5 2573,-144.5 2573,-108.5 2247,-108.5"/>
<text text-anchor="middle" x="2273" y="-122.8" font-family="Times,serif" font-size="14.00">v051</text>
<polyline fill="none" stroke="black" points="2299,-108.5 2299,-144.5 "/>
<text text-anchor="middle" x="2309.5" y="-122.8" font-family="Times,serif" font-size="14.00"> </text>
<polyline fill="none" stroke="black" points="2320,-108.5 2320,-144.5 "/>
<text text-anchor="middle" x="2330.5" y="-122.8" font-family="Times,serif" font-size="14.00"> </text>
<polyline fill="none" stroke="black" points="2341,-108.5 2341,-144.5 "/>
<text text-anchor="middle" x="2351.5" y="-122.8" font-family="Times,serif" font-size="14.00"> </text>
<polyline fill="none" stroke="black" points="2362,-108.5 2362,-144.5 "/>
<text text-anchor="middle" x="2415.5" y="-122.8" font-family="Times,serif" font-size="14.00">data &#45;0.0696</text>
<polyline fill="none" stroke="black" points="2469,-108.5 2469,-144.5 "/>
<text text-anchor="middle" x="2521" y="-122.8" font-family="Times,serif" font-size="14.00">grad 1.0000</text>
</g>
<!-- 140626156263008&#45;&gt;140625757226320+ -->
<g id="edge20" class="edge">
<title>140626156263008&#45;&gt;140625757226320+</title>
<path fill="none" stroke="black" d="M2566.27,-108.48C2578.27,-107.09 2589.48,-105.78 2599.23,-104.65"/>
<polygon fill="black" stroke="black" points="2599.67,-108.12 2609.2,-103.49 2598.86,-101.17 2599.67,-108.12"/>
</g>
<!-- 140626156263008+ -->
<g id="node8" class="node">
<title>140626156263008+</title>
<ellipse fill="none" stroke="black" cx="2048" cy="-128.5" rx="27" ry="18"/>
<text text-anchor="middle" x="2048" y="-124.8" font-family="Times,serif" font-size="14.00">+</text>
</g>
<!-- 140626156263008+&#45;&gt;140626156263008 -->
<g id="edge3" class="edge">
<title>140626156263008+&#45;&gt;140626156263008</title>
<path fill="none" stroke="black" d="M2075.18,-128.35C2109.81,-128.16 2173.83,-127.81 2236.62,-127.46"/>
<polygon fill="black" stroke="black" points="2236.7,-130.96 2246.68,-127.4 2236.66,-123.96 2236.7,-130.96"/>
</g>
<!-- 140626156266608 -->
<g id="node9" class="node">
<title>140626156266608</title>
<polygon fill="none" stroke="black" points="3186,-82.5 3186,-118.5 3507,-118.5 3507,-82.5 3186,-82.5"/>
<text text-anchor="middle" x="3212" y="-96.8" font-family="Times,serif" font-size="14.00">v054</text>
<polyline fill="none" stroke="black" points="3238,-82.5 3238,-118.5 "/>
<text text-anchor="middle" x="3248.5" y="-96.8" font-family="Times,serif" font-size="14.00"> </text>
<polyline fill="none" stroke="black" points="3259,-82.5 3259,-118.5 "/>
<text text-anchor="middle" x="3269.5" y="-96.8" font-family="Times,serif" font-size="14.00"> </text>
<polyline fill="none" stroke="black" points="3280,-82.5 3280,-118.5 "/>
<text text-anchor="middle" x="3290.5" y="-96.8" font-family="Times,serif" font-size="14.00"> </text>
<polyline fill="none" stroke="black" points="3301,-82.5 3301,-118.5 "/>
<text text-anchor="middle" x="3352" y="-96.8" font-family="Times,serif" font-size="14.00">data 3.8729</text>
<polyline fill="none" stroke="black" points="3403,-82.5 3403,-118.5 "/>
<text text-anchor="middle" x="3455" y="-96.8" font-family="Times,serif" font-size="14.00">grad 0.0000</text>
</g>
<!-- 140626156266608* -->
<g id="node10" class="node">
<title>140626156266608*</title>
<ellipse fill="none" stroke="black" cx="3123" cy="-100.5" rx="27" ry="18"/>
<text text-anchor="middle" x="3123" y="-96.8" font-family="Times,serif" font-size="14.00">*</text>
</g>
<!-- 140626156266608*&#45;&gt;140626156266608 -->
<g id="edge4" class="edge">
<title>140626156266608*&#45;&gt;140626156266608</title>
<path fill="none" stroke="black" d="M3150.28,-100.5C3157.68,-100.5 3166.32,-100.5 3175.76,-100.5"/>
<polygon fill="black" stroke="black" points="3175.88,-104 3185.88,-100.5 3175.88,-97 3175.88,-104"/>
</g>
<!-- 140625757228720 -->
<g id="node11" class="node">
<title>140625757228720</title>
<polygon fill="none" stroke="black" points="500,-193.5 500,-229.5 862,-229.5 862,-193.5 500,-193.5"/>
<text text-anchor="middle" x="526" y="-207.8" font-family="Times,serif" font-size="14.00">v002</text>
<polyline fill="none" stroke="black" points="552,-193.5 552,-229.5 "/>
<text text-anchor="middle" x="569.5" y="-207.8" font-family="Times,serif" font-size="14.00">L1</text>
<polyline fill="none" stroke="black" points="587,-193.5 587,-229.5 "/>
<text text-anchor="middle" x="606" y="-207.8" font-family="Times,serif" font-size="14.00">N1</text>
<polyline fill="none" stroke="black" points="625,-193.5 625,-229.5 "/>
<text text-anchor="middle" x="638" y="-207.8" font-family="Times,serif" font-size="14.00">b</text>
<polyline fill="none" stroke="black" points="651,-193.5 651,-229.5 "/>
<text text-anchor="middle" x="704.5" y="-207.8" font-family="Times,serif" font-size="14.00">data &#45;0.1117</text>
<polyline fill="none" stroke="black" points="758,-193.5 758,-229.5 "/>
<text text-anchor="middle" x="810" y="-207.8" font-family="Times,serif" font-size="14.00">grad 0.3371</text>
</g>
<!-- 140626156269776+ -->
<g id="node13" class="node">
<title>140626156269776+</title>
<ellipse fill="none" stroke="black" cx="925" cy="-183.5" rx="27" ry="18"/>
<text text-anchor="middle" x="925" y="-179.8" font-family="Times,serif" font-size="14.00">+</text>
</g>
<!-- 140625757228720&#45;&gt;140626156269776+ -->
<g id="edge15" class="edge">
<title>140625757228720&#45;&gt;140626156269776+</title>
<path fill="none" stroke="black" d="M837.66,-193.49C856.23,-191.34 873.61,-189.33 887.84,-187.68"/>
<polygon fill="black" stroke="black" points="888.54,-191.13 898.08,-186.5 887.74,-184.17 888.54,-191.13"/>
</g>
<!-- 140626156269776 -->
<g id="node12" class="node">
<title>140626156269776</title>
<polygon fill="none" stroke="black" points="996.5,-165.5 996.5,-201.5 1352.5,-201.5 1352.5,-165.5 996.5,-165.5"/>
<text text-anchor="middle" x="1022.5" y="-179.8" font-family="Times,serif" font-size="14.00">v047</text>
<polyline fill="none" stroke="black" points="1048.5,-165.5 1048.5,-201.5 "/>
<text text-anchor="middle" x="1066" y="-179.8" font-family="Times,serif" font-size="14.00">L1</text>
<polyline fill="none" stroke="black" points="1083.5,-165.5 1083.5,-201.5 "/>
<text text-anchor="middle" x="1102.5" y="-179.8" font-family="Times,serif" font-size="14.00">N1</text>
<polyline fill="none" stroke="black" points="1121.5,-165.5 1121.5,-201.5 "/>
<text text-anchor="middle" x="1134" y="-179.8" font-family="Times,serif" font-size="14.00">a</text>
<polyline fill="none" stroke="black" points="1146.5,-165.5 1146.5,-201.5 "/>
<text text-anchor="middle" x="1197.5" y="-179.8" font-family="Times,serif" font-size="14.00">data 0.3869</text>
<polyline fill="none" stroke="black" points="1248.5,-165.5 1248.5,-201.5 "/>
<text text-anchor="middle" x="1300.5" y="-179.8" font-family="Times,serif" font-size="14.00">grad 0.3371</text>
</g>
<!-- 140626156269488* -->
<g id="node26" class="node">
<title>140626156269488*</title>
<ellipse fill="none" stroke="black" cx="1424" cy="-128.5" rx="27" ry="18"/>
<text text-anchor="middle" x="1424" y="-124.8" font-family="Times,serif" font-size="14.00">*</text>
</g>
<!-- 140626156269776&#45;&gt;140626156269488* -->
<g id="edge24" class="edge">
<title>140626156269776&#45;&gt;140626156269488*</title>
<path fill="none" stroke="black" d="M1320.1,-165.45C1334.03,-162.58 1347.85,-159.28 1361,-155.5 1371.69,-152.42 1382.95,-147.93 1392.91,-143.48"/>
<polygon fill="black" stroke="black" points="1394.38,-146.66 1401.99,-139.29 1391.44,-140.3 1394.38,-146.66"/>
</g>
<!-- 140626156269776+&#45;&gt;140626156269776 -->
<g id="edge5" class="edge">
<title>140626156269776+&#45;&gt;140626156269776</title>
<path fill="none" stroke="black" d="M952.02,-183.5C961.56,-183.5 973.24,-183.5 986.18,-183.5"/>
<polygon fill="black" stroke="black" points="986.32,-187 996.32,-183.5 986.32,-180 986.32,-187"/>
</g>
<!-- 140625757228768 -->
<g id="node14" class="node">
<title>140625757228768</title>
<polygon fill="none" stroke="black" points="500,-28.5 500,-64.5 862,-64.5 862,-28.5 500,-28.5"/>
<text text-anchor="middle" x="526" y="-42.8" font-family="Times,serif" font-size="14.00">v004</text>
<polyline fill="none" stroke="black" points="552,-28.5 552,-64.5 "/>
<text text-anchor="middle" x="569.5" y="-42.8" font-family="Times,serif" font-size="14.00">L1</text>
<polyline fill="none" stroke="black" points="587,-28.5 587,-64.5 "/>
<text text-anchor="middle" x="606" y="-42.8" font-family="Times,serif" font-size="14.00">N2</text>
<polyline fill="none" stroke="black" points="625,-28.5 625,-64.5 "/>
<text text-anchor="middle" x="638" y="-42.8" font-family="Times,serif" font-size="14.00">b</text>
<polyline fill="none" stroke="black" points="651,-28.5 651,-64.5 "/>
<text text-anchor="middle" x="704.5" y="-42.8" font-family="Times,serif" font-size="14.00">data &#45;0.2745</text>
<polyline fill="none" stroke="black" points="758,-28.5 758,-64.5 "/>
<text text-anchor="middle" x="810" y="-42.8" font-family="Times,serif" font-size="14.00">grad 1.0912</text>
</g>
<!-- 140625757228768&#45;&gt;140626156264448+ -->
<g id="edge16" class="edge">
<title>140625757228768&#45;&gt;140626156264448+</title>
<path fill="none" stroke="black" d="M843.42,-64.51C859.94,-66.35 875.34,-68.07 888.15,-69.5"/>
<polygon fill="black" stroke="black" points="887.94,-73 898.27,-70.63 888.72,-66.04 887.94,-73"/>
</g>
<!-- 140626157073648 -->
<g id="node15" class="node">
<title>140626157073648</title>
<polygon fill="none" stroke="black" points="20,-111.5 20,-147.5 354,-147.5 354,-111.5 20,-111.5"/>
<text text-anchor="middle" x="46" y="-125.8" font-family="Times,serif" font-size="14.00">v008</text>
<polyline fill="none" stroke="black" points="72,-111.5 72,-147.5 "/>
<text text-anchor="middle" x="82.5" y="-125.8" font-family="Times,serif" font-size="14.00"> </text>
<polyline fill="none" stroke="black" points="93,-111.5 93,-147.5 "/>
<text text-anchor="middle" x="103.5" y="-125.8" font-family="Times,serif" font-size="14.00"> </text>
<polyline fill="none" stroke="black" points="114,-111.5 114,-147.5 "/>
<text text-anchor="middle" x="129" y="-125.8" font-family="Times,serif" font-size="14.00">i1</text>
<polyline fill="none" stroke="black" points="144,-111.5 144,-147.5 "/>
<text text-anchor="middle" x="195" y="-125.8" font-family="Times,serif" font-size="14.00">data 4.0000</text>
<polyline fill="none" stroke="black" points="246,-111.5 246,-147.5 "/>
<text text-anchor="middle" x="300" y="-125.8" font-family="Times,serif" font-size="14.00">grad &#45;0.3740</text>
</g>
<!-- 140626157073648&#45;&gt;140626156264352* -->
<g id="edge11" class="edge">
<title>140626157073648&#45;&gt;140626156264352*</title>
<path fill="none" stroke="black" d="M353.42,-147.51C370.67,-149.39 386.71,-151.13 399.97,-152.58"/>
<polygon fill="black" stroke="black" points="399.67,-156.07 409.99,-153.67 400.43,-149.11 399.67,-156.07"/>
</g>
<!-- 140626157073648&#45;&gt;140626156268480* -->
<g id="edge17" class="edge">
<title>140626157073648&#45;&gt;140626156268480*</title>
<path fill="none" stroke="black" d="M347.52,-111.49C367.04,-109.29 385.28,-107.23 400.06,-105.56"/>
<polygon fill="black" stroke="black" points="400.64,-109.01 410.19,-104.41 399.86,-102.06 400.64,-109.01"/>
</g>
<!-- 140625757232368 -->
<g id="node16" class="node">
<title>140625757232368</title>
<polygon fill="none" stroke="black" points="990,-110.5 990,-146.5 1359,-146.5 1359,-110.5 990,-110.5"/>
<text text-anchor="middle" x="1016" y="-124.8" font-family="Times,serif" font-size="14.00">v005</text>
<polyline fill="none" stroke="black" points="1042,-110.5 1042,-146.5 "/>
<text text-anchor="middle" x="1059.5" y="-124.8" font-family="Times,serif" font-size="14.00">L2</text>
<polyline fill="none" stroke="black" points="1077,-110.5 1077,-146.5 "/>
<text text-anchor="middle" x="1096" y="-124.8" font-family="Times,serif" font-size="14.00">N1</text>
<polyline fill="none" stroke="black" points="1115,-110.5 1115,-146.5 "/>
<text text-anchor="middle" x="1134" y="-124.8" font-family="Times,serif" font-size="14.00">w1</text>
<polyline fill="none" stroke="black" points="1153,-110.5 1153,-146.5 "/>
<text text-anchor="middle" x="1204" y="-124.8" font-family="Times,serif" font-size="14.00">data 0.3177</text>
<polyline fill="none" stroke="black" points="1255,-110.5 1255,-146.5 "/>
<text text-anchor="middle" x="1307" y="-124.8" font-family="Times,serif" font-size="14.00">grad 0.3869</text>
</g>
<!-- 140625757232368&#45;&gt;140626156269488* -->
<g id="edge22" class="edge">
<title>140625757232368&#45;&gt;140626156269488*</title>
<path fill="none" stroke="black" d="M1359.26,-128.5C1369.16,-128.5 1378.39,-128.5 1386.57,-128.5"/>
<polygon fill="black" stroke="black" points="1386.7,-132 1396.7,-128.5 1386.7,-125 1386.7,-132"/>
</g>
<!-- 140625757226320 -->
<g id="node17" class="node">
<title>140625757226320</title>
<polygon fill="none" stroke="black" points="2699,-82.5 2699,-118.5 3060,-118.5 3060,-82.5 2699,-82.5"/>
<text text-anchor="middle" x="2725" y="-96.8" font-family="Times,serif" font-size="14.00">v053</text>
<polyline fill="none" stroke="black" points="2751,-82.5 2751,-118.5 "/>
<text text-anchor="middle" x="2768.5" y="-96.8" font-family="Times,serif" font-size="14.00">L2</text>
<polyline fill="none" stroke="black" points="2786,-82.5 2786,-118.5 "/>
<text text-anchor="middle" x="2805" y="-96.8" font-family="Times,serif" font-size="14.00">N1</text>
<polyline fill="none" stroke="black" points="2824,-82.5 2824,-118.5 "/>
<text text-anchor="middle" x="2836.5" y="-96.8" font-family="Times,serif" font-size="14.00">a</text>
<polyline fill="none" stroke="black" points="2849,-82.5 2849,-118.5 "/>
<text text-anchor="middle" x="2902.5" y="-96.8" font-family="Times,serif" font-size="14.00">data &#45;1.9680</text>
<polyline fill="none" stroke="black" points="2956,-82.5 2956,-118.5 "/>
<text text-anchor="middle" x="3008" y="-96.8" font-family="Times,serif" font-size="14.00">grad 1.0000</text>
</g>
<!-- 140625757226320&#45;&gt;140626156266608* -->
<g id="edge19" class="edge">
<title>140625757226320&#45;&gt;140626156266608*</title>
<path fill="none" stroke="black" d="M3060.12,-100.5C3069.34,-100.5 3077.94,-100.5 3085.64,-100.5"/>
<polygon fill="black" stroke="black" points="3085.87,-104 3095.87,-100.5 3085.87,-97 3085.87,-104"/>
</g>
<!-- 140625757226320+&#45;&gt;140625757226320 -->
<g id="edge6" class="edge">
<title>140625757226320+&#45;&gt;140625757226320</title>
<path fill="none" stroke="black" d="M2663.3,-100.5C2670.65,-100.5 2679.24,-100.5 2688.68,-100.5"/>
<polygon fill="black" stroke="black" points="2688.81,-104 2698.81,-100.5 2688.81,-97 2688.81,-104"/>
</g>
<!-- 140626156264352 -->
<g id="node19" class="node">
<title>140626156264352</title>
<polygon fill="none" stroke="black" points="520.5,-138.5 520.5,-174.5 841.5,-174.5 841.5,-138.5 520.5,-138.5"/>
<text text-anchor="middle" x="546.5" y="-152.8" font-family="Times,serif" font-size="14.00">v046</text>
<polyline fill="none" stroke="black" points="572.5,-138.5 572.5,-174.5 "/>
<text text-anchor="middle" x="583" y="-152.8" font-family="Times,serif" font-size="14.00"> </text>
<polyline fill="none" stroke="black" points="593.5,-138.5 593.5,-174.5 "/>
<text text-anchor="middle" x="604" y="-152.8" font-family="Times,serif" font-size="14.00"> </text>
<polyline fill="none" stroke="black" points="614.5,-138.5 614.5,-174.5 "/>
<text text-anchor="middle" x="625" y="-152.8" font-family="Times,serif" font-size="14.00"> </text>
<polyline fill="none" stroke="black" points="635.5,-138.5 635.5,-174.5 "/>
<text text-anchor="middle" x="686.5" y="-152.8" font-family="Times,serif" font-size="14.00">data 0.4818</text>
<polyline fill="none" stroke="black" points="737.5,-138.5 737.5,-174.5 "/>
<text text-anchor="middle" x="789.5" y="-152.8" font-family="Times,serif" font-size="14.00">grad 0.3371</text>
</g>
<!-- 140626156264352&#45;&gt;140626156269776+ -->
<g id="edge14" class="edge">
<title>140626156264352&#45;&gt;140626156269776+</title>
<path fill="none" stroke="black" d="M841.73,-174.32C858.85,-176.23 874.82,-178.01 888.04,-179.49"/>
<polygon fill="black" stroke="black" points="887.7,-182.97 898.03,-180.6 888.48,-176.01 887.7,-182.97"/>
</g>
<!-- 140626156264352*&#45;&gt;140626156264352 -->
<g id="edge7" class="edge">
<title>140626156264352*&#45;&gt;140626156264352</title>
<path fill="none" stroke="black" d="M464.36,-156.5C476.7,-156.5 492.53,-156.5 510,-156.5"/>
<polygon fill="black" stroke="black" points="510.46,-160 520.46,-156.5 510.46,-153 510.46,-160"/>
</g>
<!-- 140625757226416 -->
<g id="node21" class="node">
<title>140625757226416</title>
<polygon fill="none" stroke="black" points="1487,-165.5 1487,-201.5 1849,-201.5 1849,-165.5 1487,-165.5"/>
<text text-anchor="middle" x="1513" y="-179.8" font-family="Times,serif" font-size="14.00">v007</text>
<polyline fill="none" stroke="black" points="1539,-165.5 1539,-201.5 "/>
<text text-anchor="middle" x="1556.5" y="-179.8" font-family="Times,serif" font-size="14.00">L2</text>
<polyline fill="none" stroke="black" points="1574,-165.5 1574,-201.5 "/>
<text text-anchor="middle" x="1593" y="-179.8" font-family="Times,serif" font-size="14.00">N1</text>
<polyline fill="none" stroke="black" points="1612,-165.5 1612,-201.5 "/>
<text text-anchor="middle" x="1625" y="-179.8" font-family="Times,serif" font-size="14.00">b</text>
<polyline fill="none" stroke="black" points="1638,-165.5 1638,-201.5 "/>
<text text-anchor="middle" x="1691.5" y="-179.8" font-family="Times,serif" font-size="14.00">data &#45;0.2500</text>
<polyline fill="none" stroke="black" points="1745,-165.5 1745,-201.5 "/>
<text text-anchor="middle" x="1797" y="-179.8" font-family="Times,serif" font-size="14.00">grad 1.0000</text>
</g>
<!-- 140625757226416&#45;&gt;140626156263008+ -->
<g id="edge12" class="edge">
<title>140625757226416&#45;&gt;140626156263008+</title>
<path fill="none" stroke="black" d="M1792.77,-165.49C1869.16,-154.38 1961.75,-140.9 2011.41,-133.68"/>
<polygon fill="black" stroke="black" points="2011.94,-137.14 2021.33,-132.23 2010.93,-130.21 2011.94,-137.14"/>
</g>
<!-- 140626156268480 -->
<g id="node22" class="node">
<title>140626156268480</title>
<polygon fill="none" stroke="black" points="518,-83.5 518,-119.5 844,-119.5 844,-83.5 518,-83.5"/>
<text text-anchor="middle" x="544" y="-97.8" font-family="Times,serif" font-size="14.00">v048</text>
<polyline fill="none" stroke="black" points="570,-83.5 570,-119.5 "/>
<text text-anchor="middle" x="580.5" y="-97.8" font-family="Times,serif" font-size="14.00"> </text>
<polyline fill="none" stroke="black" points="591,-83.5 591,-119.5 "/>
<text text-anchor="middle" x="601.5" y="-97.8" font-family="Times,serif" font-size="14.00"> </text>
<polyline fill="none" stroke="black" points="612,-83.5 612,-119.5 "/>
<text text-anchor="middle" x="622.5" y="-97.8" font-family="Times,serif" font-size="14.00"> </text>
<polyline fill="none" stroke="black" points="633,-83.5 633,-119.5 "/>
<text text-anchor="middle" x="686.5" y="-97.8" font-family="Times,serif" font-size="14.00">data &#45;1.5198</text>
<polyline fill="none" stroke="black" points="740,-83.5 740,-119.5 "/>
<text text-anchor="middle" x="792" y="-97.8" font-family="Times,serif" font-size="14.00">grad 1.0912</text>
</g>
<!-- 140626156268480&#45;&gt;140626156264448+ -->
<g id="edge25" class="edge">
<title>140626156268480&#45;&gt;140626156264448+</title>
<path fill="none" stroke="black" d="M837.66,-83.49C856.23,-81.34 873.61,-79.33 887.84,-77.68"/>
<polygon fill="black" stroke="black" points="888.54,-81.13 898.08,-76.5 887.74,-74.17 888.54,-81.13"/>
</g>
<!-- 140626156268480*&#45;&gt;140626156268480 -->
<g id="edge8" class="edge">
<title>140626156268480*&#45;&gt;140626156268480</title>
<path fill="none" stroke="black" d="M464.36,-101.5C476.08,-101.5 490.94,-101.5 507.37,-101.5"/>
<polygon fill="black" stroke="black" points="507.79,-105 517.79,-101.5 507.79,-98 507.79,-105"/>
</g>
<!-- 140625757226464 -->
<g id="node24" class="node">
<title>140625757226464</title>
<polygon fill="none" stroke="black" points="988,-0.5 988,-36.5 1361,-36.5 1361,-0.5 988,-0.5"/>
<text text-anchor="middle" x="1014" y="-14.8" font-family="Times,serif" font-size="14.00">v006</text>
<polyline fill="none" stroke="black" points="1040,-0.5 1040,-36.5 "/>
<text text-anchor="middle" x="1057.5" y="-14.8" font-family="Times,serif" font-size="14.00">L2</text>
<polyline fill="none" stroke="black" points="1075,-0.5 1075,-36.5 "/>
<text text-anchor="middle" x="1094" y="-14.8" font-family="Times,serif" font-size="14.00">N1</text>
<polyline fill="none" stroke="black" points="1113,-0.5 1113,-36.5 "/>
<text text-anchor="middle" x="1132" y="-14.8" font-family="Times,serif" font-size="14.00">w2</text>
<polyline fill="none" stroke="black" points="1151,-0.5 1151,-36.5 "/>
<text text-anchor="middle" x="1202" y="-14.8" font-family="Times,serif" font-size="14.00">data 1.1782</text>
<polyline fill="none" stroke="black" points="1253,-0.5 1253,-36.5 "/>
<text text-anchor="middle" x="1307" y="-14.8" font-family="Times,serif" font-size="14.00">grad &#45;1.7398</text>
</g>
<!-- 140625757226464&#45;&gt;140625757230592* -->
<g id="edge10" class="edge">
<title>140625757226464&#45;&gt;140625757230592*</title>
<path fill="none" stroke="black" d="M1325.12,-36.55C1337.35,-39.16 1349.44,-42.12 1361,-45.5 1371.82,-48.66 1383.2,-53.36 1393.21,-58.01"/>
<polygon fill="black" stroke="black" points="1391.8,-61.22 1402.32,-62.4 1394.83,-54.91 1391.8,-61.22"/>
</g>
<!-- 140626156269488 -->
<g id="node25" class="node">
<title>140626156269488</title>
<polygon fill="none" stroke="black" points="1507.5,-110.5 1507.5,-146.5 1828.5,-146.5 1828.5,-110.5 1507.5,-110.5"/>
<text text-anchor="middle" x="1533.5" y="-124.8" font-family="Times,serif" font-size="14.00">v050</text>
<polyline fill="none" stroke="black" points="1559.5,-110.5 1559.5,-146.5 "/>
<text text-anchor="middle" x="1570" y="-124.8" font-family="Times,serif" font-size="14.00"> </text>
<polyline fill="none" stroke="black" points="1580.5,-110.5 1580.5,-146.5 "/>
<text text-anchor="middle" x="1591" y="-124.8" font-family="Times,serif" font-size="14.00"> </text>
<polyline fill="none" stroke="black" points="1601.5,-110.5 1601.5,-146.5 "/>
<text text-anchor="middle" x="1612" y="-124.8" font-family="Times,serif" font-size="14.00"> </text>
<polyline fill="none" stroke="black" points="1622.5,-110.5 1622.5,-146.5 "/>
<text text-anchor="middle" x="1673.5" y="-124.8" font-family="Times,serif" font-size="14.00">data 0.1304</text>
<polyline fill="none" stroke="black" points="1724.5,-110.5 1724.5,-146.5 "/>
<text text-anchor="middle" x="1776.5" y="-124.8" font-family="Times,serif" font-size="14.00">grad 1.0000</text>
</g>
<!-- 140626156269488&#45;&gt;140626156263008+ -->
<g id="edge13" class="edge">
<title>140626156269488&#45;&gt;140626156263008+</title>
<path fill="none" stroke="black" d="M1828.76,-128.5C1896.19,-128.5 1968.7,-128.5 2010.85,-128.5"/>
<polygon fill="black" stroke="black" points="2010.89,-132 2020.89,-128.5 2010.89,-125 2010.89,-132"/>
</g>
<!-- 140626156269488*&#45;&gt;140626156269488 -->
<g id="edge9" class="edge">
<title>140626156269488*&#45;&gt;140626156269488</title>
<path fill="none" stroke="black" d="M1451.36,-128.5C1463.7,-128.5 1479.53,-128.5 1497,-128.5"/>
<polygon fill="black" stroke="black" points="1497.46,-132 1507.46,-128.5 1497.46,-125 1497.46,-132"/>
</g>
</g>
</svg>
