<?xml version="1.0" encoding="UTF-8" standalone="no"?>
<!DOCTYPE svg PUBLIC "-//W3C//DTD SVG 1.1//EN"
 "http://www.w3.org/Graphics/SVG/1.1/DTD/svg11.dtd">
<!-- Generated by graphviz version 2.43.0 (0)
 -->
<!-- Title: %3 Pages: 1 -->
<svg width="3044pt" height="238pt"
 viewBox="0.00 0.00 3044.00 238.00" xmlns="http://www.w3.org/2000/svg" xmlns:xlink="http://www.w3.org/1999/xlink">
<g id="graph0" class="graph" transform="scale(1 1) rotate(0) translate(4 234)">
<title>%3</title>
<polygon fill="white" stroke="transparent" points="-4,4 -4,-234 3040,-234 3040,4 -4,4"/>
<!-- 139883124663840 -->
<g id="node1" class="node">
<title>139883124663840</title>
<polygon fill="none" stroke="black" points="2233,-59.5 2233,-95.5 2554,-95.5 2554,-59.5 2233,-59.5"/>
<text text-anchor="middle" x="2259" y="-73.8" font-family="Times,serif" font-size="14.00">v015</text>
<polyline fill="none" stroke="black" points="2285,-59.5 2285,-95.5 "/>
<text text-anchor="middle" x="2295.5" y="-73.8" font-family="Times,serif" font-size="14.00"> </text>
<polyline fill="none" stroke="black" points="2306,-59.5 2306,-95.5 "/>
<text text-anchor="middle" x="2316.5" y="-73.8" font-family="Times,serif" font-size="14.00"> </text>
<polyline fill="none" stroke="black" points="2327,-59.5 2327,-95.5 "/>
<text text-anchor="middle" x="2337.5" y="-73.8" font-family="Times,serif" font-size="14.00"> </text>
<polyline fill="none" stroke="black" points="2348,-59.5 2348,-95.5 "/>
<text text-anchor="middle" x="2399" y="-73.8" font-family="Times,serif" font-size="14.00">data 1.2000</text>
<polyline fill="none" stroke="black" points="2450,-59.5 2450,-95.5 "/>
<text text-anchor="middle" x="2502" y="-73.8" font-family="Times,serif" font-size="14.00">grad 1.0000</text>
</g>
<!-- 139883124659520+ -->
<g id="node14" class="node">
<title>139883124659520+</title>
<ellipse fill="none" stroke="black" cx="2617" cy="-100.5" rx="27" ry="18"/>
<text text-anchor="middle" x="2617" y="-96.8" font-family="Times,serif" font-size="14.00">+</text>
</g>
<!-- 139883124663840&#45;&gt;139883124659520+ -->
<g id="edge19" class="edge">
<title>139883124663840&#45;&gt;139883124659520+</title>
<path fill="none" stroke="black" d="M2554.01,-94.06C2563.42,-95.04 2572.26,-95.96 2580.13,-96.78"/>
<polygon fill="black" stroke="black" points="2579.95,-100.28 2590.26,-97.83 2580.67,-93.31 2579.95,-100.28"/>
</g>
<!-- 139883124663840+ -->
<g id="node2" class="node">
<title>139883124663840+</title>
<ellipse fill="none" stroke="black" cx="2036.5" cy="-73.5" rx="27" ry="18"/>
<text text-anchor="middle" x="2036.5" y="-69.8" font-family="Times,serif" font-size="14.00">+</text>
</g>
<!-- 139883124663840+&#45;&gt;139883124663840 -->
<g id="edge1" class="edge">
<title>139883124663840+&#45;&gt;139883124663840</title>
<path fill="none" stroke="black" d="M2063.6,-73.79C2097.81,-74.18 2160.72,-74.89 2222.43,-75.58"/>
<polygon fill="black" stroke="black" points="2222.68,-79.09 2232.72,-75.7 2222.76,-72.09 2222.68,-79.09"/>
</g>
<!-- 139883734297632 -->
<g id="node3" class="node">
<title>139883734297632</title>
<polygon fill="none" stroke="black" points="495,-28.5 495,-64.5 857,-64.5 857,-28.5 495,-28.5"/>
<text text-anchor="middle" x="521" y="-42.8" font-family="Times,serif" font-size="14.00">v002</text>
<polyline fill="none" stroke="black" points="547,-28.5 547,-64.5 "/>
<text text-anchor="middle" x="564.5" y="-42.8" font-family="Times,serif" font-size="14.00">L1</text>
<polyline fill="none" stroke="black" points="582,-28.5 582,-64.5 "/>
<text text-anchor="middle" x="601" y="-42.8" font-family="Times,serif" font-size="14.00">N1</text>
<polyline fill="none" stroke="black" points="620,-28.5 620,-64.5 "/>
<text text-anchor="middle" x="633" y="-42.8" font-family="Times,serif" font-size="14.00">b</text>
<polyline fill="none" stroke="black" points="646,-28.5 646,-64.5 "/>
<text text-anchor="middle" x="699.5" y="-42.8" font-family="Times,serif" font-size="14.00">data &#45;0.0300</text>
<polyline fill="none" stroke="black" points="753,-28.5 753,-64.5 "/>
<text text-anchor="middle" x="805" y="-42.8" font-family="Times,serif" font-size="14.00">grad 0.6000</text>
</g>
<!-- 139883124659664+ -->
<g id="node24" class="node">
<title>139883124659664+</title>
<ellipse fill="none" stroke="black" cx="920" cy="-73.5" rx="27" ry="18"/>
<text text-anchor="middle" x="920" y="-69.8" font-family="Times,serif" font-size="14.00">+</text>
</g>
<!-- 139883734297632&#45;&gt;139883124659664+ -->
<g id="edge20" class="edge">
<title>139883734297632&#45;&gt;139883124659664+</title>
<path fill="none" stroke="black" d="M838.42,-64.51C854.94,-66.35 870.34,-68.07 883.15,-69.5"/>
<polygon fill="black" stroke="black" points="882.94,-73 893.27,-70.63 883.72,-66.04 882.94,-73"/>
</g>
<!-- 139883124658752 -->
<g id="node4" class="node">
<title>139883124658752</title>
<polygon fill="none" stroke="black" points="983,-0.5 983,-36.5 1352,-36.5 1352,-0.5 983,-0.5"/>
<text text-anchor="middle" x="1009" y="-14.8" font-family="Times,serif" font-size="14.00">v005</text>
<polyline fill="none" stroke="black" points="1035,-0.5 1035,-36.5 "/>
<text text-anchor="middle" x="1052.5" y="-14.8" font-family="Times,serif" font-size="14.00">L2</text>
<polyline fill="none" stroke="black" points="1070,-0.5 1070,-36.5 "/>
<text text-anchor="middle" x="1089" y="-14.8" font-family="Times,serif" font-size="14.00">N1</text>
<polyline fill="none" stroke="black" points="1108,-0.5 1108,-36.5 "/>
<text text-anchor="middle" x="1127" y="-14.8" font-family="Times,serif" font-size="14.00">w1</text>
<polyline fill="none" stroke="black" points="1146,-0.5 1146,-36.5 "/>
<text text-anchor="middle" x="1197" y="-14.8" font-family="Times,serif" font-size="14.00">data 0.5000</text>
<polyline fill="none" stroke="black" points="1248,-0.5 1248,-36.5 "/>
<text text-anchor="middle" x="1300" y="-14.8" font-family="Times,serif" font-size="14.00">grad 2.0000</text>
</g>
<!-- 139883124662640* -->
<g id="node19" class="node">
<title>139883124662640*</title>
<ellipse fill="none" stroke="black" cx="1415" cy="-73.5" rx="27" ry="18"/>
<text text-anchor="middle" x="1415" y="-69.8" font-family="Times,serif" font-size="14.00">*</text>
</g>
<!-- 139883124658752&#45;&gt;139883124662640* -->
<g id="edge21" class="edge">
<title>139883124658752&#45;&gt;139883124662640*</title>
<path fill="none" stroke="black" d="M1316.02,-36.51C1328.28,-39.12 1340.41,-42.1 1352,-45.5 1362.82,-48.67 1374.2,-53.37 1384.21,-58.02"/>
<polygon fill="black" stroke="black" points="1382.79,-61.23 1393.32,-62.41 1385.83,-54.92 1382.79,-61.23"/>
</g>
<!-- 139883124662352 -->
<g id="node5" class="node">
<title>139883124662352</title>
<polygon fill="none" stroke="black" points="515.5,-193.5 515.5,-229.5 836.5,-229.5 836.5,-193.5 515.5,-193.5"/>
<text text-anchor="middle" x="541.5" y="-207.8" font-family="Times,serif" font-size="14.00">v012</text>
<polyline fill="none" stroke="black" points="567.5,-193.5 567.5,-229.5 "/>
<text text-anchor="middle" x="578" y="-207.8" font-family="Times,serif" font-size="14.00"> </text>
<polyline fill="none" stroke="black" points="588.5,-193.5 588.5,-229.5 "/>
<text text-anchor="middle" x="599" y="-207.8" font-family="Times,serif" font-size="14.00"> </text>
<polyline fill="none" stroke="black" points="609.5,-193.5 609.5,-229.5 "/>
<text text-anchor="middle" x="620" y="-207.8" font-family="Times,serif" font-size="14.00"> </text>
<polyline fill="none" stroke="black" points="630.5,-193.5 630.5,-229.5 "/>
<text text-anchor="middle" x="681.5" y="-207.8" font-family="Times,serif" font-size="14.00">data 2.0000</text>
<polyline fill="none" stroke="black" points="732.5,-193.5 732.5,-229.5 "/>
<text text-anchor="middle" x="784.5" y="-207.8" font-family="Times,serif" font-size="14.00">grad 1.2000</text>
</g>
<!-- 139883124659472+ -->
<g id="node17" class="node">
<title>139883124659472+</title>
<ellipse fill="none" stroke="black" cx="920" cy="-183.5" rx="27" ry="18"/>
<text text-anchor="middle" x="920" y="-179.8" font-family="Times,serif" font-size="14.00">+</text>
</g>
<!-- 139883124662352&#45;&gt;139883124659472+ -->
<g id="edge16" class="edge">
<title>139883124662352&#45;&gt;139883124659472+</title>
<path fill="none" stroke="black" d="M832.66,-193.49C851.23,-191.34 868.61,-189.33 882.84,-187.68"/>
<polygon fill="black" stroke="black" points="883.54,-191.13 893.08,-186.5 882.74,-184.17 883.54,-191.13"/>
</g>
<!-- 139883124662352* -->
<g id="node6" class="node">
<title>139883124662352*</title>
<ellipse fill="none" stroke="black" cx="432" cy="-211.5" rx="27" ry="18"/>
<text text-anchor="middle" x="432" y="-207.8" font-family="Times,serif" font-size="14.00">*</text>
</g>
<!-- 139883124662352*&#45;&gt;139883124662352 -->
<g id="edge2" class="edge">
<title>139883124662352*&#45;&gt;139883124662352</title>
<path fill="none" stroke="black" d="M459.36,-211.5C471.7,-211.5 487.53,-211.5 505,-211.5"/>
<polygon fill="black" stroke="black" points="505.46,-215 515.46,-211.5 505.46,-208 505.46,-215"/>
</g>
<!-- 139883124664560 -->
<g id="node7" class="node">
<title>139883124664560</title>
<polygon fill="none" stroke="black" points="515.5,-83.5 515.5,-119.5 836.5,-119.5 836.5,-83.5 515.5,-83.5"/>
<text text-anchor="middle" x="541.5" y="-97.8" font-family="Times,serif" font-size="14.00">v010</text>
<polyline fill="none" stroke="black" points="567.5,-83.5 567.5,-119.5 "/>
<text text-anchor="middle" x="578" y="-97.8" font-family="Times,serif" font-size="14.00"> </text>
<polyline fill="none" stroke="black" points="588.5,-83.5 588.5,-119.5 "/>
<text text-anchor="middle" x="599" y="-97.8" font-family="Times,serif" font-size="14.00"> </text>
<polyline fill="none" stroke="black" points="609.5,-83.5 609.5,-119.5 "/>
<text text-anchor="middle" x="620" y="-97.8" font-family="Times,serif" font-size="14.00"> </text>
<polyline fill="none" stroke="black" points="630.5,-83.5 630.5,-119.5 "/>
<text text-anchor="middle" x="681.5" y="-97.8" font-family="Times,serif" font-size="14.00">data 2.0000</text>
<polyline fill="none" stroke="black" points="732.5,-83.5 732.5,-119.5 "/>
<text text-anchor="middle" x="784.5" y="-97.8" font-family="Times,serif" font-size="14.00">grad 0.6000</text>
</g>
<!-- 139883124664560&#45;&gt;139883124659664+ -->
<g id="edge22" class="edge">
<title>139883124664560&#45;&gt;139883124659664+</title>
<path fill="none" stroke="black" d="M832.66,-83.49C851.23,-81.34 868.61,-79.33 882.84,-77.68"/>
<polygon fill="black" stroke="black" points="883.54,-81.13 893.08,-76.5 882.74,-74.17 883.54,-81.13"/>
</g>
<!-- 139883124664560* -->
<g id="node8" class="node">
<title>139883124664560*</title>
<ellipse fill="none" stroke="black" cx="432" cy="-101.5" rx="27" ry="18"/>
<text text-anchor="middle" x="432" y="-97.8" font-family="Times,serif" font-size="14.00">*</text>
</g>
<!-- 139883124664560*&#45;&gt;139883124664560 -->
<g id="edge3" class="edge">
<title>139883124664560*&#45;&gt;139883124664560</title>
<path fill="none" stroke="black" d="M459.36,-101.5C471.7,-101.5 487.53,-101.5 505,-101.5"/>
<polygon fill="black" stroke="black" points="505.46,-105 515.46,-101.5 505.46,-98 505.46,-105"/>
</g>
<!-- 139883124664080 -->
<g id="node9" class="node">
<title>139883124664080</title>
<polygon fill="none" stroke="black" points="1478,-0.5 1478,-36.5 1840,-36.5 1840,-0.5 1478,-0.5"/>
<text text-anchor="middle" x="1504" y="-14.8" font-family="Times,serif" font-size="14.00">v007</text>
<polyline fill="none" stroke="black" points="1530,-0.5 1530,-36.5 "/>
<text text-anchor="middle" x="1547.5" y="-14.8" font-family="Times,serif" font-size="14.00">L2</text>
<polyline fill="none" stroke="black" points="1565,-0.5 1565,-36.5 "/>
<text text-anchor="middle" x="1584" y="-14.8" font-family="Times,serif" font-size="14.00">N1</text>
<polyline fill="none" stroke="black" points="1603,-0.5 1603,-36.5 "/>
<text text-anchor="middle" x="1616" y="-14.8" font-family="Times,serif" font-size="14.00">b</text>
<polyline fill="none" stroke="black" points="1629,-0.5 1629,-36.5 "/>
<text text-anchor="middle" x="1682.5" y="-14.8" font-family="Times,serif" font-size="14.00">data &#45;0.0500</text>
<polyline fill="none" stroke="black" points="1736,-0.5 1736,-36.5 "/>
<text text-anchor="middle" x="1788" y="-14.8" font-family="Times,serif" font-size="14.00">grad 1.0000</text>
</g>
<!-- 139883124664080&#45;&gt;139883124663840+ -->
<g id="edge17" class="edge">
<title>139883124664080&#45;&gt;139883124663840+</title>
<path fill="none" stroke="black" d="M1782.95,-36.51C1858.67,-47.6 1950.42,-61.04 1999.83,-68.28"/>
<polygon fill="black" stroke="black" points="1999.6,-71.78 2010,-69.77 2000.62,-64.85 1999.6,-71.78"/>
</g>
<!-- 139883734292256 -->
<g id="node10" class="node">
<title>139883734292256</title>
<polygon fill="none" stroke="black" points="0,-83.5 0,-119.5 369,-119.5 369,-83.5 0,-83.5"/>
<text text-anchor="middle" x="26" y="-97.8" font-family="Times,serif" font-size="14.00">v001</text>
<polyline fill="none" stroke="black" points="52,-83.5 52,-119.5 "/>
<text text-anchor="middle" x="69.5" y="-97.8" font-family="Times,serif" font-size="14.00">L1</text>
<polyline fill="none" stroke="black" points="87,-83.5 87,-119.5 "/>
<text text-anchor="middle" x="106" y="-97.8" font-family="Times,serif" font-size="14.00">N1</text>
<polyline fill="none" stroke="black" points="125,-83.5 125,-119.5 "/>
<text text-anchor="middle" x="144" y="-97.8" font-family="Times,serif" font-size="14.00">w1</text>
<polyline fill="none" stroke="black" points="163,-83.5 163,-119.5 "/>
<text text-anchor="middle" x="214" y="-97.8" font-family="Times,serif" font-size="14.00">data 0.3800</text>
<polyline fill="none" stroke="black" points="265,-83.5 265,-119.5 "/>
<text text-anchor="middle" x="317" y="-97.8" font-family="Times,serif" font-size="14.00">grad 2.4000</text>
</g>
<!-- 139883734292256&#45;&gt;139883124664560* -->
<g id="edge15" class="edge">
<title>139883734292256&#45;&gt;139883124664560*</title>
<path fill="none" stroke="black" d="M369.05,-101.5C378.29,-101.5 386.92,-101.5 394.62,-101.5"/>
<polygon fill="black" stroke="black" points="394.87,-105 404.87,-101.5 394.87,-98 394.87,-105"/>
</g>
<!-- 139883124660000 -->
<g id="node11" class="node">
<title>139883124660000</title>
<polygon fill="none" stroke="black" points="1876,-110.5 1876,-146.5 2197,-146.5 2197,-110.5 1876,-110.5"/>
<text text-anchor="middle" x="1902" y="-124.8" font-family="Times,serif" font-size="14.00">v016</text>
<polyline fill="none" stroke="black" points="1928,-110.5 1928,-146.5 "/>
<text text-anchor="middle" x="1938.5" y="-124.8" font-family="Times,serif" font-size="14.00"> </text>
<polyline fill="none" stroke="black" points="1949,-110.5 1949,-146.5 "/>
<text text-anchor="middle" x="1959.5" y="-124.8" font-family="Times,serif" font-size="14.00"> </text>
<polyline fill="none" stroke="black" points="1970,-110.5 1970,-146.5 "/>
<text text-anchor="middle" x="1980.5" y="-124.8" font-family="Times,serif" font-size="14.00"> </text>
<polyline fill="none" stroke="black" points="1991,-110.5 1991,-146.5 "/>
<text text-anchor="middle" x="2042" y="-124.8" font-family="Times,serif" font-size="14.00">data 2.4000</text>
<polyline fill="none" stroke="black" points="2093,-110.5 2093,-146.5 "/>
<text text-anchor="middle" x="2145" y="-124.8" font-family="Times,serif" font-size="14.00">grad 1.0000</text>
</g>
<!-- 139883124660000&#45;&gt;139883124659520+ -->
<g id="edge18" class="edge">
<title>139883124660000&#45;&gt;139883124659520+</title>
<path fill="none" stroke="black" d="M2197.21,-121.82C2299.28,-117.37 2434.46,-111.13 2554,-104.5 2562.42,-104.03 2571.48,-103.48 2580.01,-102.93"/>
<polygon fill="black" stroke="black" points="2580.31,-106.42 2590.06,-102.28 2579.86,-99.43 2580.31,-106.42"/>
</g>
<!-- 139883124660000* -->
<g id="node12" class="node">
<title>139883124660000*</title>
<ellipse fill="none" stroke="black" cx="1415" cy="-128.5" rx="27" ry="18"/>
<text text-anchor="middle" x="1415" y="-124.8" font-family="Times,serif" font-size="14.00">*</text>
</g>
<!-- 139883124660000*&#45;&gt;139883124660000 -->
<g id="edge4" class="edge">
<title>139883124660000*&#45;&gt;139883124660000</title>
<path fill="none" stroke="black" d="M1442.22,-128.5C1513.76,-128.5 1716.85,-128.5 1865.55,-128.5"/>
<polygon fill="black" stroke="black" points="1865.71,-132 1875.71,-128.5 1865.71,-125 1865.71,-132"/>
</g>
<!-- 139883124659520 -->
<g id="node13" class="node">
<title>139883124659520</title>
<polygon fill="none" stroke="black" points="2680,-82.5 2680,-118.5 3036,-118.5 3036,-82.5 2680,-82.5"/>
<text text-anchor="middle" x="2706" y="-96.8" font-family="Times,serif" font-size="14.00">v017</text>
<polyline fill="none" stroke="black" points="2732,-82.5 2732,-118.5 "/>
<text text-anchor="middle" x="2749.5" y="-96.8" font-family="Times,serif" font-size="14.00">L2</text>
<polyline fill="none" stroke="black" points="2767,-82.5 2767,-118.5 "/>
<text text-anchor="middle" x="2786" y="-96.8" font-family="Times,serif" font-size="14.00">N1</text>
<polyline fill="none" stroke="black" points="2805,-82.5 2805,-118.5 "/>
<text text-anchor="middle" x="2817.5" y="-96.8" font-family="Times,serif" font-size="14.00">a</text>
<polyline fill="none" stroke="black" points="2830,-82.5 2830,-118.5 "/>
<text text-anchor="middle" x="2881" y="-96.8" font-family="Times,serif" font-size="14.00">data 3.6000</text>
<polyline fill="none" stroke="black" points="2932,-82.5 2932,-118.5 "/>
<text text-anchor="middle" x="2984" y="-96.8" font-family="Times,serif" font-size="14.00">grad 1.0000</text>
</g>
<!-- 139883124659520+&#45;&gt;139883124659520 -->
<g id="edge5" class="edge">
<title>139883124659520+&#45;&gt;139883124659520</title>
<path fill="none" stroke="black" d="M2644.03,-100.5C2651.4,-100.5 2660.02,-100.5 2669.49,-100.5"/>
<polygon fill="black" stroke="black" points="2669.66,-104 2679.66,-100.5 2669.66,-97 2669.66,-104"/>
</g>
<!-- 139883735116112 -->
<g id="node15" class="node">
<title>139883735116112</title>
<polygon fill="none" stroke="black" points="19.5,-138.5 19.5,-174.5 349.5,-174.5 349.5,-138.5 19.5,-138.5"/>
<text text-anchor="middle" x="45.5" y="-152.8" font-family="Times,serif" font-size="14.00">v008</text>
<polyline fill="none" stroke="black" points="71.5,-138.5 71.5,-174.5 "/>
<text text-anchor="middle" x="82" y="-152.8" font-family="Times,serif" font-size="14.00"> </text>
<polyline fill="none" stroke="black" points="92.5,-138.5 92.5,-174.5 "/>
<text text-anchor="middle" x="103" y="-152.8" font-family="Times,serif" font-size="14.00"> </text>
<polyline fill="none" stroke="black" points="113.5,-138.5 113.5,-174.5 "/>
<text text-anchor="middle" x="128.5" y="-152.8" font-family="Times,serif" font-size="14.00">i1</text>
<polyline fill="none" stroke="black" points="143.5,-138.5 143.5,-174.5 "/>
<text text-anchor="middle" x="194.5" y="-152.8" font-family="Times,serif" font-size="14.00">data 4.0000</text>
<polyline fill="none" stroke="black" points="245.5,-138.5 245.5,-174.5 "/>
<text text-anchor="middle" x="297.5" y="-152.8" font-family="Times,serif" font-size="14.00">grad 0.9000</text>
</g>
<!-- 139883735116112&#45;&gt;139883124662352* -->
<g id="edge23" class="edge">
<title>139883735116112&#45;&gt;139883124662352*</title>
<path fill="none" stroke="black" d="M328.05,-174.51C341.99,-177.39 355.84,-180.7 369,-184.5 379.68,-187.58 390.95,-192.08 400.91,-196.53"/>
<polygon fill="black" stroke="black" points="399.44,-199.71 409.99,-200.72 402.38,-193.35 399.44,-199.71"/>
</g>
<!-- 139883735116112&#45;&gt;139883124664560* -->
<g id="edge9" class="edge">
<title>139883735116112&#45;&gt;139883124664560*</title>
<path fill="none" stroke="black" d="M328.05,-138.49C341.99,-135.61 355.84,-132.3 369,-128.5 379.68,-125.42 390.95,-120.92 400.91,-116.47"/>
<polygon fill="black" stroke="black" points="402.38,-119.65 409.99,-112.28 399.44,-113.29 402.38,-119.65"/>
</g>
<!-- 139883124659472 -->
<g id="node16" class="node">
<title>139883124659472</title>
<polygon fill="none" stroke="black" points="989.5,-165.5 989.5,-201.5 1345.5,-201.5 1345.5,-165.5 989.5,-165.5"/>
<text text-anchor="middle" x="1015.5" y="-179.8" font-family="Times,serif" font-size="14.00">v013</text>
<polyline fill="none" stroke="black" points="1041.5,-165.5 1041.5,-201.5 "/>
<text text-anchor="middle" x="1059" y="-179.8" font-family="Times,serif" font-size="14.00">L1</text>
<polyline fill="none" stroke="black" points="1076.5,-165.5 1076.5,-201.5 "/>
<text text-anchor="middle" x="1095.5" y="-179.8" font-family="Times,serif" font-size="14.00">N2</text>
<polyline fill="none" stroke="black" points="1114.5,-165.5 1114.5,-201.5 "/>
<text text-anchor="middle" x="1127" y="-179.8" font-family="Times,serif" font-size="14.00">a</text>
<polyline fill="none" stroke="black" points="1139.5,-165.5 1139.5,-201.5 "/>
<text text-anchor="middle" x="1190.5" y="-179.8" font-family="Times,serif" font-size="14.00">data 2.0000</text>
<polyline fill="none" stroke="black" points="1241.5,-165.5 1241.5,-201.5 "/>
<text text-anchor="middle" x="1293.5" y="-179.8" font-family="Times,serif" font-size="14.00">grad 1.2000</text>
</g>
<!-- 139883124659472&#45;&gt;139883124660000* -->
<g id="edge13" class="edge">
<title>139883124659472&#45;&gt;139883124660000*</title>
<path fill="none" stroke="black" d="M1311.05,-165.49C1324.99,-162.61 1338.84,-159.3 1352,-155.5 1362.68,-152.42 1373.95,-147.92 1383.91,-143.47"/>
<polygon fill="black" stroke="black" points="1385.38,-146.65 1392.99,-139.28 1382.44,-140.29 1385.38,-146.65"/>
</g>
<!-- 139883124659472+&#45;&gt;139883124659472 -->
<g id="edge6" class="edge">
<title>139883124659472+&#45;&gt;139883124659472</title>
<path fill="none" stroke="black" d="M947.27,-183.5C956.26,-183.5 967.11,-183.5 979.12,-183.5"/>
<polygon fill="black" stroke="black" points="979.46,-187 989.46,-183.5 979.46,-180 979.46,-187"/>
</g>
<!-- 139883124662640 -->
<g id="node18" class="node">
<title>139883124662640</title>
<polygon fill="none" stroke="black" points="1498.5,-55.5 1498.5,-91.5 1819.5,-91.5 1819.5,-55.5 1498.5,-55.5"/>
<text text-anchor="middle" x="1524.5" y="-69.8" font-family="Times,serif" font-size="14.00">v014</text>
<polyline fill="none" stroke="black" points="1550.5,-55.5 1550.5,-91.5 "/>
<text text-anchor="middle" x="1561" y="-69.8" font-family="Times,serif" font-size="14.00"> </text>
<polyline fill="none" stroke="black" points="1571.5,-55.5 1571.5,-91.5 "/>
<text text-anchor="middle" x="1582" y="-69.8" font-family="Times,serif" font-size="14.00"> </text>
<polyline fill="none" stroke="black" points="1592.5,-55.5 1592.5,-91.5 "/>
<text text-anchor="middle" x="1603" y="-69.8" font-family="Times,serif" font-size="14.00"> </text>
<polyline fill="none" stroke="black" points="1613.5,-55.5 1613.5,-91.5 "/>
<text text-anchor="middle" x="1664.5" y="-69.8" font-family="Times,serif" font-size="14.00">data 1.2000</text>
<polyline fill="none" stroke="black" points="1715.5,-55.5 1715.5,-91.5 "/>
<text text-anchor="middle" x="1767.5" y="-69.8" font-family="Times,serif" font-size="14.00">grad 1.0000</text>
</g>
<!-- 139883124662640&#45;&gt;139883124663840+ -->
<g id="edge11" class="edge">
<title>139883124662640&#45;&gt;139883124663840+</title>
<path fill="none" stroke="black" d="M1819.52,-73.5C1886.04,-73.5 1957.39,-73.5 1999.16,-73.5"/>
<polygon fill="black" stroke="black" points="1999.37,-77 2009.37,-73.5 1999.37,-70 1999.37,-77"/>
</g>
<!-- 139883124662640*&#45;&gt;139883124662640 -->
<g id="edge7" class="edge">
<title>139883124662640*&#45;&gt;139883124662640</title>
<path fill="none" stroke="black" d="M1442.36,-73.5C1454.7,-73.5 1470.53,-73.5 1488,-73.5"/>
<polygon fill="black" stroke="black" points="1488.46,-77 1498.46,-73.5 1488.46,-70 1488.46,-77"/>
</g>
<!-- 139883124658992 -->
<g id="node20" class="node">
<title>139883124658992</title>
<polygon fill="none" stroke="black" points="495,-138.5 495,-174.5 857,-174.5 857,-138.5 495,-138.5"/>
<text text-anchor="middle" x="521" y="-152.8" font-family="Times,serif" font-size="14.00">v004</text>
<polyline fill="none" stroke="black" points="547,-138.5 547,-174.5 "/>
<text text-anchor="middle" x="564.5" y="-152.8" font-family="Times,serif" font-size="14.00">L1</text>
<polyline fill="none" stroke="black" points="582,-138.5 582,-174.5 "/>
<text text-anchor="middle" x="601" y="-152.8" font-family="Times,serif" font-size="14.00">N2</text>
<polyline fill="none" stroke="black" points="620,-138.5 620,-174.5 "/>
<text text-anchor="middle" x="633" y="-152.8" font-family="Times,serif" font-size="14.00">b</text>
<polyline fill="none" stroke="black" points="646,-138.5 646,-174.5 "/>
<text text-anchor="middle" x="699.5" y="-152.8" font-family="Times,serif" font-size="14.00">data &#45;0.0600</text>
<polyline fill="none" stroke="black" points="753,-138.5 753,-174.5 "/>
<text text-anchor="middle" x="805" y="-152.8" font-family="Times,serif" font-size="14.00">grad 1.2000</text>
</g>
<!-- 139883124658992&#45;&gt;139883124659472+ -->
<g id="edge14" class="edge">
<title>139883124658992&#45;&gt;139883124659472+</title>
<path fill="none" stroke="black" d="M838.42,-174.51C854.94,-176.35 870.34,-178.07 883.15,-179.5"/>
<polygon fill="black" stroke="black" points="882.94,-183 893.27,-180.63 883.72,-176.04 882.94,-183"/>
</g>
<!-- 139883124659040 -->
<g id="node21" class="node">
<title>139883124659040</title>
<polygon fill="none" stroke="black" points="0,-193.5 0,-229.5 369,-229.5 369,-193.5 0,-193.5"/>
<text text-anchor="middle" x="26" y="-207.8" font-family="Times,serif" font-size="14.00">v003</text>
<polyline fill="none" stroke="black" points="52,-193.5 52,-229.5 "/>
<text text-anchor="middle" x="69.5" y="-207.8" font-family="Times,serif" font-size="14.00">L1</text>
<polyline fill="none" stroke="black" points="87,-193.5 87,-229.5 "/>
<text text-anchor="middle" x="106" y="-207.8" font-family="Times,serif" font-size="14.00">N2</text>
<polyline fill="none" stroke="black" points="125,-193.5 125,-229.5 "/>
<text text-anchor="middle" x="144" y="-207.8" font-family="Times,serif" font-size="14.00">w1</text>
<polyline fill="none" stroke="black" points="163,-193.5 163,-229.5 "/>
<text text-anchor="middle" x="214" y="-207.8" font-family="Times,serif" font-size="14.00">data 0.2600</text>
<polyline fill="none" stroke="black" points="265,-193.5 265,-229.5 "/>
<text text-anchor="middle" x="317" y="-207.8" font-family="Times,serif" font-size="14.00">grad 4.8000</text>
</g>
<!-- 139883124659040&#45;&gt;139883124662352* -->
<g id="edge10" class="edge">
<title>139883124659040&#45;&gt;139883124662352*</title>
<path fill="none" stroke="black" d="M369.05,-211.5C378.29,-211.5 386.92,-211.5 394.62,-211.5"/>
<polygon fill="black" stroke="black" points="394.87,-215 404.87,-211.5 394.87,-208 394.87,-215"/>
</g>
<!-- 139883124664128 -->
<g id="node22" class="node">
<title>139883124664128</title>
<polygon fill="none" stroke="black" points="983,-110.5 983,-146.5 1352,-146.5 1352,-110.5 983,-110.5"/>
<text text-anchor="middle" x="1009" y="-124.8" font-family="Times,serif" font-size="14.00">v006</text>
<polyline fill="none" stroke="black" points="1035,-110.5 1035,-146.5 "/>
<text text-anchor="middle" x="1052.5" y="-124.8" font-family="Times,serif" font-size="14.00">L2</text>
<polyline fill="none" stroke="black" points="1070,-110.5 1070,-146.5 "/>
<text text-anchor="middle" x="1089" y="-124.8" font-family="Times,serif" font-size="14.00">N1</text>
<polyline fill="none" stroke="black" points="1108,-110.5 1108,-146.5 "/>
<text text-anchor="middle" x="1127" y="-124.8" font-family="Times,serif" font-size="14.00">w2</text>
<polyline fill="none" stroke="black" points="1146,-110.5 1146,-146.5 "/>
<text text-anchor="middle" x="1197" y="-124.8" font-family="Times,serif" font-size="14.00">data 1.1000</text>
<polyline fill="none" stroke="black" points="1248,-110.5 1248,-146.5 "/>
<text text-anchor="middle" x="1300" y="-124.8" font-family="Times,serif" font-size="14.00">grad 2.0000</text>
</g>
<!-- 139883124664128&#45;&gt;139883124660000* -->
<g id="edge12" class="edge">
<title>139883124664128&#45;&gt;139883124660000*</title>
<path fill="none" stroke="black" d="M1352.05,-128.5C1361.29,-128.5 1369.92,-128.5 1377.62,-128.5"/>
<polygon fill="black" stroke="black" points="1377.87,-132 1387.87,-128.5 1377.87,-125 1377.87,-132"/>
</g>
<!-- 139883124659664 -->
<g id="node23" class="node">
<title>139883124659664</title>
<polygon fill="none" stroke="black" points="989.5,-55.5 989.5,-91.5 1345.5,-91.5 1345.5,-55.5 989.5,-55.5"/>
<text text-anchor="middle" x="1015.5" y="-69.8" font-family="Times,serif" font-size="14.00">v011</text>
<polyline fill="none" stroke="black" points="1041.5,-55.5 1041.5,-91.5 "/>
<text text-anchor="middle" x="1059" y="-69.8" font-family="Times,serif" font-size="14.00">L1</text>
<polyline fill="none" stroke="black" points="1076.5,-55.5 1076.5,-91.5 "/>
<text text-anchor="middle" x="1095.5" y="-69.8" font-family="Times,serif" font-size="14.00">N1</text>
<polyline fill="none" stroke="black" points="1114.5,-55.5 1114.5,-91.5 "/>
<text text-anchor="middle" x="1127" y="-69.8" font-family="Times,serif" font-size="14.00">a</text>
<polyline fill="none" stroke="black" points="1139.5,-55.5 1139.5,-91.5 "/>
<text text-anchor="middle" x="1190.5" y="-69.8" font-family="Times,serif" font-size="14.00">data 2.0000</text>
<polyline fill="none" stroke="black" points="1241.5,-55.5 1241.5,-91.5 "/>
<text text-anchor="middle" x="1293.5" y="-69.8" font-family="Times,serif" font-size="14.00">grad 0.6000</text>
</g>
<!-- 139883124659664&#45;&gt;139883124662640* -->
<g id="edge24" class="edge">
<title>139883124659664&#45;&gt;139883124662640*</title>
<path fill="none" stroke="black" d="M1345.61,-73.5C1357.37,-73.5 1368.29,-73.5 1377.8,-73.5"/>
<polygon fill="black" stroke="black" points="1377.91,-77 1387.91,-73.5 1377.91,-70 1377.91,-77"/>
</g>
<!-- 139883124659664+&#45;&gt;139883124659664 -->
<g id="edge8" class="edge">
<title>139883124659664+&#45;&gt;139883124659664</title>
<path fill="none" stroke="black" d="M947.27,-73.5C956.26,-73.5 967.11,-73.5 979.12,-73.5"/>
<polygon fill="black" stroke="black" points="979.46,-77 989.46,-73.5 979.46,-70 979.46,-77"/>
</g>
</g>
</svg>
