<?xml version="1.0" encoding="UTF-8" standalone="no"?>
<!DOCTYPE svg PUBLIC "-//W3C//DTD SVG 1.1//EN"
 "http://www.w3.org/Graphics/SVG/1.1/DTD/svg11.dtd">
<!-- Generated by graphviz version 2.43.0 (0)
 -->
<!-- Title: %3 Pages: 1 -->
<svg width="3490pt" height="210pt"
 viewBox="0.00 0.00 3490.00 210.00" xmlns="http://www.w3.org/2000/svg" xmlns:xlink="http://www.w3.org/1999/xlink">
<g id="graph0" class="graph" transform="scale(1 1) rotate(0) translate(4 206)">
<title>%3</title>
<polygon fill="white" stroke="transparent" points="-4,4 -4,-206 3486,-206 3486,4 -4,4"/>
<!-- 140260402422800 -->
<g id="node1" class="node">
<title>140260402422800</title>
<polygon fill="none" stroke="black" points="3152,-82.5 3152,-118.5 3482,-118.5 3482,-82.5 3152,-82.5"/>
<text text-anchor="middle" x="3178" y="-96.8" font-family="Times,serif" font-size="14.00">v018</text>
<polyline fill="none" stroke="black" points="3204,-82.5 3204,-118.5 "/>
<text text-anchor="middle" x="3214.5" y="-96.8" font-family="Times,serif" font-size="14.00"> </text>
<polyline fill="none" stroke="black" points="3225,-82.5 3225,-118.5 "/>
<text text-anchor="middle" x="3235.5" y="-96.8" font-family="Times,serif" font-size="14.00"> </text>
<polyline fill="none" stroke="black" points="3246,-82.5 3246,-118.5 "/>
<text text-anchor="middle" x="3256.5" y="-96.8" font-family="Times,serif" font-size="14.00">l</text>
<polyline fill="none" stroke="black" points="3267,-82.5 3267,-118.5 "/>
<text text-anchor="middle" x="3322.5" y="-96.8" font-family="Times,serif" font-size="14.00">data 12.9600</text>
<polyline fill="none" stroke="black" points="3378,-82.5 3378,-118.5 "/>
<text text-anchor="middle" x="3430" y="-96.8" font-family="Times,serif" font-size="14.00">grad 0.0000</text>
</g>
<!-- 140260402422800* -->
<g id="node2" class="node">
<title>140260402422800*</title>
<ellipse fill="none" stroke="black" cx="3089" cy="-100.5" rx="27" ry="18"/>
<text text-anchor="middle" x="3089" y="-96.8" font-family="Times,serif" font-size="14.00">*</text>
</g>
<!-- 140260402422800*&#45;&gt;140260402422800 -->
<g id="edge1" class="edge">
<title>140260402422800*&#45;&gt;140260402422800</title>
<path fill="none" stroke="black" d="M3116.37,-100.5C3123.71,-100.5 3132.28,-100.5 3141.65,-100.5"/>
<polygon fill="black" stroke="black" points="3141.7,-104 3151.7,-100.5 3141.7,-97 3141.7,-104"/>
</g>
<!-- 140260402421264 -->
<g id="node3" class="node">
<title>140260402421264</title>
<polygon fill="none" stroke="black" points="513,-55.5 513,-91.5 834,-91.5 834,-55.5 513,-55.5"/>
<text text-anchor="middle" x="539" y="-69.8" font-family="Times,serif" font-size="14.00">v010</text>
<polyline fill="none" stroke="black" points="565,-55.5 565,-91.5 "/>
<text text-anchor="middle" x="575.5" y="-69.8" font-family="Times,serif" font-size="14.00"> </text>
<polyline fill="none" stroke="black" points="586,-55.5 586,-91.5 "/>
<text text-anchor="middle" x="596.5" y="-69.8" font-family="Times,serif" font-size="14.00"> </text>
<polyline fill="none" stroke="black" points="607,-55.5 607,-91.5 "/>
<text text-anchor="middle" x="617.5" y="-69.8" font-family="Times,serif" font-size="14.00"> </text>
<polyline fill="none" stroke="black" points="628,-55.5 628,-91.5 "/>
<text text-anchor="middle" x="679" y="-69.8" font-family="Times,serif" font-size="14.00">data 2.0000</text>
<polyline fill="none" stroke="black" points="730,-55.5 730,-91.5 "/>
<text text-anchor="middle" x="782" y="-69.8" font-family="Times,serif" font-size="14.00">grad 0.0000</text>
</g>
<!-- 140260402421168+ -->
<g id="node19" class="node">
<title>140260402421168+</title>
<ellipse fill="none" stroke="black" cx="915" cy="-73.5" rx="27" ry="18"/>
<text text-anchor="middle" x="915" y="-69.8" font-family="Times,serif" font-size="14.00">+</text>
</g>
<!-- 140260402421264&#45;&gt;140260402421168+ -->
<g id="edge20" class="edge">
<title>140260402421264&#45;&gt;140260402421168+</title>
<path fill="none" stroke="black" d="M834.25,-73.5C850.18,-73.5 865.04,-73.5 877.51,-73.5"/>
<polygon fill="black" stroke="black" points="877.83,-77 887.83,-73.5 877.83,-70 877.83,-77"/>
</g>
<!-- 140260402421264* -->
<g id="node4" class="node">
<title>140260402421264*</title>
<ellipse fill="none" stroke="black" cx="432" cy="-73.5" rx="27" ry="18"/>
<text text-anchor="middle" x="432" y="-69.8" font-family="Times,serif" font-size="14.00">*</text>
</g>
<!-- 140260402421264*&#45;&gt;140260402421264 -->
<g id="edge2" class="edge">
<title>140260402421264*&#45;&gt;140260402421264</title>
<path fill="none" stroke="black" d="M459.09,-73.5C470.83,-73.5 485.78,-73.5 502.29,-73.5"/>
<polygon fill="black" stroke="black" points="502.75,-77 512.75,-73.5 502.75,-70 502.75,-77"/>
</g>
<!-- 140260402419584 -->
<g id="node5" class="node">
<title>140260402419584</title>
<polygon fill="none" stroke="black" points="0,-55.5 0,-91.5 369,-91.5 369,-55.5 0,-55.5"/>
<text text-anchor="middle" x="26" y="-69.8" font-family="Times,serif" font-size="14.00">v001</text>
<polyline fill="none" stroke="black" points="52,-55.5 52,-91.5 "/>
<text text-anchor="middle" x="69.5" y="-69.8" font-family="Times,serif" font-size="14.00">L1</text>
<polyline fill="none" stroke="black" points="87,-55.5 87,-91.5 "/>
<text text-anchor="middle" x="106" y="-69.8" font-family="Times,serif" font-size="14.00">N1</text>
<polyline fill="none" stroke="black" points="125,-55.5 125,-91.5 "/>
<text text-anchor="middle" x="144" y="-69.8" font-family="Times,serif" font-size="14.00">w1</text>
<polyline fill="none" stroke="black" points="163,-55.5 163,-91.5 "/>
<text text-anchor="middle" x="214" y="-69.8" font-family="Times,serif" font-size="14.00">data 0.5000</text>
<polyline fill="none" stroke="black" points="265,-55.5 265,-91.5 "/>
<text text-anchor="middle" x="317" y="-69.8" font-family="Times,serif" font-size="14.00">grad 0.0000</text>
</g>
<!-- 140260402419584&#45;&gt;140260402421264* -->
<g id="edge13" class="edge">
<title>140260402419584&#45;&gt;140260402421264*</title>
<path fill="none" stroke="black" d="M369.05,-73.5C378.29,-73.5 386.92,-73.5 394.62,-73.5"/>
<polygon fill="black" stroke="black" points="394.87,-77 404.87,-73.5 394.87,-70 394.87,-77"/>
</g>
<!-- 140260402423424 -->
<g id="node6" class="node">
<title>140260402423424</title>
<polygon fill="none" stroke="black" points="1491,-55.5 1491,-91.5 1812,-91.5 1812,-55.5 1491,-55.5"/>
<text text-anchor="middle" x="1517" y="-69.8" font-family="Times,serif" font-size="14.00">v014</text>
<polyline fill="none" stroke="black" points="1543,-55.5 1543,-91.5 "/>
<text text-anchor="middle" x="1553.5" y="-69.8" font-family="Times,serif" font-size="14.00"> </text>
<polyline fill="none" stroke="black" points="1564,-55.5 1564,-91.5 "/>
<text text-anchor="middle" x="1574.5" y="-69.8" font-family="Times,serif" font-size="14.00"> </text>
<polyline fill="none" stroke="black" points="1585,-55.5 1585,-91.5 "/>
<text text-anchor="middle" x="1595.5" y="-69.8" font-family="Times,serif" font-size="14.00"> </text>
<polyline fill="none" stroke="black" points="1606,-55.5 1606,-91.5 "/>
<text text-anchor="middle" x="1657" y="-69.8" font-family="Times,serif" font-size="14.00">data 1.2000</text>
<polyline fill="none" stroke="black" points="1708,-55.5 1708,-91.5 "/>
<text text-anchor="middle" x="1760" y="-69.8" font-family="Times,serif" font-size="14.00">grad 0.0000</text>
</g>
<!-- 140260402424672+ -->
<g id="node17" class="node">
<title>140260402424672+</title>
<ellipse fill="none" stroke="black" cx="2026.5" cy="-73.5" rx="27" ry="18"/>
<text text-anchor="middle" x="2026.5" y="-69.8" font-family="Times,serif" font-size="14.00">+</text>
</g>
<!-- 140260402423424&#45;&gt;140260402424672+ -->
<g id="edge23" class="edge">
<title>140260402423424&#45;&gt;140260402424672+</title>
<path fill="none" stroke="black" d="M1812.04,-73.5C1877.75,-73.5 1948.02,-73.5 1989.29,-73.5"/>
<polygon fill="black" stroke="black" points="1989.39,-77 1999.39,-73.5 1989.39,-70 1989.39,-77"/>
</g>
<!-- 140260402423424* -->
<g id="node7" class="node">
<title>140260402423424*</title>
<ellipse fill="none" stroke="black" cx="1410" cy="-73.5" rx="27" ry="18"/>
<text text-anchor="middle" x="1410" y="-69.8" font-family="Times,serif" font-size="14.00">*</text>
</g>
<!-- 140260402423424*&#45;&gt;140260402423424 -->
<g id="edge3" class="edge">
<title>140260402423424*&#45;&gt;140260402423424</title>
<path fill="none" stroke="black" d="M1437.09,-73.5C1448.83,-73.5 1463.78,-73.5 1480.29,-73.5"/>
<polygon fill="black" stroke="black" points="1480.75,-77 1490.75,-73.5 1480.75,-70 1480.75,-77"/>
</g>
<!-- 140260402419344 -->
<g id="node8" class="node">
<title>140260402419344</title>
<polygon fill="none" stroke="black" points="978,-165.5 978,-201.5 1347,-201.5 1347,-165.5 978,-165.5"/>
<text text-anchor="middle" x="1004" y="-179.8" font-family="Times,serif" font-size="14.00">v006</text>
<polyline fill="none" stroke="black" points="1030,-165.5 1030,-201.5 "/>
<text text-anchor="middle" x="1047.5" y="-179.8" font-family="Times,serif" font-size="14.00">L2</text>
<polyline fill="none" stroke="black" points="1065,-165.5 1065,-201.5 "/>
<text text-anchor="middle" x="1084" y="-179.8" font-family="Times,serif" font-size="14.00">N1</text>
<polyline fill="none" stroke="black" points="1103,-165.5 1103,-201.5 "/>
<text text-anchor="middle" x="1122" y="-179.8" font-family="Times,serif" font-size="14.00">w2</text>
<polyline fill="none" stroke="black" points="1141,-165.5 1141,-201.5 "/>
<text text-anchor="middle" x="1192" y="-179.8" font-family="Times,serif" font-size="14.00">data 1.2000</text>
<polyline fill="none" stroke="black" points="1243,-165.5 1243,-201.5 "/>
<text text-anchor="middle" x="1295" y="-179.8" font-family="Times,serif" font-size="14.00">grad 0.0000</text>
</g>
<!-- 140260402429664* -->
<g id="node11" class="node">
<title>140260402429664*</title>
<ellipse fill="none" stroke="black" cx="1410" cy="-128.5" rx="27" ry="18"/>
<text text-anchor="middle" x="1410" y="-124.8" font-family="Times,serif" font-size="14.00">*</text>
</g>
<!-- 140260402419344&#45;&gt;140260402429664* -->
<g id="edge25" class="edge">
<title>140260402419344&#45;&gt;140260402429664*</title>
<path fill="none" stroke="black" d="M1311.02,-165.49C1323.28,-162.88 1335.41,-159.9 1347,-156.5 1357.82,-153.33 1369.2,-148.63 1379.21,-143.98"/>
<polygon fill="black" stroke="black" points="1380.83,-147.08 1388.32,-139.59 1377.79,-140.77 1380.83,-147.08"/>
</g>
<!-- 140260402422656 -->
<g id="node9" class="node">
<title>140260402422656</title>
<polygon fill="none" stroke="black" points="0,-165.5 0,-201.5 369,-201.5 369,-165.5 0,-165.5"/>
<text text-anchor="middle" x="26" y="-179.8" font-family="Times,serif" font-size="14.00">v003</text>
<polyline fill="none" stroke="black" points="52,-165.5 52,-201.5 "/>
<text text-anchor="middle" x="69.5" y="-179.8" font-family="Times,serif" font-size="14.00">L1</text>
<polyline fill="none" stroke="black" points="87,-165.5 87,-201.5 "/>
<text text-anchor="middle" x="106" y="-179.8" font-family="Times,serif" font-size="14.00">N2</text>
<polyline fill="none" stroke="black" points="125,-165.5 125,-201.5 "/>
<text text-anchor="middle" x="144" y="-179.8" font-family="Times,serif" font-size="14.00">w1</text>
<polyline fill="none" stroke="black" points="163,-165.5 163,-201.5 "/>
<text text-anchor="middle" x="214" y="-179.8" font-family="Times,serif" font-size="14.00">data 0.5000</text>
<polyline fill="none" stroke="black" points="265,-165.5 265,-201.5 "/>
<text text-anchor="middle" x="317" y="-179.8" font-family="Times,serif" font-size="14.00">grad 0.0000</text>
</g>
<!-- 140260402428800* -->
<g id="node21" class="node">
<title>140260402428800*</title>
<ellipse fill="none" stroke="black" cx="432" cy="-183.5" rx="27" ry="18"/>
<text text-anchor="middle" x="432" y="-179.8" font-family="Times,serif" font-size="14.00">*</text>
</g>
<!-- 140260402422656&#45;&gt;140260402428800* -->
<g id="edge18" class="edge">
<title>140260402422656&#45;&gt;140260402428800*</title>
<path fill="none" stroke="black" d="M369.05,-183.5C378.29,-183.5 386.92,-183.5 394.62,-183.5"/>
<polygon fill="black" stroke="black" points="394.87,-187 404.87,-183.5 394.87,-180 394.87,-187"/>
</g>
<!-- 140260402429664 -->
<g id="node10" class="node">
<title>140260402429664</title>
<polygon fill="none" stroke="black" points="1866,-110.5 1866,-146.5 2187,-146.5 2187,-110.5 1866,-110.5"/>
<text text-anchor="middle" x="1892" y="-124.8" font-family="Times,serif" font-size="14.00">v016</text>
<polyline fill="none" stroke="black" points="1918,-110.5 1918,-146.5 "/>
<text text-anchor="middle" x="1928.5" y="-124.8" font-family="Times,serif" font-size="14.00"> </text>
<polyline fill="none" stroke="black" points="1939,-110.5 1939,-146.5 "/>
<text text-anchor="middle" x="1949.5" y="-124.8" font-family="Times,serif" font-size="14.00"> </text>
<polyline fill="none" stroke="black" points="1960,-110.5 1960,-146.5 "/>
<text text-anchor="middle" x="1970.5" y="-124.8" font-family="Times,serif" font-size="14.00"> </text>
<polyline fill="none" stroke="black" points="1981,-110.5 1981,-146.5 "/>
<text text-anchor="middle" x="2032" y="-124.8" font-family="Times,serif" font-size="14.00">data 2.4000</text>
<polyline fill="none" stroke="black" points="2083,-110.5 2083,-146.5 "/>
<text text-anchor="middle" x="2135" y="-124.8" font-family="Times,serif" font-size="14.00">grad 0.0000</text>
</g>
<!-- 140260402425296+ -->
<g id="node24" class="node">
<title>140260402425296+</title>
<ellipse fill="none" stroke="black" cx="2607" cy="-100.5" rx="27" ry="18"/>
<text text-anchor="middle" x="2607" y="-96.8" font-family="Times,serif" font-size="14.00">+</text>
</g>
<!-- 140260402429664&#45;&gt;140260402425296+ -->
<g id="edge21" class="edge">
<title>140260402429664&#45;&gt;140260402425296+</title>
<path fill="none" stroke="black" d="M2187.21,-121.82C2289.28,-117.37 2424.46,-111.13 2544,-104.5 2552.42,-104.03 2561.48,-103.48 2570.01,-102.93"/>
<polygon fill="black" stroke="black" points="2570.31,-106.42 2580.06,-102.28 2569.86,-99.43 2570.31,-106.42"/>
</g>
<!-- 140260402429664*&#45;&gt;140260402429664 -->
<g id="edge4" class="edge">
<title>140260402429664*&#45;&gt;140260402429664</title>
<path fill="none" stroke="black" d="M1437.01,-128.5C1507.8,-128.5 1708.47,-128.5 1855.87,-128.5"/>
<polygon fill="black" stroke="black" points="1855.95,-132 1865.95,-128.5 1855.95,-125 1855.95,-132"/>
</g>
<!-- 140260402422512 -->
<g id="node12" class="node">
<title>140260402422512</title>
<polygon fill="none" stroke="black" points="495,-0.5 495,-36.5 852,-36.5 852,-0.5 495,-0.5"/>
<text text-anchor="middle" x="521" y="-14.8" font-family="Times,serif" font-size="14.00">v002</text>
<polyline fill="none" stroke="black" points="547,-0.5 547,-36.5 "/>
<text text-anchor="middle" x="564.5" y="-14.8" font-family="Times,serif" font-size="14.00">L1</text>
<polyline fill="none" stroke="black" points="582,-0.5 582,-36.5 "/>
<text text-anchor="middle" x="601" y="-14.8" font-family="Times,serif" font-size="14.00">N1</text>
<polyline fill="none" stroke="black" points="620,-0.5 620,-36.5 "/>
<text text-anchor="middle" x="633" y="-14.8" font-family="Times,serif" font-size="14.00">b</text>
<polyline fill="none" stroke="black" points="646,-0.5 646,-36.5 "/>
<text text-anchor="middle" x="697" y="-14.8" font-family="Times,serif" font-size="14.00">data 0.0000</text>
<polyline fill="none" stroke="black" points="748,-0.5 748,-36.5 "/>
<text text-anchor="middle" x="800" y="-14.8" font-family="Times,serif" font-size="14.00">grad 0.0000</text>
</g>
<!-- 140260402422512&#45;&gt;140260402421168+ -->
<g id="edge24" class="edge">
<title>140260402422512&#45;&gt;140260402421168+</title>
<path fill="none" stroke="black" d="M816.72,-36.58C828.74,-39.18 840.64,-42.14 852,-45.5 862.81,-48.7 874.19,-53.41 884.2,-58.05"/>
<polygon fill="black" stroke="black" points="882.78,-61.26 893.31,-62.44 885.82,-54.95 882.78,-61.26"/>
</g>
<!-- 140260402419968 -->
<g id="node13" class="node">
<title>140260402419968</title>
<polygon fill="none" stroke="black" points="984.5,-110.5 984.5,-146.5 1340.5,-146.5 1340.5,-110.5 984.5,-110.5"/>
<text text-anchor="middle" x="1010.5" y="-124.8" font-family="Times,serif" font-size="14.00">v013</text>
<polyline fill="none" stroke="black" points="1036.5,-110.5 1036.5,-146.5 "/>
<text text-anchor="middle" x="1054" y="-124.8" font-family="Times,serif" font-size="14.00">L1</text>
<polyline fill="none" stroke="black" points="1071.5,-110.5 1071.5,-146.5 "/>
<text text-anchor="middle" x="1090.5" y="-124.8" font-family="Times,serif" font-size="14.00">N2</text>
<polyline fill="none" stroke="black" points="1109.5,-110.5 1109.5,-146.5 "/>
<text text-anchor="middle" x="1122" y="-124.8" font-family="Times,serif" font-size="14.00">a</text>
<polyline fill="none" stroke="black" points="1134.5,-110.5 1134.5,-146.5 "/>
<text text-anchor="middle" x="1185.5" y="-124.8" font-family="Times,serif" font-size="14.00">data 2.0000</text>
<polyline fill="none" stroke="black" points="1236.5,-110.5 1236.5,-146.5 "/>
<text text-anchor="middle" x="1288.5" y="-124.8" font-family="Times,serif" font-size="14.00">grad 0.0000</text>
</g>
<!-- 140260402419968&#45;&gt;140260402429664* -->
<g id="edge10" class="edge">
<title>140260402419968&#45;&gt;140260402429664*</title>
<path fill="none" stroke="black" d="M1340.61,-128.5C1352.37,-128.5 1363.29,-128.5 1372.8,-128.5"/>
<polygon fill="black" stroke="black" points="1372.91,-132 1382.91,-128.5 1372.91,-125 1372.91,-132"/>
</g>
<!-- 140260402419968+ -->
<g id="node14" class="node">
<title>140260402419968+</title>
<ellipse fill="none" stroke="black" cx="915" cy="-128.5" rx="27" ry="18"/>
<text text-anchor="middle" x="915" y="-124.8" font-family="Times,serif" font-size="14.00">+</text>
</g>
<!-- 140260402419968+&#45;&gt;140260402419968 -->
<g id="edge5" class="edge">
<title>140260402419968+&#45;&gt;140260402419968</title>
<path fill="none" stroke="black" d="M942.27,-128.5C951.26,-128.5 962.11,-128.5 974.12,-128.5"/>
<polygon fill="black" stroke="black" points="974.46,-132 984.46,-128.5 974.46,-125 974.46,-132"/>
</g>
<!-- 140260402419632 -->
<g id="node15" class="node">
<title>140260402419632</title>
<polygon fill="none" stroke="black" points="1473,-0.5 1473,-36.5 1830,-36.5 1830,-0.5 1473,-0.5"/>
<text text-anchor="middle" x="1499" y="-14.8" font-family="Times,serif" font-size="14.00">v007</text>
<polyline fill="none" stroke="black" points="1525,-0.5 1525,-36.5 "/>
<text text-anchor="middle" x="1542.5" y="-14.8" font-family="Times,serif" font-size="14.00">L2</text>
<polyline fill="none" stroke="black" points="1560,-0.5 1560,-36.5 "/>
<text text-anchor="middle" x="1579" y="-14.8" font-family="Times,serif" font-size="14.00">N1</text>
<polyline fill="none" stroke="black" points="1598,-0.5 1598,-36.5 "/>
<text text-anchor="middle" x="1611" y="-14.8" font-family="Times,serif" font-size="14.00">b</text>
<polyline fill="none" stroke="black" points="1624,-0.5 1624,-36.5 "/>
<text text-anchor="middle" x="1675" y="-14.8" font-family="Times,serif" font-size="14.00">data 0.0000</text>
<polyline fill="none" stroke="black" points="1726,-0.5 1726,-36.5 "/>
<text text-anchor="middle" x="1778" y="-14.8" font-family="Times,serif" font-size="14.00">grad 0.0000</text>
</g>
<!-- 140260402419632&#45;&gt;140260402424672+ -->
<g id="edge19" class="edge">
<title>140260402419632&#45;&gt;140260402424672+</title>
<path fill="none" stroke="black" d="M1774.63,-36.51C1849.65,-47.57 1940.51,-60.97 1989.68,-68.22"/>
<polygon fill="black" stroke="black" points="1989.41,-71.72 1999.81,-69.71 1990.43,-64.79 1989.41,-71.72"/>
</g>
<!-- 140260402424672 -->
<g id="node16" class="node">
<title>140260402424672</title>
<polygon fill="none" stroke="black" points="2223,-59.5 2223,-95.5 2544,-95.5 2544,-59.5 2223,-59.5"/>
<text text-anchor="middle" x="2249" y="-73.8" font-family="Times,serif" font-size="14.00">v015</text>
<polyline fill="none" stroke="black" points="2275,-59.5 2275,-95.5 "/>
<text text-anchor="middle" x="2285.5" y="-73.8" font-family="Times,serif" font-size="14.00"> </text>
<polyline fill="none" stroke="black" points="2296,-59.5 2296,-95.5 "/>
<text text-anchor="middle" x="2306.5" y="-73.8" font-family="Times,serif" font-size="14.00"> </text>
<polyline fill="none" stroke="black" points="2317,-59.5 2317,-95.5 "/>
<text text-anchor="middle" x="2327.5" y="-73.8" font-family="Times,serif" font-size="14.00"> </text>
<polyline fill="none" stroke="black" points="2338,-59.5 2338,-95.5 "/>
<text text-anchor="middle" x="2389" y="-73.8" font-family="Times,serif" font-size="14.00">data 1.2000</text>
<polyline fill="none" stroke="black" points="2440,-59.5 2440,-95.5 "/>
<text text-anchor="middle" x="2492" y="-73.8" font-family="Times,serif" font-size="14.00">grad 0.0000</text>
</g>
<!-- 140260402424672&#45;&gt;140260402425296+ -->
<g id="edge14" class="edge">
<title>140260402424672&#45;&gt;140260402425296+</title>
<path fill="none" stroke="black" d="M2544.01,-94.06C2553.42,-95.04 2562.26,-95.96 2570.13,-96.78"/>
<polygon fill="black" stroke="black" points="2569.95,-100.28 2580.26,-97.83 2570.67,-93.31 2569.95,-100.28"/>
</g>
<!-- 140260402424672+&#45;&gt;140260402424672 -->
<g id="edge6" class="edge">
<title>140260402424672+&#45;&gt;140260402424672</title>
<path fill="none" stroke="black" d="M2053.6,-73.79C2087.81,-74.18 2150.72,-74.89 2212.43,-75.58"/>
<polygon fill="black" stroke="black" points="2212.68,-79.09 2222.72,-75.7 2212.76,-72.09 2212.68,-79.09"/>
</g>
<!-- 140260402421168 -->
<g id="node18" class="node">
<title>140260402421168</title>
<polygon fill="none" stroke="black" points="984.5,-55.5 984.5,-91.5 1340.5,-91.5 1340.5,-55.5 984.5,-55.5"/>
<text text-anchor="middle" x="1010.5" y="-69.8" font-family="Times,serif" font-size="14.00">v011</text>
<polyline fill="none" stroke="black" points="1036.5,-55.5 1036.5,-91.5 "/>
<text text-anchor="middle" x="1054" y="-69.8" font-family="Times,serif" font-size="14.00">L1</text>
<polyline fill="none" stroke="black" points="1071.5,-55.5 1071.5,-91.5 "/>
<text text-anchor="middle" x="1090.5" y="-69.8" font-family="Times,serif" font-size="14.00">N1</text>
<polyline fill="none" stroke="black" points="1109.5,-55.5 1109.5,-91.5 "/>
<text text-anchor="middle" x="1122" y="-69.8" font-family="Times,serif" font-size="14.00">a</text>
<polyline fill="none" stroke="black" points="1134.5,-55.5 1134.5,-91.5 "/>
<text text-anchor="middle" x="1185.5" y="-69.8" font-family="Times,serif" font-size="14.00">data 2.0000</text>
<polyline fill="none" stroke="black" points="1236.5,-55.5 1236.5,-91.5 "/>
<text text-anchor="middle" x="1288.5" y="-69.8" font-family="Times,serif" font-size="14.00">grad 0.0000</text>
</g>
<!-- 140260402421168&#45;&gt;140260402423424* -->
<g id="edge12" class="edge">
<title>140260402421168&#45;&gt;140260402423424*</title>
<path fill="none" stroke="black" d="M1340.61,-73.5C1352.37,-73.5 1363.29,-73.5 1372.8,-73.5"/>
<polygon fill="black" stroke="black" points="1372.91,-77 1382.91,-73.5 1372.91,-70 1372.91,-77"/>
</g>
<!-- 140260402421168+&#45;&gt;140260402421168 -->
<g id="edge7" class="edge">
<title>140260402421168+&#45;&gt;140260402421168</title>
<path fill="none" stroke="black" d="M942.27,-73.5C951.26,-73.5 962.11,-73.5 974.12,-73.5"/>
<polygon fill="black" stroke="black" points="974.46,-77 984.46,-73.5 974.46,-70 974.46,-77"/>
</g>
<!-- 140260402428800 -->
<g id="node20" class="node">
<title>140260402428800</title>
<polygon fill="none" stroke="black" points="513,-165.5 513,-201.5 834,-201.5 834,-165.5 513,-165.5"/>
<text text-anchor="middle" x="539" y="-179.8" font-family="Times,serif" font-size="14.00">v012</text>
<polyline fill="none" stroke="black" points="565,-165.5 565,-201.5 "/>
<text text-anchor="middle" x="575.5" y="-179.8" font-family="Times,serif" font-size="14.00"> </text>
<polyline fill="none" stroke="black" points="586,-165.5 586,-201.5 "/>
<text text-anchor="middle" x="596.5" y="-179.8" font-family="Times,serif" font-size="14.00"> </text>
<polyline fill="none" stroke="black" points="607,-165.5 607,-201.5 "/>
<text text-anchor="middle" x="617.5" y="-179.8" font-family="Times,serif" font-size="14.00"> </text>
<polyline fill="none" stroke="black" points="628,-165.5 628,-201.5 "/>
<text text-anchor="middle" x="679" y="-179.8" font-family="Times,serif" font-size="14.00">data 2.0000</text>
<polyline fill="none" stroke="black" points="730,-165.5 730,-201.5 "/>
<text text-anchor="middle" x="782" y="-179.8" font-family="Times,serif" font-size="14.00">grad 0.0000</text>
</g>
<!-- 140260402428800&#45;&gt;140260402419968+ -->
<g id="edge26" class="edge">
<title>140260402428800&#45;&gt;140260402419968+</title>
<path fill="none" stroke="black" d="M816.72,-165.42C828.74,-162.82 840.64,-159.86 852,-156.5 862.81,-153.3 874.19,-148.59 884.2,-143.95"/>
<polygon fill="black" stroke="black" points="885.82,-147.05 893.31,-139.56 882.78,-140.74 885.82,-147.05"/>
</g>
<!-- 140260402428800*&#45;&gt;140260402428800 -->
<g id="edge8" class="edge">
<title>140260402428800*&#45;&gt;140260402428800</title>
<path fill="none" stroke="black" d="M459.09,-183.5C470.83,-183.5 485.78,-183.5 502.29,-183.5"/>
<polygon fill="black" stroke="black" points="502.75,-187 512.75,-183.5 502.75,-180 502.75,-187"/>
</g>
<!-- 140260402422704 -->
<g id="node22" class="node">
<title>140260402422704</title>
<polygon fill="none" stroke="black" points="495,-110.5 495,-146.5 852,-146.5 852,-110.5 495,-110.5"/>
<text text-anchor="middle" x="521" y="-124.8" font-family="Times,serif" font-size="14.00">v004</text>
<polyline fill="none" stroke="black" points="547,-110.5 547,-146.5 "/>
<text text-anchor="middle" x="564.5" y="-124.8" font-family="Times,serif" font-size="14.00">L1</text>
<polyline fill="none" stroke="black" points="582,-110.5 582,-146.5 "/>
<text text-anchor="middle" x="601" y="-124.8" font-family="Times,serif" font-size="14.00">N2</text>
<polyline fill="none" stroke="black" points="620,-110.5 620,-146.5 "/>
<text text-anchor="middle" x="633" y="-124.8" font-family="Times,serif" font-size="14.00">b</text>
<polyline fill="none" stroke="black" points="646,-110.5 646,-146.5 "/>
<text text-anchor="middle" x="697" y="-124.8" font-family="Times,serif" font-size="14.00">data 0.0000</text>
<polyline fill="none" stroke="black" points="748,-110.5 748,-146.5 "/>
<text text-anchor="middle" x="800" y="-124.8" font-family="Times,serif" font-size="14.00">grad 0.0000</text>
</g>
<!-- 140260402422704&#45;&gt;140260402419968+ -->
<g id="edge11" class="edge">
<title>140260402422704&#45;&gt;140260402419968+</title>
<path fill="none" stroke="black" d="M852.01,-128.5C861.23,-128.5 869.85,-128.5 877.55,-128.5"/>
<polygon fill="black" stroke="black" points="877.81,-132 887.81,-128.5 877.81,-125 877.81,-132"/>
</g>
<!-- 140260402425296 -->
<g id="node23" class="node">
<title>140260402425296</title>
<polygon fill="none" stroke="black" points="2670,-82.5 2670,-118.5 3026,-118.5 3026,-82.5 2670,-82.5"/>
<text text-anchor="middle" x="2696" y="-96.8" font-family="Times,serif" font-size="14.00">v017</text>
<polyline fill="none" stroke="black" points="2722,-82.5 2722,-118.5 "/>
<text text-anchor="middle" x="2739.5" y="-96.8" font-family="Times,serif" font-size="14.00">L2</text>
<polyline fill="none" stroke="black" points="2757,-82.5 2757,-118.5 "/>
<text text-anchor="middle" x="2776" y="-96.8" font-family="Times,serif" font-size="14.00">N1</text>
<polyline fill="none" stroke="black" points="2795,-82.5 2795,-118.5 "/>
<text text-anchor="middle" x="2807.5" y="-96.8" font-family="Times,serif" font-size="14.00">a</text>
<polyline fill="none" stroke="black" points="2820,-82.5 2820,-118.5 "/>
<text text-anchor="middle" x="2871" y="-96.8" font-family="Times,serif" font-size="14.00">data 3.6000</text>
<polyline fill="none" stroke="black" points="2922,-82.5 2922,-118.5 "/>
<text text-anchor="middle" x="2974" y="-96.8" font-family="Times,serif" font-size="14.00">grad 0.0000</text>
</g>
<!-- 140260402425296&#45;&gt;140260402422800* -->
<g id="edge17" class="edge">
<title>140260402425296&#45;&gt;140260402422800*</title>
<path fill="none" stroke="black" d="M3026.14,-100.5C3035.34,-100.5 3043.94,-100.5 3051.63,-100.5"/>
<polygon fill="black" stroke="black" points="3051.86,-104 3061.86,-100.5 3051.86,-97 3051.86,-104"/>
</g>
<!-- 140260402425296+&#45;&gt;140260402425296 -->
<g id="edge9" class="edge">
<title>140260402425296+&#45;&gt;140260402425296</title>
<path fill="none" stroke="black" d="M2634.03,-100.5C2641.4,-100.5 2650.02,-100.5 2659.49,-100.5"/>
<polygon fill="black" stroke="black" points="2659.66,-104 2669.66,-100.5 2659.66,-97 2659.66,-104"/>
</g>
<!-- 140260402419680 -->
<g id="node25" class="node">
<title>140260402419680</title>
<polygon fill="none" stroke="black" points="978,-0.5 978,-36.5 1347,-36.5 1347,-0.5 978,-0.5"/>
<text text-anchor="middle" x="1004" y="-14.8" font-family="Times,serif" font-size="14.00">v005</text>
<polyline fill="none" stroke="black" points="1030,-0.5 1030,-36.5 "/>
<text text-anchor="middle" x="1047.5" y="-14.8" font-family="Times,serif" font-size="14.00">L2</text>
<polyline fill="none" stroke="black" points="1065,-0.5 1065,-36.5 "/>
<text text-anchor="middle" x="1084" y="-14.8" font-family="Times,serif" font-size="14.00">N1</text>
<polyline fill="none" stroke="black" points="1103,-0.5 1103,-36.5 "/>
<text text-anchor="middle" x="1122" y="-14.8" font-family="Times,serif" font-size="14.00">w1</text>
<polyline fill="none" stroke="black" points="1141,-0.5 1141,-36.5 "/>
<text text-anchor="middle" x="1192" y="-14.8" font-family="Times,serif" font-size="14.00">data 0.6000</text>
<polyline fill="none" stroke="black" points="1243,-0.5 1243,-36.5 "/>
<text text-anchor="middle" x="1295" y="-14.8" font-family="Times,serif" font-size="14.00">grad 0.0000</text>
</g>
<!-- 140260402419680&#45;&gt;140260402423424* -->
<g id="edge15" class="edge">
<title>140260402419680&#45;&gt;140260402423424*</title>
<path fill="none" stroke="black" d="M1311.02,-36.51C1323.28,-39.12 1335.41,-42.1 1347,-45.5 1357.82,-48.67 1369.2,-53.37 1379.21,-58.02"/>
<polygon fill="black" stroke="black" points="1377.79,-61.23 1388.32,-62.41 1380.83,-54.92 1377.79,-61.23"/>
</g>
<!-- 140260953974256 -->
<g id="node26" class="node">
<title>140260953974256</title>
<polygon fill="none" stroke="black" points="19.5,-110.5 19.5,-146.5 349.5,-146.5 349.5,-110.5 19.5,-110.5"/>
<text text-anchor="middle" x="45.5" y="-124.8" font-family="Times,serif" font-size="14.00">v008</text>
<polyline fill="none" stroke="black" points="71.5,-110.5 71.5,-146.5 "/>
<text text-anchor="middle" x="82" y="-124.8" font-family="Times,serif" font-size="14.00"> </text>
<polyline fill="none" stroke="black" points="92.5,-110.5 92.5,-146.5 "/>
<text text-anchor="middle" x="103" y="-124.8" font-family="Times,serif" font-size="14.00"> </text>
<polyline fill="none" stroke="black" points="113.5,-110.5 113.5,-146.5 "/>
<text text-anchor="middle" x="128.5" y="-124.8" font-family="Times,serif" font-size="14.00">i1</text>
<polyline fill="none" stroke="black" points="143.5,-110.5 143.5,-146.5 "/>
<text text-anchor="middle" x="194.5" y="-124.8" font-family="Times,serif" font-size="14.00">data 4.0000</text>
<polyline fill="none" stroke="black" points="245.5,-110.5 245.5,-146.5 "/>
<text text-anchor="middle" x="297.5" y="-124.8" font-family="Times,serif" font-size="14.00">grad 0.0000</text>
</g>
<!-- 140260953974256&#45;&gt;140260402421264* -->
<g id="edge22" class="edge">
<title>140260953974256&#45;&gt;140260402421264*</title>
<path fill="none" stroke="black" d="M328.05,-110.49C341.99,-107.61 355.84,-104.3 369,-100.5 379.68,-97.42 390.95,-92.92 400.91,-88.47"/>
<polygon fill="black" stroke="black" points="402.38,-91.65 409.99,-84.28 399.44,-85.29 402.38,-91.65"/>
</g>
<!-- 140260953974256&#45;&gt;140260402428800* -->
<g id="edge16" class="edge">
<title>140260953974256&#45;&gt;140260402428800*</title>
<path fill="none" stroke="black" d="M328.05,-146.51C341.99,-149.39 355.84,-152.7 369,-156.5 379.68,-159.58 390.95,-164.08 400.91,-168.53"/>
<polygon fill="black" stroke="black" points="399.44,-171.71 409.99,-172.72 402.38,-165.35 399.44,-171.71"/>
</g>
</g>
</svg>
