<?xml version="1.0" encoding="UTF-8" standalone="no"?>
<!DOCTYPE svg PUBLIC "-//W3C//DTD SVG 1.1//EN"
 "http://www.w3.org/Graphics/SVG/1.1/DTD/svg11.dtd">
<!-- Generated by graphviz version 2.43.0 (0)
 -->
<!-- Title: %3 Pages: 1 -->
<svg width="3044pt" height="265pt"
 viewBox="0.00 0.00 3044.00 265.00" xmlns="http://www.w3.org/2000/svg" xmlns:xlink="http://www.w3.org/1999/xlink">
<g id="graph0" class="graph" transform="scale(1 1) rotate(0) translate(4 261)">
<title>%3</title>
<polygon fill="white" stroke="transparent" points="-4,4 -4,-261 3040,-261 3040,4 -4,4"/>
<!-- 140402538963456 -->
<g id="node1" class="node">
<title>140402538963456</title>
<polygon fill="none" stroke="black" points="1478,-93.5 1478,-129.5 1840,-129.5 1840,-93.5 1478,-93.5"/>
<text text-anchor="middle" x="1504" y="-107.8" font-family="Times,serif" font-size="14.00">v007</text>
<polyline fill="none" stroke="black" points="1530,-93.5 1530,-129.5 "/>
<text text-anchor="middle" x="1547.5" y="-107.8" font-family="Times,serif" font-size="14.00">L2</text>
<polyline fill="none" stroke="black" points="1565,-93.5 1565,-129.5 "/>
<text text-anchor="middle" x="1584" y="-107.8" font-family="Times,serif" font-size="14.00">N1</text>
<polyline fill="none" stroke="black" points="1603,-93.5 1603,-129.5 "/>
<text text-anchor="middle" x="1616" y="-107.8" font-family="Times,serif" font-size="14.00">b</text>
<polyline fill="none" stroke="black" points="1629,-93.5 1629,-129.5 "/>
<text text-anchor="middle" x="1682.5" y="-107.8" font-family="Times,serif" font-size="14.00">data &#45;0.0500</text>
<polyline fill="none" stroke="black" points="1736,-93.5 1736,-129.5 "/>
<text text-anchor="middle" x="1788" y="-107.8" font-family="Times,serif" font-size="14.00">grad 1.0000</text>
</g>
<!-- 140402538964128+ -->
<g id="node12" class="node">
<title>140402538964128+</title>
<ellipse fill="none" stroke="black" cx="2036.5" cy="-115.5" rx="27" ry="18"/>
<text text-anchor="middle" x="2036.5" y="-111.8" font-family="Times,serif" font-size="14.00">+</text>
</g>
<!-- 140402538963456&#45;&gt;140402538964128+ -->
<g id="edge24" class="edge">
<title>140402538963456&#45;&gt;140402538964128+</title>
<path fill="none" stroke="black" d="M1840.05,-113.42C1900.18,-114.06 1961.37,-114.71 1998.88,-115.11"/>
<polygon fill="black" stroke="black" points="1999.24,-118.61 2009.27,-115.22 1999.31,-111.61 1999.24,-118.61"/>
</g>
<!-- 140402538961920 -->
<g id="node2" class="node">
<title>140402538961920</title>
<polygon fill="none" stroke="black" points="1498.5,-148.5 1498.5,-184.5 1819.5,-184.5 1819.5,-148.5 1498.5,-148.5"/>
<text text-anchor="middle" x="1524.5" y="-162.8" font-family="Times,serif" font-size="14.00">v014</text>
<polyline fill="none" stroke="black" points="1550.5,-148.5 1550.5,-184.5 "/>
<text text-anchor="middle" x="1561" y="-162.8" font-family="Times,serif" font-size="14.00"> </text>
<polyline fill="none" stroke="black" points="1571.5,-148.5 1571.5,-184.5 "/>
<text text-anchor="middle" x="1582" y="-162.8" font-family="Times,serif" font-size="14.00"> </text>
<polyline fill="none" stroke="black" points="1592.5,-148.5 1592.5,-184.5 "/>
<text text-anchor="middle" x="1603" y="-162.8" font-family="Times,serif" font-size="14.00"> </text>
<polyline fill="none" stroke="black" points="1613.5,-148.5 1613.5,-184.5 "/>
<text text-anchor="middle" x="1664.5" y="-162.8" font-family="Times,serif" font-size="14.00">data 1.2000</text>
<polyline fill="none" stroke="black" points="1715.5,-148.5 1715.5,-184.5 "/>
<text text-anchor="middle" x="1767.5" y="-162.8" font-family="Times,serif" font-size="14.00">grad 1.0000</text>
</g>
<!-- 140402538961920&#45;&gt;140402538964128+ -->
<g id="edge11" class="edge">
<title>140402538961920&#45;&gt;140402538964128+</title>
<path fill="none" stroke="black" d="M1792.65,-148.48C1866.43,-138.46 1952.67,-126.75 1999.96,-120.33"/>
<polygon fill="black" stroke="black" points="2000.56,-123.78 2010,-118.96 1999.62,-116.84 2000.56,-123.78"/>
</g>
<!-- 140402538961920* -->
<g id="node3" class="node">
<title>140402538961920*</title>
<ellipse fill="none" stroke="black" cx="1415" cy="-166.5" rx="27" ry="18"/>
<text text-anchor="middle" x="1415" y="-162.8" font-family="Times,serif" font-size="14.00">*</text>
</g>
<!-- 140402538961920*&#45;&gt;140402538961920 -->
<g id="edge1" class="edge">
<title>140402538961920*&#45;&gt;140402538961920</title>
<path fill="none" stroke="black" d="M1442.36,-166.5C1454.7,-166.5 1470.53,-166.5 1488,-166.5"/>
<polygon fill="black" stroke="black" points="1488.46,-170 1498.46,-166.5 1488.46,-163 1488.46,-170"/>
</g>
<!-- 140402538960384 -->
<g id="node4" class="node">
<title>140402538960384</title>
<polygon fill="none" stroke="black" points="515.5,-220.5 515.5,-256.5 836.5,-256.5 836.5,-220.5 515.5,-220.5"/>
<text text-anchor="middle" x="541.5" y="-234.8" font-family="Times,serif" font-size="14.00">v010</text>
<polyline fill="none" stroke="black" points="567.5,-220.5 567.5,-256.5 "/>
<text text-anchor="middle" x="578" y="-234.8" font-family="Times,serif" font-size="14.00"> </text>
<polyline fill="none" stroke="black" points="588.5,-220.5 588.5,-256.5 "/>
<text text-anchor="middle" x="599" y="-234.8" font-family="Times,serif" font-size="14.00"> </text>
<polyline fill="none" stroke="black" points="609.5,-220.5 609.5,-256.5 "/>
<text text-anchor="middle" x="620" y="-234.8" font-family="Times,serif" font-size="14.00"> </text>
<polyline fill="none" stroke="black" points="630.5,-220.5 630.5,-256.5 "/>
<text text-anchor="middle" x="681.5" y="-234.8" font-family="Times,serif" font-size="14.00">data 2.0000</text>
<polyline fill="none" stroke="black" points="732.5,-220.5 732.5,-256.5 "/>
<text text-anchor="middle" x="784.5" y="-234.8" font-family="Times,serif" font-size="14.00">grad 0.6000</text>
</g>
<!-- 140402538967344+ -->
<g id="node14" class="node">
<title>140402538967344+</title>
<ellipse fill="none" stroke="black" cx="920" cy="-196.5" rx="27" ry="18"/>
<text text-anchor="middle" x="920" y="-192.8" font-family="Times,serif" font-size="14.00">+</text>
</g>
<!-- 140402538960384&#45;&gt;140402538967344+ -->
<g id="edge15" class="edge">
<title>140402538960384&#45;&gt;140402538967344+</title>
<path fill="none" stroke="black" d="M806.53,-220.48C823.54,-217.7 840.72,-214.68 857,-211.5 866.08,-209.72 875.84,-207.51 884.86,-205.33"/>
<polygon fill="black" stroke="black" points="885.8,-208.71 894.67,-202.91 884.12,-201.91 885.8,-208.71"/>
</g>
<!-- 140402538960384* -->
<g id="node5" class="node">
<title>140402538960384*</title>
<ellipse fill="none" stroke="black" cx="432" cy="-231.5" rx="27" ry="18"/>
<text text-anchor="middle" x="432" y="-227.8" font-family="Times,serif" font-size="14.00">*</text>
</g>
<!-- 140402538960384*&#45;&gt;140402538960384 -->
<g id="edge2" class="edge">
<title>140402538960384*&#45;&gt;140402538960384</title>
<path fill="none" stroke="black" d="M459.36,-232.26C471.7,-232.62 487.53,-233.08 505,-233.58"/>
<polygon fill="black" stroke="black" points="505.37,-237.09 515.46,-233.89 505.57,-230.1 505.37,-237.09"/>
</g>
<!-- 140402538963504 -->
<g id="node6" class="node">
<title>140402538963504</title>
<polygon fill="none" stroke="black" points="983,-123.5 983,-159.5 1352,-159.5 1352,-123.5 983,-123.5"/>
<text text-anchor="middle" x="1009" y="-137.8" font-family="Times,serif" font-size="14.00">v005</text>
<polyline fill="none" stroke="black" points="1035,-123.5 1035,-159.5 "/>
<text text-anchor="middle" x="1052.5" y="-137.8" font-family="Times,serif" font-size="14.00">L2</text>
<polyline fill="none" stroke="black" points="1070,-123.5 1070,-159.5 "/>
<text text-anchor="middle" x="1089" y="-137.8" font-family="Times,serif" font-size="14.00">N1</text>
<polyline fill="none" stroke="black" points="1108,-123.5 1108,-159.5 "/>
<text text-anchor="middle" x="1127" y="-137.8" font-family="Times,serif" font-size="14.00">w1</text>
<polyline fill="none" stroke="black" points="1146,-123.5 1146,-159.5 "/>
<text text-anchor="middle" x="1197" y="-137.8" font-family="Times,serif" font-size="14.00">data 0.5000</text>
<polyline fill="none" stroke="black" points="1248,-123.5 1248,-159.5 "/>
<text text-anchor="middle" x="1300" y="-137.8" font-family="Times,serif" font-size="14.00">grad 2.0000</text>
</g>
<!-- 140402538963504&#45;&gt;140402538961920* -->
<g id="edge10" class="edge">
<title>140402538963504&#45;&gt;140402538961920*</title>
<path fill="none" stroke="black" d="M1345.29,-159.5C1357.2,-160.72 1368.27,-161.84 1377.89,-162.82"/>
<polygon fill="black" stroke="black" points="1377.8,-166.33 1388.1,-163.86 1378.51,-159.37 1377.8,-166.33"/>
</g>
<!-- 140402538964032 -->
<g id="node7" class="node">
<title>140402538964032</title>
<polygon fill="none" stroke="black" points="495,-165.5 495,-201.5 857,-201.5 857,-165.5 495,-165.5"/>
<text text-anchor="middle" x="521" y="-179.8" font-family="Times,serif" font-size="14.00">v002</text>
<polyline fill="none" stroke="black" points="547,-165.5 547,-201.5 "/>
<text text-anchor="middle" x="564.5" y="-179.8" font-family="Times,serif" font-size="14.00">L1</text>
<polyline fill="none" stroke="black" points="582,-165.5 582,-201.5 "/>
<text text-anchor="middle" x="601" y="-179.8" font-family="Times,serif" font-size="14.00">N1</text>
<polyline fill="none" stroke="black" points="620,-165.5 620,-201.5 "/>
<text text-anchor="middle" x="633" y="-179.8" font-family="Times,serif" font-size="14.00">b</text>
<polyline fill="none" stroke="black" points="646,-165.5 646,-201.5 "/>
<text text-anchor="middle" x="699.5" y="-179.8" font-family="Times,serif" font-size="14.00">data &#45;0.0300</text>
<polyline fill="none" stroke="black" points="753,-165.5 753,-201.5 "/>
<text text-anchor="middle" x="805" y="-179.8" font-family="Times,serif" font-size="14.00">grad 0.6000</text>
</g>
<!-- 140402538964032&#45;&gt;140402538967344+ -->
<g id="edge21" class="edge">
<title>140402538964032&#45;&gt;140402538967344+</title>
<path fill="none" stroke="black" d="M857.31,-193.19C866.5,-193.68 875.08,-194.14 882.76,-194.55"/>
<polygon fill="black" stroke="black" points="882.79,-198.06 892.96,-195.1 883.16,-191.07 882.79,-198.06"/>
</g>
<!-- 140402538960912 -->
<g id="node8" class="node">
<title>140402538960912</title>
<polygon fill="none" stroke="black" points="989.5,-55.5 989.5,-91.5 1345.5,-91.5 1345.5,-55.5 989.5,-55.5"/>
<text text-anchor="middle" x="1015.5" y="-69.8" font-family="Times,serif" font-size="14.00">v013</text>
<polyline fill="none" stroke="black" points="1041.5,-55.5 1041.5,-91.5 "/>
<text text-anchor="middle" x="1059" y="-69.8" font-family="Times,serif" font-size="14.00">L1</text>
<polyline fill="none" stroke="black" points="1076.5,-55.5 1076.5,-91.5 "/>
<text text-anchor="middle" x="1095.5" y="-69.8" font-family="Times,serif" font-size="14.00">N2</text>
<polyline fill="none" stroke="black" points="1114.5,-55.5 1114.5,-91.5 "/>
<text text-anchor="middle" x="1127" y="-69.8" font-family="Times,serif" font-size="14.00">a</text>
<polyline fill="none" stroke="black" points="1139.5,-55.5 1139.5,-91.5 "/>
<text text-anchor="middle" x="1190.5" y="-69.8" font-family="Times,serif" font-size="14.00">data 2.0000</text>
<polyline fill="none" stroke="black" points="1241.5,-55.5 1241.5,-91.5 "/>
<text text-anchor="middle" x="1293.5" y="-69.8" font-family="Times,serif" font-size="14.00">grad 1.2000</text>
</g>
<!-- 140402538967008* -->
<g id="node24" class="node">
<title>140402538967008*</title>
<ellipse fill="none" stroke="black" cx="1415" cy="-60.5" rx="27" ry="18"/>
<text text-anchor="middle" x="1415" y="-56.8" font-family="Times,serif" font-size="14.00">*</text>
</g>
<!-- 140402538960912&#45;&gt;140402538967008* -->
<g id="edge9" class="edge">
<title>140402538960912&#45;&gt;140402538967008*</title>
<path fill="none" stroke="black" d="M1345.61,-64.12C1357.37,-63.5 1368.29,-62.92 1377.8,-62.42"/>
<polygon fill="black" stroke="black" points="1378.11,-65.91 1387.91,-61.88 1377.74,-58.92 1378.11,-65.91"/>
</g>
<!-- 140402538960912+ -->
<g id="node9" class="node">
<title>140402538960912+</title>
<ellipse fill="none" stroke="black" cx="920" cy="-73.5" rx="27" ry="18"/>
<text text-anchor="middle" x="920" y="-69.8" font-family="Times,serif" font-size="14.00">+</text>
</g>
<!-- 140402538960912+&#45;&gt;140402538960912 -->
<g id="edge3" class="edge">
<title>140402538960912+&#45;&gt;140402538960912</title>
<path fill="none" stroke="black" d="M947.27,-73.5C956.26,-73.5 967.11,-73.5 979.12,-73.5"/>
<polygon fill="black" stroke="black" points="979.46,-77 989.46,-73.5 979.46,-70 979.46,-77"/>
</g>
<!-- 140402538964080 -->
<g id="node10" class="node">
<title>140402538964080</title>
<polygon fill="none" stroke="black" points="0,-213.5 0,-249.5 369,-249.5 369,-213.5 0,-213.5"/>
<text text-anchor="middle" x="26" y="-227.8" font-family="Times,serif" font-size="14.00">v001</text>
<polyline fill="none" stroke="black" points="52,-213.5 52,-249.5 "/>
<text text-anchor="middle" x="69.5" y="-227.8" font-family="Times,serif" font-size="14.00">L1</text>
<polyline fill="none" stroke="black" points="87,-213.5 87,-249.5 "/>
<text text-anchor="middle" x="106" y="-227.8" font-family="Times,serif" font-size="14.00">N1</text>
<polyline fill="none" stroke="black" points="125,-213.5 125,-249.5 "/>
<text text-anchor="middle" x="144" y="-227.8" font-family="Times,serif" font-size="14.00">w1</text>
<polyline fill="none" stroke="black" points="163,-213.5 163,-249.5 "/>
<text text-anchor="middle" x="214" y="-227.8" font-family="Times,serif" font-size="14.00">data 0.3800</text>
<polyline fill="none" stroke="black" points="265,-213.5 265,-249.5 "/>
<text text-anchor="middle" x="317" y="-227.8" font-family="Times,serif" font-size="14.00">grad 2.4000</text>
</g>
<!-- 140402538964080&#45;&gt;140402538960384* -->
<g id="edge13" class="edge">
<title>140402538964080&#45;&gt;140402538960384*</title>
<path fill="none" stroke="black" d="M369.05,-231.5C378.29,-231.5 386.92,-231.5 394.62,-231.5"/>
<polygon fill="black" stroke="black" points="394.87,-235 404.87,-231.5 394.87,-228 394.87,-235"/>
</g>
<!-- 140402538964128 -->
<g id="node11" class="node">
<title>140402538964128</title>
<polygon fill="none" stroke="black" points="2233,-95.5 2233,-131.5 2554,-131.5 2554,-95.5 2233,-95.5"/>
<text text-anchor="middle" x="2259" y="-109.8" font-family="Times,serif" font-size="14.00">v015</text>
<polyline fill="none" stroke="black" points="2285,-95.5 2285,-131.5 "/>
<text text-anchor="middle" x="2295.5" y="-109.8" font-family="Times,serif" font-size="14.00"> </text>
<polyline fill="none" stroke="black" points="2306,-95.5 2306,-131.5 "/>
<text text-anchor="middle" x="2316.5" y="-109.8" font-family="Times,serif" font-size="14.00"> </text>
<polyline fill="none" stroke="black" points="2327,-95.5 2327,-131.5 "/>
<text text-anchor="middle" x="2337.5" y="-109.8" font-family="Times,serif" font-size="14.00"> </text>
<polyline fill="none" stroke="black" points="2348,-95.5 2348,-131.5 "/>
<text text-anchor="middle" x="2399" y="-109.8" font-family="Times,serif" font-size="14.00">data 1.2000</text>
<polyline fill="none" stroke="black" points="2450,-95.5 2450,-131.5 "/>
<text text-anchor="middle" x="2502" y="-109.8" font-family="Times,serif" font-size="14.00">grad 1.0000</text>
</g>
<!-- 140402538969936+ -->
<g id="node16" class="node">
<title>140402538969936+</title>
<ellipse fill="none" stroke="black" cx="2617" cy="-87.5" rx="27" ry="18"/>
<text text-anchor="middle" x="2617" y="-83.8" font-family="Times,serif" font-size="14.00">+</text>
</g>
<!-- 140402538964128&#45;&gt;140402538969936+ -->
<g id="edge20" class="edge">
<title>140402538964128&#45;&gt;140402538969936+</title>
<path fill="none" stroke="black" d="M2548.04,-95.48C2559.67,-94.11 2570.55,-92.83 2580.06,-91.72"/>
<polygon fill="black" stroke="black" points="2580.64,-95.17 2590.17,-90.53 2579.83,-88.22 2580.64,-95.17"/>
</g>
<!-- 140402538964128+&#45;&gt;140402538964128 -->
<g id="edge4" class="edge">
<title>140402538964128+&#45;&gt;140402538964128</title>
<path fill="none" stroke="black" d="M2063.6,-115.35C2097.81,-115.16 2160.72,-114.81 2222.43,-114.46"/>
<polygon fill="black" stroke="black" points="2222.74,-117.96 2232.72,-114.4 2222.7,-110.96 2222.74,-117.96"/>
</g>
<!-- 140402538967344 -->
<g id="node13" class="node">
<title>140402538967344</title>
<polygon fill="none" stroke="black" points="989.5,-178.5 989.5,-214.5 1345.5,-214.5 1345.5,-178.5 989.5,-178.5"/>
<text text-anchor="middle" x="1015.5" y="-192.8" font-family="Times,serif" font-size="14.00">v011</text>
<polyline fill="none" stroke="black" points="1041.5,-178.5 1041.5,-214.5 "/>
<text text-anchor="middle" x="1059" y="-192.8" font-family="Times,serif" font-size="14.00">L1</text>
<polyline fill="none" stroke="black" points="1076.5,-178.5 1076.5,-214.5 "/>
<text text-anchor="middle" x="1095.5" y="-192.8" font-family="Times,serif" font-size="14.00">N1</text>
<polyline fill="none" stroke="black" points="1114.5,-178.5 1114.5,-214.5 "/>
<text text-anchor="middle" x="1127" y="-192.8" font-family="Times,serif" font-size="14.00">a</text>
<polyline fill="none" stroke="black" points="1139.5,-178.5 1139.5,-214.5 "/>
<text text-anchor="middle" x="1190.5" y="-192.8" font-family="Times,serif" font-size="14.00">data 2.0000</text>
<polyline fill="none" stroke="black" points="1241.5,-178.5 1241.5,-214.5 "/>
<text text-anchor="middle" x="1293.5" y="-192.8" font-family="Times,serif" font-size="14.00">grad 0.6000</text>
</g>
<!-- 140402538967344&#45;&gt;140402538961920* -->
<g id="edge14" class="edge">
<title>140402538967344&#45;&gt;140402538961920*</title>
<path fill="none" stroke="black" d="M1315.91,-178.49C1339.02,-175.66 1360.91,-172.99 1378.13,-170.88"/>
<polygon fill="black" stroke="black" points="1378.71,-174.34 1388.21,-169.65 1377.86,-167.39 1378.71,-174.34"/>
</g>
<!-- 140402538967344+&#45;&gt;140402538967344 -->
<g id="edge5" class="edge">
<title>140402538967344+&#45;&gt;140402538967344</title>
<path fill="none" stroke="black" d="M947.27,-196.5C956.26,-196.5 967.11,-196.5 979.12,-196.5"/>
<polygon fill="black" stroke="black" points="979.46,-200 989.46,-196.5 979.46,-193 979.46,-200"/>
</g>
<!-- 140402538969936 -->
<g id="node15" class="node">
<title>140402538969936</title>
<polygon fill="none" stroke="black" points="2680,-69.5 2680,-105.5 3036,-105.5 3036,-69.5 2680,-69.5"/>
<text text-anchor="middle" x="2706" y="-83.8" font-family="Times,serif" font-size="14.00">v017</text>
<polyline fill="none" stroke="black" points="2732,-69.5 2732,-105.5 "/>
<text text-anchor="middle" x="2749.5" y="-83.8" font-family="Times,serif" font-size="14.00">L2</text>
<polyline fill="none" stroke="black" points="2767,-69.5 2767,-105.5 "/>
<text text-anchor="middle" x="2786" y="-83.8" font-family="Times,serif" font-size="14.00">N1</text>
<polyline fill="none" stroke="black" points="2805,-69.5 2805,-105.5 "/>
<text text-anchor="middle" x="2817.5" y="-83.8" font-family="Times,serif" font-size="14.00">a</text>
<polyline fill="none" stroke="black" points="2830,-69.5 2830,-105.5 "/>
<text text-anchor="middle" x="2881" y="-83.8" font-family="Times,serif" font-size="14.00">data 3.6000</text>
<polyline fill="none" stroke="black" points="2932,-69.5 2932,-105.5 "/>
<text text-anchor="middle" x="2984" y="-83.8" font-family="Times,serif" font-size="14.00">grad 1.0000</text>
</g>
<!-- 140402538969936+&#45;&gt;140402538969936 -->
<g id="edge6" class="edge">
<title>140402538969936+&#45;&gt;140402538969936</title>
<path fill="none" stroke="black" d="M2644.03,-87.5C2651.4,-87.5 2660.02,-87.5 2669.49,-87.5"/>
<polygon fill="black" stroke="black" points="2669.66,-91 2679.66,-87.5 2669.66,-84 2669.66,-91"/>
</g>
<!-- 140402538963840 -->
<g id="node17" class="node">
<title>140402538963840</title>
<polygon fill="none" stroke="black" points="495,-110.5 495,-146.5 857,-146.5 857,-110.5 495,-110.5"/>
<text text-anchor="middle" x="521" y="-124.8" font-family="Times,serif" font-size="14.00">v004</text>
<polyline fill="none" stroke="black" points="547,-110.5 547,-146.5 "/>
<text text-anchor="middle" x="564.5" y="-124.8" font-family="Times,serif" font-size="14.00">L1</text>
<polyline fill="none" stroke="black" points="582,-110.5 582,-146.5 "/>
<text text-anchor="middle" x="601" y="-124.8" font-family="Times,serif" font-size="14.00">N2</text>
<polyline fill="none" stroke="black" points="620,-110.5 620,-146.5 "/>
<text text-anchor="middle" x="633" y="-124.8" font-family="Times,serif" font-size="14.00">b</text>
<polyline fill="none" stroke="black" points="646,-110.5 646,-146.5 "/>
<text text-anchor="middle" x="699.5" y="-124.8" font-family="Times,serif" font-size="14.00">data &#45;0.0600</text>
<polyline fill="none" stroke="black" points="753,-110.5 753,-146.5 "/>
<text text-anchor="middle" x="805" y="-124.8" font-family="Times,serif" font-size="14.00">grad 1.2000</text>
</g>
<!-- 140402538963840&#45;&gt;140402538960912+ -->
<g id="edge16" class="edge">
<title>140402538963840&#45;&gt;140402538960912+</title>
<path fill="none" stroke="black" d="M816.35,-110.48C830.19,-107.6 843.94,-104.29 857,-100.5 867.68,-97.4 878.95,-92.9 888.9,-88.45"/>
<polygon fill="black" stroke="black" points="890.37,-91.63 897.98,-84.26 887.44,-85.28 890.37,-91.63"/>
</g>
<!-- 140402538963888 -->
<g id="node18" class="node">
<title>140402538963888</title>
<polygon fill="none" stroke="black" points="0,-82.5 0,-118.5 369,-118.5 369,-82.5 0,-82.5"/>
<text text-anchor="middle" x="26" y="-96.8" font-family="Times,serif" font-size="14.00">v003</text>
<polyline fill="none" stroke="black" points="52,-82.5 52,-118.5 "/>
<text text-anchor="middle" x="69.5" y="-96.8" font-family="Times,serif" font-size="14.00">L1</text>
<polyline fill="none" stroke="black" points="87,-82.5 87,-118.5 "/>
<text text-anchor="middle" x="106" y="-96.8" font-family="Times,serif" font-size="14.00">N2</text>
<polyline fill="none" stroke="black" points="125,-82.5 125,-118.5 "/>
<text text-anchor="middle" x="144" y="-96.8" font-family="Times,serif" font-size="14.00">w1</text>
<polyline fill="none" stroke="black" points="163,-82.5 163,-118.5 "/>
<text text-anchor="middle" x="214" y="-96.8" font-family="Times,serif" font-size="14.00">data 0.2600</text>
<polyline fill="none" stroke="black" points="265,-82.5 265,-118.5 "/>
<text text-anchor="middle" x="317" y="-96.8" font-family="Times,serif" font-size="14.00">grad 4.8000</text>
</g>
<!-- 140402538962352* -->
<g id="node20" class="node">
<title>140402538962352*</title>
<ellipse fill="none" stroke="black" cx="432" cy="-100.5" rx="27" ry="18"/>
<text text-anchor="middle" x="432" y="-96.8" font-family="Times,serif" font-size="14.00">*</text>
</g>
<!-- 140402538963888&#45;&gt;140402538962352* -->
<g id="edge12" class="edge">
<title>140402538963888&#45;&gt;140402538962352*</title>
<path fill="none" stroke="black" d="M369.05,-100.5C378.29,-100.5 386.92,-100.5 394.62,-100.5"/>
<polygon fill="black" stroke="black" points="394.87,-104 404.87,-100.5 394.87,-97 394.87,-104"/>
</g>
<!-- 140402538962352 -->
<g id="node19" class="node">
<title>140402538962352</title>
<polygon fill="none" stroke="black" points="515.5,-55.5 515.5,-91.5 836.5,-91.5 836.5,-55.5 515.5,-55.5"/>
<text text-anchor="middle" x="541.5" y="-69.8" font-family="Times,serif" font-size="14.00">v012</text>
<polyline fill="none" stroke="black" points="567.5,-55.5 567.5,-91.5 "/>
<text text-anchor="middle" x="578" y="-69.8" font-family="Times,serif" font-size="14.00"> </text>
<polyline fill="none" stroke="black" points="588.5,-55.5 588.5,-91.5 "/>
<text text-anchor="middle" x="599" y="-69.8" font-family="Times,serif" font-size="14.00"> </text>
<polyline fill="none" stroke="black" points="609.5,-55.5 609.5,-91.5 "/>
<text text-anchor="middle" x="620" y="-69.8" font-family="Times,serif" font-size="14.00"> </text>
<polyline fill="none" stroke="black" points="630.5,-55.5 630.5,-91.5 "/>
<text text-anchor="middle" x="681.5" y="-69.8" font-family="Times,serif" font-size="14.00">data 2.0000</text>
<polyline fill="none" stroke="black" points="732.5,-55.5 732.5,-91.5 "/>
<text text-anchor="middle" x="784.5" y="-69.8" font-family="Times,serif" font-size="14.00">grad 1.2000</text>
</g>
<!-- 140402538962352&#45;&gt;140402538960912+ -->
<g id="edge23" class="edge">
<title>140402538962352&#45;&gt;140402538960912+</title>
<path fill="none" stroke="black" d="M836.73,-73.5C853.54,-73.5 869.24,-73.5 882.32,-73.5"/>
<polygon fill="black" stroke="black" points="882.66,-77 892.66,-73.5 882.66,-70 882.66,-77"/>
</g>
<!-- 140402538962352*&#45;&gt;140402538962352 -->
<g id="edge7" class="edge">
<title>140402538962352*&#45;&gt;140402538962352</title>
<path fill="none" stroke="black" d="M458.9,-97.61C471.4,-96.22 487.56,-94.41 505.41,-92.42"/>
<polygon fill="black" stroke="black" points="505.93,-95.88 515.48,-91.3 505.16,-88.93 505.93,-95.88"/>
</g>
<!-- 140403021704128 -->
<g id="node21" class="node">
<title>140403021704128</title>
<polygon fill="none" stroke="black" points="19.5,-151.5 19.5,-187.5 349.5,-187.5 349.5,-151.5 19.5,-151.5"/>
<text text-anchor="middle" x="45.5" y="-165.8" font-family="Times,serif" font-size="14.00">v008</text>
<polyline fill="none" stroke="black" points="71.5,-151.5 71.5,-187.5 "/>
<text text-anchor="middle" x="82" y="-165.8" font-family="Times,serif" font-size="14.00"> </text>
<polyline fill="none" stroke="black" points="92.5,-151.5 92.5,-187.5 "/>
<text text-anchor="middle" x="103" y="-165.8" font-family="Times,serif" font-size="14.00"> </text>
<polyline fill="none" stroke="black" points="113.5,-151.5 113.5,-187.5 "/>
<text text-anchor="middle" x="128.5" y="-165.8" font-family="Times,serif" font-size="14.00">i1</text>
<polyline fill="none" stroke="black" points="143.5,-151.5 143.5,-187.5 "/>
<text text-anchor="middle" x="194.5" y="-165.8" font-family="Times,serif" font-size="14.00">data 4.0000</text>
<polyline fill="none" stroke="black" points="245.5,-151.5 245.5,-187.5 "/>
<text text-anchor="middle" x="297.5" y="-165.8" font-family="Times,serif" font-size="14.00">grad 0.9000</text>
</g>
<!-- 140403021704128&#45;&gt;140402538960384* -->
<g id="edge18" class="edge">
<title>140403021704128&#45;&gt;140402538960384*</title>
<path fill="none" stroke="black" d="M301.48,-187.57C324.1,-192.23 347.46,-197.85 369,-204.5 379.52,-207.75 390.64,-212.24 400.53,-216.63"/>
<polygon fill="black" stroke="black" points="399.38,-219.95 409.93,-220.93 402.29,-213.58 399.38,-219.95"/>
</g>
<!-- 140403021704128&#45;&gt;140402538962352* -->
<g id="edge17" class="edge">
<title>140403021704128&#45;&gt;140402538962352*</title>
<path fill="none" stroke="black" d="M283.65,-151.45C311.55,-145.28 341.75,-137.59 369,-128.5 379.7,-124.93 391.04,-120.13 401.06,-115.51"/>
<polygon fill="black" stroke="black" points="402.65,-118.63 410.19,-111.18 399.66,-112.3 402.65,-118.63"/>
</g>
<!-- 140402538963408 -->
<g id="node22" class="node">
<title>140402538963408</title>
<polygon fill="none" stroke="black" points="983,-0.5 983,-36.5 1352,-36.5 1352,-0.5 983,-0.5"/>
<text text-anchor="middle" x="1009" y="-14.8" font-family="Times,serif" font-size="14.00">v006</text>
<polyline fill="none" stroke="black" points="1035,-0.5 1035,-36.5 "/>
<text text-anchor="middle" x="1052.5" y="-14.8" font-family="Times,serif" font-size="14.00">L2</text>
<polyline fill="none" stroke="black" points="1070,-0.5 1070,-36.5 "/>
<text text-anchor="middle" x="1089" y="-14.8" font-family="Times,serif" font-size="14.00">N1</text>
<polyline fill="none" stroke="black" points="1108,-0.5 1108,-36.5 "/>
<text text-anchor="middle" x="1127" y="-14.8" font-family="Times,serif" font-size="14.00">w2</text>
<polyline fill="none" stroke="black" points="1146,-0.5 1146,-36.5 "/>
<text text-anchor="middle" x="1197" y="-14.8" font-family="Times,serif" font-size="14.00">data 1.1000</text>
<polyline fill="none" stroke="black" points="1248,-0.5 1248,-36.5 "/>
<text text-anchor="middle" x="1300" y="-14.8" font-family="Times,serif" font-size="14.00">grad 2.0000</text>
</g>
<!-- 140402538963408&#45;&gt;140402538967008* -->
<g id="edge19" class="edge">
<title>140402538963408&#45;&gt;140402538967008*</title>
<path fill="none" stroke="black" d="M1301.05,-36.53C1318.23,-39.3 1335.56,-42.31 1352,-45.5 1361.08,-47.26 1370.84,-49.47 1379.87,-51.65"/>
<polygon fill="black" stroke="black" points="1379.12,-55.07 1389.67,-54.07 1380.8,-48.28 1379.12,-55.07"/>
</g>
<!-- 140402538967008 -->
<g id="node23" class="node">
<title>140402538967008</title>
<polygon fill="none" stroke="black" points="1876,-42.5 1876,-78.5 2197,-78.5 2197,-42.5 1876,-42.5"/>
<text text-anchor="middle" x="1902" y="-56.8" font-family="Times,serif" font-size="14.00">v016</text>
<polyline fill="none" stroke="black" points="1928,-42.5 1928,-78.5 "/>
<text text-anchor="middle" x="1938.5" y="-56.8" font-family="Times,serif" font-size="14.00"> </text>
<polyline fill="none" stroke="black" points="1949,-42.5 1949,-78.5 "/>
<text text-anchor="middle" x="1959.5" y="-56.8" font-family="Times,serif" font-size="14.00"> </text>
<polyline fill="none" stroke="black" points="1970,-42.5 1970,-78.5 "/>
<text text-anchor="middle" x="1980.5" y="-56.8" font-family="Times,serif" font-size="14.00"> </text>
<polyline fill="none" stroke="black" points="1991,-42.5 1991,-78.5 "/>
<text text-anchor="middle" x="2042" y="-56.8" font-family="Times,serif" font-size="14.00">data 2.4000</text>
<polyline fill="none" stroke="black" points="2093,-42.5 2093,-78.5 "/>
<text text-anchor="middle" x="2145" y="-56.8" font-family="Times,serif" font-size="14.00">grad 1.0000</text>
</g>
<!-- 140402538967008&#45;&gt;140402538969936+ -->
<g id="edge22" class="edge">
<title>140402538967008&#45;&gt;140402538969936+</title>
<path fill="none" stroke="black" d="M2197.11,-67.95C2328.28,-74.07 2504.3,-82.29 2579.48,-85.8"/>
<polygon fill="black" stroke="black" points="2579.67,-89.31 2589.82,-86.28 2580,-82.32 2579.67,-89.31"/>
</g>
<!-- 140402538967008*&#45;&gt;140402538967008 -->
<g id="edge8" class="edge">
<title>140402538967008*&#45;&gt;140402538967008</title>
<path fill="none" stroke="black" d="M1442.22,-60.5C1513.76,-60.5 1716.85,-60.5 1865.55,-60.5"/>
<polygon fill="black" stroke="black" points="1865.71,-64 1875.71,-60.5 1865.71,-57 1865.71,-64"/>
</g>
</g>
</svg>
