<?xml version="1.0" encoding="UTF-8" standalone="no"?>
<!DOCTYPE svg PUBLIC "-//W3C//DTD SVG 1.1//EN"
 "http://www.w3.org/Graphics/SVG/1.1/DTD/svg11.dtd">
<!-- Generated by graphviz version 2.43.0 (0)
 -->
<!-- Title: %3 Pages: 1 -->
<svg width="3534pt" height="238pt"
 viewBox="0.00 0.00 3534.00 238.00" xmlns="http://www.w3.org/2000/svg" xmlns:xlink="http://www.w3.org/1999/xlink">
<g id="graph0" class="graph" transform="scale(1 1) rotate(0) translate(4 234)">
<title>%3</title>
<polygon fill="white" stroke="transparent" points="-4,4 -4,-234 3530,-234 3530,4 -4,4"/>
<!-- 140260402425872 -->
<g id="node1" class="node">
<title>140260402425872</title>
<polygon fill="none" stroke="black" points="527,-69.5 527,-105.5 853,-105.5 853,-69.5 527,-69.5"/>
<text text-anchor="middle" x="553" y="-83.8" font-family="Times,serif" font-size="14.00">v021</text>
<polyline fill="none" stroke="black" points="579,-69.5 579,-105.5 "/>
<text text-anchor="middle" x="589.5" y="-83.8" font-family="Times,serif" font-size="14.00"> </text>
<polyline fill="none" stroke="black" points="600,-69.5 600,-105.5 "/>
<text text-anchor="middle" x="610.5" y="-83.8" font-family="Times,serif" font-size="14.00"> </text>
<polyline fill="none" stroke="black" points="621,-69.5 621,-105.5 "/>
<text text-anchor="middle" x="631.5" y="-83.8" font-family="Times,serif" font-size="14.00"> </text>
<polyline fill="none" stroke="black" points="642,-69.5 642,-105.5 "/>
<text text-anchor="middle" x="695.5" y="-83.8" font-family="Times,serif" font-size="14.00">data &#45;4.9120</text>
<polyline fill="none" stroke="black" points="749,-69.5 749,-105.5 "/>
<text text-anchor="middle" x="801" y="-83.8" font-family="Times,serif" font-size="14.00">grad 0.0000</text>
</g>
<!-- 140260402421936+ -->
<g id="node12" class="node">
<title>140260402421936+</title>
<ellipse fill="none" stroke="black" cx="934" cy="-73.5" rx="27" ry="18"/>
<text text-anchor="middle" x="934" y="-69.8" font-family="Times,serif" font-size="14.00">+</text>
</g>
<!-- 140260402425872&#45;&gt;140260402421936+ -->
<g id="edge12" class="edge">
<title>140260402425872&#45;&gt;140260402421936+</title>
<path fill="none" stroke="black" d="M853.09,-78.12C869.07,-77.2 883.97,-76.34 896.47,-75.61"/>
<polygon fill="black" stroke="black" points="897.02,-79.09 906.8,-75.02 896.61,-72.1 897.02,-79.09"/>
</g>
<!-- 140260402425872* -->
<g id="node2" class="node">
<title>140260402425872*</title>
<ellipse fill="none" stroke="black" cx="446" cy="-87.5" rx="27" ry="18"/>
<text text-anchor="middle" x="446" y="-83.8" font-family="Times,serif" font-size="14.00">*</text>
</g>
<!-- 140260402425872*&#45;&gt;140260402425872 -->
<g id="edge1" class="edge">
<title>140260402425872*&#45;&gt;140260402425872</title>
<path fill="none" stroke="black" d="M473.36,-87.5C485.08,-87.5 499.94,-87.5 516.37,-87.5"/>
<polygon fill="black" stroke="black" points="516.79,-91 526.79,-87.5 516.79,-84 516.79,-91"/>
</g>
<!-- 140260402428464 -->
<g id="node3" class="node">
<title>140260402428464</title>
<polygon fill="none" stroke="black" points="1526.5,-135.5 1526.5,-171.5 1847.5,-171.5 1847.5,-135.5 1526.5,-135.5"/>
<text text-anchor="middle" x="1552.5" y="-149.8" font-family="Times,serif" font-size="14.00">v023</text>
<polyline fill="none" stroke="black" points="1578.5,-135.5 1578.5,-171.5 "/>
<text text-anchor="middle" x="1589" y="-149.8" font-family="Times,serif" font-size="14.00"> </text>
<polyline fill="none" stroke="black" points="1599.5,-135.5 1599.5,-171.5 "/>
<text text-anchor="middle" x="1610" y="-149.8" font-family="Times,serif" font-size="14.00"> </text>
<polyline fill="none" stroke="black" points="1620.5,-135.5 1620.5,-171.5 "/>
<text text-anchor="middle" x="1631" y="-149.8" font-family="Times,serif" font-size="14.00"> </text>
<polyline fill="none" stroke="black" points="1641.5,-135.5 1641.5,-171.5 "/>
<text text-anchor="middle" x="1692.5" y="-149.8" font-family="Times,serif" font-size="14.00">data 0.2006</text>
<polyline fill="none" stroke="black" points="1743.5,-135.5 1743.5,-171.5 "/>
<text text-anchor="middle" x="1795.5" y="-149.8" font-family="Times,serif" font-size="14.00">grad 0.0000</text>
</g>
<!-- 140260402423568+ -->
<g id="node15" class="node">
<title>140260402423568+</title>
<ellipse fill="none" stroke="black" cx="2067" cy="-102.5" rx="27" ry="18"/>
<text text-anchor="middle" x="2067" y="-98.8" font-family="Times,serif" font-size="14.00">+</text>
</g>
<!-- 140260402428464&#45;&gt;140260402423568+ -->
<g id="edge11" class="edge">
<title>140260402428464&#45;&gt;140260402423568+</title>
<path fill="none" stroke="black" d="M1821.53,-135.48C1895.81,-125.46 1982.61,-113.75 2030.22,-107.33"/>
<polygon fill="black" stroke="black" points="2030.89,-110.77 2040.33,-105.96 2029.95,-103.83 2030.89,-110.77"/>
</g>
<!-- 140260402428464* -->
<g id="node4" class="node">
<title>140260402428464*</title>
<ellipse fill="none" stroke="black" cx="1443" cy="-153.5" rx="27" ry="18"/>
<text text-anchor="middle" x="1443" y="-149.8" font-family="Times,serif" font-size="14.00">*</text>
</g>
<!-- 140260402428464*&#45;&gt;140260402428464 -->
<g id="edge2" class="edge">
<title>140260402428464*&#45;&gt;140260402428464</title>
<path fill="none" stroke="black" d="M1470.36,-153.5C1482.7,-153.5 1498.53,-153.5 1516,-153.5"/>
<polygon fill="black" stroke="black" points="1516.46,-157 1526.46,-153.5 1516.46,-150 1516.46,-157"/>
</g>
<!-- 140260402427984 -->
<g id="node5" class="node">
<title>140260402427984</title>
<polygon fill="none" stroke="black" points="1904,-29.5 1904,-65.5 2230,-65.5 2230,-29.5 1904,-29.5"/>
<text text-anchor="middle" x="1930" y="-43.8" font-family="Times,serif" font-size="14.00">v025</text>
<polyline fill="none" stroke="black" points="1956,-29.5 1956,-65.5 "/>
<text text-anchor="middle" x="1966.5" y="-43.8" font-family="Times,serif" font-size="14.00"> </text>
<polyline fill="none" stroke="black" points="1977,-29.5 1977,-65.5 "/>
<text text-anchor="middle" x="1987.5" y="-43.8" font-family="Times,serif" font-size="14.00"> </text>
<polyline fill="none" stroke="black" points="1998,-29.5 1998,-65.5 "/>
<text text-anchor="middle" x="2008.5" y="-43.8" font-family="Times,serif" font-size="14.00"> </text>
<polyline fill="none" stroke="black" points="2019,-29.5 2019,-65.5 "/>
<text text-anchor="middle" x="2072.5" y="-43.8" font-family="Times,serif" font-size="14.00">data &#45;2.5651</text>
<polyline fill="none" stroke="black" points="2126,-29.5 2126,-65.5 "/>
<text text-anchor="middle" x="2178" y="-43.8" font-family="Times,serif" font-size="14.00">grad 0.0000</text>
</g>
<!-- 140260402428320+ -->
<g id="node21" class="node">
<title>140260402428320+</title>
<ellipse fill="none" stroke="black" cx="2655" cy="-74.5" rx="27" ry="18"/>
<text text-anchor="middle" x="2655" y="-70.8" font-family="Times,serif" font-size="14.00">+</text>
</g>
<!-- 140260402427984&#45;&gt;140260402428320+ -->
<g id="edge25" class="edge">
<title>140260402427984&#45;&gt;140260402428320+</title>
<path fill="none" stroke="black" d="M2230.07,-54.97C2363.09,-61.1 2541.44,-69.31 2617.34,-72.81"/>
<polygon fill="black" stroke="black" points="2617.62,-76.33 2627.77,-73.29 2617.95,-69.33 2617.62,-76.33"/>
</g>
<!-- 140260402427984* -->
<g id="node6" class="node">
<title>140260402427984*</title>
<ellipse fill="none" stroke="black" cx="1443" cy="-47.5" rx="27" ry="18"/>
<text text-anchor="middle" x="1443" y="-43.8" font-family="Times,serif" font-size="14.00">*</text>
</g>
<!-- 140260402427984*&#45;&gt;140260402427984 -->
<g id="edge3" class="edge">
<title>140260402427984*&#45;&gt;140260402427984</title>
<path fill="none" stroke="black" d="M1470.33,-47.5C1541.87,-47.5 1744.46,-47.5 1893.6,-47.5"/>
<polygon fill="black" stroke="black" points="1893.79,-51 1903.79,-47.5 1893.79,-44 1893.79,-51"/>
</g>
<!-- 140260402419344 -->
<g id="node7" class="node">
<title>140260402419344</title>
<polygon fill="none" stroke="black" points="999.5,-0.5 999.5,-36.5 1377.5,-36.5 1377.5,-0.5 999.5,-0.5"/>
<text text-anchor="middle" x="1025.5" y="-14.8" font-family="Times,serif" font-size="14.00">v006</text>
<polyline fill="none" stroke="black" points="1051.5,-0.5 1051.5,-36.5 "/>
<text text-anchor="middle" x="1069" y="-14.8" font-family="Times,serif" font-size="14.00">L2</text>
<polyline fill="none" stroke="black" points="1086.5,-0.5 1086.5,-36.5 "/>
<text text-anchor="middle" x="1105.5" y="-14.8" font-family="Times,serif" font-size="14.00">N1</text>
<polyline fill="none" stroke="black" points="1124.5,-0.5 1124.5,-36.5 "/>
<text text-anchor="middle" x="1143.5" y="-14.8" font-family="Times,serif" font-size="14.00">w2</text>
<polyline fill="none" stroke="black" points="1162.5,-0.5 1162.5,-36.5 "/>
<text text-anchor="middle" x="1213.5" y="-14.8" font-family="Times,serif" font-size="14.00">data 0.4800</text>
<polyline fill="none" stroke="black" points="1264.5,-0.5 1264.5,-36.5 "/>
<text text-anchor="middle" x="1321" y="-14.8" font-family="Times,serif" font-size="14.00">grad 14.4000</text>
</g>
<!-- 140260402419344&#45;&gt;140260402427984* -->
<g id="edge22" class="edge">
<title>140260402419344&#45;&gt;140260402427984*</title>
<path fill="none" stroke="black" d="M1346.54,-36.54C1368.75,-39.09 1389.61,-41.48 1406.13,-43.38"/>
<polygon fill="black" stroke="black" points="1406,-46.89 1416.33,-44.55 1406.79,-39.93 1406,-46.89"/>
</g>
<!-- 140260402422656 -->
<g id="node8" class="node">
<title>140260402422656</title>
<polygon fill="none" stroke="black" points="0,-69.5 0,-105.5 383,-105.5 383,-69.5 0,-69.5"/>
<text text-anchor="middle" x="26" y="-83.8" font-family="Times,serif" font-size="14.00">v003</text>
<polyline fill="none" stroke="black" points="52,-69.5 52,-105.5 "/>
<text text-anchor="middle" x="69.5" y="-83.8" font-family="Times,serif" font-size="14.00">L1</text>
<polyline fill="none" stroke="black" points="87,-69.5 87,-105.5 "/>
<text text-anchor="middle" x="106" y="-83.8" font-family="Times,serif" font-size="14.00">N2</text>
<polyline fill="none" stroke="black" points="125,-69.5 125,-105.5 "/>
<text text-anchor="middle" x="144" y="-83.8" font-family="Times,serif" font-size="14.00">w1</text>
<polyline fill="none" stroke="black" points="163,-69.5 163,-105.5 "/>
<text text-anchor="middle" x="216.5" y="-83.8" font-family="Times,serif" font-size="14.00">data &#45;1.2280</text>
<polyline fill="none" stroke="black" points="270,-69.5 270,-105.5 "/>
<text text-anchor="middle" x="326.5" y="-83.8" font-family="Times,serif" font-size="14.00">grad 34.5600</text>
</g>
<!-- 140260402422656&#45;&gt;140260402425872* -->
<g id="edge21" class="edge">
<title>140260402422656&#45;&gt;140260402425872*</title>
<path fill="none" stroke="black" d="M383.23,-87.5C392.39,-87.5 400.92,-87.5 408.55,-87.5"/>
<polygon fill="black" stroke="black" points="408.7,-91 418.7,-87.5 408.7,-84 408.7,-91"/>
</g>
<!-- 140260402426544 -->
<g id="node9" class="node">
<title>140260402426544</title>
<polygon fill="none" stroke="black" points="3205,-56.5 3205,-92.5 3526,-92.5 3526,-56.5 3205,-56.5"/>
<text text-anchor="middle" x="3231" y="-70.8" font-family="Times,serif" font-size="14.00">v027</text>
<polyline fill="none" stroke="black" points="3257,-56.5 3257,-92.5 "/>
<text text-anchor="middle" x="3267.5" y="-70.8" font-family="Times,serif" font-size="14.00"> </text>
<polyline fill="none" stroke="black" points="3278,-56.5 3278,-92.5 "/>
<text text-anchor="middle" x="3288.5" y="-70.8" font-family="Times,serif" font-size="14.00"> </text>
<polyline fill="none" stroke="black" points="3299,-56.5 3299,-92.5 "/>
<text text-anchor="middle" x="3309.5" y="-70.8" font-family="Times,serif" font-size="14.00">l</text>
<polyline fill="none" stroke="black" points="3320,-56.5 3320,-92.5 "/>
<text text-anchor="middle" x="3371" y="-70.8" font-family="Times,serif" font-size="14.00">data 7.4228</text>
<polyline fill="none" stroke="black" points="3422,-56.5 3422,-92.5 "/>
<text text-anchor="middle" x="3474" y="-70.8" font-family="Times,serif" font-size="14.00">grad 0.0000</text>
</g>
<!-- 140260402426544* -->
<g id="node10" class="node">
<title>140260402426544*</title>
<ellipse fill="none" stroke="black" cx="3142" cy="-74.5" rx="27" ry="18"/>
<text text-anchor="middle" x="3142" y="-70.8" font-family="Times,serif" font-size="14.00">*</text>
</g>
<!-- 140260402426544*&#45;&gt;140260402426544 -->
<g id="edge4" class="edge">
<title>140260402426544*&#45;&gt;140260402426544</title>
<path fill="none" stroke="black" d="M3169.28,-74.5C3176.68,-74.5 3185.32,-74.5 3194.76,-74.5"/>
<polygon fill="black" stroke="black" points="3194.88,-78 3204.88,-74.5 3194.88,-71 3194.88,-78"/>
</g>
<!-- 140260402421936 -->
<g id="node11" class="node">
<title>140260402421936</title>
<polygon fill="none" stroke="black" points="1008,-55.5 1008,-91.5 1369,-91.5 1369,-55.5 1008,-55.5"/>
<text text-anchor="middle" x="1034" y="-69.8" font-family="Times,serif" font-size="14.00">v022</text>
<polyline fill="none" stroke="black" points="1060,-55.5 1060,-91.5 "/>
<text text-anchor="middle" x="1077.5" y="-69.8" font-family="Times,serif" font-size="14.00">L1</text>
<polyline fill="none" stroke="black" points="1095,-55.5 1095,-91.5 "/>
<text text-anchor="middle" x="1114" y="-69.8" font-family="Times,serif" font-size="14.00">N2</text>
<polyline fill="none" stroke="black" points="1133,-55.5 1133,-91.5 "/>
<text text-anchor="middle" x="1145.5" y="-69.8" font-family="Times,serif" font-size="14.00">a</text>
<polyline fill="none" stroke="black" points="1158,-55.5 1158,-91.5 "/>
<text text-anchor="middle" x="1211.5" y="-69.8" font-family="Times,serif" font-size="14.00">data &#45;5.3440</text>
<polyline fill="none" stroke="black" points="1265,-55.5 1265,-91.5 "/>
<text text-anchor="middle" x="1317" y="-69.8" font-family="Times,serif" font-size="14.00">grad 0.0000</text>
</g>
<!-- 140260402421936&#45;&gt;140260402427984* -->
<g id="edge20" class="edge">
<title>140260402421936&#45;&gt;140260402427984*</title>
<path fill="none" stroke="black" d="M1364.53,-55.48C1379.79,-53.91 1393.93,-52.45 1405.84,-51.22"/>
<polygon fill="black" stroke="black" points="1406.52,-54.67 1416.11,-50.17 1405.81,-47.71 1406.52,-54.67"/>
</g>
<!-- 140260402421936+&#45;&gt;140260402421936 -->
<g id="edge5" class="edge">
<title>140260402421936+&#45;&gt;140260402421936</title>
<path fill="none" stroke="black" d="M961.07,-73.5C971.16,-73.5 983.63,-73.5 997.49,-73.5"/>
<polygon fill="black" stroke="black" points="997.82,-77 1007.82,-73.5 997.82,-70 997.82,-77"/>
</g>
<!-- 140260402422512 -->
<g id="node13" class="node">
<title>140260402422512</title>
<polygon fill="none" stroke="black" points="509,-193.5 509,-229.5 871,-229.5 871,-193.5 509,-193.5"/>
<text text-anchor="middle" x="535" y="-207.8" font-family="Times,serif" font-size="14.00">v002</text>
<polyline fill="none" stroke="black" points="561,-193.5 561,-229.5 "/>
<text text-anchor="middle" x="578.5" y="-207.8" font-family="Times,serif" font-size="14.00">L1</text>
<polyline fill="none" stroke="black" points="596,-193.5 596,-229.5 "/>
<text text-anchor="middle" x="615" y="-207.8" font-family="Times,serif" font-size="14.00">N1</text>
<polyline fill="none" stroke="black" points="634,-193.5 634,-229.5 "/>
<text text-anchor="middle" x="647" y="-207.8" font-family="Times,serif" font-size="14.00">b</text>
<polyline fill="none" stroke="black" points="660,-193.5 660,-229.5 "/>
<text text-anchor="middle" x="713.5" y="-207.8" font-family="Times,serif" font-size="14.00">data &#45;0.2160</text>
<polyline fill="none" stroke="black" points="767,-193.5 767,-229.5 "/>
<text text-anchor="middle" x="819" y="-207.8" font-family="Times,serif" font-size="14.00">grad 4.3200</text>
</g>
<!-- 140260402426640+ -->
<g id="node17" class="node">
<title>140260402426640+</title>
<ellipse fill="none" stroke="black" cx="934" cy="-183.5" rx="27" ry="18"/>
<text text-anchor="middle" x="934" y="-179.8" font-family="Times,serif" font-size="14.00">+</text>
</g>
<!-- 140260402422512&#45;&gt;140260402426640+ -->
<g id="edge17" class="edge">
<title>140260402422512&#45;&gt;140260402426640+</title>
<path fill="none" stroke="black" d="M846.66,-193.49C865.23,-191.34 882.61,-189.33 896.84,-187.68"/>
<polygon fill="black" stroke="black" points="897.54,-191.13 907.08,-186.5 896.74,-184.17 897.54,-191.13"/>
</g>
<!-- 140260402423568 -->
<g id="node14" class="node">
<title>140260402423568</title>
<polygon fill="none" stroke="black" points="2266,-82.5 2266,-118.5 2592,-118.5 2592,-82.5 2266,-82.5"/>
<text text-anchor="middle" x="2292" y="-96.8" font-family="Times,serif" font-size="14.00">v024</text>
<polyline fill="none" stroke="black" points="2318,-82.5 2318,-118.5 "/>
<text text-anchor="middle" x="2328.5" y="-96.8" font-family="Times,serif" font-size="14.00"> </text>
<polyline fill="none" stroke="black" points="2339,-82.5 2339,-118.5 "/>
<text text-anchor="middle" x="2349.5" y="-96.8" font-family="Times,serif" font-size="14.00"> </text>
<polyline fill="none" stroke="black" points="2360,-82.5 2360,-118.5 "/>
<text text-anchor="middle" x="2370.5" y="-96.8" font-family="Times,serif" font-size="14.00"> </text>
<polyline fill="none" stroke="black" points="2381,-82.5 2381,-118.5 "/>
<text text-anchor="middle" x="2434.5" y="-96.8" font-family="Times,serif" font-size="14.00">data &#45;0.1594</text>
<polyline fill="none" stroke="black" points="2488,-82.5 2488,-118.5 "/>
<text text-anchor="middle" x="2540" y="-96.8" font-family="Times,serif" font-size="14.00">grad 0.0000</text>
</g>
<!-- 140260402423568&#45;&gt;140260402428320+ -->
<g id="edge10" class="edge">
<title>140260402423568&#45;&gt;140260402428320+</title>
<path fill="none" stroke="black" d="M2585.27,-82.48C2597.27,-81.09 2608.48,-79.78 2618.23,-78.65"/>
<polygon fill="black" stroke="black" points="2618.67,-82.12 2628.2,-77.49 2617.86,-75.17 2618.67,-82.12"/>
</g>
<!-- 140260402423568+&#45;&gt;140260402423568 -->
<g id="edge6" class="edge">
<title>140260402423568+&#45;&gt;140260402423568</title>
<path fill="none" stroke="black" d="M2094.18,-102.35C2128.81,-102.16 2192.83,-101.81 2255.62,-101.46"/>
<polygon fill="black" stroke="black" points="2255.7,-104.96 2265.68,-101.4 2255.66,-97.96 2255.7,-104.96"/>
</g>
<!-- 140260402426640 -->
<g id="node16" class="node">
<title>140260402426640</title>
<polygon fill="none" stroke="black" points="1008,-165.5 1008,-201.5 1369,-201.5 1369,-165.5 1008,-165.5"/>
<text text-anchor="middle" x="1034" y="-179.8" font-family="Times,serif" font-size="14.00">v020</text>
<polyline fill="none" stroke="black" points="1060,-165.5 1060,-201.5 "/>
<text text-anchor="middle" x="1077.5" y="-179.8" font-family="Times,serif" font-size="14.00">L1</text>
<polyline fill="none" stroke="black" points="1095,-165.5 1095,-201.5 "/>
<text text-anchor="middle" x="1114" y="-179.8" font-family="Times,serif" font-size="14.00">N1</text>
<polyline fill="none" stroke="black" points="1133,-165.5 1133,-201.5 "/>
<text text-anchor="middle" x="1145.5" y="-179.8" font-family="Times,serif" font-size="14.00">a</text>
<polyline fill="none" stroke="black" points="1158,-165.5 1158,-201.5 "/>
<text text-anchor="middle" x="1211.5" y="-179.8" font-family="Times,serif" font-size="14.00">data &#45;1.6720</text>
<polyline fill="none" stroke="black" points="1265,-165.5 1265,-201.5 "/>
<text text-anchor="middle" x="1317" y="-179.8" font-family="Times,serif" font-size="14.00">grad 0.0000</text>
</g>
<!-- 140260402426640&#45;&gt;140260402428464* -->
<g id="edge24" class="edge">
<title>140260402426640&#45;&gt;140260402428464*</title>
<path fill="none" stroke="black" d="M1341.12,-165.49C1365.34,-162.61 1388.27,-159.88 1406.13,-157.76"/>
<polygon fill="black" stroke="black" points="1406.77,-161.21 1416.29,-156.55 1405.95,-154.26 1406.77,-161.21"/>
</g>
<!-- 140260402426640+&#45;&gt;140260402426640 -->
<g id="edge7" class="edge">
<title>140260402426640+&#45;&gt;140260402426640</title>
<path fill="none" stroke="black" d="M961.07,-183.5C971.16,-183.5 983.63,-183.5 997.49,-183.5"/>
<polygon fill="black" stroke="black" points="997.82,-187 1007.82,-183.5 997.82,-180 997.82,-187"/>
</g>
<!-- 140260402419584 -->
<g id="node18" class="node">
<title>140260402419584</title>
<polygon fill="none" stroke="black" points="0,-179.5 0,-215.5 383,-215.5 383,-179.5 0,-179.5"/>
<text text-anchor="middle" x="26" y="-193.8" font-family="Times,serif" font-size="14.00">v001</text>
<polyline fill="none" stroke="black" points="52,-179.5 52,-215.5 "/>
<text text-anchor="middle" x="69.5" y="-193.8" font-family="Times,serif" font-size="14.00">L1</text>
<polyline fill="none" stroke="black" points="87,-179.5 87,-215.5 "/>
<text text-anchor="middle" x="106" y="-193.8" font-family="Times,serif" font-size="14.00">N1</text>
<polyline fill="none" stroke="black" points="125,-179.5 125,-215.5 "/>
<text text-anchor="middle" x="144" y="-193.8" font-family="Times,serif" font-size="14.00">w1</text>
<polyline fill="none" stroke="black" points="163,-179.5 163,-215.5 "/>
<text text-anchor="middle" x="216.5" y="-193.8" font-family="Times,serif" font-size="14.00">data &#45;0.3640</text>
<polyline fill="none" stroke="black" points="270,-179.5 270,-215.5 "/>
<text text-anchor="middle" x="326.5" y="-193.8" font-family="Times,serif" font-size="14.00">grad 17.2800</text>
</g>
<!-- 140260402426832* -->
<g id="node24" class="node">
<title>140260402426832*</title>
<ellipse fill="none" stroke="black" cx="446" cy="-156.5" rx="27" ry="18"/>
<text text-anchor="middle" x="446" y="-152.8" font-family="Times,serif" font-size="14.00">*</text>
</g>
<!-- 140260402419584&#45;&gt;140260402426832* -->
<g id="edge26" class="edge">
<title>140260402419584&#45;&gt;140260402426832*</title>
<path fill="none" stroke="black" d="M329.29,-179.48C347.39,-176.7 365.67,-173.68 383,-170.5 391.89,-168.87 401.45,-166.85 410.32,-164.85"/>
<polygon fill="black" stroke="black" points="411.39,-168.2 420.36,-162.55 409.83,-161.38 411.39,-168.2"/>
</g>
<!-- 140260402422704 -->
<g id="node19" class="node">
<title>140260402422704</title>
<polygon fill="none" stroke="black" points="509,-14.5 509,-50.5 871,-50.5 871,-14.5 509,-14.5"/>
<text text-anchor="middle" x="535" y="-28.8" font-family="Times,serif" font-size="14.00">v004</text>
<polyline fill="none" stroke="black" points="561,-14.5 561,-50.5 "/>
<text text-anchor="middle" x="578.5" y="-28.8" font-family="Times,serif" font-size="14.00">L1</text>
<polyline fill="none" stroke="black" points="596,-14.5 596,-50.5 "/>
<text text-anchor="middle" x="615" y="-28.8" font-family="Times,serif" font-size="14.00">N2</text>
<polyline fill="none" stroke="black" points="634,-14.5 634,-50.5 "/>
<text text-anchor="middle" x="647" y="-28.8" font-family="Times,serif" font-size="14.00">b</text>
<polyline fill="none" stroke="black" points="660,-14.5 660,-50.5 "/>
<text text-anchor="middle" x="713.5" y="-28.8" font-family="Times,serif" font-size="14.00">data &#45;0.4320</text>
<polyline fill="none" stroke="black" points="767,-14.5 767,-50.5 "/>
<text text-anchor="middle" x="819" y="-28.8" font-family="Times,serif" font-size="14.00">grad 8.6400</text>
</g>
<!-- 140260402422704&#45;&gt;140260402421936+ -->
<g id="edge23" class="edge">
<title>140260402422704&#45;&gt;140260402421936+</title>
<path fill="none" stroke="black" d="M812.66,-50.54C832.2,-53.69 852.18,-57.07 871,-60.5 879.79,-62.1 889.24,-64 898.05,-65.84"/>
<polygon fill="black" stroke="black" points="897.51,-69.3 908.02,-67.95 898.96,-62.45 897.51,-69.3"/>
</g>
<!-- 140260402428320 -->
<g id="node20" class="node">
<title>140260402428320</title>
<polygon fill="none" stroke="black" points="2718,-56.5 2718,-92.5 3079,-92.5 3079,-56.5 2718,-56.5"/>
<text text-anchor="middle" x="2744" y="-70.8" font-family="Times,serif" font-size="14.00">v026</text>
<polyline fill="none" stroke="black" points="2770,-56.5 2770,-92.5 "/>
<text text-anchor="middle" x="2787.5" y="-70.8" font-family="Times,serif" font-size="14.00">L2</text>
<polyline fill="none" stroke="black" points="2805,-56.5 2805,-92.5 "/>
<text text-anchor="middle" x="2824" y="-70.8" font-family="Times,serif" font-size="14.00">N1</text>
<polyline fill="none" stroke="black" points="2843,-56.5 2843,-92.5 "/>
<text text-anchor="middle" x="2855.5" y="-70.8" font-family="Times,serif" font-size="14.00">a</text>
<polyline fill="none" stroke="black" points="2868,-56.5 2868,-92.5 "/>
<text text-anchor="middle" x="2921.5" y="-70.8" font-family="Times,serif" font-size="14.00">data &#45;2.7245</text>
<polyline fill="none" stroke="black" points="2975,-56.5 2975,-92.5 "/>
<text text-anchor="middle" x="3027" y="-70.8" font-family="Times,serif" font-size="14.00">grad 0.0000</text>
</g>
<!-- 140260402428320&#45;&gt;140260402426544* -->
<g id="edge14" class="edge">
<title>140260402428320&#45;&gt;140260402426544*</title>
<path fill="none" stroke="black" d="M3079.12,-74.5C3088.34,-74.5 3096.94,-74.5 3104.64,-74.5"/>
<polygon fill="black" stroke="black" points="3104.87,-78 3114.87,-74.5 3104.87,-71 3104.87,-78"/>
</g>
<!-- 140260402428320+&#45;&gt;140260402428320 -->
<g id="edge8" class="edge">
<title>140260402428320+&#45;&gt;140260402428320</title>
<path fill="none" stroke="black" d="M2682.3,-74.5C2689.65,-74.5 2698.24,-74.5 2707.68,-74.5"/>
<polygon fill="black" stroke="black" points="2707.81,-78 2717.81,-74.5 2707.81,-71 2707.81,-78"/>
</g>
<!-- 140260402419632 -->
<g id="node22" class="node">
<title>140260402419632</title>
<polygon fill="none" stroke="black" points="1506,-80.5 1506,-116.5 1868,-116.5 1868,-80.5 1506,-80.5"/>
<text text-anchor="middle" x="1532" y="-94.8" font-family="Times,serif" font-size="14.00">v007</text>
<polyline fill="none" stroke="black" points="1558,-80.5 1558,-116.5 "/>
<text text-anchor="middle" x="1575.5" y="-94.8" font-family="Times,serif" font-size="14.00">L2</text>
<polyline fill="none" stroke="black" points="1593,-80.5 1593,-116.5 "/>
<text text-anchor="middle" x="1612" y="-94.8" font-family="Times,serif" font-size="14.00">N1</text>
<polyline fill="none" stroke="black" points="1631,-80.5 1631,-116.5 "/>
<text text-anchor="middle" x="1644" y="-94.8" font-family="Times,serif" font-size="14.00">b</text>
<polyline fill="none" stroke="black" points="1657,-80.5 1657,-116.5 "/>
<text text-anchor="middle" x="1710.5" y="-94.8" font-family="Times,serif" font-size="14.00">data &#45;0.3600</text>
<polyline fill="none" stroke="black" points="1764,-80.5 1764,-116.5 "/>
<text text-anchor="middle" x="1816" y="-94.8" font-family="Times,serif" font-size="14.00">grad 7.2000</text>
</g>
<!-- 140260402419632&#45;&gt;140260402423568+ -->
<g id="edge13" class="edge">
<title>140260402419632&#45;&gt;140260402423568+</title>
<path fill="none" stroke="black" d="M1868.14,-100.41C1929.32,-101.05 1991.75,-101.71 2029.69,-102.12"/>
<polygon fill="black" stroke="black" points="2029.68,-105.62 2039.72,-102.22 2029.76,-98.62 2029.68,-105.62"/>
</g>
<!-- 140260402426832 -->
<g id="node23" class="node">
<title>140260402426832</title>
<polygon fill="none" stroke="black" points="527,-138.5 527,-174.5 853,-174.5 853,-138.5 527,-138.5"/>
<text text-anchor="middle" x="553" y="-152.8" font-family="Times,serif" font-size="14.00">v019</text>
<polyline fill="none" stroke="black" points="579,-138.5 579,-174.5 "/>
<text text-anchor="middle" x="589.5" y="-152.8" font-family="Times,serif" font-size="14.00"> </text>
<polyline fill="none" stroke="black" points="600,-138.5 600,-174.5 "/>
<text text-anchor="middle" x="610.5" y="-152.8" font-family="Times,serif" font-size="14.00"> </text>
<polyline fill="none" stroke="black" points="621,-138.5 621,-174.5 "/>
<text text-anchor="middle" x="631.5" y="-152.8" font-family="Times,serif" font-size="14.00"> </text>
<polyline fill="none" stroke="black" points="642,-138.5 642,-174.5 "/>
<text text-anchor="middle" x="695.5" y="-152.8" font-family="Times,serif" font-size="14.00">data &#45;1.4560</text>
<polyline fill="none" stroke="black" points="749,-138.5 749,-174.5 "/>
<text text-anchor="middle" x="801" y="-152.8" font-family="Times,serif" font-size="14.00">grad 0.0000</text>
</g>
<!-- 140260402426832&#45;&gt;140260402426640+ -->
<g id="edge18" class="edge">
<title>140260402426832&#45;&gt;140260402426640+</title>
<path fill="none" stroke="black" d="M852.42,-174.51C868.94,-176.35 884.34,-178.07 897.15,-179.5"/>
<polygon fill="black" stroke="black" points="896.94,-183 907.27,-180.63 897.72,-176.04 896.94,-183"/>
</g>
<!-- 140260402426832*&#45;&gt;140260402426832 -->
<g id="edge9" class="edge">
<title>140260402426832*&#45;&gt;140260402426832</title>
<path fill="none" stroke="black" d="M473.36,-156.5C485.08,-156.5 499.94,-156.5 516.37,-156.5"/>
<polygon fill="black" stroke="black" points="516.79,-160 526.79,-156.5 516.79,-153 516.79,-160"/>
</g>
<!-- 140260402419680 -->
<g id="node25" class="node">
<title>140260402419680</title>
<polygon fill="none" stroke="black" points="997,-110.5 997,-146.5 1380,-146.5 1380,-110.5 997,-110.5"/>
<text text-anchor="middle" x="1023" y="-124.8" font-family="Times,serif" font-size="14.00">v005</text>
<polyline fill="none" stroke="black" points="1049,-110.5 1049,-146.5 "/>
<text text-anchor="middle" x="1066.5" y="-124.8" font-family="Times,serif" font-size="14.00">L2</text>
<polyline fill="none" stroke="black" points="1084,-110.5 1084,-146.5 "/>
<text text-anchor="middle" x="1103" y="-124.8" font-family="Times,serif" font-size="14.00">N1</text>
<polyline fill="none" stroke="black" points="1122,-110.5 1122,-146.5 "/>
<text text-anchor="middle" x="1141" y="-124.8" font-family="Times,serif" font-size="14.00">w1</text>
<polyline fill="none" stroke="black" points="1160,-110.5 1160,-146.5 "/>
<text text-anchor="middle" x="1213.5" y="-124.8" font-family="Times,serif" font-size="14.00">data &#45;0.1200</text>
<polyline fill="none" stroke="black" points="1267,-110.5 1267,-146.5 "/>
<text text-anchor="middle" x="1323.5" y="-124.8" font-family="Times,serif" font-size="14.00">grad 14.4000</text>
</g>
<!-- 140260402419680&#45;&gt;140260402428464* -->
<g id="edge16" class="edge">
<title>140260402419680&#45;&gt;140260402428464*</title>
<path fill="none" stroke="black" d="M1371.33,-146.5C1384.08,-147.77 1395.88,-148.93 1406.05,-149.94"/>
<polygon fill="black" stroke="black" points="1405.73,-153.43 1416.02,-150.93 1406.42,-146.46 1405.73,-153.43"/>
</g>
<!-- 140260953974256 -->
<g id="node26" class="node">
<title>140260953974256</title>
<polygon fill="none" stroke="black" points="26.5,-124.5 26.5,-160.5 356.5,-160.5 356.5,-124.5 26.5,-124.5"/>
<text text-anchor="middle" x="52.5" y="-138.8" font-family="Times,serif" font-size="14.00">v008</text>
<polyline fill="none" stroke="black" points="78.5,-124.5 78.5,-160.5 "/>
<text text-anchor="middle" x="89" y="-138.8" font-family="Times,serif" font-size="14.00"> </text>
<polyline fill="none" stroke="black" points="99.5,-124.5 99.5,-160.5 "/>
<text text-anchor="middle" x="110" y="-138.8" font-family="Times,serif" font-size="14.00"> </text>
<polyline fill="none" stroke="black" points="120.5,-124.5 120.5,-160.5 "/>
<text text-anchor="middle" x="135.5" y="-138.8" font-family="Times,serif" font-size="14.00">i1</text>
<polyline fill="none" stroke="black" points="150.5,-124.5 150.5,-160.5 "/>
<text text-anchor="middle" x="201.5" y="-138.8" font-family="Times,serif" font-size="14.00">data 4.0000</text>
<polyline fill="none" stroke="black" points="252.5,-124.5 252.5,-160.5 "/>
<text text-anchor="middle" x="304.5" y="-138.8" font-family="Times,serif" font-size="14.00">grad 6.4800</text>
</g>
<!-- 140260953974256&#45;&gt;140260402425872* -->
<g id="edge15" class="edge">
<title>140260953974256&#45;&gt;140260402425872*</title>
<path fill="none" stroke="black" d="M346.66,-124.49C359.05,-121.88 371.29,-118.9 383,-115.5 393.83,-112.36 405.21,-107.66 415.22,-103.01"/>
<polygon fill="black" stroke="black" points="416.84,-106.11 424.33,-98.62 413.8,-99.81 416.84,-106.11"/>
</g>
<!-- 140260953974256&#45;&gt;140260402426832* -->
<g id="edge19" class="edge">
<title>140260953974256&#45;&gt;140260402426832*</title>
<path fill="none" stroke="black" d="M356.69,-151.6C376.09,-152.68 394.18,-153.68 408.86,-154.5"/>
<polygon fill="black" stroke="black" points="408.75,-158 418.93,-155.05 409.14,-151.01 408.75,-158"/>
</g>
</g>
</svg>
