<?xml version="1.0" encoding="UTF-8" standalone="no"?>
<!DOCTYPE svg PUBLIC "-//W3C//DTD SVG 1.1//EN"
 "http://www.w3.org/Graphics/SVG/1.1/DTD/svg11.dtd">
<!-- Generated by graphviz version 2.43.0 (0)
 -->
<!-- Title: %3 Pages: 1 -->
<svg width="3540pt" height="265pt"
 viewBox="0.00 0.00 3540.00 265.00" xmlns="http://www.w3.org/2000/svg" xmlns:xlink="http://www.w3.org/1999/xlink">
<g id="graph0" class="graph" transform="scale(1 1) rotate(0) translate(4 261)">
<title>%3</title>
<polygon fill="white" stroke="transparent" points="-4,4 -4,-261 3536,-261 3536,4 -4,4"/>
<!-- 140260402419584 -->
<g id="node1" class="node">
<title>140260402419584</title>
<polygon fill="none" stroke="black" points="0,-220.5 0,-256.5 387,-256.5 387,-220.5 0,-220.5"/>
<text text-anchor="middle" x="26" y="-234.8" font-family="Times,serif" font-size="14.00">v001</text>
<polyline fill="none" stroke="black" points="52,-220.5 52,-256.5 "/>
<text text-anchor="middle" x="69.5" y="-234.8" font-family="Times,serif" font-size="14.00">L1</text>
<polyline fill="none" stroke="black" points="87,-220.5 87,-256.5 "/>
<text text-anchor="middle" x="106" y="-234.8" font-family="Times,serif" font-size="14.00">N1</text>
<polyline fill="none" stroke="black" points="125,-220.5 125,-256.5 "/>
<text text-anchor="middle" x="144" y="-234.8" font-family="Times,serif" font-size="14.00">w1</text>
<polyline fill="none" stroke="black" points="163,-220.5 163,-256.5 "/>
<text text-anchor="middle" x="216.5" y="-234.8" font-family="Times,serif" font-size="14.00">data &#45;0.4948</text>
<polyline fill="none" stroke="black" points="270,-220.5 270,-256.5 "/>
<text text-anchor="middle" x="328.5" y="-234.8" font-family="Times,serif" font-size="14.00">grad &#45;19.5240</text>
</g>
<!-- 140260402420496* -->
<g id="node13" class="node">
<title>140260402420496*</title>
<ellipse fill="none" stroke="black" cx="450" cy="-238.5" rx="27" ry="18"/>
<text text-anchor="middle" x="450" y="-234.8" font-family="Times,serif" font-size="14.00">*</text>
</g>
<!-- 140260402419584&#45;&gt;140260402420496* -->
<g id="edge14" class="edge">
<title>140260402419584&#45;&gt;140260402420496*</title>
<path fill="none" stroke="black" d="M387.07,-238.5C396.35,-238.5 404.99,-238.5 412.7,-238.5"/>
<polygon fill="black" stroke="black" points="412.95,-242 422.95,-238.5 412.95,-235 412.95,-242"/>
</g>
<!-- 140260402427504 -->
<g id="node2" class="node">
<title>140260402427504</title>
<polygon fill="none" stroke="black" points="1016,-55.5 1016,-91.5 1381,-91.5 1381,-55.5 1016,-55.5"/>
<text text-anchor="middle" x="1042" y="-69.8" font-family="Times,serif" font-size="14.00">v031</text>
<polyline fill="none" stroke="black" points="1068,-55.5 1068,-91.5 "/>
<text text-anchor="middle" x="1085.5" y="-69.8" font-family="Times,serif" font-size="14.00">L1</text>
<polyline fill="none" stroke="black" points="1103,-55.5 1103,-91.5 "/>
<text text-anchor="middle" x="1122" y="-69.8" font-family="Times,serif" font-size="14.00">N2</text>
<polyline fill="none" stroke="black" points="1141,-55.5 1141,-91.5 "/>
<text text-anchor="middle" x="1153.5" y="-69.8" font-family="Times,serif" font-size="14.00">a</text>
<polyline fill="none" stroke="black" points="1166,-55.5 1166,-91.5 "/>
<text text-anchor="middle" x="1219.5" y="-69.8" font-family="Times,serif" font-size="14.00">data &#45;3.1208</text>
<polyline fill="none" stroke="black" points="1273,-55.5 1273,-91.5 "/>
<text text-anchor="middle" x="1327" y="-69.8" font-family="Times,serif" font-size="14.00">grad &#45;8.2770</text>
</g>
<!-- 140260402427552* -->
<g id="node8" class="node">
<title>140260402427552*</title>
<ellipse fill="none" stroke="black" cx="1455" cy="-60.5" rx="27" ry="18"/>
<text text-anchor="middle" x="1455" y="-56.8" font-family="Times,serif" font-size="14.00">*</text>
</g>
<!-- 140260402427504&#45;&gt;140260402427552* -->
<g id="edge10" class="edge">
<title>140260402427504&#45;&gt;140260402427552*</title>
<path fill="none" stroke="black" d="M1381.07,-64.23C1394.56,-63.54 1407.05,-62.9 1417.75,-62.35"/>
<polygon fill="black" stroke="black" points="1418,-65.84 1427.81,-61.84 1417.65,-58.85 1418,-65.84"/>
</g>
<!-- 140260402427504+ -->
<g id="node3" class="node">
<title>140260402427504+</title>
<ellipse fill="none" stroke="black" cx="942" cy="-73.5" rx="27" ry="18"/>
<text text-anchor="middle" x="942" y="-69.8" font-family="Times,serif" font-size="14.00">+</text>
</g>
<!-- 140260402427504+&#45;&gt;140260402427504 -->
<g id="edge1" class="edge">
<title>140260402427504+&#45;&gt;140260402427504</title>
<path fill="none" stroke="black" d="M969.28,-73.5C979.34,-73.5 991.76,-73.5 1005.56,-73.5"/>
<polygon fill="black" stroke="black" points="1005.85,-77 1015.85,-73.5 1005.85,-70 1005.85,-77"/>
</g>
<!-- 140260402420352 -->
<g id="node4" class="node">
<title>140260402420352</title>
<polygon fill="none" stroke="black" points="1016,-190.5 1016,-226.5 1381,-226.5 1381,-190.5 1016,-190.5"/>
<text text-anchor="middle" x="1042" y="-204.8" font-family="Times,serif" font-size="14.00">v029</text>
<polyline fill="none" stroke="black" points="1068,-190.5 1068,-226.5 "/>
<text text-anchor="middle" x="1085.5" y="-204.8" font-family="Times,serif" font-size="14.00">L1</text>
<polyline fill="none" stroke="black" points="1103,-190.5 1103,-226.5 "/>
<text text-anchor="middle" x="1122" y="-204.8" font-family="Times,serif" font-size="14.00">N1</text>
<polyline fill="none" stroke="black" points="1141,-190.5 1141,-226.5 "/>
<text text-anchor="middle" x="1153.5" y="-204.8" font-family="Times,serif" font-size="14.00">a</text>
<polyline fill="none" stroke="black" points="1166,-190.5 1166,-226.5 "/>
<text text-anchor="middle" x="1219.5" y="-204.8" font-family="Times,serif" font-size="14.00">data &#45;2.2278</text>
<polyline fill="none" stroke="black" points="1273,-190.5 1273,-226.5 "/>
<text text-anchor="middle" x="1327" y="-204.8" font-family="Times,serif" font-size="14.00">grad &#45;4.8810</text>
</g>
<!-- 140260402424720* -->
<g id="node23" class="node">
<title>140260402424720*</title>
<ellipse fill="none" stroke="black" cx="1455" cy="-166.5" rx="27" ry="18"/>
<text text-anchor="middle" x="1455" y="-162.8" font-family="Times,serif" font-size="14.00">*</text>
</g>
<!-- 140260402420352&#45;&gt;140260402424720* -->
<g id="edge13" class="edge">
<title>140260402420352&#45;&gt;140260402424720*</title>
<path fill="none" stroke="black" d="M1339.6,-190.49C1357.28,-187.73 1375.09,-184.72 1392,-181.5 1401.09,-179.77 1410.85,-177.57 1419.88,-175.39"/>
<polygon fill="black" stroke="black" points="1420.81,-178.77 1429.68,-172.97 1419.13,-171.97 1420.81,-178.77"/>
</g>
<!-- 140260402420352+ -->
<g id="node5" class="node">
<title>140260402420352+</title>
<ellipse fill="none" stroke="black" cx="942" cy="-208.5" rx="27" ry="18"/>
<text text-anchor="middle" x="942" y="-204.8" font-family="Times,serif" font-size="14.00">+</text>
</g>
<!-- 140260402420352+&#45;&gt;140260402420352 -->
<g id="edge2" class="edge">
<title>140260402420352+&#45;&gt;140260402420352</title>
<path fill="none" stroke="black" d="M969.28,-208.5C979.34,-208.5 991.76,-208.5 1005.56,-208.5"/>
<polygon fill="black" stroke="black" points="1005.85,-212 1015.85,-208.5 1005.85,-205 1005.85,-212"/>
</g>
<!-- 140260402419344 -->
<g id="node6" class="node">
<title>140260402419344</title>
<polygon fill="none" stroke="black" points="1005,-0.5 1005,-36.5 1392,-36.5 1392,-0.5 1005,-0.5"/>
<text text-anchor="middle" x="1031" y="-14.8" font-family="Times,serif" font-size="14.00">v006</text>
<polyline fill="none" stroke="black" points="1057,-0.5 1057,-36.5 "/>
<text text-anchor="middle" x="1074.5" y="-14.8" font-family="Times,serif" font-size="14.00">L2</text>
<polyline fill="none" stroke="black" points="1092,-0.5 1092,-36.5 "/>
<text text-anchor="middle" x="1111" y="-14.8" font-family="Times,serif" font-size="14.00">N1</text>
<polyline fill="none" stroke="black" points="1130,-0.5 1130,-36.5 "/>
<text text-anchor="middle" x="1149" y="-14.8" font-family="Times,serif" font-size="14.00">w2</text>
<polyline fill="none" stroke="black" points="1168,-0.5 1168,-36.5 "/>
<text text-anchor="middle" x="1221.5" y="-14.8" font-family="Times,serif" font-size="14.00">data &#45;0.9760</text>
<polyline fill="none" stroke="black" points="1275,-0.5 1275,-36.5 "/>
<text text-anchor="middle" x="1333.5" y="-14.8" font-family="Times,serif" font-size="14.00">grad &#45;26.4672</text>
</g>
<!-- 140260402419344&#45;&gt;140260402427552* -->
<g id="edge11" class="edge">
<title>140260402419344&#45;&gt;140260402427552*</title>
<path fill="none" stroke="black" d="M1339.6,-36.51C1357.28,-39.27 1375.09,-42.28 1392,-45.5 1401.09,-47.23 1410.85,-49.43 1419.88,-51.61"/>
<polygon fill="black" stroke="black" points="1419.13,-55.03 1429.68,-54.03 1420.81,-48.23 1419.13,-55.03"/>
</g>
<!-- 140260402427552 -->
<g id="node7" class="node">
<title>140260402427552</title>
<polygon fill="none" stroke="black" points="1916,-42.5 1916,-78.5 2237,-78.5 2237,-42.5 1916,-42.5"/>
<text text-anchor="middle" x="1942" y="-56.8" font-family="Times,serif" font-size="14.00">v034</text>
<polyline fill="none" stroke="black" points="1968,-42.5 1968,-78.5 "/>
<text text-anchor="middle" x="1978.5" y="-56.8" font-family="Times,serif" font-size="14.00"> </text>
<polyline fill="none" stroke="black" points="1989,-42.5 1989,-78.5 "/>
<text text-anchor="middle" x="1999.5" y="-56.8" font-family="Times,serif" font-size="14.00"> </text>
<polyline fill="none" stroke="black" points="2010,-42.5 2010,-78.5 "/>
<text text-anchor="middle" x="2020.5" y="-56.8" font-family="Times,serif" font-size="14.00"> </text>
<polyline fill="none" stroke="black" points="2031,-42.5 2031,-78.5 "/>
<text text-anchor="middle" x="2082" y="-56.8" font-family="Times,serif" font-size="14.00">data 3.0458</text>
<polyline fill="none" stroke="black" points="2133,-42.5 2133,-78.5 "/>
<text text-anchor="middle" x="2185" y="-56.8" font-family="Times,serif" font-size="14.00">grad 8.4808</text>
</g>
<!-- 140260402429280+ -->
<g id="node18" class="node">
<title>140260402429280+</title>
<ellipse fill="none" stroke="black" cx="2657" cy="-87.5" rx="27" ry="18"/>
<text text-anchor="middle" x="2657" y="-83.8" font-family="Times,serif" font-size="14.00">+</text>
</g>
<!-- 140260402427552&#45;&gt;140260402429280+ -->
<g id="edge24" class="edge">
<title>140260402427552&#45;&gt;140260402429280+</title>
<path fill="none" stroke="black" d="M2237.11,-67.95C2368.28,-74.07 2544.3,-82.29 2619.48,-85.8"/>
<polygon fill="black" stroke="black" points="2619.67,-89.31 2629.82,-86.28 2620,-82.32 2619.67,-89.31"/>
</g>
<!-- 140260402427552*&#45;&gt;140260402427552 -->
<g id="edge3" class="edge">
<title>140260402427552*&#45;&gt;140260402427552</title>
<path fill="none" stroke="black" d="M1482.22,-60.5C1553.76,-60.5 1756.85,-60.5 1905.55,-60.5"/>
<polygon fill="black" stroke="black" points="1905.71,-64 1915.71,-60.5 1905.71,-57 1905.71,-64"/>
</g>
<!-- 140260402420448 -->
<g id="node9" class="node">
<title>140260402420448</title>
<polygon fill="none" stroke="black" points="2273,-95.5 2273,-131.5 2594,-131.5 2594,-95.5 2273,-95.5"/>
<text text-anchor="middle" x="2299" y="-109.8" font-family="Times,serif" font-size="14.00">v033</text>
<polyline fill="none" stroke="black" points="2325,-95.5 2325,-131.5 "/>
<text text-anchor="middle" x="2335.5" y="-109.8" font-family="Times,serif" font-size="14.00"> </text>
<polyline fill="none" stroke="black" points="2346,-95.5 2346,-131.5 "/>
<text text-anchor="middle" x="2356.5" y="-109.8" font-family="Times,serif" font-size="14.00"> </text>
<polyline fill="none" stroke="black" points="2367,-95.5 2367,-131.5 "/>
<text text-anchor="middle" x="2377.5" y="-109.8" font-family="Times,serif" font-size="14.00"> </text>
<polyline fill="none" stroke="black" points="2388,-95.5 2388,-131.5 "/>
<text text-anchor="middle" x="2439" y="-109.8" font-family="Times,serif" font-size="14.00">data 1.1946</text>
<polyline fill="none" stroke="black" points="2490,-95.5 2490,-131.5 "/>
<text text-anchor="middle" x="2542" y="-109.8" font-family="Times,serif" font-size="14.00">grad 8.4808</text>
</g>
<!-- 140260402420448&#45;&gt;140260402429280+ -->
<g id="edge15" class="edge">
<title>140260402420448&#45;&gt;140260402429280+</title>
<path fill="none" stroke="black" d="M2588.04,-95.48C2599.67,-94.11 2610.55,-92.83 2620.06,-91.72"/>
<polygon fill="black" stroke="black" points="2620.64,-95.17 2630.17,-90.53 2619.83,-88.22 2620.64,-95.17"/>
</g>
<!-- 140260402420448+ -->
<g id="node10" class="node">
<title>140260402420448+</title>
<ellipse fill="none" stroke="black" cx="2076.5" cy="-115.5" rx="27" ry="18"/>
<text text-anchor="middle" x="2076.5" y="-111.8" font-family="Times,serif" font-size="14.00">+</text>
</g>
<!-- 140260402420448+&#45;&gt;140260402420448 -->
<g id="edge4" class="edge">
<title>140260402420448+&#45;&gt;140260402420448</title>
<path fill="none" stroke="black" d="M2103.6,-115.35C2137.81,-115.16 2200.72,-114.81 2262.43,-114.46"/>
<polygon fill="black" stroke="black" points="2262.74,-117.96 2272.72,-114.4 2262.7,-110.96 2262.74,-117.96"/>
</g>
<!-- 140260402422512 -->
<g id="node11" class="node">
<title>140260402422512</title>
<polygon fill="none" stroke="black" points="513,-165.5 513,-201.5 879,-201.5 879,-165.5 513,-165.5"/>
<text text-anchor="middle" x="539" y="-179.8" font-family="Times,serif" font-size="14.00">v002</text>
<polyline fill="none" stroke="black" points="565,-165.5 565,-201.5 "/>
<text text-anchor="middle" x="582.5" y="-179.8" font-family="Times,serif" font-size="14.00">L1</text>
<polyline fill="none" stroke="black" points="600,-165.5 600,-201.5 "/>
<text text-anchor="middle" x="619" y="-179.8" font-family="Times,serif" font-size="14.00">N1</text>
<polyline fill="none" stroke="black" points="638,-165.5 638,-201.5 "/>
<text text-anchor="middle" x="651" y="-179.8" font-family="Times,serif" font-size="14.00">b</text>
<polyline fill="none" stroke="black" points="664,-165.5 664,-201.5 "/>
<text text-anchor="middle" x="717.5" y="-179.8" font-family="Times,serif" font-size="14.00">data &#45;0.2487</text>
<polyline fill="none" stroke="black" points="771,-165.5 771,-201.5 "/>
<text text-anchor="middle" x="825" y="-179.8" font-family="Times,serif" font-size="14.00">grad &#45;4.8810</text>
</g>
<!-- 140260402422512&#45;&gt;140260402420352+ -->
<g id="edge19" class="edge">
<title>140260402422512&#45;&gt;140260402420352+</title>
<path fill="none" stroke="black" d="M872.71,-201.5C884.55,-202.72 895.55,-203.84 905.11,-204.82"/>
<polygon fill="black" stroke="black" points="904.95,-208.33 915.26,-205.86 905.67,-201.36 904.95,-208.33"/>
</g>
<!-- 140260402420496 -->
<g id="node12" class="node">
<title>140260402420496</title>
<polygon fill="none" stroke="black" points="531,-220.5 531,-256.5 861,-256.5 861,-220.5 531,-220.5"/>
<text text-anchor="middle" x="557" y="-234.8" font-family="Times,serif" font-size="14.00">v028</text>
<polyline fill="none" stroke="black" points="583,-220.5 583,-256.5 "/>
<text text-anchor="middle" x="593.5" y="-234.8" font-family="Times,serif" font-size="14.00"> </text>
<polyline fill="none" stroke="black" points="604,-220.5 604,-256.5 "/>
<text text-anchor="middle" x="614.5" y="-234.8" font-family="Times,serif" font-size="14.00"> </text>
<polyline fill="none" stroke="black" points="625,-220.5 625,-256.5 "/>
<text text-anchor="middle" x="635.5" y="-234.8" font-family="Times,serif" font-size="14.00"> </text>
<polyline fill="none" stroke="black" points="646,-220.5 646,-256.5 "/>
<text text-anchor="middle" x="699.5" y="-234.8" font-family="Times,serif" font-size="14.00">data &#45;1.9791</text>
<polyline fill="none" stroke="black" points="753,-220.5 753,-256.5 "/>
<text text-anchor="middle" x="807" y="-234.8" font-family="Times,serif" font-size="14.00">grad &#45;4.8810</text>
</g>
<!-- 140260402420496&#45;&gt;140260402420352+ -->
<g id="edge25" class="edge">
<title>140260402420496&#45;&gt;140260402420352+</title>
<path fill="none" stroke="black" d="M843.51,-220.49C866.48,-217.66 888.24,-214.99 905.34,-212.88"/>
<polygon fill="black" stroke="black" points="905.87,-216.35 915.37,-211.65 905.01,-209.4 905.87,-216.35"/>
</g>
<!-- 140260402420496*&#45;&gt;140260402420496 -->
<g id="edge5" class="edge">
<title>140260402420496*&#45;&gt;140260402420496</title>
<path fill="none" stroke="black" d="M477.11,-238.5C488.98,-238.5 504.12,-238.5 520.88,-238.5"/>
<polygon fill="black" stroke="black" points="520.92,-242 530.92,-238.5 520.92,-235 520.92,-242"/>
</g>
<!-- 140260402419632 -->
<g id="node14" class="node">
<title>140260402419632</title>
<polygon fill="none" stroke="black" points="1518,-93.5 1518,-129.5 1880,-129.5 1880,-93.5 1518,-93.5"/>
<text text-anchor="middle" x="1544" y="-107.8" font-family="Times,serif" font-size="14.00">v007</text>
<polyline fill="none" stroke="black" points="1570,-93.5 1570,-129.5 "/>
<text text-anchor="middle" x="1587.5" y="-107.8" font-family="Times,serif" font-size="14.00">L2</text>
<polyline fill="none" stroke="black" points="1605,-93.5 1605,-129.5 "/>
<text text-anchor="middle" x="1624" y="-107.8" font-family="Times,serif" font-size="14.00">N1</text>
<polyline fill="none" stroke="black" points="1643,-93.5 1643,-129.5 "/>
<text text-anchor="middle" x="1656" y="-107.8" font-family="Times,serif" font-size="14.00">b</text>
<polyline fill="none" stroke="black" points="1669,-93.5 1669,-129.5 "/>
<text text-anchor="middle" x="1722.5" y="-107.8" font-family="Times,serif" font-size="14.00">data &#45;0.0876</text>
<polyline fill="none" stroke="black" points="1776,-93.5 1776,-129.5 "/>
<text text-anchor="middle" x="1828" y="-107.8" font-family="Times,serif" font-size="14.00">grad 8.4808</text>
</g>
<!-- 140260402419632&#45;&gt;140260402420448+ -->
<g id="edge26" class="edge">
<title>140260402419632&#45;&gt;140260402420448+</title>
<path fill="none" stroke="black" d="M1880.05,-113.42C1940.18,-114.06 2001.37,-114.71 2038.88,-115.11"/>
<polygon fill="black" stroke="black" points="2039.24,-118.61 2049.27,-115.22 2039.31,-111.61 2039.24,-118.61"/>
</g>
<!-- 140260402421072 -->
<g id="node15" class="node">
<title>140260402421072</title>
<polygon fill="none" stroke="black" points="3202,-69.5 3202,-105.5 3532,-105.5 3532,-69.5 3202,-69.5"/>
<text text-anchor="middle" x="3228" y="-83.8" font-family="Times,serif" font-size="14.00">v036</text>
<polyline fill="none" stroke="black" points="3254,-69.5 3254,-105.5 "/>
<text text-anchor="middle" x="3264.5" y="-83.8" font-family="Times,serif" font-size="14.00"> </text>
<polyline fill="none" stroke="black" points="3275,-69.5 3275,-105.5 "/>
<text text-anchor="middle" x="3285.5" y="-83.8" font-family="Times,serif" font-size="14.00"> </text>
<polyline fill="none" stroke="black" points="3296,-69.5 3296,-105.5 "/>
<text text-anchor="middle" x="3306.5" y="-83.8" font-family="Times,serif" font-size="14.00">l</text>
<polyline fill="none" stroke="black" points="3317,-69.5 3317,-105.5 "/>
<text text-anchor="middle" x="3372.5" y="-83.8" font-family="Times,serif" font-size="14.00">data 17.9812</text>
<polyline fill="none" stroke="black" points="3428,-69.5 3428,-105.5 "/>
<text text-anchor="middle" x="3480" y="-83.8" font-family="Times,serif" font-size="14.00">grad 1.0000</text>
</g>
<!-- 140260402421072* -->
<g id="node16" class="node">
<title>140260402421072*</title>
<ellipse fill="none" stroke="black" cx="3139" cy="-87.5" rx="27" ry="18"/>
<text text-anchor="middle" x="3139" y="-83.8" font-family="Times,serif" font-size="14.00">*</text>
</g>
<!-- 140260402421072*&#45;&gt;140260402421072 -->
<g id="edge6" class="edge">
<title>140260402421072*&#45;&gt;140260402421072</title>
<path fill="none" stroke="black" d="M3166.37,-87.5C3173.71,-87.5 3182.28,-87.5 3191.65,-87.5"/>
<polygon fill="black" stroke="black" points="3191.7,-91 3201.7,-87.5 3191.7,-84 3191.7,-91"/>
</g>
<!-- 140260402429280 -->
<g id="node17" class="node">
<title>140260402429280</title>
<polygon fill="none" stroke="black" points="2720,-69.5 2720,-105.5 3076,-105.5 3076,-69.5 2720,-69.5"/>
<text text-anchor="middle" x="2746" y="-83.8" font-family="Times,serif" font-size="14.00">v035</text>
<polyline fill="none" stroke="black" points="2772,-69.5 2772,-105.5 "/>
<text text-anchor="middle" x="2789.5" y="-83.8" font-family="Times,serif" font-size="14.00">L2</text>
<polyline fill="none" stroke="black" points="2807,-69.5 2807,-105.5 "/>
<text text-anchor="middle" x="2826" y="-83.8" font-family="Times,serif" font-size="14.00">N1</text>
<polyline fill="none" stroke="black" points="2845,-69.5 2845,-105.5 "/>
<text text-anchor="middle" x="2857.5" y="-83.8" font-family="Times,serif" font-size="14.00">a</text>
<polyline fill="none" stroke="black" points="2870,-69.5 2870,-105.5 "/>
<text text-anchor="middle" x="2921" y="-83.8" font-family="Times,serif" font-size="14.00">data 4.2404</text>
<polyline fill="none" stroke="black" points="2972,-69.5 2972,-105.5 "/>
<text text-anchor="middle" x="3024" y="-83.8" font-family="Times,serif" font-size="14.00">grad 8.4808</text>
</g>
<!-- 140260402429280&#45;&gt;140260402421072* -->
<g id="edge21" class="edge">
<title>140260402429280&#45;&gt;140260402421072*</title>
<path fill="none" stroke="black" d="M3076.14,-87.5C3085.34,-87.5 3093.94,-87.5 3101.63,-87.5"/>
<polygon fill="black" stroke="black" points="3101.86,-91 3111.86,-87.5 3101.86,-84 3101.86,-91"/>
</g>
<!-- 140260402429280+&#45;&gt;140260402429280 -->
<g id="edge7" class="edge">
<title>140260402429280+&#45;&gt;140260402429280</title>
<path fill="none" stroke="black" d="M2684.03,-87.5C2691.4,-87.5 2700.02,-87.5 2709.49,-87.5"/>
<polygon fill="black" stroke="black" points="2709.66,-91 2719.66,-87.5 2709.66,-84 2709.66,-91"/>
</g>
<!-- 140260402420592 -->
<g id="node19" class="node">
<title>140260402420592</title>
<polygon fill="none" stroke="black" points="531,-110.5 531,-146.5 861,-146.5 861,-110.5 531,-110.5"/>
<text text-anchor="middle" x="557" y="-124.8" font-family="Times,serif" font-size="14.00">v030</text>
<polyline fill="none" stroke="black" points="583,-110.5 583,-146.5 "/>
<text text-anchor="middle" x="593.5" y="-124.8" font-family="Times,serif" font-size="14.00"> </text>
<polyline fill="none" stroke="black" points="604,-110.5 604,-146.5 "/>
<text text-anchor="middle" x="614.5" y="-124.8" font-family="Times,serif" font-size="14.00"> </text>
<polyline fill="none" stroke="black" points="625,-110.5 625,-146.5 "/>
<text text-anchor="middle" x="635.5" y="-124.8" font-family="Times,serif" font-size="14.00"> </text>
<polyline fill="none" stroke="black" points="646,-110.5 646,-146.5 "/>
<text text-anchor="middle" x="699.5" y="-124.8" font-family="Times,serif" font-size="14.00">data &#45;2.8196</text>
<polyline fill="none" stroke="black" points="753,-110.5 753,-146.5 "/>
<text text-anchor="middle" x="807" y="-124.8" font-family="Times,serif" font-size="14.00">grad &#45;8.2770</text>
</g>
<!-- 140260402420592&#45;&gt;140260402427504+ -->
<g id="edge20" class="edge">
<title>140260402420592&#45;&gt;140260402427504+</title>
<path fill="none" stroke="black" d="M838.38,-110.44C852.21,-107.57 865.95,-104.28 879,-100.5 889.68,-97.41 900.95,-92.91 910.9,-88.46"/>
<polygon fill="black" stroke="black" points="912.37,-91.64 919.98,-84.27 909.44,-85.29 912.37,-91.64"/>
</g>
<!-- 140260402420592* -->
<g id="node20" class="node">
<title>140260402420592*</title>
<ellipse fill="none" stroke="black" cx="450" cy="-128.5" rx="27" ry="18"/>
<text text-anchor="middle" x="450" y="-124.8" font-family="Times,serif" font-size="14.00">*</text>
</g>
<!-- 140260402420592*&#45;&gt;140260402420592 -->
<g id="edge8" class="edge">
<title>140260402420592*&#45;&gt;140260402420592</title>
<path fill="none" stroke="black" d="M477.11,-128.5C488.98,-128.5 504.12,-128.5 520.88,-128.5"/>
<polygon fill="black" stroke="black" points="520.92,-132 530.92,-128.5 520.92,-125 520.92,-132"/>
</g>
<!-- 140260402422656 -->
<g id="node21" class="node">
<title>140260402422656</title>
<polygon fill="none" stroke="black" points="0,-110.5 0,-146.5 387,-146.5 387,-110.5 0,-110.5"/>
<text text-anchor="middle" x="26" y="-124.8" font-family="Times,serif" font-size="14.00">v003</text>
<polyline fill="none" stroke="black" points="52,-110.5 52,-146.5 "/>
<text text-anchor="middle" x="69.5" y="-124.8" font-family="Times,serif" font-size="14.00">L1</text>
<polyline fill="none" stroke="black" points="87,-110.5 87,-146.5 "/>
<text text-anchor="middle" x="106" y="-124.8" font-family="Times,serif" font-size="14.00">N2</text>
<polyline fill="none" stroke="black" points="125,-110.5 125,-146.5 "/>
<text text-anchor="middle" x="144" y="-124.8" font-family="Times,serif" font-size="14.00">w1</text>
<polyline fill="none" stroke="black" points="163,-110.5 163,-146.5 "/>
<text text-anchor="middle" x="216.5" y="-124.8" font-family="Times,serif" font-size="14.00">data &#45;0.7049</text>
<polyline fill="none" stroke="black" points="270,-110.5 270,-146.5 "/>
<text text-anchor="middle" x="328.5" y="-124.8" font-family="Times,serif" font-size="14.00">grad &#45;33.1079</text>
</g>
<!-- 140260402422656&#45;&gt;140260402420592* -->
<g id="edge16" class="edge">
<title>140260402422656&#45;&gt;140260402420592*</title>
<path fill="none" stroke="black" d="M387.07,-128.5C396.35,-128.5 404.99,-128.5 412.7,-128.5"/>
<polygon fill="black" stroke="black" points="412.95,-132 422.95,-128.5 412.95,-125 412.95,-132"/>
</g>
<!-- 140260402424720 -->
<g id="node22" class="node">
<title>140260402424720</title>
<polygon fill="none" stroke="black" points="1538.5,-148.5 1538.5,-184.5 1859.5,-184.5 1859.5,-148.5 1538.5,-148.5"/>
<text text-anchor="middle" x="1564.5" y="-162.8" font-family="Times,serif" font-size="14.00">v032</text>
<polyline fill="none" stroke="black" points="1590.5,-148.5 1590.5,-184.5 "/>
<text text-anchor="middle" x="1601" y="-162.8" font-family="Times,serif" font-size="14.00"> </text>
<polyline fill="none" stroke="black" points="1611.5,-148.5 1611.5,-184.5 "/>
<text text-anchor="middle" x="1622" y="-162.8" font-family="Times,serif" font-size="14.00"> </text>
<polyline fill="none" stroke="black" points="1632.5,-148.5 1632.5,-184.5 "/>
<text text-anchor="middle" x="1643" y="-162.8" font-family="Times,serif" font-size="14.00"> </text>
<polyline fill="none" stroke="black" points="1653.5,-148.5 1653.5,-184.5 "/>
<text text-anchor="middle" x="1704.5" y="-162.8" font-family="Times,serif" font-size="14.00">data 1.2822</text>
<polyline fill="none" stroke="black" points="1755.5,-148.5 1755.5,-184.5 "/>
<text text-anchor="middle" x="1807.5" y="-162.8" font-family="Times,serif" font-size="14.00">grad 8.4808</text>
</g>
<!-- 140260402424720&#45;&gt;140260402420448+ -->
<g id="edge17" class="edge">
<title>140260402424720&#45;&gt;140260402420448+</title>
<path fill="none" stroke="black" d="M1832.65,-148.48C1906.43,-138.46 1992.67,-126.75 2039.96,-120.33"/>
<polygon fill="black" stroke="black" points="2040.56,-123.78 2050,-118.96 2039.62,-116.84 2040.56,-123.78"/>
</g>
<!-- 140260402424720*&#45;&gt;140260402424720 -->
<g id="edge9" class="edge">
<title>140260402424720*&#45;&gt;140260402424720</title>
<path fill="none" stroke="black" d="M1482.36,-166.5C1494.7,-166.5 1510.53,-166.5 1528,-166.5"/>
<polygon fill="black" stroke="black" points="1528.46,-170 1538.46,-166.5 1528.46,-163 1528.46,-170"/>
</g>
<!-- 140260402422704 -->
<g id="node24" class="node">
<title>140260402422704</title>
<polygon fill="none" stroke="black" points="513,-55.5 513,-91.5 879,-91.5 879,-55.5 513,-55.5"/>
<text text-anchor="middle" x="539" y="-69.8" font-family="Times,serif" font-size="14.00">v004</text>
<polyline fill="none" stroke="black" points="565,-55.5 565,-91.5 "/>
<text text-anchor="middle" x="582.5" y="-69.8" font-family="Times,serif" font-size="14.00">L1</text>
<polyline fill="none" stroke="black" points="600,-55.5 600,-91.5 "/>
<text text-anchor="middle" x="619" y="-69.8" font-family="Times,serif" font-size="14.00">N2</text>
<polyline fill="none" stroke="black" points="638,-55.5 638,-91.5 "/>
<text text-anchor="middle" x="651" y="-69.8" font-family="Times,serif" font-size="14.00">b</text>
<polyline fill="none" stroke="black" points="664,-55.5 664,-91.5 "/>
<text text-anchor="middle" x="717.5" y="-69.8" font-family="Times,serif" font-size="14.00">data &#45;0.3012</text>
<polyline fill="none" stroke="black" points="771,-55.5 771,-91.5 "/>
<text text-anchor="middle" x="825" y="-69.8" font-family="Times,serif" font-size="14.00">grad &#45;8.2770</text>
</g>
<!-- 140260402422704&#45;&gt;140260402427504+ -->
<g id="edge18" class="edge">
<title>140260402422704&#45;&gt;140260402427504+</title>
<path fill="none" stroke="black" d="M879.11,-73.5C888.34,-73.5 896.95,-73.5 904.65,-73.5"/>
<polygon fill="black" stroke="black" points="904.89,-77 914.89,-73.5 904.89,-70 904.89,-77"/>
</g>
<!-- 140260402419680 -->
<g id="node25" class="node">
<title>140260402419680</title>
<polygon fill="none" stroke="black" points="1005,-135.5 1005,-171.5 1392,-171.5 1392,-135.5 1005,-135.5"/>
<text text-anchor="middle" x="1031" y="-149.8" font-family="Times,serif" font-size="14.00">v005</text>
<polyline fill="none" stroke="black" points="1057,-135.5 1057,-171.5 "/>
<text text-anchor="middle" x="1074.5" y="-149.8" font-family="Times,serif" font-size="14.00">L2</text>
<polyline fill="none" stroke="black" points="1092,-135.5 1092,-171.5 "/>
<text text-anchor="middle" x="1111" y="-149.8" font-family="Times,serif" font-size="14.00">N1</text>
<polyline fill="none" stroke="black" points="1130,-135.5 1130,-171.5 "/>
<text text-anchor="middle" x="1149" y="-149.8" font-family="Times,serif" font-size="14.00">w1</text>
<polyline fill="none" stroke="black" points="1168,-135.5 1168,-171.5 "/>
<text text-anchor="middle" x="1221.5" y="-149.8" font-family="Times,serif" font-size="14.00">data &#45;0.5755</text>
<polyline fill="none" stroke="black" points="1275,-135.5 1275,-171.5 "/>
<text text-anchor="middle" x="1333.5" y="-149.8" font-family="Times,serif" font-size="14.00">grad &#45;18.8936</text>
</g>
<!-- 140260402419680&#45;&gt;140260402424720* -->
<g id="edge23" class="edge">
<title>140260402419680&#45;&gt;140260402424720*</title>
<path fill="none" stroke="black" d="M1392.07,-163.34C1401.35,-163.81 1409.99,-164.25 1417.7,-164.65"/>
<polygon fill="black" stroke="black" points="1417.78,-168.15 1427.95,-165.17 1418.14,-161.16 1417.78,-168.15"/>
</g>
<!-- 140260953974256 -->
<g id="node26" class="node">
<title>140260953974256</title>
<polygon fill="none" stroke="black" points="28.5,-165.5 28.5,-201.5 358.5,-201.5 358.5,-165.5 28.5,-165.5"/>
<text text-anchor="middle" x="54.5" y="-179.8" font-family="Times,serif" font-size="14.00">v008</text>
<polyline fill="none" stroke="black" points="80.5,-165.5 80.5,-201.5 "/>
<text text-anchor="middle" x="91" y="-179.8" font-family="Times,serif" font-size="14.00"> </text>
<polyline fill="none" stroke="black" points="101.5,-165.5 101.5,-201.5 "/>
<text text-anchor="middle" x="112" y="-179.8" font-family="Times,serif" font-size="14.00"> </text>
<polyline fill="none" stroke="black" points="122.5,-165.5 122.5,-201.5 "/>
<text text-anchor="middle" x="137.5" y="-179.8" font-family="Times,serif" font-size="14.00">i1</text>
<polyline fill="none" stroke="black" points="152.5,-165.5 152.5,-201.5 "/>
<text text-anchor="middle" x="203.5" y="-179.8" font-family="Times,serif" font-size="14.00">data 4.0000</text>
<polyline fill="none" stroke="black" points="254.5,-165.5 254.5,-201.5 "/>
<text text-anchor="middle" x="306.5" y="-179.8" font-family="Times,serif" font-size="14.00">grad 8.2494</text>
</g>
<!-- 140260953974256&#45;&gt;140260402420496* -->
<g id="edge12" class="edge">
<title>140260953974256&#45;&gt;140260402420496*</title>
<path fill="none" stroke="black" d="M345.59,-201.55C359.69,-204.41 373.68,-207.71 387,-211.5 397.7,-214.55 408.96,-219.04 418.92,-223.48"/>
<polygon fill="black" stroke="black" points="417.45,-226.66 428,-227.68 420.39,-220.31 417.45,-226.66"/>
</g>
<!-- 140260953974256&#45;&gt;140260402420592* -->
<g id="edge22" class="edge">
<title>140260953974256&#45;&gt;140260402420592*</title>
<path fill="none" stroke="black" d="M350.54,-165.49C362.97,-162.88 375.25,-159.9 387,-156.5 397.92,-153.34 409.39,-148.6 419.46,-143.91"/>
<polygon fill="black" stroke="black" points="421.13,-146.99 428.61,-139.49 418.09,-140.69 421.13,-146.99"/>
</g>
</g>
</svg>
