<?xml version="1.0" encoding="UTF-8" standalone="no"?>
<!DOCTYPE svg PUBLIC "-//W3C//DTD SVG 1.1//EN"
 "http://www.w3.org/Graphics/SVG/1.1/DTD/svg11.dtd">
<!-- Generated by graphviz version 2.43.0 (0)
 -->
<!-- Title: %3 Pages: 1 -->
<svg width="3063pt" height="265pt"
 viewBox="0.00 0.00 3063.00 265.00" xmlns="http://www.w3.org/2000/svg" xmlns:xlink="http://www.w3.org/1999/xlink">
<g id="graph0" class="graph" transform="scale(1 1) rotate(0) translate(4 261)">
<title>%3</title>
<polygon fill="white" stroke="transparent" points="-4,4 -4,-261 3059,-261 3059,4 -4,4"/>
<!-- 139883124669456 -->
<g id="node1" class="node">
<title>139883124669456</title>
<polygon fill="none" stroke="black" points="520.5,-220.5 520.5,-256.5 841.5,-256.5 841.5,-220.5 520.5,-220.5"/>
<text text-anchor="middle" x="546.5" y="-234.8" font-family="Times,serif" font-size="14.00">v055</text>
<polyline fill="none" stroke="black" points="572.5,-220.5 572.5,-256.5 "/>
<text text-anchor="middle" x="583" y="-234.8" font-family="Times,serif" font-size="14.00"> </text>
<polyline fill="none" stroke="black" points="593.5,-220.5 593.5,-256.5 "/>
<text text-anchor="middle" x="604" y="-234.8" font-family="Times,serif" font-size="14.00"> </text>
<polyline fill="none" stroke="black" points="614.5,-220.5 614.5,-256.5 "/>
<text text-anchor="middle" x="625" y="-234.8" font-family="Times,serif" font-size="14.00"> </text>
<polyline fill="none" stroke="black" points="635.5,-220.5 635.5,-256.5 "/>
<text text-anchor="middle" x="686.5" y="-234.8" font-family="Times,serif" font-size="14.00">data 0.7796</text>
<polyline fill="none" stroke="black" points="737.5,-220.5 737.5,-256.5 "/>
<text text-anchor="middle" x="789.5" y="-234.8" font-family="Times,serif" font-size="14.00">grad 0.3723</text>
</g>
<!-- 139883124670416+ -->
<g id="node22" class="node">
<title>139883124670416+</title>
<ellipse fill="none" stroke="black" cx="925" cy="-208.5" rx="27" ry="18"/>
<text text-anchor="middle" x="925" y="-204.8" font-family="Times,serif" font-size="14.00">+</text>
</g>
<!-- 139883124669456&#45;&gt;139883124670416+ -->
<g id="edge21" class="edge">
<title>139883124669456&#45;&gt;139883124670416+</title>
<path fill="none" stroke="black" d="M827.31,-220.49C849.71,-217.71 870.95,-215.08 887.78,-212.99"/>
<polygon fill="black" stroke="black" points="888.69,-216.4 898.18,-211.7 887.83,-209.46 888.69,-216.4"/>
</g>
<!-- 139883124669456* -->
<g id="node2" class="node">
<title>139883124669456*</title>
<ellipse fill="none" stroke="black" cx="437" cy="-238.5" rx="27" ry="18"/>
<text text-anchor="middle" x="437" y="-234.8" font-family="Times,serif" font-size="14.00">*</text>
</g>
<!-- 139883124669456*&#45;&gt;139883124669456 -->
<g id="edge1" class="edge">
<title>139883124669456*&#45;&gt;139883124669456</title>
<path fill="none" stroke="black" d="M464.36,-238.5C476.7,-238.5 492.53,-238.5 510,-238.5"/>
<polygon fill="black" stroke="black" points="510.46,-242 520.46,-238.5 510.46,-235 510.46,-242"/>
</g>
<!-- 139883734297632 -->
<g id="node3" class="node">
<title>139883734297632</title>
<polygon fill="none" stroke="black" points="500,-165.5 500,-201.5 862,-201.5 862,-165.5 500,-165.5"/>
<text text-anchor="middle" x="526" y="-179.8" font-family="Times,serif" font-size="14.00">v002</text>
<polyline fill="none" stroke="black" points="552,-165.5 552,-201.5 "/>
<text text-anchor="middle" x="569.5" y="-179.8" font-family="Times,serif" font-size="14.00">L1</text>
<polyline fill="none" stroke="black" points="587,-165.5 587,-201.5 "/>
<text text-anchor="middle" x="606" y="-179.8" font-family="Times,serif" font-size="14.00">N1</text>
<polyline fill="none" stroke="black" points="625,-165.5 625,-201.5 "/>
<text text-anchor="middle" x="638" y="-179.8" font-family="Times,serif" font-size="14.00">b</text>
<polyline fill="none" stroke="black" points="651,-165.5 651,-201.5 "/>
<text text-anchor="middle" x="704.5" y="-179.8" font-family="Times,serif" font-size="14.00">data &#45;0.0949</text>
<polyline fill="none" stroke="black" points="758,-165.5 758,-201.5 "/>
<text text-anchor="middle" x="810" y="-179.8" font-family="Times,serif" font-size="14.00">grad 0.3723</text>
</g>
<!-- 139883734297632&#45;&gt;139883124670416+ -->
<g id="edge20" class="edge">
<title>139883734297632&#45;&gt;139883124670416+</title>
<path fill="none" stroke="black" d="M856.27,-201.5C867.9,-202.7 878.72,-203.82 888.14,-204.8"/>
<polygon fill="black" stroke="black" points="887.84,-208.28 898.15,-205.83 888.56,-201.32 887.84,-208.28"/>
</g>
<!-- 139883124658752 -->
<g id="node4" class="node">
<title>139883124658752</title>
<polygon fill="none" stroke="black" points="990,-135.5 990,-171.5 1359,-171.5 1359,-135.5 990,-135.5"/>
<text text-anchor="middle" x="1016" y="-149.8" font-family="Times,serif" font-size="14.00">v005</text>
<polyline fill="none" stroke="black" points="1042,-135.5 1042,-171.5 "/>
<text text-anchor="middle" x="1059.5" y="-149.8" font-family="Times,serif" font-size="14.00">L2</text>
<polyline fill="none" stroke="black" points="1077,-135.5 1077,-171.5 "/>
<text text-anchor="middle" x="1096" y="-149.8" font-family="Times,serif" font-size="14.00">N1</text>
<polyline fill="none" stroke="black" points="1115,-135.5 1115,-171.5 "/>
<text text-anchor="middle" x="1134" y="-149.8" font-family="Times,serif" font-size="14.00">w1</text>
<polyline fill="none" stroke="black" points="1153,-135.5 1153,-171.5 "/>
<text text-anchor="middle" x="1204" y="-149.8" font-family="Times,serif" font-size="14.00">data 0.3371</text>
<polyline fill="none" stroke="black" points="1255,-135.5 1255,-171.5 "/>
<text text-anchor="middle" x="1307" y="-149.8" font-family="Times,serif" font-size="14.00">grad 0.7033</text>
</g>
<!-- 139883124669120* -->
<g id="node6" class="node">
<title>139883124669120*</title>
<ellipse fill="none" stroke="black" cx="1424" cy="-166.5" rx="27" ry="18"/>
<text text-anchor="middle" x="1424" y="-162.8" font-family="Times,serif" font-size="14.00">*</text>
</g>
<!-- 139883124658752&#45;&gt;139883124669120* -->
<g id="edge22" class="edge">
<title>139883124658752&#45;&gt;139883124669120*</title>
<path fill="none" stroke="black" d="M1359.26,-163.15C1369.26,-163.68 1378.57,-164.17 1386.82,-164.6"/>
<polygon fill="black" stroke="black" points="1386.84,-168.11 1397.01,-165.14 1387.21,-161.12 1386.84,-168.11"/>
</g>
<!-- 139883124669120 -->
<g id="node5" class="node">
<title>139883124669120</title>
<polygon fill="none" stroke="black" points="1507.5,-148.5 1507.5,-184.5 1828.5,-184.5 1828.5,-148.5 1507.5,-148.5"/>
<text text-anchor="middle" x="1533.5" y="-162.8" font-family="Times,serif" font-size="14.00">v059</text>
<polyline fill="none" stroke="black" points="1559.5,-148.5 1559.5,-184.5 "/>
<text text-anchor="middle" x="1570" y="-162.8" font-family="Times,serif" font-size="14.00"> </text>
<polyline fill="none" stroke="black" points="1580.5,-148.5 1580.5,-184.5 "/>
<text text-anchor="middle" x="1591" y="-162.8" font-family="Times,serif" font-size="14.00"> </text>
<polyline fill="none" stroke="black" points="1601.5,-148.5 1601.5,-184.5 "/>
<text text-anchor="middle" x="1612" y="-162.8" font-family="Times,serif" font-size="14.00"> </text>
<polyline fill="none" stroke="black" points="1622.5,-148.5 1622.5,-184.5 "/>
<text text-anchor="middle" x="1673.5" y="-162.8" font-family="Times,serif" font-size="14.00">data 0.2618</text>
<polyline fill="none" stroke="black" points="1724.5,-148.5 1724.5,-184.5 "/>
<text text-anchor="middle" x="1776.5" y="-162.8" font-family="Times,serif" font-size="14.00">grad 1.0000</text>
</g>
<!-- 139883124660192+ -->
<g id="node24" class="node">
<title>139883124660192+</title>
<ellipse fill="none" stroke="black" cx="2048" cy="-115.5" rx="27" ry="18"/>
<text text-anchor="middle" x="2048" y="-111.8" font-family="Times,serif" font-size="14.00">+</text>
</g>
<!-- 139883124669120&#45;&gt;139883124660192+ -->
<g id="edge9" class="edge">
<title>139883124669120&#45;&gt;139883124660192+</title>
<path fill="none" stroke="black" d="M1802.53,-148.48C1876.81,-138.46 1963.61,-126.75 2011.22,-120.33"/>
<polygon fill="black" stroke="black" points="2011.89,-123.77 2021.33,-118.96 2010.95,-116.83 2011.89,-123.77"/>
</g>
<!-- 139883124669120*&#45;&gt;139883124669120 -->
<g id="edge2" class="edge">
<title>139883124669120*&#45;&gt;139883124669120</title>
<path fill="none" stroke="black" d="M1451.36,-166.5C1463.7,-166.5 1479.53,-166.5 1497,-166.5"/>
<polygon fill="black" stroke="black" points="1497.46,-170 1507.46,-166.5 1497.46,-163 1497.46,-170"/>
</g>
<!-- 139883124664080 -->
<g id="node7" class="node">
<title>139883124664080</title>
<polygon fill="none" stroke="black" points="1487,-93.5 1487,-129.5 1849,-129.5 1849,-93.5 1487,-93.5"/>
<text text-anchor="middle" x="1513" y="-107.8" font-family="Times,serif" font-size="14.00">v007</text>
<polyline fill="none" stroke="black" points="1539,-93.5 1539,-129.5 "/>
<text text-anchor="middle" x="1556.5" y="-107.8" font-family="Times,serif" font-size="14.00">L2</text>
<polyline fill="none" stroke="black" points="1574,-93.5 1574,-129.5 "/>
<text text-anchor="middle" x="1593" y="-107.8" font-family="Times,serif" font-size="14.00">N1</text>
<polyline fill="none" stroke="black" points="1612,-93.5 1612,-129.5 "/>
<text text-anchor="middle" x="1625" y="-107.8" font-family="Times,serif" font-size="14.00">b</text>
<polyline fill="none" stroke="black" points="1638,-93.5 1638,-129.5 "/>
<text text-anchor="middle" x="1691.5" y="-107.8" font-family="Times,serif" font-size="14.00">data &#45;0.2000</text>
<polyline fill="none" stroke="black" points="1745,-93.5 1745,-129.5 "/>
<text text-anchor="middle" x="1797" y="-107.8" font-family="Times,serif" font-size="14.00">grad 1.0000</text>
</g>
<!-- 139883124664080&#45;&gt;139883124660192+ -->
<g id="edge15" class="edge">
<title>139883124664080&#45;&gt;139883124660192+</title>
<path fill="none" stroke="black" d="M1849.14,-113.41C1910.32,-114.05 1972.75,-114.71 2010.69,-115.12"/>
<polygon fill="black" stroke="black" points="2010.68,-118.62 2020.72,-115.22 2010.76,-111.62 2010.68,-118.62"/>
</g>
<!-- 139883734292256 -->
<g id="node8" class="node">
<title>139883734292256</title>
<polygon fill="none" stroke="black" points="2.5,-220.5 2.5,-256.5 371.5,-256.5 371.5,-220.5 2.5,-220.5"/>
<text text-anchor="middle" x="28.5" y="-234.8" font-family="Times,serif" font-size="14.00">v001</text>
<polyline fill="none" stroke="black" points="54.5,-220.5 54.5,-256.5 "/>
<text text-anchor="middle" x="72" y="-234.8" font-family="Times,serif" font-size="14.00">L1</text>
<polyline fill="none" stroke="black" points="89.5,-220.5 89.5,-256.5 "/>
<text text-anchor="middle" x="108.5" y="-234.8" font-family="Times,serif" font-size="14.00">N1</text>
<polyline fill="none" stroke="black" points="127.5,-220.5 127.5,-256.5 "/>
<text text-anchor="middle" x="146.5" y="-234.8" font-family="Times,serif" font-size="14.00">w1</text>
<polyline fill="none" stroke="black" points="165.5,-220.5 165.5,-256.5 "/>
<text text-anchor="middle" x="216.5" y="-234.8" font-family="Times,serif" font-size="14.00">data 0.1204</text>
<polyline fill="none" stroke="black" points="267.5,-220.5 267.5,-256.5 "/>
<text text-anchor="middle" x="319.5" y="-234.8" font-family="Times,serif" font-size="14.00">grad 1.4890</text>
</g>
<!-- 139883734292256&#45;&gt;139883124669456* -->
<g id="edge12" class="edge">
<title>139883734292256&#45;&gt;139883124669456*</title>
<path fill="none" stroke="black" d="M371.81,-238.5C381.88,-238.5 391.25,-238.5 399.55,-238.5"/>
<polygon fill="black" stroke="black" points="399.82,-242 409.82,-238.5 399.82,-235 399.82,-242"/>
</g>
<!-- 139883124664608 -->
<g id="node9" class="node">
<title>139883124664608</title>
<polygon fill="none" stroke="black" points="994,-55.5 994,-91.5 1355,-91.5 1355,-55.5 994,-55.5"/>
<text text-anchor="middle" x="1020" y="-69.8" font-family="Times,serif" font-size="14.00">v058</text>
<polyline fill="none" stroke="black" points="1046,-55.5 1046,-91.5 "/>
<text text-anchor="middle" x="1063.5" y="-69.8" font-family="Times,serif" font-size="14.00">L1</text>
<polyline fill="none" stroke="black" points="1081,-55.5 1081,-91.5 "/>
<text text-anchor="middle" x="1100" y="-69.8" font-family="Times,serif" font-size="14.00">N2</text>
<polyline fill="none" stroke="black" points="1119,-55.5 1119,-91.5 "/>
<text text-anchor="middle" x="1131.5" y="-69.8" font-family="Times,serif" font-size="14.00">a</text>
<polyline fill="none" stroke="black" points="1144,-55.5 1144,-91.5 "/>
<text text-anchor="middle" x="1197.5" y="-69.8" font-family="Times,serif" font-size="14.00">data &#45;0.8484</text>
<polyline fill="none" stroke="black" points="1251,-55.5 1251,-91.5 "/>
<text text-anchor="middle" x="1303" y="-69.8" font-family="Times,serif" font-size="14.00">grad 1.0488</text>
</g>
<!-- 139883124659568* -->
<g id="node17" class="node">
<title>139883124659568*</title>
<ellipse fill="none" stroke="black" cx="1424" cy="-60.5" rx="27" ry="18"/>
<text text-anchor="middle" x="1424" y="-56.8" font-family="Times,serif" font-size="14.00">*</text>
</g>
<!-- 139883124664608&#45;&gt;139883124659568* -->
<g id="edge23" class="edge">
<title>139883124664608&#45;&gt;139883124659568*</title>
<path fill="none" stroke="black" d="M1355.04,-64.07C1366.64,-63.46 1377.41,-62.89 1386.8,-62.4"/>
<polygon fill="black" stroke="black" points="1386.98,-65.9 1396.79,-61.88 1386.62,-58.91 1386.98,-65.9"/>
</g>
<!-- 139883124664608+ -->
<g id="node10" class="node">
<title>139883124664608+</title>
<ellipse fill="none" stroke="black" cx="925" cy="-73.5" rx="27" ry="18"/>
<text text-anchor="middle" x="925" y="-69.8" font-family="Times,serif" font-size="14.00">+</text>
</g>
<!-- 139883124664608+&#45;&gt;139883124664608 -->
<g id="edge3" class="edge">
<title>139883124664608+&#45;&gt;139883124664608</title>
<path fill="none" stroke="black" d="M952.02,-73.5C960.94,-73.5 971.72,-73.5 983.66,-73.5"/>
<polygon fill="black" stroke="black" points="983.95,-77 993.95,-73.5 983.95,-70 983.95,-77"/>
</g>
<!-- 139883124662544 -->
<g id="node11" class="node">
<title>139883124662544</title>
<polygon fill="none" stroke="black" points="518,-110.5 518,-146.5 844,-146.5 844,-110.5 518,-110.5"/>
<text text-anchor="middle" x="544" y="-124.8" font-family="Times,serif" font-size="14.00">v057</text>
<polyline fill="none" stroke="black" points="570,-110.5 570,-146.5 "/>
<text text-anchor="middle" x="580.5" y="-124.8" font-family="Times,serif" font-size="14.00"> </text>
<polyline fill="none" stroke="black" points="591,-110.5 591,-146.5 "/>
<text text-anchor="middle" x="601.5" y="-124.8" font-family="Times,serif" font-size="14.00"> </text>
<polyline fill="none" stroke="black" points="612,-110.5 612,-146.5 "/>
<text text-anchor="middle" x="622.5" y="-124.8" font-family="Times,serif" font-size="14.00"> </text>
<polyline fill="none" stroke="black" points="633,-110.5 633,-146.5 "/>
<text text-anchor="middle" x="686.5" y="-124.8" font-family="Times,serif" font-size="14.00">data &#45;0.6808</text>
<polyline fill="none" stroke="black" points="740,-110.5 740,-146.5 "/>
<text text-anchor="middle" x="792" y="-124.8" font-family="Times,serif" font-size="14.00">grad 1.0488</text>
</g>
<!-- 139883124662544&#45;&gt;139883124664608+ -->
<g id="edge13" class="edge">
<title>139883124662544&#45;&gt;139883124664608+</title>
<path fill="none" stroke="black" d="M821.35,-110.48C835.19,-107.6 848.94,-104.29 862,-100.5 872.68,-97.4 883.95,-92.9 893.9,-88.45"/>
<polygon fill="black" stroke="black" points="895.37,-91.63 902.98,-84.26 892.44,-85.28 895.37,-91.63"/>
</g>
<!-- 139883124662544* -->
<g id="node12" class="node">
<title>139883124662544*</title>
<ellipse fill="none" stroke="black" cx="437" cy="-128.5" rx="27" ry="18"/>
<text text-anchor="middle" x="437" y="-124.8" font-family="Times,serif" font-size="14.00">*</text>
</g>
<!-- 139883124662544*&#45;&gt;139883124662544 -->
<g id="edge4" class="edge">
<title>139883124662544*&#45;&gt;139883124662544</title>
<path fill="none" stroke="black" d="M464.36,-128.5C476.08,-128.5 490.94,-128.5 507.37,-128.5"/>
<polygon fill="black" stroke="black" points="507.79,-132 517.79,-128.5 507.79,-125 507.79,-132"/>
</g>
<!-- 139883124664656 -->
<g id="node13" class="node">
<title>139883124664656</title>
<polygon fill="none" stroke="black" points="2694,-69.5 2694,-105.5 3055,-105.5 3055,-69.5 2694,-69.5"/>
<text text-anchor="middle" x="2720" y="-83.8" font-family="Times,serif" font-size="14.00">v062</text>
<polyline fill="none" stroke="black" points="2746,-69.5 2746,-105.5 "/>
<text text-anchor="middle" x="2763.5" y="-83.8" font-family="Times,serif" font-size="14.00">L2</text>
<polyline fill="none" stroke="black" points="2781,-69.5 2781,-105.5 "/>
<text text-anchor="middle" x="2800" y="-83.8" font-family="Times,serif" font-size="14.00">N1</text>
<polyline fill="none" stroke="black" points="2819,-69.5 2819,-105.5 "/>
<text text-anchor="middle" x="2831.5" y="-83.8" font-family="Times,serif" font-size="14.00">a</text>
<polyline fill="none" stroke="black" points="2844,-69.5 2844,-105.5 "/>
<text text-anchor="middle" x="2897.5" y="-83.8" font-family="Times,serif" font-size="14.00">data &#45;0.7779</text>
<polyline fill="none" stroke="black" points="2951,-69.5 2951,-105.5 "/>
<text text-anchor="middle" x="3003" y="-83.8" font-family="Times,serif" font-size="14.00">grad 1.0000</text>
</g>
<!-- 139883124664656+ -->
<g id="node14" class="node">
<title>139883124664656+</title>
<ellipse fill="none" stroke="black" cx="2631" cy="-87.5" rx="27" ry="18"/>
<text text-anchor="middle" x="2631" y="-83.8" font-family="Times,serif" font-size="14.00">+</text>
</g>
<!-- 139883124664656+&#45;&gt;139883124664656 -->
<g id="edge5" class="edge">
<title>139883124664656+&#45;&gt;139883124664656</title>
<path fill="none" stroke="black" d="M2658.3,-87.5C2665.65,-87.5 2674.24,-87.5 2683.68,-87.5"/>
<polygon fill="black" stroke="black" points="2683.81,-91 2693.81,-87.5 2683.81,-84 2683.81,-91"/>
</g>
<!-- 139883735116112 -->
<g id="node15" class="node">
<title>139883735116112</title>
<polygon fill="none" stroke="black" points="20,-165.5 20,-201.5 354,-201.5 354,-165.5 20,-165.5"/>
<text text-anchor="middle" x="46" y="-179.8" font-family="Times,serif" font-size="14.00">v008</text>
<polyline fill="none" stroke="black" points="72,-165.5 72,-201.5 "/>
<text text-anchor="middle" x="82.5" y="-179.8" font-family="Times,serif" font-size="14.00"> </text>
<polyline fill="none" stroke="black" points="93,-165.5 93,-201.5 "/>
<text text-anchor="middle" x="103.5" y="-179.8" font-family="Times,serif" font-size="14.00"> </text>
<polyline fill="none" stroke="black" points="114,-165.5 114,-201.5 "/>
<text text-anchor="middle" x="129" y="-179.8" font-family="Times,serif" font-size="14.00">i1</text>
<polyline fill="none" stroke="black" points="144,-165.5 144,-201.5 "/>
<text text-anchor="middle" x="195" y="-179.8" font-family="Times,serif" font-size="14.00">data 4.0000</text>
<polyline fill="none" stroke="black" points="246,-165.5 246,-201.5 "/>
<text text-anchor="middle" x="300" y="-179.8" font-family="Times,serif" font-size="14.00">grad &#45;0.1059</text>
</g>
<!-- 139883735116112&#45;&gt;139883124669456* -->
<g id="edge24" class="edge">
<title>139883735116112&#45;&gt;139883124669456*</title>
<path fill="none" stroke="black" d="M332.99,-201.54C346.96,-204.41 360.82,-207.71 374,-211.5 384.69,-214.57 395.96,-219.07 405.91,-223.51"/>
<polygon fill="black" stroke="black" points="404.44,-226.69 414.99,-227.71 407.38,-220.34 404.44,-226.69"/>
</g>
<!-- 139883735116112&#45;&gt;139883124662544* -->
<g id="edge11" class="edge">
<title>139883735116112&#45;&gt;139883124662544*</title>
<path fill="none" stroke="black" d="M338.02,-165.46C350.29,-162.86 362.41,-159.88 374,-156.5 384.83,-153.34 396.2,-148.64 406.21,-143.99"/>
<polygon fill="black" stroke="black" points="407.83,-147.09 415.32,-139.6 404.8,-140.79 407.83,-147.09"/>
</g>
<!-- 139883124659568 -->
<g id="node16" class="node">
<title>139883124659568</title>
<polygon fill="none" stroke="black" points="1885,-42.5 1885,-78.5 2211,-78.5 2211,-42.5 1885,-42.5"/>
<text text-anchor="middle" x="1911" y="-56.8" font-family="Times,serif" font-size="14.00">v061</text>
<polyline fill="none" stroke="black" points="1937,-42.5 1937,-78.5 "/>
<text text-anchor="middle" x="1947.5" y="-56.8" font-family="Times,serif" font-size="14.00"> </text>
<polyline fill="none" stroke="black" points="1958,-42.5 1958,-78.5 "/>
<text text-anchor="middle" x="1968.5" y="-56.8" font-family="Times,serif" font-size="14.00"> </text>
<polyline fill="none" stroke="black" points="1979,-42.5 1979,-78.5 "/>
<text text-anchor="middle" x="1989.5" y="-56.8" font-family="Times,serif" font-size="14.00"> </text>
<polyline fill="none" stroke="black" points="2000,-42.5 2000,-78.5 "/>
<text text-anchor="middle" x="2053.5" y="-56.8" font-family="Times,serif" font-size="14.00">data &#45;0.8897</text>
<polyline fill="none" stroke="black" points="2107,-42.5 2107,-78.5 "/>
<text text-anchor="middle" x="2159" y="-56.8" font-family="Times,serif" font-size="14.00">grad 1.0000</text>
</g>
<!-- 139883124659568&#45;&gt;139883124664656+ -->
<g id="edge14" class="edge">
<title>139883124659568&#45;&gt;139883124664656+</title>
<path fill="none" stroke="black" d="M2211.23,-68.04C2342.75,-74.15 2518.16,-82.3 2593.31,-85.79"/>
<polygon fill="black" stroke="black" points="2593.5,-89.31 2603.65,-86.28 2593.82,-82.31 2593.5,-89.31"/>
</g>
<!-- 139883124659568*&#45;&gt;139883124659568 -->
<g id="edge6" class="edge">
<title>139883124659568*&#45;&gt;139883124659568</title>
<path fill="none" stroke="black" d="M1451.33,-60.5C1522.87,-60.5 1725.46,-60.5 1874.6,-60.5"/>
<polygon fill="black" stroke="black" points="1874.79,-64 1884.79,-60.5 1874.79,-57 1874.79,-64"/>
</g>
<!-- 139883124659040 -->
<g id="node18" class="node">
<title>139883124659040</title>
<polygon fill="none" stroke="black" points="0,-110.5 0,-146.5 374,-146.5 374,-110.5 0,-110.5"/>
<text text-anchor="middle" x="26" y="-124.8" font-family="Times,serif" font-size="14.00">v003</text>
<polyline fill="none" stroke="black" points="52,-110.5 52,-146.5 "/>
<text text-anchor="middle" x="69.5" y="-124.8" font-family="Times,serif" font-size="14.00">L1</text>
<polyline fill="none" stroke="black" points="87,-110.5 87,-146.5 "/>
<text text-anchor="middle" x="106" y="-124.8" font-family="Times,serif" font-size="14.00">N2</text>
<polyline fill="none" stroke="black" points="125,-110.5 125,-146.5 "/>
<text text-anchor="middle" x="144" y="-124.8" font-family="Times,serif" font-size="14.00">w1</text>
<polyline fill="none" stroke="black" points="163,-110.5 163,-146.5 "/>
<text text-anchor="middle" x="216.5" y="-124.8" font-family="Times,serif" font-size="14.00">data &#45;0.3800</text>
<polyline fill="none" stroke="black" points="270,-110.5 270,-146.5 "/>
<text text-anchor="middle" x="322" y="-124.8" font-family="Times,serif" font-size="14.00">grad 4.1950</text>
</g>
<!-- 139883124659040&#45;&gt;139883124662544* -->
<g id="edge19" class="edge">
<title>139883124659040&#45;&gt;139883124662544*</title>
<path fill="none" stroke="black" d="M374.06,-128.5C383.31,-128.5 391.94,-128.5 399.65,-128.5"/>
<polygon fill="black" stroke="black" points="399.9,-132 409.9,-128.5 399.9,-125 399.9,-132"/>
</g>
<!-- 139883124658992 -->
<g id="node19" class="node">
<title>139883124658992</title>
<polygon fill="none" stroke="black" points="500,-55.5 500,-91.5 862,-91.5 862,-55.5 500,-55.5"/>
<text text-anchor="middle" x="526" y="-69.8" font-family="Times,serif" font-size="14.00">v004</text>
<polyline fill="none" stroke="black" points="552,-55.5 552,-91.5 "/>
<text text-anchor="middle" x="569.5" y="-69.8" font-family="Times,serif" font-size="14.00">L1</text>
<polyline fill="none" stroke="black" points="587,-55.5 587,-91.5 "/>
<text text-anchor="middle" x="606" y="-69.8" font-family="Times,serif" font-size="14.00">N2</text>
<polyline fill="none" stroke="black" points="625,-55.5 625,-91.5 "/>
<text text-anchor="middle" x="638" y="-69.8" font-family="Times,serif" font-size="14.00">b</text>
<polyline fill="none" stroke="black" points="651,-55.5 651,-91.5 "/>
<text text-anchor="middle" x="704.5" y="-69.8" font-family="Times,serif" font-size="14.00">data &#45;0.2200</text>
<polyline fill="none" stroke="black" points="758,-55.5 758,-91.5 "/>
<text text-anchor="middle" x="810" y="-69.8" font-family="Times,serif" font-size="14.00">grad 1.0488</text>
</g>
<!-- 139883124658992&#45;&gt;139883124664608+ -->
<g id="edge16" class="edge">
<title>139883124658992&#45;&gt;139883124664608+</title>
<path fill="none" stroke="black" d="M862.31,-73.5C871.5,-73.5 880.08,-73.5 887.76,-73.5"/>
<polygon fill="black" stroke="black" points="887.96,-77 897.96,-73.5 887.96,-70 887.96,-77"/>
</g>
<!-- 139883124664128 -->
<g id="node20" class="node">
<title>139883124664128</title>
<polygon fill="none" stroke="black" points="988,-0.5 988,-36.5 1361,-36.5 1361,-0.5 988,-0.5"/>
<text text-anchor="middle" x="1014" y="-14.8" font-family="Times,serif" font-size="14.00">v006</text>
<polyline fill="none" stroke="black" points="1040,-0.5 1040,-36.5 "/>
<text text-anchor="middle" x="1057.5" y="-14.8" font-family="Times,serif" font-size="14.00">L2</text>
<polyline fill="none" stroke="black" points="1075,-0.5 1075,-36.5 "/>
<text text-anchor="middle" x="1094" y="-14.8" font-family="Times,serif" font-size="14.00">N1</text>
<polyline fill="none" stroke="black" points="1113,-0.5 1113,-36.5 "/>
<text text-anchor="middle" x="1132" y="-14.8" font-family="Times,serif" font-size="14.00">w2</text>
<polyline fill="none" stroke="black" points="1151,-0.5 1151,-36.5 "/>
<text text-anchor="middle" x="1202" y="-14.8" font-family="Times,serif" font-size="14.00">data 1.0912</text>
<polyline fill="none" stroke="black" points="1253,-0.5 1253,-36.5 "/>
<text text-anchor="middle" x="1307" y="-14.8" font-family="Times,serif" font-size="14.00">grad &#45;0.8484</text>
</g>
<!-- 139883124664128&#45;&gt;139883124659568* -->
<g id="edge10" class="edge">
<title>139883124664128&#45;&gt;139883124659568*</title>
<path fill="none" stroke="black" d="M1309.75,-36.53C1327.03,-39.3 1344.46,-42.3 1361,-45.5 1370.09,-47.26 1379.84,-49.46 1388.87,-51.64"/>
<polygon fill="black" stroke="black" points="1388.13,-55.06 1398.67,-54.06 1389.8,-48.27 1388.13,-55.06"/>
</g>
<!-- 139883124670416 -->
<g id="node21" class="node">
<title>139883124670416</title>
<polygon fill="none" stroke="black" points="996.5,-190.5 996.5,-226.5 1352.5,-226.5 1352.5,-190.5 996.5,-190.5"/>
<text text-anchor="middle" x="1022.5" y="-204.8" font-family="Times,serif" font-size="14.00">v056</text>
<polyline fill="none" stroke="black" points="1048.5,-190.5 1048.5,-226.5 "/>
<text text-anchor="middle" x="1066" y="-204.8" font-family="Times,serif" font-size="14.00">L1</text>
<polyline fill="none" stroke="black" points="1083.5,-190.5 1083.5,-226.5 "/>
<text text-anchor="middle" x="1102.5" y="-204.8" font-family="Times,serif" font-size="14.00">N1</text>
<polyline fill="none" stroke="black" points="1121.5,-190.5 1121.5,-226.5 "/>
<text text-anchor="middle" x="1134" y="-204.8" font-family="Times,serif" font-size="14.00">a</text>
<polyline fill="none" stroke="black" points="1146.5,-190.5 1146.5,-226.5 "/>
<text text-anchor="middle" x="1197.5" y="-204.8" font-family="Times,serif" font-size="14.00">data 0.7033</text>
<polyline fill="none" stroke="black" points="1248.5,-190.5 1248.5,-226.5 "/>
<text text-anchor="middle" x="1300.5" y="-204.8" font-family="Times,serif" font-size="14.00">grad 0.3723</text>
</g>
<!-- 139883124670416&#45;&gt;139883124669120* -->
<g id="edge18" class="edge">
<title>139883124670416&#45;&gt;139883124669120*</title>
<path fill="none" stroke="black" d="M1309.75,-190.47C1327.03,-187.7 1344.46,-184.7 1361,-181.5 1370.09,-179.74 1379.84,-177.54 1388.87,-175.36"/>
<polygon fill="black" stroke="black" points="1389.8,-178.73 1398.67,-172.94 1388.13,-171.94 1389.8,-178.73"/>
</g>
<!-- 139883124670416+&#45;&gt;139883124670416 -->
<g id="edge7" class="edge">
<title>139883124670416+&#45;&gt;139883124670416</title>
<path fill="none" stroke="black" d="M952.02,-208.5C961.56,-208.5 973.24,-208.5 986.18,-208.5"/>
<polygon fill="black" stroke="black" points="986.32,-212 996.32,-208.5 986.32,-205 986.32,-212"/>
</g>
<!-- 139883124660192 -->
<g id="node23" class="node">
<title>139883124660192</title>
<polygon fill="none" stroke="black" points="2247,-95.5 2247,-131.5 2568,-131.5 2568,-95.5 2247,-95.5"/>
<text text-anchor="middle" x="2273" y="-109.8" font-family="Times,serif" font-size="14.00">v060</text>
<polyline fill="none" stroke="black" points="2299,-95.5 2299,-131.5 "/>
<text text-anchor="middle" x="2309.5" y="-109.8" font-family="Times,serif" font-size="14.00"> </text>
<polyline fill="none" stroke="black" points="2320,-95.5 2320,-131.5 "/>
<text text-anchor="middle" x="2330.5" y="-109.8" font-family="Times,serif" font-size="14.00"> </text>
<polyline fill="none" stroke="black" points="2341,-95.5 2341,-131.5 "/>
<text text-anchor="middle" x="2351.5" y="-109.8" font-family="Times,serif" font-size="14.00"> </text>
<polyline fill="none" stroke="black" points="2362,-95.5 2362,-131.5 "/>
<text text-anchor="middle" x="2413" y="-109.8" font-family="Times,serif" font-size="14.00">data 0.1118</text>
<polyline fill="none" stroke="black" points="2464,-95.5 2464,-131.5 "/>
<text text-anchor="middle" x="2516" y="-109.8" font-family="Times,serif" font-size="14.00">grad 1.0000</text>
</g>
<!-- 139883124660192&#45;&gt;139883124664656+ -->
<g id="edge17" class="edge">
<title>139883124660192&#45;&gt;139883124664656+</title>
<path fill="none" stroke="black" d="M2562.04,-95.48C2573.67,-94.11 2584.55,-92.83 2594.06,-91.72"/>
<polygon fill="black" stroke="black" points="2594.64,-95.17 2604.17,-90.53 2593.83,-88.22 2594.64,-95.17"/>
</g>
<!-- 139883124660192+&#45;&gt;139883124660192 -->
<g id="edge8" class="edge">
<title>139883124660192+&#45;&gt;139883124660192</title>
<path fill="none" stroke="black" d="M2075.29,-115.35C2110.03,-115.16 2174.19,-114.8 2236.86,-114.45"/>
<polygon fill="black" stroke="black" points="2236.92,-117.95 2246.9,-114.39 2236.88,-110.95 2236.92,-117.95"/>
</g>
</g>
</svg>
