<?xml version="1.0" encoding="UTF-8" standalone="no"?>
<!DOCTYPE svg PUBLIC "-//W3C//DTD SVG 1.1//EN"
 "http://www.w3.org/Graphics/SVG/1.1/DTD/svg11.dtd">
<!-- Generated by graphviz version 2.43.0 (0)
 -->
<!-- Title: %3 Pages: 1 -->
<svg width="3491pt" height="265pt"
 viewBox="0.00 0.00 3491.00 265.00" xmlns="http://www.w3.org/2000/svg" xmlns:xlink="http://www.w3.org/1999/xlink">
<g id="graph0" class="graph" transform="scale(1 1) rotate(0) translate(4 261)">
<title>%3</title>
<polygon fill="white" stroke="transparent" points="-4,4 -4,-261 3487,-261 3487,4 -4,4"/>
<!-- 140260402426400 -->
<g id="node1" class="node">
<title>140260402426400</title>
<polygon fill="none" stroke="black" points="989.5,-55.5 989.5,-91.5 1345.5,-91.5 1345.5,-55.5 989.5,-55.5"/>
<text text-anchor="middle" x="1015.5" y="-69.8" font-family="Times,serif" font-size="14.00">v040</text>
<polyline fill="none" stroke="black" points="1041.5,-55.5 1041.5,-91.5 "/>
<text text-anchor="middle" x="1059" y="-69.8" font-family="Times,serif" font-size="14.00">L1</text>
<polyline fill="none" stroke="black" points="1076.5,-55.5 1076.5,-91.5 "/>
<text text-anchor="middle" x="1095.5" y="-69.8" font-family="Times,serif" font-size="14.00">N2</text>
<polyline fill="none" stroke="black" points="1114.5,-55.5 1114.5,-91.5 "/>
<text text-anchor="middle" x="1127" y="-69.8" font-family="Times,serif" font-size="14.00">a</text>
<polyline fill="none" stroke="black" points="1139.5,-55.5 1139.5,-91.5 "/>
<text text-anchor="middle" x="1190.5" y="-69.8" font-family="Times,serif" font-size="14.00">data 3.9146</text>
<polyline fill="none" stroke="black" points="1241.5,-55.5 1241.5,-91.5 "/>
<text text-anchor="middle" x="1293.5" y="-69.8" font-family="Times,serif" font-size="14.00">grad 0.0000</text>
</g>
<!-- 140260402428176* -->
<g id="node16" class="node">
<title>140260402428176*</title>
<ellipse fill="none" stroke="black" cx="1415" cy="-60.5" rx="27" ry="18"/>
<text text-anchor="middle" x="1415" y="-56.8" font-family="Times,serif" font-size="14.00">*</text>
</g>
<!-- 140260402426400&#45;&gt;140260402428176* -->
<g id="edge21" class="edge">
<title>140260402426400&#45;&gt;140260402428176*</title>
<path fill="none" stroke="black" d="M1345.61,-64.12C1357.37,-63.5 1368.29,-62.92 1377.8,-62.42"/>
<polygon fill="black" stroke="black" points="1378.11,-65.91 1387.91,-61.88 1377.74,-58.92 1378.11,-65.91"/>
</g>
<!-- 140260402426400+ -->
<g id="node2" class="node">
<title>140260402426400+</title>
<ellipse fill="none" stroke="black" cx="920" cy="-73.5" rx="27" ry="18"/>
<text text-anchor="middle" x="920" y="-69.8" font-family="Times,serif" font-size="14.00">+</text>
</g>
<!-- 140260402426400+&#45;&gt;140260402426400 -->
<g id="edge1" class="edge">
<title>140260402426400+&#45;&gt;140260402426400</title>
<path fill="none" stroke="black" d="M947.27,-73.5C956.26,-73.5 967.11,-73.5 979.12,-73.5"/>
<polygon fill="black" stroke="black" points="979.46,-77 989.46,-73.5 979.46,-70 979.46,-77"/>
</g>
<!-- 140260402426496 -->
<g id="node3" class="node">
<title>140260402426496</title>
<polygon fill="none" stroke="black" points="1498.5,-148.5 1498.5,-184.5 1819.5,-184.5 1819.5,-148.5 1498.5,-148.5"/>
<text text-anchor="middle" x="1524.5" y="-162.8" font-family="Times,serif" font-size="14.00">v041</text>
<polyline fill="none" stroke="black" points="1550.5,-148.5 1550.5,-184.5 "/>
<text text-anchor="middle" x="1561" y="-162.8" font-family="Times,serif" font-size="14.00"> </text>
<polyline fill="none" stroke="black" points="1571.5,-148.5 1571.5,-184.5 "/>
<text text-anchor="middle" x="1582" y="-162.8" font-family="Times,serif" font-size="14.00"> </text>
<polyline fill="none" stroke="black" points="1592.5,-148.5 1592.5,-184.5 "/>
<text text-anchor="middle" x="1603" y="-162.8" font-family="Times,serif" font-size="14.00"> </text>
<polyline fill="none" stroke="black" points="1613.5,-148.5 1613.5,-184.5 "/>
<text text-anchor="middle" x="1664.5" y="-162.8" font-family="Times,serif" font-size="14.00">data 0.7092</text>
<polyline fill="none" stroke="black" points="1715.5,-148.5 1715.5,-184.5 "/>
<text text-anchor="middle" x="1767.5" y="-162.8" font-family="Times,serif" font-size="14.00">grad 0.0000</text>
</g>
<!-- 140260402424576+ -->
<g id="node13" class="node">
<title>140260402424576+</title>
<ellipse fill="none" stroke="black" cx="2036.5" cy="-115.5" rx="27" ry="18"/>
<text text-anchor="middle" x="2036.5" y="-111.8" font-family="Times,serif" font-size="14.00">+</text>
</g>
<!-- 140260402426496&#45;&gt;140260402424576+ -->
<g id="edge22" class="edge">
<title>140260402426496&#45;&gt;140260402424576+</title>
<path fill="none" stroke="black" d="M1792.65,-148.48C1866.43,-138.46 1952.67,-126.75 1999.96,-120.33"/>
<polygon fill="black" stroke="black" points="2000.56,-123.78 2010,-118.96 1999.62,-116.84 2000.56,-123.78"/>
</g>
<!-- 140260402426496* -->
<g id="node4" class="node">
<title>140260402426496*</title>
<ellipse fill="none" stroke="black" cx="1415" cy="-166.5" rx="27" ry="18"/>
<text text-anchor="middle" x="1415" y="-162.8" font-family="Times,serif" font-size="14.00">*</text>
</g>
<!-- 140260402426496*&#45;&gt;140260402426496 -->
<g id="edge2" class="edge">
<title>140260402426496*&#45;&gt;140260402426496</title>
<path fill="none" stroke="black" d="M1442.36,-166.5C1454.7,-166.5 1470.53,-166.5 1488,-166.5"/>
<polygon fill="black" stroke="black" points="1488.46,-170 1498.46,-166.5 1488.46,-163 1488.46,-170"/>
</g>
<!-- 140260402419344 -->
<g id="node5" class="node">
<title>140260402419344</title>
<polygon fill="none" stroke="black" points="983,-0.5 983,-36.5 1352,-36.5 1352,-0.5 983,-0.5"/>
<text text-anchor="middle" x="1009" y="-14.8" font-family="Times,serif" font-size="14.00">v006</text>
<polyline fill="none" stroke="black" points="1035,-0.5 1035,-36.5 "/>
<text text-anchor="middle" x="1052.5" y="-14.8" font-family="Times,serif" font-size="14.00">L2</text>
<polyline fill="none" stroke="black" points="1070,-0.5 1070,-36.5 "/>
<text text-anchor="middle" x="1089" y="-14.8" font-family="Times,serif" font-size="14.00">N1</text>
<polyline fill="none" stroke="black" points="1108,-0.5 1108,-36.5 "/>
<text text-anchor="middle" x="1127" y="-14.8" font-family="Times,serif" font-size="14.00">w2</text>
<polyline fill="none" stroke="black" points="1146,-0.5 1146,-36.5 "/>
<text text-anchor="middle" x="1197" y="-14.8" font-family="Times,serif" font-size="14.00">data 0.3474</text>
<polyline fill="none" stroke="black" points="1248,-0.5 1248,-36.5 "/>
<text text-anchor="middle" x="1300" y="-14.8" font-family="Times,serif" font-size="14.00">grad 0.0000</text>
</g>
<!-- 140260402419344&#45;&gt;140260402428176* -->
<g id="edge24" class="edge">
<title>140260402419344&#45;&gt;140260402428176*</title>
<path fill="none" stroke="black" d="M1301.05,-36.53C1318.23,-39.3 1335.56,-42.31 1352,-45.5 1361.08,-47.26 1370.84,-49.47 1379.87,-51.65"/>
<polygon fill="black" stroke="black" points="1379.12,-55.07 1389.67,-54.07 1380.8,-48.28 1379.12,-55.07"/>
</g>
<!-- 140260402422656 -->
<g id="node6" class="node">
<title>140260402422656</title>
<polygon fill="none" stroke="black" points="0,-110.5 0,-146.5 369,-146.5 369,-110.5 0,-110.5"/>
<text text-anchor="middle" x="26" y="-124.8" font-family="Times,serif" font-size="14.00">v003</text>
<polyline fill="none" stroke="black" points="52,-110.5 52,-146.5 "/>
<text text-anchor="middle" x="69.5" y="-124.8" font-family="Times,serif" font-size="14.00">L1</text>
<polyline fill="none" stroke="black" points="87,-110.5 87,-146.5 "/>
<text text-anchor="middle" x="106" y="-124.8" font-family="Times,serif" font-size="14.00">N2</text>
<polyline fill="none" stroke="black" points="125,-110.5 125,-146.5 "/>
<text text-anchor="middle" x="144" y="-124.8" font-family="Times,serif" font-size="14.00">w1</text>
<polyline fill="none" stroke="black" points="163,-110.5 163,-146.5 "/>
<text text-anchor="middle" x="214" y="-124.8" font-family="Times,serif" font-size="14.00">data 0.9505</text>
<polyline fill="none" stroke="black" points="265,-110.5 265,-146.5 "/>
<text text-anchor="middle" x="317" y="-124.8" font-family="Times,serif" font-size="14.00">grad 0.0000</text>
</g>
<!-- 140260402426832* -->
<g id="node23" class="node">
<title>140260402426832*</title>
<ellipse fill="none" stroke="black" cx="432" cy="-128.5" rx="27" ry="18"/>
<text text-anchor="middle" x="432" y="-124.8" font-family="Times,serif" font-size="14.00">*</text>
</g>
<!-- 140260402422656&#45;&gt;140260402426832* -->
<g id="edge25" class="edge">
<title>140260402422656&#45;&gt;140260402426832*</title>
<path fill="none" stroke="black" d="M369.05,-128.5C378.29,-128.5 386.92,-128.5 394.62,-128.5"/>
<polygon fill="black" stroke="black" points="394.87,-132 404.87,-128.5 394.87,-125 394.87,-132"/>
</g>
<!-- 140260402428608 -->
<g id="node7" class="node">
<title>140260402428608</title>
<polygon fill="none" stroke="black" points="515.5,-220.5 515.5,-256.5 836.5,-256.5 836.5,-220.5 515.5,-220.5"/>
<text text-anchor="middle" x="541.5" y="-234.8" font-family="Times,serif" font-size="14.00">v037</text>
<polyline fill="none" stroke="black" points="567.5,-220.5 567.5,-256.5 "/>
<text text-anchor="middle" x="578" y="-234.8" font-family="Times,serif" font-size="14.00"> </text>
<polyline fill="none" stroke="black" points="588.5,-220.5 588.5,-256.5 "/>
<text text-anchor="middle" x="599" y="-234.8" font-family="Times,serif" font-size="14.00"> </text>
<polyline fill="none" stroke="black" points="609.5,-220.5 609.5,-256.5 "/>
<text text-anchor="middle" x="620" y="-234.8" font-family="Times,serif" font-size="14.00"> </text>
<polyline fill="none" stroke="black" points="630.5,-220.5 630.5,-256.5 "/>
<text text-anchor="middle" x="681.5" y="-234.8" font-family="Times,serif" font-size="14.00">data 1.9257</text>
<polyline fill="none" stroke="black" points="732.5,-220.5 732.5,-256.5 "/>
<text text-anchor="middle" x="784.5" y="-234.8" font-family="Times,serif" font-size="14.00">grad 0.0000</text>
</g>
<!-- 140260402427792+ -->
<g id="node20" class="node">
<title>140260402427792+</title>
<ellipse fill="none" stroke="black" cx="920" cy="-196.5" rx="27" ry="18"/>
<text text-anchor="middle" x="920" y="-192.8" font-family="Times,serif" font-size="14.00">+</text>
</g>
<!-- 140260402428608&#45;&gt;140260402427792+ -->
<g id="edge11" class="edge">
<title>140260402428608&#45;&gt;140260402427792+</title>
<path fill="none" stroke="black" d="M806.53,-220.48C823.54,-217.7 840.72,-214.68 857,-211.5 866.08,-209.72 875.84,-207.51 884.86,-205.33"/>
<polygon fill="black" stroke="black" points="885.8,-208.71 894.67,-202.91 884.12,-201.91 885.8,-208.71"/>
</g>
<!-- 140260402428608* -->
<g id="node8" class="node">
<title>140260402428608*</title>
<ellipse fill="none" stroke="black" cx="432" cy="-238.5" rx="27" ry="18"/>
<text text-anchor="middle" x="432" y="-234.8" font-family="Times,serif" font-size="14.00">*</text>
</g>
<!-- 140260402428608*&#45;&gt;140260402428608 -->
<g id="edge3" class="edge">
<title>140260402428608*&#45;&gt;140260402428608</title>
<path fill="none" stroke="black" d="M459.36,-238.5C471.7,-238.5 487.53,-238.5 505,-238.5"/>
<polygon fill="black" stroke="black" points="505.46,-242 515.46,-238.5 505.46,-235 505.46,-242"/>
</g>
<!-- 140260402428128 -->
<g id="node9" class="node">
<title>140260402428128</title>
<polygon fill="none" stroke="black" points="2680,-69.5 2680,-105.5 3036,-105.5 3036,-69.5 2680,-69.5"/>
<text text-anchor="middle" x="2706" y="-83.8" font-family="Times,serif" font-size="14.00">v044</text>
<polyline fill="none" stroke="black" points="2732,-69.5 2732,-105.5 "/>
<text text-anchor="middle" x="2749.5" y="-83.8" font-family="Times,serif" font-size="14.00">L2</text>
<polyline fill="none" stroke="black" points="2767,-69.5 2767,-105.5 "/>
<text text-anchor="middle" x="2786" y="-83.8" font-family="Times,serif" font-size="14.00">N1</text>
<polyline fill="none" stroke="black" points="2805,-69.5 2805,-105.5 "/>
<text text-anchor="middle" x="2817.5" y="-83.8" font-family="Times,serif" font-size="14.00">a</text>
<polyline fill="none" stroke="black" points="2830,-69.5 2830,-105.5 "/>
<text text-anchor="middle" x="2881" y="-83.8" font-family="Times,serif" font-size="14.00">data 1.5575</text>
<polyline fill="none" stroke="black" points="2932,-69.5 2932,-105.5 "/>
<text text-anchor="middle" x="2984" y="-83.8" font-family="Times,serif" font-size="14.00">grad 0.0000</text>
</g>
<!-- 140260402429424* -->
<g id="node26" class="node">
<title>140260402429424*</title>
<ellipse fill="none" stroke="black" cx="3099" cy="-87.5" rx="27" ry="18"/>
<text text-anchor="middle" x="3099" y="-83.8" font-family="Times,serif" font-size="14.00">*</text>
</g>
<!-- 140260402428128&#45;&gt;140260402429424* -->
<g id="edge15" class="edge">
<title>140260402428128&#45;&gt;140260402429424*</title>
<path fill="none" stroke="black" d="M3036.14,-87.5C3045.34,-87.5 3053.94,-87.5 3061.63,-87.5"/>
<polygon fill="black" stroke="black" points="3061.86,-91 3071.86,-87.5 3061.86,-84 3061.86,-91"/>
</g>
<!-- 140260402428128+ -->
<g id="node10" class="node">
<title>140260402428128+</title>
<ellipse fill="none" stroke="black" cx="2617" cy="-87.5" rx="27" ry="18"/>
<text text-anchor="middle" x="2617" y="-83.8" font-family="Times,serif" font-size="14.00">+</text>
</g>
<!-- 140260402428128+&#45;&gt;140260402428128 -->
<g id="edge4" class="edge">
<title>140260402428128+&#45;&gt;140260402428128</title>
<path fill="none" stroke="black" d="M2644.03,-87.5C2651.4,-87.5 2660.02,-87.5 2669.49,-87.5"/>
<polygon fill="black" stroke="black" points="2669.66,-91 2679.66,-87.5 2669.66,-84 2669.66,-91"/>
</g>
<!-- 140260953974256 -->
<g id="node11" class="node">
<title>140260953974256</title>
<polygon fill="none" stroke="black" points="19.5,-165.5 19.5,-201.5 349.5,-201.5 349.5,-165.5 19.5,-165.5"/>
<text text-anchor="middle" x="45.5" y="-179.8" font-family="Times,serif" font-size="14.00">v008</text>
<polyline fill="none" stroke="black" points="71.5,-165.5 71.5,-201.5 "/>
<text text-anchor="middle" x="82" y="-179.8" font-family="Times,serif" font-size="14.00"> </text>
<polyline fill="none" stroke="black" points="92.5,-165.5 92.5,-201.5 "/>
<text text-anchor="middle" x="103" y="-179.8" font-family="Times,serif" font-size="14.00"> </text>
<polyline fill="none" stroke="black" points="113.5,-165.5 113.5,-201.5 "/>
<text text-anchor="middle" x="128.5" y="-179.8" font-family="Times,serif" font-size="14.00">i1</text>
<polyline fill="none" stroke="black" points="143.5,-165.5 143.5,-201.5 "/>
<text text-anchor="middle" x="194.5" y="-179.8" font-family="Times,serif" font-size="14.00">data 4.0000</text>
<polyline fill="none" stroke="black" points="245.5,-165.5 245.5,-201.5 "/>
<text text-anchor="middle" x="297.5" y="-179.8" font-family="Times,serif" font-size="14.00">grad 0.0000</text>
</g>
<!-- 140260953974256&#45;&gt;140260402428608* -->
<g id="edge10" class="edge">
<title>140260953974256&#45;&gt;140260402428608*</title>
<path fill="none" stroke="black" d="M328.05,-201.51C341.99,-204.39 355.84,-207.7 369,-211.5 379.68,-214.58 390.95,-219.08 400.91,-223.53"/>
<polygon fill="black" stroke="black" points="399.44,-226.71 409.99,-227.72 402.38,-220.35 399.44,-226.71"/>
</g>
<!-- 140260953974256&#45;&gt;140260402426832* -->
<g id="edge17" class="edge">
<title>140260953974256&#45;&gt;140260402426832*</title>
<path fill="none" stroke="black" d="M333.02,-165.49C345.28,-162.88 357.41,-159.9 369,-156.5 379.82,-153.33 391.2,-148.63 401.21,-143.98"/>
<polygon fill="black" stroke="black" points="402.83,-147.08 410.32,-139.59 399.79,-140.77 402.83,-147.08"/>
</g>
<!-- 140260402424576 -->
<g id="node12" class="node">
<title>140260402424576</title>
<polygon fill="none" stroke="black" points="2233,-95.5 2233,-131.5 2554,-131.5 2554,-95.5 2233,-95.5"/>
<text text-anchor="middle" x="2259" y="-109.8" font-family="Times,serif" font-size="14.00">v042</text>
<polyline fill="none" stroke="black" points="2285,-95.5 2285,-131.5 "/>
<text text-anchor="middle" x="2295.5" y="-109.8" font-family="Times,serif" font-size="14.00"> </text>
<polyline fill="none" stroke="black" points="2306,-95.5 2306,-131.5 "/>
<text text-anchor="middle" x="2316.5" y="-109.8" font-family="Times,serif" font-size="14.00"> </text>
<polyline fill="none" stroke="black" points="2327,-95.5 2327,-131.5 "/>
<text text-anchor="middle" x="2337.5" y="-109.8" font-family="Times,serif" font-size="14.00"> </text>
<polyline fill="none" stroke="black" points="2348,-95.5 2348,-131.5 "/>
<text text-anchor="middle" x="2399" y="-109.8" font-family="Times,serif" font-size="14.00">data 0.1976</text>
<polyline fill="none" stroke="black" points="2450,-95.5 2450,-131.5 "/>
<text text-anchor="middle" x="2502" y="-109.8" font-family="Times,serif" font-size="14.00">grad 0.0000</text>
</g>
<!-- 140260402424576&#45;&gt;140260402428128+ -->
<g id="edge19" class="edge">
<title>140260402424576&#45;&gt;140260402428128+</title>
<path fill="none" stroke="black" d="M2548.04,-95.48C2559.67,-94.11 2570.55,-92.83 2580.06,-91.72"/>
<polygon fill="black" stroke="black" points="2580.64,-95.17 2590.17,-90.53 2579.83,-88.22 2580.64,-95.17"/>
</g>
<!-- 140260402424576+&#45;&gt;140260402424576 -->
<g id="edge5" class="edge">
<title>140260402424576+&#45;&gt;140260402424576</title>
<path fill="none" stroke="black" d="M2063.6,-115.35C2097.81,-115.16 2160.72,-114.81 2222.43,-114.46"/>
<polygon fill="black" stroke="black" points="2222.74,-117.96 2232.72,-114.4 2222.7,-110.96 2222.74,-117.96"/>
</g>
<!-- 140260402422512 -->
<g id="node14" class="node">
<title>140260402422512</title>
<polygon fill="none" stroke="black" points="495,-165.5 495,-201.5 857,-201.5 857,-165.5 495,-165.5"/>
<text text-anchor="middle" x="521" y="-179.8" font-family="Times,serif" font-size="14.00">v002</text>
<polyline fill="none" stroke="black" points="547,-165.5 547,-201.5 "/>
<text text-anchor="middle" x="564.5" y="-179.8" font-family="Times,serif" font-size="14.00">L1</text>
<polyline fill="none" stroke="black" points="582,-165.5 582,-201.5 "/>
<text text-anchor="middle" x="601" y="-179.8" font-family="Times,serif" font-size="14.00">N1</text>
<polyline fill="none" stroke="black" points="620,-165.5 620,-201.5 "/>
<text text-anchor="middle" x="633" y="-179.8" font-family="Times,serif" font-size="14.00">b</text>
<polyline fill="none" stroke="black" points="646,-165.5 646,-201.5 "/>
<text text-anchor="middle" x="699.5" y="-179.8" font-family="Times,serif" font-size="14.00">data &#45;0.0046</text>
<polyline fill="none" stroke="black" points="753,-165.5 753,-201.5 "/>
<text text-anchor="middle" x="805" y="-179.8" font-family="Times,serif" font-size="14.00">grad 0.0000</text>
</g>
<!-- 140260402422512&#45;&gt;140260402427792+ -->
<g id="edge26" class="edge">
<title>140260402422512&#45;&gt;140260402427792+</title>
<path fill="none" stroke="black" d="M857.31,-193.19C866.5,-193.68 875.08,-194.14 882.76,-194.55"/>
<polygon fill="black" stroke="black" points="882.79,-198.06 892.96,-195.1 883.16,-191.07 882.79,-198.06"/>
</g>
<!-- 140260402428176 -->
<g id="node15" class="node">
<title>140260402428176</title>
<polygon fill="none" stroke="black" points="1876,-42.5 1876,-78.5 2197,-78.5 2197,-42.5 1876,-42.5"/>
<text text-anchor="middle" x="1902" y="-56.8" font-family="Times,serif" font-size="14.00">v043</text>
<polyline fill="none" stroke="black" points="1928,-42.5 1928,-78.5 "/>
<text text-anchor="middle" x="1938.5" y="-56.8" font-family="Times,serif" font-size="14.00"> </text>
<polyline fill="none" stroke="black" points="1949,-42.5 1949,-78.5 "/>
<text text-anchor="middle" x="1959.5" y="-56.8" font-family="Times,serif" font-size="14.00"> </text>
<polyline fill="none" stroke="black" points="1970,-42.5 1970,-78.5 "/>
<text text-anchor="middle" x="1980.5" y="-56.8" font-family="Times,serif" font-size="14.00"> </text>
<polyline fill="none" stroke="black" points="1991,-42.5 1991,-78.5 "/>
<text text-anchor="middle" x="2042" y="-56.8" font-family="Times,serif" font-size="14.00">data 1.3599</text>
<polyline fill="none" stroke="black" points="2093,-42.5 2093,-78.5 "/>
<text text-anchor="middle" x="2145" y="-56.8" font-family="Times,serif" font-size="14.00">grad 0.0000</text>
</g>
<!-- 140260402428176&#45;&gt;140260402428128+ -->
<g id="edge23" class="edge">
<title>140260402428176&#45;&gt;140260402428128+</title>
<path fill="none" stroke="black" d="M2197.11,-67.95C2328.28,-74.07 2504.3,-82.29 2579.48,-85.8"/>
<polygon fill="black" stroke="black" points="2579.67,-89.31 2589.82,-86.28 2580,-82.32 2579.67,-89.31"/>
</g>
<!-- 140260402428176*&#45;&gt;140260402428176 -->
<g id="edge6" class="edge">
<title>140260402428176*&#45;&gt;140260402428176</title>
<path fill="none" stroke="black" d="M1442.22,-60.5C1513.76,-60.5 1716.85,-60.5 1865.55,-60.5"/>
<polygon fill="black" stroke="black" points="1865.71,-64 1875.71,-60.5 1865.71,-57 1865.71,-64"/>
</g>
<!-- 140260402422704 -->
<g id="node17" class="node">
<title>140260402422704</title>
<polygon fill="none" stroke="black" points="497.5,-55.5 497.5,-91.5 854.5,-91.5 854.5,-55.5 497.5,-55.5"/>
<text text-anchor="middle" x="523.5" y="-69.8" font-family="Times,serif" font-size="14.00">v004</text>
<polyline fill="none" stroke="black" points="549.5,-55.5 549.5,-91.5 "/>
<text text-anchor="middle" x="567" y="-69.8" font-family="Times,serif" font-size="14.00">L1</text>
<polyline fill="none" stroke="black" points="584.5,-55.5 584.5,-91.5 "/>
<text text-anchor="middle" x="603.5" y="-69.8" font-family="Times,serif" font-size="14.00">N2</text>
<polyline fill="none" stroke="black" points="622.5,-55.5 622.5,-91.5 "/>
<text text-anchor="middle" x="635.5" y="-69.8" font-family="Times,serif" font-size="14.00">b</text>
<polyline fill="none" stroke="black" points="648.5,-55.5 648.5,-91.5 "/>
<text text-anchor="middle" x="699.5" y="-69.8" font-family="Times,serif" font-size="14.00">data 0.1126</text>
<polyline fill="none" stroke="black" points="750.5,-55.5 750.5,-91.5 "/>
<text text-anchor="middle" x="802.5" y="-69.8" font-family="Times,serif" font-size="14.00">grad 0.0000</text>
</g>
<!-- 140260402422704&#45;&gt;140260402426400+ -->
<g id="edge12" class="edge">
<title>140260402422704&#45;&gt;140260402426400+</title>
<path fill="none" stroke="black" d="M854.78,-73.5C864.82,-73.5 874.18,-73.5 882.49,-73.5"/>
<polygon fill="black" stroke="black" points="882.76,-77 892.76,-73.5 882.76,-70 882.76,-77"/>
</g>
<!-- 140260402419584 -->
<g id="node18" class="node">
<title>140260402419584</title>
<polygon fill="none" stroke="black" points="0,-220.5 0,-256.5 369,-256.5 369,-220.5 0,-220.5"/>
<text text-anchor="middle" x="26" y="-234.8" font-family="Times,serif" font-size="14.00">v001</text>
<polyline fill="none" stroke="black" points="52,-220.5 52,-256.5 "/>
<text text-anchor="middle" x="69.5" y="-234.8" font-family="Times,serif" font-size="14.00">L1</text>
<polyline fill="none" stroke="black" points="87,-220.5 87,-256.5 "/>
<text text-anchor="middle" x="106" y="-234.8" font-family="Times,serif" font-size="14.00">N1</text>
<polyline fill="none" stroke="black" points="125,-220.5 125,-256.5 "/>
<text text-anchor="middle" x="144" y="-234.8" font-family="Times,serif" font-size="14.00">w1</text>
<polyline fill="none" stroke="black" points="163,-220.5 163,-256.5 "/>
<text text-anchor="middle" x="214" y="-234.8" font-family="Times,serif" font-size="14.00">data 0.4814</text>
<polyline fill="none" stroke="black" points="265,-220.5 265,-256.5 "/>
<text text-anchor="middle" x="317" y="-234.8" font-family="Times,serif" font-size="14.00">grad 0.0000</text>
</g>
<!-- 140260402419584&#45;&gt;140260402428608* -->
<g id="edge16" class="edge">
<title>140260402419584&#45;&gt;140260402428608*</title>
<path fill="none" stroke="black" d="M369.05,-238.5C378.29,-238.5 386.92,-238.5 394.62,-238.5"/>
<polygon fill="black" stroke="black" points="394.87,-242 404.87,-238.5 394.87,-235 394.87,-242"/>
</g>
<!-- 140260402427792 -->
<g id="node19" class="node">
<title>140260402427792</title>
<polygon fill="none" stroke="black" points="989.5,-178.5 989.5,-214.5 1345.5,-214.5 1345.5,-178.5 989.5,-178.5"/>
<text text-anchor="middle" x="1015.5" y="-192.8" font-family="Times,serif" font-size="14.00">v038</text>
<polyline fill="none" stroke="black" points="1041.5,-178.5 1041.5,-214.5 "/>
<text text-anchor="middle" x="1059" y="-192.8" font-family="Times,serif" font-size="14.00">L1</text>
<polyline fill="none" stroke="black" points="1076.5,-178.5 1076.5,-214.5 "/>
<text text-anchor="middle" x="1095.5" y="-192.8" font-family="Times,serif" font-size="14.00">N1</text>
<polyline fill="none" stroke="black" points="1114.5,-178.5 1114.5,-214.5 "/>
<text text-anchor="middle" x="1127" y="-192.8" font-family="Times,serif" font-size="14.00">a</text>
<polyline fill="none" stroke="black" points="1139.5,-178.5 1139.5,-214.5 "/>
<text text-anchor="middle" x="1190.5" y="-192.8" font-family="Times,serif" font-size="14.00">data 1.9211</text>
<polyline fill="none" stroke="black" points="1241.5,-178.5 1241.5,-214.5 "/>
<text text-anchor="middle" x="1293.5" y="-192.8" font-family="Times,serif" font-size="14.00">grad 0.0000</text>
</g>
<!-- 140260402427792&#45;&gt;140260402426496* -->
<g id="edge14" class="edge">
<title>140260402427792&#45;&gt;140260402426496*</title>
<path fill="none" stroke="black" d="M1315.91,-178.49C1339.02,-175.66 1360.91,-172.99 1378.13,-170.88"/>
<polygon fill="black" stroke="black" points="1378.71,-174.34 1388.21,-169.65 1377.86,-167.39 1378.71,-174.34"/>
</g>
<!-- 140260402427792+&#45;&gt;140260402427792 -->
<g id="edge7" class="edge">
<title>140260402427792+&#45;&gt;140260402427792</title>
<path fill="none" stroke="black" d="M947.27,-196.5C956.26,-196.5 967.11,-196.5 979.12,-196.5"/>
<polygon fill="black" stroke="black" points="979.46,-200 989.46,-196.5 979.46,-193 979.46,-200"/>
</g>
<!-- 140260402419632 -->
<g id="node21" class="node">
<title>140260402419632</title>
<polygon fill="none" stroke="black" points="1478,-93.5 1478,-129.5 1840,-129.5 1840,-93.5 1478,-93.5"/>
<text text-anchor="middle" x="1504" y="-107.8" font-family="Times,serif" font-size="14.00">v007</text>
<polyline fill="none" stroke="black" points="1530,-93.5 1530,-129.5 "/>
<text text-anchor="middle" x="1547.5" y="-107.8" font-family="Times,serif" font-size="14.00">L2</text>
<polyline fill="none" stroke="black" points="1565,-93.5 1565,-129.5 "/>
<text text-anchor="middle" x="1584" y="-107.8" font-family="Times,serif" font-size="14.00">N1</text>
<polyline fill="none" stroke="black" points="1603,-93.5 1603,-129.5 "/>
<text text-anchor="middle" x="1616" y="-107.8" font-family="Times,serif" font-size="14.00">b</text>
<polyline fill="none" stroke="black" points="1629,-93.5 1629,-129.5 "/>
<text text-anchor="middle" x="1682.5" y="-107.8" font-family="Times,serif" font-size="14.00">data &#45;0.5116</text>
<polyline fill="none" stroke="black" points="1736,-93.5 1736,-129.5 "/>
<text text-anchor="middle" x="1788" y="-107.8" font-family="Times,serif" font-size="14.00">grad 0.0000</text>
</g>
<!-- 140260402419632&#45;&gt;140260402424576+ -->
<g id="edge18" class="edge">
<title>140260402419632&#45;&gt;140260402424576+</title>
<path fill="none" stroke="black" d="M1840.05,-113.42C1900.18,-114.06 1961.37,-114.71 1998.88,-115.11"/>
<polygon fill="black" stroke="black" points="1999.24,-118.61 2009.27,-115.22 1999.31,-111.61 1999.24,-118.61"/>
</g>
<!-- 140260402426832 -->
<g id="node22" class="node">
<title>140260402426832</title>
<polygon fill="none" stroke="black" points="515.5,-110.5 515.5,-146.5 836.5,-146.5 836.5,-110.5 515.5,-110.5"/>
<text text-anchor="middle" x="541.5" y="-124.8" font-family="Times,serif" font-size="14.00">v039</text>
<polyline fill="none" stroke="black" points="567.5,-110.5 567.5,-146.5 "/>
<text text-anchor="middle" x="578" y="-124.8" font-family="Times,serif" font-size="14.00"> </text>
<polyline fill="none" stroke="black" points="588.5,-110.5 588.5,-146.5 "/>
<text text-anchor="middle" x="599" y="-124.8" font-family="Times,serif" font-size="14.00"> </text>
<polyline fill="none" stroke="black" points="609.5,-110.5 609.5,-146.5 "/>
<text text-anchor="middle" x="620" y="-124.8" font-family="Times,serif" font-size="14.00"> </text>
<polyline fill="none" stroke="black" points="630.5,-110.5 630.5,-146.5 "/>
<text text-anchor="middle" x="681.5" y="-124.8" font-family="Times,serif" font-size="14.00">data 3.8020</text>
<polyline fill="none" stroke="black" points="732.5,-110.5 732.5,-146.5 "/>
<text text-anchor="middle" x="784.5" y="-124.8" font-family="Times,serif" font-size="14.00">grad 0.0000</text>
</g>
<!-- 140260402426832&#45;&gt;140260402426400+ -->
<g id="edge13" class="edge">
<title>140260402426832&#45;&gt;140260402426400+</title>
<path fill="none" stroke="black" d="M821.22,-110.49C833.42,-107.88 845.48,-104.89 857,-101.5 867.82,-98.31 879.19,-93.61 889.2,-88.96"/>
<polygon fill="black" stroke="black" points="890.82,-92.06 898.32,-84.57 887.79,-85.76 890.82,-92.06"/>
</g>
<!-- 140260402426832*&#45;&gt;140260402426832 -->
<g id="edge8" class="edge">
<title>140260402426832*&#45;&gt;140260402426832</title>
<path fill="none" stroke="black" d="M459.36,-128.5C471.7,-128.5 487.53,-128.5 505,-128.5"/>
<polygon fill="black" stroke="black" points="505.46,-132 515.46,-128.5 505.46,-125 505.46,-132"/>
</g>
<!-- 140260402419680 -->
<g id="node24" class="node">
<title>140260402419680</title>
<polygon fill="none" stroke="black" points="983,-123.5 983,-159.5 1352,-159.5 1352,-123.5 983,-123.5"/>
<text text-anchor="middle" x="1009" y="-137.8" font-family="Times,serif" font-size="14.00">v005</text>
<polyline fill="none" stroke="black" points="1035,-123.5 1035,-159.5 "/>
<text text-anchor="middle" x="1052.5" y="-137.8" font-family="Times,serif" font-size="14.00">L2</text>
<polyline fill="none" stroke="black" points="1070,-123.5 1070,-159.5 "/>
<text text-anchor="middle" x="1089" y="-137.8" font-family="Times,serif" font-size="14.00">N1</text>
<polyline fill="none" stroke="black" points="1108,-123.5 1108,-159.5 "/>
<text text-anchor="middle" x="1127" y="-137.8" font-family="Times,serif" font-size="14.00">w1</text>
<polyline fill="none" stroke="black" points="1146,-123.5 1146,-159.5 "/>
<text text-anchor="middle" x="1197" y="-137.8" font-family="Times,serif" font-size="14.00">data 0.3691</text>
<polyline fill="none" stroke="black" points="1248,-123.5 1248,-159.5 "/>
<text text-anchor="middle" x="1300" y="-137.8" font-family="Times,serif" font-size="14.00">grad 0.0000</text>
</g>
<!-- 140260402419680&#45;&gt;140260402426496* -->
<g id="edge20" class="edge">
<title>140260402419680&#45;&gt;140260402426496*</title>
<path fill="none" stroke="black" d="M1345.29,-159.5C1357.2,-160.72 1368.27,-161.84 1377.89,-162.82"/>
<polygon fill="black" stroke="black" points="1377.8,-166.33 1388.1,-163.86 1378.51,-159.37 1377.8,-166.33"/>
</g>
<!-- 140260402429424 -->
<g id="node25" class="node">
<title>140260402429424</title>
<polygon fill="none" stroke="black" points="3162,-69.5 3162,-105.5 3483,-105.5 3483,-69.5 3162,-69.5"/>
<text text-anchor="middle" x="3188" y="-83.8" font-family="Times,serif" font-size="14.00">v045</text>
<polyline fill="none" stroke="black" points="3214,-69.5 3214,-105.5 "/>
<text text-anchor="middle" x="3224.5" y="-83.8" font-family="Times,serif" font-size="14.00"> </text>
<polyline fill="none" stroke="black" points="3235,-69.5 3235,-105.5 "/>
<text text-anchor="middle" x="3245.5" y="-83.8" font-family="Times,serif" font-size="14.00"> </text>
<polyline fill="none" stroke="black" points="3256,-69.5 3256,-105.5 "/>
<text text-anchor="middle" x="3266.5" y="-83.8" font-family="Times,serif" font-size="14.00">l</text>
<polyline fill="none" stroke="black" points="3277,-69.5 3277,-105.5 "/>
<text text-anchor="middle" x="3328" y="-83.8" font-family="Times,serif" font-size="14.00">data 2.4258</text>
<polyline fill="none" stroke="black" points="3379,-69.5 3379,-105.5 "/>
<text text-anchor="middle" x="3431" y="-83.8" font-family="Times,serif" font-size="14.00">grad 0.0000</text>
</g>
<!-- 140260402429424*&#45;&gt;140260402429424 -->
<g id="edge9" class="edge">
<title>140260402429424*&#45;&gt;140260402429424</title>
<path fill="none" stroke="black" d="M3126.28,-87.5C3133.68,-87.5 3142.32,-87.5 3151.76,-87.5"/>
<polygon fill="black" stroke="black" points="3151.88,-91 3161.88,-87.5 3151.88,-84 3151.88,-91"/>
</g>
</g>
</svg>
