<?xml version="1.0" encoding="UTF-8" standalone="no"?>
<!DOCTYPE svg PUBLIC "-//W3C//DTD SVG 1.1//EN"
 "http://www.w3.org/Graphics/SVG/1.1/DTD/svg11.dtd">
<!-- Generated by graphviz version 2.43.0 (0)
 -->
<!-- Title: %3 Pages: 1 -->
<svg width="3528pt" height="210pt"
 viewBox="0.00 0.00 3528.00 210.00" xmlns="http://www.w3.org/2000/svg" xmlns:xlink="http://www.w3.org/1999/xlink">
<g id="graph0" class="graph" transform="scale(1 1) rotate(0) translate(4 206)">
<title>%3</title>
<polygon fill="white" stroke="transparent" points="-4,4 -4,-206 3524,-206 3524,4 -4,4"/>
<!-- 140260402422800 -->
<g id="node1" class="node">
<title>140260402422800</title>
<polygon fill="none" stroke="black" points="3190,-82.5 3190,-118.5 3520,-118.5 3520,-82.5 3190,-82.5"/>
<text text-anchor="middle" x="3216" y="-96.8" font-family="Times,serif" font-size="14.00">v018</text>
<polyline fill="none" stroke="black" points="3242,-82.5 3242,-118.5 "/>
<text text-anchor="middle" x="3252.5" y="-96.8" font-family="Times,serif" font-size="14.00"> </text>
<polyline fill="none" stroke="black" points="3263,-82.5 3263,-118.5 "/>
<text text-anchor="middle" x="3273.5" y="-96.8" font-family="Times,serif" font-size="14.00"> </text>
<polyline fill="none" stroke="black" points="3284,-82.5 3284,-118.5 "/>
<text text-anchor="middle" x="3294.5" y="-96.8" font-family="Times,serif" font-size="14.00">l</text>
<polyline fill="none" stroke="black" points="3305,-82.5 3305,-118.5 "/>
<text text-anchor="middle" x="3360.5" y="-96.8" font-family="Times,serif" font-size="14.00">data 12.9600</text>
<polyline fill="none" stroke="black" points="3416,-82.5 3416,-118.5 "/>
<text text-anchor="middle" x="3468" y="-96.8" font-family="Times,serif" font-size="14.00">grad 1.0000</text>
</g>
<!-- 140260402422800* -->
<g id="node2" class="node">
<title>140260402422800*</title>
<ellipse fill="none" stroke="black" cx="3127" cy="-100.5" rx="27" ry="18"/>
<text text-anchor="middle" x="3127" y="-96.8" font-family="Times,serif" font-size="14.00">*</text>
</g>
<!-- 140260402422800*&#45;&gt;140260402422800 -->
<g id="edge1" class="edge">
<title>140260402422800*&#45;&gt;140260402422800</title>
<path fill="none" stroke="black" d="M3154.37,-100.5C3161.71,-100.5 3170.28,-100.5 3179.65,-100.5"/>
<polygon fill="black" stroke="black" points="3179.7,-104 3189.7,-100.5 3179.7,-97 3179.7,-104"/>
</g>
<!-- 140260402421264 -->
<g id="node3" class="node">
<title>140260402421264</title>
<polygon fill="none" stroke="black" points="529.5,-55.5 529.5,-91.5 850.5,-91.5 850.5,-55.5 529.5,-55.5"/>
<text text-anchor="middle" x="555.5" y="-69.8" font-family="Times,serif" font-size="14.00">v010</text>
<polyline fill="none" stroke="black" points="581.5,-55.5 581.5,-91.5 "/>
<text text-anchor="middle" x="592" y="-69.8" font-family="Times,serif" font-size="14.00"> </text>
<polyline fill="none" stroke="black" points="602.5,-55.5 602.5,-91.5 "/>
<text text-anchor="middle" x="613" y="-69.8" font-family="Times,serif" font-size="14.00"> </text>
<polyline fill="none" stroke="black" points="623.5,-55.5 623.5,-91.5 "/>
<text text-anchor="middle" x="634" y="-69.8" font-family="Times,serif" font-size="14.00"> </text>
<polyline fill="none" stroke="black" points="644.5,-55.5 644.5,-91.5 "/>
<text text-anchor="middle" x="695.5" y="-69.8" font-family="Times,serif" font-size="14.00">data 2.0000</text>
<polyline fill="none" stroke="black" points="746.5,-55.5 746.5,-91.5 "/>
<text text-anchor="middle" x="798.5" y="-69.8" font-family="Times,serif" font-size="14.00">grad 4.3200</text>
</g>
<!-- 140260402421168+ -->
<g id="node19" class="node">
<title>140260402421168+</title>
<ellipse fill="none" stroke="black" cx="934" cy="-73.5" rx="27" ry="18"/>
<text text-anchor="middle" x="934" y="-69.8" font-family="Times,serif" font-size="14.00">+</text>
</g>
<!-- 140260402421264&#45;&gt;140260402421168+ -->
<g id="edge20" class="edge">
<title>140260402421264&#45;&gt;140260402421168+</title>
<path fill="none" stroke="black" d="M850.73,-73.5C867.54,-73.5 883.24,-73.5 896.32,-73.5"/>
<polygon fill="black" stroke="black" points="896.66,-77 906.66,-73.5 896.66,-70 896.66,-77"/>
</g>
<!-- 140260402421264* -->
<g id="node4" class="node">
<title>140260402421264*</title>
<ellipse fill="none" stroke="black" cx="446" cy="-73.5" rx="27" ry="18"/>
<text text-anchor="middle" x="446" y="-69.8" font-family="Times,serif" font-size="14.00">*</text>
</g>
<!-- 140260402421264*&#45;&gt;140260402421264 -->
<g id="edge2" class="edge">
<title>140260402421264*&#45;&gt;140260402421264</title>
<path fill="none" stroke="black" d="M473.36,-73.5C485.7,-73.5 501.53,-73.5 519,-73.5"/>
<polygon fill="black" stroke="black" points="519.46,-77 529.46,-73.5 519.46,-70 519.46,-77"/>
</g>
<!-- 140260402419584 -->
<g id="node5" class="node">
<title>140260402419584</title>
<polygon fill="none" stroke="black" points="0,-55.5 0,-91.5 383,-91.5 383,-55.5 0,-55.5"/>
<text text-anchor="middle" x="26" y="-69.8" font-family="Times,serif" font-size="14.00">v001</text>
<polyline fill="none" stroke="black" points="52,-55.5 52,-91.5 "/>
<text text-anchor="middle" x="69.5" y="-69.8" font-family="Times,serif" font-size="14.00">L1</text>
<polyline fill="none" stroke="black" points="87,-55.5 87,-91.5 "/>
<text text-anchor="middle" x="106" y="-69.8" font-family="Times,serif" font-size="14.00">N1</text>
<polyline fill="none" stroke="black" points="125,-55.5 125,-91.5 "/>
<text text-anchor="middle" x="144" y="-69.8" font-family="Times,serif" font-size="14.00">w1</text>
<polyline fill="none" stroke="black" points="163,-55.5 163,-91.5 "/>
<text text-anchor="middle" x="216.5" y="-69.8" font-family="Times,serif" font-size="14.00">data &#45;0.3640</text>
<polyline fill="none" stroke="black" points="270,-55.5 270,-91.5 "/>
<text text-anchor="middle" x="326.5" y="-69.8" font-family="Times,serif" font-size="14.00">grad 17.2800</text>
</g>
<!-- 140260402419584&#45;&gt;140260402421264* -->
<g id="edge13" class="edge">
<title>140260402419584&#45;&gt;140260402421264*</title>
<path fill="none" stroke="black" d="M383.23,-73.5C392.39,-73.5 400.92,-73.5 408.55,-73.5"/>
<polygon fill="black" stroke="black" points="408.7,-77 418.7,-73.5 408.7,-70 408.7,-77"/>
</g>
<!-- 140260402423424 -->
<g id="node6" class="node">
<title>140260402423424</title>
<polygon fill="none" stroke="black" points="1526.5,-55.5 1526.5,-91.5 1847.5,-91.5 1847.5,-55.5 1526.5,-55.5"/>
<text text-anchor="middle" x="1552.5" y="-69.8" font-family="Times,serif" font-size="14.00">v014</text>
<polyline fill="none" stroke="black" points="1578.5,-55.5 1578.5,-91.5 "/>
<text text-anchor="middle" x="1589" y="-69.8" font-family="Times,serif" font-size="14.00"> </text>
<polyline fill="none" stroke="black" points="1599.5,-55.5 1599.5,-91.5 "/>
<text text-anchor="middle" x="1610" y="-69.8" font-family="Times,serif" font-size="14.00"> </text>
<polyline fill="none" stroke="black" points="1620.5,-55.5 1620.5,-91.5 "/>
<text text-anchor="middle" x="1631" y="-69.8" font-family="Times,serif" font-size="14.00"> </text>
<polyline fill="none" stroke="black" points="1641.5,-55.5 1641.5,-91.5 "/>
<text text-anchor="middle" x="1692.5" y="-69.8" font-family="Times,serif" font-size="14.00">data 1.2000</text>
<polyline fill="none" stroke="black" points="1743.5,-55.5 1743.5,-91.5 "/>
<text text-anchor="middle" x="1795.5" y="-69.8" font-family="Times,serif" font-size="14.00">grad 7.2000</text>
</g>
<!-- 140260402424672+ -->
<g id="node17" class="node">
<title>140260402424672+</title>
<ellipse fill="none" stroke="black" cx="2064.5" cy="-73.5" rx="27" ry="18"/>
<text text-anchor="middle" x="2064.5" y="-69.8" font-family="Times,serif" font-size="14.00">+</text>
</g>
<!-- 140260402423424&#45;&gt;140260402424672+ -->
<g id="edge23" class="edge">
<title>140260402423424&#45;&gt;140260402424672+</title>
<path fill="none" stroke="black" d="M1847.52,-73.5C1914.04,-73.5 1985.39,-73.5 2027.16,-73.5"/>
<polygon fill="black" stroke="black" points="2027.37,-77 2037.37,-73.5 2027.37,-70 2027.37,-77"/>
</g>
<!-- 140260402423424* -->
<g id="node7" class="node">
<title>140260402423424*</title>
<ellipse fill="none" stroke="black" cx="1443" cy="-73.5" rx="27" ry="18"/>
<text text-anchor="middle" x="1443" y="-69.8" font-family="Times,serif" font-size="14.00">*</text>
</g>
<!-- 140260402423424*&#45;&gt;140260402423424 -->
<g id="edge3" class="edge">
<title>140260402423424*&#45;&gt;140260402423424</title>
<path fill="none" stroke="black" d="M1470.36,-73.5C1482.7,-73.5 1498.53,-73.5 1516,-73.5"/>
<polygon fill="black" stroke="black" points="1516.46,-77 1526.46,-73.5 1516.46,-70 1516.46,-77"/>
</g>
<!-- 140260402419344 -->
<g id="node8" class="node">
<title>140260402419344</title>
<polygon fill="none" stroke="black" points="999.5,-165.5 999.5,-201.5 1377.5,-201.5 1377.5,-165.5 999.5,-165.5"/>
<text text-anchor="middle" x="1025.5" y="-179.8" font-family="Times,serif" font-size="14.00">v006</text>
<polyline fill="none" stroke="black" points="1051.5,-165.5 1051.5,-201.5 "/>
<text text-anchor="middle" x="1069" y="-179.8" font-family="Times,serif" font-size="14.00">L2</text>
<polyline fill="none" stroke="black" points="1086.5,-165.5 1086.5,-201.5 "/>
<text text-anchor="middle" x="1105.5" y="-179.8" font-family="Times,serif" font-size="14.00">N1</text>
<polyline fill="none" stroke="black" points="1124.5,-165.5 1124.5,-201.5 "/>
<text text-anchor="middle" x="1143.5" y="-179.8" font-family="Times,serif" font-size="14.00">w2</text>
<polyline fill="none" stroke="black" points="1162.5,-165.5 1162.5,-201.5 "/>
<text text-anchor="middle" x="1213.5" y="-179.8" font-family="Times,serif" font-size="14.00">data 0.4800</text>
<polyline fill="none" stroke="black" points="1264.5,-165.5 1264.5,-201.5 "/>
<text text-anchor="middle" x="1321" y="-179.8" font-family="Times,serif" font-size="14.00">grad 14.4000</text>
</g>
<!-- 140260402429664* -->
<g id="node11" class="node">
<title>140260402429664*</title>
<ellipse fill="none" stroke="black" cx="1443" cy="-128.5" rx="27" ry="18"/>
<text text-anchor="middle" x="1443" y="-124.8" font-family="Times,serif" font-size="14.00">*</text>
</g>
<!-- 140260402419344&#45;&gt;140260402429664* -->
<g id="edge25" class="edge">
<title>140260402419344&#45;&gt;140260402429664*</title>
<path fill="none" stroke="black" d="M1343.66,-165.49C1356.05,-162.88 1368.29,-159.9 1380,-156.5 1390.83,-153.36 1402.21,-148.66 1412.22,-144.01"/>
<polygon fill="black" stroke="black" points="1413.84,-147.11 1421.33,-139.62 1410.8,-140.81 1413.84,-147.11"/>
</g>
<!-- 140260402422656 -->
<g id="node9" class="node">
<title>140260402422656</title>
<polygon fill="none" stroke="black" points="0,-165.5 0,-201.5 383,-201.5 383,-165.5 0,-165.5"/>
<text text-anchor="middle" x="26" y="-179.8" font-family="Times,serif" font-size="14.00">v003</text>
<polyline fill="none" stroke="black" points="52,-165.5 52,-201.5 "/>
<text text-anchor="middle" x="69.5" y="-179.8" font-family="Times,serif" font-size="14.00">L1</text>
<polyline fill="none" stroke="black" points="87,-165.5 87,-201.5 "/>
<text text-anchor="middle" x="106" y="-179.8" font-family="Times,serif" font-size="14.00">N2</text>
<polyline fill="none" stroke="black" points="125,-165.5 125,-201.5 "/>
<text text-anchor="middle" x="144" y="-179.8" font-family="Times,serif" font-size="14.00">w1</text>
<polyline fill="none" stroke="black" points="163,-165.5 163,-201.5 "/>
<text text-anchor="middle" x="216.5" y="-179.8" font-family="Times,serif" font-size="14.00">data &#45;1.2280</text>
<polyline fill="none" stroke="black" points="270,-165.5 270,-201.5 "/>
<text text-anchor="middle" x="326.5" y="-179.8" font-family="Times,serif" font-size="14.00">grad 34.5600</text>
</g>
<!-- 140260402428800* -->
<g id="node21" class="node">
<title>140260402428800*</title>
<ellipse fill="none" stroke="black" cx="446" cy="-183.5" rx="27" ry="18"/>
<text text-anchor="middle" x="446" y="-179.8" font-family="Times,serif" font-size="14.00">*</text>
</g>
<!-- 140260402422656&#45;&gt;140260402428800* -->
<g id="edge18" class="edge">
<title>140260402422656&#45;&gt;140260402428800*</title>
<path fill="none" stroke="black" d="M383.23,-183.5C392.39,-183.5 400.92,-183.5 408.55,-183.5"/>
<polygon fill="black" stroke="black" points="408.7,-187 418.7,-183.5 408.7,-180 408.7,-187"/>
</g>
<!-- 140260402429664 -->
<g id="node10" class="node">
<title>140260402429664</title>
<polygon fill="none" stroke="black" points="1904,-110.5 1904,-146.5 2225,-146.5 2225,-110.5 1904,-110.5"/>
<text text-anchor="middle" x="1930" y="-124.8" font-family="Times,serif" font-size="14.00">v016</text>
<polyline fill="none" stroke="black" points="1956,-110.5 1956,-146.5 "/>
<text text-anchor="middle" x="1966.5" y="-124.8" font-family="Times,serif" font-size="14.00"> </text>
<polyline fill="none" stroke="black" points="1977,-110.5 1977,-146.5 "/>
<text text-anchor="middle" x="1987.5" y="-124.8" font-family="Times,serif" font-size="14.00"> </text>
<polyline fill="none" stroke="black" points="1998,-110.5 1998,-146.5 "/>
<text text-anchor="middle" x="2008.5" y="-124.8" font-family="Times,serif" font-size="14.00"> </text>
<polyline fill="none" stroke="black" points="2019,-110.5 2019,-146.5 "/>
<text text-anchor="middle" x="2070" y="-124.8" font-family="Times,serif" font-size="14.00">data 2.4000</text>
<polyline fill="none" stroke="black" points="2121,-110.5 2121,-146.5 "/>
<text text-anchor="middle" x="2173" y="-124.8" font-family="Times,serif" font-size="14.00">grad 7.2000</text>
</g>
<!-- 140260402425296+ -->
<g id="node24" class="node">
<title>140260402425296+</title>
<ellipse fill="none" stroke="black" cx="2645" cy="-100.5" rx="27" ry="18"/>
<text text-anchor="middle" x="2645" y="-96.8" font-family="Times,serif" font-size="14.00">+</text>
</g>
<!-- 140260402429664&#45;&gt;140260402425296+ -->
<g id="edge21" class="edge">
<title>140260402429664&#45;&gt;140260402425296+</title>
<path fill="none" stroke="black" d="M2225.21,-121.82C2327.28,-117.37 2462.46,-111.13 2582,-104.5 2590.42,-104.03 2599.48,-103.48 2608.01,-102.93"/>
<polygon fill="black" stroke="black" points="2608.31,-106.42 2618.06,-102.28 2607.86,-99.43 2608.31,-106.42"/>
</g>
<!-- 140260402429664*&#45;&gt;140260402429664 -->
<g id="edge4" class="edge">
<title>140260402429664*&#45;&gt;140260402429664</title>
<path fill="none" stroke="black" d="M1470.22,-128.5C1541.76,-128.5 1744.85,-128.5 1893.55,-128.5"/>
<polygon fill="black" stroke="black" points="1893.71,-132 1903.71,-128.5 1893.71,-125 1893.71,-132"/>
</g>
<!-- 140260402422512 -->
<g id="node12" class="node">
<title>140260402422512</title>
<polygon fill="none" stroke="black" points="509,-0.5 509,-36.5 871,-36.5 871,-0.5 509,-0.5"/>
<text text-anchor="middle" x="535" y="-14.8" font-family="Times,serif" font-size="14.00">v002</text>
<polyline fill="none" stroke="black" points="561,-0.5 561,-36.5 "/>
<text text-anchor="middle" x="578.5" y="-14.8" font-family="Times,serif" font-size="14.00">L1</text>
<polyline fill="none" stroke="black" points="596,-0.5 596,-36.5 "/>
<text text-anchor="middle" x="615" y="-14.8" font-family="Times,serif" font-size="14.00">N1</text>
<polyline fill="none" stroke="black" points="634,-0.5 634,-36.5 "/>
<text text-anchor="middle" x="647" y="-14.8" font-family="Times,serif" font-size="14.00">b</text>
<polyline fill="none" stroke="black" points="660,-0.5 660,-36.5 "/>
<text text-anchor="middle" x="713.5" y="-14.8" font-family="Times,serif" font-size="14.00">data &#45;0.2160</text>
<polyline fill="none" stroke="black" points="767,-0.5 767,-36.5 "/>
<text text-anchor="middle" x="819" y="-14.8" font-family="Times,serif" font-size="14.00">grad 4.3200</text>
</g>
<!-- 140260402422512&#45;&gt;140260402421168+ -->
<g id="edge24" class="edge">
<title>140260402422512&#45;&gt;140260402421168+</title>
<path fill="none" stroke="black" d="M835.22,-36.51C847.42,-39.12 859.48,-42.11 871,-45.5 881.82,-48.69 893.19,-53.39 903.2,-58.04"/>
<polygon fill="black" stroke="black" points="901.79,-61.24 912.32,-62.43 904.82,-54.94 901.79,-61.24"/>
</g>
<!-- 140260402419968 -->
<g id="node13" class="node">
<title>140260402419968</title>
<polygon fill="none" stroke="black" points="1010.5,-110.5 1010.5,-146.5 1366.5,-146.5 1366.5,-110.5 1010.5,-110.5"/>
<text text-anchor="middle" x="1036.5" y="-124.8" font-family="Times,serif" font-size="14.00">v013</text>
<polyline fill="none" stroke="black" points="1062.5,-110.5 1062.5,-146.5 "/>
<text text-anchor="middle" x="1080" y="-124.8" font-family="Times,serif" font-size="14.00">L1</text>
<polyline fill="none" stroke="black" points="1097.5,-110.5 1097.5,-146.5 "/>
<text text-anchor="middle" x="1116.5" y="-124.8" font-family="Times,serif" font-size="14.00">N2</text>
<polyline fill="none" stroke="black" points="1135.5,-110.5 1135.5,-146.5 "/>
<text text-anchor="middle" x="1148" y="-124.8" font-family="Times,serif" font-size="14.00">a</text>
<polyline fill="none" stroke="black" points="1160.5,-110.5 1160.5,-146.5 "/>
<text text-anchor="middle" x="1211.5" y="-124.8" font-family="Times,serif" font-size="14.00">data 2.0000</text>
<polyline fill="none" stroke="black" points="1262.5,-110.5 1262.5,-146.5 "/>
<text text-anchor="middle" x="1314.5" y="-124.8" font-family="Times,serif" font-size="14.00">grad 8.6400</text>
</g>
<!-- 140260402419968&#45;&gt;140260402429664* -->
<g id="edge10" class="edge">
<title>140260402419968&#45;&gt;140260402429664*</title>
<path fill="none" stroke="black" d="M1366.58,-128.5C1380.97,-128.5 1394.31,-128.5 1405.63,-128.5"/>
<polygon fill="black" stroke="black" points="1405.85,-132 1415.85,-128.5 1405.85,-125 1405.85,-132"/>
</g>
<!-- 140260402419968+ -->
<g id="node14" class="node">
<title>140260402419968+</title>
<ellipse fill="none" stroke="black" cx="934" cy="-128.5" rx="27" ry="18"/>
<text text-anchor="middle" x="934" y="-124.8" font-family="Times,serif" font-size="14.00">+</text>
</g>
<!-- 140260402419968+&#45;&gt;140260402419968 -->
<g id="edge5" class="edge">
<title>140260402419968+&#45;&gt;140260402419968</title>
<path fill="none" stroke="black" d="M961.07,-128.5C971.82,-128.5 985.27,-128.5 1000.23,-128.5"/>
<polygon fill="black" stroke="black" points="1000.27,-132 1010.27,-128.5 1000.27,-125 1000.27,-132"/>
</g>
<!-- 140260402419632 -->
<g id="node15" class="node">
<title>140260402419632</title>
<polygon fill="none" stroke="black" points="1506,-0.5 1506,-36.5 1868,-36.5 1868,-0.5 1506,-0.5"/>
<text text-anchor="middle" x="1532" y="-14.8" font-family="Times,serif" font-size="14.00">v007</text>
<polyline fill="none" stroke="black" points="1558,-0.5 1558,-36.5 "/>
<text text-anchor="middle" x="1575.5" y="-14.8" font-family="Times,serif" font-size="14.00">L2</text>
<polyline fill="none" stroke="black" points="1593,-0.5 1593,-36.5 "/>
<text text-anchor="middle" x="1612" y="-14.8" font-family="Times,serif" font-size="14.00">N1</text>
<polyline fill="none" stroke="black" points="1631,-0.5 1631,-36.5 "/>
<text text-anchor="middle" x="1644" y="-14.8" font-family="Times,serif" font-size="14.00">b</text>
<polyline fill="none" stroke="black" points="1657,-0.5 1657,-36.5 "/>
<text text-anchor="middle" x="1710.5" y="-14.8" font-family="Times,serif" font-size="14.00">data &#45;0.3600</text>
<polyline fill="none" stroke="black" points="1764,-0.5 1764,-36.5 "/>
<text text-anchor="middle" x="1816" y="-14.8" font-family="Times,serif" font-size="14.00">grad 7.2000</text>
</g>
<!-- 140260402419632&#45;&gt;140260402424672+ -->
<g id="edge19" class="edge">
<title>140260402419632&#45;&gt;140260402424672+</title>
<path fill="none" stroke="black" d="M1810.95,-36.51C1886.67,-47.6 1978.42,-61.04 2027.83,-68.28"/>
<polygon fill="black" stroke="black" points="2027.6,-71.78 2038,-69.77 2028.62,-64.85 2027.6,-71.78"/>
</g>
<!-- 140260402424672 -->
<g id="node16" class="node">
<title>140260402424672</title>
<polygon fill="none" stroke="black" points="2261,-59.5 2261,-95.5 2582,-95.5 2582,-59.5 2261,-59.5"/>
<text text-anchor="middle" x="2287" y="-73.8" font-family="Times,serif" font-size="14.00">v015</text>
<polyline fill="none" stroke="black" points="2313,-59.5 2313,-95.5 "/>
<text text-anchor="middle" x="2323.5" y="-73.8" font-family="Times,serif" font-size="14.00"> </text>
<polyline fill="none" stroke="black" points="2334,-59.5 2334,-95.5 "/>
<text text-anchor="middle" x="2344.5" y="-73.8" font-family="Times,serif" font-size="14.00"> </text>
<polyline fill="none" stroke="black" points="2355,-59.5 2355,-95.5 "/>
<text text-anchor="middle" x="2365.5" y="-73.8" font-family="Times,serif" font-size="14.00"> </text>
<polyline fill="none" stroke="black" points="2376,-59.5 2376,-95.5 "/>
<text text-anchor="middle" x="2427" y="-73.8" font-family="Times,serif" font-size="14.00">data 1.2000</text>
<polyline fill="none" stroke="black" points="2478,-59.5 2478,-95.5 "/>
<text text-anchor="middle" x="2530" y="-73.8" font-family="Times,serif" font-size="14.00">grad 7.2000</text>
</g>
<!-- 140260402424672&#45;&gt;140260402425296+ -->
<g id="edge14" class="edge">
<title>140260402424672&#45;&gt;140260402425296+</title>
<path fill="none" stroke="black" d="M2582.01,-94.06C2591.42,-95.04 2600.26,-95.96 2608.13,-96.78"/>
<polygon fill="black" stroke="black" points="2607.95,-100.28 2618.26,-97.83 2608.67,-93.31 2607.95,-100.28"/>
</g>
<!-- 140260402424672+&#45;&gt;140260402424672 -->
<g id="edge6" class="edge">
<title>140260402424672+&#45;&gt;140260402424672</title>
<path fill="none" stroke="black" d="M2091.6,-73.79C2125.81,-74.18 2188.72,-74.89 2250.43,-75.58"/>
<polygon fill="black" stroke="black" points="2250.68,-79.09 2260.72,-75.7 2250.76,-72.09 2250.68,-79.09"/>
</g>
<!-- 140260402421168 -->
<g id="node18" class="node">
<title>140260402421168</title>
<polygon fill="none" stroke="black" points="1010.5,-55.5 1010.5,-91.5 1366.5,-91.5 1366.5,-55.5 1010.5,-55.5"/>
<text text-anchor="middle" x="1036.5" y="-69.8" font-family="Times,serif" font-size="14.00">v011</text>
<polyline fill="none" stroke="black" points="1062.5,-55.5 1062.5,-91.5 "/>
<text text-anchor="middle" x="1080" y="-69.8" font-family="Times,serif" font-size="14.00">L1</text>
<polyline fill="none" stroke="black" points="1097.5,-55.5 1097.5,-91.5 "/>
<text text-anchor="middle" x="1116.5" y="-69.8" font-family="Times,serif" font-size="14.00">N1</text>
<polyline fill="none" stroke="black" points="1135.5,-55.5 1135.5,-91.5 "/>
<text text-anchor="middle" x="1148" y="-69.8" font-family="Times,serif" font-size="14.00">a</text>
<polyline fill="none" stroke="black" points="1160.5,-55.5 1160.5,-91.5 "/>
<text text-anchor="middle" x="1211.5" y="-69.8" font-family="Times,serif" font-size="14.00">data 2.0000</text>
<polyline fill="none" stroke="black" points="1262.5,-55.5 1262.5,-91.5 "/>
<text text-anchor="middle" x="1314.5" y="-69.8" font-family="Times,serif" font-size="14.00">grad 4.3200</text>
</g>
<!-- 140260402421168&#45;&gt;140260402423424* -->
<g id="edge12" class="edge">
<title>140260402421168&#45;&gt;140260402423424*</title>
<path fill="none" stroke="black" d="M1366.58,-73.5C1380.97,-73.5 1394.31,-73.5 1405.63,-73.5"/>
<polygon fill="black" stroke="black" points="1405.85,-77 1415.85,-73.5 1405.85,-70 1405.85,-77"/>
</g>
<!-- 140260402421168+&#45;&gt;140260402421168 -->
<g id="edge7" class="edge">
<title>140260402421168+&#45;&gt;140260402421168</title>
<path fill="none" stroke="black" d="M961.07,-73.5C971.82,-73.5 985.27,-73.5 1000.23,-73.5"/>
<polygon fill="black" stroke="black" points="1000.27,-77 1010.27,-73.5 1000.27,-70 1000.27,-77"/>
</g>
<!-- 140260402428800 -->
<g id="node20" class="node">
<title>140260402428800</title>
<polygon fill="none" stroke="black" points="529.5,-165.5 529.5,-201.5 850.5,-201.5 850.5,-165.5 529.5,-165.5"/>
<text text-anchor="middle" x="555.5" y="-179.8" font-family="Times,serif" font-size="14.00">v012</text>
<polyline fill="none" stroke="black" points="581.5,-165.5 581.5,-201.5 "/>
<text text-anchor="middle" x="592" y="-179.8" font-family="Times,serif" font-size="14.00"> </text>
<polyline fill="none" stroke="black" points="602.5,-165.5 602.5,-201.5 "/>
<text text-anchor="middle" x="613" y="-179.8" font-family="Times,serif" font-size="14.00"> </text>
<polyline fill="none" stroke="black" points="623.5,-165.5 623.5,-201.5 "/>
<text text-anchor="middle" x="634" y="-179.8" font-family="Times,serif" font-size="14.00"> </text>
<polyline fill="none" stroke="black" points="644.5,-165.5 644.5,-201.5 "/>
<text text-anchor="middle" x="695.5" y="-179.8" font-family="Times,serif" font-size="14.00">data 2.0000</text>
<polyline fill="none" stroke="black" points="746.5,-165.5 746.5,-201.5 "/>
<text text-anchor="middle" x="798.5" y="-179.8" font-family="Times,serif" font-size="14.00">grad 8.6400</text>
</g>
<!-- 140260402428800&#45;&gt;140260402419968+ -->
<g id="edge26" class="edge">
<title>140260402428800&#45;&gt;140260402419968+</title>
<path fill="none" stroke="black" d="M835.22,-165.49C847.42,-162.88 859.48,-159.89 871,-156.5 881.82,-153.31 893.19,-148.61 903.2,-143.96"/>
<polygon fill="black" stroke="black" points="904.82,-147.06 912.32,-139.57 901.79,-140.76 904.82,-147.06"/>
</g>
<!-- 140260402428800*&#45;&gt;140260402428800 -->
<g id="edge8" class="edge">
<title>140260402428800*&#45;&gt;140260402428800</title>
<path fill="none" stroke="black" d="M473.36,-183.5C485.7,-183.5 501.53,-183.5 519,-183.5"/>
<polygon fill="black" stroke="black" points="519.46,-187 529.46,-183.5 519.46,-180 519.46,-187"/>
</g>
<!-- 140260402422704 -->
<g id="node22" class="node">
<title>140260402422704</title>
<polygon fill="none" stroke="black" points="509,-110.5 509,-146.5 871,-146.5 871,-110.5 509,-110.5"/>
<text text-anchor="middle" x="535" y="-124.8" font-family="Times,serif" font-size="14.00">v004</text>
<polyline fill="none" stroke="black" points="561,-110.5 561,-146.5 "/>
<text text-anchor="middle" x="578.5" y="-124.8" font-family="Times,serif" font-size="14.00">L1</text>
<polyline fill="none" stroke="black" points="596,-110.5 596,-146.5 "/>
<text text-anchor="middle" x="615" y="-124.8" font-family="Times,serif" font-size="14.00">N2</text>
<polyline fill="none" stroke="black" points="634,-110.5 634,-146.5 "/>
<text text-anchor="middle" x="647" y="-124.8" font-family="Times,serif" font-size="14.00">b</text>
<polyline fill="none" stroke="black" points="660,-110.5 660,-146.5 "/>
<text text-anchor="middle" x="713.5" y="-124.8" font-family="Times,serif" font-size="14.00">data &#45;0.4320</text>
<polyline fill="none" stroke="black" points="767,-110.5 767,-146.5 "/>
<text text-anchor="middle" x="819" y="-124.8" font-family="Times,serif" font-size="14.00">grad 8.6400</text>
</g>
<!-- 140260402422704&#45;&gt;140260402419968+ -->
<g id="edge11" class="edge">
<title>140260402422704&#45;&gt;140260402419968+</title>
<path fill="none" stroke="black" d="M871.31,-128.5C880.5,-128.5 889.08,-128.5 896.76,-128.5"/>
<polygon fill="black" stroke="black" points="896.96,-132 906.96,-128.5 896.96,-125 896.96,-132"/>
</g>
<!-- 140260402425296 -->
<g id="node23" class="node">
<title>140260402425296</title>
<polygon fill="none" stroke="black" points="2708,-82.5 2708,-118.5 3064,-118.5 3064,-82.5 2708,-82.5"/>
<text text-anchor="middle" x="2734" y="-96.8" font-family="Times,serif" font-size="14.00">v017</text>
<polyline fill="none" stroke="black" points="2760,-82.5 2760,-118.5 "/>
<text text-anchor="middle" x="2777.5" y="-96.8" font-family="Times,serif" font-size="14.00">L2</text>
<polyline fill="none" stroke="black" points="2795,-82.5 2795,-118.5 "/>
<text text-anchor="middle" x="2814" y="-96.8" font-family="Times,serif" font-size="14.00">N1</text>
<polyline fill="none" stroke="black" points="2833,-82.5 2833,-118.5 "/>
<text text-anchor="middle" x="2845.5" y="-96.8" font-family="Times,serif" font-size="14.00">a</text>
<polyline fill="none" stroke="black" points="2858,-82.5 2858,-118.5 "/>
<text text-anchor="middle" x="2909" y="-96.8" font-family="Times,serif" font-size="14.00">data 3.6000</text>
<polyline fill="none" stroke="black" points="2960,-82.5 2960,-118.5 "/>
<text text-anchor="middle" x="3012" y="-96.8" font-family="Times,serif" font-size="14.00">grad 7.2000</text>
</g>
<!-- 140260402425296&#45;&gt;140260402422800* -->
<g id="edge17" class="edge">
<title>140260402425296&#45;&gt;140260402422800*</title>
<path fill="none" stroke="black" d="M3064.14,-100.5C3073.34,-100.5 3081.94,-100.5 3089.63,-100.5"/>
<polygon fill="black" stroke="black" points="3089.86,-104 3099.86,-100.5 3089.86,-97 3089.86,-104"/>
</g>
<!-- 140260402425296+&#45;&gt;140260402425296 -->
<g id="edge9" class="edge">
<title>140260402425296+&#45;&gt;140260402425296</title>
<path fill="none" stroke="black" d="M2672.03,-100.5C2679.4,-100.5 2688.02,-100.5 2697.49,-100.5"/>
<polygon fill="black" stroke="black" points="2697.66,-104 2707.66,-100.5 2697.66,-97 2697.66,-104"/>
</g>
<!-- 140260402419680 -->
<g id="node25" class="node">
<title>140260402419680</title>
<polygon fill="none" stroke="black" points="997,-0.5 997,-36.5 1380,-36.5 1380,-0.5 997,-0.5"/>
<text text-anchor="middle" x="1023" y="-14.8" font-family="Times,serif" font-size="14.00">v005</text>
<polyline fill="none" stroke="black" points="1049,-0.5 1049,-36.5 "/>
<text text-anchor="middle" x="1066.5" y="-14.8" font-family="Times,serif" font-size="14.00">L2</text>
<polyline fill="none" stroke="black" points="1084,-0.5 1084,-36.5 "/>
<text text-anchor="middle" x="1103" y="-14.8" font-family="Times,serif" font-size="14.00">N1</text>
<polyline fill="none" stroke="black" points="1122,-0.5 1122,-36.5 "/>
<text text-anchor="middle" x="1141" y="-14.8" font-family="Times,serif" font-size="14.00">w1</text>
<polyline fill="none" stroke="black" points="1160,-0.5 1160,-36.5 "/>
<text text-anchor="middle" x="1213.5" y="-14.8" font-family="Times,serif" font-size="14.00">data &#45;0.1200</text>
<polyline fill="none" stroke="black" points="1267,-0.5 1267,-36.5 "/>
<text text-anchor="middle" x="1323.5" y="-14.8" font-family="Times,serif" font-size="14.00">grad 14.4000</text>
</g>
<!-- 140260402419680&#45;&gt;140260402423424* -->
<g id="edge15" class="edge">
<title>140260402419680&#45;&gt;140260402423424*</title>
<path fill="none" stroke="black" d="M1343.66,-36.51C1356.05,-39.12 1368.29,-42.1 1380,-45.5 1390.83,-48.64 1402.21,-53.34 1412.22,-57.99"/>
<polygon fill="black" stroke="black" points="1410.8,-61.19 1421.33,-62.38 1413.84,-54.89 1410.8,-61.19"/>
</g>
<!-- 140260953974256 -->
<g id="node26" class="node">
<title>140260953974256</title>
<polygon fill="none" stroke="black" points="26.5,-110.5 26.5,-146.5 356.5,-146.5 356.5,-110.5 26.5,-110.5"/>
<text text-anchor="middle" x="52.5" y="-124.8" font-family="Times,serif" font-size="14.00">v008</text>
<polyline fill="none" stroke="black" points="78.5,-110.5 78.5,-146.5 "/>
<text text-anchor="middle" x="89" y="-124.8" font-family="Times,serif" font-size="14.00"> </text>
<polyline fill="none" stroke="black" points="99.5,-110.5 99.5,-146.5 "/>
<text text-anchor="middle" x="110" y="-124.8" font-family="Times,serif" font-size="14.00"> </text>
<polyline fill="none" stroke="black" points="120.5,-110.5 120.5,-146.5 "/>
<text text-anchor="middle" x="135.5" y="-124.8" font-family="Times,serif" font-size="14.00">i1</text>
<polyline fill="none" stroke="black" points="150.5,-110.5 150.5,-146.5 "/>
<text text-anchor="middle" x="201.5" y="-124.8" font-family="Times,serif" font-size="14.00">data 4.0000</text>
<polyline fill="none" stroke="black" points="252.5,-110.5 252.5,-146.5 "/>
<text text-anchor="middle" x="304.5" y="-124.8" font-family="Times,serif" font-size="14.00">grad 6.4800</text>
</g>
<!-- 140260953974256&#45;&gt;140260402421264* -->
<g id="edge22" class="edge">
<title>140260953974256&#45;&gt;140260402421264*</title>
<path fill="none" stroke="black" d="M341.51,-110.5C355.64,-107.62 369.66,-104.31 383,-100.5 393.69,-97.44 404.96,-92.95 414.92,-88.51"/>
<polygon fill="black" stroke="black" points="416.39,-91.68 424,-84.31 413.45,-85.33 416.39,-91.68"/>
</g>
<!-- 140260953974256&#45;&gt;140260402428800* -->
<g id="edge16" class="edge">
<title>140260953974256&#45;&gt;140260402428800*</title>
<path fill="none" stroke="black" d="M341.51,-146.5C355.64,-149.38 369.66,-152.69 383,-156.5 393.69,-159.56 404.96,-164.05 414.92,-168.49"/>
<polygon fill="black" stroke="black" points="413.45,-171.67 424,-172.69 416.39,-165.32 413.45,-171.67"/>
</g>
</g>
</svg>
