<?xml version="1.0" encoding="UTF-8" standalone="no"?>
<!DOCTYPE svg PUBLIC "-//W3C//DTD SVG 1.1//EN"
 "http://www.w3.org/Graphics/SVG/1.1/DTD/svg11.dtd">
<!-- Generated by graphviz version 2.43.0 (0)
 -->
<!-- Title: %3 Pages: 1 -->
<svg width="3511pt" height="238pt"
 viewBox="0.00 0.00 3511.00 238.00" xmlns="http://www.w3.org/2000/svg" xmlns:xlink="http://www.w3.org/1999/xlink">
<g id="graph0" class="graph" transform="scale(1 1) rotate(0) translate(4 234)">
<title>%3</title>
<polygon fill="white" stroke="transparent" points="-4,4 -4,-234 3507,-234 3507,4 -4,4"/>
<!-- 140625757230592 -->
<g id="node1" class="node">
<title>140625757230592</title>
<polygon fill="none" stroke="black" points="1881,-55.5 1881,-91.5 2207,-91.5 2207,-55.5 1881,-55.5"/>
<text text-anchor="middle" x="1907" y="-69.8" font-family="Times,serif" font-size="14.00">v052</text>
<polyline fill="none" stroke="black" points="1933,-55.5 1933,-91.5 "/>
<text text-anchor="middle" x="1943.5" y="-69.8" font-family="Times,serif" font-size="14.00"> </text>
<polyline fill="none" stroke="black" points="1954,-55.5 1954,-91.5 "/>
<text text-anchor="middle" x="1964.5" y="-69.8" font-family="Times,serif" font-size="14.00"> </text>
<polyline fill="none" stroke="black" points="1975,-55.5 1975,-91.5 "/>
<text text-anchor="middle" x="1985.5" y="-69.8" font-family="Times,serif" font-size="14.00"> </text>
<polyline fill="none" stroke="black" points="1996,-55.5 1996,-91.5 "/>
<text text-anchor="middle" x="2049.5" y="-69.8" font-family="Times,serif" font-size="14.00">data &#45;1.8984</text>
<polyline fill="none" stroke="black" points="2103,-55.5 2103,-91.5 "/>
<text text-anchor="middle" x="2155" y="-69.8" font-family="Times,serif" font-size="14.00">grad 0.0000</text>
</g>
<!-- 140625757226320+ -->
<g id="node18" class="node">
<title>140625757226320+</title>
<ellipse fill="none" stroke="black" cx="2632" cy="-100.5" rx="27" ry="18"/>
<text text-anchor="middle" x="2632" y="-96.8" font-family="Times,serif" font-size="14.00">+</text>
</g>
<!-- 140625757230592&#45;&gt;140625757226320+ -->
<g id="edge26" class="edge">
<title>140625757230592&#45;&gt;140625757226320+</title>
<path fill="none" stroke="black" d="M2207.07,-80.97C2340.09,-87.1 2518.44,-95.31 2594.34,-98.81"/>
<polygon fill="black" stroke="black" points="2594.62,-102.33 2604.77,-99.29 2594.95,-95.33 2594.62,-102.33"/>
</g>
<!-- 140625757230592* -->
<g id="node2" class="node">
<title>140625757230592*</title>
<ellipse fill="none" stroke="black" cx="1420" cy="-73.5" rx="27" ry="18"/>
<text text-anchor="middle" x="1420" y="-69.8" font-family="Times,serif" font-size="14.00">*</text>
</g>
<!-- 140625757230592*&#45;&gt;140625757230592 -->
<g id="edge1" class="edge">
<title>140625757230592*&#45;&gt;140625757230592</title>
<path fill="none" stroke="black" d="M1447.33,-73.5C1518.87,-73.5 1721.46,-73.5 1870.6,-73.5"/>
<polygon fill="black" stroke="black" points="1870.79,-77 1880.79,-73.5 1870.79,-70 1870.79,-77"/>
</g>
<!-- 140626156264448 -->
<g id="node3" class="node">
<title>140626156264448</title>
<polygon fill="none" stroke="black" points="992,-55.5 992,-91.5 1353,-91.5 1353,-55.5 992,-55.5"/>
<text text-anchor="middle" x="1018" y="-69.8" font-family="Times,serif" font-size="14.00">v049</text>
<polyline fill="none" stroke="black" points="1044,-55.5 1044,-91.5 "/>
<text text-anchor="middle" x="1061.5" y="-69.8" font-family="Times,serif" font-size="14.00">L1</text>
<polyline fill="none" stroke="black" points="1079,-55.5 1079,-91.5 "/>
<text text-anchor="middle" x="1098" y="-69.8" font-family="Times,serif" font-size="14.00">N2</text>
<polyline fill="none" stroke="black" points="1117,-55.5 1117,-91.5 "/>
<text text-anchor="middle" x="1129.5" y="-69.8" font-family="Times,serif" font-size="14.00">a</text>
<polyline fill="none" stroke="black" points="1142,-55.5 1142,-91.5 "/>
<text text-anchor="middle" x="1195.5" y="-69.8" font-family="Times,serif" font-size="14.00">data &#45;1.7398</text>
<polyline fill="none" stroke="black" points="1249,-55.5 1249,-91.5 "/>
<text text-anchor="middle" x="1301" y="-69.8" font-family="Times,serif" font-size="14.00">grad 0.0000</text>
</g>
<!-- 140626156264448&#45;&gt;140625757230592* -->
<g id="edge23" class="edge">
<title>140626156264448&#45;&gt;140625757230592*</title>
<path fill="none" stroke="black" d="M1353.21,-73.5C1363.92,-73.5 1373.88,-73.5 1382.65,-73.5"/>
<polygon fill="black" stroke="black" points="1382.73,-77 1392.73,-73.5 1382.73,-70 1382.73,-77"/>
</g>
<!-- 140626156264448+ -->
<g id="node4" class="node">
<title>140626156264448+</title>
<ellipse fill="none" stroke="black" cx="925" cy="-73.5" rx="27" ry="18"/>
<text text-anchor="middle" x="925" y="-69.8" font-family="Times,serif" font-size="14.00">+</text>
</g>
<!-- 140626156264448+&#45;&gt;140626156264448 -->
<g id="edge2" class="edge">
<title>140626156264448+&#45;&gt;140626156264448</title>
<path fill="none" stroke="black" d="M952.27,-73.5C960.69,-73.5 970.75,-73.5 981.85,-73.5"/>
<polygon fill="black" stroke="black" points="981.87,-77 991.87,-73.5 981.87,-70 981.87,-77"/>
</g>
<!-- 140625757228576 -->
<g id="node5" class="node">
<title>140625757228576</title>
<polygon fill="none" stroke="black" points="0,-56.5 0,-92.5 374,-92.5 374,-56.5 0,-56.5"/>
<text text-anchor="middle" x="26" y="-70.8" font-family="Times,serif" font-size="14.00">v003</text>
<polyline fill="none" stroke="black" points="52,-56.5 52,-92.5 "/>
<text text-anchor="middle" x="69.5" y="-70.8" font-family="Times,serif" font-size="14.00">L1</text>
<polyline fill="none" stroke="black" points="87,-56.5 87,-92.5 "/>
<text text-anchor="middle" x="106" y="-70.8" font-family="Times,serif" font-size="14.00">N2</text>
<polyline fill="none" stroke="black" points="125,-56.5 125,-92.5 "/>
<text text-anchor="middle" x="144" y="-70.8" font-family="Times,serif" font-size="14.00">w1</text>
<polyline fill="none" stroke="black" points="163,-56.5 163,-92.5 "/>
<text text-anchor="middle" x="216.5" y="-70.8" font-family="Times,serif" font-size="14.00">data &#45;0.3800</text>
<polyline fill="none" stroke="black" points="270,-56.5 270,-92.5 "/>
<text text-anchor="middle" x="322" y="-70.8" font-family="Times,serif" font-size="14.00">grad 0.0000</text>
</g>
<!-- 140626156268480* -->
<g id="node23" class="node">
<title>140626156268480*</title>
<ellipse fill="none" stroke="black" cx="437" cy="-101.5" rx="27" ry="18"/>
<text text-anchor="middle" x="437" y="-97.8" font-family="Times,serif" font-size="14.00">*</text>
</g>
<!-- 140625757228576&#45;&gt;140626156268480* -->
<g id="edge18" class="edge">
<title>140625757228576&#45;&gt;140626156268480*</title>
<path fill="none" stroke="black" d="M353.42,-92.51C370.67,-94.39 386.71,-96.13 399.97,-97.58"/>
<polygon fill="black" stroke="black" points="399.67,-101.07 409.99,-98.67 400.43,-94.11 399.67,-101.07"/>
</g>
<!-- 140625757229584 -->
<g id="node6" class="node">
<title>140625757229584</title>
<polygon fill="none" stroke="black" points="2.5,-166.5 2.5,-202.5 371.5,-202.5 371.5,-166.5 2.5,-166.5"/>
<text text-anchor="middle" x="28.5" y="-180.8" font-family="Times,serif" font-size="14.00">v001</text>
<polyline fill="none" stroke="black" points="54.5,-166.5 54.5,-202.5 "/>
<text text-anchor="middle" x="72" y="-180.8" font-family="Times,serif" font-size="14.00">L1</text>
<polyline fill="none" stroke="black" points="89.5,-166.5 89.5,-202.5 "/>
<text text-anchor="middle" x="108.5" y="-180.8" font-family="Times,serif" font-size="14.00">N1</text>
<polyline fill="none" stroke="black" points="127.5,-166.5 127.5,-202.5 "/>
<text text-anchor="middle" x="146.5" y="-180.8" font-family="Times,serif" font-size="14.00">w1</text>
<polyline fill="none" stroke="black" points="165.5,-166.5 165.5,-202.5 "/>
<text text-anchor="middle" x="216.5" y="-180.8" font-family="Times,serif" font-size="14.00">data 0.1204</text>
<polyline fill="none" stroke="black" points="267.5,-166.5 267.5,-202.5 "/>
<text text-anchor="middle" x="319.5" y="-180.8" font-family="Times,serif" font-size="14.00">grad 0.0000</text>
</g>
<!-- 140626156264352* -->
<g id="node20" class="node">
<title>140626156264352*</title>
<ellipse fill="none" stroke="black" cx="437" cy="-156.5" rx="27" ry="18"/>
<text text-anchor="middle" x="437" y="-152.8" font-family="Times,serif" font-size="14.00">*</text>
</g>
<!-- 140625757229584&#45;&gt;140626156264352* -->
<g id="edge21" class="edge">
<title>140625757229584&#45;&gt;140626156264352*</title>
<path fill="none" stroke="black" d="M347.52,-166.49C367.04,-164.29 385.28,-162.23 400.06,-160.56"/>
<polygon fill="black" stroke="black" points="400.64,-164.01 410.19,-159.41 399.86,-157.06 400.64,-164.01"/>
</g>
<!-- 140626156263008 -->
<g id="node7" class="node">
<title>140626156263008</title>
<polygon fill="none" stroke="black" points="2243,-108.5 2243,-144.5 2569,-144.5 2569,-108.5 2243,-108.5"/>
<text text-anchor="middle" x="2269" y="-122.8" font-family="Times,serif" font-size="14.00">v051</text>
<polyline fill="none" stroke="black" points="2295,-108.5 2295,-144.5 "/>
<text text-anchor="middle" x="2305.5" y="-122.8" font-family="Times,serif" font-size="14.00"> </text>
<polyline fill="none" stroke="black" points="2316,-108.5 2316,-144.5 "/>
<text text-anchor="middle" x="2326.5" y="-122.8" font-family="Times,serif" font-size="14.00"> </text>
<polyline fill="none" stroke="black" points="2337,-108.5 2337,-144.5 "/>
<text text-anchor="middle" x="2347.5" y="-122.8" font-family="Times,serif" font-size="14.00"> </text>
<polyline fill="none" stroke="black" points="2358,-108.5 2358,-144.5 "/>
<text text-anchor="middle" x="2411.5" y="-122.8" font-family="Times,serif" font-size="14.00">data &#45;0.0696</text>
<polyline fill="none" stroke="black" points="2465,-108.5 2465,-144.5 "/>
<text text-anchor="middle" x="2517" y="-122.8" font-family="Times,serif" font-size="14.00">grad 0.0000</text>
</g>
<!-- 140626156263008&#45;&gt;140625757226320+ -->
<g id="edge20" class="edge">
<title>140626156263008&#45;&gt;140625757226320+</title>
<path fill="none" stroke="black" d="M2562.27,-108.48C2574.27,-107.09 2585.48,-105.78 2595.23,-104.65"/>
<polygon fill="black" stroke="black" points="2595.67,-108.12 2605.2,-103.49 2594.86,-101.17 2595.67,-108.12"/>
</g>
<!-- 140626156263008+ -->
<g id="node8" class="node">
<title>140626156263008+</title>
<ellipse fill="none" stroke="black" cx="2044" cy="-128.5" rx="27" ry="18"/>
<text text-anchor="middle" x="2044" y="-124.8" font-family="Times,serif" font-size="14.00">+</text>
</g>
<!-- 140626156263008+&#45;&gt;140626156263008 -->
<g id="edge3" class="edge">
<title>140626156263008+&#45;&gt;140626156263008</title>
<path fill="none" stroke="black" d="M2071.18,-128.35C2105.81,-128.16 2169.83,-127.81 2232.62,-127.46"/>
<polygon fill="black" stroke="black" points="2232.7,-130.96 2242.68,-127.4 2232.66,-123.96 2232.7,-130.96"/>
</g>
<!-- 140626156266608 -->
<g id="node9" class="node">
<title>140626156266608</title>
<polygon fill="none" stroke="black" points="3182,-82.5 3182,-118.5 3503,-118.5 3503,-82.5 3182,-82.5"/>
<text text-anchor="middle" x="3208" y="-96.8" font-family="Times,serif" font-size="14.00">v054</text>
<polyline fill="none" stroke="black" points="3234,-82.5 3234,-118.5 "/>
<text text-anchor="middle" x="3244.5" y="-96.8" font-family="Times,serif" font-size="14.00"> </text>
<polyline fill="none" stroke="black" points="3255,-82.5 3255,-118.5 "/>
<text text-anchor="middle" x="3265.5" y="-96.8" font-family="Times,serif" font-size="14.00"> </text>
<polyline fill="none" stroke="black" points="3276,-82.5 3276,-118.5 "/>
<text text-anchor="middle" x="3286.5" y="-96.8" font-family="Times,serif" font-size="14.00"> </text>
<polyline fill="none" stroke="black" points="3297,-82.5 3297,-118.5 "/>
<text text-anchor="middle" x="3348" y="-96.8" font-family="Times,serif" font-size="14.00">data 3.8729</text>
<polyline fill="none" stroke="black" points="3399,-82.5 3399,-118.5 "/>
<text text-anchor="middle" x="3451" y="-96.8" font-family="Times,serif" font-size="14.00">grad 0.0000</text>
</g>
<!-- 140626156266608* -->
<g id="node10" class="node">
<title>140626156266608*</title>
<ellipse fill="none" stroke="black" cx="3119" cy="-100.5" rx="27" ry="18"/>
<text text-anchor="middle" x="3119" y="-96.8" font-family="Times,serif" font-size="14.00">*</text>
</g>
<!-- 140626156266608*&#45;&gt;140626156266608 -->
<g id="edge4" class="edge">
<title>140626156266608*&#45;&gt;140626156266608</title>
<path fill="none" stroke="black" d="M3146.28,-100.5C3153.68,-100.5 3162.32,-100.5 3171.76,-100.5"/>
<polygon fill="black" stroke="black" points="3171.88,-104 3181.88,-100.5 3171.88,-97 3171.88,-104"/>
</g>
<!-- 140625757228720 -->
<g id="node11" class="node">
<title>140625757228720</title>
<polygon fill="none" stroke="black" points="500,-193.5 500,-229.5 862,-229.5 862,-193.5 500,-193.5"/>
<text text-anchor="middle" x="526" y="-207.8" font-family="Times,serif" font-size="14.00">v002</text>
<polyline fill="none" stroke="black" points="552,-193.5 552,-229.5 "/>
<text text-anchor="middle" x="569.5" y="-207.8" font-family="Times,serif" font-size="14.00">L1</text>
<polyline fill="none" stroke="black" points="587,-193.5 587,-229.5 "/>
<text text-anchor="middle" x="606" y="-207.8" font-family="Times,serif" font-size="14.00">N1</text>
<polyline fill="none" stroke="black" points="625,-193.5 625,-229.5 "/>
<text text-anchor="middle" x="638" y="-207.8" font-family="Times,serif" font-size="14.00">b</text>
<polyline fill="none" stroke="black" points="651,-193.5 651,-229.5 "/>
<text text-anchor="middle" x="704.5" y="-207.8" font-family="Times,serif" font-size="14.00">data &#45;0.0949</text>
<polyline fill="none" stroke="black" points="758,-193.5 758,-229.5 "/>
<text text-anchor="middle" x="810" y="-207.8" font-family="Times,serif" font-size="14.00">grad 0.0000</text>
</g>
<!-- 140626156269776+ -->
<g id="node13" class="node">
<title>140626156269776+</title>
<ellipse fill="none" stroke="black" cx="925" cy="-183.5" rx="27" ry="18"/>
<text text-anchor="middle" x="925" y="-179.8" font-family="Times,serif" font-size="14.00">+</text>
</g>
<!-- 140625757228720&#45;&gt;140626156269776+ -->
<g id="edge15" class="edge">
<title>140625757228720&#45;&gt;140626156269776+</title>
<path fill="none" stroke="black" d="M837.66,-193.49C856.23,-191.34 873.61,-189.33 887.84,-187.68"/>
<polygon fill="black" stroke="black" points="888.54,-191.13 898.08,-186.5 887.74,-184.17 888.54,-191.13"/>
</g>
<!-- 140626156269776 -->
<g id="node12" class="node">
<title>140626156269776</title>
<polygon fill="none" stroke="black" points="994.5,-165.5 994.5,-201.5 1350.5,-201.5 1350.5,-165.5 994.5,-165.5"/>
<text text-anchor="middle" x="1020.5" y="-179.8" font-family="Times,serif" font-size="14.00">v047</text>
<polyline fill="none" stroke="black" points="1046.5,-165.5 1046.5,-201.5 "/>
<text text-anchor="middle" x="1064" y="-179.8" font-family="Times,serif" font-size="14.00">L1</text>
<polyline fill="none" stroke="black" points="1081.5,-165.5 1081.5,-201.5 "/>
<text text-anchor="middle" x="1100.5" y="-179.8" font-family="Times,serif" font-size="14.00">N1</text>
<polyline fill="none" stroke="black" points="1119.5,-165.5 1119.5,-201.5 "/>
<text text-anchor="middle" x="1132" y="-179.8" font-family="Times,serif" font-size="14.00">a</text>
<polyline fill="none" stroke="black" points="1144.5,-165.5 1144.5,-201.5 "/>
<text text-anchor="middle" x="1195.5" y="-179.8" font-family="Times,serif" font-size="14.00">data 0.3869</text>
<polyline fill="none" stroke="black" points="1246.5,-165.5 1246.5,-201.5 "/>
<text text-anchor="middle" x="1298.5" y="-179.8" font-family="Times,serif" font-size="14.00">grad 0.0000</text>
</g>
<!-- 140626156269488* -->
<g id="node26" class="node">
<title>140626156269488*</title>
<ellipse fill="none" stroke="black" cx="1420" cy="-128.5" rx="27" ry="18"/>
<text text-anchor="middle" x="1420" y="-124.8" font-family="Times,serif" font-size="14.00">*</text>
</g>
<!-- 140626156269776&#45;&gt;140626156269488* -->
<g id="edge24" class="edge">
<title>140626156269776&#45;&gt;140626156269488*</title>
<path fill="none" stroke="black" d="M1316.05,-165.49C1329.99,-162.61 1343.84,-159.3 1357,-155.5 1367.68,-152.42 1378.95,-147.92 1388.91,-143.47"/>
<polygon fill="black" stroke="black" points="1390.38,-146.65 1397.99,-139.28 1387.44,-140.29 1390.38,-146.65"/>
</g>
<!-- 140626156269776+&#45;&gt;140626156269776 -->
<g id="edge5" class="edge">
<title>140626156269776+&#45;&gt;140626156269776</title>
<path fill="none" stroke="black" d="M952.27,-183.5C961.26,-183.5 972.11,-183.5 984.12,-183.5"/>
<polygon fill="black" stroke="black" points="984.46,-187 994.46,-183.5 984.46,-180 984.46,-187"/>
</g>
<!-- 140625757228768 -->
<g id="node14" class="node">
<title>140625757228768</title>
<polygon fill="none" stroke="black" points="500,-28.5 500,-64.5 862,-64.5 862,-28.5 500,-28.5"/>
<text text-anchor="middle" x="526" y="-42.8" font-family="Times,serif" font-size="14.00">v004</text>
<polyline fill="none" stroke="black" points="552,-28.5 552,-64.5 "/>
<text text-anchor="middle" x="569.5" y="-42.8" font-family="Times,serif" font-size="14.00">L1</text>
<polyline fill="none" stroke="black" points="587,-28.5 587,-64.5 "/>
<text text-anchor="middle" x="606" y="-42.8" font-family="Times,serif" font-size="14.00">N2</text>
<polyline fill="none" stroke="black" points="625,-28.5 625,-64.5 "/>
<text text-anchor="middle" x="638" y="-42.8" font-family="Times,serif" font-size="14.00">b</text>
<polyline fill="none" stroke="black" points="651,-28.5 651,-64.5 "/>
<text text-anchor="middle" x="704.5" y="-42.8" font-family="Times,serif" font-size="14.00">data &#45;0.2200</text>
<polyline fill="none" stroke="black" points="758,-28.5 758,-64.5 "/>
<text text-anchor="middle" x="810" y="-42.8" font-family="Times,serif" font-size="14.00">grad 0.0000</text>
</g>
<!-- 140625757228768&#45;&gt;140626156264448+ -->
<g id="edge16" class="edge">
<title>140625757228768&#45;&gt;140626156264448+</title>
<path fill="none" stroke="black" d="M843.42,-64.51C859.94,-66.35 875.34,-68.07 888.15,-69.5"/>
<polygon fill="black" stroke="black" points="887.94,-73 898.27,-70.63 888.72,-66.04 887.94,-73"/>
</g>
<!-- 140626157073648 -->
<g id="node15" class="node">
<title>140626157073648</title>
<polygon fill="none" stroke="black" points="22,-111.5 22,-147.5 352,-147.5 352,-111.5 22,-111.5"/>
<text text-anchor="middle" x="48" y="-125.8" font-family="Times,serif" font-size="14.00">v008</text>
<polyline fill="none" stroke="black" points="74,-111.5 74,-147.5 "/>
<text text-anchor="middle" x="84.5" y="-125.8" font-family="Times,serif" font-size="14.00"> </text>
<polyline fill="none" stroke="black" points="95,-111.5 95,-147.5 "/>
<text text-anchor="middle" x="105.5" y="-125.8" font-family="Times,serif" font-size="14.00"> </text>
<polyline fill="none" stroke="black" points="116,-111.5 116,-147.5 "/>
<text text-anchor="middle" x="131" y="-125.8" font-family="Times,serif" font-size="14.00">i1</text>
<polyline fill="none" stroke="black" points="146,-111.5 146,-147.5 "/>
<text text-anchor="middle" x="197" y="-125.8" font-family="Times,serif" font-size="14.00">data 4.0000</text>
<polyline fill="none" stroke="black" points="248,-111.5 248,-147.5 "/>
<text text-anchor="middle" x="300" y="-125.8" font-family="Times,serif" font-size="14.00">grad 0.0000</text>
</g>
<!-- 140626157073648&#45;&gt;140626156264352* -->
<g id="edge11" class="edge">
<title>140626157073648&#45;&gt;140626156264352*</title>
<path fill="none" stroke="black" d="M352.04,-147.36C369.81,-149.29 386.35,-151.09 399.97,-152.58"/>
<polygon fill="black" stroke="black" points="399.91,-156.09 410.23,-153.69 400.67,-149.13 399.91,-156.09"/>
</g>
<!-- 140626157073648&#45;&gt;140626156268480* -->
<g id="edge17" class="edge">
<title>140626157073648&#45;&gt;140626156268480*</title>
<path fill="none" stroke="black" d="M347.52,-111.49C367.04,-109.29 385.28,-107.23 400.06,-105.56"/>
<polygon fill="black" stroke="black" points="400.64,-109.01 410.19,-104.41 399.86,-102.06 400.64,-109.01"/>
</g>
<!-- 140625757232368 -->
<g id="node16" class="node">
<title>140625757232368</title>
<polygon fill="none" stroke="black" points="988,-110.5 988,-146.5 1357,-146.5 1357,-110.5 988,-110.5"/>
<text text-anchor="middle" x="1014" y="-124.8" font-family="Times,serif" font-size="14.00">v005</text>
<polyline fill="none" stroke="black" points="1040,-110.5 1040,-146.5 "/>
<text text-anchor="middle" x="1057.5" y="-124.8" font-family="Times,serif" font-size="14.00">L2</text>
<polyline fill="none" stroke="black" points="1075,-110.5 1075,-146.5 "/>
<text text-anchor="middle" x="1094" y="-124.8" font-family="Times,serif" font-size="14.00">N1</text>
<polyline fill="none" stroke="black" points="1113,-110.5 1113,-146.5 "/>
<text text-anchor="middle" x="1132" y="-124.8" font-family="Times,serif" font-size="14.00">w1</text>
<polyline fill="none" stroke="black" points="1151,-110.5 1151,-146.5 "/>
<text text-anchor="middle" x="1202" y="-124.8" font-family="Times,serif" font-size="14.00">data 0.3371</text>
<polyline fill="none" stroke="black" points="1253,-110.5 1253,-146.5 "/>
<text text-anchor="middle" x="1305" y="-124.8" font-family="Times,serif" font-size="14.00">grad 0.0000</text>
</g>
<!-- 140625757232368&#45;&gt;140626156269488* -->
<g id="edge22" class="edge">
<title>140625757232368&#45;&gt;140626156269488*</title>
<path fill="none" stroke="black" d="M1357.05,-128.5C1366.29,-128.5 1374.92,-128.5 1382.62,-128.5"/>
<polygon fill="black" stroke="black" points="1382.87,-132 1392.87,-128.5 1382.87,-125 1382.87,-132"/>
</g>
<!-- 140625757226320 -->
<g id="node17" class="node">
<title>140625757226320</title>
<polygon fill="none" stroke="black" points="2695,-82.5 2695,-118.5 3056,-118.5 3056,-82.5 2695,-82.5"/>
<text text-anchor="middle" x="2721" y="-96.8" font-family="Times,serif" font-size="14.00">v053</text>
<polyline fill="none" stroke="black" points="2747,-82.5 2747,-118.5 "/>
<text text-anchor="middle" x="2764.5" y="-96.8" font-family="Times,serif" font-size="14.00">L2</text>
<polyline fill="none" stroke="black" points="2782,-82.5 2782,-118.5 "/>
<text text-anchor="middle" x="2801" y="-96.8" font-family="Times,serif" font-size="14.00">N1</text>
<polyline fill="none" stroke="black" points="2820,-82.5 2820,-118.5 "/>
<text text-anchor="middle" x="2832.5" y="-96.8" font-family="Times,serif" font-size="14.00">a</text>
<polyline fill="none" stroke="black" points="2845,-82.5 2845,-118.5 "/>
<text text-anchor="middle" x="2898.5" y="-96.8" font-family="Times,serif" font-size="14.00">data &#45;1.9680</text>
<polyline fill="none" stroke="black" points="2952,-82.5 2952,-118.5 "/>
<text text-anchor="middle" x="3004" y="-96.8" font-family="Times,serif" font-size="14.00">grad 0.0000</text>
</g>
<!-- 140625757226320&#45;&gt;140626156266608* -->
<g id="edge19" class="edge">
<title>140625757226320&#45;&gt;140626156266608*</title>
<path fill="none" stroke="black" d="M3056.12,-100.5C3065.34,-100.5 3073.94,-100.5 3081.64,-100.5"/>
<polygon fill="black" stroke="black" points="3081.87,-104 3091.87,-100.5 3081.87,-97 3081.87,-104"/>
</g>
<!-- 140625757226320+&#45;&gt;140625757226320 -->
<g id="edge6" class="edge">
<title>140625757226320+&#45;&gt;140625757226320</title>
<path fill="none" stroke="black" d="M2659.3,-100.5C2666.65,-100.5 2675.24,-100.5 2684.68,-100.5"/>
<polygon fill="black" stroke="black" points="2684.81,-104 2694.81,-100.5 2684.81,-97 2684.81,-104"/>
</g>
<!-- 140626156264352 -->
<g id="node19" class="node">
<title>140626156264352</title>
<polygon fill="none" stroke="black" points="520.5,-138.5 520.5,-174.5 841.5,-174.5 841.5,-138.5 520.5,-138.5"/>
<text text-anchor="middle" x="546.5" y="-152.8" font-family="Times,serif" font-size="14.00">v046</text>
<polyline fill="none" stroke="black" points="572.5,-138.5 572.5,-174.5 "/>
<text text-anchor="middle" x="583" y="-152.8" font-family="Times,serif" font-size="14.00"> </text>
<polyline fill="none" stroke="black" points="593.5,-138.5 593.5,-174.5 "/>
<text text-anchor="middle" x="604" y="-152.8" font-family="Times,serif" font-size="14.00"> </text>
<polyline fill="none" stroke="black" points="614.5,-138.5 614.5,-174.5 "/>
<text text-anchor="middle" x="625" y="-152.8" font-family="Times,serif" font-size="14.00"> </text>
<polyline fill="none" stroke="black" points="635.5,-138.5 635.5,-174.5 "/>
<text text-anchor="middle" x="686.5" y="-152.8" font-family="Times,serif" font-size="14.00">data 0.4818</text>
<polyline fill="none" stroke="black" points="737.5,-138.5 737.5,-174.5 "/>
<text text-anchor="middle" x="789.5" y="-152.8" font-family="Times,serif" font-size="14.00">grad 0.0000</text>
</g>
<!-- 140626156264352&#45;&gt;140626156269776+ -->
<g id="edge14" class="edge">
<title>140626156264352&#45;&gt;140626156269776+</title>
<path fill="none" stroke="black" d="M841.73,-174.32C858.85,-176.23 874.82,-178.01 888.04,-179.49"/>
<polygon fill="black" stroke="black" points="887.7,-182.97 898.03,-180.6 888.48,-176.01 887.7,-182.97"/>
</g>
<!-- 140626156264352*&#45;&gt;140626156264352 -->
<g id="edge7" class="edge">
<title>140626156264352*&#45;&gt;140626156264352</title>
<path fill="none" stroke="black" d="M464.36,-156.5C476.7,-156.5 492.53,-156.5 510,-156.5"/>
<polygon fill="black" stroke="black" points="510.46,-160 520.46,-156.5 510.46,-153 510.46,-160"/>
</g>
<!-- 140625757226416 -->
<g id="node21" class="node">
<title>140625757226416</title>
<polygon fill="none" stroke="black" points="1483,-165.5 1483,-201.5 1845,-201.5 1845,-165.5 1483,-165.5"/>
<text text-anchor="middle" x="1509" y="-179.8" font-family="Times,serif" font-size="14.00">v007</text>
<polyline fill="none" stroke="black" points="1535,-165.5 1535,-201.5 "/>
<text text-anchor="middle" x="1552.5" y="-179.8" font-family="Times,serif" font-size="14.00">L2</text>
<polyline fill="none" stroke="black" points="1570,-165.5 1570,-201.5 "/>
<text text-anchor="middle" x="1589" y="-179.8" font-family="Times,serif" font-size="14.00">N1</text>
<polyline fill="none" stroke="black" points="1608,-165.5 1608,-201.5 "/>
<text text-anchor="middle" x="1621" y="-179.8" font-family="Times,serif" font-size="14.00">b</text>
<polyline fill="none" stroke="black" points="1634,-165.5 1634,-201.5 "/>
<text text-anchor="middle" x="1687.5" y="-179.8" font-family="Times,serif" font-size="14.00">data &#45;0.2000</text>
<polyline fill="none" stroke="black" points="1741,-165.5 1741,-201.5 "/>
<text text-anchor="middle" x="1793" y="-179.8" font-family="Times,serif" font-size="14.00">grad 0.0000</text>
</g>
<!-- 140625757226416&#45;&gt;140626156263008+ -->
<g id="edge12" class="edge">
<title>140625757226416&#45;&gt;140626156263008+</title>
<path fill="none" stroke="black" d="M1788.77,-165.49C1865.16,-154.38 1957.75,-140.9 2007.41,-133.68"/>
<polygon fill="black" stroke="black" points="2007.94,-137.14 2017.33,-132.23 2006.93,-130.21 2007.94,-137.14"/>
</g>
<!-- 140626156268480 -->
<g id="node22" class="node">
<title>140626156268480</title>
<polygon fill="none" stroke="black" points="518,-83.5 518,-119.5 844,-119.5 844,-83.5 518,-83.5"/>
<text text-anchor="middle" x="544" y="-97.8" font-family="Times,serif" font-size="14.00">v048</text>
<polyline fill="none" stroke="black" points="570,-83.5 570,-119.5 "/>
<text text-anchor="middle" x="580.5" y="-97.8" font-family="Times,serif" font-size="14.00"> </text>
<polyline fill="none" stroke="black" points="591,-83.5 591,-119.5 "/>
<text text-anchor="middle" x="601.5" y="-97.8" font-family="Times,serif" font-size="14.00"> </text>
<polyline fill="none" stroke="black" points="612,-83.5 612,-119.5 "/>
<text text-anchor="middle" x="622.5" y="-97.8" font-family="Times,serif" font-size="14.00"> </text>
<polyline fill="none" stroke="black" points="633,-83.5 633,-119.5 "/>
<text text-anchor="middle" x="686.5" y="-97.8" font-family="Times,serif" font-size="14.00">data &#45;1.5198</text>
<polyline fill="none" stroke="black" points="740,-83.5 740,-119.5 "/>
<text text-anchor="middle" x="792" y="-97.8" font-family="Times,serif" font-size="14.00">grad 0.0000</text>
</g>
<!-- 140626156268480&#45;&gt;140626156264448+ -->
<g id="edge25" class="edge">
<title>140626156268480&#45;&gt;140626156264448+</title>
<path fill="none" stroke="black" d="M837.66,-83.49C856.23,-81.34 873.61,-79.33 887.84,-77.68"/>
<polygon fill="black" stroke="black" points="888.54,-81.13 898.08,-76.5 887.74,-74.17 888.54,-81.13"/>
</g>
<!-- 140626156268480*&#45;&gt;140626156268480 -->
<g id="edge8" class="edge">
<title>140626156268480*&#45;&gt;140626156268480</title>
<path fill="none" stroke="black" d="M464.36,-101.5C476.08,-101.5 490.94,-101.5 507.37,-101.5"/>
<polygon fill="black" stroke="black" points="507.79,-105 517.79,-101.5 507.79,-98 507.79,-105"/>
</g>
<!-- 140625757226464 -->
<g id="node24" class="node">
<title>140625757226464</title>
<polygon fill="none" stroke="black" points="988,-0.5 988,-36.5 1357,-36.5 1357,-0.5 988,-0.5"/>
<text text-anchor="middle" x="1014" y="-14.8" font-family="Times,serif" font-size="14.00">v006</text>
<polyline fill="none" stroke="black" points="1040,-0.5 1040,-36.5 "/>
<text text-anchor="middle" x="1057.5" y="-14.8" font-family="Times,serif" font-size="14.00">L2</text>
<polyline fill="none" stroke="black" points="1075,-0.5 1075,-36.5 "/>
<text text-anchor="middle" x="1094" y="-14.8" font-family="Times,serif" font-size="14.00">N1</text>
<polyline fill="none" stroke="black" points="1113,-0.5 1113,-36.5 "/>
<text text-anchor="middle" x="1132" y="-14.8" font-family="Times,serif" font-size="14.00">w2</text>
<polyline fill="none" stroke="black" points="1151,-0.5 1151,-36.5 "/>
<text text-anchor="middle" x="1202" y="-14.8" font-family="Times,serif" font-size="14.00">data 1.0912</text>
<polyline fill="none" stroke="black" points="1253,-0.5 1253,-36.5 "/>
<text text-anchor="middle" x="1305" y="-14.8" font-family="Times,serif" font-size="14.00">grad 0.0000</text>
</g>
<!-- 140625757226464&#45;&gt;140625757230592* -->
<g id="edge10" class="edge">
<title>140625757226464&#45;&gt;140625757230592*</title>
<path fill="none" stroke="black" d="M1321.02,-36.51C1333.28,-39.12 1345.41,-42.1 1357,-45.5 1367.82,-48.67 1379.2,-53.37 1389.21,-58.02"/>
<polygon fill="black" stroke="black" points="1387.79,-61.23 1398.32,-62.41 1390.83,-54.92 1387.79,-61.23"/>
</g>
<!-- 140626156269488 -->
<g id="node25" class="node">
<title>140626156269488</title>
<polygon fill="none" stroke="black" points="1503.5,-110.5 1503.5,-146.5 1824.5,-146.5 1824.5,-110.5 1503.5,-110.5"/>
<text text-anchor="middle" x="1529.5" y="-124.8" font-family="Times,serif" font-size="14.00">v050</text>
<polyline fill="none" stroke="black" points="1555.5,-110.5 1555.5,-146.5 "/>
<text text-anchor="middle" x="1566" y="-124.8" font-family="Times,serif" font-size="14.00"> </text>
<polyline fill="none" stroke="black" points="1576.5,-110.5 1576.5,-146.5 "/>
<text text-anchor="middle" x="1587" y="-124.8" font-family="Times,serif" font-size="14.00"> </text>
<polyline fill="none" stroke="black" points="1597.5,-110.5 1597.5,-146.5 "/>
<text text-anchor="middle" x="1608" y="-124.8" font-family="Times,serif" font-size="14.00"> </text>
<polyline fill="none" stroke="black" points="1618.5,-110.5 1618.5,-146.5 "/>
<text text-anchor="middle" x="1669.5" y="-124.8" font-family="Times,serif" font-size="14.00">data 0.1304</text>
<polyline fill="none" stroke="black" points="1720.5,-110.5 1720.5,-146.5 "/>
<text text-anchor="middle" x="1772.5" y="-124.8" font-family="Times,serif" font-size="14.00">grad 0.0000</text>
</g>
<!-- 140626156269488&#45;&gt;140626156263008+ -->
<g id="edge13" class="edge">
<title>140626156269488&#45;&gt;140626156263008+</title>
<path fill="none" stroke="black" d="M1824.76,-128.5C1892.19,-128.5 1964.7,-128.5 2006.85,-128.5"/>
<polygon fill="black" stroke="black" points="2006.89,-132 2016.89,-128.5 2006.89,-125 2006.89,-132"/>
</g>
<!-- 140626156269488*&#45;&gt;140626156269488 -->
<g id="edge9" class="edge">
<title>140626156269488*&#45;&gt;140626156269488</title>
<path fill="none" stroke="black" d="M1447.36,-128.5C1459.7,-128.5 1475.53,-128.5 1493,-128.5"/>
<polygon fill="black" stroke="black" points="1493.46,-132 1503.46,-128.5 1493.46,-125 1493.46,-132"/>
</g>
</g>
</svg>
