<?xml version="1.0" encoding="UTF-8" standalone="no"?>
<!DOCTYPE svg PUBLIC "-//W3C//DTD SVG 1.1//EN"
 "http://www.w3.org/Graphics/SVG/1.1/DTD/svg11.dtd">
<!-- Generated by graphviz version 2.43.0 (0)
 -->
<!-- Title: %3 Pages: 1 -->
<svg width="3064pt" height="238pt"
 viewBox="0.00 0.00 3064.00 238.00" xmlns="http://www.w3.org/2000/svg" xmlns:xlink="http://www.w3.org/1999/xlink">
<g id="graph0" class="graph" transform="scale(1 1) rotate(0) translate(4 234)">
<title>%3</title>
<polygon fill="white" stroke="transparent" points="-4,4 -4,-234 3060,-234 3060,4 -4,4"/>
<!-- 139883124757536 -->
<g id="node1" class="node">
<title>139883124757536</title>
<polygon fill="none" stroke="black" points="518,-69.5 518,-105.5 844,-105.5 844,-69.5 518,-69.5"/>
<text text-anchor="middle" x="544" y="-83.8" font-family="Times,serif" font-size="14.00">v102</text>
<polyline fill="none" stroke="black" points="570,-69.5 570,-105.5 "/>
<text text-anchor="middle" x="580.5" y="-83.8" font-family="Times,serif" font-size="14.00"> </text>
<polyline fill="none" stroke="black" points="591,-69.5 591,-105.5 "/>
<text text-anchor="middle" x="601.5" y="-83.8" font-family="Times,serif" font-size="14.00"> </text>
<polyline fill="none" stroke="black" points="612,-69.5 612,-105.5 "/>
<text text-anchor="middle" x="622.5" y="-83.8" font-family="Times,serif" font-size="14.00"> </text>
<polyline fill="none" stroke="black" points="633,-69.5 633,-105.5 "/>
<text text-anchor="middle" x="686.5" y="-83.8" font-family="Times,serif" font-size="14.00">data &#45;3.3353</text>
<polyline fill="none" stroke="black" points="740,-69.5 740,-105.5 "/>
<text text-anchor="middle" x="792" y="-83.8" font-family="Times,serif" font-size="14.00">grad 0.0000</text>
</g>
<!-- 139883124756912+ -->
<g id="node24" class="node">
<title>139883124756912+</title>
<ellipse fill="none" stroke="black" cx="925" cy="-73.5" rx="27" ry="18"/>
<text text-anchor="middle" x="925" y="-69.8" font-family="Times,serif" font-size="14.00">+</text>
</g>
<!-- 139883124757536&#45;&gt;139883124756912+ -->
<g id="edge15" class="edge">
<title>139883124757536&#45;&gt;139883124756912+</title>
<path fill="none" stroke="black" d="M844.09,-78.12C860.07,-77.2 874.97,-76.34 887.47,-75.61"/>
<polygon fill="black" stroke="black" points="888.02,-79.09 897.8,-75.02 887.61,-72.1 888.02,-79.09"/>
</g>
<!-- 139883124757536* -->
<g id="node2" class="node">
<title>139883124757536*</title>
<ellipse fill="none" stroke="black" cx="437" cy="-87.5" rx="27" ry="18"/>
<text text-anchor="middle" x="437" y="-83.8" font-family="Times,serif" font-size="14.00">*</text>
</g>
<!-- 139883124757536*&#45;&gt;139883124757536 -->
<g id="edge1" class="edge">
<title>139883124757536*&#45;&gt;139883124757536</title>
<path fill="none" stroke="black" d="M464.36,-87.5C476.08,-87.5 490.94,-87.5 507.37,-87.5"/>
<polygon fill="black" stroke="black" points="507.79,-91 517.79,-87.5 507.79,-84 507.79,-91"/>
</g>
<!-- 139883124758064 -->
<g id="node3" class="node">
<title>139883124758064</title>
<polygon fill="none" stroke="black" points="992,-165.5 992,-201.5 1353,-201.5 1353,-165.5 992,-165.5"/>
<text text-anchor="middle" x="1018" y="-179.8" font-family="Times,serif" font-size="14.00">v101</text>
<polyline fill="none" stroke="black" points="1044,-165.5 1044,-201.5 "/>
<text text-anchor="middle" x="1061.5" y="-179.8" font-family="Times,serif" font-size="14.00">L1</text>
<polyline fill="none" stroke="black" points="1079,-165.5 1079,-201.5 "/>
<text text-anchor="middle" x="1098" y="-179.8" font-family="Times,serif" font-size="14.00">N1</text>
<polyline fill="none" stroke="black" points="1117,-165.5 1117,-201.5 "/>
<text text-anchor="middle" x="1129.5" y="-179.8" font-family="Times,serif" font-size="14.00">a</text>
<polyline fill="none" stroke="black" points="1142,-165.5 1142,-201.5 "/>
<text text-anchor="middle" x="1195.5" y="-179.8" font-family="Times,serif" font-size="14.00">data &#45;0.1697</text>
<polyline fill="none" stroke="black" points="1249,-165.5 1249,-201.5 "/>
<text text-anchor="middle" x="1301" y="-179.8" font-family="Times,serif" font-size="14.00">grad 0.0000</text>
</g>
<!-- 139883124757680* -->
<g id="node10" class="node">
<title>139883124757680*</title>
<ellipse fill="none" stroke="black" cx="1420" cy="-153.5" rx="27" ry="18"/>
<text text-anchor="middle" x="1420" y="-149.8" font-family="Times,serif" font-size="14.00">*</text>
</g>
<!-- 139883124758064&#45;&gt;139883124757680* -->
<g id="edge17" class="edge">
<title>139883124758064&#45;&gt;139883124757680*</title>
<path fill="none" stroke="black" d="M1320.91,-165.49C1344.02,-162.66 1365.91,-159.99 1383.13,-157.88"/>
<polygon fill="black" stroke="black" points="1383.71,-161.34 1393.21,-156.65 1382.86,-154.39 1383.71,-161.34"/>
</g>
<!-- 139883124758064+ -->
<g id="node4" class="node">
<title>139883124758064+</title>
<ellipse fill="none" stroke="black" cx="925" cy="-183.5" rx="27" ry="18"/>
<text text-anchor="middle" x="925" y="-179.8" font-family="Times,serif" font-size="14.00">+</text>
</g>
<!-- 139883124758064+&#45;&gt;139883124758064 -->
<g id="edge2" class="edge">
<title>139883124758064+&#45;&gt;139883124758064</title>
<path fill="none" stroke="black" d="M952.27,-183.5C960.69,-183.5 970.75,-183.5 981.85,-183.5"/>
<polygon fill="black" stroke="black" points="981.87,-187 991.87,-183.5 981.87,-180 981.87,-187"/>
</g>
<!-- 139883734297632 -->
<g id="node5" class="node">
<title>139883734297632</title>
<polygon fill="none" stroke="black" points="500,-193.5 500,-229.5 862,-229.5 862,-193.5 500,-193.5"/>
<text text-anchor="middle" x="526" y="-207.8" font-family="Times,serif" font-size="14.00">v002</text>
<polyline fill="none" stroke="black" points="552,-193.5 552,-229.5 "/>
<text text-anchor="middle" x="569.5" y="-207.8" font-family="Times,serif" font-size="14.00">L1</text>
<polyline fill="none" stroke="black" points="587,-193.5 587,-229.5 "/>
<text text-anchor="middle" x="606" y="-207.8" font-family="Times,serif" font-size="14.00">N1</text>
<polyline fill="none" stroke="black" points="625,-193.5 625,-229.5 "/>
<text text-anchor="middle" x="638" y="-207.8" font-family="Times,serif" font-size="14.00">b</text>
<polyline fill="none" stroke="black" points="651,-193.5 651,-229.5 "/>
<text text-anchor="middle" x="704.5" y="-207.8" font-family="Times,serif" font-size="14.00">data &#45;0.1276</text>
<polyline fill="none" stroke="black" points="758,-193.5 758,-229.5 "/>
<text text-anchor="middle" x="810" y="-207.8" font-family="Times,serif" font-size="14.00">grad 0.0000</text>
</g>
<!-- 139883734297632&#45;&gt;139883124758064+ -->
<g id="edge14" class="edge">
<title>139883734297632&#45;&gt;139883124758064+</title>
<path fill="none" stroke="black" d="M837.66,-193.49C856.23,-191.34 873.61,-189.33 887.84,-187.68"/>
<polygon fill="black" stroke="black" points="888.54,-191.13 898.08,-186.5 887.74,-184.17 888.54,-191.13"/>
</g>
<!-- 139883124658752 -->
<g id="node6" class="node">
<title>139883124658752</title>
<polygon fill="none" stroke="black" points="988,-110.5 988,-146.5 1357,-146.5 1357,-110.5 988,-110.5"/>
<text text-anchor="middle" x="1014" y="-124.8" font-family="Times,serif" font-size="14.00">v005</text>
<polyline fill="none" stroke="black" points="1040,-110.5 1040,-146.5 "/>
<text text-anchor="middle" x="1057.5" y="-124.8" font-family="Times,serif" font-size="14.00">L2</text>
<polyline fill="none" stroke="black" points="1075,-110.5 1075,-146.5 "/>
<text text-anchor="middle" x="1094" y="-124.8" font-family="Times,serif" font-size="14.00">N1</text>
<polyline fill="none" stroke="black" points="1113,-110.5 1113,-146.5 "/>
<text text-anchor="middle" x="1132" y="-124.8" font-family="Times,serif" font-size="14.00">w1</text>
<polyline fill="none" stroke="black" points="1151,-110.5 1151,-146.5 "/>
<text text-anchor="middle" x="1202" y="-124.8" font-family="Times,serif" font-size="14.00">data 0.3127</text>
<polyline fill="none" stroke="black" points="1253,-110.5 1253,-146.5 "/>
<text text-anchor="middle" x="1305" y="-124.8" font-family="Times,serif" font-size="14.00">grad 0.0000</text>
</g>
<!-- 139883124658752&#45;&gt;139883124757680* -->
<g id="edge24" class="edge">
<title>139883124658752&#45;&gt;139883124757680*</title>
<path fill="none" stroke="black" d="M1350.29,-146.5C1362.2,-147.72 1373.27,-148.84 1382.89,-149.82"/>
<polygon fill="black" stroke="black" points="1382.8,-153.33 1393.1,-150.86 1383.51,-146.37 1382.8,-153.33"/>
</g>
<!-- 139883124758112 -->
<g id="node7" class="node">
<title>139883124758112</title>
<polygon fill="none" stroke="black" points="1881,-29.5 1881,-65.5 2207,-65.5 2207,-29.5 1881,-29.5"/>
<text text-anchor="middle" x="1907" y="-43.8" font-family="Times,serif" font-size="14.00">v106</text>
<polyline fill="none" stroke="black" points="1933,-29.5 1933,-65.5 "/>
<text text-anchor="middle" x="1943.5" y="-43.8" font-family="Times,serif" font-size="14.00"> </text>
<polyline fill="none" stroke="black" points="1954,-29.5 1954,-65.5 "/>
<text text-anchor="middle" x="1964.5" y="-43.8" font-family="Times,serif" font-size="14.00"> </text>
<polyline fill="none" stroke="black" points="1975,-29.5 1975,-65.5 "/>
<text text-anchor="middle" x="1985.5" y="-43.8" font-family="Times,serif" font-size="14.00"> </text>
<polyline fill="none" stroke="black" points="1996,-29.5 1996,-65.5 "/>
<text text-anchor="middle" x="2049.5" y="-43.8" font-family="Times,serif" font-size="14.00">data &#45;4.8116</text>
<polyline fill="none" stroke="black" points="2103,-29.5 2103,-65.5 "/>
<text text-anchor="middle" x="2155" y="-43.8" font-family="Times,serif" font-size="14.00">grad 0.0000</text>
</g>
<!-- 139883124758400+ -->
<g id="node20" class="node">
<title>139883124758400+</title>
<ellipse fill="none" stroke="black" cx="2632" cy="-74.5" rx="27" ry="18"/>
<text text-anchor="middle" x="2632" y="-70.8" font-family="Times,serif" font-size="14.00">+</text>
</g>
<!-- 139883124758112&#45;&gt;139883124758400+ -->
<g id="edge21" class="edge">
<title>139883124758112&#45;&gt;139883124758400+</title>
<path fill="none" stroke="black" d="M2207.07,-54.97C2340.09,-61.1 2518.44,-69.31 2594.34,-72.81"/>
<polygon fill="black" stroke="black" points="2594.62,-76.33 2604.77,-73.29 2594.95,-69.33 2594.62,-76.33"/>
</g>
<!-- 139883124758112* -->
<g id="node8" class="node">
<title>139883124758112*</title>
<ellipse fill="none" stroke="black" cx="1420" cy="-47.5" rx="27" ry="18"/>
<text text-anchor="middle" x="1420" y="-43.8" font-family="Times,serif" font-size="14.00">*</text>
</g>
<!-- 139883124758112*&#45;&gt;139883124758112 -->
<g id="edge3" class="edge">
<title>139883124758112*&#45;&gt;139883124758112</title>
<path fill="none" stroke="black" d="M1447.33,-47.5C1518.87,-47.5 1721.46,-47.5 1870.6,-47.5"/>
<polygon fill="black" stroke="black" points="1870.79,-51 1880.79,-47.5 1870.79,-44 1870.79,-51"/>
</g>
<!-- 139883124757680 -->
<g id="node9" class="node">
<title>139883124757680</title>
<polygon fill="none" stroke="black" points="1501,-135.5 1501,-171.5 1827,-171.5 1827,-135.5 1501,-135.5"/>
<text text-anchor="middle" x="1527" y="-149.8" font-family="Times,serif" font-size="14.00">v104</text>
<polyline fill="none" stroke="black" points="1553,-135.5 1553,-171.5 "/>
<text text-anchor="middle" x="1563.5" y="-149.8" font-family="Times,serif" font-size="14.00"> </text>
<polyline fill="none" stroke="black" points="1574,-135.5 1574,-171.5 "/>
<text text-anchor="middle" x="1584.5" y="-149.8" font-family="Times,serif" font-size="14.00"> </text>
<polyline fill="none" stroke="black" points="1595,-135.5 1595,-171.5 "/>
<text text-anchor="middle" x="1605.5" y="-149.8" font-family="Times,serif" font-size="14.00"> </text>
<polyline fill="none" stroke="black" points="1616,-135.5 1616,-171.5 "/>
<text text-anchor="middle" x="1669.5" y="-149.8" font-family="Times,serif" font-size="14.00">data &#45;0.0531</text>
<polyline fill="none" stroke="black" points="1723,-135.5 1723,-171.5 "/>
<text text-anchor="middle" x="1775" y="-149.8" font-family="Times,serif" font-size="14.00">grad 0.0000</text>
</g>
<!-- 139883124757872+ -->
<g id="node18" class="node">
<title>139883124757872+</title>
<ellipse fill="none" stroke="black" cx="2044" cy="-102.5" rx="27" ry="18"/>
<text text-anchor="middle" x="2044" y="-98.8" font-family="Times,serif" font-size="14.00">+</text>
</g>
<!-- 139883124757680&#45;&gt;139883124757872+ -->
<g id="edge11" class="edge">
<title>139883124757680&#45;&gt;139883124757872+</title>
<path fill="none" stroke="black" d="M1798.53,-135.48C1872.81,-125.46 1959.61,-113.75 2007.22,-107.33"/>
<polygon fill="black" stroke="black" points="2007.89,-110.77 2017.33,-105.96 2006.95,-103.83 2007.89,-110.77"/>
</g>
<!-- 139883124757680*&#45;&gt;139883124757680 -->
<g id="edge4" class="edge">
<title>139883124757680*&#45;&gt;139883124757680</title>
<path fill="none" stroke="black" d="M1447.36,-153.5C1459.08,-153.5 1473.94,-153.5 1490.37,-153.5"/>
<polygon fill="black" stroke="black" points="1490.79,-157 1500.79,-153.5 1490.79,-150 1490.79,-157"/>
</g>
<!-- 139883124664080 -->
<g id="node11" class="node">
<title>139883124664080</title>
<polygon fill="none" stroke="black" points="1483,-80.5 1483,-116.5 1845,-116.5 1845,-80.5 1483,-80.5"/>
<text text-anchor="middle" x="1509" y="-94.8" font-family="Times,serif" font-size="14.00">v007</text>
<polyline fill="none" stroke="black" points="1535,-80.5 1535,-116.5 "/>
<text text-anchor="middle" x="1552.5" y="-94.8" font-family="Times,serif" font-size="14.00">L2</text>
<polyline fill="none" stroke="black" points="1570,-80.5 1570,-116.5 "/>
<text text-anchor="middle" x="1589" y="-94.8" font-family="Times,serif" font-size="14.00">N1</text>
<polyline fill="none" stroke="black" points="1608,-80.5 1608,-116.5 "/>
<text text-anchor="middle" x="1621" y="-94.8" font-family="Times,serif" font-size="14.00">b</text>
<polyline fill="none" stroke="black" points="1634,-80.5 1634,-116.5 "/>
<text text-anchor="middle" x="1687.5" y="-94.8" font-family="Times,serif" font-size="14.00">data &#45;0.3000</text>
<polyline fill="none" stroke="black" points="1741,-80.5 1741,-116.5 "/>
<text text-anchor="middle" x="1793" y="-94.8" font-family="Times,serif" font-size="14.00">grad 0.0000</text>
</g>
<!-- 139883124664080&#45;&gt;139883124757872+ -->
<g id="edge23" class="edge">
<title>139883124664080&#45;&gt;139883124757872+</title>
<path fill="none" stroke="black" d="M1845.14,-100.41C1906.32,-101.05 1968.75,-101.71 2006.69,-102.12"/>
<polygon fill="black" stroke="black" points="2006.68,-105.62 2016.72,-102.22 2006.76,-98.62 2006.68,-105.62"/>
</g>
<!-- 139883734292256 -->
<g id="node12" class="node">
<title>139883734292256</title>
<polygon fill="none" stroke="black" points="0,-179.5 0,-215.5 374,-215.5 374,-179.5 0,-179.5"/>
<text text-anchor="middle" x="26" y="-193.8" font-family="Times,serif" font-size="14.00">v001</text>
<polyline fill="none" stroke="black" points="52,-179.5 52,-215.5 "/>
<text text-anchor="middle" x="69.5" y="-193.8" font-family="Times,serif" font-size="14.00">L1</text>
<polyline fill="none" stroke="black" points="87,-179.5 87,-215.5 "/>
<text text-anchor="middle" x="106" y="-193.8" font-family="Times,serif" font-size="14.00">N1</text>
<polyline fill="none" stroke="black" points="125,-179.5 125,-215.5 "/>
<text text-anchor="middle" x="144" y="-193.8" font-family="Times,serif" font-size="14.00">w1</text>
<polyline fill="none" stroke="black" points="163,-179.5 163,-215.5 "/>
<text text-anchor="middle" x="216.5" y="-193.8" font-family="Times,serif" font-size="14.00">data &#45;0.0105</text>
<polyline fill="none" stroke="black" points="270,-179.5 270,-215.5 "/>
<text text-anchor="middle" x="322" y="-193.8" font-family="Times,serif" font-size="14.00">grad 0.0000</text>
</g>
<!-- 139883124757296* -->
<g id="node22" class="node">
<title>139883124757296*</title>
<ellipse fill="none" stroke="black" cx="437" cy="-156.5" rx="27" ry="18"/>
<text text-anchor="middle" x="437" y="-152.8" font-family="Times,serif" font-size="14.00">*</text>
</g>
<!-- 139883734292256&#45;&gt;139883124757296* -->
<g id="edge12" class="edge">
<title>139883734292256&#45;&gt;139883124757296*</title>
<path fill="none" stroke="black" d="M321.06,-179.47C338.89,-176.68 356.91,-173.66 374,-170.5 382.89,-168.85 392.44,-166.83 401.32,-164.83"/>
<polygon fill="black" stroke="black" points="402.39,-168.18 411.35,-162.53 400.82,-161.36 402.39,-168.18"/>
</g>
<!-- 139883124658992 -->
<g id="node13" class="node">
<title>139883124658992</title>
<polygon fill="none" stroke="black" points="500,-14.5 500,-50.5 862,-50.5 862,-14.5 500,-14.5"/>
<text text-anchor="middle" x="526" y="-28.8" font-family="Times,serif" font-size="14.00">v004</text>
<polyline fill="none" stroke="black" points="552,-14.5 552,-50.5 "/>
<text text-anchor="middle" x="569.5" y="-28.8" font-family="Times,serif" font-size="14.00">L1</text>
<polyline fill="none" stroke="black" points="587,-14.5 587,-50.5 "/>
<text text-anchor="middle" x="606" y="-28.8" font-family="Times,serif" font-size="14.00">N2</text>
<polyline fill="none" stroke="black" points="625,-14.5 625,-50.5 "/>
<text text-anchor="middle" x="638" y="-28.8" font-family="Times,serif" font-size="14.00">b</text>
<polyline fill="none" stroke="black" points="651,-14.5 651,-50.5 "/>
<text text-anchor="middle" x="704.5" y="-28.8" font-family="Times,serif" font-size="14.00">data &#45;0.3335</text>
<polyline fill="none" stroke="black" points="758,-14.5 758,-50.5 "/>
<text text-anchor="middle" x="810" y="-28.8" font-family="Times,serif" font-size="14.00">grad 0.0000</text>
</g>
<!-- 139883124658992&#45;&gt;139883124756912+ -->
<g id="edge20" class="edge">
<title>139883124658992&#45;&gt;139883124756912+</title>
<path fill="none" stroke="black" d="M803.66,-50.54C823.2,-53.69 843.18,-57.07 862,-60.5 870.79,-62.1 880.24,-64 889.05,-65.84"/>
<polygon fill="black" stroke="black" points="888.51,-69.3 899.02,-67.95 889.96,-62.45 888.51,-69.3"/>
</g>
<!-- 139883124664128 -->
<g id="node14" class="node">
<title>139883124664128</title>
<polygon fill="none" stroke="black" points="988,-0.5 988,-36.5 1357,-36.5 1357,-0.5 988,-0.5"/>
<text text-anchor="middle" x="1014" y="-14.8" font-family="Times,serif" font-size="14.00">v006</text>
<polyline fill="none" stroke="black" points="1040,-0.5 1040,-36.5 "/>
<text text-anchor="middle" x="1057.5" y="-14.8" font-family="Times,serif" font-size="14.00">L2</text>
<polyline fill="none" stroke="black" points="1075,-0.5 1075,-36.5 "/>
<text text-anchor="middle" x="1094" y="-14.8" font-family="Times,serif" font-size="14.00">N1</text>
<polyline fill="none" stroke="black" points="1113,-0.5 1113,-36.5 "/>
<text text-anchor="middle" x="1132" y="-14.8" font-family="Times,serif" font-size="14.00">w2</text>
<polyline fill="none" stroke="black" points="1151,-0.5 1151,-36.5 "/>
<text text-anchor="middle" x="1202" y="-14.8" font-family="Times,serif" font-size="14.00">data 1.3115</text>
<polyline fill="none" stroke="black" points="1253,-0.5 1253,-36.5 "/>
<text text-anchor="middle" x="1305" y="-14.8" font-family="Times,serif" font-size="14.00">grad 0.0000</text>
</g>
<!-- 139883124664128&#45;&gt;139883124758112* -->
<g id="edge10" class="edge">
<title>139883124664128&#45;&gt;139883124758112*</title>
<path fill="none" stroke="black" d="M1326.19,-36.54C1347.26,-39.03 1367.08,-41.37 1382.95,-43.24"/>
<polygon fill="black" stroke="black" points="1382.93,-46.76 1393.27,-44.46 1383.75,-39.81 1382.93,-46.76"/>
</g>
<!-- 139883735116112 -->
<g id="node15" class="node">
<title>139883735116112</title>
<polygon fill="none" stroke="black" points="22,-124.5 22,-160.5 352,-160.5 352,-124.5 22,-124.5"/>
<text text-anchor="middle" x="48" y="-138.8" font-family="Times,serif" font-size="14.00">v008</text>
<polyline fill="none" stroke="black" points="74,-124.5 74,-160.5 "/>
<text text-anchor="middle" x="84.5" y="-138.8" font-family="Times,serif" font-size="14.00"> </text>
<polyline fill="none" stroke="black" points="95,-124.5 95,-160.5 "/>
<text text-anchor="middle" x="105.5" y="-138.8" font-family="Times,serif" font-size="14.00"> </text>
<polyline fill="none" stroke="black" points="116,-124.5 116,-160.5 "/>
<text text-anchor="middle" x="131" y="-138.8" font-family="Times,serif" font-size="14.00">i1</text>
<polyline fill="none" stroke="black" points="146,-124.5 146,-160.5 "/>
<text text-anchor="middle" x="197" y="-138.8" font-family="Times,serif" font-size="14.00">data 4.0000</text>
<polyline fill="none" stroke="black" points="248,-124.5 248,-160.5 "/>
<text text-anchor="middle" x="300" y="-138.8" font-family="Times,serif" font-size="14.00">grad 0.0000</text>
</g>
<!-- 139883735116112&#45;&gt;139883124757536* -->
<g id="edge9" class="edge">
<title>139883735116112&#45;&gt;139883124757536*</title>
<path fill="none" stroke="black" d="M338.02,-124.46C350.29,-121.86 362.41,-118.88 374,-115.5 384.83,-112.34 396.2,-107.64 406.21,-102.99"/>
<polygon fill="black" stroke="black" points="407.83,-106.09 415.32,-98.6 404.8,-99.79 407.83,-106.09"/>
</g>
<!-- 139883735116112&#45;&gt;139883124757296* -->
<g id="edge22" class="edge">
<title>139883735116112&#45;&gt;139883124757296*</title>
<path fill="none" stroke="black" d="M352.04,-151.76C369.67,-152.76 386.08,-153.68 399.64,-154.45"/>
<polygon fill="black" stroke="black" points="399.69,-157.96 409.87,-155.02 400.08,-150.97 399.69,-157.96"/>
</g>
<!-- 139883124659040 -->
<g id="node16" class="node">
<title>139883124659040</title>
<polygon fill="none" stroke="black" points="0,-69.5 0,-105.5 374,-105.5 374,-69.5 0,-69.5"/>
<text text-anchor="middle" x="26" y="-83.8" font-family="Times,serif" font-size="14.00">v003</text>
<polyline fill="none" stroke="black" points="52,-69.5 52,-105.5 "/>
<text text-anchor="middle" x="69.5" y="-83.8" font-family="Times,serif" font-size="14.00">L1</text>
<polyline fill="none" stroke="black" points="87,-69.5 87,-105.5 "/>
<text text-anchor="middle" x="106" y="-83.8" font-family="Times,serif" font-size="14.00">N2</text>
<polyline fill="none" stroke="black" points="125,-69.5 125,-105.5 "/>
<text text-anchor="middle" x="144" y="-83.8" font-family="Times,serif" font-size="14.00">w1</text>
<polyline fill="none" stroke="black" points="163,-69.5 163,-105.5 "/>
<text text-anchor="middle" x="216.5" y="-83.8" font-family="Times,serif" font-size="14.00">data &#45;0.8338</text>
<polyline fill="none" stroke="black" points="270,-69.5 270,-105.5 "/>
<text text-anchor="middle" x="322" y="-83.8" font-family="Times,serif" font-size="14.00">grad 0.0000</text>
</g>
<!-- 139883124659040&#45;&gt;139883124757536* -->
<g id="edge13" class="edge">
<title>139883124659040&#45;&gt;139883124757536*</title>
<path fill="none" stroke="black" d="M374.06,-87.5C383.31,-87.5 391.94,-87.5 399.65,-87.5"/>
<polygon fill="black" stroke="black" points="399.9,-91 409.9,-87.5 399.9,-84 399.9,-91"/>
</g>
<!-- 139883124757872 -->
<g id="node17" class="node">
<title>139883124757872</title>
<polygon fill="none" stroke="black" points="2243,-82.5 2243,-118.5 2569,-118.5 2569,-82.5 2243,-82.5"/>
<text text-anchor="middle" x="2269" y="-96.8" font-family="Times,serif" font-size="14.00">v105</text>
<polyline fill="none" stroke="black" points="2295,-82.5 2295,-118.5 "/>
<text text-anchor="middle" x="2305.5" y="-96.8" font-family="Times,serif" font-size="14.00"> </text>
<polyline fill="none" stroke="black" points="2316,-82.5 2316,-118.5 "/>
<text text-anchor="middle" x="2326.5" y="-96.8" font-family="Times,serif" font-size="14.00"> </text>
<polyline fill="none" stroke="black" points="2337,-82.5 2337,-118.5 "/>
<text text-anchor="middle" x="2347.5" y="-96.8" font-family="Times,serif" font-size="14.00"> </text>
<polyline fill="none" stroke="black" points="2358,-82.5 2358,-118.5 "/>
<text text-anchor="middle" x="2411.5" y="-96.8" font-family="Times,serif" font-size="14.00">data &#45;0.3531</text>
<polyline fill="none" stroke="black" points="2465,-82.5 2465,-118.5 "/>
<text text-anchor="middle" x="2517" y="-96.8" font-family="Times,serif" font-size="14.00">grad 0.0000</text>
</g>
<!-- 139883124757872&#45;&gt;139883124758400+ -->
<g id="edge16" class="edge">
<title>139883124757872&#45;&gt;139883124758400+</title>
<path fill="none" stroke="black" d="M2562.27,-82.48C2574.27,-81.09 2585.48,-79.78 2595.23,-78.65"/>
<polygon fill="black" stroke="black" points="2595.67,-82.12 2605.2,-77.49 2594.86,-75.17 2595.67,-82.12"/>
</g>
<!-- 139883124757872+&#45;&gt;139883124757872 -->
<g id="edge5" class="edge">
<title>139883124757872+&#45;&gt;139883124757872</title>
<path fill="none" stroke="black" d="M2071.18,-102.35C2105.81,-102.16 2169.83,-101.81 2232.62,-101.46"/>
<polygon fill="black" stroke="black" points="2232.7,-104.96 2242.68,-101.4 2232.66,-97.96 2232.7,-104.96"/>
</g>
<!-- 139883124758400 -->
<g id="node19" class="node">
<title>139883124758400</title>
<polygon fill="none" stroke="black" points="2695,-56.5 2695,-92.5 3056,-92.5 3056,-56.5 2695,-56.5"/>
<text text-anchor="middle" x="2721" y="-70.8" font-family="Times,serif" font-size="14.00">v107</text>
<polyline fill="none" stroke="black" points="2747,-56.5 2747,-92.5 "/>
<text text-anchor="middle" x="2764.5" y="-70.8" font-family="Times,serif" font-size="14.00">L2</text>
<polyline fill="none" stroke="black" points="2782,-56.5 2782,-92.5 "/>
<text text-anchor="middle" x="2801" y="-70.8" font-family="Times,serif" font-size="14.00">N1</text>
<polyline fill="none" stroke="black" points="2820,-56.5 2820,-92.5 "/>
<text text-anchor="middle" x="2832.5" y="-70.8" font-family="Times,serif" font-size="14.00">a</text>
<polyline fill="none" stroke="black" points="2845,-56.5 2845,-92.5 "/>
<text text-anchor="middle" x="2898.5" y="-70.8" font-family="Times,serif" font-size="14.00">data &#45;5.1647</text>
<polyline fill="none" stroke="black" points="2952,-56.5 2952,-92.5 "/>
<text text-anchor="middle" x="3004" y="-70.8" font-family="Times,serif" font-size="14.00">grad 0.0000</text>
</g>
<!-- 139883124758400+&#45;&gt;139883124758400 -->
<g id="edge6" class="edge">
<title>139883124758400+&#45;&gt;139883124758400</title>
<path fill="none" stroke="black" d="M2659.3,-74.5C2666.65,-74.5 2675.24,-74.5 2684.68,-74.5"/>
<polygon fill="black" stroke="black" points="2684.81,-78 2694.81,-74.5 2684.81,-71 2684.81,-78"/>
</g>
<!-- 139883124757296 -->
<g id="node21" class="node">
<title>139883124757296</title>
<polygon fill="none" stroke="black" points="518,-138.5 518,-174.5 844,-174.5 844,-138.5 518,-138.5"/>
<text text-anchor="middle" x="544" y="-152.8" font-family="Times,serif" font-size="14.00">v100</text>
<polyline fill="none" stroke="black" points="570,-138.5 570,-174.5 "/>
<text text-anchor="middle" x="580.5" y="-152.8" font-family="Times,serif" font-size="14.00"> </text>
<polyline fill="none" stroke="black" points="591,-138.5 591,-174.5 "/>
<text text-anchor="middle" x="601.5" y="-152.8" font-family="Times,serif" font-size="14.00"> </text>
<polyline fill="none" stroke="black" points="612,-138.5 612,-174.5 "/>
<text text-anchor="middle" x="622.5" y="-152.8" font-family="Times,serif" font-size="14.00"> </text>
<polyline fill="none" stroke="black" points="633,-138.5 633,-174.5 "/>
<text text-anchor="middle" x="686.5" y="-152.8" font-family="Times,serif" font-size="14.00">data &#45;0.0421</text>
<polyline fill="none" stroke="black" points="740,-138.5 740,-174.5 "/>
<text text-anchor="middle" x="792" y="-152.8" font-family="Times,serif" font-size="14.00">grad 0.0000</text>
</g>
<!-- 139883124757296&#45;&gt;139883124758064+ -->
<g id="edge19" class="edge">
<title>139883124757296&#45;&gt;139883124758064+</title>
<path fill="none" stroke="black" d="M843.42,-174.51C859.94,-176.35 875.34,-178.07 888.15,-179.5"/>
<polygon fill="black" stroke="black" points="887.94,-183 898.27,-180.63 888.72,-176.04 887.94,-183"/>
</g>
<!-- 139883124757296*&#45;&gt;139883124757296 -->
<g id="edge7" class="edge">
<title>139883124757296*&#45;&gt;139883124757296</title>
<path fill="none" stroke="black" d="M464.36,-156.5C476.08,-156.5 490.94,-156.5 507.37,-156.5"/>
<polygon fill="black" stroke="black" points="507.79,-160 517.79,-156.5 507.79,-153 507.79,-160"/>
</g>
<!-- 139883124756912 -->
<g id="node23" class="node">
<title>139883124756912</title>
<polygon fill="none" stroke="black" points="992,-55.5 992,-91.5 1353,-91.5 1353,-55.5 992,-55.5"/>
<text text-anchor="middle" x="1018" y="-69.8" font-family="Times,serif" font-size="14.00">v103</text>
<polyline fill="none" stroke="black" points="1044,-55.5 1044,-91.5 "/>
<text text-anchor="middle" x="1061.5" y="-69.8" font-family="Times,serif" font-size="14.00">L1</text>
<polyline fill="none" stroke="black" points="1079,-55.5 1079,-91.5 "/>
<text text-anchor="middle" x="1098" y="-69.8" font-family="Times,serif" font-size="14.00">N2</text>
<polyline fill="none" stroke="black" points="1117,-55.5 1117,-91.5 "/>
<text text-anchor="middle" x="1129.5" y="-69.8" font-family="Times,serif" font-size="14.00">a</text>
<polyline fill="none" stroke="black" points="1142,-55.5 1142,-91.5 "/>
<text text-anchor="middle" x="1195.5" y="-69.8" font-family="Times,serif" font-size="14.00">data &#45;3.6687</text>
<polyline fill="none" stroke="black" points="1249,-55.5 1249,-91.5 "/>
<text text-anchor="middle" x="1301" y="-69.8" font-family="Times,serif" font-size="14.00">grad 0.0000</text>
</g>
<!-- 139883124756912&#45;&gt;139883124758112* -->
<g id="edge18" class="edge">
<title>139883124756912&#45;&gt;139883124758112*</title>
<path fill="none" stroke="black" d="M1343.67,-55.48C1358.11,-53.95 1371.52,-52.53 1382.9,-51.32"/>
<polygon fill="black" stroke="black" points="1383.58,-54.77 1393.15,-50.24 1382.84,-47.81 1383.58,-54.77"/>
</g>
<!-- 139883124756912+&#45;&gt;139883124756912 -->
<g id="edge8" class="edge">
<title>139883124756912+&#45;&gt;139883124756912</title>
<path fill="none" stroke="black" d="M952.27,-73.5C960.69,-73.5 970.75,-73.5 981.85,-73.5"/>
<polygon fill="black" stroke="black" points="981.87,-77 991.87,-73.5 981.87,-70 981.87,-77"/>
</g>
</g>
</svg>
