<?xml version="1.0" encoding="UTF-8" standalone="no"?>
<!DOCTYPE svg PUBLIC "-//W3C//DTD SVG 1.1//EN"
 "http://www.w3.org/Graphics/SVG/1.1/DTD/svg11.dtd">
<!-- Generated by graphviz version 2.43.0 (0)
 -->
<!-- Title: %3 Pages: 1 -->
<svg width="3510pt" height="210pt"
 viewBox="0.00 0.00 3510.00 210.00" xmlns="http://www.w3.org/2000/svg" xmlns:xlink="http://www.w3.org/1999/xlink">
<g id="graph0" class="graph" transform="scale(1 1) rotate(0) translate(4 206)">
<title>%3</title>
<polygon fill="white" stroke="transparent" points="-4,4 -4,-206 3506,-206 3506,4 -4,4"/>
<!-- 140625757229584 -->
<g id="node1" class="node">
<title>140625757229584</title>
<polygon fill="none" stroke="black" points="2.5,-165.5 2.5,-201.5 371.5,-201.5 371.5,-165.5 2.5,-165.5"/>
<text text-anchor="middle" x="28.5" y="-179.8" font-family="Times,serif" font-size="14.00">v001</text>
<polyline fill="none" stroke="black" points="54.5,-165.5 54.5,-201.5 "/>
<text text-anchor="middle" x="72" y="-179.8" font-family="Times,serif" font-size="14.00">L1</text>
<polyline fill="none" stroke="black" points="89.5,-165.5 89.5,-201.5 "/>
<text text-anchor="middle" x="108.5" y="-179.8" font-family="Times,serif" font-size="14.00">N1</text>
<polyline fill="none" stroke="black" points="127.5,-165.5 127.5,-201.5 "/>
<text text-anchor="middle" x="146.5" y="-179.8" font-family="Times,serif" font-size="14.00">w1</text>
<polyline fill="none" stroke="black" points="165.5,-165.5 165.5,-201.5 "/>
<text text-anchor="middle" x="216.5" y="-179.8" font-family="Times,serif" font-size="14.00">data 0.1204</text>
<polyline fill="none" stroke="black" points="267.5,-165.5 267.5,-201.5 "/>
<text text-anchor="middle" x="319.5" y="-179.8" font-family="Times,serif" font-size="14.00">grad 1.4890</text>
</g>
<!-- 140625756890848* -->
<g id="node11" class="node">
<title>140625756890848*</title>
<ellipse fill="none" stroke="black" cx="437" cy="-183.5" rx="27" ry="18"/>
<text text-anchor="middle" x="437" y="-179.8" font-family="Times,serif" font-size="14.00">*</text>
</g>
<!-- 140625757229584&#45;&gt;140625756890848* -->
<g id="edge15" class="edge">
<title>140625757229584&#45;&gt;140625756890848*</title>
<path fill="none" stroke="black" d="M371.81,-183.5C381.88,-183.5 391.25,-183.5 399.55,-183.5"/>
<polygon fill="black" stroke="black" points="399.82,-187 409.82,-183.5 399.82,-180 399.82,-187"/>
</g>
<!-- 140625757228576 -->
<g id="node2" class="node">
<title>140625757228576</title>
<polygon fill="none" stroke="black" points="0,-55.5 0,-91.5 374,-91.5 374,-55.5 0,-55.5"/>
<text text-anchor="middle" x="26" y="-69.8" font-family="Times,serif" font-size="14.00">v003</text>
<polyline fill="none" stroke="black" points="52,-55.5 52,-91.5 "/>
<text text-anchor="middle" x="69.5" y="-69.8" font-family="Times,serif" font-size="14.00">L1</text>
<polyline fill="none" stroke="black" points="87,-55.5 87,-91.5 "/>
<text text-anchor="middle" x="106" y="-69.8" font-family="Times,serif" font-size="14.00">N2</text>
<polyline fill="none" stroke="black" points="125,-55.5 125,-91.5 "/>
<text text-anchor="middle" x="144" y="-69.8" font-family="Times,serif" font-size="14.00">w1</text>
<polyline fill="none" stroke="black" points="163,-55.5 163,-91.5 "/>
<text text-anchor="middle" x="216.5" y="-69.8" font-family="Times,serif" font-size="14.00">data &#45;0.3800</text>
<polyline fill="none" stroke="black" points="270,-55.5 270,-91.5 "/>
<text text-anchor="middle" x="322" y="-69.8" font-family="Times,serif" font-size="14.00">grad 4.1950</text>
</g>
<!-- 140625756888640* -->
<g id="node6" class="node">
<title>140625756888640*</title>
<ellipse fill="none" stroke="black" cx="437" cy="-73.5" rx="27" ry="18"/>
<text text-anchor="middle" x="437" y="-69.8" font-family="Times,serif" font-size="14.00">*</text>
</g>
<!-- 140625757228576&#45;&gt;140625756888640* -->
<g id="edge18" class="edge">
<title>140625757228576&#45;&gt;140625756888640*</title>
<path fill="none" stroke="black" d="M374.06,-73.5C383.31,-73.5 391.94,-73.5 399.65,-73.5"/>
<polygon fill="black" stroke="black" points="399.9,-77 409.9,-73.5 399.9,-70 399.9,-77"/>
</g>
<!-- 140625756894256 -->
<g id="node3" class="node">
<title>140625756894256</title>
<polygon fill="none" stroke="black" points="1507.5,-135.5 1507.5,-171.5 1828.5,-171.5 1828.5,-135.5 1507.5,-135.5"/>
<text text-anchor="middle" x="1533.5" y="-149.8" font-family="Times,serif" font-size="14.00">v041</text>
<polyline fill="none" stroke="black" points="1559.5,-135.5 1559.5,-171.5 "/>
<text text-anchor="middle" x="1570" y="-149.8" font-family="Times,serif" font-size="14.00"> </text>
<polyline fill="none" stroke="black" points="1580.5,-135.5 1580.5,-171.5 "/>
<text text-anchor="middle" x="1591" y="-149.8" font-family="Times,serif" font-size="14.00"> </text>
<polyline fill="none" stroke="black" points="1601.5,-135.5 1601.5,-171.5 "/>
<text text-anchor="middle" x="1612" y="-149.8" font-family="Times,serif" font-size="14.00"> </text>
<polyline fill="none" stroke="black" points="1622.5,-135.5 1622.5,-171.5 "/>
<text text-anchor="middle" x="1673.5" y="-149.8" font-family="Times,serif" font-size="14.00">data 0.2618</text>
<polyline fill="none" stroke="black" points="1724.5,-135.5 1724.5,-171.5 "/>
<text text-anchor="middle" x="1776.5" y="-149.8" font-family="Times,serif" font-size="14.00">grad 1.0000</text>
</g>
<!-- 140625756895552+ -->
<g id="node18" class="node">
<title>140625756895552+</title>
<ellipse fill="none" stroke="black" cx="2048" cy="-102.5" rx="27" ry="18"/>
<text text-anchor="middle" x="2048" y="-98.8" font-family="Times,serif" font-size="14.00">+</text>
</g>
<!-- 140625756894256&#45;&gt;140625756895552+ -->
<g id="edge12" class="edge">
<title>140625756894256&#45;&gt;140625756895552+</title>
<path fill="none" stroke="black" d="M1802.53,-135.48C1876.81,-125.46 1963.61,-113.75 2011.22,-107.33"/>
<polygon fill="black" stroke="black" points="2011.89,-110.77 2021.33,-105.96 2010.95,-103.83 2011.89,-110.77"/>
</g>
<!-- 140625756894256* -->
<g id="node4" class="node">
<title>140625756894256*</title>
<ellipse fill="none" stroke="black" cx="1424" cy="-153.5" rx="27" ry="18"/>
<text text-anchor="middle" x="1424" y="-149.8" font-family="Times,serif" font-size="14.00">*</text>
</g>
<!-- 140625756894256*&#45;&gt;140625756894256 -->
<g id="edge1" class="edge">
<title>140625756894256*&#45;&gt;140625756894256</title>
<path fill="none" stroke="black" d="M1451.36,-153.5C1463.7,-153.5 1479.53,-153.5 1497,-153.5"/>
<polygon fill="black" stroke="black" points="1497.46,-157 1507.46,-153.5 1497.46,-150 1497.46,-157"/>
</g>
<!-- 140625756888640 -->
<g id="node5" class="node">
<title>140625756888640</title>
<polygon fill="none" stroke="black" points="518,-55.5 518,-91.5 844,-91.5 844,-55.5 518,-55.5"/>
<text text-anchor="middle" x="544" y="-69.8" font-family="Times,serif" font-size="14.00">v039</text>
<polyline fill="none" stroke="black" points="570,-55.5 570,-91.5 "/>
<text text-anchor="middle" x="580.5" y="-69.8" font-family="Times,serif" font-size="14.00"> </text>
<polyline fill="none" stroke="black" points="591,-55.5 591,-91.5 "/>
<text text-anchor="middle" x="601.5" y="-69.8" font-family="Times,serif" font-size="14.00"> </text>
<polyline fill="none" stroke="black" points="612,-55.5 612,-91.5 "/>
<text text-anchor="middle" x="622.5" y="-69.8" font-family="Times,serif" font-size="14.00"> </text>
<polyline fill="none" stroke="black" points="633,-55.5 633,-91.5 "/>
<text text-anchor="middle" x="686.5" y="-69.8" font-family="Times,serif" font-size="14.00">data &#45;0.6808</text>
<polyline fill="none" stroke="black" points="740,-55.5 740,-91.5 "/>
<text text-anchor="middle" x="792" y="-69.8" font-family="Times,serif" font-size="14.00">grad 1.0488</text>
</g>
<!-- 140625756884896+ -->
<g id="node23" class="node">
<title>140625756884896+</title>
<ellipse fill="none" stroke="black" cx="925" cy="-18.5" rx="27" ry="18"/>
<text text-anchor="middle" x="925" y="-14.8" font-family="Times,serif" font-size="14.00">+</text>
</g>
<!-- 140625756888640&#45;&gt;140625756884896+ -->
<g id="edge21" class="edge">
<title>140625756888640&#45;&gt;140625756884896+</title>
<path fill="none" stroke="black" d="M821.35,-55.48C835.19,-52.6 848.94,-49.29 862,-45.5 872.68,-42.4 883.95,-37.9 893.9,-33.45"/>
<polygon fill="black" stroke="black" points="895.37,-36.63 902.98,-29.26 892.44,-30.28 895.37,-36.63"/>
</g>
<!-- 140625756888640*&#45;&gt;140625756888640 -->
<g id="edge2" class="edge">
<title>140625756888640*&#45;&gt;140625756888640</title>
<path fill="none" stroke="black" d="M464.36,-73.5C476.08,-73.5 490.94,-73.5 507.37,-73.5"/>
<polygon fill="black" stroke="black" points="507.79,-77 517.79,-73.5 507.79,-70 507.79,-77"/>
</g>
<!-- 140625757228720 -->
<g id="node7" class="node">
<title>140625757228720</title>
<polygon fill="none" stroke="black" points="500,-110.5 500,-146.5 862,-146.5 862,-110.5 500,-110.5"/>
<text text-anchor="middle" x="526" y="-124.8" font-family="Times,serif" font-size="14.00">v002</text>
<polyline fill="none" stroke="black" points="552,-110.5 552,-146.5 "/>
<text text-anchor="middle" x="569.5" y="-124.8" font-family="Times,serif" font-size="14.00">L1</text>
<polyline fill="none" stroke="black" points="587,-110.5 587,-146.5 "/>
<text text-anchor="middle" x="606" y="-124.8" font-family="Times,serif" font-size="14.00">N1</text>
<polyline fill="none" stroke="black" points="625,-110.5 625,-146.5 "/>
<text text-anchor="middle" x="638" y="-124.8" font-family="Times,serif" font-size="14.00">b</text>
<polyline fill="none" stroke="black" points="651,-110.5 651,-146.5 "/>
<text text-anchor="middle" x="704.5" y="-124.8" font-family="Times,serif" font-size="14.00">data &#45;0.0949</text>
<polyline fill="none" stroke="black" points="758,-110.5 758,-146.5 "/>
<text text-anchor="middle" x="810" y="-124.8" font-family="Times,serif" font-size="14.00">grad 0.3723</text>
</g>
<!-- 140625756894496+ -->
<g id="node16" class="node">
<title>140625756894496+</title>
<ellipse fill="none" stroke="black" cx="925" cy="-183.5" rx="27" ry="18"/>
<text text-anchor="middle" x="925" y="-179.8" font-family="Times,serif" font-size="14.00">+</text>
</g>
<!-- 140625757228720&#45;&gt;140625756894496+ -->
<g id="edge20" class="edge">
<title>140625757228720&#45;&gt;140625756894496+</title>
<path fill="none" stroke="black" d="M821.35,-146.52C835.19,-149.4 848.94,-152.71 862,-156.5 872.68,-159.6 883.95,-164.1 893.9,-168.55"/>
<polygon fill="black" stroke="black" points="892.44,-171.72 902.98,-172.74 895.37,-165.37 892.44,-171.72"/>
</g>
<!-- 140625756888784 -->
<g id="node8" class="node">
<title>140625756888784</title>
<polygon fill="none" stroke="black" points="1885,-29.5 1885,-65.5 2211,-65.5 2211,-29.5 1885,-29.5"/>
<text text-anchor="middle" x="1911" y="-43.8" font-family="Times,serif" font-size="14.00">v043</text>
<polyline fill="none" stroke="black" points="1937,-29.5 1937,-65.5 "/>
<text text-anchor="middle" x="1947.5" y="-43.8" font-family="Times,serif" font-size="14.00"> </text>
<polyline fill="none" stroke="black" points="1958,-29.5 1958,-65.5 "/>
<text text-anchor="middle" x="1968.5" y="-43.8" font-family="Times,serif" font-size="14.00"> </text>
<polyline fill="none" stroke="black" points="1979,-29.5 1979,-65.5 "/>
<text text-anchor="middle" x="1989.5" y="-43.8" font-family="Times,serif" font-size="14.00"> </text>
<polyline fill="none" stroke="black" points="2000,-29.5 2000,-65.5 "/>
<text text-anchor="middle" x="2053.5" y="-43.8" font-family="Times,serif" font-size="14.00">data &#45;0.8897</text>
<polyline fill="none" stroke="black" points="2107,-29.5 2107,-65.5 "/>
<text text-anchor="middle" x="2159" y="-43.8" font-family="Times,serif" font-size="14.00">grad 1.0000</text>
</g>
<!-- 140625756896224+ -->
<g id="node26" class="node">
<title>140625756896224+</title>
<ellipse fill="none" stroke="black" cx="2631" cy="-74.5" rx="27" ry="18"/>
<text text-anchor="middle" x="2631" y="-70.8" font-family="Times,serif" font-size="14.00">+</text>
</g>
<!-- 140625756888784&#45;&gt;140625756896224+ -->
<g id="edge26" class="edge">
<title>140625756888784&#45;&gt;140625756896224+</title>
<path fill="none" stroke="black" d="M2211.23,-55.04C2342.75,-61.15 2518.16,-69.3 2593.31,-72.79"/>
<polygon fill="black" stroke="black" points="2593.5,-76.31 2603.65,-73.28 2593.82,-69.31 2593.5,-76.31"/>
</g>
<!-- 140625756888784* -->
<g id="node9" class="node">
<title>140625756888784*</title>
<ellipse fill="none" stroke="black" cx="1424" cy="-47.5" rx="27" ry="18"/>
<text text-anchor="middle" x="1424" y="-43.8" font-family="Times,serif" font-size="14.00">*</text>
</g>
<!-- 140625756888784*&#45;&gt;140625756888784 -->
<g id="edge3" class="edge">
<title>140625756888784*&#45;&gt;140625756888784</title>
<path fill="none" stroke="black" d="M1451.33,-47.5C1522.87,-47.5 1725.46,-47.5 1874.6,-47.5"/>
<polygon fill="black" stroke="black" points="1874.79,-51 1884.79,-47.5 1874.79,-44 1874.79,-51"/>
</g>
<!-- 140625756890848 -->
<g id="node10" class="node">
<title>140625756890848</title>
<polygon fill="none" stroke="black" points="520.5,-165.5 520.5,-201.5 841.5,-201.5 841.5,-165.5 520.5,-165.5"/>
<text text-anchor="middle" x="546.5" y="-179.8" font-family="Times,serif" font-size="14.00">v037</text>
<polyline fill="none" stroke="black" points="572.5,-165.5 572.5,-201.5 "/>
<text text-anchor="middle" x="583" y="-179.8" font-family="Times,serif" font-size="14.00"> </text>
<polyline fill="none" stroke="black" points="593.5,-165.5 593.5,-201.5 "/>
<text text-anchor="middle" x="604" y="-179.8" font-family="Times,serif" font-size="14.00"> </text>
<polyline fill="none" stroke="black" points="614.5,-165.5 614.5,-201.5 "/>
<text text-anchor="middle" x="625" y="-179.8" font-family="Times,serif" font-size="14.00"> </text>
<polyline fill="none" stroke="black" points="635.5,-165.5 635.5,-201.5 "/>
<text text-anchor="middle" x="686.5" y="-179.8" font-family="Times,serif" font-size="14.00">data 0.7796</text>
<polyline fill="none" stroke="black" points="737.5,-165.5 737.5,-201.5 "/>
<text text-anchor="middle" x="789.5" y="-179.8" font-family="Times,serif" font-size="14.00">grad 0.3723</text>
</g>
<!-- 140625756890848&#45;&gt;140625756894496+ -->
<g id="edge24" class="edge">
<title>140625756890848&#45;&gt;140625756894496+</title>
<path fill="none" stroke="black" d="M841.73,-183.5C858.54,-183.5 874.24,-183.5 887.32,-183.5"/>
<polygon fill="black" stroke="black" points="887.66,-187 897.66,-183.5 887.66,-180 887.66,-187"/>
</g>
<!-- 140625756890848*&#45;&gt;140625756890848 -->
<g id="edge4" class="edge">
<title>140625756890848*&#45;&gt;140625756890848</title>
<path fill="none" stroke="black" d="M464.36,-183.5C476.7,-183.5 492.53,-183.5 510,-183.5"/>
<polygon fill="black" stroke="black" points="510.46,-187 520.46,-183.5 510.46,-180 510.46,-187"/>
</g>
<!-- 140626157073648 -->
<g id="node12" class="node">
<title>140626157073648</title>
<polygon fill="none" stroke="black" points="20,-110.5 20,-146.5 354,-146.5 354,-110.5 20,-110.5"/>
<text text-anchor="middle" x="46" y="-124.8" font-family="Times,serif" font-size="14.00">v008</text>
<polyline fill="none" stroke="black" points="72,-110.5 72,-146.5 "/>
<text text-anchor="middle" x="82.5" y="-124.8" font-family="Times,serif" font-size="14.00"> </text>
<polyline fill="none" stroke="black" points="93,-110.5 93,-146.5 "/>
<text text-anchor="middle" x="103.5" y="-124.8" font-family="Times,serif" font-size="14.00"> </text>
<polyline fill="none" stroke="black" points="114,-110.5 114,-146.5 "/>
<text text-anchor="middle" x="129" y="-124.8" font-family="Times,serif" font-size="14.00">i1</text>
<polyline fill="none" stroke="black" points="144,-110.5 144,-146.5 "/>
<text text-anchor="middle" x="195" y="-124.8" font-family="Times,serif" font-size="14.00">data 4.0000</text>
<polyline fill="none" stroke="black" points="246,-110.5 246,-146.5 "/>
<text text-anchor="middle" x="300" y="-124.8" font-family="Times,serif" font-size="14.00">grad &#45;0.1059</text>
</g>
<!-- 140626157073648&#45;&gt;140625756888640* -->
<g id="edge22" class="edge">
<title>140626157073648&#45;&gt;140625756888640*</title>
<path fill="none" stroke="black" d="M332.99,-110.46C346.96,-107.59 360.82,-104.29 374,-100.5 384.69,-97.43 395.96,-92.93 405.91,-88.49"/>
<polygon fill="black" stroke="black" points="407.38,-91.66 414.99,-84.29 404.44,-85.31 407.38,-91.66"/>
</g>
<!-- 140626157073648&#45;&gt;140625756890848* -->
<g id="edge19" class="edge">
<title>140626157073648&#45;&gt;140625756890848*</title>
<path fill="none" stroke="black" d="M332.99,-146.54C346.96,-149.41 360.82,-152.71 374,-156.5 384.69,-159.57 395.96,-164.07 405.91,-168.51"/>
<polygon fill="black" stroke="black" points="404.44,-171.69 414.99,-172.71 407.38,-165.34 404.44,-171.69"/>
</g>
<!-- 140625757232368 -->
<g id="node13" class="node">
<title>140625757232368</title>
<polygon fill="none" stroke="black" points="990,-110.5 990,-146.5 1359,-146.5 1359,-110.5 990,-110.5"/>
<text text-anchor="middle" x="1016" y="-124.8" font-family="Times,serif" font-size="14.00">v005</text>
<polyline fill="none" stroke="black" points="1042,-110.5 1042,-146.5 "/>
<text text-anchor="middle" x="1059.5" y="-124.8" font-family="Times,serif" font-size="14.00">L2</text>
<polyline fill="none" stroke="black" points="1077,-110.5 1077,-146.5 "/>
<text text-anchor="middle" x="1096" y="-124.8" font-family="Times,serif" font-size="14.00">N1</text>
<polyline fill="none" stroke="black" points="1115,-110.5 1115,-146.5 "/>
<text text-anchor="middle" x="1134" y="-124.8" font-family="Times,serif" font-size="14.00">w1</text>
<polyline fill="none" stroke="black" points="1153,-110.5 1153,-146.5 "/>
<text text-anchor="middle" x="1204" y="-124.8" font-family="Times,serif" font-size="14.00">data 0.3371</text>
<polyline fill="none" stroke="black" points="1255,-110.5 1255,-146.5 "/>
<text text-anchor="middle" x="1307" y="-124.8" font-family="Times,serif" font-size="14.00">grad 0.7033</text>
</g>
<!-- 140625757232368&#45;&gt;140625756894256* -->
<g id="edge14" class="edge">
<title>140625757232368&#45;&gt;140625756894256*</title>
<path fill="none" stroke="black" d="M1353.73,-146.5C1365.98,-147.74 1377.35,-148.89 1387.18,-149.88"/>
<polygon fill="black" stroke="black" points="1386.91,-153.37 1397.21,-150.9 1387.62,-146.41 1386.91,-153.37"/>
</g>
<!-- 140625757228768 -->
<g id="node14" class="node">
<title>140625757228768</title>
<polygon fill="none" stroke="black" points="500,-0.5 500,-36.5 862,-36.5 862,-0.5 500,-0.5"/>
<text text-anchor="middle" x="526" y="-14.8" font-family="Times,serif" font-size="14.00">v004</text>
<polyline fill="none" stroke="black" points="552,-0.5 552,-36.5 "/>
<text text-anchor="middle" x="569.5" y="-14.8" font-family="Times,serif" font-size="14.00">L1</text>
<polyline fill="none" stroke="black" points="587,-0.5 587,-36.5 "/>
<text text-anchor="middle" x="606" y="-14.8" font-family="Times,serif" font-size="14.00">N2</text>
<polyline fill="none" stroke="black" points="625,-0.5 625,-36.5 "/>
<text text-anchor="middle" x="638" y="-14.8" font-family="Times,serif" font-size="14.00">b</text>
<polyline fill="none" stroke="black" points="651,-0.5 651,-36.5 "/>
<text text-anchor="middle" x="704.5" y="-14.8" font-family="Times,serif" font-size="14.00">data &#45;0.2200</text>
<polyline fill="none" stroke="black" points="758,-0.5 758,-36.5 "/>
<text text-anchor="middle" x="810" y="-14.8" font-family="Times,serif" font-size="14.00">grad 1.0488</text>
</g>
<!-- 140625757228768&#45;&gt;140625756884896+ -->
<g id="edge23" class="edge">
<title>140625757228768&#45;&gt;140625756884896+</title>
<path fill="none" stroke="black" d="M862.31,-18.5C871.5,-18.5 880.08,-18.5 887.76,-18.5"/>
<polygon fill="black" stroke="black" points="887.96,-22 897.96,-18.5 887.96,-15 887.96,-22"/>
</g>
<!-- 140625756894496 -->
<g id="node15" class="node">
<title>140625756894496</title>
<polygon fill="none" stroke="black" points="996.5,-165.5 996.5,-201.5 1352.5,-201.5 1352.5,-165.5 996.5,-165.5"/>
<text text-anchor="middle" x="1022.5" y="-179.8" font-family="Times,serif" font-size="14.00">v038</text>
<polyline fill="none" stroke="black" points="1048.5,-165.5 1048.5,-201.5 "/>
<text text-anchor="middle" x="1066" y="-179.8" font-family="Times,serif" font-size="14.00">L1</text>
<polyline fill="none" stroke="black" points="1083.5,-165.5 1083.5,-201.5 "/>
<text text-anchor="middle" x="1102.5" y="-179.8" font-family="Times,serif" font-size="14.00">N1</text>
<polyline fill="none" stroke="black" points="1121.5,-165.5 1121.5,-201.5 "/>
<text text-anchor="middle" x="1134" y="-179.8" font-family="Times,serif" font-size="14.00">a</text>
<polyline fill="none" stroke="black" points="1146.5,-165.5 1146.5,-201.5 "/>
<text text-anchor="middle" x="1197.5" y="-179.8" font-family="Times,serif" font-size="14.00">data 0.7033</text>
<polyline fill="none" stroke="black" points="1248.5,-165.5 1248.5,-201.5 "/>
<text text-anchor="middle" x="1300.5" y="-179.8" font-family="Times,serif" font-size="14.00">grad 0.3723</text>
</g>
<!-- 140625756894496&#45;&gt;140625756894256* -->
<g id="edge13" class="edge">
<title>140625756894496&#45;&gt;140625756894256*</title>
<path fill="none" stroke="black" d="M1324.11,-165.49C1347.58,-162.64 1369.8,-159.95 1387.21,-157.84"/>
<polygon fill="black" stroke="black" points="1387.89,-161.28 1397.4,-156.6 1387.05,-154.33 1387.89,-161.28"/>
</g>
<!-- 140625756894496+&#45;&gt;140625756894496 -->
<g id="edge5" class="edge">
<title>140625756894496+&#45;&gt;140625756894496</title>
<path fill="none" stroke="black" d="M952.02,-183.5C961.56,-183.5 973.24,-183.5 986.18,-183.5"/>
<polygon fill="black" stroke="black" points="986.32,-187 996.32,-183.5 986.32,-180 986.32,-187"/>
</g>
<!-- 140625756895552 -->
<g id="node17" class="node">
<title>140625756895552</title>
<polygon fill="none" stroke="black" points="2247,-82.5 2247,-118.5 2568,-118.5 2568,-82.5 2247,-82.5"/>
<text text-anchor="middle" x="2273" y="-96.8" font-family="Times,serif" font-size="14.00">v042</text>
<polyline fill="none" stroke="black" points="2299,-82.5 2299,-118.5 "/>
<text text-anchor="middle" x="2309.5" y="-96.8" font-family="Times,serif" font-size="14.00"> </text>
<polyline fill="none" stroke="black" points="2320,-82.5 2320,-118.5 "/>
<text text-anchor="middle" x="2330.5" y="-96.8" font-family="Times,serif" font-size="14.00"> </text>
<polyline fill="none" stroke="black" points="2341,-82.5 2341,-118.5 "/>
<text text-anchor="middle" x="2351.5" y="-96.8" font-family="Times,serif" font-size="14.00"> </text>
<polyline fill="none" stroke="black" points="2362,-82.5 2362,-118.5 "/>
<text text-anchor="middle" x="2413" y="-96.8" font-family="Times,serif" font-size="14.00">data 0.1118</text>
<polyline fill="none" stroke="black" points="2464,-82.5 2464,-118.5 "/>
<text text-anchor="middle" x="2516" y="-96.8" font-family="Times,serif" font-size="14.00">grad 1.0000</text>
</g>
<!-- 140625756895552&#45;&gt;140625756896224+ -->
<g id="edge25" class="edge">
<title>140625756895552&#45;&gt;140625756896224+</title>
<path fill="none" stroke="black" d="M2562.04,-82.48C2573.67,-81.11 2584.55,-79.83 2594.06,-78.72"/>
<polygon fill="black" stroke="black" points="2594.64,-82.17 2604.17,-77.53 2593.83,-75.22 2594.64,-82.17"/>
</g>
<!-- 140625756895552+&#45;&gt;140625756895552 -->
<g id="edge6" class="edge">
<title>140625756895552+&#45;&gt;140625756895552</title>
<path fill="none" stroke="black" d="M2075.29,-102.35C2110.03,-102.16 2174.19,-101.8 2236.86,-101.45"/>
<polygon fill="black" stroke="black" points="2236.92,-104.95 2246.9,-101.39 2236.88,-97.95 2236.92,-104.95"/>
</g>
<!-- 140625756883264 -->
<g id="node19" class="node">
<title>140625756883264</title>
<polygon fill="none" stroke="black" points="3181,-56.5 3181,-92.5 3502,-92.5 3502,-56.5 3181,-56.5"/>
<text text-anchor="middle" x="3207" y="-70.8" font-family="Times,serif" font-size="14.00">v045</text>
<polyline fill="none" stroke="black" points="3233,-56.5 3233,-92.5 "/>
<text text-anchor="middle" x="3243.5" y="-70.8" font-family="Times,serif" font-size="14.00"> </text>
<polyline fill="none" stroke="black" points="3254,-56.5 3254,-92.5 "/>
<text text-anchor="middle" x="3264.5" y="-70.8" font-family="Times,serif" font-size="14.00"> </text>
<polyline fill="none" stroke="black" points="3275,-56.5 3275,-92.5 "/>
<text text-anchor="middle" x="3285.5" y="-70.8" font-family="Times,serif" font-size="14.00"> </text>
<polyline fill="none" stroke="black" points="3296,-56.5 3296,-92.5 "/>
<text text-anchor="middle" x="3347" y="-70.8" font-family="Times,serif" font-size="14.00">data 0.6051</text>
<polyline fill="none" stroke="black" points="3398,-56.5 3398,-92.5 "/>
<text text-anchor="middle" x="3450" y="-70.8" font-family="Times,serif" font-size="14.00">grad 0.0000</text>
</g>
<!-- 140625756883264* -->
<g id="node20" class="node">
<title>140625756883264*</title>
<ellipse fill="none" stroke="black" cx="3118" cy="-74.5" rx="27" ry="18"/>
<text text-anchor="middle" x="3118" y="-70.8" font-family="Times,serif" font-size="14.00">*</text>
</g>
<!-- 140625756883264*&#45;&gt;140625756883264 -->
<g id="edge7" class="edge">
<title>140625756883264*&#45;&gt;140625756883264</title>
<path fill="none" stroke="black" d="M3145.28,-74.5C3152.68,-74.5 3161.32,-74.5 3170.76,-74.5"/>
<polygon fill="black" stroke="black" points="3170.88,-78 3180.88,-74.5 3170.88,-71 3170.88,-78"/>
</g>
<!-- 140625757226464 -->
<g id="node21" class="node">
<title>140625757226464</title>
<polygon fill="none" stroke="black" points="988,-55.5 988,-91.5 1361,-91.5 1361,-55.5 988,-55.5"/>
<text text-anchor="middle" x="1014" y="-69.8" font-family="Times,serif" font-size="14.00">v006</text>
<polyline fill="none" stroke="black" points="1040,-55.5 1040,-91.5 "/>
<text text-anchor="middle" x="1057.5" y="-69.8" font-family="Times,serif" font-size="14.00">L2</text>
<polyline fill="none" stroke="black" points="1075,-55.5 1075,-91.5 "/>
<text text-anchor="middle" x="1094" y="-69.8" font-family="Times,serif" font-size="14.00">N1</text>
<polyline fill="none" stroke="black" points="1113,-55.5 1113,-91.5 "/>
<text text-anchor="middle" x="1132" y="-69.8" font-family="Times,serif" font-size="14.00">w2</text>
<polyline fill="none" stroke="black" points="1151,-55.5 1151,-91.5 "/>
<text text-anchor="middle" x="1202" y="-69.8" font-family="Times,serif" font-size="14.00">data 1.0912</text>
<polyline fill="none" stroke="black" points="1253,-55.5 1253,-91.5 "/>
<text text-anchor="middle" x="1307" y="-69.8" font-family="Times,serif" font-size="14.00">grad &#45;0.8484</text>
</g>
<!-- 140625757226464&#45;&gt;140625756888784* -->
<g id="edge11" class="edge">
<title>140625757226464&#45;&gt;140625756888784*</title>
<path fill="none" stroke="black" d="M1347.06,-55.48C1361.89,-53.92 1375.64,-52.47 1387.25,-51.26"/>
<polygon fill="black" stroke="black" points="1387.7,-54.73 1397.28,-50.2 1386.97,-47.77 1387.7,-54.73"/>
</g>
<!-- 140625756884896 -->
<g id="node22" class="node">
<title>140625756884896</title>
<polygon fill="none" stroke="black" points="994,-0.5 994,-36.5 1355,-36.5 1355,-0.5 994,-0.5"/>
<text text-anchor="middle" x="1020" y="-14.8" font-family="Times,serif" font-size="14.00">v040</text>
<polyline fill="none" stroke="black" points="1046,-0.5 1046,-36.5 "/>
<text text-anchor="middle" x="1063.5" y="-14.8" font-family="Times,serif" font-size="14.00">L1</text>
<polyline fill="none" stroke="black" points="1081,-0.5 1081,-36.5 "/>
<text text-anchor="middle" x="1100" y="-14.8" font-family="Times,serif" font-size="14.00">N2</text>
<polyline fill="none" stroke="black" points="1119,-0.5 1119,-36.5 "/>
<text text-anchor="middle" x="1131.5" y="-14.8" font-family="Times,serif" font-size="14.00">a</text>
<polyline fill="none" stroke="black" points="1144,-0.5 1144,-36.5 "/>
<text text-anchor="middle" x="1197.5" y="-14.8" font-family="Times,serif" font-size="14.00">data &#45;0.8484</text>
<polyline fill="none" stroke="black" points="1251,-0.5 1251,-36.5 "/>
<text text-anchor="middle" x="1303" y="-14.8" font-family="Times,serif" font-size="14.00">grad 1.0488</text>
</g>
<!-- 140625756884896&#45;&gt;140625756888784* -->
<g id="edge17" class="edge">
<title>140625756884896&#45;&gt;140625756888784*</title>
<path fill="none" stroke="black" d="M1329.43,-36.54C1350.88,-39.05 1371.04,-41.41 1387.12,-43.3"/>
<polygon fill="black" stroke="black" points="1386.73,-46.77 1397.06,-44.46 1387.54,-39.82 1386.73,-46.77"/>
</g>
<!-- 140625756884896+&#45;&gt;140625756884896 -->
<g id="edge8" class="edge">
<title>140625756884896+&#45;&gt;140625756884896</title>
<path fill="none" stroke="black" d="M952.02,-18.5C960.94,-18.5 971.72,-18.5 983.66,-18.5"/>
<polygon fill="black" stroke="black" points="983.95,-22 993.95,-18.5 983.95,-15 983.95,-22"/>
</g>
<!-- 140625757226416 -->
<g id="node24" class="node">
<title>140625757226416</title>
<polygon fill="none" stroke="black" points="1487,-80.5 1487,-116.5 1849,-116.5 1849,-80.5 1487,-80.5"/>
<text text-anchor="middle" x="1513" y="-94.8" font-family="Times,serif" font-size="14.00">v007</text>
<polyline fill="none" stroke="black" points="1539,-80.5 1539,-116.5 "/>
<text text-anchor="middle" x="1556.5" y="-94.8" font-family="Times,serif" font-size="14.00">L2</text>
<polyline fill="none" stroke="black" points="1574,-80.5 1574,-116.5 "/>
<text text-anchor="middle" x="1593" y="-94.8" font-family="Times,serif" font-size="14.00">N1</text>
<polyline fill="none" stroke="black" points="1612,-80.5 1612,-116.5 "/>
<text text-anchor="middle" x="1625" y="-94.8" font-family="Times,serif" font-size="14.00">b</text>
<polyline fill="none" stroke="black" points="1638,-80.5 1638,-116.5 "/>
<text text-anchor="middle" x="1691.5" y="-94.8" font-family="Times,serif" font-size="14.00">data &#45;0.2000</text>
<polyline fill="none" stroke="black" points="1745,-80.5 1745,-116.5 "/>
<text text-anchor="middle" x="1797" y="-94.8" font-family="Times,serif" font-size="14.00">grad 1.0000</text>
</g>
<!-- 140625757226416&#45;&gt;140625756895552+ -->
<g id="edge10" class="edge">
<title>140625757226416&#45;&gt;140625756895552+</title>
<path fill="none" stroke="black" d="M1849.14,-100.41C1910.32,-101.05 1972.75,-101.71 2010.69,-102.12"/>
<polygon fill="black" stroke="black" points="2010.68,-105.62 2020.72,-102.22 2010.76,-98.62 2010.68,-105.62"/>
</g>
<!-- 140625756896224 -->
<g id="node25" class="node">
<title>140625756896224</title>
<polygon fill="none" stroke="black" points="2694,-56.5 2694,-92.5 3055,-92.5 3055,-56.5 2694,-56.5"/>
<text text-anchor="middle" x="2720" y="-70.8" font-family="Times,serif" font-size="14.00">v044</text>
<polyline fill="none" stroke="black" points="2746,-56.5 2746,-92.5 "/>
<text text-anchor="middle" x="2763.5" y="-70.8" font-family="Times,serif" font-size="14.00">L2</text>
<polyline fill="none" stroke="black" points="2781,-56.5 2781,-92.5 "/>
<text text-anchor="middle" x="2800" y="-70.8" font-family="Times,serif" font-size="14.00">N1</text>
<polyline fill="none" stroke="black" points="2819,-56.5 2819,-92.5 "/>
<text text-anchor="middle" x="2831.5" y="-70.8" font-family="Times,serif" font-size="14.00">a</text>
<polyline fill="none" stroke="black" points="2844,-56.5 2844,-92.5 "/>
<text text-anchor="middle" x="2897.5" y="-70.8" font-family="Times,serif" font-size="14.00">data &#45;0.7779</text>
<polyline fill="none" stroke="black" points="2951,-56.5 2951,-92.5 "/>
<text text-anchor="middle" x="3003" y="-70.8" font-family="Times,serif" font-size="14.00">grad 1.0000</text>
</g>
<!-- 140625756896224&#45;&gt;140625756883264* -->
<g id="edge16" class="edge">
<title>140625756896224&#45;&gt;140625756883264*</title>
<path fill="none" stroke="black" d="M3055.12,-74.5C3064.34,-74.5 3072.94,-74.5 3080.64,-74.5"/>
<polygon fill="black" stroke="black" points="3080.87,-78 3090.87,-74.5 3080.87,-71 3080.87,-78"/>
</g>
<!-- 140625756896224+&#45;&gt;140625756896224 -->
<g id="edge9" class="edge">
<title>140625756896224+&#45;&gt;140625756896224</title>
<path fill="none" stroke="black" d="M2658.3,-74.5C2665.65,-74.5 2674.24,-74.5 2683.68,-74.5"/>
<polygon fill="black" stroke="black" points="2683.81,-78 2693.81,-74.5 2683.81,-71 2683.81,-78"/>
</g>
</g>
</svg>
