<?xml version="1.0" encoding="UTF-8" standalone="no"?>
<!DOCTYPE svg PUBLIC "-//W3C//DTD SVG 1.1//EN"
 "http://www.w3.org/Graphics/SVG/1.1/DTD/svg11.dtd">
<!-- Generated by graphviz version 2.43.0 (0)
 -->
<!-- Title: %3 Pages: 1 -->
<svg width="3068pt" height="210pt"
 viewBox="0.00 0.00 3068.00 210.00" xmlns="http://www.w3.org/2000/svg" xmlns:xlink="http://www.w3.org/1999/xlink">
<g id="graph0" class="graph" transform="scale(1 1) rotate(0) translate(4 206)">
<title>%3</title>
<polygon fill="white" stroke="transparent" points="-4,4 -4,-206 3064,-206 3064,4 -4,4"/>
<!-- 139883735115776 -->
<g id="node1" class="node">
<title>139883735115776</title>
<polygon fill="none" stroke="black" points="518,-55.5 518,-91.5 844,-91.5 844,-55.5 518,-55.5"/>
<text text-anchor="middle" x="544" y="-69.8" font-family="Times,serif" font-size="14.00">v072</text>
<polyline fill="none" stroke="black" points="570,-55.5 570,-91.5 "/>
<text text-anchor="middle" x="580.5" y="-69.8" font-family="Times,serif" font-size="14.00"> </text>
<polyline fill="none" stroke="black" points="591,-55.5 591,-91.5 "/>
<text text-anchor="middle" x="601.5" y="-69.8" font-family="Times,serif" font-size="14.00"> </text>
<polyline fill="none" stroke="black" points="612,-55.5 612,-91.5 "/>
<text text-anchor="middle" x="622.5" y="-69.8" font-family="Times,serif" font-size="14.00"> </text>
<polyline fill="none" stroke="black" points="633,-55.5 633,-91.5 "/>
<text text-anchor="middle" x="686.5" y="-69.8" font-family="Times,serif" font-size="14.00">data &#45;1.5198</text>
<polyline fill="none" stroke="black" points="740,-55.5 740,-91.5 "/>
<text text-anchor="middle" x="792" y="-69.8" font-family="Times,serif" font-size="14.00">grad 1.0912</text>
</g>
<!-- 139883734298160+ -->
<g id="node7" class="node">
<title>139883734298160+</title>
<ellipse fill="none" stroke="black" cx="925" cy="-73.5" rx="27" ry="18"/>
<text text-anchor="middle" x="925" y="-69.8" font-family="Times,serif" font-size="14.00">+</text>
</g>
<!-- 139883735115776&#45;&gt;139883734298160+ -->
<g id="edge23" class="edge">
<title>139883735115776&#45;&gt;139883734298160+</title>
<path fill="none" stroke="black" d="M844.09,-73.5C860.07,-73.5 874.97,-73.5 887.47,-73.5"/>
<polygon fill="black" stroke="black" points="887.8,-77 897.8,-73.5 887.8,-70 887.8,-77"/>
</g>
<!-- 139883735115776* -->
<g id="node2" class="node">
<title>139883735115776*</title>
<ellipse fill="none" stroke="black" cx="437" cy="-73.5" rx="27" ry="18"/>
<text text-anchor="middle" x="437" y="-69.8" font-family="Times,serif" font-size="14.00">*</text>
</g>
<!-- 139883735115776*&#45;&gt;139883735115776 -->
<g id="edge1" class="edge">
<title>139883735115776*&#45;&gt;139883735115776</title>
<path fill="none" stroke="black" d="M464.36,-73.5C476.08,-73.5 490.94,-73.5 507.37,-73.5"/>
<polygon fill="black" stroke="black" points="507.79,-77 517.79,-73.5 507.79,-70 507.79,-77"/>
</g>
<!-- 139883734295568 -->
<g id="node3" class="node">
<title>139883734295568</title>
<polygon fill="none" stroke="black" points="2699,-82.5 2699,-118.5 3060,-118.5 3060,-82.5 2699,-82.5"/>
<text text-anchor="middle" x="2725" y="-96.8" font-family="Times,serif" font-size="14.00">v077</text>
<polyline fill="none" stroke="black" points="2751,-82.5 2751,-118.5 "/>
<text text-anchor="middle" x="2768.5" y="-96.8" font-family="Times,serif" font-size="14.00">L2</text>
<polyline fill="none" stroke="black" points="2786,-82.5 2786,-118.5 "/>
<text text-anchor="middle" x="2805" y="-96.8" font-family="Times,serif" font-size="14.00">N1</text>
<polyline fill="none" stroke="black" points="2824,-82.5 2824,-118.5 "/>
<text text-anchor="middle" x="2836.5" y="-96.8" font-family="Times,serif" font-size="14.00">a</text>
<polyline fill="none" stroke="black" points="2849,-82.5 2849,-118.5 "/>
<text text-anchor="middle" x="2902.5" y="-96.8" font-family="Times,serif" font-size="14.00">data &#45;1.9680</text>
<polyline fill="none" stroke="black" points="2956,-82.5 2956,-118.5 "/>
<text text-anchor="middle" x="3008" y="-96.8" font-family="Times,serif" font-size="14.00">grad 1.0000</text>
</g>
<!-- 139883734295568+ -->
<g id="node4" class="node">
<title>139883734295568+</title>
<ellipse fill="none" stroke="black" cx="2636" cy="-100.5" rx="27" ry="18"/>
<text text-anchor="middle" x="2636" y="-96.8" font-family="Times,serif" font-size="14.00">+</text>
</g>
<!-- 139883734295568+&#45;&gt;139883734295568 -->
<g id="edge2" class="edge">
<title>139883734295568+&#45;&gt;139883734295568</title>
<path fill="none" stroke="black" d="M2663.3,-100.5C2670.65,-100.5 2679.24,-100.5 2688.68,-100.5"/>
<polygon fill="black" stroke="black" points="2688.81,-104 2698.81,-100.5 2688.81,-97 2688.81,-104"/>
</g>
<!-- 139883734297632 -->
<g id="node5" class="node">
<title>139883734297632</title>
<polygon fill="none" stroke="black" points="500,-165.5 500,-201.5 862,-201.5 862,-165.5 500,-165.5"/>
<text text-anchor="middle" x="526" y="-179.8" font-family="Times,serif" font-size="14.00">v002</text>
<polyline fill="none" stroke="black" points="552,-165.5 552,-201.5 "/>
<text text-anchor="middle" x="569.5" y="-179.8" font-family="Times,serif" font-size="14.00">L1</text>
<polyline fill="none" stroke="black" points="587,-165.5 587,-201.5 "/>
<text text-anchor="middle" x="606" y="-179.8" font-family="Times,serif" font-size="14.00">N1</text>
<polyline fill="none" stroke="black" points="625,-165.5 625,-201.5 "/>
<text text-anchor="middle" x="638" y="-179.8" font-family="Times,serif" font-size="14.00">b</text>
<polyline fill="none" stroke="black" points="651,-165.5 651,-201.5 "/>
<text text-anchor="middle" x="704.5" y="-179.8" font-family="Times,serif" font-size="14.00">data &#45;0.0949</text>
<polyline fill="none" stroke="black" points="758,-165.5 758,-201.5 "/>
<text text-anchor="middle" x="810" y="-179.8" font-family="Times,serif" font-size="14.00">grad 0.3371</text>
</g>
<!-- 139883735118800+ -->
<g id="node12" class="node">
<title>139883735118800+</title>
<ellipse fill="none" stroke="black" cx="925" cy="-128.5" rx="27" ry="18"/>
<text text-anchor="middle" x="925" y="-124.8" font-family="Times,serif" font-size="14.00">+</text>
</g>
<!-- 139883734297632&#45;&gt;139883735118800+ -->
<g id="edge20" class="edge">
<title>139883734297632&#45;&gt;139883735118800+</title>
<path fill="none" stroke="black" d="M826.22,-165.49C838.42,-162.88 850.48,-159.89 862,-156.5 872.82,-153.31 884.19,-148.61 894.2,-143.96"/>
<polygon fill="black" stroke="black" points="895.82,-147.06 903.32,-139.57 892.79,-140.76 895.82,-147.06"/>
</g>
<!-- 139883734298160 -->
<g id="node6" class="node">
<title>139883734298160</title>
<polygon fill="none" stroke="black" points="994,-55.5 994,-91.5 1355,-91.5 1355,-55.5 994,-55.5"/>
<text text-anchor="middle" x="1020" y="-69.8" font-family="Times,serif" font-size="14.00">v073</text>
<polyline fill="none" stroke="black" points="1046,-55.5 1046,-91.5 "/>
<text text-anchor="middle" x="1063.5" y="-69.8" font-family="Times,serif" font-size="14.00">L1</text>
<polyline fill="none" stroke="black" points="1081,-55.5 1081,-91.5 "/>
<text text-anchor="middle" x="1100" y="-69.8" font-family="Times,serif" font-size="14.00">N2</text>
<polyline fill="none" stroke="black" points="1119,-55.5 1119,-91.5 "/>
<text text-anchor="middle" x="1131.5" y="-69.8" font-family="Times,serif" font-size="14.00">a</text>
<polyline fill="none" stroke="black" points="1144,-55.5 1144,-91.5 "/>
<text text-anchor="middle" x="1197.5" y="-69.8" font-family="Times,serif" font-size="14.00">data &#45;1.7398</text>
<polyline fill="none" stroke="black" points="1251,-55.5 1251,-91.5 "/>
<text text-anchor="middle" x="1303" y="-69.8" font-family="Times,serif" font-size="14.00">grad 1.0912</text>
</g>
<!-- 139883734292112* -->
<g id="node10" class="node">
<title>139883734292112*</title>
<ellipse fill="none" stroke="black" cx="1424" cy="-73.5" rx="27" ry="18"/>
<text text-anchor="middle" x="1424" y="-69.8" font-family="Times,serif" font-size="14.00">*</text>
</g>
<!-- 139883734298160&#45;&gt;139883734292112* -->
<g id="edge21" class="edge">
<title>139883734298160&#45;&gt;139883734292112*</title>
<path fill="none" stroke="black" d="M1355.04,-73.5C1366.51,-73.5 1377.18,-73.5 1386.5,-73.5"/>
<polygon fill="black" stroke="black" points="1386.79,-77 1396.79,-73.5 1386.79,-70 1386.79,-77"/>
</g>
<!-- 139883734298160+&#45;&gt;139883734298160 -->
<g id="edge3" class="edge">
<title>139883734298160+&#45;&gt;139883734298160</title>
<path fill="none" stroke="black" d="M952.02,-73.5C960.94,-73.5 971.72,-73.5 983.66,-73.5"/>
<polygon fill="black" stroke="black" points="983.95,-77 993.95,-73.5 983.95,-70 983.95,-77"/>
</g>
<!-- 139883124658752 -->
<g id="node8" class="node">
<title>139883124658752</title>
<polygon fill="none" stroke="black" points="990,-165.5 990,-201.5 1359,-201.5 1359,-165.5 990,-165.5"/>
<text text-anchor="middle" x="1016" y="-179.8" font-family="Times,serif" font-size="14.00">v005</text>
<polyline fill="none" stroke="black" points="1042,-165.5 1042,-201.5 "/>
<text text-anchor="middle" x="1059.5" y="-179.8" font-family="Times,serif" font-size="14.00">L2</text>
<polyline fill="none" stroke="black" points="1077,-165.5 1077,-201.5 "/>
<text text-anchor="middle" x="1096" y="-179.8" font-family="Times,serif" font-size="14.00">N1</text>
<polyline fill="none" stroke="black" points="1115,-165.5 1115,-201.5 "/>
<text text-anchor="middle" x="1134" y="-179.8" font-family="Times,serif" font-size="14.00">w1</text>
<polyline fill="none" stroke="black" points="1153,-165.5 1153,-201.5 "/>
<text text-anchor="middle" x="1204" y="-179.8" font-family="Times,serif" font-size="14.00">data 0.3371</text>
<polyline fill="none" stroke="black" points="1255,-165.5 1255,-201.5 "/>
<text text-anchor="middle" x="1307" y="-179.8" font-family="Times,serif" font-size="14.00">grad 0.3869</text>
</g>
<!-- 139883734291440* -->
<g id="node24" class="node">
<title>139883734291440*</title>
<ellipse fill="none" stroke="black" cx="1424" cy="-128.5" rx="27" ry="18"/>
<text text-anchor="middle" x="1424" y="-124.8" font-family="Times,serif" font-size="14.00">*</text>
</g>
<!-- 139883124658752&#45;&gt;139883734291440* -->
<g id="edge24" class="edge">
<title>139883124658752&#45;&gt;139883734291440*</title>
<path fill="none" stroke="black" d="M1325.12,-165.45C1337.35,-162.84 1349.44,-159.88 1361,-156.5 1371.82,-153.34 1383.2,-148.64 1393.21,-143.99"/>
<polygon fill="black" stroke="black" points="1394.83,-147.09 1402.32,-139.6 1391.8,-140.78 1394.83,-147.09"/>
</g>
<!-- 139883734292112 -->
<g id="node9" class="node">
<title>139883734292112</title>
<polygon fill="none" stroke="black" points="1885,-55.5 1885,-91.5 2211,-91.5 2211,-55.5 1885,-55.5"/>
<text text-anchor="middle" x="1911" y="-69.8" font-family="Times,serif" font-size="14.00">v076</text>
<polyline fill="none" stroke="black" points="1937,-55.5 1937,-91.5 "/>
<text text-anchor="middle" x="1947.5" y="-69.8" font-family="Times,serif" font-size="14.00"> </text>
<polyline fill="none" stroke="black" points="1958,-55.5 1958,-91.5 "/>
<text text-anchor="middle" x="1968.5" y="-69.8" font-family="Times,serif" font-size="14.00"> </text>
<polyline fill="none" stroke="black" points="1979,-55.5 1979,-91.5 "/>
<text text-anchor="middle" x="1989.5" y="-69.8" font-family="Times,serif" font-size="14.00"> </text>
<polyline fill="none" stroke="black" points="2000,-55.5 2000,-91.5 "/>
<text text-anchor="middle" x="2053.5" y="-69.8" font-family="Times,serif" font-size="14.00">data &#45;1.8984</text>
<polyline fill="none" stroke="black" points="2107,-55.5 2107,-91.5 "/>
<text text-anchor="middle" x="2159" y="-69.8" font-family="Times,serif" font-size="14.00">grad 1.0000</text>
</g>
<!-- 139883734292112&#45;&gt;139883734295568+ -->
<g id="edge22" class="edge">
<title>139883734292112&#45;&gt;139883734295568+</title>
<path fill="none" stroke="black" d="M2211.07,-80.97C2344.09,-87.1 2522.44,-95.31 2598.34,-98.81"/>
<polygon fill="black" stroke="black" points="2598.62,-102.33 2608.77,-99.29 2598.95,-95.33 2598.62,-102.33"/>
</g>
<!-- 139883734292112*&#45;&gt;139883734292112 -->
<g id="edge4" class="edge">
<title>139883734292112*&#45;&gt;139883734292112</title>
<path fill="none" stroke="black" d="M1451.33,-73.5C1522.87,-73.5 1725.46,-73.5 1874.6,-73.5"/>
<polygon fill="black" stroke="black" points="1874.79,-77 1884.79,-73.5 1874.79,-70 1874.79,-77"/>
</g>
<!-- 139883735118800 -->
<g id="node11" class="node">
<title>139883735118800</title>
<polygon fill="none" stroke="black" points="996.5,-110.5 996.5,-146.5 1352.5,-146.5 1352.5,-110.5 996.5,-110.5"/>
<text text-anchor="middle" x="1022.5" y="-124.8" font-family="Times,serif" font-size="14.00">v071</text>
<polyline fill="none" stroke="black" points="1048.5,-110.5 1048.5,-146.5 "/>
<text text-anchor="middle" x="1066" y="-124.8" font-family="Times,serif" font-size="14.00">L1</text>
<polyline fill="none" stroke="black" points="1083.5,-110.5 1083.5,-146.5 "/>
<text text-anchor="middle" x="1102.5" y="-124.8" font-family="Times,serif" font-size="14.00">N1</text>
<polyline fill="none" stroke="black" points="1121.5,-110.5 1121.5,-146.5 "/>
<text text-anchor="middle" x="1134" y="-124.8" font-family="Times,serif" font-size="14.00">a</text>
<polyline fill="none" stroke="black" points="1146.5,-110.5 1146.5,-146.5 "/>
<text text-anchor="middle" x="1197.5" y="-124.8" font-family="Times,serif" font-size="14.00">data 0.3869</text>
<polyline fill="none" stroke="black" points="1248.5,-110.5 1248.5,-146.5 "/>
<text text-anchor="middle" x="1300.5" y="-124.8" font-family="Times,serif" font-size="14.00">grad 0.3371</text>
</g>
<!-- 139883735118800&#45;&gt;139883734291440* -->
<g id="edge17" class="edge">
<title>139883735118800&#45;&gt;139883734291440*</title>
<path fill="none" stroke="black" d="M1352.74,-128.5C1365.14,-128.5 1376.66,-128.5 1386.63,-128.5"/>
<polygon fill="black" stroke="black" points="1386.81,-132 1396.81,-128.5 1386.81,-125 1386.81,-132"/>
</g>
<!-- 139883735118800+&#45;&gt;139883735118800 -->
<g id="edge5" class="edge">
<title>139883735118800+&#45;&gt;139883735118800</title>
<path fill="none" stroke="black" d="M952.02,-128.5C961.56,-128.5 973.24,-128.5 986.18,-128.5"/>
<polygon fill="black" stroke="black" points="986.32,-132 996.32,-128.5 986.32,-125 986.32,-132"/>
</g>
<!-- 139883124664080 -->
<g id="node13" class="node">
<title>139883124664080</title>
<polygon fill="none" stroke="black" points="1487,-165.5 1487,-201.5 1849,-201.5 1849,-165.5 1487,-165.5"/>
<text text-anchor="middle" x="1513" y="-179.8" font-family="Times,serif" font-size="14.00">v007</text>
<polyline fill="none" stroke="black" points="1539,-165.5 1539,-201.5 "/>
<text text-anchor="middle" x="1556.5" y="-179.8" font-family="Times,serif" font-size="14.00">L2</text>
<polyline fill="none" stroke="black" points="1574,-165.5 1574,-201.5 "/>
<text text-anchor="middle" x="1593" y="-179.8" font-family="Times,serif" font-size="14.00">N1</text>
<polyline fill="none" stroke="black" points="1612,-165.5 1612,-201.5 "/>
<text text-anchor="middle" x="1625" y="-179.8" font-family="Times,serif" font-size="14.00">b</text>
<polyline fill="none" stroke="black" points="1638,-165.5 1638,-201.5 "/>
<text text-anchor="middle" x="1691.5" y="-179.8" font-family="Times,serif" font-size="14.00">data &#45;0.2000</text>
<polyline fill="none" stroke="black" points="1745,-165.5 1745,-201.5 "/>
<text text-anchor="middle" x="1797" y="-179.8" font-family="Times,serif" font-size="14.00">grad 1.0000</text>
</g>
<!-- 139883734293456+ -->
<g id="node22" class="node">
<title>139883734293456+</title>
<ellipse fill="none" stroke="black" cx="2048" cy="-128.5" rx="27" ry="18"/>
<text text-anchor="middle" x="2048" y="-124.8" font-family="Times,serif" font-size="14.00">+</text>
</g>
<!-- 139883124664080&#45;&gt;139883734293456+ -->
<g id="edge19" class="edge">
<title>139883124664080&#45;&gt;139883734293456+</title>
<path fill="none" stroke="black" d="M1792.77,-165.49C1869.16,-154.38 1961.75,-140.9 2011.41,-133.68"/>
<polygon fill="black" stroke="black" points="2011.94,-137.14 2021.33,-132.23 2010.93,-130.21 2011.94,-137.14"/>
</g>
<!-- 139883734292256 -->
<g id="node14" class="node">
<title>139883734292256</title>
<polygon fill="none" stroke="black" points="2.5,-138.5 2.5,-174.5 371.5,-174.5 371.5,-138.5 2.5,-138.5"/>
<text text-anchor="middle" x="28.5" y="-152.8" font-family="Times,serif" font-size="14.00">v001</text>
<polyline fill="none" stroke="black" points="54.5,-138.5 54.5,-174.5 "/>
<text text-anchor="middle" x="72" y="-152.8" font-family="Times,serif" font-size="14.00">L1</text>
<polyline fill="none" stroke="black" points="89.5,-138.5 89.5,-174.5 "/>
<text text-anchor="middle" x="108.5" y="-152.8" font-family="Times,serif" font-size="14.00">N1</text>
<polyline fill="none" stroke="black" points="127.5,-138.5 127.5,-174.5 "/>
<text text-anchor="middle" x="146.5" y="-152.8" font-family="Times,serif" font-size="14.00">w1</text>
<polyline fill="none" stroke="black" points="165.5,-138.5 165.5,-174.5 "/>
<text text-anchor="middle" x="216.5" y="-152.8" font-family="Times,serif" font-size="14.00">data 0.1204</text>
<polyline fill="none" stroke="black" points="267.5,-138.5 267.5,-174.5 "/>
<text text-anchor="middle" x="319.5" y="-152.8" font-family="Times,serif" font-size="14.00">grad 1.3483</text>
</g>
<!-- 139883735116208* -->
<g id="node20" class="node">
<title>139883735116208*</title>
<ellipse fill="none" stroke="black" cx="437" cy="-128.5" rx="27" ry="18"/>
<text text-anchor="middle" x="437" y="-124.8" font-family="Times,serif" font-size="14.00">*</text>
</g>
<!-- 139883734292256&#45;&gt;139883735116208* -->
<g id="edge10" class="edge">
<title>139883734292256&#45;&gt;139883735116208*</title>
<path fill="none" stroke="black" d="M347.52,-138.49C367.04,-136.29 385.28,-134.23 400.06,-132.56"/>
<polygon fill="black" stroke="black" points="400.64,-136.01 410.19,-131.41 399.86,-129.06 400.64,-136.01"/>
</g>
<!-- 139883124658992 -->
<g id="node15" class="node">
<title>139883124658992</title>
<polygon fill="none" stroke="black" points="500,-0.5 500,-36.5 862,-36.5 862,-0.5 500,-0.5"/>
<text text-anchor="middle" x="526" y="-14.8" font-family="Times,serif" font-size="14.00">v004</text>
<polyline fill="none" stroke="black" points="552,-0.5 552,-36.5 "/>
<text text-anchor="middle" x="569.5" y="-14.8" font-family="Times,serif" font-size="14.00">L1</text>
<polyline fill="none" stroke="black" points="587,-0.5 587,-36.5 "/>
<text text-anchor="middle" x="606" y="-14.8" font-family="Times,serif" font-size="14.00">N2</text>
<polyline fill="none" stroke="black" points="625,-0.5 625,-36.5 "/>
<text text-anchor="middle" x="638" y="-14.8" font-family="Times,serif" font-size="14.00">b</text>
<polyline fill="none" stroke="black" points="651,-0.5 651,-36.5 "/>
<text text-anchor="middle" x="704.5" y="-14.8" font-family="Times,serif" font-size="14.00">data &#45;0.2200</text>
<polyline fill="none" stroke="black" points="758,-0.5 758,-36.5 "/>
<text text-anchor="middle" x="810" y="-14.8" font-family="Times,serif" font-size="14.00">grad 1.0912</text>
</g>
<!-- 139883124658992&#45;&gt;139883734298160+ -->
<g id="edge13" class="edge">
<title>139883124658992&#45;&gt;139883734298160+</title>
<path fill="none" stroke="black" d="M821.35,-36.52C835.19,-39.4 848.94,-42.71 862,-46.5 872.68,-49.6 883.95,-54.1 893.9,-58.55"/>
<polygon fill="black" stroke="black" points="892.44,-61.72 902.98,-62.74 895.37,-55.37 892.44,-61.72"/>
</g>
<!-- 139883124664128 -->
<g id="node16" class="node">
<title>139883124664128</title>
<polygon fill="none" stroke="black" points="988,-0.5 988,-36.5 1361,-36.5 1361,-0.5 988,-0.5"/>
<text text-anchor="middle" x="1014" y="-14.8" font-family="Times,serif" font-size="14.00">v006</text>
<polyline fill="none" stroke="black" points="1040,-0.5 1040,-36.5 "/>
<text text-anchor="middle" x="1057.5" y="-14.8" font-family="Times,serif" font-size="14.00">L2</text>
<polyline fill="none" stroke="black" points="1075,-0.5 1075,-36.5 "/>
<text text-anchor="middle" x="1094" y="-14.8" font-family="Times,serif" font-size="14.00">N1</text>
<polyline fill="none" stroke="black" points="1113,-0.5 1113,-36.5 "/>
<text text-anchor="middle" x="1132" y="-14.8" font-family="Times,serif" font-size="14.00">w2</text>
<polyline fill="none" stroke="black" points="1151,-0.5 1151,-36.5 "/>
<text text-anchor="middle" x="1202" y="-14.8" font-family="Times,serif" font-size="14.00">data 1.0912</text>
<polyline fill="none" stroke="black" points="1253,-0.5 1253,-36.5 "/>
<text text-anchor="middle" x="1307" y="-14.8" font-family="Times,serif" font-size="14.00">grad &#45;1.7398</text>
</g>
<!-- 139883124664128&#45;&gt;139883734292112* -->
<g id="edge16" class="edge">
<title>139883124664128&#45;&gt;139883734292112*</title>
<path fill="none" stroke="black" d="M1320.1,-36.55C1334.03,-39.42 1347.85,-42.72 1361,-46.5 1371.69,-49.58 1382.95,-54.07 1392.91,-58.52"/>
<polygon fill="black" stroke="black" points="1391.44,-61.7 1401.99,-62.71 1394.38,-55.34 1391.44,-61.7"/>
</g>
<!-- 139883735116112 -->
<g id="node17" class="node">
<title>139883735116112</title>
<polygon fill="none" stroke="black" points="20,-83.5 20,-119.5 354,-119.5 354,-83.5 20,-83.5"/>
<text text-anchor="middle" x="46" y="-97.8" font-family="Times,serif" font-size="14.00">v008</text>
<polyline fill="none" stroke="black" points="72,-83.5 72,-119.5 "/>
<text text-anchor="middle" x="82.5" y="-97.8" font-family="Times,serif" font-size="14.00"> </text>
<polyline fill="none" stroke="black" points="93,-83.5 93,-119.5 "/>
<text text-anchor="middle" x="103.5" y="-97.8" font-family="Times,serif" font-size="14.00"> </text>
<polyline fill="none" stroke="black" points="114,-83.5 114,-119.5 "/>
<text text-anchor="middle" x="129" y="-97.8" font-family="Times,serif" font-size="14.00">i1</text>
<polyline fill="none" stroke="black" points="144,-83.5 144,-119.5 "/>
<text text-anchor="middle" x="195" y="-97.8" font-family="Times,serif" font-size="14.00">data 4.0000</text>
<polyline fill="none" stroke="black" points="246,-83.5 246,-119.5 "/>
<text text-anchor="middle" x="300" y="-97.8" font-family="Times,serif" font-size="14.00">grad &#45;0.3740</text>
</g>
<!-- 139883735116112&#45;&gt;139883735115776* -->
<g id="edge9" class="edge">
<title>139883735116112&#45;&gt;139883735115776*</title>
<path fill="none" stroke="black" d="M347.52,-83.49C367.04,-81.29 385.28,-79.23 400.06,-77.56"/>
<polygon fill="black" stroke="black" points="400.64,-81.01 410.19,-76.41 399.86,-74.06 400.64,-81.01"/>
</g>
<!-- 139883735116112&#45;&gt;139883735116208* -->
<g id="edge15" class="edge">
<title>139883735116112&#45;&gt;139883735116208*</title>
<path fill="none" stroke="black" d="M353.42,-119.51C370.67,-121.39 386.71,-123.13 399.97,-124.58"/>
<polygon fill="black" stroke="black" points="399.67,-128.07 409.99,-125.67 400.43,-121.11 399.67,-128.07"/>
</g>
<!-- 139883124659040 -->
<g id="node18" class="node">
<title>139883124659040</title>
<polygon fill="none" stroke="black" points="0,-28.5 0,-64.5 374,-64.5 374,-28.5 0,-28.5"/>
<text text-anchor="middle" x="26" y="-42.8" font-family="Times,serif" font-size="14.00">v003</text>
<polyline fill="none" stroke="black" points="52,-28.5 52,-64.5 "/>
<text text-anchor="middle" x="69.5" y="-42.8" font-family="Times,serif" font-size="14.00">L1</text>
<polyline fill="none" stroke="black" points="87,-28.5 87,-64.5 "/>
<text text-anchor="middle" x="106" y="-42.8" font-family="Times,serif" font-size="14.00">N2</text>
<polyline fill="none" stroke="black" points="125,-28.5 125,-64.5 "/>
<text text-anchor="middle" x="144" y="-42.8" font-family="Times,serif" font-size="14.00">w1</text>
<polyline fill="none" stroke="black" points="163,-28.5 163,-64.5 "/>
<text text-anchor="middle" x="216.5" y="-42.8" font-family="Times,serif" font-size="14.00">data &#45;0.3800</text>
<polyline fill="none" stroke="black" points="270,-28.5 270,-64.5 "/>
<text text-anchor="middle" x="322" y="-42.8" font-family="Times,serif" font-size="14.00">grad 4.3647</text>
</g>
<!-- 139883124659040&#45;&gt;139883735115776* -->
<g id="edge11" class="edge">
<title>139883124659040&#45;&gt;139883735115776*</title>
<path fill="none" stroke="black" d="M353.42,-64.51C370.67,-66.39 386.71,-68.13 399.97,-69.58"/>
<polygon fill="black" stroke="black" points="399.67,-73.07 409.99,-70.67 400.43,-66.11 399.67,-73.07"/>
</g>
<!-- 139883735116208 -->
<g id="node19" class="node">
<title>139883735116208</title>
<polygon fill="none" stroke="black" points="520.5,-110.5 520.5,-146.5 841.5,-146.5 841.5,-110.5 520.5,-110.5"/>
<text text-anchor="middle" x="546.5" y="-124.8" font-family="Times,serif" font-size="14.00">v070</text>
<polyline fill="none" stroke="black" points="572.5,-110.5 572.5,-146.5 "/>
<text text-anchor="middle" x="583" y="-124.8" font-family="Times,serif" font-size="14.00"> </text>
<polyline fill="none" stroke="black" points="593.5,-110.5 593.5,-146.5 "/>
<text text-anchor="middle" x="604" y="-124.8" font-family="Times,serif" font-size="14.00"> </text>
<polyline fill="none" stroke="black" points="614.5,-110.5 614.5,-146.5 "/>
<text text-anchor="middle" x="625" y="-124.8" font-family="Times,serif" font-size="14.00"> </text>
<polyline fill="none" stroke="black" points="635.5,-110.5 635.5,-146.5 "/>
<text text-anchor="middle" x="686.5" y="-124.8" font-family="Times,serif" font-size="14.00">data 0.4818</text>
<polyline fill="none" stroke="black" points="737.5,-110.5 737.5,-146.5 "/>
<text text-anchor="middle" x="789.5" y="-124.8" font-family="Times,serif" font-size="14.00">grad 0.3371</text>
</g>
<!-- 139883735116208&#45;&gt;139883735118800+ -->
<g id="edge12" class="edge">
<title>139883735116208&#45;&gt;139883735118800+</title>
<path fill="none" stroke="black" d="M841.73,-128.5C858.54,-128.5 874.24,-128.5 887.32,-128.5"/>
<polygon fill="black" stroke="black" points="887.66,-132 897.66,-128.5 887.66,-125 887.66,-132"/>
</g>
<!-- 139883735116208*&#45;&gt;139883735116208 -->
<g id="edge6" class="edge">
<title>139883735116208*&#45;&gt;139883735116208</title>
<path fill="none" stroke="black" d="M464.36,-128.5C476.7,-128.5 492.53,-128.5 510,-128.5"/>
<polygon fill="black" stroke="black" points="510.46,-132 520.46,-128.5 510.46,-125 510.46,-132"/>
</g>
<!-- 139883734293456 -->
<g id="node21" class="node">
<title>139883734293456</title>
<polygon fill="none" stroke="black" points="2247,-108.5 2247,-144.5 2573,-144.5 2573,-108.5 2247,-108.5"/>
<text text-anchor="middle" x="2273" y="-122.8" font-family="Times,serif" font-size="14.00">v075</text>
<polyline fill="none" stroke="black" points="2299,-108.5 2299,-144.5 "/>
<text text-anchor="middle" x="2309.5" y="-122.8" font-family="Times,serif" font-size="14.00"> </text>
<polyline fill="none" stroke="black" points="2320,-108.5 2320,-144.5 "/>
<text text-anchor="middle" x="2330.5" y="-122.8" font-family="Times,serif" font-size="14.00"> </text>
<polyline fill="none" stroke="black" points="2341,-108.5 2341,-144.5 "/>
<text text-anchor="middle" x="2351.5" y="-122.8" font-family="Times,serif" font-size="14.00"> </text>
<polyline fill="none" stroke="black" points="2362,-108.5 2362,-144.5 "/>
<text text-anchor="middle" x="2415.5" y="-122.8" font-family="Times,serif" font-size="14.00">data &#45;0.0696</text>
<polyline fill="none" stroke="black" points="2469,-108.5 2469,-144.5 "/>
<text text-anchor="middle" x="2521" y="-122.8" font-family="Times,serif" font-size="14.00">grad 1.0000</text>
</g>
<!-- 139883734293456&#45;&gt;139883734295568+ -->
<g id="edge14" class="edge">
<title>139883734293456&#45;&gt;139883734295568+</title>
<path fill="none" stroke="black" d="M2566.27,-108.48C2578.27,-107.09 2589.48,-105.78 2599.23,-104.65"/>
<polygon fill="black" stroke="black" points="2599.67,-108.12 2609.2,-103.49 2598.86,-101.17 2599.67,-108.12"/>
</g>
<!-- 139883734293456+&#45;&gt;139883734293456 -->
<g id="edge7" class="edge">
<title>139883734293456+&#45;&gt;139883734293456</title>
<path fill="none" stroke="black" d="M2075.18,-128.35C2109.81,-128.16 2173.83,-127.81 2236.62,-127.46"/>
<polygon fill="black" stroke="black" points="2236.7,-130.96 2246.68,-127.4 2236.66,-123.96 2236.7,-130.96"/>
</g>
<!-- 139883734291440 -->
<g id="node23" class="node">
<title>139883734291440</title>
<polygon fill="none" stroke="black" points="1507.5,-110.5 1507.5,-146.5 1828.5,-146.5 1828.5,-110.5 1507.5,-110.5"/>
<text text-anchor="middle" x="1533.5" y="-124.8" font-family="Times,serif" font-size="14.00">v074</text>
<polyline fill="none" stroke="black" points="1559.5,-110.5 1559.5,-146.5 "/>
<text text-anchor="middle" x="1570" y="-124.8" font-family="Times,serif" font-size="14.00"> </text>
<polyline fill="none" stroke="black" points="1580.5,-110.5 1580.5,-146.5 "/>
<text text-anchor="middle" x="1591" y="-124.8" font-family="Times,serif" font-size="14.00"> </text>
<polyline fill="none" stroke="black" points="1601.5,-110.5 1601.5,-146.5 "/>
<text text-anchor="middle" x="1612" y="-124.8" font-family="Times,serif" font-size="14.00"> </text>
<polyline fill="none" stroke="black" points="1622.5,-110.5 1622.5,-146.5 "/>
<text text-anchor="middle" x="1673.5" y="-124.8" font-family="Times,serif" font-size="14.00">data 0.1304</text>
<polyline fill="none" stroke="black" points="1724.5,-110.5 1724.5,-146.5 "/>
<text text-anchor="middle" x="1776.5" y="-124.8" font-family="Times,serif" font-size="14.00">grad 1.0000</text>
</g>
<!-- 139883734291440&#45;&gt;139883734293456+ -->
<g id="edge18" class="edge">
<title>139883734291440&#45;&gt;139883734293456+</title>
<path fill="none" stroke="black" d="M1828.76,-128.5C1896.19,-128.5 1968.7,-128.5 2010.85,-128.5"/>
<polygon fill="black" stroke="black" points="2010.89,-132 2020.89,-128.5 2010.89,-125 2010.89,-132"/>
</g>
<!-- 139883734291440*&#45;&gt;139883734291440 -->
<g id="edge8" class="edge">
<title>139883734291440*&#45;&gt;139883734291440</title>
<path fill="none" stroke="black" d="M1451.36,-128.5C1463.7,-128.5 1479.53,-128.5 1497,-128.5"/>
<polygon fill="black" stroke="black" points="1497.46,-132 1507.46,-128.5 1497.46,-125 1497.46,-132"/>
</g>
</g>
</svg>
