<?xml version="1.0" encoding="UTF-8" standalone="no"?>
<!DOCTYPE svg PUBLIC "-//W3C//DTD SVG 1.1//EN"
 "http://www.w3.org/Graphics/SVG/1.1/DTD/svg11.dtd">
<!-- Generated by graphviz version 2.43.0 (0)
 -->
<!-- Title: %3 Pages: 1 -->
<svg width="3508pt" height="210pt"
 viewBox="0.00 0.00 3508.00 210.00" xmlns="http://www.w3.org/2000/svg" xmlns:xlink="http://www.w3.org/1999/xlink">
<g id="graph0" class="graph" transform="scale(1 1) rotate(0) translate(4 206)">
<title>%3</title>
<polygon fill="white" stroke="transparent" points="-4,4 -4,-206 3504,-206 3504,4 -4,4"/>
<!-- 140260402422800 -->
<g id="node1" class="node">
<title>140260402422800</title>
<polygon fill="none" stroke="black" points="3170,-82.5 3170,-118.5 3500,-118.5 3500,-82.5 3170,-82.5"/>
<text text-anchor="middle" x="3196" y="-96.8" font-family="Times,serif" font-size="14.00">v018</text>
<polyline fill="none" stroke="black" points="3222,-82.5 3222,-118.5 "/>
<text text-anchor="middle" x="3232.5" y="-96.8" font-family="Times,serif" font-size="14.00"> </text>
<polyline fill="none" stroke="black" points="3243,-82.5 3243,-118.5 "/>
<text text-anchor="middle" x="3253.5" y="-96.8" font-family="Times,serif" font-size="14.00"> </text>
<polyline fill="none" stroke="black" points="3264,-82.5 3264,-118.5 "/>
<text text-anchor="middle" x="3274.5" y="-96.8" font-family="Times,serif" font-size="14.00">l</text>
<polyline fill="none" stroke="black" points="3285,-82.5 3285,-118.5 "/>
<text text-anchor="middle" x="3340.5" y="-96.8" font-family="Times,serif" font-size="14.00">data 12.9600</text>
<polyline fill="none" stroke="black" points="3396,-82.5 3396,-118.5 "/>
<text text-anchor="middle" x="3448" y="-96.8" font-family="Times,serif" font-size="14.00">grad 1.0000</text>
</g>
<!-- 140260402422800* -->
<g id="node2" class="node">
<title>140260402422800*</title>
<ellipse fill="none" stroke="black" cx="3107" cy="-100.5" rx="27" ry="18"/>
<text text-anchor="middle" x="3107" y="-96.8" font-family="Times,serif" font-size="14.00">*</text>
</g>
<!-- 140260402422800*&#45;&gt;140260402422800 -->
<g id="edge1" class="edge">
<title>140260402422800*&#45;&gt;140260402422800</title>
<path fill="none" stroke="black" d="M3134.37,-100.5C3141.71,-100.5 3150.28,-100.5 3159.65,-100.5"/>
<polygon fill="black" stroke="black" points="3159.7,-104 3169.7,-100.5 3159.7,-97 3159.7,-104"/>
</g>
<!-- 140260402421264 -->
<g id="node3" class="node">
<title>140260402421264</title>
<polygon fill="none" stroke="black" points="522,-55.5 522,-91.5 843,-91.5 843,-55.5 522,-55.5"/>
<text text-anchor="middle" x="548" y="-69.8" font-family="Times,serif" font-size="14.00">v010</text>
<polyline fill="none" stroke="black" points="574,-55.5 574,-91.5 "/>
<text text-anchor="middle" x="584.5" y="-69.8" font-family="Times,serif" font-size="14.00"> </text>
<polyline fill="none" stroke="black" points="595,-55.5 595,-91.5 "/>
<text text-anchor="middle" x="605.5" y="-69.8" font-family="Times,serif" font-size="14.00"> </text>
<polyline fill="none" stroke="black" points="616,-55.5 616,-91.5 "/>
<text text-anchor="middle" x="626.5" y="-69.8" font-family="Times,serif" font-size="14.00"> </text>
<polyline fill="none" stroke="black" points="637,-55.5 637,-91.5 "/>
<text text-anchor="middle" x="688" y="-69.8" font-family="Times,serif" font-size="14.00">data 2.0000</text>
<polyline fill="none" stroke="black" points="739,-55.5 739,-91.5 "/>
<text text-anchor="middle" x="791" y="-69.8" font-family="Times,serif" font-size="14.00">grad 4.3200</text>
</g>
<!-- 140260402421168+ -->
<g id="node19" class="node">
<title>140260402421168+</title>
<ellipse fill="none" stroke="black" cx="924" cy="-73.5" rx="27" ry="18"/>
<text text-anchor="middle" x="924" y="-69.8" font-family="Times,serif" font-size="14.00">+</text>
</g>
<!-- 140260402421264&#45;&gt;140260402421168+ -->
<g id="edge20" class="edge">
<title>140260402421264&#45;&gt;140260402421168+</title>
<path fill="none" stroke="black" d="M843.25,-73.5C859.18,-73.5 874.04,-73.5 886.51,-73.5"/>
<polygon fill="black" stroke="black" points="886.83,-77 896.83,-73.5 886.83,-70 886.83,-77"/>
</g>
<!-- 140260402421264* -->
<g id="node4" class="node">
<title>140260402421264*</title>
<ellipse fill="none" stroke="black" cx="441" cy="-73.5" rx="27" ry="18"/>
<text text-anchor="middle" x="441" y="-69.8" font-family="Times,serif" font-size="14.00">*</text>
</g>
<!-- 140260402421264*&#45;&gt;140260402421264 -->
<g id="edge2" class="edge">
<title>140260402421264*&#45;&gt;140260402421264</title>
<path fill="none" stroke="black" d="M468.09,-73.5C479.83,-73.5 494.78,-73.5 511.29,-73.5"/>
<polygon fill="black" stroke="black" points="511.75,-77 521.75,-73.5 511.75,-70 511.75,-77"/>
</g>
<!-- 140260402419584 -->
<g id="node5" class="node">
<title>140260402419584</title>
<polygon fill="none" stroke="black" points="0,-55.5 0,-91.5 378,-91.5 378,-55.5 0,-55.5"/>
<text text-anchor="middle" x="26" y="-69.8" font-family="Times,serif" font-size="14.00">v001</text>
<polyline fill="none" stroke="black" points="52,-55.5 52,-91.5 "/>
<text text-anchor="middle" x="69.5" y="-69.8" font-family="Times,serif" font-size="14.00">L1</text>
<polyline fill="none" stroke="black" points="87,-55.5 87,-91.5 "/>
<text text-anchor="middle" x="106" y="-69.8" font-family="Times,serif" font-size="14.00">N1</text>
<polyline fill="none" stroke="black" points="125,-55.5 125,-91.5 "/>
<text text-anchor="middle" x="144" y="-69.8" font-family="Times,serif" font-size="14.00">w1</text>
<polyline fill="none" stroke="black" points="163,-55.5 163,-91.5 "/>
<text text-anchor="middle" x="214" y="-69.8" font-family="Times,serif" font-size="14.00">data 0.5000</text>
<polyline fill="none" stroke="black" points="265,-55.5 265,-91.5 "/>
<text text-anchor="middle" x="321.5" y="-69.8" font-family="Times,serif" font-size="14.00">grad 17.2800</text>
</g>
<!-- 140260402419584&#45;&gt;140260402421264* -->
<g id="edge13" class="edge">
<title>140260402419584&#45;&gt;140260402421264*</title>
<path fill="none" stroke="black" d="M378.2,-73.5C387.44,-73.5 396.06,-73.5 403.75,-73.5"/>
<polygon fill="black" stroke="black" points="403.98,-77 413.98,-73.5 403.98,-70 403.98,-77"/>
</g>
<!-- 140260402423424 -->
<g id="node6" class="node">
<title>140260402423424</title>
<polygon fill="none" stroke="black" points="1509,-55.5 1509,-91.5 1830,-91.5 1830,-55.5 1509,-55.5"/>
<text text-anchor="middle" x="1535" y="-69.8" font-family="Times,serif" font-size="14.00">v014</text>
<polyline fill="none" stroke="black" points="1561,-55.5 1561,-91.5 "/>
<text text-anchor="middle" x="1571.5" y="-69.8" font-family="Times,serif" font-size="14.00"> </text>
<polyline fill="none" stroke="black" points="1582,-55.5 1582,-91.5 "/>
<text text-anchor="middle" x="1592.5" y="-69.8" font-family="Times,serif" font-size="14.00"> </text>
<polyline fill="none" stroke="black" points="1603,-55.5 1603,-91.5 "/>
<text text-anchor="middle" x="1613.5" y="-69.8" font-family="Times,serif" font-size="14.00"> </text>
<polyline fill="none" stroke="black" points="1624,-55.5 1624,-91.5 "/>
<text text-anchor="middle" x="1675" y="-69.8" font-family="Times,serif" font-size="14.00">data 1.2000</text>
<polyline fill="none" stroke="black" points="1726,-55.5 1726,-91.5 "/>
<text text-anchor="middle" x="1778" y="-69.8" font-family="Times,serif" font-size="14.00">grad 7.2000</text>
</g>
<!-- 140260402424672+ -->
<g id="node17" class="node">
<title>140260402424672+</title>
<ellipse fill="none" stroke="black" cx="2044.5" cy="-73.5" rx="27" ry="18"/>
<text text-anchor="middle" x="2044.5" y="-69.8" font-family="Times,serif" font-size="14.00">+</text>
</g>
<!-- 140260402423424&#45;&gt;140260402424672+ -->
<g id="edge23" class="edge">
<title>140260402423424&#45;&gt;140260402424672+</title>
<path fill="none" stroke="black" d="M1830.04,-73.5C1895.75,-73.5 1966.02,-73.5 2007.29,-73.5"/>
<polygon fill="black" stroke="black" points="2007.39,-77 2017.39,-73.5 2007.39,-70 2007.39,-77"/>
</g>
<!-- 140260402423424* -->
<g id="node7" class="node">
<title>140260402423424*</title>
<ellipse fill="none" stroke="black" cx="1428" cy="-73.5" rx="27" ry="18"/>
<text text-anchor="middle" x="1428" y="-69.8" font-family="Times,serif" font-size="14.00">*</text>
</g>
<!-- 140260402423424*&#45;&gt;140260402423424 -->
<g id="edge3" class="edge">
<title>140260402423424*&#45;&gt;140260402423424</title>
<path fill="none" stroke="black" d="M1455.09,-73.5C1466.83,-73.5 1481.78,-73.5 1498.29,-73.5"/>
<polygon fill="black" stroke="black" points="1498.75,-77 1508.75,-73.5 1498.75,-70 1498.75,-77"/>
</g>
<!-- 140260402419344 -->
<g id="node8" class="node">
<title>140260402419344</title>
<polygon fill="none" stroke="black" points="987,-165.5 987,-201.5 1365,-201.5 1365,-165.5 987,-165.5"/>
<text text-anchor="middle" x="1013" y="-179.8" font-family="Times,serif" font-size="14.00">v006</text>
<polyline fill="none" stroke="black" points="1039,-165.5 1039,-201.5 "/>
<text text-anchor="middle" x="1056.5" y="-179.8" font-family="Times,serif" font-size="14.00">L2</text>
<polyline fill="none" stroke="black" points="1074,-165.5 1074,-201.5 "/>
<text text-anchor="middle" x="1093" y="-179.8" font-family="Times,serif" font-size="14.00">N1</text>
<polyline fill="none" stroke="black" points="1112,-165.5 1112,-201.5 "/>
<text text-anchor="middle" x="1131" y="-179.8" font-family="Times,serif" font-size="14.00">w2</text>
<polyline fill="none" stroke="black" points="1150,-165.5 1150,-201.5 "/>
<text text-anchor="middle" x="1201" y="-179.8" font-family="Times,serif" font-size="14.00">data 1.2000</text>
<polyline fill="none" stroke="black" points="1252,-165.5 1252,-201.5 "/>
<text text-anchor="middle" x="1308.5" y="-179.8" font-family="Times,serif" font-size="14.00">grad 14.4000</text>
</g>
<!-- 140260402429664* -->
<g id="node11" class="node">
<title>140260402429664*</title>
<ellipse fill="none" stroke="black" cx="1428" cy="-128.5" rx="27" ry="18"/>
<text text-anchor="middle" x="1428" y="-124.8" font-family="Times,serif" font-size="14.00">*</text>
</g>
<!-- 140260402419344&#45;&gt;140260402429664* -->
<g id="edge25" class="edge">
<title>140260402419344&#45;&gt;140260402429664*</title>
<path fill="none" stroke="black" d="M1328.89,-165.47C1341.2,-162.86 1353.37,-159.89 1365,-156.5 1375.83,-153.35 1387.2,-148.65 1397.21,-144"/>
<polygon fill="black" stroke="black" points="1398.84,-147.1 1406.33,-139.61 1395.8,-140.8 1398.84,-147.1"/>
</g>
<!-- 140260402422656 -->
<g id="node9" class="node">
<title>140260402422656</title>
<polygon fill="none" stroke="black" points="0,-165.5 0,-201.5 378,-201.5 378,-165.5 0,-165.5"/>
<text text-anchor="middle" x="26" y="-179.8" font-family="Times,serif" font-size="14.00">v003</text>
<polyline fill="none" stroke="black" points="52,-165.5 52,-201.5 "/>
<text text-anchor="middle" x="69.5" y="-179.8" font-family="Times,serif" font-size="14.00">L1</text>
<polyline fill="none" stroke="black" points="87,-165.5 87,-201.5 "/>
<text text-anchor="middle" x="106" y="-179.8" font-family="Times,serif" font-size="14.00">N2</text>
<polyline fill="none" stroke="black" points="125,-165.5 125,-201.5 "/>
<text text-anchor="middle" x="144" y="-179.8" font-family="Times,serif" font-size="14.00">w1</text>
<polyline fill="none" stroke="black" points="163,-165.5 163,-201.5 "/>
<text text-anchor="middle" x="214" y="-179.8" font-family="Times,serif" font-size="14.00">data 0.5000</text>
<polyline fill="none" stroke="black" points="265,-165.5 265,-201.5 "/>
<text text-anchor="middle" x="321.5" y="-179.8" font-family="Times,serif" font-size="14.00">grad 34.5600</text>
</g>
<!-- 140260402428800* -->
<g id="node21" class="node">
<title>140260402428800*</title>
<ellipse fill="none" stroke="black" cx="441" cy="-183.5" rx="27" ry="18"/>
<text text-anchor="middle" x="441" y="-179.8" font-family="Times,serif" font-size="14.00">*</text>
</g>
<!-- 140260402422656&#45;&gt;140260402428800* -->
<g id="edge18" class="edge">
<title>140260402422656&#45;&gt;140260402428800*</title>
<path fill="none" stroke="black" d="M378.2,-183.5C387.44,-183.5 396.06,-183.5 403.75,-183.5"/>
<polygon fill="black" stroke="black" points="403.98,-187 413.98,-183.5 403.98,-180 403.98,-187"/>
</g>
<!-- 140260402429664 -->
<g id="node10" class="node">
<title>140260402429664</title>
<polygon fill="none" stroke="black" points="1884,-110.5 1884,-146.5 2205,-146.5 2205,-110.5 1884,-110.5"/>
<text text-anchor="middle" x="1910" y="-124.8" font-family="Times,serif" font-size="14.00">v016</text>
<polyline fill="none" stroke="black" points="1936,-110.5 1936,-146.5 "/>
<text text-anchor="middle" x="1946.5" y="-124.8" font-family="Times,serif" font-size="14.00"> </text>
<polyline fill="none" stroke="black" points="1957,-110.5 1957,-146.5 "/>
<text text-anchor="middle" x="1967.5" y="-124.8" font-family="Times,serif" font-size="14.00"> </text>
<polyline fill="none" stroke="black" points="1978,-110.5 1978,-146.5 "/>
<text text-anchor="middle" x="1988.5" y="-124.8" font-family="Times,serif" font-size="14.00"> </text>
<polyline fill="none" stroke="black" points="1999,-110.5 1999,-146.5 "/>
<text text-anchor="middle" x="2050" y="-124.8" font-family="Times,serif" font-size="14.00">data 2.4000</text>
<polyline fill="none" stroke="black" points="2101,-110.5 2101,-146.5 "/>
<text text-anchor="middle" x="2153" y="-124.8" font-family="Times,serif" font-size="14.00">grad 7.2000</text>
</g>
<!-- 140260402425296+ -->
<g id="node24" class="node">
<title>140260402425296+</title>
<ellipse fill="none" stroke="black" cx="2625" cy="-100.5" rx="27" ry="18"/>
<text text-anchor="middle" x="2625" y="-96.8" font-family="Times,serif" font-size="14.00">+</text>
</g>
<!-- 140260402429664&#45;&gt;140260402425296+ -->
<g id="edge21" class="edge">
<title>140260402429664&#45;&gt;140260402425296+</title>
<path fill="none" stroke="black" d="M2205.21,-121.82C2307.28,-117.37 2442.46,-111.13 2562,-104.5 2570.42,-104.03 2579.48,-103.48 2588.01,-102.93"/>
<polygon fill="black" stroke="black" points="2588.31,-106.42 2598.06,-102.28 2587.86,-99.43 2588.31,-106.42"/>
</g>
<!-- 140260402429664*&#45;&gt;140260402429664 -->
<g id="edge4" class="edge">
<title>140260402429664*&#45;&gt;140260402429664</title>
<path fill="none" stroke="black" d="M1455.01,-128.5C1525.8,-128.5 1726.47,-128.5 1873.87,-128.5"/>
<polygon fill="black" stroke="black" points="1873.95,-132 1883.95,-128.5 1873.95,-125 1873.95,-132"/>
</g>
<!-- 140260402422512 -->
<g id="node12" class="node">
<title>140260402422512</title>
<polygon fill="none" stroke="black" points="504,-0.5 504,-36.5 861,-36.5 861,-0.5 504,-0.5"/>
<text text-anchor="middle" x="530" y="-14.8" font-family="Times,serif" font-size="14.00">v002</text>
<polyline fill="none" stroke="black" points="556,-0.5 556,-36.5 "/>
<text text-anchor="middle" x="573.5" y="-14.8" font-family="Times,serif" font-size="14.00">L1</text>
<polyline fill="none" stroke="black" points="591,-0.5 591,-36.5 "/>
<text text-anchor="middle" x="610" y="-14.8" font-family="Times,serif" font-size="14.00">N1</text>
<polyline fill="none" stroke="black" points="629,-0.5 629,-36.5 "/>
<text text-anchor="middle" x="642" y="-14.8" font-family="Times,serif" font-size="14.00">b</text>
<polyline fill="none" stroke="black" points="655,-0.5 655,-36.5 "/>
<text text-anchor="middle" x="706" y="-14.8" font-family="Times,serif" font-size="14.00">data 0.0000</text>
<polyline fill="none" stroke="black" points="757,-0.5 757,-36.5 "/>
<text text-anchor="middle" x="809" y="-14.8" font-family="Times,serif" font-size="14.00">grad 4.3200</text>
</g>
<!-- 140260402422512&#45;&gt;140260402421168+ -->
<g id="edge24" class="edge">
<title>140260402422512&#45;&gt;140260402421168+</title>
<path fill="none" stroke="black" d="M825.72,-36.58C837.74,-39.18 849.64,-42.14 861,-45.5 871.81,-48.7 883.19,-53.41 893.2,-58.05"/>
<polygon fill="black" stroke="black" points="891.78,-61.26 902.31,-62.44 894.82,-54.95 891.78,-61.26"/>
</g>
<!-- 140260402419968 -->
<g id="node13" class="node">
<title>140260402419968</title>
<polygon fill="none" stroke="black" points="998,-110.5 998,-146.5 1354,-146.5 1354,-110.5 998,-110.5"/>
<text text-anchor="middle" x="1024" y="-124.8" font-family="Times,serif" font-size="14.00">v013</text>
<polyline fill="none" stroke="black" points="1050,-110.5 1050,-146.5 "/>
<text text-anchor="middle" x="1067.5" y="-124.8" font-family="Times,serif" font-size="14.00">L1</text>
<polyline fill="none" stroke="black" points="1085,-110.5 1085,-146.5 "/>
<text text-anchor="middle" x="1104" y="-124.8" font-family="Times,serif" font-size="14.00">N2</text>
<polyline fill="none" stroke="black" points="1123,-110.5 1123,-146.5 "/>
<text text-anchor="middle" x="1135.5" y="-124.8" font-family="Times,serif" font-size="14.00">a</text>
<polyline fill="none" stroke="black" points="1148,-110.5 1148,-146.5 "/>
<text text-anchor="middle" x="1199" y="-124.8" font-family="Times,serif" font-size="14.00">data 2.0000</text>
<polyline fill="none" stroke="black" points="1250,-110.5 1250,-146.5 "/>
<text text-anchor="middle" x="1302" y="-124.8" font-family="Times,serif" font-size="14.00">grad 8.6400</text>
</g>
<!-- 140260402419968&#45;&gt;140260402429664* -->
<g id="edge10" class="edge">
<title>140260402419968&#45;&gt;140260402429664*</title>
<path fill="none" stroke="black" d="M1354.02,-128.5C1367.49,-128.5 1379.97,-128.5 1390.67,-128.5"/>
<polygon fill="black" stroke="black" points="1390.75,-132 1400.75,-128.5 1390.75,-125 1390.75,-132"/>
</g>
<!-- 140260402419968+ -->
<g id="node14" class="node">
<title>140260402419968+</title>
<ellipse fill="none" stroke="black" cx="924" cy="-128.5" rx="27" ry="18"/>
<text text-anchor="middle" x="924" y="-124.8" font-family="Times,serif" font-size="14.00">+</text>
</g>
<!-- 140260402419968+&#45;&gt;140260402419968 -->
<g id="edge5" class="edge">
<title>140260402419968+&#45;&gt;140260402419968</title>
<path fill="none" stroke="black" d="M951.28,-128.5C961.37,-128.5 973.81,-128.5 987.62,-128.5"/>
<polygon fill="black" stroke="black" points="987.9,-132 997.9,-128.5 987.9,-125 987.9,-132"/>
</g>
<!-- 140260402419632 -->
<g id="node15" class="node">
<title>140260402419632</title>
<polygon fill="none" stroke="black" points="1491,-0.5 1491,-36.5 1848,-36.5 1848,-0.5 1491,-0.5"/>
<text text-anchor="middle" x="1517" y="-14.8" font-family="Times,serif" font-size="14.00">v007</text>
<polyline fill="none" stroke="black" points="1543,-0.5 1543,-36.5 "/>
<text text-anchor="middle" x="1560.5" y="-14.8" font-family="Times,serif" font-size="14.00">L2</text>
<polyline fill="none" stroke="black" points="1578,-0.5 1578,-36.5 "/>
<text text-anchor="middle" x="1597" y="-14.8" font-family="Times,serif" font-size="14.00">N1</text>
<polyline fill="none" stroke="black" points="1616,-0.5 1616,-36.5 "/>
<text text-anchor="middle" x="1629" y="-14.8" font-family="Times,serif" font-size="14.00">b</text>
<polyline fill="none" stroke="black" points="1642,-0.5 1642,-36.5 "/>
<text text-anchor="middle" x="1693" y="-14.8" font-family="Times,serif" font-size="14.00">data 0.0000</text>
<polyline fill="none" stroke="black" points="1744,-0.5 1744,-36.5 "/>
<text text-anchor="middle" x="1796" y="-14.8" font-family="Times,serif" font-size="14.00">grad 7.2000</text>
</g>
<!-- 140260402419632&#45;&gt;140260402424672+ -->
<g id="edge19" class="edge">
<title>140260402419632&#45;&gt;140260402424672+</title>
<path fill="none" stroke="black" d="M1792.63,-36.51C1867.65,-47.57 1958.51,-60.97 2007.68,-68.22"/>
<polygon fill="black" stroke="black" points="2007.41,-71.72 2017.81,-69.71 2008.43,-64.79 2007.41,-71.72"/>
</g>
<!-- 140260402424672 -->
<g id="node16" class="node">
<title>140260402424672</title>
<polygon fill="none" stroke="black" points="2241,-59.5 2241,-95.5 2562,-95.5 2562,-59.5 2241,-59.5"/>
<text text-anchor="middle" x="2267" y="-73.8" font-family="Times,serif" font-size="14.00">v015</text>
<polyline fill="none" stroke="black" points="2293,-59.5 2293,-95.5 "/>
<text text-anchor="middle" x="2303.5" y="-73.8" font-family="Times,serif" font-size="14.00"> </text>
<polyline fill="none" stroke="black" points="2314,-59.5 2314,-95.5 "/>
<text text-anchor="middle" x="2324.5" y="-73.8" font-family="Times,serif" font-size="14.00"> </text>
<polyline fill="none" stroke="black" points="2335,-59.5 2335,-95.5 "/>
<text text-anchor="middle" x="2345.5" y="-73.8" font-family="Times,serif" font-size="14.00"> </text>
<polyline fill="none" stroke="black" points="2356,-59.5 2356,-95.5 "/>
<text text-anchor="middle" x="2407" y="-73.8" font-family="Times,serif" font-size="14.00">data 1.2000</text>
<polyline fill="none" stroke="black" points="2458,-59.5 2458,-95.5 "/>
<text text-anchor="middle" x="2510" y="-73.8" font-family="Times,serif" font-size="14.00">grad 7.2000</text>
</g>
<!-- 140260402424672&#45;&gt;140260402425296+ -->
<g id="edge14" class="edge">
<title>140260402424672&#45;&gt;140260402425296+</title>
<path fill="none" stroke="black" d="M2562.01,-94.06C2571.42,-95.04 2580.26,-95.96 2588.13,-96.78"/>
<polygon fill="black" stroke="black" points="2587.95,-100.28 2598.26,-97.83 2588.67,-93.31 2587.95,-100.28"/>
</g>
<!-- 140260402424672+&#45;&gt;140260402424672 -->
<g id="edge6" class="edge">
<title>140260402424672+&#45;&gt;140260402424672</title>
<path fill="none" stroke="black" d="M2071.6,-73.79C2105.81,-74.18 2168.72,-74.89 2230.43,-75.58"/>
<polygon fill="black" stroke="black" points="2230.68,-79.09 2240.72,-75.7 2230.76,-72.09 2230.68,-79.09"/>
</g>
<!-- 140260402421168 -->
<g id="node18" class="node">
<title>140260402421168</title>
<polygon fill="none" stroke="black" points="998,-55.5 998,-91.5 1354,-91.5 1354,-55.5 998,-55.5"/>
<text text-anchor="middle" x="1024" y="-69.8" font-family="Times,serif" font-size="14.00">v011</text>
<polyline fill="none" stroke="black" points="1050,-55.5 1050,-91.5 "/>
<text text-anchor="middle" x="1067.5" y="-69.8" font-family="Times,serif" font-size="14.00">L1</text>
<polyline fill="none" stroke="black" points="1085,-55.5 1085,-91.5 "/>
<text text-anchor="middle" x="1104" y="-69.8" font-family="Times,serif" font-size="14.00">N1</text>
<polyline fill="none" stroke="black" points="1123,-55.5 1123,-91.5 "/>
<text text-anchor="middle" x="1135.5" y="-69.8" font-family="Times,serif" font-size="14.00">a</text>
<polyline fill="none" stroke="black" points="1148,-55.5 1148,-91.5 "/>
<text text-anchor="middle" x="1199" y="-69.8" font-family="Times,serif" font-size="14.00">data 2.0000</text>
<polyline fill="none" stroke="black" points="1250,-55.5 1250,-91.5 "/>
<text text-anchor="middle" x="1302" y="-69.8" font-family="Times,serif" font-size="14.00">grad 4.3200</text>
</g>
<!-- 140260402421168&#45;&gt;140260402423424* -->
<g id="edge12" class="edge">
<title>140260402421168&#45;&gt;140260402423424*</title>
<path fill="none" stroke="black" d="M1354.02,-73.5C1367.49,-73.5 1379.97,-73.5 1390.67,-73.5"/>
<polygon fill="black" stroke="black" points="1390.75,-77 1400.75,-73.5 1390.75,-70 1390.75,-77"/>
</g>
<!-- 140260402421168+&#45;&gt;140260402421168 -->
<g id="edge7" class="edge">
<title>140260402421168+&#45;&gt;140260402421168</title>
<path fill="none" stroke="black" d="M951.28,-73.5C961.37,-73.5 973.81,-73.5 987.62,-73.5"/>
<polygon fill="black" stroke="black" points="987.9,-77 997.9,-73.5 987.9,-70 987.9,-77"/>
</g>
<!-- 140260402428800 -->
<g id="node20" class="node">
<title>140260402428800</title>
<polygon fill="none" stroke="black" points="522,-165.5 522,-201.5 843,-201.5 843,-165.5 522,-165.5"/>
<text text-anchor="middle" x="548" y="-179.8" font-family="Times,serif" font-size="14.00">v012</text>
<polyline fill="none" stroke="black" points="574,-165.5 574,-201.5 "/>
<text text-anchor="middle" x="584.5" y="-179.8" font-family="Times,serif" font-size="14.00"> </text>
<polyline fill="none" stroke="black" points="595,-165.5 595,-201.5 "/>
<text text-anchor="middle" x="605.5" y="-179.8" font-family="Times,serif" font-size="14.00"> </text>
<polyline fill="none" stroke="black" points="616,-165.5 616,-201.5 "/>
<text text-anchor="middle" x="626.5" y="-179.8" font-family="Times,serif" font-size="14.00"> </text>
<polyline fill="none" stroke="black" points="637,-165.5 637,-201.5 "/>
<text text-anchor="middle" x="688" y="-179.8" font-family="Times,serif" font-size="14.00">data 2.0000</text>
<polyline fill="none" stroke="black" points="739,-165.5 739,-201.5 "/>
<text text-anchor="middle" x="791" y="-179.8" font-family="Times,serif" font-size="14.00">grad 8.6400</text>
</g>
<!-- 140260402428800&#45;&gt;140260402419968+ -->
<g id="edge26" class="edge">
<title>140260402428800&#45;&gt;140260402419968+</title>
<path fill="none" stroke="black" d="M825.72,-165.42C837.74,-162.82 849.64,-159.86 861,-156.5 871.81,-153.3 883.19,-148.59 893.2,-143.95"/>
<polygon fill="black" stroke="black" points="894.82,-147.05 902.31,-139.56 891.78,-140.74 894.82,-147.05"/>
</g>
<!-- 140260402428800*&#45;&gt;140260402428800 -->
<g id="edge8" class="edge">
<title>140260402428800*&#45;&gt;140260402428800</title>
<path fill="none" stroke="black" d="M468.09,-183.5C479.83,-183.5 494.78,-183.5 511.29,-183.5"/>
<polygon fill="black" stroke="black" points="511.75,-187 521.75,-183.5 511.75,-180 511.75,-187"/>
</g>
<!-- 140260402422704 -->
<g id="node22" class="node">
<title>140260402422704</title>
<polygon fill="none" stroke="black" points="504,-110.5 504,-146.5 861,-146.5 861,-110.5 504,-110.5"/>
<text text-anchor="middle" x="530" y="-124.8" font-family="Times,serif" font-size="14.00">v004</text>
<polyline fill="none" stroke="black" points="556,-110.5 556,-146.5 "/>
<text text-anchor="middle" x="573.5" y="-124.8" font-family="Times,serif" font-size="14.00">L1</text>
<polyline fill="none" stroke="black" points="591,-110.5 591,-146.5 "/>
<text text-anchor="middle" x="610" y="-124.8" font-family="Times,serif" font-size="14.00">N2</text>
<polyline fill="none" stroke="black" points="629,-110.5 629,-146.5 "/>
<text text-anchor="middle" x="642" y="-124.8" font-family="Times,serif" font-size="14.00">b</text>
<polyline fill="none" stroke="black" points="655,-110.5 655,-146.5 "/>
<text text-anchor="middle" x="706" y="-124.8" font-family="Times,serif" font-size="14.00">data 0.0000</text>
<polyline fill="none" stroke="black" points="757,-110.5 757,-146.5 "/>
<text text-anchor="middle" x="809" y="-124.8" font-family="Times,serif" font-size="14.00">grad 8.6400</text>
</g>
<!-- 140260402422704&#45;&gt;140260402419968+ -->
<g id="edge11" class="edge">
<title>140260402422704&#45;&gt;140260402419968+</title>
<path fill="none" stroke="black" d="M861.01,-128.5C870.23,-128.5 878.85,-128.5 886.55,-128.5"/>
<polygon fill="black" stroke="black" points="886.81,-132 896.81,-128.5 886.81,-125 886.81,-132"/>
</g>
<!-- 140260402425296 -->
<g id="node23" class="node">
<title>140260402425296</title>
<polygon fill="none" stroke="black" points="2688,-82.5 2688,-118.5 3044,-118.5 3044,-82.5 2688,-82.5"/>
<text text-anchor="middle" x="2714" y="-96.8" font-family="Times,serif" font-size="14.00">v017</text>
<polyline fill="none" stroke="black" points="2740,-82.5 2740,-118.5 "/>
<text text-anchor="middle" x="2757.5" y="-96.8" font-family="Times,serif" font-size="14.00">L2</text>
<polyline fill="none" stroke="black" points="2775,-82.5 2775,-118.5 "/>
<text text-anchor="middle" x="2794" y="-96.8" font-family="Times,serif" font-size="14.00">N1</text>
<polyline fill="none" stroke="black" points="2813,-82.5 2813,-118.5 "/>
<text text-anchor="middle" x="2825.5" y="-96.8" font-family="Times,serif" font-size="14.00">a</text>
<polyline fill="none" stroke="black" points="2838,-82.5 2838,-118.5 "/>
<text text-anchor="middle" x="2889" y="-96.8" font-family="Times,serif" font-size="14.00">data 3.6000</text>
<polyline fill="none" stroke="black" points="2940,-82.5 2940,-118.5 "/>
<text text-anchor="middle" x="2992" y="-96.8" font-family="Times,serif" font-size="14.00">grad 7.2000</text>
</g>
<!-- 140260402425296&#45;&gt;140260402422800* -->
<g id="edge17" class="edge">
<title>140260402425296&#45;&gt;140260402422800*</title>
<path fill="none" stroke="black" d="M3044.14,-100.5C3053.34,-100.5 3061.94,-100.5 3069.63,-100.5"/>
<polygon fill="black" stroke="black" points="3069.86,-104 3079.86,-100.5 3069.86,-97 3069.86,-104"/>
</g>
<!-- 140260402425296+&#45;&gt;140260402425296 -->
<g id="edge9" class="edge">
<title>140260402425296+&#45;&gt;140260402425296</title>
<path fill="none" stroke="black" d="M2652.03,-100.5C2659.4,-100.5 2668.02,-100.5 2677.49,-100.5"/>
<polygon fill="black" stroke="black" points="2677.66,-104 2687.66,-100.5 2677.66,-97 2677.66,-104"/>
</g>
<!-- 140260402419680 -->
<g id="node25" class="node">
<title>140260402419680</title>
<polygon fill="none" stroke="black" points="987,-0.5 987,-36.5 1365,-36.5 1365,-0.5 987,-0.5"/>
<text text-anchor="middle" x="1013" y="-14.8" font-family="Times,serif" font-size="14.00">v005</text>
<polyline fill="none" stroke="black" points="1039,-0.5 1039,-36.5 "/>
<text text-anchor="middle" x="1056.5" y="-14.8" font-family="Times,serif" font-size="14.00">L2</text>
<polyline fill="none" stroke="black" points="1074,-0.5 1074,-36.5 "/>
<text text-anchor="middle" x="1093" y="-14.8" font-family="Times,serif" font-size="14.00">N1</text>
<polyline fill="none" stroke="black" points="1112,-0.5 1112,-36.5 "/>
<text text-anchor="middle" x="1131" y="-14.8" font-family="Times,serif" font-size="14.00">w1</text>
<polyline fill="none" stroke="black" points="1150,-0.5 1150,-36.5 "/>
<text text-anchor="middle" x="1201" y="-14.8" font-family="Times,serif" font-size="14.00">data 0.6000</text>
<polyline fill="none" stroke="black" points="1252,-0.5 1252,-36.5 "/>
<text text-anchor="middle" x="1308.5" y="-14.8" font-family="Times,serif" font-size="14.00">grad 14.4000</text>
</g>
<!-- 140260402419680&#45;&gt;140260402423424* -->
<g id="edge15" class="edge">
<title>140260402419680&#45;&gt;140260402423424*</title>
<path fill="none" stroke="black" d="M1328.89,-36.53C1341.2,-39.14 1353.37,-42.11 1365,-45.5 1375.83,-48.65 1387.2,-53.35 1397.21,-58"/>
<polygon fill="black" stroke="black" points="1395.8,-61.2 1406.33,-62.39 1398.84,-54.9 1395.8,-61.2"/>
</g>
<!-- 140260953974256 -->
<g id="node26" class="node">
<title>140260953974256</title>
<polygon fill="none" stroke="black" points="24,-110.5 24,-146.5 354,-146.5 354,-110.5 24,-110.5"/>
<text text-anchor="middle" x="50" y="-124.8" font-family="Times,serif" font-size="14.00">v008</text>
<polyline fill="none" stroke="black" points="76,-110.5 76,-146.5 "/>
<text text-anchor="middle" x="86.5" y="-124.8" font-family="Times,serif" font-size="14.00"> </text>
<polyline fill="none" stroke="black" points="97,-110.5 97,-146.5 "/>
<text text-anchor="middle" x="107.5" y="-124.8" font-family="Times,serif" font-size="14.00"> </text>
<polyline fill="none" stroke="black" points="118,-110.5 118,-146.5 "/>
<text text-anchor="middle" x="133" y="-124.8" font-family="Times,serif" font-size="14.00">i1</text>
<polyline fill="none" stroke="black" points="148,-110.5 148,-146.5 "/>
<text text-anchor="middle" x="199" y="-124.8" font-family="Times,serif" font-size="14.00">data 4.0000</text>
<polyline fill="none" stroke="black" points="250,-110.5 250,-146.5 "/>
<text text-anchor="middle" x="302" y="-124.8" font-family="Times,serif" font-size="14.00">grad 6.4800</text>
</g>
<!-- 140260953974256&#45;&gt;140260402421264* -->
<g id="edge22" class="edge">
<title>140260953974256&#45;&gt;140260402421264*</title>
<path fill="none" stroke="black" d="M336.8,-110.47C350.83,-107.6 364.76,-104.3 378,-100.5 388.69,-97.43 399.96,-92.94 409.91,-88.5"/>
<polygon fill="black" stroke="black" points="411.38,-91.67 418.99,-84.3 408.45,-85.32 411.38,-91.67"/>
</g>
<!-- 140260953974256&#45;&gt;140260402428800* -->
<g id="edge16" class="edge">
<title>140260953974256&#45;&gt;140260402428800*</title>
<path fill="none" stroke="black" d="M336.8,-146.53C350.83,-149.4 364.76,-152.7 378,-156.5 388.69,-159.57 399.96,-164.06 409.91,-168.5"/>
<polygon fill="black" stroke="black" points="408.45,-171.68 418.99,-172.7 411.38,-165.33 408.45,-171.68"/>
</g>
</g>
</svg>
