<?xml version="1.0" encoding="UTF-8" standalone="no"?>
<!DOCTYPE svg PUBLIC "-//W3C//DTD SVG 1.1//EN"
 "http://www.w3.org/Graphics/SVG/1.1/DTD/svg11.dtd">
<!-- Generated by graphviz version 2.43.0 (0)
 -->
<!-- Title: %3 Pages: 1 -->
<svg width="3500pt" height="265pt"
 viewBox="0.00 0.00 3500.00 265.00" xmlns="http://www.w3.org/2000/svg" xmlns:xlink="http://www.w3.org/1999/xlink">
<g id="graph0" class="graph" transform="scale(1 1) rotate(0) translate(4 261)">
<title>%3</title>
<polygon fill="white" stroke="transparent" points="-4,4 -4,-261 3496,-261 3496,4 -4,4"/>
<!-- 140260402426400 -->
<g id="node1" class="node">
<title>140260402426400</title>
<polygon fill="none" stroke="black" points="994,-55.5 994,-91.5 1350,-91.5 1350,-55.5 994,-55.5"/>
<text text-anchor="middle" x="1020" y="-69.8" font-family="Times,serif" font-size="14.00">v040</text>
<polyline fill="none" stroke="black" points="1046,-55.5 1046,-91.5 "/>
<text text-anchor="middle" x="1063.5" y="-69.8" font-family="Times,serif" font-size="14.00">L1</text>
<polyline fill="none" stroke="black" points="1081,-55.5 1081,-91.5 "/>
<text text-anchor="middle" x="1100" y="-69.8" font-family="Times,serif" font-size="14.00">N2</text>
<polyline fill="none" stroke="black" points="1119,-55.5 1119,-91.5 "/>
<text text-anchor="middle" x="1131.5" y="-69.8" font-family="Times,serif" font-size="14.00">a</text>
<polyline fill="none" stroke="black" points="1144,-55.5 1144,-91.5 "/>
<text text-anchor="middle" x="1195" y="-69.8" font-family="Times,serif" font-size="14.00">data 3.9146</text>
<polyline fill="none" stroke="black" points="1246,-55.5 1246,-91.5 "/>
<text text-anchor="middle" x="1298" y="-69.8" font-family="Times,serif" font-size="14.00">grad 1.0821</text>
</g>
<!-- 140260402428176* -->
<g id="node16" class="node">
<title>140260402428176*</title>
<ellipse fill="none" stroke="black" cx="1424" cy="-60.5" rx="27" ry="18"/>
<text text-anchor="middle" x="1424" y="-56.8" font-family="Times,serif" font-size="14.00">*</text>
</g>
<!-- 140260402426400&#45;&gt;140260402428176* -->
<g id="edge21" class="edge">
<title>140260402426400&#45;&gt;140260402428176*</title>
<path fill="none" stroke="black" d="M1350.02,-64.3C1363.49,-63.59 1375.97,-62.95 1386.67,-62.39"/>
<polygon fill="black" stroke="black" points="1386.94,-65.88 1396.75,-61.87 1386.58,-58.89 1386.94,-65.88"/>
</g>
<!-- 140260402426400+ -->
<g id="node2" class="node">
<title>140260402426400+</title>
<ellipse fill="none" stroke="black" cx="920" cy="-73.5" rx="27" ry="18"/>
<text text-anchor="middle" x="920" y="-69.8" font-family="Times,serif" font-size="14.00">+</text>
</g>
<!-- 140260402426400+&#45;&gt;140260402426400 -->
<g id="edge1" class="edge">
<title>140260402426400+&#45;&gt;140260402426400</title>
<path fill="none" stroke="black" d="M947.28,-73.5C957.37,-73.5 969.81,-73.5 983.62,-73.5"/>
<polygon fill="black" stroke="black" points="983.9,-77 993.9,-73.5 983.9,-70 983.9,-77"/>
</g>
<!-- 140260402426496 -->
<g id="node3" class="node">
<title>140260402426496</title>
<polygon fill="none" stroke="black" points="1507.5,-148.5 1507.5,-184.5 1828.5,-184.5 1828.5,-148.5 1507.5,-148.5"/>
<text text-anchor="middle" x="1533.5" y="-162.8" font-family="Times,serif" font-size="14.00">v041</text>
<polyline fill="none" stroke="black" points="1559.5,-148.5 1559.5,-184.5 "/>
<text text-anchor="middle" x="1570" y="-162.8" font-family="Times,serif" font-size="14.00"> </text>
<polyline fill="none" stroke="black" points="1580.5,-148.5 1580.5,-184.5 "/>
<text text-anchor="middle" x="1591" y="-162.8" font-family="Times,serif" font-size="14.00"> </text>
<polyline fill="none" stroke="black" points="1601.5,-148.5 1601.5,-184.5 "/>
<text text-anchor="middle" x="1612" y="-162.8" font-family="Times,serif" font-size="14.00"> </text>
<polyline fill="none" stroke="black" points="1622.5,-148.5 1622.5,-184.5 "/>
<text text-anchor="middle" x="1673.5" y="-162.8" font-family="Times,serif" font-size="14.00">data 0.7092</text>
<polyline fill="none" stroke="black" points="1724.5,-148.5 1724.5,-184.5 "/>
<text text-anchor="middle" x="1776.5" y="-162.8" font-family="Times,serif" font-size="14.00">grad 3.1150</text>
</g>
<!-- 140260402424576+ -->
<g id="node13" class="node">
<title>140260402424576+</title>
<ellipse fill="none" stroke="black" cx="2045.5" cy="-115.5" rx="27" ry="18"/>
<text text-anchor="middle" x="2045.5" y="-111.8" font-family="Times,serif" font-size="14.00">+</text>
</g>
<!-- 140260402426496&#45;&gt;140260402424576+ -->
<g id="edge22" class="edge">
<title>140260402426496&#45;&gt;140260402424576+</title>
<path fill="none" stroke="black" d="M1801.65,-148.48C1875.43,-138.46 1961.67,-126.75 2008.96,-120.33"/>
<polygon fill="black" stroke="black" points="2009.56,-123.78 2019,-118.96 2008.62,-116.84 2009.56,-123.78"/>
</g>
<!-- 140260402426496* -->
<g id="node4" class="node">
<title>140260402426496*</title>
<ellipse fill="none" stroke="black" cx="1424" cy="-166.5" rx="27" ry="18"/>
<text text-anchor="middle" x="1424" y="-162.8" font-family="Times,serif" font-size="14.00">*</text>
</g>
<!-- 140260402426496*&#45;&gt;140260402426496 -->
<g id="edge2" class="edge">
<title>140260402426496*&#45;&gt;140260402426496</title>
<path fill="none" stroke="black" d="M1451.36,-166.5C1463.7,-166.5 1479.53,-166.5 1497,-166.5"/>
<polygon fill="black" stroke="black" points="1497.46,-170 1507.46,-166.5 1497.46,-163 1497.46,-170"/>
</g>
<!-- 140260402419344 -->
<g id="node5" class="node">
<title>140260402419344</title>
<polygon fill="none" stroke="black" points="983,-0.5 983,-36.5 1361,-36.5 1361,-0.5 983,-0.5"/>
<text text-anchor="middle" x="1009" y="-14.8" font-family="Times,serif" font-size="14.00">v006</text>
<polyline fill="none" stroke="black" points="1035,-0.5 1035,-36.5 "/>
<text text-anchor="middle" x="1052.5" y="-14.8" font-family="Times,serif" font-size="14.00">L2</text>
<polyline fill="none" stroke="black" points="1070,-0.5 1070,-36.5 "/>
<text text-anchor="middle" x="1089" y="-14.8" font-family="Times,serif" font-size="14.00">N1</text>
<polyline fill="none" stroke="black" points="1108,-0.5 1108,-36.5 "/>
<text text-anchor="middle" x="1127" y="-14.8" font-family="Times,serif" font-size="14.00">w2</text>
<polyline fill="none" stroke="black" points="1146,-0.5 1146,-36.5 "/>
<text text-anchor="middle" x="1197" y="-14.8" font-family="Times,serif" font-size="14.00">data 0.3474</text>
<polyline fill="none" stroke="black" points="1248,-0.5 1248,-36.5 "/>
<text text-anchor="middle" x="1304.5" y="-14.8" font-family="Times,serif" font-size="14.00">grad 12.1940</text>
</g>
<!-- 140260402419344&#45;&gt;140260402428176* -->
<g id="edge24" class="edge">
<title>140260402419344&#45;&gt;140260402428176*</title>
<path fill="none" stroke="black" d="M1309.31,-36.52C1326.75,-39.28 1344.32,-42.29 1361,-45.5 1370.09,-47.25 1379.85,-49.45 1388.87,-51.63"/>
<polygon fill="black" stroke="black" points="1388.13,-55.05 1398.68,-54.05 1389.81,-48.26 1388.13,-55.05"/>
</g>
<!-- 140260402422656 -->
<g id="node6" class="node">
<title>140260402422656</title>
<polygon fill="none" stroke="black" points="0,-110.5 0,-146.5 369,-146.5 369,-110.5 0,-110.5"/>
<text text-anchor="middle" x="26" y="-124.8" font-family="Times,serif" font-size="14.00">v003</text>
<polyline fill="none" stroke="black" points="52,-110.5 52,-146.5 "/>
<text text-anchor="middle" x="69.5" y="-124.8" font-family="Times,serif" font-size="14.00">L1</text>
<polyline fill="none" stroke="black" points="87,-110.5 87,-146.5 "/>
<text text-anchor="middle" x="106" y="-124.8" font-family="Times,serif" font-size="14.00">N2</text>
<polyline fill="none" stroke="black" points="125,-110.5 125,-146.5 "/>
<text text-anchor="middle" x="144" y="-124.8" font-family="Times,serif" font-size="14.00">w1</text>
<polyline fill="none" stroke="black" points="163,-110.5 163,-146.5 "/>
<text text-anchor="middle" x="214" y="-124.8" font-family="Times,serif" font-size="14.00">data 0.9505</text>
<polyline fill="none" stroke="black" points="265,-110.5 265,-146.5 "/>
<text text-anchor="middle" x="317" y="-124.8" font-family="Times,serif" font-size="14.00">grad 4.3286</text>
</g>
<!-- 140260402426832* -->
<g id="node23" class="node">
<title>140260402426832*</title>
<ellipse fill="none" stroke="black" cx="432" cy="-128.5" rx="27" ry="18"/>
<text text-anchor="middle" x="432" y="-124.8" font-family="Times,serif" font-size="14.00">*</text>
</g>
<!-- 140260402422656&#45;&gt;140260402426832* -->
<g id="edge25" class="edge">
<title>140260402422656&#45;&gt;140260402426832*</title>
<path fill="none" stroke="black" d="M369.05,-128.5C378.29,-128.5 386.92,-128.5 394.62,-128.5"/>
<polygon fill="black" stroke="black" points="394.87,-132 404.87,-128.5 394.87,-125 394.87,-132"/>
</g>
<!-- 140260402428608 -->
<g id="node7" class="node">
<title>140260402428608</title>
<polygon fill="none" stroke="black" points="515.5,-220.5 515.5,-256.5 836.5,-256.5 836.5,-220.5 515.5,-220.5"/>
<text text-anchor="middle" x="541.5" y="-234.8" font-family="Times,serif" font-size="14.00">v037</text>
<polyline fill="none" stroke="black" points="567.5,-220.5 567.5,-256.5 "/>
<text text-anchor="middle" x="578" y="-234.8" font-family="Times,serif" font-size="14.00"> </text>
<polyline fill="none" stroke="black" points="588.5,-220.5 588.5,-256.5 "/>
<text text-anchor="middle" x="599" y="-234.8" font-family="Times,serif" font-size="14.00"> </text>
<polyline fill="none" stroke="black" points="609.5,-220.5 609.5,-256.5 "/>
<text text-anchor="middle" x="620" y="-234.8" font-family="Times,serif" font-size="14.00"> </text>
<polyline fill="none" stroke="black" points="630.5,-220.5 630.5,-256.5 "/>
<text text-anchor="middle" x="681.5" y="-234.8" font-family="Times,serif" font-size="14.00">data 1.9257</text>
<polyline fill="none" stroke="black" points="732.5,-220.5 732.5,-256.5 "/>
<text text-anchor="middle" x="784.5" y="-234.8" font-family="Times,serif" font-size="14.00">grad 1.1499</text>
</g>
<!-- 140260402427792+ -->
<g id="node20" class="node">
<title>140260402427792+</title>
<ellipse fill="none" stroke="black" cx="920" cy="-196.5" rx="27" ry="18"/>
<text text-anchor="middle" x="920" y="-192.8" font-family="Times,serif" font-size="14.00">+</text>
</g>
<!-- 140260402428608&#45;&gt;140260402427792+ -->
<g id="edge11" class="edge">
<title>140260402428608&#45;&gt;140260402427792+</title>
<path fill="none" stroke="black" d="M806.53,-220.48C823.54,-217.7 840.72,-214.68 857,-211.5 866.08,-209.72 875.84,-207.51 884.86,-205.33"/>
<polygon fill="black" stroke="black" points="885.8,-208.71 894.67,-202.91 884.12,-201.91 885.8,-208.71"/>
</g>
<!-- 140260402428608* -->
<g id="node8" class="node">
<title>140260402428608*</title>
<ellipse fill="none" stroke="black" cx="432" cy="-238.5" rx="27" ry="18"/>
<text text-anchor="middle" x="432" y="-234.8" font-family="Times,serif" font-size="14.00">*</text>
</g>
<!-- 140260402428608*&#45;&gt;140260402428608 -->
<g id="edge3" class="edge">
<title>140260402428608*&#45;&gt;140260402428608</title>
<path fill="none" stroke="black" d="M459.36,-238.5C471.7,-238.5 487.53,-238.5 505,-238.5"/>
<polygon fill="black" stroke="black" points="505.46,-242 515.46,-238.5 505.46,-235 505.46,-242"/>
</g>
<!-- 140260402428128 -->
<g id="node9" class="node">
<title>140260402428128</title>
<polygon fill="none" stroke="black" points="2689,-69.5 2689,-105.5 3045,-105.5 3045,-69.5 2689,-69.5"/>
<text text-anchor="middle" x="2715" y="-83.8" font-family="Times,serif" font-size="14.00">v044</text>
<polyline fill="none" stroke="black" points="2741,-69.5 2741,-105.5 "/>
<text text-anchor="middle" x="2758.5" y="-83.8" font-family="Times,serif" font-size="14.00">L2</text>
<polyline fill="none" stroke="black" points="2776,-69.5 2776,-105.5 "/>
<text text-anchor="middle" x="2795" y="-83.8" font-family="Times,serif" font-size="14.00">N1</text>
<polyline fill="none" stroke="black" points="2814,-69.5 2814,-105.5 "/>
<text text-anchor="middle" x="2826.5" y="-83.8" font-family="Times,serif" font-size="14.00">a</text>
<polyline fill="none" stroke="black" points="2839,-69.5 2839,-105.5 "/>
<text text-anchor="middle" x="2890" y="-83.8" font-family="Times,serif" font-size="14.00">data 1.5575</text>
<polyline fill="none" stroke="black" points="2941,-69.5 2941,-105.5 "/>
<text text-anchor="middle" x="2993" y="-83.8" font-family="Times,serif" font-size="14.00">grad 3.1150</text>
</g>
<!-- 140260402429424* -->
<g id="node26" class="node">
<title>140260402429424*</title>
<ellipse fill="none" stroke="black" cx="3108" cy="-87.5" rx="27" ry="18"/>
<text text-anchor="middle" x="3108" y="-83.8" font-family="Times,serif" font-size="14.00">*</text>
</g>
<!-- 140260402428128&#45;&gt;140260402429424* -->
<g id="edge15" class="edge">
<title>140260402428128&#45;&gt;140260402429424*</title>
<path fill="none" stroke="black" d="M3045.14,-87.5C3054.34,-87.5 3062.94,-87.5 3070.63,-87.5"/>
<polygon fill="black" stroke="black" points="3070.86,-91 3080.86,-87.5 3070.86,-84 3070.86,-91"/>
</g>
<!-- 140260402428128+ -->
<g id="node10" class="node">
<title>140260402428128+</title>
<ellipse fill="none" stroke="black" cx="2626" cy="-87.5" rx="27" ry="18"/>
<text text-anchor="middle" x="2626" y="-83.8" font-family="Times,serif" font-size="14.00">+</text>
</g>
<!-- 140260402428128+&#45;&gt;140260402428128 -->
<g id="edge4" class="edge">
<title>140260402428128+&#45;&gt;140260402428128</title>
<path fill="none" stroke="black" d="M2653.03,-87.5C2660.4,-87.5 2669.02,-87.5 2678.49,-87.5"/>
<polygon fill="black" stroke="black" points="2678.66,-91 2688.66,-87.5 2678.66,-84 2678.66,-91"/>
</g>
<!-- 140260953974256 -->
<g id="node11" class="node">
<title>140260953974256</title>
<polygon fill="none" stroke="black" points="19.5,-165.5 19.5,-201.5 349.5,-201.5 349.5,-165.5 19.5,-165.5"/>
<text text-anchor="middle" x="45.5" y="-179.8" font-family="Times,serif" font-size="14.00">v008</text>
<polyline fill="none" stroke="black" points="71.5,-165.5 71.5,-201.5 "/>
<text text-anchor="middle" x="82" y="-179.8" font-family="Times,serif" font-size="14.00"> </text>
<polyline fill="none" stroke="black" points="92.5,-165.5 92.5,-201.5 "/>
<text text-anchor="middle" x="103" y="-179.8" font-family="Times,serif" font-size="14.00"> </text>
<polyline fill="none" stroke="black" points="113.5,-165.5 113.5,-201.5 "/>
<text text-anchor="middle" x="128.5" y="-179.8" font-family="Times,serif" font-size="14.00">i1</text>
<polyline fill="none" stroke="black" points="143.5,-165.5 143.5,-201.5 "/>
<text text-anchor="middle" x="194.5" y="-179.8" font-family="Times,serif" font-size="14.00">data 4.0000</text>
<polyline fill="none" stroke="black" points="245.5,-165.5 245.5,-201.5 "/>
<text text-anchor="middle" x="297.5" y="-179.8" font-family="Times,serif" font-size="14.00">grad 1.5822</text>
</g>
<!-- 140260953974256&#45;&gt;140260402428608* -->
<g id="edge10" class="edge">
<title>140260953974256&#45;&gt;140260402428608*</title>
<path fill="none" stroke="black" d="M328.05,-201.51C341.99,-204.39 355.84,-207.7 369,-211.5 379.68,-214.58 390.95,-219.08 400.91,-223.53"/>
<polygon fill="black" stroke="black" points="399.44,-226.71 409.99,-227.72 402.38,-220.35 399.44,-226.71"/>
</g>
<!-- 140260953974256&#45;&gt;140260402426832* -->
<g id="edge17" class="edge">
<title>140260953974256&#45;&gt;140260402426832*</title>
<path fill="none" stroke="black" d="M333.02,-165.49C345.28,-162.88 357.41,-159.9 369,-156.5 379.82,-153.33 391.2,-148.63 401.21,-143.98"/>
<polygon fill="black" stroke="black" points="402.83,-147.08 410.32,-139.59 399.79,-140.77 402.83,-147.08"/>
</g>
<!-- 140260402424576 -->
<g id="node12" class="node">
<title>140260402424576</title>
<polygon fill="none" stroke="black" points="2242,-95.5 2242,-131.5 2563,-131.5 2563,-95.5 2242,-95.5"/>
<text text-anchor="middle" x="2268" y="-109.8" font-family="Times,serif" font-size="14.00">v042</text>
<polyline fill="none" stroke="black" points="2294,-95.5 2294,-131.5 "/>
<text text-anchor="middle" x="2304.5" y="-109.8" font-family="Times,serif" font-size="14.00"> </text>
<polyline fill="none" stroke="black" points="2315,-95.5 2315,-131.5 "/>
<text text-anchor="middle" x="2325.5" y="-109.8" font-family="Times,serif" font-size="14.00"> </text>
<polyline fill="none" stroke="black" points="2336,-95.5 2336,-131.5 "/>
<text text-anchor="middle" x="2346.5" y="-109.8" font-family="Times,serif" font-size="14.00"> </text>
<polyline fill="none" stroke="black" points="2357,-95.5 2357,-131.5 "/>
<text text-anchor="middle" x="2408" y="-109.8" font-family="Times,serif" font-size="14.00">data 0.1976</text>
<polyline fill="none" stroke="black" points="2459,-95.5 2459,-131.5 "/>
<text text-anchor="middle" x="2511" y="-109.8" font-family="Times,serif" font-size="14.00">grad 3.1150</text>
</g>
<!-- 140260402424576&#45;&gt;140260402428128+ -->
<g id="edge19" class="edge">
<title>140260402424576&#45;&gt;140260402428128+</title>
<path fill="none" stroke="black" d="M2557.04,-95.48C2568.67,-94.11 2579.55,-92.83 2589.06,-91.72"/>
<polygon fill="black" stroke="black" points="2589.64,-95.17 2599.17,-90.53 2588.83,-88.22 2589.64,-95.17"/>
</g>
<!-- 140260402424576+&#45;&gt;140260402424576 -->
<g id="edge5" class="edge">
<title>140260402424576+&#45;&gt;140260402424576</title>
<path fill="none" stroke="black" d="M2072.6,-115.35C2106.81,-115.16 2169.72,-114.81 2231.43,-114.46"/>
<polygon fill="black" stroke="black" points="2231.74,-117.96 2241.72,-114.4 2231.7,-110.96 2231.74,-117.96"/>
</g>
<!-- 140260402422512 -->
<g id="node14" class="node">
<title>140260402422512</title>
<polygon fill="none" stroke="black" points="495,-165.5 495,-201.5 857,-201.5 857,-165.5 495,-165.5"/>
<text text-anchor="middle" x="521" y="-179.8" font-family="Times,serif" font-size="14.00">v002</text>
<polyline fill="none" stroke="black" points="547,-165.5 547,-201.5 "/>
<text text-anchor="middle" x="564.5" y="-179.8" font-family="Times,serif" font-size="14.00">L1</text>
<polyline fill="none" stroke="black" points="582,-165.5 582,-201.5 "/>
<text text-anchor="middle" x="601" y="-179.8" font-family="Times,serif" font-size="14.00">N1</text>
<polyline fill="none" stroke="black" points="620,-165.5 620,-201.5 "/>
<text text-anchor="middle" x="633" y="-179.8" font-family="Times,serif" font-size="14.00">b</text>
<polyline fill="none" stroke="black" points="646,-165.5 646,-201.5 "/>
<text text-anchor="middle" x="699.5" y="-179.8" font-family="Times,serif" font-size="14.00">data &#45;0.0046</text>
<polyline fill="none" stroke="black" points="753,-165.5 753,-201.5 "/>
<text text-anchor="middle" x="805" y="-179.8" font-family="Times,serif" font-size="14.00">grad 1.1499</text>
</g>
<!-- 140260402422512&#45;&gt;140260402427792+ -->
<g id="edge26" class="edge">
<title>140260402422512&#45;&gt;140260402427792+</title>
<path fill="none" stroke="black" d="M857.31,-193.19C866.5,-193.68 875.08,-194.14 882.76,-194.55"/>
<polygon fill="black" stroke="black" points="882.79,-198.06 892.96,-195.1 883.16,-191.07 882.79,-198.06"/>
</g>
<!-- 140260402428176 -->
<g id="node15" class="node">
<title>140260402428176</title>
<polygon fill="none" stroke="black" points="1885,-42.5 1885,-78.5 2206,-78.5 2206,-42.5 1885,-42.5"/>
<text text-anchor="middle" x="1911" y="-56.8" font-family="Times,serif" font-size="14.00">v043</text>
<polyline fill="none" stroke="black" points="1937,-42.5 1937,-78.5 "/>
<text text-anchor="middle" x="1947.5" y="-56.8" font-family="Times,serif" font-size="14.00"> </text>
<polyline fill="none" stroke="black" points="1958,-42.5 1958,-78.5 "/>
<text text-anchor="middle" x="1968.5" y="-56.8" font-family="Times,serif" font-size="14.00"> </text>
<polyline fill="none" stroke="black" points="1979,-42.5 1979,-78.5 "/>
<text text-anchor="middle" x="1989.5" y="-56.8" font-family="Times,serif" font-size="14.00"> </text>
<polyline fill="none" stroke="black" points="2000,-42.5 2000,-78.5 "/>
<text text-anchor="middle" x="2051" y="-56.8" font-family="Times,serif" font-size="14.00">data 1.3599</text>
<polyline fill="none" stroke="black" points="2102,-42.5 2102,-78.5 "/>
<text text-anchor="middle" x="2154" y="-56.8" font-family="Times,serif" font-size="14.00">grad 3.1150</text>
</g>
<!-- 140260402428176&#45;&gt;140260402428128+ -->
<g id="edge23" class="edge">
<title>140260402428176&#45;&gt;140260402428128+</title>
<path fill="none" stroke="black" d="M2206.11,-67.95C2337.28,-74.07 2513.3,-82.29 2588.48,-85.8"/>
<polygon fill="black" stroke="black" points="2588.67,-89.31 2598.82,-86.28 2589,-82.32 2588.67,-89.31"/>
</g>
<!-- 140260402428176*&#45;&gt;140260402428176 -->
<g id="edge6" class="edge">
<title>140260402428176*&#45;&gt;140260402428176</title>
<path fill="none" stroke="black" d="M1451.22,-60.5C1522.76,-60.5 1725.85,-60.5 1874.55,-60.5"/>
<polygon fill="black" stroke="black" points="1874.71,-64 1884.71,-60.5 1874.71,-57 1874.71,-64"/>
</g>
<!-- 140260402422704 -->
<g id="node17" class="node">
<title>140260402422704</title>
<polygon fill="none" stroke="black" points="497.5,-55.5 497.5,-91.5 854.5,-91.5 854.5,-55.5 497.5,-55.5"/>
<text text-anchor="middle" x="523.5" y="-69.8" font-family="Times,serif" font-size="14.00">v004</text>
<polyline fill="none" stroke="black" points="549.5,-55.5 549.5,-91.5 "/>
<text text-anchor="middle" x="567" y="-69.8" font-family="Times,serif" font-size="14.00">L1</text>
<polyline fill="none" stroke="black" points="584.5,-55.5 584.5,-91.5 "/>
<text text-anchor="middle" x="603.5" y="-69.8" font-family="Times,serif" font-size="14.00">N2</text>
<polyline fill="none" stroke="black" points="622.5,-55.5 622.5,-91.5 "/>
<text text-anchor="middle" x="635.5" y="-69.8" font-family="Times,serif" font-size="14.00">b</text>
<polyline fill="none" stroke="black" points="648.5,-55.5 648.5,-91.5 "/>
<text text-anchor="middle" x="699.5" y="-69.8" font-family="Times,serif" font-size="14.00">data 0.1126</text>
<polyline fill="none" stroke="black" points="750.5,-55.5 750.5,-91.5 "/>
<text text-anchor="middle" x="802.5" y="-69.8" font-family="Times,serif" font-size="14.00">grad 1.0821</text>
</g>
<!-- 140260402422704&#45;&gt;140260402426400+ -->
<g id="edge12" class="edge">
<title>140260402422704&#45;&gt;140260402426400+</title>
<path fill="none" stroke="black" d="M854.78,-73.5C864.82,-73.5 874.18,-73.5 882.49,-73.5"/>
<polygon fill="black" stroke="black" points="882.76,-77 892.76,-73.5 882.76,-70 882.76,-77"/>
</g>
<!-- 140260402419584 -->
<g id="node18" class="node">
<title>140260402419584</title>
<polygon fill="none" stroke="black" points="0,-220.5 0,-256.5 369,-256.5 369,-220.5 0,-220.5"/>
<text text-anchor="middle" x="26" y="-234.8" font-family="Times,serif" font-size="14.00">v001</text>
<polyline fill="none" stroke="black" points="52,-220.5 52,-256.5 "/>
<text text-anchor="middle" x="69.5" y="-234.8" font-family="Times,serif" font-size="14.00">L1</text>
<polyline fill="none" stroke="black" points="87,-220.5 87,-256.5 "/>
<text text-anchor="middle" x="106" y="-234.8" font-family="Times,serif" font-size="14.00">N1</text>
<polyline fill="none" stroke="black" points="125,-220.5 125,-256.5 "/>
<text text-anchor="middle" x="144" y="-234.8" font-family="Times,serif" font-size="14.00">w1</text>
<polyline fill="none" stroke="black" points="163,-220.5 163,-256.5 "/>
<text text-anchor="middle" x="214" y="-234.8" font-family="Times,serif" font-size="14.00">data 0.4814</text>
<polyline fill="none" stroke="black" points="265,-220.5 265,-256.5 "/>
<text text-anchor="middle" x="317" y="-234.8" font-family="Times,serif" font-size="14.00">grad 4.5995</text>
</g>
<!-- 140260402419584&#45;&gt;140260402428608* -->
<g id="edge16" class="edge">
<title>140260402419584&#45;&gt;140260402428608*</title>
<path fill="none" stroke="black" d="M369.05,-238.5C378.29,-238.5 386.92,-238.5 394.62,-238.5"/>
<polygon fill="black" stroke="black" points="394.87,-242 404.87,-238.5 394.87,-235 394.87,-242"/>
</g>
<!-- 140260402427792 -->
<g id="node19" class="node">
<title>140260402427792</title>
<polygon fill="none" stroke="black" points="994,-178.5 994,-214.5 1350,-214.5 1350,-178.5 994,-178.5"/>
<text text-anchor="middle" x="1020" y="-192.8" font-family="Times,serif" font-size="14.00">v038</text>
<polyline fill="none" stroke="black" points="1046,-178.5 1046,-214.5 "/>
<text text-anchor="middle" x="1063.5" y="-192.8" font-family="Times,serif" font-size="14.00">L1</text>
<polyline fill="none" stroke="black" points="1081,-178.5 1081,-214.5 "/>
<text text-anchor="middle" x="1100" y="-192.8" font-family="Times,serif" font-size="14.00">N1</text>
<polyline fill="none" stroke="black" points="1119,-178.5 1119,-214.5 "/>
<text text-anchor="middle" x="1131.5" y="-192.8" font-family="Times,serif" font-size="14.00">a</text>
<polyline fill="none" stroke="black" points="1144,-178.5 1144,-214.5 "/>
<text text-anchor="middle" x="1195" y="-192.8" font-family="Times,serif" font-size="14.00">data 1.9211</text>
<polyline fill="none" stroke="black" points="1246,-178.5 1246,-214.5 "/>
<text text-anchor="middle" x="1298" y="-192.8" font-family="Times,serif" font-size="14.00">grad 1.1499</text>
</g>
<!-- 140260402427792&#45;&gt;140260402426496* -->
<g id="edge14" class="edge">
<title>140260402427792&#45;&gt;140260402426496*</title>
<path fill="none" stroke="black" d="M1323.12,-178.49C1346.82,-175.64 1369.26,-172.95 1386.85,-170.84"/>
<polygon fill="black" stroke="black" points="1387.63,-174.27 1397.14,-169.6 1386.8,-167.32 1387.63,-174.27"/>
</g>
<!-- 140260402427792+&#45;&gt;140260402427792 -->
<g id="edge7" class="edge">
<title>140260402427792+&#45;&gt;140260402427792</title>
<path fill="none" stroke="black" d="M947.28,-196.5C957.37,-196.5 969.81,-196.5 983.62,-196.5"/>
<polygon fill="black" stroke="black" points="983.9,-200 993.9,-196.5 983.9,-193 983.9,-200"/>
</g>
<!-- 140260402419632 -->
<g id="node21" class="node">
<title>140260402419632</title>
<polygon fill="none" stroke="black" points="1487,-93.5 1487,-129.5 1849,-129.5 1849,-93.5 1487,-93.5"/>
<text text-anchor="middle" x="1513" y="-107.8" font-family="Times,serif" font-size="14.00">v007</text>
<polyline fill="none" stroke="black" points="1539,-93.5 1539,-129.5 "/>
<text text-anchor="middle" x="1556.5" y="-107.8" font-family="Times,serif" font-size="14.00">L2</text>
<polyline fill="none" stroke="black" points="1574,-93.5 1574,-129.5 "/>
<text text-anchor="middle" x="1593" y="-107.8" font-family="Times,serif" font-size="14.00">N1</text>
<polyline fill="none" stroke="black" points="1612,-93.5 1612,-129.5 "/>
<text text-anchor="middle" x="1625" y="-107.8" font-family="Times,serif" font-size="14.00">b</text>
<polyline fill="none" stroke="black" points="1638,-93.5 1638,-129.5 "/>
<text text-anchor="middle" x="1691.5" y="-107.8" font-family="Times,serif" font-size="14.00">data &#45;0.5116</text>
<polyline fill="none" stroke="black" points="1745,-93.5 1745,-129.5 "/>
<text text-anchor="middle" x="1797" y="-107.8" font-family="Times,serif" font-size="14.00">grad 3.1150</text>
</g>
<!-- 140260402419632&#45;&gt;140260402424576+ -->
<g id="edge18" class="edge">
<title>140260402419632&#45;&gt;140260402424576+</title>
<path fill="none" stroke="black" d="M1849.05,-113.42C1909.18,-114.06 1970.37,-114.71 2007.88,-115.11"/>
<polygon fill="black" stroke="black" points="2008.24,-118.61 2018.27,-115.22 2008.31,-111.61 2008.24,-118.61"/>
</g>
<!-- 140260402426832 -->
<g id="node22" class="node">
<title>140260402426832</title>
<polygon fill="none" stroke="black" points="515.5,-110.5 515.5,-146.5 836.5,-146.5 836.5,-110.5 515.5,-110.5"/>
<text text-anchor="middle" x="541.5" y="-124.8" font-family="Times,serif" font-size="14.00">v039</text>
<polyline fill="none" stroke="black" points="567.5,-110.5 567.5,-146.5 "/>
<text text-anchor="middle" x="578" y="-124.8" font-family="Times,serif" font-size="14.00"> </text>
<polyline fill="none" stroke="black" points="588.5,-110.5 588.5,-146.5 "/>
<text text-anchor="middle" x="599" y="-124.8" font-family="Times,serif" font-size="14.00"> </text>
<polyline fill="none" stroke="black" points="609.5,-110.5 609.5,-146.5 "/>
<text text-anchor="middle" x="620" y="-124.8" font-family="Times,serif" font-size="14.00"> </text>
<polyline fill="none" stroke="black" points="630.5,-110.5 630.5,-146.5 "/>
<text text-anchor="middle" x="681.5" y="-124.8" font-family="Times,serif" font-size="14.00">data 3.8020</text>
<polyline fill="none" stroke="black" points="732.5,-110.5 732.5,-146.5 "/>
<text text-anchor="middle" x="784.5" y="-124.8" font-family="Times,serif" font-size="14.00">grad 1.0821</text>
</g>
<!-- 140260402426832&#45;&gt;140260402426400+ -->
<g id="edge13" class="edge">
<title>140260402426832&#45;&gt;140260402426400+</title>
<path fill="none" stroke="black" d="M821.22,-110.49C833.42,-107.88 845.48,-104.89 857,-101.5 867.82,-98.31 879.19,-93.61 889.2,-88.96"/>
<polygon fill="black" stroke="black" points="890.82,-92.06 898.32,-84.57 887.79,-85.76 890.82,-92.06"/>
</g>
<!-- 140260402426832*&#45;&gt;140260402426832 -->
<g id="edge8" class="edge">
<title>140260402426832*&#45;&gt;140260402426832</title>
<path fill="none" stroke="black" d="M459.36,-128.5C471.7,-128.5 487.53,-128.5 505,-128.5"/>
<polygon fill="black" stroke="black" points="505.46,-132 515.46,-128.5 505.46,-125 505.46,-132"/>
</g>
<!-- 140260402419680 -->
<g id="node24" class="node">
<title>140260402419680</title>
<polygon fill="none" stroke="black" points="987.5,-123.5 987.5,-159.5 1356.5,-159.5 1356.5,-123.5 987.5,-123.5"/>
<text text-anchor="middle" x="1013.5" y="-137.8" font-family="Times,serif" font-size="14.00">v005</text>
<polyline fill="none" stroke="black" points="1039.5,-123.5 1039.5,-159.5 "/>
<text text-anchor="middle" x="1057" y="-137.8" font-family="Times,serif" font-size="14.00">L2</text>
<polyline fill="none" stroke="black" points="1074.5,-123.5 1074.5,-159.5 "/>
<text text-anchor="middle" x="1093.5" y="-137.8" font-family="Times,serif" font-size="14.00">N1</text>
<polyline fill="none" stroke="black" points="1112.5,-123.5 1112.5,-159.5 "/>
<text text-anchor="middle" x="1131.5" y="-137.8" font-family="Times,serif" font-size="14.00">w1</text>
<polyline fill="none" stroke="black" points="1150.5,-123.5 1150.5,-159.5 "/>
<text text-anchor="middle" x="1201.5" y="-137.8" font-family="Times,serif" font-size="14.00">data 0.3691</text>
<polyline fill="none" stroke="black" points="1252.5,-123.5 1252.5,-159.5 "/>
<text text-anchor="middle" x="1304.5" y="-137.8" font-family="Times,serif" font-size="14.00">grad 5.9841</text>
</g>
<!-- 140260402419680&#45;&gt;140260402426496* -->
<g id="edge20" class="edge">
<title>140260402419680&#45;&gt;140260402426496*</title>
<path fill="none" stroke="black" d="M1353.03,-159.5C1365.41,-160.74 1376.88,-161.89 1386.82,-162.88"/>
<polygon fill="black" stroke="black" points="1386.66,-166.38 1396.95,-163.9 1387.35,-159.42 1386.66,-166.38"/>
</g>
<!-- 140260402429424 -->
<g id="node25" class="node">
<title>140260402429424</title>
<polygon fill="none" stroke="black" points="3171,-69.5 3171,-105.5 3492,-105.5 3492,-69.5 3171,-69.5"/>
<text text-anchor="middle" x="3197" y="-83.8" font-family="Times,serif" font-size="14.00">v045</text>
<polyline fill="none" stroke="black" points="3223,-69.5 3223,-105.5 "/>
<text text-anchor="middle" x="3233.5" y="-83.8" font-family="Times,serif" font-size="14.00"> </text>
<polyline fill="none" stroke="black" points="3244,-69.5 3244,-105.5 "/>
<text text-anchor="middle" x="3254.5" y="-83.8" font-family="Times,serif" font-size="14.00"> </text>
<polyline fill="none" stroke="black" points="3265,-69.5 3265,-105.5 "/>
<text text-anchor="middle" x="3275.5" y="-83.8" font-family="Times,serif" font-size="14.00">l</text>
<polyline fill="none" stroke="black" points="3286,-69.5 3286,-105.5 "/>
<text text-anchor="middle" x="3337" y="-83.8" font-family="Times,serif" font-size="14.00">data 2.4258</text>
<polyline fill="none" stroke="black" points="3388,-69.5 3388,-105.5 "/>
<text text-anchor="middle" x="3440" y="-83.8" font-family="Times,serif" font-size="14.00">grad 1.0000</text>
</g>
<!-- 140260402429424*&#45;&gt;140260402429424 -->
<g id="edge9" class="edge">
<title>140260402429424*&#45;&gt;140260402429424</title>
<path fill="none" stroke="black" d="M3135.28,-87.5C3142.68,-87.5 3151.32,-87.5 3160.76,-87.5"/>
<polygon fill="black" stroke="black" points="3160.88,-91 3170.88,-87.5 3160.88,-84 3160.88,-91"/>
</g>
</g>
</svg>
