<?xml version="1.0" encoding="UTF-8" standalone="no"?>
<!DOCTYPE svg PUBLIC "-//W3C//DTD SVG 1.1//EN"
 "http://www.w3.org/Graphics/SVG/1.1/DTD/svg11.dtd">
<!-- Generated by graphviz version 2.43.0 (0)
 -->
<!-- Title: %3 Pages: 1 -->
<svg width="3505pt" height="265pt"
 viewBox="0.00 0.00 3505.00 265.00" xmlns="http://www.w3.org/2000/svg" xmlns:xlink="http://www.w3.org/1999/xlink">
<g id="graph0" class="graph" transform="scale(1 1) rotate(0) translate(4 261)">
<title>%3</title>
<polygon fill="white" stroke="transparent" points="-4,4 -4,-261 3501,-261 3501,4 -4,4"/>
<!-- 140260402426400 -->
<g id="node1" class="node">
<title>140260402426400</title>
<polygon fill="none" stroke="black" points="996.5,-55.5 996.5,-91.5 1352.5,-91.5 1352.5,-55.5 996.5,-55.5"/>
<text text-anchor="middle" x="1022.5" y="-69.8" font-family="Times,serif" font-size="14.00">v040</text>
<polyline fill="none" stroke="black" points="1048.5,-55.5 1048.5,-91.5 "/>
<text text-anchor="middle" x="1066" y="-69.8" font-family="Times,serif" font-size="14.00">L1</text>
<polyline fill="none" stroke="black" points="1083.5,-55.5 1083.5,-91.5 "/>
<text text-anchor="middle" x="1102.5" y="-69.8" font-family="Times,serif" font-size="14.00">N2</text>
<polyline fill="none" stroke="black" points="1121.5,-55.5 1121.5,-91.5 "/>
<text text-anchor="middle" x="1134" y="-69.8" font-family="Times,serif" font-size="14.00">a</text>
<polyline fill="none" stroke="black" points="1146.5,-55.5 1146.5,-91.5 "/>
<text text-anchor="middle" x="1197.5" y="-69.8" font-family="Times,serif" font-size="14.00">data 3.9146</text>
<polyline fill="none" stroke="black" points="1248.5,-55.5 1248.5,-91.5 "/>
<text text-anchor="middle" x="1300.5" y="-69.8" font-family="Times,serif" font-size="14.00">grad 1.0821</text>
</g>
<!-- 140260402428176* -->
<g id="node16" class="node">
<title>140260402428176*</title>
<ellipse fill="none" stroke="black" cx="1429" cy="-60.5" rx="27" ry="18"/>
<text text-anchor="middle" x="1429" y="-56.8" font-family="Times,serif" font-size="14.00">*</text>
</g>
<!-- 140260402426400&#45;&gt;140260402428176* -->
<g id="edge21" class="edge">
<title>140260402426400&#45;&gt;140260402428176*</title>
<path fill="none" stroke="black" d="M1352.58,-64.38C1366.97,-63.64 1380.31,-62.96 1391.63,-62.37"/>
<polygon fill="black" stroke="black" points="1392.04,-65.86 1401.85,-61.85 1391.68,-58.87 1392.04,-65.86"/>
</g>
<!-- 140260402426400+ -->
<g id="node2" class="node">
<title>140260402426400+</title>
<ellipse fill="none" stroke="black" cx="920" cy="-73.5" rx="27" ry="18"/>
<text text-anchor="middle" x="920" y="-69.8" font-family="Times,serif" font-size="14.00">+</text>
</g>
<!-- 140260402426400+&#45;&gt;140260402426400 -->
<g id="edge1" class="edge">
<title>140260402426400+&#45;&gt;140260402426400</title>
<path fill="none" stroke="black" d="M947.07,-73.5C957.82,-73.5 971.27,-73.5 986.23,-73.5"/>
<polygon fill="black" stroke="black" points="986.27,-77 996.27,-73.5 986.27,-70 986.27,-77"/>
</g>
<!-- 140260402426496 -->
<g id="node3" class="node">
<title>140260402426496</title>
<polygon fill="none" stroke="black" points="1512.5,-148.5 1512.5,-184.5 1833.5,-184.5 1833.5,-148.5 1512.5,-148.5"/>
<text text-anchor="middle" x="1538.5" y="-162.8" font-family="Times,serif" font-size="14.00">v041</text>
<polyline fill="none" stroke="black" points="1564.5,-148.5 1564.5,-184.5 "/>
<text text-anchor="middle" x="1575" y="-162.8" font-family="Times,serif" font-size="14.00"> </text>
<polyline fill="none" stroke="black" points="1585.5,-148.5 1585.5,-184.5 "/>
<text text-anchor="middle" x="1596" y="-162.8" font-family="Times,serif" font-size="14.00"> </text>
<polyline fill="none" stroke="black" points="1606.5,-148.5 1606.5,-184.5 "/>
<text text-anchor="middle" x="1617" y="-162.8" font-family="Times,serif" font-size="14.00"> </text>
<polyline fill="none" stroke="black" points="1627.5,-148.5 1627.5,-184.5 "/>
<text text-anchor="middle" x="1678.5" y="-162.8" font-family="Times,serif" font-size="14.00">data 0.7092</text>
<polyline fill="none" stroke="black" points="1729.5,-148.5 1729.5,-184.5 "/>
<text text-anchor="middle" x="1781.5" y="-162.8" font-family="Times,serif" font-size="14.00">grad 3.1150</text>
</g>
<!-- 140260402424576+ -->
<g id="node13" class="node">
<title>140260402424576+</title>
<ellipse fill="none" stroke="black" cx="2050.5" cy="-115.5" rx="27" ry="18"/>
<text text-anchor="middle" x="2050.5" y="-111.8" font-family="Times,serif" font-size="14.00">+</text>
</g>
<!-- 140260402426496&#45;&gt;140260402424576+ -->
<g id="edge22" class="edge">
<title>140260402426496&#45;&gt;140260402424576+</title>
<path fill="none" stroke="black" d="M1806.65,-148.48C1880.43,-138.46 1966.67,-126.75 2013.96,-120.33"/>
<polygon fill="black" stroke="black" points="2014.56,-123.78 2024,-118.96 2013.62,-116.84 2014.56,-123.78"/>
</g>
<!-- 140260402426496* -->
<g id="node4" class="node">
<title>140260402426496*</title>
<ellipse fill="none" stroke="black" cx="1429" cy="-166.5" rx="27" ry="18"/>
<text text-anchor="middle" x="1429" y="-162.8" font-family="Times,serif" font-size="14.00">*</text>
</g>
<!-- 140260402426496*&#45;&gt;140260402426496 -->
<g id="edge2" class="edge">
<title>140260402426496*&#45;&gt;140260402426496</title>
<path fill="none" stroke="black" d="M1456.36,-166.5C1468.7,-166.5 1484.53,-166.5 1502,-166.5"/>
<polygon fill="black" stroke="black" points="1502.46,-170 1512.46,-166.5 1502.46,-163 1502.46,-170"/>
</g>
<!-- 140260402419344 -->
<g id="node5" class="node">
<title>140260402419344</title>
<polygon fill="none" stroke="black" points="983,-0.5 983,-36.5 1366,-36.5 1366,-0.5 983,-0.5"/>
<text text-anchor="middle" x="1009" y="-14.8" font-family="Times,serif" font-size="14.00">v006</text>
<polyline fill="none" stroke="black" points="1035,-0.5 1035,-36.5 "/>
<text text-anchor="middle" x="1052.5" y="-14.8" font-family="Times,serif" font-size="14.00">L2</text>
<polyline fill="none" stroke="black" points="1070,-0.5 1070,-36.5 "/>
<text text-anchor="middle" x="1089" y="-14.8" font-family="Times,serif" font-size="14.00">N1</text>
<polyline fill="none" stroke="black" points="1108,-0.5 1108,-36.5 "/>
<text text-anchor="middle" x="1127" y="-14.8" font-family="Times,serif" font-size="14.00">w2</text>
<polyline fill="none" stroke="black" points="1146,-0.5 1146,-36.5 "/>
<text text-anchor="middle" x="1199.5" y="-14.8" font-family="Times,serif" font-size="14.00">data &#45;0.2623</text>
<polyline fill="none" stroke="black" points="1253,-0.5 1253,-36.5 "/>
<text text-anchor="middle" x="1309.5" y="-14.8" font-family="Times,serif" font-size="14.00">grad 12.1940</text>
</g>
<!-- 140260402419344&#45;&gt;140260402428176* -->
<g id="edge24" class="edge">
<title>140260402419344&#45;&gt;140260402428176*</title>
<path fill="none" stroke="black" d="M1313.88,-36.51C1331.47,-39.27 1349.19,-42.28 1366,-45.5 1375.09,-47.24 1384.85,-49.44 1393.87,-51.62"/>
<polygon fill="black" stroke="black" points="1393.13,-55.04 1403.68,-54.04 1394.81,-48.24 1393.13,-55.04"/>
</g>
<!-- 140260402422656 -->
<g id="node6" class="node">
<title>140260402422656</title>
<polygon fill="none" stroke="black" points="0,-110.5 0,-146.5 369,-146.5 369,-110.5 0,-110.5"/>
<text text-anchor="middle" x="26" y="-124.8" font-family="Times,serif" font-size="14.00">v003</text>
<polyline fill="none" stroke="black" points="52,-110.5 52,-146.5 "/>
<text text-anchor="middle" x="69.5" y="-124.8" font-family="Times,serif" font-size="14.00">L1</text>
<polyline fill="none" stroke="black" points="87,-110.5 87,-146.5 "/>
<text text-anchor="middle" x="106" y="-124.8" font-family="Times,serif" font-size="14.00">N2</text>
<polyline fill="none" stroke="black" points="125,-110.5 125,-146.5 "/>
<text text-anchor="middle" x="144" y="-124.8" font-family="Times,serif" font-size="14.00">w1</text>
<polyline fill="none" stroke="black" points="163,-110.5 163,-146.5 "/>
<text text-anchor="middle" x="214" y="-124.8" font-family="Times,serif" font-size="14.00">data 0.7341</text>
<polyline fill="none" stroke="black" points="265,-110.5 265,-146.5 "/>
<text text-anchor="middle" x="317" y="-124.8" font-family="Times,serif" font-size="14.00">grad 4.3286</text>
</g>
<!-- 140260402426832* -->
<g id="node23" class="node">
<title>140260402426832*</title>
<ellipse fill="none" stroke="black" cx="432" cy="-128.5" rx="27" ry="18"/>
<text text-anchor="middle" x="432" y="-124.8" font-family="Times,serif" font-size="14.00">*</text>
</g>
<!-- 140260402422656&#45;&gt;140260402426832* -->
<g id="edge25" class="edge">
<title>140260402422656&#45;&gt;140260402426832*</title>
<path fill="none" stroke="black" d="M369.05,-128.5C378.29,-128.5 386.92,-128.5 394.62,-128.5"/>
<polygon fill="black" stroke="black" points="394.87,-132 404.87,-128.5 394.87,-125 394.87,-132"/>
</g>
<!-- 140260402428608 -->
<g id="node7" class="node">
<title>140260402428608</title>
<polygon fill="none" stroke="black" points="515.5,-220.5 515.5,-256.5 836.5,-256.5 836.5,-220.5 515.5,-220.5"/>
<text text-anchor="middle" x="541.5" y="-234.8" font-family="Times,serif" font-size="14.00">v037</text>
<polyline fill="none" stroke="black" points="567.5,-220.5 567.5,-256.5 "/>
<text text-anchor="middle" x="578" y="-234.8" font-family="Times,serif" font-size="14.00"> </text>
<polyline fill="none" stroke="black" points="588.5,-220.5 588.5,-256.5 "/>
<text text-anchor="middle" x="599" y="-234.8" font-family="Times,serif" font-size="14.00"> </text>
<polyline fill="none" stroke="black" points="609.5,-220.5 609.5,-256.5 "/>
<text text-anchor="middle" x="620" y="-234.8" font-family="Times,serif" font-size="14.00"> </text>
<polyline fill="none" stroke="black" points="630.5,-220.5 630.5,-256.5 "/>
<text text-anchor="middle" x="681.5" y="-234.8" font-family="Times,serif" font-size="14.00">data 1.9257</text>
<polyline fill="none" stroke="black" points="732.5,-220.5 732.5,-256.5 "/>
<text text-anchor="middle" x="784.5" y="-234.8" font-family="Times,serif" font-size="14.00">grad 1.1499</text>
</g>
<!-- 140260402427792+ -->
<g id="node20" class="node">
<title>140260402427792+</title>
<ellipse fill="none" stroke="black" cx="920" cy="-196.5" rx="27" ry="18"/>
<text text-anchor="middle" x="920" y="-192.8" font-family="Times,serif" font-size="14.00">+</text>
</g>
<!-- 140260402428608&#45;&gt;140260402427792+ -->
<g id="edge11" class="edge">
<title>140260402428608&#45;&gt;140260402427792+</title>
<path fill="none" stroke="black" d="M806.53,-220.48C823.54,-217.7 840.72,-214.68 857,-211.5 866.08,-209.72 875.84,-207.51 884.86,-205.33"/>
<polygon fill="black" stroke="black" points="885.8,-208.71 894.67,-202.91 884.12,-201.91 885.8,-208.71"/>
</g>
<!-- 140260402428608* -->
<g id="node8" class="node">
<title>140260402428608*</title>
<ellipse fill="none" stroke="black" cx="432" cy="-238.5" rx="27" ry="18"/>
<text text-anchor="middle" x="432" y="-234.8" font-family="Times,serif" font-size="14.00">*</text>
</g>
<!-- 140260402428608*&#45;&gt;140260402428608 -->
<g id="edge3" class="edge">
<title>140260402428608*&#45;&gt;140260402428608</title>
<path fill="none" stroke="black" d="M459.36,-238.5C471.7,-238.5 487.53,-238.5 505,-238.5"/>
<polygon fill="black" stroke="black" points="505.46,-242 515.46,-238.5 505.46,-235 505.46,-242"/>
</g>
<!-- 140260402428128 -->
<g id="node9" class="node">
<title>140260402428128</title>
<polygon fill="none" stroke="black" points="2694,-69.5 2694,-105.5 3050,-105.5 3050,-69.5 2694,-69.5"/>
<text text-anchor="middle" x="2720" y="-83.8" font-family="Times,serif" font-size="14.00">v044</text>
<polyline fill="none" stroke="black" points="2746,-69.5 2746,-105.5 "/>
<text text-anchor="middle" x="2763.5" y="-83.8" font-family="Times,serif" font-size="14.00">L2</text>
<polyline fill="none" stroke="black" points="2781,-69.5 2781,-105.5 "/>
<text text-anchor="middle" x="2800" y="-83.8" font-family="Times,serif" font-size="14.00">N1</text>
<polyline fill="none" stroke="black" points="2819,-69.5 2819,-105.5 "/>
<text text-anchor="middle" x="2831.5" y="-83.8" font-family="Times,serif" font-size="14.00">a</text>
<polyline fill="none" stroke="black" points="2844,-69.5 2844,-105.5 "/>
<text text-anchor="middle" x="2895" y="-83.8" font-family="Times,serif" font-size="14.00">data 1.5575</text>
<polyline fill="none" stroke="black" points="2946,-69.5 2946,-105.5 "/>
<text text-anchor="middle" x="2998" y="-83.8" font-family="Times,serif" font-size="14.00">grad 3.1150</text>
</g>
<!-- 140260402429424* -->
<g id="node26" class="node">
<title>140260402429424*</title>
<ellipse fill="none" stroke="black" cx="3113" cy="-87.5" rx="27" ry="18"/>
<text text-anchor="middle" x="3113" y="-83.8" font-family="Times,serif" font-size="14.00">*</text>
</g>
<!-- 140260402428128&#45;&gt;140260402429424* -->
<g id="edge15" class="edge">
<title>140260402428128&#45;&gt;140260402429424*</title>
<path fill="none" stroke="black" d="M3050.14,-87.5C3059.34,-87.5 3067.94,-87.5 3075.63,-87.5"/>
<polygon fill="black" stroke="black" points="3075.86,-91 3085.86,-87.5 3075.86,-84 3075.86,-91"/>
</g>
<!-- 140260402428128+ -->
<g id="node10" class="node">
<title>140260402428128+</title>
<ellipse fill="none" stroke="black" cx="2631" cy="-87.5" rx="27" ry="18"/>
<text text-anchor="middle" x="2631" y="-83.8" font-family="Times,serif" font-size="14.00">+</text>
</g>
<!-- 140260402428128+&#45;&gt;140260402428128 -->
<g id="edge4" class="edge">
<title>140260402428128+&#45;&gt;140260402428128</title>
<path fill="none" stroke="black" d="M2658.03,-87.5C2665.4,-87.5 2674.02,-87.5 2683.49,-87.5"/>
<polygon fill="black" stroke="black" points="2683.66,-91 2693.66,-87.5 2683.66,-84 2683.66,-91"/>
</g>
<!-- 140260953974256 -->
<g id="node11" class="node">
<title>140260953974256</title>
<polygon fill="none" stroke="black" points="19.5,-165.5 19.5,-201.5 349.5,-201.5 349.5,-165.5 19.5,-165.5"/>
<text text-anchor="middle" x="45.5" y="-179.8" font-family="Times,serif" font-size="14.00">v008</text>
<polyline fill="none" stroke="black" points="71.5,-165.5 71.5,-201.5 "/>
<text text-anchor="middle" x="82" y="-179.8" font-family="Times,serif" font-size="14.00"> </text>
<polyline fill="none" stroke="black" points="92.5,-165.5 92.5,-201.5 "/>
<text text-anchor="middle" x="103" y="-179.8" font-family="Times,serif" font-size="14.00"> </text>
<polyline fill="none" stroke="black" points="113.5,-165.5 113.5,-201.5 "/>
<text text-anchor="middle" x="128.5" y="-179.8" font-family="Times,serif" font-size="14.00">i1</text>
<polyline fill="none" stroke="black" points="143.5,-165.5 143.5,-201.5 "/>
<text text-anchor="middle" x="194.5" y="-179.8" font-family="Times,serif" font-size="14.00">data 4.0000</text>
<polyline fill="none" stroke="black" points="245.5,-165.5 245.5,-201.5 "/>
<text text-anchor="middle" x="297.5" y="-179.8" font-family="Times,serif" font-size="14.00">grad 1.5822</text>
</g>
<!-- 140260953974256&#45;&gt;140260402428608* -->
<g id="edge10" class="edge">
<title>140260953974256&#45;&gt;140260402428608*</title>
<path fill="none" stroke="black" d="M328.05,-201.51C341.99,-204.39 355.84,-207.7 369,-211.5 379.68,-214.58 390.95,-219.08 400.91,-223.53"/>
<polygon fill="black" stroke="black" points="399.44,-226.71 409.99,-227.72 402.38,-220.35 399.44,-226.71"/>
</g>
<!-- 140260953974256&#45;&gt;140260402426832* -->
<g id="edge17" class="edge">
<title>140260953974256&#45;&gt;140260402426832*</title>
<path fill="none" stroke="black" d="M333.02,-165.49C345.28,-162.88 357.41,-159.9 369,-156.5 379.82,-153.33 391.2,-148.63 401.21,-143.98"/>
<polygon fill="black" stroke="black" points="402.83,-147.08 410.32,-139.59 399.79,-140.77 402.83,-147.08"/>
</g>
<!-- 140260402424576 -->
<g id="node12" class="node">
<title>140260402424576</title>
<polygon fill="none" stroke="black" points="2247,-95.5 2247,-131.5 2568,-131.5 2568,-95.5 2247,-95.5"/>
<text text-anchor="middle" x="2273" y="-109.8" font-family="Times,serif" font-size="14.00">v042</text>
<polyline fill="none" stroke="black" points="2299,-95.5 2299,-131.5 "/>
<text text-anchor="middle" x="2309.5" y="-109.8" font-family="Times,serif" font-size="14.00"> </text>
<polyline fill="none" stroke="black" points="2320,-95.5 2320,-131.5 "/>
<text text-anchor="middle" x="2330.5" y="-109.8" font-family="Times,serif" font-size="14.00"> </text>
<polyline fill="none" stroke="black" points="2341,-95.5 2341,-131.5 "/>
<text text-anchor="middle" x="2351.5" y="-109.8" font-family="Times,serif" font-size="14.00"> </text>
<polyline fill="none" stroke="black" points="2362,-95.5 2362,-131.5 "/>
<text text-anchor="middle" x="2413" y="-109.8" font-family="Times,serif" font-size="14.00">data 0.1976</text>
<polyline fill="none" stroke="black" points="2464,-95.5 2464,-131.5 "/>
<text text-anchor="middle" x="2516" y="-109.8" font-family="Times,serif" font-size="14.00">grad 3.1150</text>
</g>
<!-- 140260402424576&#45;&gt;140260402428128+ -->
<g id="edge19" class="edge">
<title>140260402424576&#45;&gt;140260402428128+</title>
<path fill="none" stroke="black" d="M2562.04,-95.48C2573.67,-94.11 2584.55,-92.83 2594.06,-91.72"/>
<polygon fill="black" stroke="black" points="2594.64,-95.17 2604.17,-90.53 2593.83,-88.22 2594.64,-95.17"/>
</g>
<!-- 140260402424576+&#45;&gt;140260402424576 -->
<g id="edge5" class="edge">
<title>140260402424576+&#45;&gt;140260402424576</title>
<path fill="none" stroke="black" d="M2077.6,-115.35C2111.81,-115.16 2174.72,-114.81 2236.43,-114.46"/>
<polygon fill="black" stroke="black" points="2236.74,-117.96 2246.72,-114.4 2236.7,-110.96 2236.74,-117.96"/>
</g>
<!-- 140260402422512 -->
<g id="node14" class="node">
<title>140260402422512</title>
<polygon fill="none" stroke="black" points="495,-165.5 495,-201.5 857,-201.5 857,-165.5 495,-165.5"/>
<text text-anchor="middle" x="521" y="-179.8" font-family="Times,serif" font-size="14.00">v002</text>
<polyline fill="none" stroke="black" points="547,-165.5 547,-201.5 "/>
<text text-anchor="middle" x="564.5" y="-179.8" font-family="Times,serif" font-size="14.00">L1</text>
<polyline fill="none" stroke="black" points="582,-165.5 582,-201.5 "/>
<text text-anchor="middle" x="601" y="-179.8" font-family="Times,serif" font-size="14.00">N1</text>
<polyline fill="none" stroke="black" points="620,-165.5 620,-201.5 "/>
<text text-anchor="middle" x="633" y="-179.8" font-family="Times,serif" font-size="14.00">b</text>
<polyline fill="none" stroke="black" points="646,-165.5 646,-201.5 "/>
<text text-anchor="middle" x="699.5" y="-179.8" font-family="Times,serif" font-size="14.00">data &#45;0.0621</text>
<polyline fill="none" stroke="black" points="753,-165.5 753,-201.5 "/>
<text text-anchor="middle" x="805" y="-179.8" font-family="Times,serif" font-size="14.00">grad 1.1499</text>
</g>
<!-- 140260402422512&#45;&gt;140260402427792+ -->
<g id="edge26" class="edge">
<title>140260402422512&#45;&gt;140260402427792+</title>
<path fill="none" stroke="black" d="M857.31,-193.19C866.5,-193.68 875.08,-194.14 882.76,-194.55"/>
<polygon fill="black" stroke="black" points="882.79,-198.06 892.96,-195.1 883.16,-191.07 882.79,-198.06"/>
</g>
<!-- 140260402428176 -->
<g id="node15" class="node">
<title>140260402428176</title>
<polygon fill="none" stroke="black" points="1890,-42.5 1890,-78.5 2211,-78.5 2211,-42.5 1890,-42.5"/>
<text text-anchor="middle" x="1916" y="-56.8" font-family="Times,serif" font-size="14.00">v043</text>
<polyline fill="none" stroke="black" points="1942,-42.5 1942,-78.5 "/>
<text text-anchor="middle" x="1952.5" y="-56.8" font-family="Times,serif" font-size="14.00"> </text>
<polyline fill="none" stroke="black" points="1963,-42.5 1963,-78.5 "/>
<text text-anchor="middle" x="1973.5" y="-56.8" font-family="Times,serif" font-size="14.00"> </text>
<polyline fill="none" stroke="black" points="1984,-42.5 1984,-78.5 "/>
<text text-anchor="middle" x="1994.5" y="-56.8" font-family="Times,serif" font-size="14.00"> </text>
<polyline fill="none" stroke="black" points="2005,-42.5 2005,-78.5 "/>
<text text-anchor="middle" x="2056" y="-56.8" font-family="Times,serif" font-size="14.00">data 1.3599</text>
<polyline fill="none" stroke="black" points="2107,-42.5 2107,-78.5 "/>
<text text-anchor="middle" x="2159" y="-56.8" font-family="Times,serif" font-size="14.00">grad 3.1150</text>
</g>
<!-- 140260402428176&#45;&gt;140260402428128+ -->
<g id="edge23" class="edge">
<title>140260402428176&#45;&gt;140260402428128+</title>
<path fill="none" stroke="black" d="M2211.11,-67.95C2342.28,-74.07 2518.3,-82.29 2593.48,-85.8"/>
<polygon fill="black" stroke="black" points="2593.67,-89.31 2603.82,-86.28 2594,-82.32 2593.67,-89.31"/>
</g>
<!-- 140260402428176*&#45;&gt;140260402428176 -->
<g id="edge6" class="edge">
<title>140260402428176*&#45;&gt;140260402428176</title>
<path fill="none" stroke="black" d="M1456.22,-60.5C1527.76,-60.5 1730.85,-60.5 1879.55,-60.5"/>
<polygon fill="black" stroke="black" points="1879.71,-64 1889.71,-60.5 1879.71,-57 1879.71,-64"/>
</g>
<!-- 140260402422704 -->
<g id="node17" class="node">
<title>140260402422704</title>
<polygon fill="none" stroke="black" points="497.5,-55.5 497.5,-91.5 854.5,-91.5 854.5,-55.5 497.5,-55.5"/>
<text text-anchor="middle" x="523.5" y="-69.8" font-family="Times,serif" font-size="14.00">v004</text>
<polyline fill="none" stroke="black" points="549.5,-55.5 549.5,-91.5 "/>
<text text-anchor="middle" x="567" y="-69.8" font-family="Times,serif" font-size="14.00">L1</text>
<polyline fill="none" stroke="black" points="584.5,-55.5 584.5,-91.5 "/>
<text text-anchor="middle" x="603.5" y="-69.8" font-family="Times,serif" font-size="14.00">N2</text>
<polyline fill="none" stroke="black" points="622.5,-55.5 622.5,-91.5 "/>
<text text-anchor="middle" x="635.5" y="-69.8" font-family="Times,serif" font-size="14.00">b</text>
<polyline fill="none" stroke="black" points="648.5,-55.5 648.5,-91.5 "/>
<text text-anchor="middle" x="699.5" y="-69.8" font-family="Times,serif" font-size="14.00">data 0.0585</text>
<polyline fill="none" stroke="black" points="750.5,-55.5 750.5,-91.5 "/>
<text text-anchor="middle" x="802.5" y="-69.8" font-family="Times,serif" font-size="14.00">grad 1.0821</text>
</g>
<!-- 140260402422704&#45;&gt;140260402426400+ -->
<g id="edge12" class="edge">
<title>140260402422704&#45;&gt;140260402426400+</title>
<path fill="none" stroke="black" d="M854.78,-73.5C864.82,-73.5 874.18,-73.5 882.49,-73.5"/>
<polygon fill="black" stroke="black" points="882.76,-77 892.76,-73.5 882.76,-70 882.76,-77"/>
</g>
<!-- 140260402419584 -->
<g id="node18" class="node">
<title>140260402419584</title>
<polygon fill="none" stroke="black" points="0,-220.5 0,-256.5 369,-256.5 369,-220.5 0,-220.5"/>
<text text-anchor="middle" x="26" y="-234.8" font-family="Times,serif" font-size="14.00">v001</text>
<polyline fill="none" stroke="black" points="52,-220.5 52,-256.5 "/>
<text text-anchor="middle" x="69.5" y="-234.8" font-family="Times,serif" font-size="14.00">L1</text>
<polyline fill="none" stroke="black" points="87,-220.5 87,-256.5 "/>
<text text-anchor="middle" x="106" y="-234.8" font-family="Times,serif" font-size="14.00">N1</text>
<polyline fill="none" stroke="black" points="125,-220.5 125,-256.5 "/>
<text text-anchor="middle" x="144" y="-234.8" font-family="Times,serif" font-size="14.00">w1</text>
<polyline fill="none" stroke="black" points="163,-220.5 163,-256.5 "/>
<text text-anchor="middle" x="214" y="-234.8" font-family="Times,serif" font-size="14.00">data 0.2514</text>
<polyline fill="none" stroke="black" points="265,-220.5 265,-256.5 "/>
<text text-anchor="middle" x="317" y="-234.8" font-family="Times,serif" font-size="14.00">grad 4.5995</text>
</g>
<!-- 140260402419584&#45;&gt;140260402428608* -->
<g id="edge16" class="edge">
<title>140260402419584&#45;&gt;140260402428608*</title>
<path fill="none" stroke="black" d="M369.05,-238.5C378.29,-238.5 386.92,-238.5 394.62,-238.5"/>
<polygon fill="black" stroke="black" points="394.87,-242 404.87,-238.5 394.87,-235 394.87,-242"/>
</g>
<!-- 140260402427792 -->
<g id="node19" class="node">
<title>140260402427792</title>
<polygon fill="none" stroke="black" points="996.5,-178.5 996.5,-214.5 1352.5,-214.5 1352.5,-178.5 996.5,-178.5"/>
<text text-anchor="middle" x="1022.5" y="-192.8" font-family="Times,serif" font-size="14.00">v038</text>
<polyline fill="none" stroke="black" points="1048.5,-178.5 1048.5,-214.5 "/>
<text text-anchor="middle" x="1066" y="-192.8" font-family="Times,serif" font-size="14.00">L1</text>
<polyline fill="none" stroke="black" points="1083.5,-178.5 1083.5,-214.5 "/>
<text text-anchor="middle" x="1102.5" y="-192.8" font-family="Times,serif" font-size="14.00">N1</text>
<polyline fill="none" stroke="black" points="1121.5,-178.5 1121.5,-214.5 "/>
<text text-anchor="middle" x="1134" y="-192.8" font-family="Times,serif" font-size="14.00">a</text>
<polyline fill="none" stroke="black" points="1146.5,-178.5 1146.5,-214.5 "/>
<text text-anchor="middle" x="1197.5" y="-192.8" font-family="Times,serif" font-size="14.00">data 1.9211</text>
<polyline fill="none" stroke="black" points="1248.5,-178.5 1248.5,-214.5 "/>
<text text-anchor="middle" x="1300.5" y="-192.8" font-family="Times,serif" font-size="14.00">grad 1.1499</text>
</g>
<!-- 140260402427792&#45;&gt;140260402426496* -->
<g id="edge14" class="edge">
<title>140260402427792&#45;&gt;140260402426496*</title>
<path fill="none" stroke="black" d="M1327.12,-178.49C1351.34,-175.61 1374.27,-172.88 1392.13,-170.76"/>
<polygon fill="black" stroke="black" points="1392.77,-174.21 1402.29,-169.55 1391.95,-167.26 1392.77,-174.21"/>
</g>
<!-- 140260402427792+&#45;&gt;140260402427792 -->
<g id="edge7" class="edge">
<title>140260402427792+&#45;&gt;140260402427792</title>
<path fill="none" stroke="black" d="M947.07,-196.5C957.82,-196.5 971.27,-196.5 986.23,-196.5"/>
<polygon fill="black" stroke="black" points="986.27,-200 996.27,-196.5 986.27,-193 986.27,-200"/>
</g>
<!-- 140260402419632 -->
<g id="node21" class="node">
<title>140260402419632</title>
<polygon fill="none" stroke="black" points="1492,-93.5 1492,-129.5 1854,-129.5 1854,-93.5 1492,-93.5"/>
<text text-anchor="middle" x="1518" y="-107.8" font-family="Times,serif" font-size="14.00">v007</text>
<polyline fill="none" stroke="black" points="1544,-93.5 1544,-129.5 "/>
<text text-anchor="middle" x="1561.5" y="-107.8" font-family="Times,serif" font-size="14.00">L2</text>
<polyline fill="none" stroke="black" points="1579,-93.5 1579,-129.5 "/>
<text text-anchor="middle" x="1598" y="-107.8" font-family="Times,serif" font-size="14.00">N1</text>
<polyline fill="none" stroke="black" points="1617,-93.5 1617,-129.5 "/>
<text text-anchor="middle" x="1630" y="-107.8" font-family="Times,serif" font-size="14.00">b</text>
<polyline fill="none" stroke="black" points="1643,-93.5 1643,-129.5 "/>
<text text-anchor="middle" x="1696.5" y="-107.8" font-family="Times,serif" font-size="14.00">data &#45;0.6673</text>
<polyline fill="none" stroke="black" points="1750,-93.5 1750,-129.5 "/>
<text text-anchor="middle" x="1802" y="-107.8" font-family="Times,serif" font-size="14.00">grad 3.1150</text>
</g>
<!-- 140260402419632&#45;&gt;140260402424576+ -->
<g id="edge18" class="edge">
<title>140260402419632&#45;&gt;140260402424576+</title>
<path fill="none" stroke="black" d="M1854.05,-113.42C1914.18,-114.06 1975.37,-114.71 2012.88,-115.11"/>
<polygon fill="black" stroke="black" points="2013.24,-118.61 2023.27,-115.22 2013.31,-111.61 2013.24,-118.61"/>
</g>
<!-- 140260402426832 -->
<g id="node22" class="node">
<title>140260402426832</title>
<polygon fill="none" stroke="black" points="515.5,-110.5 515.5,-146.5 836.5,-146.5 836.5,-110.5 515.5,-110.5"/>
<text text-anchor="middle" x="541.5" y="-124.8" font-family="Times,serif" font-size="14.00">v039</text>
<polyline fill="none" stroke="black" points="567.5,-110.5 567.5,-146.5 "/>
<text text-anchor="middle" x="578" y="-124.8" font-family="Times,serif" font-size="14.00"> </text>
<polyline fill="none" stroke="black" points="588.5,-110.5 588.5,-146.5 "/>
<text text-anchor="middle" x="599" y="-124.8" font-family="Times,serif" font-size="14.00"> </text>
<polyline fill="none" stroke="black" points="609.5,-110.5 609.5,-146.5 "/>
<text text-anchor="middle" x="620" y="-124.8" font-family="Times,serif" font-size="14.00"> </text>
<polyline fill="none" stroke="black" points="630.5,-110.5 630.5,-146.5 "/>
<text text-anchor="middle" x="681.5" y="-124.8" font-family="Times,serif" font-size="14.00">data 3.8020</text>
<polyline fill="none" stroke="black" points="732.5,-110.5 732.5,-146.5 "/>
<text text-anchor="middle" x="784.5" y="-124.8" font-family="Times,serif" font-size="14.00">grad 1.0821</text>
</g>
<!-- 140260402426832&#45;&gt;140260402426400+ -->
<g id="edge13" class="edge">
<title>140260402426832&#45;&gt;140260402426400+</title>
<path fill="none" stroke="black" d="M821.22,-110.49C833.42,-107.88 845.48,-104.89 857,-101.5 867.82,-98.31 879.19,-93.61 889.2,-88.96"/>
<polygon fill="black" stroke="black" points="890.82,-92.06 898.32,-84.57 887.79,-85.76 890.82,-92.06"/>
</g>
<!-- 140260402426832*&#45;&gt;140260402426832 -->
<g id="edge8" class="edge">
<title>140260402426832*&#45;&gt;140260402426832</title>
<path fill="none" stroke="black" d="M459.36,-128.5C471.7,-128.5 487.53,-128.5 505,-128.5"/>
<polygon fill="black" stroke="black" points="505.46,-132 515.46,-128.5 505.46,-125 505.46,-132"/>
</g>
<!-- 140260402419680 -->
<g id="node24" class="node">
<title>140260402419680</title>
<polygon fill="none" stroke="black" points="990,-123.5 990,-159.5 1359,-159.5 1359,-123.5 990,-123.5"/>
<text text-anchor="middle" x="1016" y="-137.8" font-family="Times,serif" font-size="14.00">v005</text>
<polyline fill="none" stroke="black" points="1042,-123.5 1042,-159.5 "/>
<text text-anchor="middle" x="1059.5" y="-137.8" font-family="Times,serif" font-size="14.00">L2</text>
<polyline fill="none" stroke="black" points="1077,-123.5 1077,-159.5 "/>
<text text-anchor="middle" x="1096" y="-137.8" font-family="Times,serif" font-size="14.00">N1</text>
<polyline fill="none" stroke="black" points="1115,-123.5 1115,-159.5 "/>
<text text-anchor="middle" x="1134" y="-137.8" font-family="Times,serif" font-size="14.00">w1</text>
<polyline fill="none" stroke="black" points="1153,-123.5 1153,-159.5 "/>
<text text-anchor="middle" x="1204" y="-137.8" font-family="Times,serif" font-size="14.00">data 0.0699</text>
<polyline fill="none" stroke="black" points="1255,-123.5 1255,-159.5 "/>
<text text-anchor="middle" x="1307" y="-137.8" font-family="Times,serif" font-size="14.00">grad 5.9841</text>
</g>
<!-- 140260402419680&#45;&gt;140260402426496* -->
<g id="edge20" class="edge">
<title>140260402419680&#45;&gt;140260402426496*</title>
<path fill="none" stroke="black" d="M1357.33,-159.5C1370.08,-160.77 1381.88,-161.93 1392.05,-162.94"/>
<polygon fill="black" stroke="black" points="1391.73,-166.43 1402.02,-163.93 1392.42,-159.46 1391.73,-166.43"/>
</g>
<!-- 140260402429424 -->
<g id="node25" class="node">
<title>140260402429424</title>
<polygon fill="none" stroke="black" points="3176,-69.5 3176,-105.5 3497,-105.5 3497,-69.5 3176,-69.5"/>
<text text-anchor="middle" x="3202" y="-83.8" font-family="Times,serif" font-size="14.00">v045</text>
<polyline fill="none" stroke="black" points="3228,-69.5 3228,-105.5 "/>
<text text-anchor="middle" x="3238.5" y="-83.8" font-family="Times,serif" font-size="14.00"> </text>
<polyline fill="none" stroke="black" points="3249,-69.5 3249,-105.5 "/>
<text text-anchor="middle" x="3259.5" y="-83.8" font-family="Times,serif" font-size="14.00"> </text>
<polyline fill="none" stroke="black" points="3270,-69.5 3270,-105.5 "/>
<text text-anchor="middle" x="3280.5" y="-83.8" font-family="Times,serif" font-size="14.00">l</text>
<polyline fill="none" stroke="black" points="3291,-69.5 3291,-105.5 "/>
<text text-anchor="middle" x="3342" y="-83.8" font-family="Times,serif" font-size="14.00">data 2.4258</text>
<polyline fill="none" stroke="black" points="3393,-69.5 3393,-105.5 "/>
<text text-anchor="middle" x="3445" y="-83.8" font-family="Times,serif" font-size="14.00">grad 1.0000</text>
</g>
<!-- 140260402429424*&#45;&gt;140260402429424 -->
<g id="edge9" class="edge">
<title>140260402429424*&#45;&gt;140260402429424</title>
<path fill="none" stroke="black" d="M3140.28,-87.5C3147.68,-87.5 3156.32,-87.5 3165.76,-87.5"/>
<polygon fill="black" stroke="black" points="3165.88,-91 3175.88,-87.5 3165.88,-84 3165.88,-91"/>
</g>
</g>
</svg>
