<?xml version="1.0" encoding="UTF-8" standalone="no"?>
<!DOCTYPE svg PUBLIC "-//W3C//DTD SVG 1.1//EN"
 "http://www.w3.org/Graphics/SVG/1.1/DTD/svg11.dtd">
<!-- Generated by graphviz version 2.43.0 (0)
 -->
<!-- Title: %3 Pages: 1 -->
<svg width="3539pt" height="210pt"
 viewBox="0.00 0.00 3539.00 210.00" xmlns="http://www.w3.org/2000/svg" xmlns:xlink="http://www.w3.org/1999/xlink">
<g id="graph0" class="graph" transform="scale(1 1) rotate(0) translate(4 206)">
<title>%3</title>
<polygon fill="white" stroke="transparent" points="-4,4 -4,-206 3535,-206 3535,4 -4,4"/>
<!-- 140260402421264 -->
<g id="node1" class="node">
<title>140260402421264</title>
<polygon fill="none" stroke="black" points="519.5,-55.5 519.5,-91.5 844.5,-91.5 844.5,-55.5 519.5,-55.5"/>
<text text-anchor="middle" x="545.5" y="-69.8" font-family="Times,serif" font-size="14.00">v046</text>
<polyline fill="none" stroke="black" points="571.5,-55.5 571.5,-91.5 "/>
<text text-anchor="middle" x="582" y="-69.8" font-family="Times,serif" font-size="14.00"> </text>
<polyline fill="none" stroke="black" points="592.5,-55.5 592.5,-91.5 "/>
<text text-anchor="middle" x="603" y="-69.8" font-family="Times,serif" font-size="14.00"> </text>
<polyline fill="none" stroke="black" points="613.5,-55.5 613.5,-91.5 "/>
<text text-anchor="middle" x="624" y="-69.8" font-family="Times,serif" font-size="14.00"> </text>
<polyline fill="none" stroke="black" points="634.5,-55.5 634.5,-91.5 "/>
<text text-anchor="middle" x="685.5" y="-69.8" font-family="Times,serif" font-size="14.00">data 1.0058</text>
<polyline fill="none" stroke="black" points="736.5,-55.5 736.5,-91.5 "/>
<text text-anchor="middle" x="790.5" y="-69.8" font-family="Times,serif" font-size="14.00">grad &#45;0.1940</text>
</g>
<!-- 140260402425968+ -->
<g id="node5" class="node">
<title>140260402425968+</title>
<ellipse fill="none" stroke="black" cx="928" cy="-73.5" rx="27" ry="18"/>
<text text-anchor="middle" x="928" y="-69.8" font-family="Times,serif" font-size="14.00">+</text>
</g>
<!-- 140260402421264&#45;&gt;140260402425968+ -->
<g id="edge13" class="edge">
<title>140260402421264&#45;&gt;140260402425968+</title>
<path fill="none" stroke="black" d="M844.73,-73.5C861.57,-73.5 877.27,-73.5 890.35,-73.5"/>
<polygon fill="black" stroke="black" points="890.69,-77 900.69,-73.5 890.69,-70 890.69,-77"/>
</g>
<!-- 140260402421264* -->
<g id="node2" class="node">
<title>140260402421264*</title>
<ellipse fill="none" stroke="black" cx="436" cy="-73.5" rx="27" ry="18"/>
<text text-anchor="middle" x="436" y="-69.8" font-family="Times,serif" font-size="14.00">*</text>
</g>
<!-- 140260402421264*&#45;&gt;140260402421264 -->
<g id="edge1" class="edge">
<title>140260402421264*&#45;&gt;140260402421264</title>
<path fill="none" stroke="black" d="M463.11,-73.5C475.56,-73.5 491.61,-73.5 509.34,-73.5"/>
<polygon fill="black" stroke="black" points="509.35,-77 519.35,-73.5 509.35,-70 509.35,-77"/>
</g>
<!-- 140260402419584 -->
<g id="node3" class="node">
<title>140260402419584</title>
<polygon fill="none" stroke="black" points="0,-55.5 0,-91.5 373,-91.5 373,-55.5 0,-55.5"/>
<text text-anchor="middle" x="26" y="-69.8" font-family="Times,serif" font-size="14.00">v001</text>
<polyline fill="none" stroke="black" points="52,-55.5 52,-91.5 "/>
<text text-anchor="middle" x="69.5" y="-69.8" font-family="Times,serif" font-size="14.00">L1</text>
<polyline fill="none" stroke="black" points="87,-55.5 87,-91.5 "/>
<text text-anchor="middle" x="106" y="-69.8" font-family="Times,serif" font-size="14.00">N1</text>
<polyline fill="none" stroke="black" points="125,-55.5 125,-91.5 "/>
<text text-anchor="middle" x="144" y="-69.8" font-family="Times,serif" font-size="14.00">w1</text>
<polyline fill="none" stroke="black" points="163,-55.5 163,-91.5 "/>
<text text-anchor="middle" x="214" y="-69.8" font-family="Times,serif" font-size="14.00">data 0.2514</text>
<polyline fill="none" stroke="black" points="265,-55.5 265,-91.5 "/>
<text text-anchor="middle" x="319" y="-69.8" font-family="Times,serif" font-size="14.00">grad &#45;0.7760</text>
</g>
<!-- 140260402419584&#45;&gt;140260402421264* -->
<g id="edge14" class="edge">
<title>140260402419584&#45;&gt;140260402421264*</title>
<path fill="none" stroke="black" d="M373.18,-73.5C382.42,-73.5 391.03,-73.5 398.72,-73.5"/>
<polygon fill="black" stroke="black" points="398.95,-77 408.95,-73.5 398.95,-70 398.95,-77"/>
</g>
<!-- 140260402425968 -->
<g id="node4" class="node">
<title>140260402425968</title>
<polygon fill="none" stroke="black" points="1000,-55.5 1000,-91.5 1360,-91.5 1360,-55.5 1000,-55.5"/>
<text text-anchor="middle" x="1026" y="-69.8" font-family="Times,serif" font-size="14.00">v047</text>
<polyline fill="none" stroke="black" points="1052,-55.5 1052,-91.5 "/>
<text text-anchor="middle" x="1069.5" y="-69.8" font-family="Times,serif" font-size="14.00">L1</text>
<polyline fill="none" stroke="black" points="1087,-55.5 1087,-91.5 "/>
<text text-anchor="middle" x="1106" y="-69.8" font-family="Times,serif" font-size="14.00">N1</text>
<polyline fill="none" stroke="black" points="1125,-55.5 1125,-91.5 "/>
<text text-anchor="middle" x="1137.5" y="-69.8" font-family="Times,serif" font-size="14.00">a</text>
<polyline fill="none" stroke="black" points="1150,-55.5 1150,-91.5 "/>
<text text-anchor="middle" x="1201" y="-69.8" font-family="Times,serif" font-size="14.00">data 0.9437</text>
<polyline fill="none" stroke="black" points="1252,-55.5 1252,-91.5 "/>
<text text-anchor="middle" x="1306" y="-69.8" font-family="Times,serif" font-size="14.00">grad &#45;0.1940</text>
</g>
<!-- 140260402426688* -->
<g id="node20" class="node">
<title>140260402426688*</title>
<ellipse fill="none" stroke="black" cx="1432" cy="-73.5" rx="27" ry="18"/>
<text text-anchor="middle" x="1432" y="-69.8" font-family="Times,serif" font-size="14.00">*</text>
</g>
<!-- 140260402425968&#45;&gt;140260402426688* -->
<g id="edge20" class="edge">
<title>140260402425968&#45;&gt;140260402426688*</title>
<path fill="none" stroke="black" d="M1360.03,-73.5C1372.81,-73.5 1384.65,-73.5 1394.86,-73.5"/>
<polygon fill="black" stroke="black" points="1394.88,-77 1404.88,-73.5 1394.88,-70 1394.88,-77"/>
</g>
<!-- 140260402425968+&#45;&gt;140260402425968 -->
<g id="edge2" class="edge">
<title>140260402425968+&#45;&gt;140260402425968</title>
<path fill="none" stroke="black" d="M955.28,-73.5C964.87,-73.5 976.59,-73.5 989.59,-73.5"/>
<polygon fill="black" stroke="black" points="989.76,-77 999.76,-73.5 989.76,-70 989.76,-77"/>
</g>
<!-- 140260402419344 -->
<g id="node6" class="node">
<title>140260402419344</title>
<polygon fill="none" stroke="black" points="991,-165.5 991,-201.5 1369,-201.5 1369,-165.5 991,-165.5"/>
<text text-anchor="middle" x="1017" y="-179.8" font-family="Times,serif" font-size="14.00">v006</text>
<polyline fill="none" stroke="black" points="1043,-165.5 1043,-201.5 "/>
<text text-anchor="middle" x="1060.5" y="-179.8" font-family="Times,serif" font-size="14.00">L2</text>
<polyline fill="none" stroke="black" points="1078,-165.5 1078,-201.5 "/>
<text text-anchor="middle" x="1097" y="-179.8" font-family="Times,serif" font-size="14.00">N1</text>
<polyline fill="none" stroke="black" points="1116,-165.5 1116,-201.5 "/>
<text text-anchor="middle" x="1135" y="-179.8" font-family="Times,serif" font-size="14.00">w2</text>
<polyline fill="none" stroke="black" points="1154,-165.5 1154,-201.5 "/>
<text text-anchor="middle" x="1207.5" y="-179.8" font-family="Times,serif" font-size="14.00">data &#45;0.2623</text>
<polyline fill="none" stroke="black" points="1261,-165.5 1261,-201.5 "/>
<text text-anchor="middle" x="1315" y="-179.8" font-family="Times,serif" font-size="14.00">grad &#45;8.3068</text>
</g>
<!-- 140260402419104* -->
<g id="node10" class="node">
<title>140260402419104*</title>
<ellipse fill="none" stroke="black" cx="1432" cy="-128.5" rx="27" ry="18"/>
<text text-anchor="middle" x="1432" y="-124.8" font-family="Times,serif" font-size="14.00">*</text>
</g>
<!-- 140260402419344&#45;&gt;140260402419104* -->
<g id="edge15" class="edge">
<title>140260402419344&#45;&gt;140260402419104*</title>
<path fill="none" stroke="black" d="M1332.89,-165.47C1345.2,-162.86 1357.37,-159.89 1369,-156.5 1379.83,-153.35 1391.2,-148.65 1401.21,-144"/>
<polygon fill="black" stroke="black" points="1402.84,-147.1 1410.33,-139.61 1399.8,-140.8 1402.84,-147.1"/>
</g>
<!-- 140260402428560 -->
<g id="node7" class="node">
<title>140260402428560</title>
<polygon fill="none" stroke="black" points="1002,-110.5 1002,-146.5 1358,-146.5 1358,-110.5 1002,-110.5"/>
<text text-anchor="middle" x="1028" y="-124.8" font-family="Times,serif" font-size="14.00">v049</text>
<polyline fill="none" stroke="black" points="1054,-110.5 1054,-146.5 "/>
<text text-anchor="middle" x="1071.5" y="-124.8" font-family="Times,serif" font-size="14.00">L1</text>
<polyline fill="none" stroke="black" points="1089,-110.5 1089,-146.5 "/>
<text text-anchor="middle" x="1108" y="-124.8" font-family="Times,serif" font-size="14.00">N2</text>
<polyline fill="none" stroke="black" points="1127,-110.5 1127,-146.5 "/>
<text text-anchor="middle" x="1139.5" y="-124.8" font-family="Times,serif" font-size="14.00">a</text>
<polyline fill="none" stroke="black" points="1152,-110.5 1152,-146.5 "/>
<text text-anchor="middle" x="1203" y="-124.8" font-family="Times,serif" font-size="14.00">data 2.9948</text>
<polyline fill="none" stroke="black" points="1254,-110.5 1254,-146.5 "/>
<text text-anchor="middle" x="1306" y="-124.8" font-family="Times,serif" font-size="14.00">grad 0.7275</text>
</g>
<!-- 140260402428560&#45;&gt;140260402419104* -->
<g id="edge26" class="edge">
<title>140260402428560&#45;&gt;140260402419104*</title>
<path fill="none" stroke="black" d="M1358.02,-128.5C1371.49,-128.5 1383.97,-128.5 1394.67,-128.5"/>
<polygon fill="black" stroke="black" points="1394.75,-132 1404.75,-128.5 1394.75,-125 1394.75,-132"/>
</g>
<!-- 140260402428560+ -->
<g id="node8" class="node">
<title>140260402428560+</title>
<ellipse fill="none" stroke="black" cx="928" cy="-128.5" rx="27" ry="18"/>
<text text-anchor="middle" x="928" y="-124.8" font-family="Times,serif" font-size="14.00">+</text>
</g>
<!-- 140260402428560+&#45;&gt;140260402428560 -->
<g id="edge3" class="edge">
<title>140260402428560+&#45;&gt;140260402428560</title>
<path fill="none" stroke="black" d="M955.28,-128.5C965.37,-128.5 977.81,-128.5 991.62,-128.5"/>
<polygon fill="black" stroke="black" points="991.9,-132 1001.9,-128.5 991.9,-125 991.9,-132"/>
</g>
<!-- 140260402419104 -->
<g id="node9" class="node">
<title>140260402419104</title>
<polygon fill="none" stroke="black" points="1897,-110.5 1897,-146.5 2227,-146.5 2227,-110.5 1897,-110.5"/>
<text text-anchor="middle" x="1923" y="-124.8" font-family="Times,serif" font-size="14.00">v052</text>
<polyline fill="none" stroke="black" points="1949,-110.5 1949,-146.5 "/>
<text text-anchor="middle" x="1959.5" y="-124.8" font-family="Times,serif" font-size="14.00"> </text>
<polyline fill="none" stroke="black" points="1970,-110.5 1970,-146.5 "/>
<text text-anchor="middle" x="1980.5" y="-124.8" font-family="Times,serif" font-size="14.00"> </text>
<polyline fill="none" stroke="black" points="1991,-110.5 1991,-146.5 "/>
<text text-anchor="middle" x="2001.5" y="-124.8" font-family="Times,serif" font-size="14.00"> </text>
<polyline fill="none" stroke="black" points="2012,-110.5 2012,-146.5 "/>
<text text-anchor="middle" x="2065.5" y="-124.8" font-family="Times,serif" font-size="14.00">data &#45;0.7855</text>
<polyline fill="none" stroke="black" points="2119,-110.5 2119,-146.5 "/>
<text text-anchor="middle" x="2173" y="-124.8" font-family="Times,serif" font-size="14.00">grad &#45;2.7737</text>
</g>
<!-- 140260402429760+ -->
<g id="node16" class="node">
<title>140260402429760+</title>
<ellipse fill="none" stroke="black" cx="2656" cy="-100.5" rx="27" ry="18"/>
<text text-anchor="middle" x="2656" y="-96.8" font-family="Times,serif" font-size="14.00">+</text>
</g>
<!-- 140260402419104&#45;&gt;140260402429760+ -->
<g id="edge24" class="edge">
<title>140260402419104&#45;&gt;140260402429760+</title>
<path fill="none" stroke="black" d="M2227.22,-122.95C2331.94,-119.01 2470.51,-113.09 2593,-105.5 2601.43,-104.98 2610.49,-104.31 2619.02,-103.63"/>
<polygon fill="black" stroke="black" points="2619.39,-107.11 2629.07,-102.81 2618.82,-100.13 2619.39,-107.11"/>
</g>
<!-- 140260402419104*&#45;&gt;140260402419104 -->
<g id="edge4" class="edge">
<title>140260402419104*&#45;&gt;140260402419104</title>
<path fill="none" stroke="black" d="M1459.18,-128.5C1531.01,-128.5 1735.78,-128.5 1886.6,-128.5"/>
<polygon fill="black" stroke="black" points="1886.91,-132 1896.91,-128.5 1886.91,-125 1886.91,-132"/>
</g>
<!-- 140260402423280 -->
<g id="node11" class="node">
<title>140260402423280</title>
<polygon fill="none" stroke="black" points="2263,-59.5 2263,-95.5 2593,-95.5 2593,-59.5 2263,-59.5"/>
<text text-anchor="middle" x="2289" y="-73.8" font-family="Times,serif" font-size="14.00">v051</text>
<polyline fill="none" stroke="black" points="2315,-59.5 2315,-95.5 "/>
<text text-anchor="middle" x="2325.5" y="-73.8" font-family="Times,serif" font-size="14.00"> </text>
<polyline fill="none" stroke="black" points="2336,-59.5 2336,-95.5 "/>
<text text-anchor="middle" x="2346.5" y="-73.8" font-family="Times,serif" font-size="14.00"> </text>
<polyline fill="none" stroke="black" points="2357,-59.5 2357,-95.5 "/>
<text text-anchor="middle" x="2367.5" y="-73.8" font-family="Times,serif" font-size="14.00"> </text>
<polyline fill="none" stroke="black" points="2378,-59.5 2378,-95.5 "/>
<text text-anchor="middle" x="2431.5" y="-73.8" font-family="Times,serif" font-size="14.00">data &#45;0.6013</text>
<polyline fill="none" stroke="black" points="2485,-59.5 2485,-95.5 "/>
<text text-anchor="middle" x="2539" y="-73.8" font-family="Times,serif" font-size="14.00">grad &#45;2.7737</text>
</g>
<!-- 140260402423280&#45;&gt;140260402429760+ -->
<g id="edge22" class="edge">
<title>140260402423280&#45;&gt;140260402429760+</title>
<path fill="none" stroke="black" d="M2593.24,-94.22C2602.56,-95.16 2611.29,-96.05 2619.09,-96.85"/>
<polygon fill="black" stroke="black" points="2618.8,-100.33 2629.1,-97.86 2619.51,-93.37 2618.8,-100.33"/>
</g>
<!-- 140260402423280+ -->
<g id="node12" class="node">
<title>140260402423280+</title>
<ellipse fill="none" stroke="black" cx="2062" cy="-73.5" rx="27" ry="18"/>
<text text-anchor="middle" x="2062" y="-69.8" font-family="Times,serif" font-size="14.00">+</text>
</g>
<!-- 140260402423280+&#45;&gt;140260402423280 -->
<g id="edge5" class="edge">
<title>140260402423280+&#45;&gt;140260402423280</title>
<path fill="none" stroke="black" d="M2089.18,-73.79C2124.07,-74.17 2188.83,-74.88 2252.39,-75.58"/>
<polygon fill="black" stroke="black" points="2252.54,-79.08 2262.58,-75.69 2252.61,-72.08 2252.54,-79.08"/>
</g>
<!-- 140260402422512 -->
<g id="node13" class="node">
<title>140260402422512</title>
<polygon fill="none" stroke="black" points="499,-0.5 499,-36.5 865,-36.5 865,-0.5 499,-0.5"/>
<text text-anchor="middle" x="525" y="-14.8" font-family="Times,serif" font-size="14.00">v002</text>
<polyline fill="none" stroke="black" points="551,-0.5 551,-36.5 "/>
<text text-anchor="middle" x="568.5" y="-14.8" font-family="Times,serif" font-size="14.00">L1</text>
<polyline fill="none" stroke="black" points="586,-0.5 586,-36.5 "/>
<text text-anchor="middle" x="605" y="-14.8" font-family="Times,serif" font-size="14.00">N1</text>
<polyline fill="none" stroke="black" points="624,-0.5 624,-36.5 "/>
<text text-anchor="middle" x="637" y="-14.8" font-family="Times,serif" font-size="14.00">b</text>
<polyline fill="none" stroke="black" points="650,-0.5 650,-36.5 "/>
<text text-anchor="middle" x="703.5" y="-14.8" font-family="Times,serif" font-size="14.00">data &#45;0.0621</text>
<polyline fill="none" stroke="black" points="757,-0.5 757,-36.5 "/>
<text text-anchor="middle" x="811" y="-14.8" font-family="Times,serif" font-size="14.00">grad &#45;0.1940</text>
</g>
<!-- 140260402422512&#45;&gt;140260402425968+ -->
<g id="edge17" class="edge">
<title>140260402422512&#45;&gt;140260402425968+</title>
<path fill="none" stroke="black" d="M824.38,-36.56C838.21,-39.43 851.95,-42.72 865,-46.5 875.68,-49.59 886.95,-54.09 896.9,-58.54"/>
<polygon fill="black" stroke="black" points="895.44,-61.71 905.98,-62.73 898.37,-55.36 895.44,-61.71"/>
</g>
<!-- 140260402419632 -->
<g id="node14" class="node">
<title>140260402419632</title>
<polygon fill="none" stroke="black" points="1495,-0.5 1495,-36.5 1861,-36.5 1861,-0.5 1495,-0.5"/>
<text text-anchor="middle" x="1521" y="-14.8" font-family="Times,serif" font-size="14.00">v007</text>
<polyline fill="none" stroke="black" points="1547,-0.5 1547,-36.5 "/>
<text text-anchor="middle" x="1564.5" y="-14.8" font-family="Times,serif" font-size="14.00">L2</text>
<polyline fill="none" stroke="black" points="1582,-0.5 1582,-36.5 "/>
<text text-anchor="middle" x="1601" y="-14.8" font-family="Times,serif" font-size="14.00">N1</text>
<polyline fill="none" stroke="black" points="1620,-0.5 1620,-36.5 "/>
<text text-anchor="middle" x="1633" y="-14.8" font-family="Times,serif" font-size="14.00">b</text>
<polyline fill="none" stroke="black" points="1646,-0.5 1646,-36.5 "/>
<text text-anchor="middle" x="1699.5" y="-14.8" font-family="Times,serif" font-size="14.00">data &#45;0.6673</text>
<polyline fill="none" stroke="black" points="1753,-0.5 1753,-36.5 "/>
<text text-anchor="middle" x="1807" y="-14.8" font-family="Times,serif" font-size="14.00">grad &#45;2.7737</text>
</g>
<!-- 140260402419632&#45;&gt;140260402423280+ -->
<g id="edge25" class="edge">
<title>140260402419632&#45;&gt;140260402423280+</title>
<path fill="none" stroke="black" d="M1804.08,-36.51C1881.48,-47.65 1975.34,-61.17 2025.43,-68.38"/>
<polygon fill="black" stroke="black" points="2025.03,-71.86 2035.43,-69.82 2026.03,-64.93 2025.03,-71.86"/>
</g>
<!-- 140260402429760 -->
<g id="node15" class="node">
<title>140260402429760</title>
<polygon fill="none" stroke="black" points="2719,-82.5 2719,-118.5 3084,-118.5 3084,-82.5 2719,-82.5"/>
<text text-anchor="middle" x="2745" y="-96.8" font-family="Times,serif" font-size="14.00">v053</text>
<polyline fill="none" stroke="black" points="2771,-82.5 2771,-118.5 "/>
<text text-anchor="middle" x="2788.5" y="-96.8" font-family="Times,serif" font-size="14.00">L2</text>
<polyline fill="none" stroke="black" points="2806,-82.5 2806,-118.5 "/>
<text text-anchor="middle" x="2825" y="-96.8" font-family="Times,serif" font-size="14.00">N1</text>
<polyline fill="none" stroke="black" points="2844,-82.5 2844,-118.5 "/>
<text text-anchor="middle" x="2856.5" y="-96.8" font-family="Times,serif" font-size="14.00">a</text>
<polyline fill="none" stroke="black" points="2869,-82.5 2869,-118.5 "/>
<text text-anchor="middle" x="2922.5" y="-96.8" font-family="Times,serif" font-size="14.00">data &#45;1.3869</text>
<polyline fill="none" stroke="black" points="2976,-82.5 2976,-118.5 "/>
<text text-anchor="middle" x="3030" y="-96.8" font-family="Times,serif" font-size="14.00">grad &#45;2.7737</text>
</g>
<!-- 140260402426784* -->
<g id="node23" class="node">
<title>140260402426784*</title>
<ellipse fill="none" stroke="black" cx="3147" cy="-100.5" rx="27" ry="18"/>
<text text-anchor="middle" x="3147" y="-96.8" font-family="Times,serif" font-size="14.00">*</text>
</g>
<!-- 140260402429760&#45;&gt;140260402426784* -->
<g id="edge16" class="edge">
<title>140260402429760&#45;&gt;140260402426784*</title>
<path fill="none" stroke="black" d="M3084.24,-100.5C3093.45,-100.5 3102.04,-100.5 3109.73,-100.5"/>
<polygon fill="black" stroke="black" points="3109.94,-104 3119.94,-100.5 3109.94,-97 3109.94,-104"/>
</g>
<!-- 140260402429760+&#45;&gt;140260402429760 -->
<g id="edge6" class="edge">
<title>140260402429760+&#45;&gt;140260402429760</title>
<path fill="none" stroke="black" d="M2683.06,-100.5C2690.43,-100.5 2699.08,-100.5 2708.58,-100.5"/>
<polygon fill="black" stroke="black" points="2708.79,-104 2718.79,-100.5 2708.79,-97 2708.79,-104"/>
</g>
<!-- 140260402425152 -->
<g id="node17" class="node">
<title>140260402425152</title>
<polygon fill="none" stroke="black" points="521.5,-165.5 521.5,-201.5 842.5,-201.5 842.5,-165.5 521.5,-165.5"/>
<text text-anchor="middle" x="547.5" y="-179.8" font-family="Times,serif" font-size="14.00">v048</text>
<polyline fill="none" stroke="black" points="573.5,-165.5 573.5,-201.5 "/>
<text text-anchor="middle" x="584" y="-179.8" font-family="Times,serif" font-size="14.00"> </text>
<polyline fill="none" stroke="black" points="594.5,-165.5 594.5,-201.5 "/>
<text text-anchor="middle" x="605" y="-179.8" font-family="Times,serif" font-size="14.00"> </text>
<polyline fill="none" stroke="black" points="615.5,-165.5 615.5,-201.5 "/>
<text text-anchor="middle" x="626" y="-179.8" font-family="Times,serif" font-size="14.00"> </text>
<polyline fill="none" stroke="black" points="636.5,-165.5 636.5,-201.5 "/>
<text text-anchor="middle" x="687.5" y="-179.8" font-family="Times,serif" font-size="14.00">data 2.9363</text>
<polyline fill="none" stroke="black" points="738.5,-165.5 738.5,-201.5 "/>
<text text-anchor="middle" x="790.5" y="-179.8" font-family="Times,serif" font-size="14.00">grad 0.7275</text>
</g>
<!-- 140260402425152&#45;&gt;140260402428560+ -->
<g id="edge10" class="edge">
<title>140260402425152&#45;&gt;140260402428560+</title>
<path fill="none" stroke="black" d="M829.31,-165.45C841.48,-162.84 853.51,-159.88 865,-156.5 875.82,-153.32 887.19,-148.62 897.2,-143.97"/>
<polygon fill="black" stroke="black" points="898.83,-147.07 906.32,-139.58 895.79,-140.77 898.83,-147.07"/>
</g>
<!-- 140260402425152* -->
<g id="node18" class="node">
<title>140260402425152*</title>
<ellipse fill="none" stroke="black" cx="436" cy="-183.5" rx="27" ry="18"/>
<text text-anchor="middle" x="436" y="-179.8" font-family="Times,serif" font-size="14.00">*</text>
</g>
<!-- 140260402425152*&#45;&gt;140260402425152 -->
<g id="edge7" class="edge">
<title>140260402425152*&#45;&gt;140260402425152</title>
<path fill="none" stroke="black" d="M463.11,-183.5C475.98,-183.5 492.7,-183.5 511.15,-183.5"/>
<polygon fill="black" stroke="black" points="511.25,-187 521.25,-183.5 511.25,-180 511.25,-187"/>
</g>
<!-- 140260402426688 -->
<g id="node19" class="node">
<title>140260402426688</title>
<polygon fill="none" stroke="black" points="1515.5,-55.5 1515.5,-91.5 1840.5,-91.5 1840.5,-55.5 1515.5,-55.5"/>
<text text-anchor="middle" x="1541.5" y="-69.8" font-family="Times,serif" font-size="14.00">v050</text>
<polyline fill="none" stroke="black" points="1567.5,-55.5 1567.5,-91.5 "/>
<text text-anchor="middle" x="1578" y="-69.8" font-family="Times,serif" font-size="14.00"> </text>
<polyline fill="none" stroke="black" points="1588.5,-55.5 1588.5,-91.5 "/>
<text text-anchor="middle" x="1599" y="-69.8" font-family="Times,serif" font-size="14.00"> </text>
<polyline fill="none" stroke="black" points="1609.5,-55.5 1609.5,-91.5 "/>
<text text-anchor="middle" x="1620" y="-69.8" font-family="Times,serif" font-size="14.00"> </text>
<polyline fill="none" stroke="black" points="1630.5,-55.5 1630.5,-91.5 "/>
<text text-anchor="middle" x="1681.5" y="-69.8" font-family="Times,serif" font-size="14.00">data 0.0660</text>
<polyline fill="none" stroke="black" points="1732.5,-55.5 1732.5,-91.5 "/>
<text text-anchor="middle" x="1786.5" y="-69.8" font-family="Times,serif" font-size="14.00">grad &#45;2.7737</text>
</g>
<!-- 140260402426688&#45;&gt;140260402423280+ -->
<g id="edge19" class="edge">
<title>140260402426688&#45;&gt;140260402423280+</title>
<path fill="none" stroke="black" d="M1840.73,-73.5C1909.01,-73.5 1982.4,-73.5 2024.88,-73.5"/>
<polygon fill="black" stroke="black" points="2024.99,-77 2034.99,-73.5 2024.99,-70 2024.99,-77"/>
</g>
<!-- 140260402426688*&#45;&gt;140260402426688 -->
<g id="edge8" class="edge">
<title>140260402426688*&#45;&gt;140260402426688</title>
<path fill="none" stroke="black" d="M1459.11,-73.5C1471.56,-73.5 1487.61,-73.5 1505.34,-73.5"/>
<polygon fill="black" stroke="black" points="1505.35,-77 1515.35,-73.5 1505.35,-70 1505.35,-77"/>
</g>
<!-- 140260402422656 -->
<g id="node21" class="node">
<title>140260402422656</title>
<polygon fill="none" stroke="black" points="2,-165.5 2,-201.5 371,-201.5 371,-165.5 2,-165.5"/>
<text text-anchor="middle" x="28" y="-179.8" font-family="Times,serif" font-size="14.00">v003</text>
<polyline fill="none" stroke="black" points="54,-165.5 54,-201.5 "/>
<text text-anchor="middle" x="71.5" y="-179.8" font-family="Times,serif" font-size="14.00">L1</text>
<polyline fill="none" stroke="black" points="89,-165.5 89,-201.5 "/>
<text text-anchor="middle" x="108" y="-179.8" font-family="Times,serif" font-size="14.00">N2</text>
<polyline fill="none" stroke="black" points="127,-165.5 127,-201.5 "/>
<text text-anchor="middle" x="146" y="-179.8" font-family="Times,serif" font-size="14.00">w1</text>
<polyline fill="none" stroke="black" points="165,-165.5 165,-201.5 "/>
<text text-anchor="middle" x="216" y="-179.8" font-family="Times,serif" font-size="14.00">data 0.7341</text>
<polyline fill="none" stroke="black" points="267,-165.5 267,-201.5 "/>
<text text-anchor="middle" x="319" y="-179.8" font-family="Times,serif" font-size="14.00">grad 2.9102</text>
</g>
<!-- 140260402422656&#45;&gt;140260402425152* -->
<g id="edge18" class="edge">
<title>140260402422656&#45;&gt;140260402425152*</title>
<path fill="none" stroke="black" d="M371.26,-183.5C381.16,-183.5 390.39,-183.5 398.57,-183.5"/>
<polygon fill="black" stroke="black" points="398.7,-187 408.7,-183.5 398.7,-180 398.7,-187"/>
</g>
<!-- 140260402426784 -->
<g id="node22" class="node">
<title>140260402426784</title>
<polygon fill="none" stroke="black" points="3210,-82.5 3210,-118.5 3531,-118.5 3531,-82.5 3210,-82.5"/>
<text text-anchor="middle" x="3236" y="-96.8" font-family="Times,serif" font-size="14.00">v054</text>
<polyline fill="none" stroke="black" points="3262,-82.5 3262,-118.5 "/>
<text text-anchor="middle" x="3272.5" y="-96.8" font-family="Times,serif" font-size="14.00"> </text>
<polyline fill="none" stroke="black" points="3283,-82.5 3283,-118.5 "/>
<text text-anchor="middle" x="3293.5" y="-96.8" font-family="Times,serif" font-size="14.00"> </text>
<polyline fill="none" stroke="black" points="3304,-82.5 3304,-118.5 "/>
<text text-anchor="middle" x="3314.5" y="-96.8" font-family="Times,serif" font-size="14.00">l</text>
<polyline fill="none" stroke="black" points="3325,-82.5 3325,-118.5 "/>
<text text-anchor="middle" x="3376" y="-96.8" font-family="Times,serif" font-size="14.00">data 1.9234</text>
<polyline fill="none" stroke="black" points="3427,-82.5 3427,-118.5 "/>
<text text-anchor="middle" x="3479" y="-96.8" font-family="Times,serif" font-size="14.00">grad 1.0000</text>
</g>
<!-- 140260402426784*&#45;&gt;140260402426784 -->
<g id="edge9" class="edge">
<title>140260402426784*&#45;&gt;140260402426784</title>
<path fill="none" stroke="black" d="M3174.28,-100.5C3181.68,-100.5 3190.32,-100.5 3199.76,-100.5"/>
<polygon fill="black" stroke="black" points="3199.88,-104 3209.88,-100.5 3199.88,-97 3199.88,-104"/>
</g>
<!-- 140260402422704 -->
<g id="node24" class="node">
<title>140260402422704</title>
<polygon fill="none" stroke="black" points="503.5,-110.5 503.5,-146.5 860.5,-146.5 860.5,-110.5 503.5,-110.5"/>
<text text-anchor="middle" x="529.5" y="-124.8" font-family="Times,serif" font-size="14.00">v004</text>
<polyline fill="none" stroke="black" points="555.5,-110.5 555.5,-146.5 "/>
<text text-anchor="middle" x="573" y="-124.8" font-family="Times,serif" font-size="14.00">L1</text>
<polyline fill="none" stroke="black" points="590.5,-110.5 590.5,-146.5 "/>
<text text-anchor="middle" x="609.5" y="-124.8" font-family="Times,serif" font-size="14.00">N2</text>
<polyline fill="none" stroke="black" points="628.5,-110.5 628.5,-146.5 "/>
<text text-anchor="middle" x="641.5" y="-124.8" font-family="Times,serif" font-size="14.00">b</text>
<polyline fill="none" stroke="black" points="654.5,-110.5 654.5,-146.5 "/>
<text text-anchor="middle" x="705.5" y="-124.8" font-family="Times,serif" font-size="14.00">data 0.0585</text>
<polyline fill="none" stroke="black" points="756.5,-110.5 756.5,-146.5 "/>
<text text-anchor="middle" x="808.5" y="-124.8" font-family="Times,serif" font-size="14.00">grad 0.7275</text>
</g>
<!-- 140260402422704&#45;&gt;140260402428560+ -->
<g id="edge11" class="edge">
<title>140260402422704&#45;&gt;140260402428560+</title>
<path fill="none" stroke="black" d="M860.65,-128.5C871.53,-128.5 881.66,-128.5 890.57,-128.5"/>
<polygon fill="black" stroke="black" points="890.79,-132 900.79,-128.5 890.79,-125 890.79,-132"/>
</g>
<!-- 140260402419680 -->
<g id="node25" class="node">
<title>140260402419680</title>
<polygon fill="none" stroke="black" points="993.5,-0.5 993.5,-36.5 1366.5,-36.5 1366.5,-0.5 993.5,-0.5"/>
<text text-anchor="middle" x="1019.5" y="-14.8" font-family="Times,serif" font-size="14.00">v005</text>
<polyline fill="none" stroke="black" points="1045.5,-0.5 1045.5,-36.5 "/>
<text text-anchor="middle" x="1063" y="-14.8" font-family="Times,serif" font-size="14.00">L2</text>
<polyline fill="none" stroke="black" points="1080.5,-0.5 1080.5,-36.5 "/>
<text text-anchor="middle" x="1099.5" y="-14.8" font-family="Times,serif" font-size="14.00">N1</text>
<polyline fill="none" stroke="black" points="1118.5,-0.5 1118.5,-36.5 "/>
<text text-anchor="middle" x="1137.5" y="-14.8" font-family="Times,serif" font-size="14.00">w1</text>
<polyline fill="none" stroke="black" points="1156.5,-0.5 1156.5,-36.5 "/>
<text text-anchor="middle" x="1207.5" y="-14.8" font-family="Times,serif" font-size="14.00">data 0.0699</text>
<polyline fill="none" stroke="black" points="1258.5,-0.5 1258.5,-36.5 "/>
<text text-anchor="middle" x="1312.5" y="-14.8" font-family="Times,serif" font-size="14.00">grad &#45;2.6175</text>
</g>
<!-- 140260402419680&#45;&gt;140260402426688* -->
<g id="edge21" class="edge">
<title>140260402419680&#45;&gt;140260402426688*</title>
<path fill="none" stroke="black" d="M1327.8,-36.53C1341.83,-39.4 1355.76,-42.7 1369,-46.5 1379.69,-49.57 1390.96,-54.06 1400.91,-58.5"/>
<polygon fill="black" stroke="black" points="1399.45,-61.68 1409.99,-62.7 1402.38,-55.33 1399.45,-61.68"/>
</g>
<!-- 140260953974256 -->
<g id="node26" class="node">
<title>140260953974256</title>
<polygon fill="none" stroke="black" points="21.5,-110.5 21.5,-146.5 351.5,-146.5 351.5,-110.5 21.5,-110.5"/>
<text text-anchor="middle" x="47.5" y="-124.8" font-family="Times,serif" font-size="14.00">v008</text>
<polyline fill="none" stroke="black" points="73.5,-110.5 73.5,-146.5 "/>
<text text-anchor="middle" x="84" y="-124.8" font-family="Times,serif" font-size="14.00"> </text>
<polyline fill="none" stroke="black" points="94.5,-110.5 94.5,-146.5 "/>
<text text-anchor="middle" x="105" y="-124.8" font-family="Times,serif" font-size="14.00"> </text>
<polyline fill="none" stroke="black" points="115.5,-110.5 115.5,-146.5 "/>
<text text-anchor="middle" x="130.5" y="-124.8" font-family="Times,serif" font-size="14.00">i1</text>
<polyline fill="none" stroke="black" points="145.5,-110.5 145.5,-146.5 "/>
<text text-anchor="middle" x="196.5" y="-124.8" font-family="Times,serif" font-size="14.00">data 4.0000</text>
<polyline fill="none" stroke="black" points="247.5,-110.5 247.5,-146.5 "/>
<text text-anchor="middle" x="299.5" y="-124.8" font-family="Times,serif" font-size="14.00">grad 0.4853</text>
</g>
<!-- 140260953974256&#45;&gt;140260402421264* -->
<g id="edge23" class="edge">
<title>140260953974256&#45;&gt;140260402421264*</title>
<path fill="none" stroke="black" d="M337.12,-110.45C349.35,-107.84 361.44,-104.88 373,-101.5 383.82,-98.34 395.2,-93.64 405.21,-88.99"/>
<polygon fill="black" stroke="black" points="406.83,-92.09 414.32,-84.6 403.8,-85.78 406.83,-92.09"/>
</g>
<!-- 140260953974256&#45;&gt;140260402425152* -->
<g id="edge12" class="edge">
<title>140260953974256&#45;&gt;140260402425152*</title>
<path fill="none" stroke="black" d="M332.1,-146.55C346.03,-149.42 359.85,-152.72 373,-156.5 383.69,-159.58 394.95,-164.07 404.91,-168.52"/>
<polygon fill="black" stroke="black" points="403.44,-171.7 413.99,-172.71 406.38,-165.34 403.44,-171.7"/>
</g>
</g>
</svg>
