<?xml version="1.0" encoding="UTF-8" standalone="no"?>
<!DOCTYPE svg PUBLIC "-//W3C//DTD SVG 1.1//EN"
 "http://www.w3.org/Graphics/SVG/1.1/DTD/svg11.dtd">
<!-- Generated by graphviz version 2.43.0 (0)
 -->
<!-- Title: %3 Pages: 1 -->
<svg width="3068pt" height="262pt"
 viewBox="0.00 0.00 3068.00 262.00" xmlns="http://www.w3.org/2000/svg" xmlns:xlink="http://www.w3.org/1999/xlink">
<g id="graph0" class="graph" transform="scale(1 1) rotate(0) translate(4 258)">
<title>%3</title>
<polygon fill="white" stroke="transparent" points="-4,4 -4,-258 3064,-258 3064,4 -4,4"/>
<!-- 139883735115776 -->
<g id="node1" class="node">
<title>139883735115776</title>
<polygon fill="none" stroke="black" points="994,-55.5 994,-91.5 1355,-91.5 1355,-55.5 994,-55.5"/>
<text text-anchor="middle" x="1020" y="-69.8" font-family="Times,serif" font-size="14.00">v118</text>
<polyline fill="none" stroke="black" points="1046,-55.5 1046,-91.5 "/>
<text text-anchor="middle" x="1063.5" y="-69.8" font-family="Times,serif" font-size="14.00">L1</text>
<polyline fill="none" stroke="black" points="1081,-55.5 1081,-91.5 "/>
<text text-anchor="middle" x="1100" y="-69.8" font-family="Times,serif" font-size="14.00">N2</text>
<polyline fill="none" stroke="black" points="1119,-55.5 1119,-91.5 "/>
<text text-anchor="middle" x="1131.5" y="-69.8" font-family="Times,serif" font-size="14.00">a</text>
<polyline fill="none" stroke="black" points="1144,-55.5 1144,-91.5 "/>
<text text-anchor="middle" x="1197.5" y="-69.8" font-family="Times,serif" font-size="14.00">data &#45;4.7835</text>
<polyline fill="none" stroke="black" points="1251,-55.5 1251,-91.5 "/>
<text text-anchor="middle" x="1303" y="-69.8" font-family="Times,serif" font-size="14.00">grad 1.4950</text>
</g>
<!-- 139883735116064* -->
<g id="node16" class="node">
<title>139883735116064*</title>
<ellipse fill="none" stroke="black" cx="1424" cy="-73.5" rx="27" ry="18"/>
<text text-anchor="middle" x="1424" y="-69.8" font-family="Times,serif" font-size="14.00">*</text>
</g>
<!-- 139883735115776&#45;&gt;139883735116064* -->
<g id="edge16" class="edge">
<title>139883735115776&#45;&gt;139883735116064*</title>
<path fill="none" stroke="black" d="M1355.04,-73.5C1366.51,-73.5 1377.18,-73.5 1386.5,-73.5"/>
<polygon fill="black" stroke="black" points="1386.79,-77 1396.79,-73.5 1386.79,-70 1386.79,-77"/>
</g>
<!-- 139883735115776+ -->
<g id="node2" class="node">
<title>139883735115776+</title>
<ellipse fill="none" stroke="black" cx="925" cy="-73.5" rx="27" ry="18"/>
<text text-anchor="middle" x="925" y="-69.8" font-family="Times,serif" font-size="14.00">+</text>
</g>
<!-- 139883735115776+&#45;&gt;139883735115776 -->
<g id="edge1" class="edge">
<title>139883735115776+&#45;&gt;139883735115776</title>
<path fill="none" stroke="black" d="M952.02,-73.5C960.94,-73.5 971.72,-73.5 983.66,-73.5"/>
<polygon fill="black" stroke="black" points="983.95,-77 993.95,-73.5 983.95,-70 983.95,-77"/>
</g>
<!-- 139883734297632 -->
<g id="node3" class="node">
<title>139883734297632</title>
<polygon fill="none" stroke="black" points="500,-216.5 500,-252.5 862,-252.5 862,-216.5 500,-216.5"/>
<text text-anchor="middle" x="526" y="-230.8" font-family="Times,serif" font-size="14.00">v002</text>
<polyline fill="none" stroke="black" points="552,-216.5 552,-252.5 "/>
<text text-anchor="middle" x="569.5" y="-230.8" font-family="Times,serif" font-size="14.00">L1</text>
<polyline fill="none" stroke="black" points="587,-216.5 587,-252.5 "/>
<text text-anchor="middle" x="606" y="-230.8" font-family="Times,serif" font-size="14.00">N1</text>
<polyline fill="none" stroke="black" points="625,-216.5 625,-252.5 "/>
<text text-anchor="middle" x="638" y="-230.8" font-family="Times,serif" font-size="14.00">b</text>
<polyline fill="none" stroke="black" points="651,-216.5 651,-252.5 "/>
<text text-anchor="middle" x="704.5" y="-230.8" font-family="Times,serif" font-size="14.00">data &#45;0.1593</text>
<polyline fill="none" stroke="black" points="758,-216.5 758,-252.5 "/>
<text text-anchor="middle" x="810" y="-230.8" font-family="Times,serif" font-size="14.00">grad 0.3212</text>
</g>
<!-- 139883734298304+ -->
<g id="node6" class="node">
<title>139883734298304+</title>
<ellipse fill="none" stroke="black" cx="925" cy="-180.5" rx="27" ry="18"/>
<text text-anchor="middle" x="925" y="-176.8" font-family="Times,serif" font-size="14.00">+</text>
</g>
<!-- 139883734297632&#45;&gt;139883734298304+ -->
<g id="edge19" class="edge">
<title>139883734297632&#45;&gt;139883734298304+</title>
<path fill="none" stroke="black" d="M825.69,-216.42C838.06,-213.82 850.31,-210.86 862,-207.5 872.69,-204.43 883.96,-199.93 893.91,-195.49"/>
<polygon fill="black" stroke="black" points="895.38,-198.66 902.99,-191.29 892.44,-192.31 895.38,-198.66"/>
</g>
<!-- 139883124658752 -->
<g id="node4" class="node">
<title>139883124658752</title>
<polygon fill="none" stroke="black" points="988,-217.5 988,-253.5 1361,-253.5 1361,-217.5 988,-217.5"/>
<text text-anchor="middle" x="1014" y="-231.8" font-family="Times,serif" font-size="14.00">v005</text>
<polyline fill="none" stroke="black" points="1040,-217.5 1040,-253.5 "/>
<text text-anchor="middle" x="1057.5" y="-231.8" font-family="Times,serif" font-size="14.00">L2</text>
<polyline fill="none" stroke="black" points="1075,-217.5 1075,-253.5 "/>
<text text-anchor="middle" x="1094" y="-231.8" font-family="Times,serif" font-size="14.00">N1</text>
<polyline fill="none" stroke="black" points="1113,-217.5 1113,-253.5 "/>
<text text-anchor="middle" x="1132" y="-231.8" font-family="Times,serif" font-size="14.00">w1</text>
<polyline fill="none" stroke="black" points="1151,-217.5 1151,-253.5 "/>
<text text-anchor="middle" x="1202" y="-231.8" font-family="Times,serif" font-size="14.00">data 0.3430</text>
<polyline fill="none" stroke="black" points="1253,-217.5 1253,-253.5 "/>
<text text-anchor="middle" x="1307" y="-231.8" font-family="Times,serif" font-size="14.00">grad &#45;0.4355</text>
</g>
<!-- 139883735110928* -->
<g id="node12" class="node">
<title>139883735110928*</title>
<ellipse fill="none" stroke="black" cx="1424" cy="-182.5" rx="27" ry="18"/>
<text text-anchor="middle" x="1424" y="-178.8" font-family="Times,serif" font-size="14.00">*</text>
</g>
<!-- 139883124658752&#45;&gt;139883735110928* -->
<g id="edge23" class="edge">
<title>139883124658752&#45;&gt;139883735110928*</title>
<path fill="none" stroke="black" d="M1323.53,-217.41C1336.29,-214.81 1348.93,-211.85 1361,-208.5 1371.46,-205.6 1382.5,-201.37 1392.32,-197.17"/>
<polygon fill="black" stroke="black" points="1393.95,-200.28 1401.67,-193.02 1391.11,-193.88 1393.95,-200.28"/>
</g>
<!-- 139883734298304 -->
<g id="node5" class="node">
<title>139883734298304</title>
<polygon fill="none" stroke="black" points="994,-162.5 994,-198.5 1355,-198.5 1355,-162.5 994,-162.5"/>
<text text-anchor="middle" x="1020" y="-176.8" font-family="Times,serif" font-size="14.00">v116</text>
<polyline fill="none" stroke="black" points="1046,-162.5 1046,-198.5 "/>
<text text-anchor="middle" x="1063.5" y="-176.8" font-family="Times,serif" font-size="14.00">L1</text>
<polyline fill="none" stroke="black" points="1081,-162.5 1081,-198.5 "/>
<text text-anchor="middle" x="1100" y="-176.8" font-family="Times,serif" font-size="14.00">N1</text>
<polyline fill="none" stroke="black" points="1119,-162.5 1119,-198.5 "/>
<text text-anchor="middle" x="1131.5" y="-176.8" font-family="Times,serif" font-size="14.00">a</text>
<polyline fill="none" stroke="black" points="1144,-162.5 1144,-198.5 "/>
<text text-anchor="middle" x="1197.5" y="-176.8" font-family="Times,serif" font-size="14.00">data &#45;0.4355</text>
<polyline fill="none" stroke="black" points="1251,-162.5 1251,-198.5 "/>
<text text-anchor="middle" x="1303" y="-176.8" font-family="Times,serif" font-size="14.00">grad 0.3212</text>
</g>
<!-- 139883734298304&#45;&gt;139883735110928* -->
<g id="edge21" class="edge">
<title>139883734298304&#45;&gt;139883735110928*</title>
<path fill="none" stroke="black" d="M1355.04,-181.95C1366.51,-182.04 1377.18,-182.13 1386.5,-182.21"/>
<polygon fill="black" stroke="black" points="1386.76,-185.71 1396.79,-182.29 1386.81,-178.71 1386.76,-185.71"/>
</g>
<!-- 139883734298304+&#45;&gt;139883734298304 -->
<g id="edge2" class="edge">
<title>139883734298304+&#45;&gt;139883734298304</title>
<path fill="none" stroke="black" d="M952.02,-180.5C960.94,-180.5 971.72,-180.5 983.66,-180.5"/>
<polygon fill="black" stroke="black" points="983.95,-184 993.95,-180.5 983.95,-177 983.95,-184"/>
</g>
<!-- 139883734295280 -->
<g id="node7" class="node">
<title>139883734295280</title>
<polygon fill="none" stroke="black" points="518,-106.5 518,-142.5 844,-142.5 844,-106.5 518,-106.5"/>
<text text-anchor="middle" x="544" y="-120.8" font-family="Times,serif" font-size="14.00">v117</text>
<polyline fill="none" stroke="black" points="570,-106.5 570,-142.5 "/>
<text text-anchor="middle" x="580.5" y="-120.8" font-family="Times,serif" font-size="14.00"> </text>
<polyline fill="none" stroke="black" points="591,-106.5 591,-142.5 "/>
<text text-anchor="middle" x="601.5" y="-120.8" font-family="Times,serif" font-size="14.00"> </text>
<polyline fill="none" stroke="black" points="612,-106.5 612,-142.5 "/>
<text text-anchor="middle" x="622.5" y="-120.8" font-family="Times,serif" font-size="14.00"> </text>
<polyline fill="none" stroke="black" points="633,-106.5 633,-142.5 "/>
<text text-anchor="middle" x="686.5" y="-120.8" font-family="Times,serif" font-size="14.00">data &#45;4.3845</text>
<polyline fill="none" stroke="black" points="740,-106.5 740,-142.5 "/>
<text text-anchor="middle" x="792" y="-120.8" font-family="Times,serif" font-size="14.00">grad 1.4950</text>
</g>
<!-- 139883734295280&#45;&gt;139883735115776+ -->
<g id="edge18" class="edge">
<title>139883734295280&#45;&gt;139883735115776+</title>
<path fill="none" stroke="black" d="M817.26,-106.48C832.45,-103.56 847.62,-100.25 862,-96.5 872.06,-93.88 882.76,-90.24 892.39,-86.62"/>
<polygon fill="black" stroke="black" points="893.91,-89.79 901.96,-82.91 891.37,-83.26 893.91,-89.79"/>
</g>
<!-- 139883734295280* -->
<g id="node8" class="node">
<title>139883734295280*</title>
<ellipse fill="none" stroke="black" cx="437" cy="-124.5" rx="27" ry="18"/>
<text text-anchor="middle" x="437" y="-120.8" font-family="Times,serif" font-size="14.00">*</text>
</g>
<!-- 139883734295280*&#45;&gt;139883734295280 -->
<g id="edge3" class="edge">
<title>139883734295280*&#45;&gt;139883734295280</title>
<path fill="none" stroke="black" d="M464.36,-124.5C476.08,-124.5 490.94,-124.5 507.37,-124.5"/>
<polygon fill="black" stroke="black" points="507.79,-128 517.79,-124.5 507.79,-121 507.79,-128"/>
</g>
<!-- 139883735116544 -->
<g id="node9" class="node">
<title>139883735116544</title>
<polygon fill="none" stroke="black" points="2247,-108.5 2247,-144.5 2573,-144.5 2573,-108.5 2247,-108.5"/>
<text text-anchor="middle" x="2273" y="-122.8" font-family="Times,serif" font-size="14.00">v120</text>
<polyline fill="none" stroke="black" points="2299,-108.5 2299,-144.5 "/>
<text text-anchor="middle" x="2309.5" y="-122.8" font-family="Times,serif" font-size="14.00"> </text>
<polyline fill="none" stroke="black" points="2320,-108.5 2320,-144.5 "/>
<text text-anchor="middle" x="2330.5" y="-122.8" font-family="Times,serif" font-size="14.00"> </text>
<polyline fill="none" stroke="black" points="2341,-108.5 2341,-144.5 "/>
<text text-anchor="middle" x="2351.5" y="-122.8" font-family="Times,serif" font-size="14.00"> </text>
<polyline fill="none" stroke="black" points="2362,-108.5 2362,-144.5 "/>
<text text-anchor="middle" x="2415.5" y="-122.8" font-family="Times,serif" font-size="14.00">data &#45;0.4899</text>
<polyline fill="none" stroke="black" points="2469,-108.5 2469,-144.5 "/>
<text text-anchor="middle" x="2521" y="-122.8" font-family="Times,serif" font-size="14.00">grad 1.0000</text>
</g>
<!-- 139883735117168+ -->
<g id="node20" class="node">
<title>139883735117168+</title>
<ellipse fill="none" stroke="black" cx="2636" cy="-100.5" rx="27" ry="18"/>
<text text-anchor="middle" x="2636" y="-96.8" font-family="Times,serif" font-size="14.00">+</text>
</g>
<!-- 139883735116544&#45;&gt;139883735117168+ -->
<g id="edge12" class="edge">
<title>139883735116544&#45;&gt;139883735117168+</title>
<path fill="none" stroke="black" d="M2566.27,-108.48C2578.27,-107.09 2589.48,-105.78 2599.23,-104.65"/>
<polygon fill="black" stroke="black" points="2599.67,-108.12 2609.2,-103.49 2598.86,-101.17 2599.67,-108.12"/>
</g>
<!-- 139883735116544+ -->
<g id="node10" class="node">
<title>139883735116544+</title>
<ellipse fill="none" stroke="black" cx="2048" cy="-128.5" rx="27" ry="18"/>
<text text-anchor="middle" x="2048" y="-124.8" font-family="Times,serif" font-size="14.00">+</text>
</g>
<!-- 139883735116544+&#45;&gt;139883735116544 -->
<g id="edge4" class="edge">
<title>139883735116544+&#45;&gt;139883735116544</title>
<path fill="none" stroke="black" d="M2075.18,-128.35C2109.81,-128.16 2173.83,-127.81 2236.62,-127.46"/>
<polygon fill="black" stroke="black" points="2236.7,-130.96 2246.68,-127.4 2236.66,-123.96 2236.7,-130.96"/>
</g>
<!-- 139883735110928 -->
<g id="node11" class="node">
<title>139883735110928</title>
<polygon fill="none" stroke="black" points="1505,-164.5 1505,-200.5 1831,-200.5 1831,-164.5 1505,-164.5"/>
<text text-anchor="middle" x="1531" y="-178.8" font-family="Times,serif" font-size="14.00">v119</text>
<polyline fill="none" stroke="black" points="1557,-164.5 1557,-200.5 "/>
<text text-anchor="middle" x="1567.5" y="-178.8" font-family="Times,serif" font-size="14.00"> </text>
<polyline fill="none" stroke="black" points="1578,-164.5 1578,-200.5 "/>
<text text-anchor="middle" x="1588.5" y="-178.8" font-family="Times,serif" font-size="14.00"> </text>
<polyline fill="none" stroke="black" points="1599,-164.5 1599,-200.5 "/>
<text text-anchor="middle" x="1609.5" y="-178.8" font-family="Times,serif" font-size="14.00"> </text>
<polyline fill="none" stroke="black" points="1620,-164.5 1620,-200.5 "/>
<text text-anchor="middle" x="1673.5" y="-178.8" font-family="Times,serif" font-size="14.00">data &#45;0.1399</text>
<polyline fill="none" stroke="black" points="1727,-164.5 1727,-200.5 "/>
<text text-anchor="middle" x="1779" y="-178.8" font-family="Times,serif" font-size="14.00">grad 1.0000</text>
</g>
<!-- 139883735110928&#45;&gt;139883735116544+ -->
<g id="edge11" class="edge">
<title>139883735110928&#45;&gt;139883735116544+</title>
<path fill="none" stroke="black" d="M1795.13,-164.48C1870.94,-153.65 1961.97,-140.65 2011.18,-133.62"/>
<polygon fill="black" stroke="black" points="2011.91,-137.05 2021.31,-132.17 2010.92,-130.12 2011.91,-137.05"/>
</g>
<!-- 139883735110928*&#45;&gt;139883735110928 -->
<g id="edge5" class="edge">
<title>139883735110928*&#45;&gt;139883735110928</title>
<path fill="none" stroke="black" d="M1451.36,-182.5C1463.08,-182.5 1477.94,-182.5 1494.37,-182.5"/>
<polygon fill="black" stroke="black" points="1494.79,-186 1504.79,-182.5 1494.79,-179 1494.79,-186"/>
</g>
<!-- 139883734292256 -->
<g id="node13" class="node">
<title>139883734292256</title>
<polygon fill="none" stroke="black" points="0,-189.5 0,-225.5 374,-225.5 374,-189.5 0,-189.5"/>
<text text-anchor="middle" x="26" y="-203.8" font-family="Times,serif" font-size="14.00">v001</text>
<polyline fill="none" stroke="black" points="52,-189.5 52,-225.5 "/>
<text text-anchor="middle" x="69.5" y="-203.8" font-family="Times,serif" font-size="14.00">L1</text>
<polyline fill="none" stroke="black" points="87,-189.5 87,-225.5 "/>
<text text-anchor="middle" x="106" y="-203.8" font-family="Times,serif" font-size="14.00">N1</text>
<polyline fill="none" stroke="black" points="125,-189.5 125,-225.5 "/>
<text text-anchor="middle" x="144" y="-203.8" font-family="Times,serif" font-size="14.00">w1</text>
<polyline fill="none" stroke="black" points="163,-189.5 163,-225.5 "/>
<text text-anchor="middle" x="216.5" y="-203.8" font-family="Times,serif" font-size="14.00">data &#45;0.1373</text>
<polyline fill="none" stroke="black" points="270,-189.5 270,-225.5 "/>
<text text-anchor="middle" x="322" y="-203.8" font-family="Times,serif" font-size="14.00">grad 1.2848</text>
</g>
<!-- 139883734292352* -->
<g id="node22" class="node">
<title>139883734292352*</title>
<ellipse fill="none" stroke="black" cx="437" cy="-179.5" rx="27" ry="18"/>
<text text-anchor="middle" x="437" y="-175.8" font-family="Times,serif" font-size="14.00">*</text>
</g>
<!-- 139883734292256&#45;&gt;139883734292352* -->
<g id="edge13" class="edge">
<title>139883734292256&#45;&gt;139883734292352*</title>
<path fill="none" stroke="black" d="M347.52,-189.49C367.04,-187.29 385.28,-185.23 400.06,-183.56"/>
<polygon fill="black" stroke="black" points="400.64,-187.01 410.19,-182.41 399.86,-180.06 400.64,-187.01"/>
</g>
<!-- 139883124664080 -->
<g id="node14" class="node">
<title>139883124664080</title>
<polygon fill="none" stroke="black" points="1487,-109.5 1487,-145.5 1849,-145.5 1849,-109.5 1487,-109.5"/>
<text text-anchor="middle" x="1513" y="-123.8" font-family="Times,serif" font-size="14.00">v007</text>
<polyline fill="none" stroke="black" points="1539,-109.5 1539,-145.5 "/>
<text text-anchor="middle" x="1556.5" y="-123.8" font-family="Times,serif" font-size="14.00">L2</text>
<polyline fill="none" stroke="black" points="1574,-109.5 1574,-145.5 "/>
<text text-anchor="middle" x="1593" y="-123.8" font-family="Times,serif" font-size="14.00">N1</text>
<polyline fill="none" stroke="black" points="1612,-109.5 1612,-145.5 "/>
<text text-anchor="middle" x="1625" y="-123.8" font-family="Times,serif" font-size="14.00">b</text>
<polyline fill="none" stroke="black" points="1638,-109.5 1638,-145.5 "/>
<text text-anchor="middle" x="1691.5" y="-123.8" font-family="Times,serif" font-size="14.00">data &#45;0.4000</text>
<polyline fill="none" stroke="black" points="1745,-109.5 1745,-145.5 "/>
<text text-anchor="middle" x="1797" y="-123.8" font-family="Times,serif" font-size="14.00">grad 1.0000</text>
</g>
<!-- 139883124664080&#45;&gt;139883735116544+ -->
<g id="edge14" class="edge">
<title>139883124664080&#45;&gt;139883735116544+</title>
<path fill="none" stroke="black" d="M1849.14,-127.98C1910.32,-128.14 1972.75,-128.3 2010.69,-128.4"/>
<polygon fill="black" stroke="black" points="2010.71,-131.9 2020.72,-128.43 2010.73,-124.9 2010.71,-131.9"/>
</g>
<!-- 139883735116064 -->
<g id="node15" class="node">
<title>139883735116064</title>
<polygon fill="none" stroke="black" points="1885,-55.5 1885,-91.5 2211,-91.5 2211,-55.5 1885,-55.5"/>
<text text-anchor="middle" x="1911" y="-69.8" font-family="Times,serif" font-size="14.00">v121</text>
<polyline fill="none" stroke="black" points="1937,-55.5 1937,-91.5 "/>
<text text-anchor="middle" x="1947.5" y="-69.8" font-family="Times,serif" font-size="14.00"> </text>
<polyline fill="none" stroke="black" points="1958,-55.5 1958,-91.5 "/>
<text text-anchor="middle" x="1968.5" y="-69.8" font-family="Times,serif" font-size="14.00"> </text>
<polyline fill="none" stroke="black" points="1979,-55.5 1979,-91.5 "/>
<text text-anchor="middle" x="1989.5" y="-69.8" font-family="Times,serif" font-size="14.00"> </text>
<polyline fill="none" stroke="black" points="2000,-55.5 2000,-91.5 "/>
<text text-anchor="middle" x="2053.5" y="-69.8" font-family="Times,serif" font-size="14.00">data &#45;7.1511</text>
<polyline fill="none" stroke="black" points="2107,-55.5 2107,-91.5 "/>
<text text-anchor="middle" x="2159" y="-69.8" font-family="Times,serif" font-size="14.00">grad 1.0000</text>
</g>
<!-- 139883735116064&#45;&gt;139883735117168+ -->
<g id="edge9" class="edge">
<title>139883735116064&#45;&gt;139883735117168+</title>
<path fill="none" stroke="black" d="M2211.07,-80.97C2344.09,-87.1 2522.44,-95.31 2598.34,-98.81"/>
<polygon fill="black" stroke="black" points="2598.62,-102.33 2608.77,-99.29 2598.95,-95.33 2598.62,-102.33"/>
</g>
<!-- 139883735116064*&#45;&gt;139883735116064 -->
<g id="edge6" class="edge">
<title>139883735116064*&#45;&gt;139883735116064</title>
<path fill="none" stroke="black" d="M1451.33,-73.5C1522.87,-73.5 1725.46,-73.5 1874.6,-73.5"/>
<polygon fill="black" stroke="black" points="1874.79,-77 1884.79,-73.5 1874.79,-70 1874.79,-77"/>
</g>
<!-- 139883735116112 -->
<g id="node17" class="node">
<title>139883735116112</title>
<polygon fill="none" stroke="black" points="20,-134.5 20,-170.5 354,-170.5 354,-134.5 20,-134.5"/>
<text text-anchor="middle" x="46" y="-148.8" font-family="Times,serif" font-size="14.00">v008</text>
<polyline fill="none" stroke="black" points="72,-134.5 72,-170.5 "/>
<text text-anchor="middle" x="82.5" y="-148.8" font-family="Times,serif" font-size="14.00"> </text>
<polyline fill="none" stroke="black" points="93,-134.5 93,-170.5 "/>
<text text-anchor="middle" x="103.5" y="-148.8" font-family="Times,serif" font-size="14.00"> </text>
<polyline fill="none" stroke="black" points="114,-134.5 114,-170.5 "/>
<text text-anchor="middle" x="129" y="-148.8" font-family="Times,serif" font-size="14.00">i1</text>
<polyline fill="none" stroke="black" points="144,-134.5 144,-170.5 "/>
<text text-anchor="middle" x="195" y="-148.8" font-family="Times,serif" font-size="14.00">data 4.0000</text>
<polyline fill="none" stroke="black" points="246,-134.5 246,-170.5 "/>
<text text-anchor="middle" x="300" y="-148.8" font-family="Times,serif" font-size="14.00">grad &#45;1.6621</text>
</g>
<!-- 139883735116112&#45;&gt;139883734295280* -->
<g id="edge24" class="edge">
<title>139883735116112&#45;&gt;139883734295280*</title>
<path fill="none" stroke="black" d="M347.52,-134.49C367.04,-132.29 385.28,-130.23 400.06,-128.56"/>
<polygon fill="black" stroke="black" points="400.64,-132.01 410.19,-127.41 399.86,-125.06 400.64,-132.01"/>
</g>
<!-- 139883735116112&#45;&gt;139883734292352* -->
<g id="edge22" class="edge">
<title>139883735116112&#45;&gt;139883734292352*</title>
<path fill="none" stroke="black" d="M353.42,-170.51C370.67,-172.39 386.71,-174.13 399.97,-175.58"/>
<polygon fill="black" stroke="black" points="399.67,-179.07 409.99,-176.67 400.43,-172.11 399.67,-179.07"/>
</g>
<!-- 139883124658992 -->
<g id="node18" class="node">
<title>139883124658992</title>
<polygon fill="none" stroke="black" points="500,-51.5 500,-87.5 862,-87.5 862,-51.5 500,-51.5"/>
<text text-anchor="middle" x="526" y="-65.8" font-family="Times,serif" font-size="14.00">v004</text>
<polyline fill="none" stroke="black" points="552,-51.5 552,-87.5 "/>
<text text-anchor="middle" x="569.5" y="-65.8" font-family="Times,serif" font-size="14.00">L1</text>
<polyline fill="none" stroke="black" points="587,-51.5 587,-87.5 "/>
<text text-anchor="middle" x="606" y="-65.8" font-family="Times,serif" font-size="14.00">N2</text>
<polyline fill="none" stroke="black" points="625,-51.5 625,-87.5 "/>
<text text-anchor="middle" x="638" y="-65.8" font-family="Times,serif" font-size="14.00">b</text>
<polyline fill="none" stroke="black" points="651,-51.5 651,-87.5 "/>
<text text-anchor="middle" x="704.5" y="-65.8" font-family="Times,serif" font-size="14.00">data &#45;0.4738</text>
<polyline fill="none" stroke="black" points="758,-51.5 758,-87.5 "/>
<text text-anchor="middle" x="810" y="-65.8" font-family="Times,serif" font-size="14.00">grad 1.4950</text>
</g>
<!-- 139883124658992&#45;&gt;139883735115776+ -->
<g id="edge17" class="edge">
<title>139883124658992&#45;&gt;139883735115776+</title>
<path fill="none" stroke="black" d="M862.31,-72.48C871.5,-72.63 880.08,-72.77 887.76,-72.9"/>
<polygon fill="black" stroke="black" points="887.91,-76.4 897.96,-73.07 888.02,-69.4 887.91,-76.4"/>
</g>
<!-- 139883735117168 -->
<g id="node19" class="node">
<title>139883735117168</title>
<polygon fill="none" stroke="black" points="2699,-82.5 2699,-118.5 3060,-118.5 3060,-82.5 2699,-82.5"/>
<text text-anchor="middle" x="2725" y="-96.8" font-family="Times,serif" font-size="14.00">v122</text>
<polyline fill="none" stroke="black" points="2751,-82.5 2751,-118.5 "/>
<text text-anchor="middle" x="2768.5" y="-96.8" font-family="Times,serif" font-size="14.00">L2</text>
<polyline fill="none" stroke="black" points="2786,-82.5 2786,-118.5 "/>
<text text-anchor="middle" x="2805" y="-96.8" font-family="Times,serif" font-size="14.00">N1</text>
<polyline fill="none" stroke="black" points="2824,-82.5 2824,-118.5 "/>
<text text-anchor="middle" x="2836.5" y="-96.8" font-family="Times,serif" font-size="14.00">a</text>
<polyline fill="none" stroke="black" points="2849,-82.5 2849,-118.5 "/>
<text text-anchor="middle" x="2902.5" y="-96.8" font-family="Times,serif" font-size="14.00">data &#45;7.6410</text>
<polyline fill="none" stroke="black" points="2956,-82.5 2956,-118.5 "/>
<text text-anchor="middle" x="3008" y="-96.8" font-family="Times,serif" font-size="14.00">grad 1.0000</text>
</g>
<!-- 139883735117168+&#45;&gt;139883735117168 -->
<g id="edge7" class="edge">
<title>139883735117168+&#45;&gt;139883735117168</title>
<path fill="none" stroke="black" d="M2663.3,-100.5C2670.65,-100.5 2679.24,-100.5 2688.68,-100.5"/>
<polygon fill="black" stroke="black" points="2688.81,-104 2698.81,-100.5 2688.81,-97 2688.81,-104"/>
</g>
<!-- 139883734292352 -->
<g id="node21" class="node">
<title>139883734292352</title>
<polygon fill="none" stroke="black" points="518,-161.5 518,-197.5 844,-197.5 844,-161.5 518,-161.5"/>
<text text-anchor="middle" x="544" y="-175.8" font-family="Times,serif" font-size="14.00">v115</text>
<polyline fill="none" stroke="black" points="570,-161.5 570,-197.5 "/>
<text text-anchor="middle" x="580.5" y="-175.8" font-family="Times,serif" font-size="14.00"> </text>
<polyline fill="none" stroke="black" points="591,-161.5 591,-197.5 "/>
<text text-anchor="middle" x="601.5" y="-175.8" font-family="Times,serif" font-size="14.00"> </text>
<polyline fill="none" stroke="black" points="612,-161.5 612,-197.5 "/>
<text text-anchor="middle" x="622.5" y="-175.8" font-family="Times,serif" font-size="14.00"> </text>
<polyline fill="none" stroke="black" points="633,-161.5 633,-197.5 "/>
<text text-anchor="middle" x="686.5" y="-175.8" font-family="Times,serif" font-size="14.00">data &#45;0.2922</text>
<polyline fill="none" stroke="black" points="740,-161.5 740,-197.5 "/>
<text text-anchor="middle" x="792" y="-175.8" font-family="Times,serif" font-size="14.00">grad 0.3212</text>
</g>
<!-- 139883734292352&#45;&gt;139883734298304+ -->
<g id="edge15" class="edge">
<title>139883734292352&#45;&gt;139883734298304+</title>
<path fill="none" stroke="black" d="M844.09,-180.17C860.07,-180.24 874.97,-180.3 887.47,-180.35"/>
<polygon fill="black" stroke="black" points="887.79,-183.85 897.8,-180.39 887.81,-176.85 887.79,-183.85"/>
</g>
<!-- 139883734292352*&#45;&gt;139883734292352 -->
<g id="edge8" class="edge">
<title>139883734292352*&#45;&gt;139883734292352</title>
<path fill="none" stroke="black" d="M464.36,-179.5C476.08,-179.5 490.94,-179.5 507.37,-179.5"/>
<polygon fill="black" stroke="black" points="507.79,-183 517.79,-179.5 507.79,-176 507.79,-183"/>
</g>
<!-- 139883124659040 -->
<g id="node23" class="node">
<title>139883124659040</title>
<polygon fill="none" stroke="black" points="0,-79.5 0,-115.5 374,-115.5 374,-79.5 0,-79.5"/>
<text text-anchor="middle" x="26" y="-93.8" font-family="Times,serif" font-size="14.00">v003</text>
<polyline fill="none" stroke="black" points="52,-79.5 52,-115.5 "/>
<text text-anchor="middle" x="69.5" y="-93.8" font-family="Times,serif" font-size="14.00">L1</text>
<polyline fill="none" stroke="black" points="87,-79.5 87,-115.5 "/>
<text text-anchor="middle" x="106" y="-93.8" font-family="Times,serif" font-size="14.00">N2</text>
<polyline fill="none" stroke="black" points="125,-79.5 125,-115.5 "/>
<text text-anchor="middle" x="144" y="-93.8" font-family="Times,serif" font-size="14.00">w1</text>
<polyline fill="none" stroke="black" points="163,-79.5 163,-115.5 "/>
<text text-anchor="middle" x="216.5" y="-93.8" font-family="Times,serif" font-size="14.00">data &#45;1.3951</text>
<polyline fill="none" stroke="black" points="270,-79.5 270,-115.5 "/>
<text text-anchor="middle" x="322" y="-93.8" font-family="Times,serif" font-size="14.00">grad 5.9798</text>
</g>
<!-- 139883124659040&#45;&gt;139883734295280* -->
<g id="edge10" class="edge">
<title>139883124659040&#45;&gt;139883734295280*</title>
<path fill="none" stroke="black" d="M353.42,-115.51C370.67,-117.39 386.71,-119.13 399.97,-120.58"/>
<polygon fill="black" stroke="black" points="399.67,-124.07 409.99,-121.67 400.43,-117.11 399.67,-124.07"/>
</g>
<!-- 139883124664128 -->
<g id="node24" class="node">
<title>139883124664128</title>
<polygon fill="none" stroke="black" points="988,-0.5 988,-36.5 1361,-36.5 1361,-0.5 988,-0.5"/>
<text text-anchor="middle" x="1014" y="-14.8" font-family="Times,serif" font-size="14.00">v006</text>
<polyline fill="none" stroke="black" points="1040,-0.5 1040,-36.5 "/>
<text text-anchor="middle" x="1057.5" y="-14.8" font-family="Times,serif" font-size="14.00">L2</text>
<polyline fill="none" stroke="black" points="1075,-0.5 1075,-36.5 "/>
<text text-anchor="middle" x="1094" y="-14.8" font-family="Times,serif" font-size="14.00">N1</text>
<polyline fill="none" stroke="black" points="1113,-0.5 1113,-36.5 "/>
<text text-anchor="middle" x="1132" y="-14.8" font-family="Times,serif" font-size="14.00">w2</text>
<polyline fill="none" stroke="black" points="1151,-0.5 1151,-36.5 "/>
<text text-anchor="middle" x="1202" y="-14.8" font-family="Times,serif" font-size="14.00">data 1.7341</text>
<polyline fill="none" stroke="black" points="1253,-0.5 1253,-36.5 "/>
<text text-anchor="middle" x="1307" y="-14.8" font-family="Times,serif" font-size="14.00">grad &#45;4.7835</text>
</g>
<!-- 139883124664128&#45;&gt;139883735116064* -->
<g id="edge20" class="edge">
<title>139883124664128&#45;&gt;139883735116064*</title>
<path fill="none" stroke="black" d="M1325.12,-36.55C1337.35,-39.16 1349.44,-42.12 1361,-45.5 1371.82,-48.66 1383.2,-53.36 1393.21,-58.01"/>
<polygon fill="black" stroke="black" points="1391.8,-61.22 1402.32,-62.4 1394.83,-54.91 1391.8,-61.22"/>
</g>
</g>
</svg>
