<?xml version="1.0" encoding="UTF-8" standalone="no"?>
<!DOCTYPE svg PUBLIC "-//W3C//DTD SVG 1.1//EN"
 "http://www.w3.org/Graphics/SVG/1.1/DTD/svg11.dtd">
<!-- Generated by graphviz version 2.43.0 (0)
 -->
<!-- Title: %3 Pages: 1 -->
<svg width="3068pt" height="238pt"
 viewBox="0.00 0.00 3068.00 238.00" xmlns="http://www.w3.org/2000/svg" xmlns:xlink="http://www.w3.org/1999/xlink">
<g id="graph0" class="graph" transform="scale(1 1) rotate(0) translate(4 234)">
<title>%3</title>
<polygon fill="white" stroke="transparent" points="-4,4 -4,-234 3064,-234 3064,4 -4,4"/>
<!-- 139883124757536 -->
<g id="node1" class="node">
<title>139883124757536</title>
<polygon fill="none" stroke="black" points="518,-69.5 518,-105.5 844,-105.5 844,-69.5 518,-69.5"/>
<text text-anchor="middle" x="544" y="-83.8" font-family="Times,serif" font-size="14.00">v102</text>
<polyline fill="none" stroke="black" points="570,-69.5 570,-105.5 "/>
<text text-anchor="middle" x="580.5" y="-83.8" font-family="Times,serif" font-size="14.00"> </text>
<polyline fill="none" stroke="black" points="591,-69.5 591,-105.5 "/>
<text text-anchor="middle" x="601.5" y="-83.8" font-family="Times,serif" font-size="14.00"> </text>
<polyline fill="none" stroke="black" points="612,-69.5 612,-105.5 "/>
<text text-anchor="middle" x="622.5" y="-83.8" font-family="Times,serif" font-size="14.00"> </text>
<polyline fill="none" stroke="black" points="633,-69.5 633,-105.5 "/>
<text text-anchor="middle" x="686.5" y="-83.8" font-family="Times,serif" font-size="14.00">data &#45;3.3353</text>
<polyline fill="none" stroke="black" points="740,-69.5 740,-105.5 "/>
<text text-anchor="middle" x="792" y="-83.8" font-family="Times,serif" font-size="14.00">grad 1.3115</text>
</g>
<!-- 139883124756912+ -->
<g id="node24" class="node">
<title>139883124756912+</title>
<ellipse fill="none" stroke="black" cx="925" cy="-73.5" rx="27" ry="18"/>
<text text-anchor="middle" x="925" y="-69.8" font-family="Times,serif" font-size="14.00">+</text>
</g>
<!-- 139883124757536&#45;&gt;139883124756912+ -->
<g id="edge15" class="edge">
<title>139883124757536&#45;&gt;139883124756912+</title>
<path fill="none" stroke="black" d="M844.09,-78.12C860.07,-77.2 874.97,-76.34 887.47,-75.61"/>
<polygon fill="black" stroke="black" points="888.02,-79.09 897.8,-75.02 887.61,-72.1 888.02,-79.09"/>
</g>
<!-- 139883124757536* -->
<g id="node2" class="node">
<title>139883124757536*</title>
<ellipse fill="none" stroke="black" cx="437" cy="-87.5" rx="27" ry="18"/>
<text text-anchor="middle" x="437" y="-83.8" font-family="Times,serif" font-size="14.00">*</text>
</g>
<!-- 139883124757536*&#45;&gt;139883124757536 -->
<g id="edge1" class="edge">
<title>139883124757536*&#45;&gt;139883124757536</title>
<path fill="none" stroke="black" d="M464.36,-87.5C476.08,-87.5 490.94,-87.5 507.37,-87.5"/>
<polygon fill="black" stroke="black" points="507.79,-91 517.79,-87.5 507.79,-84 507.79,-91"/>
</g>
<!-- 139883124758064 -->
<g id="node3" class="node">
<title>139883124758064</title>
<polygon fill="none" stroke="black" points="994,-165.5 994,-201.5 1355,-201.5 1355,-165.5 994,-165.5"/>
<text text-anchor="middle" x="1020" y="-179.8" font-family="Times,serif" font-size="14.00">v101</text>
<polyline fill="none" stroke="black" points="1046,-165.5 1046,-201.5 "/>
<text text-anchor="middle" x="1063.5" y="-179.8" font-family="Times,serif" font-size="14.00">L1</text>
<polyline fill="none" stroke="black" points="1081,-165.5 1081,-201.5 "/>
<text text-anchor="middle" x="1100" y="-179.8" font-family="Times,serif" font-size="14.00">N1</text>
<polyline fill="none" stroke="black" points="1119,-165.5 1119,-201.5 "/>
<text text-anchor="middle" x="1131.5" y="-179.8" font-family="Times,serif" font-size="14.00">a</text>
<polyline fill="none" stroke="black" points="1144,-165.5 1144,-201.5 "/>
<text text-anchor="middle" x="1197.5" y="-179.8" font-family="Times,serif" font-size="14.00">data &#45;0.1697</text>
<polyline fill="none" stroke="black" points="1251,-165.5 1251,-201.5 "/>
<text text-anchor="middle" x="1303" y="-179.8" font-family="Times,serif" font-size="14.00">grad 0.3127</text>
</g>
<!-- 139883124757680* -->
<g id="node10" class="node">
<title>139883124757680*</title>
<ellipse fill="none" stroke="black" cx="1424" cy="-153.5" rx="27" ry="18"/>
<text text-anchor="middle" x="1424" y="-149.8" font-family="Times,serif" font-size="14.00">*</text>
</g>
<!-- 139883124758064&#45;&gt;139883124757680* -->
<g id="edge17" class="edge">
<title>139883124758064&#45;&gt;139883124757680*</title>
<path fill="none" stroke="black" d="M1324.11,-165.49C1347.58,-162.64 1369.8,-159.95 1387.21,-157.84"/>
<polygon fill="black" stroke="black" points="1387.89,-161.28 1397.4,-156.6 1387.05,-154.33 1387.89,-161.28"/>
</g>
<!-- 139883124758064+ -->
<g id="node4" class="node">
<title>139883124758064+</title>
<ellipse fill="none" stroke="black" cx="925" cy="-183.5" rx="27" ry="18"/>
<text text-anchor="middle" x="925" y="-179.8" font-family="Times,serif" font-size="14.00">+</text>
</g>
<!-- 139883124758064+&#45;&gt;139883124758064 -->
<g id="edge2" class="edge">
<title>139883124758064+&#45;&gt;139883124758064</title>
<path fill="none" stroke="black" d="M952.02,-183.5C960.94,-183.5 971.72,-183.5 983.66,-183.5"/>
<polygon fill="black" stroke="black" points="983.95,-187 993.95,-183.5 983.95,-180 983.95,-187"/>
</g>
<!-- 139883734297632 -->
<g id="node5" class="node">
<title>139883734297632</title>
<polygon fill="none" stroke="black" points="500,-193.5 500,-229.5 862,-229.5 862,-193.5 500,-193.5"/>
<text text-anchor="middle" x="526" y="-207.8" font-family="Times,serif" font-size="14.00">v002</text>
<polyline fill="none" stroke="black" points="552,-193.5 552,-229.5 "/>
<text text-anchor="middle" x="569.5" y="-207.8" font-family="Times,serif" font-size="14.00">L1</text>
<polyline fill="none" stroke="black" points="587,-193.5 587,-229.5 "/>
<text text-anchor="middle" x="606" y="-207.8" font-family="Times,serif" font-size="14.00">N1</text>
<polyline fill="none" stroke="black" points="625,-193.5 625,-229.5 "/>
<text text-anchor="middle" x="638" y="-207.8" font-family="Times,serif" font-size="14.00">b</text>
<polyline fill="none" stroke="black" points="651,-193.5 651,-229.5 "/>
<text text-anchor="middle" x="704.5" y="-207.8" font-family="Times,serif" font-size="14.00">data &#45;0.1433</text>
<polyline fill="none" stroke="black" points="758,-193.5 758,-229.5 "/>
<text text-anchor="middle" x="810" y="-207.8" font-family="Times,serif" font-size="14.00">grad 0.3127</text>
</g>
<!-- 139883734297632&#45;&gt;139883124758064+ -->
<g id="edge14" class="edge">
<title>139883734297632&#45;&gt;139883124758064+</title>
<path fill="none" stroke="black" d="M837.66,-193.49C856.23,-191.34 873.61,-189.33 887.84,-187.68"/>
<polygon fill="black" stroke="black" points="888.54,-191.13 898.08,-186.5 887.74,-184.17 888.54,-191.13"/>
</g>
<!-- 139883124658752 -->
<g id="node6" class="node">
<title>139883124658752</title>
<polygon fill="none" stroke="black" points="988,-110.5 988,-146.5 1361,-146.5 1361,-110.5 988,-110.5"/>
<text text-anchor="middle" x="1014" y="-124.8" font-family="Times,serif" font-size="14.00">v005</text>
<polyline fill="none" stroke="black" points="1040,-110.5 1040,-146.5 "/>
<text text-anchor="middle" x="1057.5" y="-124.8" font-family="Times,serif" font-size="14.00">L2</text>
<polyline fill="none" stroke="black" points="1075,-110.5 1075,-146.5 "/>
<text text-anchor="middle" x="1094" y="-124.8" font-family="Times,serif" font-size="14.00">N1</text>
<polyline fill="none" stroke="black" points="1113,-110.5 1113,-146.5 "/>
<text text-anchor="middle" x="1132" y="-124.8" font-family="Times,serif" font-size="14.00">w1</text>
<polyline fill="none" stroke="black" points="1151,-110.5 1151,-146.5 "/>
<text text-anchor="middle" x="1202" y="-124.8" font-family="Times,serif" font-size="14.00">data 0.3212</text>
<polyline fill="none" stroke="black" points="1253,-110.5 1253,-146.5 "/>
<text text-anchor="middle" x="1307" y="-124.8" font-family="Times,serif" font-size="14.00">grad &#45;0.1697</text>
</g>
<!-- 139883124658752&#45;&gt;139883124757680* -->
<g id="edge24" class="edge">
<title>139883124658752&#45;&gt;139883124757680*</title>
<path fill="none" stroke="black" d="M1353.73,-146.5C1365.98,-147.74 1377.35,-148.89 1387.18,-149.88"/>
<polygon fill="black" stroke="black" points="1386.91,-153.37 1397.21,-150.9 1387.62,-146.41 1386.91,-153.37"/>
</g>
<!-- 139883124758112 -->
<g id="node7" class="node">
<title>139883124758112</title>
<polygon fill="none" stroke="black" points="1885,-29.5 1885,-65.5 2211,-65.5 2211,-29.5 1885,-29.5"/>
<text text-anchor="middle" x="1911" y="-43.8" font-family="Times,serif" font-size="14.00">v106</text>
<polyline fill="none" stroke="black" points="1937,-29.5 1937,-65.5 "/>
<text text-anchor="middle" x="1947.5" y="-43.8" font-family="Times,serif" font-size="14.00"> </text>
<polyline fill="none" stroke="black" points="1958,-29.5 1958,-65.5 "/>
<text text-anchor="middle" x="1968.5" y="-43.8" font-family="Times,serif" font-size="14.00"> </text>
<polyline fill="none" stroke="black" points="1979,-29.5 1979,-65.5 "/>
<text text-anchor="middle" x="1989.5" y="-43.8" font-family="Times,serif" font-size="14.00"> </text>
<polyline fill="none" stroke="black" points="2000,-29.5 2000,-65.5 "/>
<text text-anchor="middle" x="2053.5" y="-43.8" font-family="Times,serif" font-size="14.00">data &#45;4.8116</text>
<polyline fill="none" stroke="black" points="2107,-29.5 2107,-65.5 "/>
<text text-anchor="middle" x="2159" y="-43.8" font-family="Times,serif" font-size="14.00">grad 1.0000</text>
</g>
<!-- 139883124758400+ -->
<g id="node20" class="node">
<title>139883124758400+</title>
<ellipse fill="none" stroke="black" cx="2636" cy="-74.5" rx="27" ry="18"/>
<text text-anchor="middle" x="2636" y="-70.8" font-family="Times,serif" font-size="14.00">+</text>
</g>
<!-- 139883124758112&#45;&gt;139883124758400+ -->
<g id="edge21" class="edge">
<title>139883124758112&#45;&gt;139883124758400+</title>
<path fill="none" stroke="black" d="M2211.07,-54.97C2344.09,-61.1 2522.44,-69.31 2598.34,-72.81"/>
<polygon fill="black" stroke="black" points="2598.62,-76.33 2608.77,-73.29 2598.95,-69.33 2598.62,-76.33"/>
</g>
<!-- 139883124758112* -->
<g id="node8" class="node">
<title>139883124758112*</title>
<ellipse fill="none" stroke="black" cx="1424" cy="-47.5" rx="27" ry="18"/>
<text text-anchor="middle" x="1424" y="-43.8" font-family="Times,serif" font-size="14.00">*</text>
</g>
<!-- 139883124758112*&#45;&gt;139883124758112 -->
<g id="edge3" class="edge">
<title>139883124758112*&#45;&gt;139883124758112</title>
<path fill="none" stroke="black" d="M1451.33,-47.5C1522.87,-47.5 1725.46,-47.5 1874.6,-47.5"/>
<polygon fill="black" stroke="black" points="1874.79,-51 1884.79,-47.5 1874.79,-44 1874.79,-51"/>
</g>
<!-- 139883124757680 -->
<g id="node9" class="node">
<title>139883124757680</title>
<polygon fill="none" stroke="black" points="1505,-135.5 1505,-171.5 1831,-171.5 1831,-135.5 1505,-135.5"/>
<text text-anchor="middle" x="1531" y="-149.8" font-family="Times,serif" font-size="14.00">v104</text>
<polyline fill="none" stroke="black" points="1557,-135.5 1557,-171.5 "/>
<text text-anchor="middle" x="1567.5" y="-149.8" font-family="Times,serif" font-size="14.00"> </text>
<polyline fill="none" stroke="black" points="1578,-135.5 1578,-171.5 "/>
<text text-anchor="middle" x="1588.5" y="-149.8" font-family="Times,serif" font-size="14.00"> </text>
<polyline fill="none" stroke="black" points="1599,-135.5 1599,-171.5 "/>
<text text-anchor="middle" x="1609.5" y="-149.8" font-family="Times,serif" font-size="14.00"> </text>
<polyline fill="none" stroke="black" points="1620,-135.5 1620,-171.5 "/>
<text text-anchor="middle" x="1673.5" y="-149.8" font-family="Times,serif" font-size="14.00">data &#45;0.0531</text>
<polyline fill="none" stroke="black" points="1727,-135.5 1727,-171.5 "/>
<text text-anchor="middle" x="1779" y="-149.8" font-family="Times,serif" font-size="14.00">grad 1.0000</text>
</g>
<!-- 139883124757872+ -->
<g id="node18" class="node">
<title>139883124757872+</title>
<ellipse fill="none" stroke="black" cx="2048" cy="-102.5" rx="27" ry="18"/>
<text text-anchor="middle" x="2048" y="-98.8" font-family="Times,serif" font-size="14.00">+</text>
</g>
<!-- 139883124757680&#45;&gt;139883124757872+ -->
<g id="edge11" class="edge">
<title>139883124757680&#45;&gt;139883124757872+</title>
<path fill="none" stroke="black" d="M1802.53,-135.48C1876.81,-125.46 1963.61,-113.75 2011.22,-107.33"/>
<polygon fill="black" stroke="black" points="2011.89,-110.77 2021.33,-105.96 2010.95,-103.83 2011.89,-110.77"/>
</g>
<!-- 139883124757680*&#45;&gt;139883124757680 -->
<g id="edge4" class="edge">
<title>139883124757680*&#45;&gt;139883124757680</title>
<path fill="none" stroke="black" d="M1451.36,-153.5C1463.08,-153.5 1477.94,-153.5 1494.37,-153.5"/>
<polygon fill="black" stroke="black" points="1494.79,-157 1504.79,-153.5 1494.79,-150 1494.79,-157"/>
</g>
<!-- 139883124664080 -->
<g id="node11" class="node">
<title>139883124664080</title>
<polygon fill="none" stroke="black" points="1487,-80.5 1487,-116.5 1849,-116.5 1849,-80.5 1487,-80.5"/>
<text text-anchor="middle" x="1513" y="-94.8" font-family="Times,serif" font-size="14.00">v007</text>
<polyline fill="none" stroke="black" points="1539,-80.5 1539,-116.5 "/>
<text text-anchor="middle" x="1556.5" y="-94.8" font-family="Times,serif" font-size="14.00">L2</text>
<polyline fill="none" stroke="black" points="1574,-80.5 1574,-116.5 "/>
<text text-anchor="middle" x="1593" y="-94.8" font-family="Times,serif" font-size="14.00">N1</text>
<polyline fill="none" stroke="black" points="1612,-80.5 1612,-116.5 "/>
<text text-anchor="middle" x="1625" y="-94.8" font-family="Times,serif" font-size="14.00">b</text>
<polyline fill="none" stroke="black" points="1638,-80.5 1638,-116.5 "/>
<text text-anchor="middle" x="1691.5" y="-94.8" font-family="Times,serif" font-size="14.00">data &#45;0.3500</text>
<polyline fill="none" stroke="black" points="1745,-80.5 1745,-116.5 "/>
<text text-anchor="middle" x="1797" y="-94.8" font-family="Times,serif" font-size="14.00">grad 1.0000</text>
</g>
<!-- 139883124664080&#45;&gt;139883124757872+ -->
<g id="edge23" class="edge">
<title>139883124664080&#45;&gt;139883124757872+</title>
<path fill="none" stroke="black" d="M1849.14,-100.41C1910.32,-101.05 1972.75,-101.71 2010.69,-102.12"/>
<polygon fill="black" stroke="black" points="2010.68,-105.62 2020.72,-102.22 2010.76,-98.62 2010.68,-105.62"/>
</g>
<!-- 139883734292256 -->
<g id="node12" class="node">
<title>139883734292256</title>
<polygon fill="none" stroke="black" points="0,-179.5 0,-215.5 374,-215.5 374,-179.5 0,-179.5"/>
<text text-anchor="middle" x="26" y="-193.8" font-family="Times,serif" font-size="14.00">v001</text>
<polyline fill="none" stroke="black" points="52,-179.5 52,-215.5 "/>
<text text-anchor="middle" x="69.5" y="-193.8" font-family="Times,serif" font-size="14.00">L1</text>
<polyline fill="none" stroke="black" points="87,-179.5 87,-215.5 "/>
<text text-anchor="middle" x="106" y="-193.8" font-family="Times,serif" font-size="14.00">N1</text>
<polyline fill="none" stroke="black" points="125,-179.5 125,-215.5 "/>
<text text-anchor="middle" x="144" y="-193.8" font-family="Times,serif" font-size="14.00">w1</text>
<polyline fill="none" stroke="black" points="163,-179.5 163,-215.5 "/>
<text text-anchor="middle" x="216.5" y="-193.8" font-family="Times,serif" font-size="14.00">data &#45;0.0731</text>
<polyline fill="none" stroke="black" points="270,-179.5 270,-215.5 "/>
<text text-anchor="middle" x="322" y="-193.8" font-family="Times,serif" font-size="14.00">grad 1.2509</text>
</g>
<!-- 139883124757296* -->
<g id="node22" class="node">
<title>139883124757296*</title>
<ellipse fill="none" stroke="black" cx="437" cy="-156.5" rx="27" ry="18"/>
<text text-anchor="middle" x="437" y="-152.8" font-family="Times,serif" font-size="14.00">*</text>
</g>
<!-- 139883734292256&#45;&gt;139883124757296* -->
<g id="edge12" class="edge">
<title>139883734292256&#45;&gt;139883124757296*</title>
<path fill="none" stroke="black" d="M321.06,-179.47C338.89,-176.68 356.91,-173.66 374,-170.5 382.89,-168.85 392.44,-166.83 401.32,-164.83"/>
<polygon fill="black" stroke="black" points="402.39,-168.18 411.35,-162.53 400.82,-161.36 402.39,-168.18"/>
</g>
<!-- 139883124658992 -->
<g id="node13" class="node">
<title>139883124658992</title>
<polygon fill="none" stroke="black" points="500,-14.5 500,-50.5 862,-50.5 862,-14.5 500,-14.5"/>
<text text-anchor="middle" x="526" y="-28.8" font-family="Times,serif" font-size="14.00">v004</text>
<polyline fill="none" stroke="black" points="552,-14.5 552,-50.5 "/>
<text text-anchor="middle" x="569.5" y="-28.8" font-family="Times,serif" font-size="14.00">L1</text>
<polyline fill="none" stroke="black" points="587,-14.5 587,-50.5 "/>
<text text-anchor="middle" x="606" y="-28.8" font-family="Times,serif" font-size="14.00">N2</text>
<polyline fill="none" stroke="black" points="625,-14.5 625,-50.5 "/>
<text text-anchor="middle" x="638" y="-28.8" font-family="Times,serif" font-size="14.00">b</text>
<polyline fill="none" stroke="black" points="651,-14.5 651,-50.5 "/>
<text text-anchor="middle" x="704.5" y="-28.8" font-family="Times,serif" font-size="14.00">data &#45;0.3990</text>
<polyline fill="none" stroke="black" points="758,-14.5 758,-50.5 "/>
<text text-anchor="middle" x="810" y="-28.8" font-family="Times,serif" font-size="14.00">grad 1.3115</text>
</g>
<!-- 139883124658992&#45;&gt;139883124756912+ -->
<g id="edge20" class="edge">
<title>139883124658992&#45;&gt;139883124756912+</title>
<path fill="none" stroke="black" d="M803.66,-50.54C823.2,-53.69 843.18,-57.07 862,-60.5 870.79,-62.1 880.24,-64 889.05,-65.84"/>
<polygon fill="black" stroke="black" points="888.51,-69.3 899.02,-67.95 889.96,-62.45 888.51,-69.3"/>
</g>
<!-- 139883124664128 -->
<g id="node14" class="node">
<title>139883124664128</title>
<polygon fill="none" stroke="black" points="988,-0.5 988,-36.5 1361,-36.5 1361,-0.5 988,-0.5"/>
<text text-anchor="middle" x="1014" y="-14.8" font-family="Times,serif" font-size="14.00">v006</text>
<polyline fill="none" stroke="black" points="1040,-0.5 1040,-36.5 "/>
<text text-anchor="middle" x="1057.5" y="-14.8" font-family="Times,serif" font-size="14.00">L2</text>
<polyline fill="none" stroke="black" points="1075,-0.5 1075,-36.5 "/>
<text text-anchor="middle" x="1094" y="-14.8" font-family="Times,serif" font-size="14.00">N1</text>
<polyline fill="none" stroke="black" points="1113,-0.5 1113,-36.5 "/>
<text text-anchor="middle" x="1132" y="-14.8" font-family="Times,serif" font-size="14.00">w2</text>
<polyline fill="none" stroke="black" points="1151,-0.5 1151,-36.5 "/>
<text text-anchor="middle" x="1202" y="-14.8" font-family="Times,serif" font-size="14.00">data 1.4950</text>
<polyline fill="none" stroke="black" points="1253,-0.5 1253,-36.5 "/>
<text text-anchor="middle" x="1307" y="-14.8" font-family="Times,serif" font-size="14.00">grad &#45;3.6687</text>
</g>
<!-- 139883124664128&#45;&gt;139883124758112* -->
<g id="edge10" class="edge">
<title>139883124664128&#45;&gt;139883124758112*</title>
<path fill="none" stroke="black" d="M1329.43,-36.54C1350.88,-39.05 1371.04,-41.41 1387.12,-43.3"/>
<polygon fill="black" stroke="black" points="1386.73,-46.77 1397.06,-44.46 1387.54,-39.82 1386.73,-46.77"/>
</g>
<!-- 139883735116112 -->
<g id="node15" class="node">
<title>139883735116112</title>
<polygon fill="none" stroke="black" points="20,-124.5 20,-160.5 354,-160.5 354,-124.5 20,-124.5"/>
<text text-anchor="middle" x="46" y="-138.8" font-family="Times,serif" font-size="14.00">v008</text>
<polyline fill="none" stroke="black" points="72,-124.5 72,-160.5 "/>
<text text-anchor="middle" x="82.5" y="-138.8" font-family="Times,serif" font-size="14.00"> </text>
<polyline fill="none" stroke="black" points="93,-124.5 93,-160.5 "/>
<text text-anchor="middle" x="103.5" y="-138.8" font-family="Times,serif" font-size="14.00"> </text>
<polyline fill="none" stroke="black" points="114,-124.5 114,-160.5 "/>
<text text-anchor="middle" x="129" y="-138.8" font-family="Times,serif" font-size="14.00">i1</text>
<polyline fill="none" stroke="black" points="144,-124.5 144,-160.5 "/>
<text text-anchor="middle" x="195" y="-138.8" font-family="Times,serif" font-size="14.00">data 4.0000</text>
<polyline fill="none" stroke="black" points="246,-124.5 246,-160.5 "/>
<text text-anchor="middle" x="300" y="-138.8" font-family="Times,serif" font-size="14.00">grad &#45;1.0969</text>
</g>
<!-- 139883735116112&#45;&gt;139883124757536* -->
<g id="edge9" class="edge">
<title>139883735116112&#45;&gt;139883124757536*</title>
<path fill="none" stroke="black" d="M338.02,-124.46C350.29,-121.86 362.41,-118.88 374,-115.5 384.83,-112.34 396.2,-107.64 406.21,-102.99"/>
<polygon fill="black" stroke="black" points="407.83,-106.09 415.32,-98.6 404.8,-99.79 407.83,-106.09"/>
</g>
<!-- 139883735116112&#45;&gt;139883124757296* -->
<g id="edge22" class="edge">
<title>139883735116112&#45;&gt;139883124757296*</title>
<path fill="none" stroke="black" d="M354.11,-151.88C370.93,-152.83 386.58,-153.71 399.59,-154.44"/>
<polygon fill="black" stroke="black" points="399.69,-157.96 409.87,-155.03 400.09,-150.97 399.69,-157.96"/>
</g>
<!-- 139883124659040 -->
<g id="node16" class="node">
<title>139883124659040</title>
<polygon fill="none" stroke="black" points="0,-69.5 0,-105.5 374,-105.5 374,-69.5 0,-69.5"/>
<text text-anchor="middle" x="26" y="-83.8" font-family="Times,serif" font-size="14.00">v003</text>
<polyline fill="none" stroke="black" points="52,-69.5 52,-105.5 "/>
<text text-anchor="middle" x="69.5" y="-83.8" font-family="Times,serif" font-size="14.00">L1</text>
<polyline fill="none" stroke="black" points="87,-69.5 87,-105.5 "/>
<text text-anchor="middle" x="106" y="-83.8" font-family="Times,serif" font-size="14.00">N2</text>
<polyline fill="none" stroke="black" points="125,-69.5 125,-105.5 "/>
<text text-anchor="middle" x="144" y="-83.8" font-family="Times,serif" font-size="14.00">w1</text>
<polyline fill="none" stroke="black" points="163,-69.5 163,-105.5 "/>
<text text-anchor="middle" x="216.5" y="-83.8" font-family="Times,serif" font-size="14.00">data &#45;1.0961</text>
<polyline fill="none" stroke="black" points="270,-69.5 270,-105.5 "/>
<text text-anchor="middle" x="322" y="-83.8" font-family="Times,serif" font-size="14.00">grad 5.2461</text>
</g>
<!-- 139883124659040&#45;&gt;139883124757536* -->
<g id="edge13" class="edge">
<title>139883124659040&#45;&gt;139883124757536*</title>
<path fill="none" stroke="black" d="M374.06,-87.5C383.31,-87.5 391.94,-87.5 399.65,-87.5"/>
<polygon fill="black" stroke="black" points="399.9,-91 409.9,-87.5 399.9,-84 399.9,-91"/>
</g>
<!-- 139883124757872 -->
<g id="node17" class="node">
<title>139883124757872</title>
<polygon fill="none" stroke="black" points="2247,-82.5 2247,-118.5 2573,-118.5 2573,-82.5 2247,-82.5"/>
<text text-anchor="middle" x="2273" y="-96.8" font-family="Times,serif" font-size="14.00">v105</text>
<polyline fill="none" stroke="black" points="2299,-82.5 2299,-118.5 "/>
<text text-anchor="middle" x="2309.5" y="-96.8" font-family="Times,serif" font-size="14.00"> </text>
<polyline fill="none" stroke="black" points="2320,-82.5 2320,-118.5 "/>
<text text-anchor="middle" x="2330.5" y="-96.8" font-family="Times,serif" font-size="14.00"> </text>
<polyline fill="none" stroke="black" points="2341,-82.5 2341,-118.5 "/>
<text text-anchor="middle" x="2351.5" y="-96.8" font-family="Times,serif" font-size="14.00"> </text>
<polyline fill="none" stroke="black" points="2362,-82.5 2362,-118.5 "/>
<text text-anchor="middle" x="2415.5" y="-96.8" font-family="Times,serif" font-size="14.00">data &#45;0.3531</text>
<polyline fill="none" stroke="black" points="2469,-82.5 2469,-118.5 "/>
<text text-anchor="middle" x="2521" y="-96.8" font-family="Times,serif" font-size="14.00">grad 1.0000</text>
</g>
<!-- 139883124757872&#45;&gt;139883124758400+ -->
<g id="edge16" class="edge">
<title>139883124757872&#45;&gt;139883124758400+</title>
<path fill="none" stroke="black" d="M2566.27,-82.48C2578.27,-81.09 2589.48,-79.78 2599.23,-78.65"/>
<polygon fill="black" stroke="black" points="2599.67,-82.12 2609.2,-77.49 2598.86,-75.17 2599.67,-82.12"/>
</g>
<!-- 139883124757872+&#45;&gt;139883124757872 -->
<g id="edge5" class="edge">
<title>139883124757872+&#45;&gt;139883124757872</title>
<path fill="none" stroke="black" d="M2075.18,-102.35C2109.81,-102.16 2173.83,-101.81 2236.62,-101.46"/>
<polygon fill="black" stroke="black" points="2236.7,-104.96 2246.68,-101.4 2236.66,-97.96 2236.7,-104.96"/>
</g>
<!-- 139883124758400 -->
<g id="node19" class="node">
<title>139883124758400</title>
<polygon fill="none" stroke="black" points="2699,-56.5 2699,-92.5 3060,-92.5 3060,-56.5 2699,-56.5"/>
<text text-anchor="middle" x="2725" y="-70.8" font-family="Times,serif" font-size="14.00">v107</text>
<polyline fill="none" stroke="black" points="2751,-56.5 2751,-92.5 "/>
<text text-anchor="middle" x="2768.5" y="-70.8" font-family="Times,serif" font-size="14.00">L2</text>
<polyline fill="none" stroke="black" points="2786,-56.5 2786,-92.5 "/>
<text text-anchor="middle" x="2805" y="-70.8" font-family="Times,serif" font-size="14.00">N1</text>
<polyline fill="none" stroke="black" points="2824,-56.5 2824,-92.5 "/>
<text text-anchor="middle" x="2836.5" y="-70.8" font-family="Times,serif" font-size="14.00">a</text>
<polyline fill="none" stroke="black" points="2849,-56.5 2849,-92.5 "/>
<text text-anchor="middle" x="2902.5" y="-70.8" font-family="Times,serif" font-size="14.00">data &#45;5.1647</text>
<polyline fill="none" stroke="black" points="2956,-56.5 2956,-92.5 "/>
<text text-anchor="middle" x="3008" y="-70.8" font-family="Times,serif" font-size="14.00">grad 1.0000</text>
</g>
<!-- 139883124758400+&#45;&gt;139883124758400 -->
<g id="edge6" class="edge">
<title>139883124758400+&#45;&gt;139883124758400</title>
<path fill="none" stroke="black" d="M2663.3,-74.5C2670.65,-74.5 2679.24,-74.5 2688.68,-74.5"/>
<polygon fill="black" stroke="black" points="2688.81,-78 2698.81,-74.5 2688.81,-71 2688.81,-78"/>
</g>
<!-- 139883124757296 -->
<g id="node21" class="node">
<title>139883124757296</title>
<polygon fill="none" stroke="black" points="518,-138.5 518,-174.5 844,-174.5 844,-138.5 518,-138.5"/>
<text text-anchor="middle" x="544" y="-152.8" font-family="Times,serif" font-size="14.00">v100</text>
<polyline fill="none" stroke="black" points="570,-138.5 570,-174.5 "/>
<text text-anchor="middle" x="580.5" y="-152.8" font-family="Times,serif" font-size="14.00"> </text>
<polyline fill="none" stroke="black" points="591,-138.5 591,-174.5 "/>
<text text-anchor="middle" x="601.5" y="-152.8" font-family="Times,serif" font-size="14.00"> </text>
<polyline fill="none" stroke="black" points="612,-138.5 612,-174.5 "/>
<text text-anchor="middle" x="622.5" y="-152.8" font-family="Times,serif" font-size="14.00"> </text>
<polyline fill="none" stroke="black" points="633,-138.5 633,-174.5 "/>
<text text-anchor="middle" x="686.5" y="-152.8" font-family="Times,serif" font-size="14.00">data &#45;0.0421</text>
<polyline fill="none" stroke="black" points="740,-138.5 740,-174.5 "/>
<text text-anchor="middle" x="792" y="-152.8" font-family="Times,serif" font-size="14.00">grad 0.3127</text>
</g>
<!-- 139883124757296&#45;&gt;139883124758064+ -->
<g id="edge19" class="edge">
<title>139883124757296&#45;&gt;139883124758064+</title>
<path fill="none" stroke="black" d="M843.42,-174.51C859.94,-176.35 875.34,-178.07 888.15,-179.5"/>
<polygon fill="black" stroke="black" points="887.94,-183 898.27,-180.63 888.72,-176.04 887.94,-183"/>
</g>
<!-- 139883124757296*&#45;&gt;139883124757296 -->
<g id="edge7" class="edge">
<title>139883124757296*&#45;&gt;139883124757296</title>
<path fill="none" stroke="black" d="M464.36,-156.5C476.08,-156.5 490.94,-156.5 507.37,-156.5"/>
<polygon fill="black" stroke="black" points="507.79,-160 517.79,-156.5 507.79,-153 507.79,-160"/>
</g>
<!-- 139883124756912 -->
<g id="node23" class="node">
<title>139883124756912</title>
<polygon fill="none" stroke="black" points="994,-55.5 994,-91.5 1355,-91.5 1355,-55.5 994,-55.5"/>
<text text-anchor="middle" x="1020" y="-69.8" font-family="Times,serif" font-size="14.00">v103</text>
<polyline fill="none" stroke="black" points="1046,-55.5 1046,-91.5 "/>
<text text-anchor="middle" x="1063.5" y="-69.8" font-family="Times,serif" font-size="14.00">L1</text>
<polyline fill="none" stroke="black" points="1081,-55.5 1081,-91.5 "/>
<text text-anchor="middle" x="1100" y="-69.8" font-family="Times,serif" font-size="14.00">N2</text>
<polyline fill="none" stroke="black" points="1119,-55.5 1119,-91.5 "/>
<text text-anchor="middle" x="1131.5" y="-69.8" font-family="Times,serif" font-size="14.00">a</text>
<polyline fill="none" stroke="black" points="1144,-55.5 1144,-91.5 "/>
<text text-anchor="middle" x="1197.5" y="-69.8" font-family="Times,serif" font-size="14.00">data &#45;3.6687</text>
<polyline fill="none" stroke="black" points="1251,-55.5 1251,-91.5 "/>
<text text-anchor="middle" x="1303" y="-69.8" font-family="Times,serif" font-size="14.00">grad 1.3115</text>
</g>
<!-- 139883124756912&#45;&gt;139883124758112* -->
<g id="edge18" class="edge">
<title>139883124756912&#45;&gt;139883124758112*</title>
<path fill="none" stroke="black" d="M1347.06,-55.48C1361.89,-53.92 1375.64,-52.47 1387.25,-51.26"/>
<polygon fill="black" stroke="black" points="1387.7,-54.73 1397.28,-50.2 1386.97,-47.77 1387.7,-54.73"/>
</g>
<!-- 139883124756912+&#45;&gt;139883124756912 -->
<g id="edge8" class="edge">
<title>139883124756912+&#45;&gt;139883124756912</title>
<path fill="none" stroke="black" d="M952.02,-73.5C960.94,-73.5 971.72,-73.5 983.66,-73.5"/>
<polygon fill="black" stroke="black" points="983.95,-77 993.95,-73.5 983.95,-70 983.95,-77"/>
</g>
</g>
</svg>
