<?xml version="1.0" encoding="UTF-8" standalone="no"?>
<!DOCTYPE svg PUBLIC "-//W3C//DTD SVG 1.1//EN"
 "http://www.w3.org/Graphics/SVG/1.1/DTD/svg11.dtd">
<!-- Generated by graphviz version 2.43.0 (0)
 -->
<!-- Title: %3 Pages: 1 -->
<svg width="3511pt" height="210pt"
 viewBox="0.00 0.00 3511.00 210.00" xmlns="http://www.w3.org/2000/svg" xmlns:xlink="http://www.w3.org/1999/xlink">
<g id="graph0" class="graph" transform="scale(1 1) rotate(0) translate(4 206)">
<title>%3</title>
<polygon fill="white" stroke="transparent" points="-4,4 -4,-206 3507,-206 3507,4 -4,4"/>
<!-- 140260402421264 -->
<g id="node1" class="node">
<title>140260402421264</title>
<polygon fill="none" stroke="black" points="515.5,-55.5 515.5,-91.5 836.5,-91.5 836.5,-55.5 515.5,-55.5"/>
<text text-anchor="middle" x="541.5" y="-69.8" font-family="Times,serif" font-size="14.00">v046</text>
<polyline fill="none" stroke="black" points="567.5,-55.5 567.5,-91.5 "/>
<text text-anchor="middle" x="578" y="-69.8" font-family="Times,serif" font-size="14.00"> </text>
<polyline fill="none" stroke="black" points="588.5,-55.5 588.5,-91.5 "/>
<text text-anchor="middle" x="599" y="-69.8" font-family="Times,serif" font-size="14.00"> </text>
<polyline fill="none" stroke="black" points="609.5,-55.5 609.5,-91.5 "/>
<text text-anchor="middle" x="620" y="-69.8" font-family="Times,serif" font-size="14.00"> </text>
<polyline fill="none" stroke="black" points="630.5,-55.5 630.5,-91.5 "/>
<text text-anchor="middle" x="681.5" y="-69.8" font-family="Times,serif" font-size="14.00">data 1.0058</text>
<polyline fill="none" stroke="black" points="732.5,-55.5 732.5,-91.5 "/>
<text text-anchor="middle" x="784.5" y="-69.8" font-family="Times,serif" font-size="14.00">grad 0.0000</text>
</g>
<!-- 140260402425968+ -->
<g id="node5" class="node">
<title>140260402425968+</title>
<ellipse fill="none" stroke="black" cx="920" cy="-73.5" rx="27" ry="18"/>
<text text-anchor="middle" x="920" y="-69.8" font-family="Times,serif" font-size="14.00">+</text>
</g>
<!-- 140260402421264&#45;&gt;140260402425968+ -->
<g id="edge13" class="edge">
<title>140260402421264&#45;&gt;140260402425968+</title>
<path fill="none" stroke="black" d="M836.73,-73.5C853.54,-73.5 869.24,-73.5 882.32,-73.5"/>
<polygon fill="black" stroke="black" points="882.66,-77 892.66,-73.5 882.66,-70 882.66,-77"/>
</g>
<!-- 140260402421264* -->
<g id="node2" class="node">
<title>140260402421264*</title>
<ellipse fill="none" stroke="black" cx="432" cy="-73.5" rx="27" ry="18"/>
<text text-anchor="middle" x="432" y="-69.8" font-family="Times,serif" font-size="14.00">*</text>
</g>
<!-- 140260402421264*&#45;&gt;140260402421264 -->
<g id="edge1" class="edge">
<title>140260402421264*&#45;&gt;140260402421264</title>
<path fill="none" stroke="black" d="M459.36,-73.5C471.7,-73.5 487.53,-73.5 505,-73.5"/>
<polygon fill="black" stroke="black" points="505.46,-77 515.46,-73.5 505.46,-70 505.46,-77"/>
</g>
<!-- 140260402419584 -->
<g id="node3" class="node">
<title>140260402419584</title>
<polygon fill="none" stroke="black" points="0,-55.5 0,-91.5 369,-91.5 369,-55.5 0,-55.5"/>
<text text-anchor="middle" x="26" y="-69.8" font-family="Times,serif" font-size="14.00">v001</text>
<polyline fill="none" stroke="black" points="52,-55.5 52,-91.5 "/>
<text text-anchor="middle" x="69.5" y="-69.8" font-family="Times,serif" font-size="14.00">L1</text>
<polyline fill="none" stroke="black" points="87,-55.5 87,-91.5 "/>
<text text-anchor="middle" x="106" y="-69.8" font-family="Times,serif" font-size="14.00">N1</text>
<polyline fill="none" stroke="black" points="125,-55.5 125,-91.5 "/>
<text text-anchor="middle" x="144" y="-69.8" font-family="Times,serif" font-size="14.00">w1</text>
<polyline fill="none" stroke="black" points="163,-55.5 163,-91.5 "/>
<text text-anchor="middle" x="214" y="-69.8" font-family="Times,serif" font-size="14.00">data 0.2514</text>
<polyline fill="none" stroke="black" points="265,-55.5 265,-91.5 "/>
<text text-anchor="middle" x="317" y="-69.8" font-family="Times,serif" font-size="14.00">grad 0.0000</text>
</g>
<!-- 140260402419584&#45;&gt;140260402421264* -->
<g id="edge14" class="edge">
<title>140260402419584&#45;&gt;140260402421264*</title>
<path fill="none" stroke="black" d="M369.05,-73.5C378.29,-73.5 386.92,-73.5 394.62,-73.5"/>
<polygon fill="black" stroke="black" points="394.87,-77 404.87,-73.5 394.87,-70 394.87,-77"/>
</g>
<!-- 140260402425968 -->
<g id="node4" class="node">
<title>140260402425968</title>
<polygon fill="none" stroke="black" points="992,-55.5 992,-91.5 1348,-91.5 1348,-55.5 992,-55.5"/>
<text text-anchor="middle" x="1018" y="-69.8" font-family="Times,serif" font-size="14.00">v047</text>
<polyline fill="none" stroke="black" points="1044,-55.5 1044,-91.5 "/>
<text text-anchor="middle" x="1061.5" y="-69.8" font-family="Times,serif" font-size="14.00">L1</text>
<polyline fill="none" stroke="black" points="1079,-55.5 1079,-91.5 "/>
<text text-anchor="middle" x="1098" y="-69.8" font-family="Times,serif" font-size="14.00">N1</text>
<polyline fill="none" stroke="black" points="1117,-55.5 1117,-91.5 "/>
<text text-anchor="middle" x="1129.5" y="-69.8" font-family="Times,serif" font-size="14.00">a</text>
<polyline fill="none" stroke="black" points="1142,-55.5 1142,-91.5 "/>
<text text-anchor="middle" x="1193" y="-69.8" font-family="Times,serif" font-size="14.00">data 0.9437</text>
<polyline fill="none" stroke="black" points="1244,-55.5 1244,-91.5 "/>
<text text-anchor="middle" x="1296" y="-69.8" font-family="Times,serif" font-size="14.00">grad 0.0000</text>
</g>
<!-- 140260402426688* -->
<g id="node20" class="node">
<title>140260402426688*</title>
<ellipse fill="none" stroke="black" cx="1420" cy="-73.5" rx="27" ry="18"/>
<text text-anchor="middle" x="1420" y="-69.8" font-family="Times,serif" font-size="14.00">*</text>
</g>
<!-- 140260402425968&#45;&gt;140260402426688* -->
<g id="edge20" class="edge">
<title>140260402425968&#45;&gt;140260402426688*</title>
<path fill="none" stroke="black" d="M1348.27,-73.5C1360.86,-73.5 1372.55,-73.5 1382.65,-73.5"/>
<polygon fill="black" stroke="black" points="1382.96,-77 1392.96,-73.5 1382.96,-70 1382.96,-77"/>
</g>
<!-- 140260402425968+&#45;&gt;140260402425968 -->
<g id="edge2" class="edge">
<title>140260402425968+&#45;&gt;140260402425968</title>
<path fill="none" stroke="black" d="M947.07,-73.5C956.73,-73.5 968.57,-73.5 981.71,-73.5"/>
<polygon fill="black" stroke="black" points="981.99,-77 991.99,-73.5 981.99,-70 981.99,-77"/>
</g>
<!-- 140260402419344 -->
<g id="node6" class="node">
<title>140260402419344</title>
<polygon fill="none" stroke="black" points="983,-165.5 983,-201.5 1357,-201.5 1357,-165.5 983,-165.5"/>
<text text-anchor="middle" x="1009" y="-179.8" font-family="Times,serif" font-size="14.00">v006</text>
<polyline fill="none" stroke="black" points="1035,-165.5 1035,-201.5 "/>
<text text-anchor="middle" x="1052.5" y="-179.8" font-family="Times,serif" font-size="14.00">L2</text>
<polyline fill="none" stroke="black" points="1070,-165.5 1070,-201.5 "/>
<text text-anchor="middle" x="1089" y="-179.8" font-family="Times,serif" font-size="14.00">N1</text>
<polyline fill="none" stroke="black" points="1108,-165.5 1108,-201.5 "/>
<text text-anchor="middle" x="1127" y="-179.8" font-family="Times,serif" font-size="14.00">w2</text>
<polyline fill="none" stroke="black" points="1146,-165.5 1146,-201.5 "/>
<text text-anchor="middle" x="1199.5" y="-179.8" font-family="Times,serif" font-size="14.00">data &#45;0.2623</text>
<polyline fill="none" stroke="black" points="1253,-165.5 1253,-201.5 "/>
<text text-anchor="middle" x="1305" y="-179.8" font-family="Times,serif" font-size="14.00">grad 0.0000</text>
</g>
<!-- 140260402419104* -->
<g id="node10" class="node">
<title>140260402419104*</title>
<ellipse fill="none" stroke="black" cx="1420" cy="-128.5" rx="27" ry="18"/>
<text text-anchor="middle" x="1420" y="-124.8" font-family="Times,serif" font-size="14.00">*</text>
</g>
<!-- 140260402419344&#45;&gt;140260402419104* -->
<g id="edge15" class="edge">
<title>140260402419344&#45;&gt;140260402419104*</title>
<path fill="none" stroke="black" d="M1321.02,-165.46C1333.29,-162.86 1345.41,-159.88 1357,-156.5 1367.83,-153.34 1379.2,-148.64 1389.21,-143.99"/>
<polygon fill="black" stroke="black" points="1390.83,-147.09 1398.32,-139.6 1387.8,-140.79 1390.83,-147.09"/>
</g>
<!-- 140260402428560 -->
<g id="node7" class="node">
<title>140260402428560</title>
<polygon fill="none" stroke="black" points="992,-110.5 992,-146.5 1348,-146.5 1348,-110.5 992,-110.5"/>
<text text-anchor="middle" x="1018" y="-124.8" font-family="Times,serif" font-size="14.00">v049</text>
<polyline fill="none" stroke="black" points="1044,-110.5 1044,-146.5 "/>
<text text-anchor="middle" x="1061.5" y="-124.8" font-family="Times,serif" font-size="14.00">L1</text>
<polyline fill="none" stroke="black" points="1079,-110.5 1079,-146.5 "/>
<text text-anchor="middle" x="1098" y="-124.8" font-family="Times,serif" font-size="14.00">N2</text>
<polyline fill="none" stroke="black" points="1117,-110.5 1117,-146.5 "/>
<text text-anchor="middle" x="1129.5" y="-124.8" font-family="Times,serif" font-size="14.00">a</text>
<polyline fill="none" stroke="black" points="1142,-110.5 1142,-146.5 "/>
<text text-anchor="middle" x="1193" y="-124.8" font-family="Times,serif" font-size="14.00">data 2.9948</text>
<polyline fill="none" stroke="black" points="1244,-110.5 1244,-146.5 "/>
<text text-anchor="middle" x="1296" y="-124.8" font-family="Times,serif" font-size="14.00">grad 0.0000</text>
</g>
<!-- 140260402428560&#45;&gt;140260402419104* -->
<g id="edge26" class="edge">
<title>140260402428560&#45;&gt;140260402419104*</title>
<path fill="none" stroke="black" d="M1348.27,-128.5C1360.86,-128.5 1372.55,-128.5 1382.65,-128.5"/>
<polygon fill="black" stroke="black" points="1382.96,-132 1392.96,-128.5 1382.96,-125 1382.96,-132"/>
</g>
<!-- 140260402428560+ -->
<g id="node8" class="node">
<title>140260402428560+</title>
<ellipse fill="none" stroke="black" cx="920" cy="-128.5" rx="27" ry="18"/>
<text text-anchor="middle" x="920" y="-124.8" font-family="Times,serif" font-size="14.00">+</text>
</g>
<!-- 140260402428560+&#45;&gt;140260402428560 -->
<g id="edge3" class="edge">
<title>140260402428560+&#45;&gt;140260402428560</title>
<path fill="none" stroke="black" d="M947.07,-128.5C956.73,-128.5 968.57,-128.5 981.71,-128.5"/>
<polygon fill="black" stroke="black" points="981.99,-132 991.99,-128.5 981.99,-125 981.99,-132"/>
</g>
<!-- 140260402419104 -->
<g id="node9" class="node">
<title>140260402419104</title>
<polygon fill="none" stroke="black" points="1881,-110.5 1881,-146.5 2207,-146.5 2207,-110.5 1881,-110.5"/>
<text text-anchor="middle" x="1907" y="-124.8" font-family="Times,serif" font-size="14.00">v052</text>
<polyline fill="none" stroke="black" points="1933,-110.5 1933,-146.5 "/>
<text text-anchor="middle" x="1943.5" y="-124.8" font-family="Times,serif" font-size="14.00"> </text>
<polyline fill="none" stroke="black" points="1954,-110.5 1954,-146.5 "/>
<text text-anchor="middle" x="1964.5" y="-124.8" font-family="Times,serif" font-size="14.00"> </text>
<polyline fill="none" stroke="black" points="1975,-110.5 1975,-146.5 "/>
<text text-anchor="middle" x="1985.5" y="-124.8" font-family="Times,serif" font-size="14.00"> </text>
<polyline fill="none" stroke="black" points="1996,-110.5 1996,-146.5 "/>
<text text-anchor="middle" x="2049.5" y="-124.8" font-family="Times,serif" font-size="14.00">data &#45;0.7855</text>
<polyline fill="none" stroke="black" points="2103,-110.5 2103,-146.5 "/>
<text text-anchor="middle" x="2155" y="-124.8" font-family="Times,serif" font-size="14.00">grad 0.0000</text>
</g>
<!-- 140260402429760+ -->
<g id="node16" class="node">
<title>140260402429760+</title>
<ellipse fill="none" stroke="black" cx="2632" cy="-100.5" rx="27" ry="18"/>
<text text-anchor="middle" x="2632" y="-96.8" font-family="Times,serif" font-size="14.00">+</text>
</g>
<!-- 140260402419104&#45;&gt;140260402429760+ -->
<g id="edge24" class="edge">
<title>140260402419104&#45;&gt;140260402429760+</title>
<path fill="none" stroke="black" d="M2207.07,-122.92C2310.64,-118.97 2447.78,-113.05 2569,-105.5 2577.43,-104.98 2586.49,-104.3 2595.02,-103.63"/>
<polygon fill="black" stroke="black" points="2595.39,-107.11 2605.07,-102.8 2594.82,-100.13 2595.39,-107.11"/>
</g>
<!-- 140260402419104*&#45;&gt;140260402419104 -->
<g id="edge4" class="edge">
<title>140260402419104*&#45;&gt;140260402419104</title>
<path fill="none" stroke="black" d="M1447.33,-128.5C1518.87,-128.5 1721.46,-128.5 1870.6,-128.5"/>
<polygon fill="black" stroke="black" points="1870.79,-132 1880.79,-128.5 1870.79,-125 1870.79,-132"/>
</g>
<!-- 140260402423280 -->
<g id="node11" class="node">
<title>140260402423280</title>
<polygon fill="none" stroke="black" points="2243,-59.5 2243,-95.5 2569,-95.5 2569,-59.5 2243,-59.5"/>
<text text-anchor="middle" x="2269" y="-73.8" font-family="Times,serif" font-size="14.00">v051</text>
<polyline fill="none" stroke="black" points="2295,-59.5 2295,-95.5 "/>
<text text-anchor="middle" x="2305.5" y="-73.8" font-family="Times,serif" font-size="14.00"> </text>
<polyline fill="none" stroke="black" points="2316,-59.5 2316,-95.5 "/>
<text text-anchor="middle" x="2326.5" y="-73.8" font-family="Times,serif" font-size="14.00"> </text>
<polyline fill="none" stroke="black" points="2337,-59.5 2337,-95.5 "/>
<text text-anchor="middle" x="2347.5" y="-73.8" font-family="Times,serif" font-size="14.00"> </text>
<polyline fill="none" stroke="black" points="2358,-59.5 2358,-95.5 "/>
<text text-anchor="middle" x="2411.5" y="-73.8" font-family="Times,serif" font-size="14.00">data &#45;0.6013</text>
<polyline fill="none" stroke="black" points="2465,-59.5 2465,-95.5 "/>
<text text-anchor="middle" x="2517" y="-73.8" font-family="Times,serif" font-size="14.00">grad 0.0000</text>
</g>
<!-- 140260402423280&#45;&gt;140260402429760+ -->
<g id="edge22" class="edge">
<title>140260402423280&#45;&gt;140260402429760+</title>
<path fill="none" stroke="black" d="M2569.2,-94.15C2578.51,-95.11 2587.24,-96.01 2595.04,-96.81"/>
<polygon fill="black" stroke="black" points="2594.76,-100.3 2605.06,-97.84 2595.47,-93.33 2594.76,-100.3"/>
</g>
<!-- 140260402423280+ -->
<g id="node12" class="node">
<title>140260402423280+</title>
<ellipse fill="none" stroke="black" cx="2044" cy="-73.5" rx="27" ry="18"/>
<text text-anchor="middle" x="2044" y="-69.8" font-family="Times,serif" font-size="14.00">+</text>
</g>
<!-- 140260402423280+&#45;&gt;140260402423280 -->
<g id="edge5" class="edge">
<title>140260402423280+&#45;&gt;140260402423280</title>
<path fill="none" stroke="black" d="M2071.18,-73.79C2105.81,-74.18 2169.83,-74.89 2232.62,-75.58"/>
<polygon fill="black" stroke="black" points="2232.64,-79.08 2242.68,-75.7 2232.72,-72.09 2232.64,-79.08"/>
</g>
<!-- 140260402422512 -->
<g id="node13" class="node">
<title>140260402422512</title>
<polygon fill="none" stroke="black" points="495,-0.5 495,-36.5 857,-36.5 857,-0.5 495,-0.5"/>
<text text-anchor="middle" x="521" y="-14.8" font-family="Times,serif" font-size="14.00">v002</text>
<polyline fill="none" stroke="black" points="547,-0.5 547,-36.5 "/>
<text text-anchor="middle" x="564.5" y="-14.8" font-family="Times,serif" font-size="14.00">L1</text>
<polyline fill="none" stroke="black" points="582,-0.5 582,-36.5 "/>
<text text-anchor="middle" x="601" y="-14.8" font-family="Times,serif" font-size="14.00">N1</text>
<polyline fill="none" stroke="black" points="620,-0.5 620,-36.5 "/>
<text text-anchor="middle" x="633" y="-14.8" font-family="Times,serif" font-size="14.00">b</text>
<polyline fill="none" stroke="black" points="646,-0.5 646,-36.5 "/>
<text text-anchor="middle" x="699.5" y="-14.8" font-family="Times,serif" font-size="14.00">data &#45;0.0621</text>
<polyline fill="none" stroke="black" points="753,-0.5 753,-36.5 "/>
<text text-anchor="middle" x="805" y="-14.8" font-family="Times,serif" font-size="14.00">grad 0.0000</text>
</g>
<!-- 140260402422512&#45;&gt;140260402425968+ -->
<g id="edge17" class="edge">
<title>140260402422512&#45;&gt;140260402425968+</title>
<path fill="none" stroke="black" d="M816.35,-36.52C830.19,-39.4 843.94,-42.71 857,-46.5 867.68,-49.6 878.95,-54.1 888.9,-58.55"/>
<polygon fill="black" stroke="black" points="887.44,-61.72 897.98,-62.74 890.37,-55.37 887.44,-61.72"/>
</g>
<!-- 140260402419632 -->
<g id="node14" class="node">
<title>140260402419632</title>
<polygon fill="none" stroke="black" points="1483,-0.5 1483,-36.5 1845,-36.5 1845,-0.5 1483,-0.5"/>
<text text-anchor="middle" x="1509" y="-14.8" font-family="Times,serif" font-size="14.00">v007</text>
<polyline fill="none" stroke="black" points="1535,-0.5 1535,-36.5 "/>
<text text-anchor="middle" x="1552.5" y="-14.8" font-family="Times,serif" font-size="14.00">L2</text>
<polyline fill="none" stroke="black" points="1570,-0.5 1570,-36.5 "/>
<text text-anchor="middle" x="1589" y="-14.8" font-family="Times,serif" font-size="14.00">N1</text>
<polyline fill="none" stroke="black" points="1608,-0.5 1608,-36.5 "/>
<text text-anchor="middle" x="1621" y="-14.8" font-family="Times,serif" font-size="14.00">b</text>
<polyline fill="none" stroke="black" points="1634,-0.5 1634,-36.5 "/>
<text text-anchor="middle" x="1687.5" y="-14.8" font-family="Times,serif" font-size="14.00">data &#45;0.6673</text>
<polyline fill="none" stroke="black" points="1741,-0.5 1741,-36.5 "/>
<text text-anchor="middle" x="1793" y="-14.8" font-family="Times,serif" font-size="14.00">grad 0.0000</text>
</g>
<!-- 140260402419632&#45;&gt;140260402423280+ -->
<g id="edge25" class="edge">
<title>140260402419632&#45;&gt;140260402423280+</title>
<path fill="none" stroke="black" d="M1788.77,-36.51C1865.16,-47.62 1957.75,-61.1 2007.41,-68.32"/>
<polygon fill="black" stroke="black" points="2006.93,-71.79 2017.33,-69.77 2007.94,-64.86 2006.93,-71.79"/>
</g>
<!-- 140260402429760 -->
<g id="node15" class="node">
<title>140260402429760</title>
<polygon fill="none" stroke="black" points="2695,-82.5 2695,-118.5 3056,-118.5 3056,-82.5 2695,-82.5"/>
<text text-anchor="middle" x="2721" y="-96.8" font-family="Times,serif" font-size="14.00">v053</text>
<polyline fill="none" stroke="black" points="2747,-82.5 2747,-118.5 "/>
<text text-anchor="middle" x="2764.5" y="-96.8" font-family="Times,serif" font-size="14.00">L2</text>
<polyline fill="none" stroke="black" points="2782,-82.5 2782,-118.5 "/>
<text text-anchor="middle" x="2801" y="-96.8" font-family="Times,serif" font-size="14.00">N1</text>
<polyline fill="none" stroke="black" points="2820,-82.5 2820,-118.5 "/>
<text text-anchor="middle" x="2832.5" y="-96.8" font-family="Times,serif" font-size="14.00">a</text>
<polyline fill="none" stroke="black" points="2845,-82.5 2845,-118.5 "/>
<text text-anchor="middle" x="2898.5" y="-96.8" font-family="Times,serif" font-size="14.00">data &#45;1.3869</text>
<polyline fill="none" stroke="black" points="2952,-82.5 2952,-118.5 "/>
<text text-anchor="middle" x="3004" y="-96.8" font-family="Times,serif" font-size="14.00">grad 0.0000</text>
</g>
<!-- 140260402426784* -->
<g id="node23" class="node">
<title>140260402426784*</title>
<ellipse fill="none" stroke="black" cx="3119" cy="-100.5" rx="27" ry="18"/>
<text text-anchor="middle" x="3119" y="-96.8" font-family="Times,serif" font-size="14.00">*</text>
</g>
<!-- 140260402429760&#45;&gt;140260402426784* -->
<g id="edge16" class="edge">
<title>140260402429760&#45;&gt;140260402426784*</title>
<path fill="none" stroke="black" d="M3056.12,-100.5C3065.34,-100.5 3073.94,-100.5 3081.64,-100.5"/>
<polygon fill="black" stroke="black" points="3081.87,-104 3091.87,-100.5 3081.87,-97 3081.87,-104"/>
</g>
<!-- 140260402429760+&#45;&gt;140260402429760 -->
<g id="edge6" class="edge">
<title>140260402429760+&#45;&gt;140260402429760</title>
<path fill="none" stroke="black" d="M2659.3,-100.5C2666.65,-100.5 2675.24,-100.5 2684.68,-100.5"/>
<polygon fill="black" stroke="black" points="2684.81,-104 2694.81,-100.5 2684.81,-97 2684.81,-104"/>
</g>
<!-- 140260402425152 -->
<g id="node17" class="node">
<title>140260402425152</title>
<polygon fill="none" stroke="black" points="515.5,-165.5 515.5,-201.5 836.5,-201.5 836.5,-165.5 515.5,-165.5"/>
<text text-anchor="middle" x="541.5" y="-179.8" font-family="Times,serif" font-size="14.00">v048</text>
<polyline fill="none" stroke="black" points="567.5,-165.5 567.5,-201.5 "/>
<text text-anchor="middle" x="578" y="-179.8" font-family="Times,serif" font-size="14.00"> </text>
<polyline fill="none" stroke="black" points="588.5,-165.5 588.5,-201.5 "/>
<text text-anchor="middle" x="599" y="-179.8" font-family="Times,serif" font-size="14.00"> </text>
<polyline fill="none" stroke="black" points="609.5,-165.5 609.5,-201.5 "/>
<text text-anchor="middle" x="620" y="-179.8" font-family="Times,serif" font-size="14.00"> </text>
<polyline fill="none" stroke="black" points="630.5,-165.5 630.5,-201.5 "/>
<text text-anchor="middle" x="681.5" y="-179.8" font-family="Times,serif" font-size="14.00">data 2.9363</text>
<polyline fill="none" stroke="black" points="732.5,-165.5 732.5,-201.5 "/>
<text text-anchor="middle" x="784.5" y="-179.8" font-family="Times,serif" font-size="14.00">grad 0.0000</text>
</g>
<!-- 140260402425152&#45;&gt;140260402428560+ -->
<g id="edge10" class="edge">
<title>140260402425152&#45;&gt;140260402428560+</title>
<path fill="none" stroke="black" d="M821.22,-165.49C833.42,-162.88 845.48,-159.89 857,-156.5 867.82,-153.31 879.19,-148.61 889.2,-143.96"/>
<polygon fill="black" stroke="black" points="890.82,-147.06 898.32,-139.57 887.79,-140.76 890.82,-147.06"/>
</g>
<!-- 140260402425152* -->
<g id="node18" class="node">
<title>140260402425152*</title>
<ellipse fill="none" stroke="black" cx="432" cy="-183.5" rx="27" ry="18"/>
<text text-anchor="middle" x="432" y="-179.8" font-family="Times,serif" font-size="14.00">*</text>
</g>
<!-- 140260402425152*&#45;&gt;140260402425152 -->
<g id="edge7" class="edge">
<title>140260402425152*&#45;&gt;140260402425152</title>
<path fill="none" stroke="black" d="M459.36,-183.5C471.7,-183.5 487.53,-183.5 505,-183.5"/>
<polygon fill="black" stroke="black" points="505.46,-187 515.46,-183.5 505.46,-180 505.46,-187"/>
</g>
<!-- 140260402426688 -->
<g id="node19" class="node">
<title>140260402426688</title>
<polygon fill="none" stroke="black" points="1503.5,-55.5 1503.5,-91.5 1824.5,-91.5 1824.5,-55.5 1503.5,-55.5"/>
<text text-anchor="middle" x="1529.5" y="-69.8" font-family="Times,serif" font-size="14.00">v050</text>
<polyline fill="none" stroke="black" points="1555.5,-55.5 1555.5,-91.5 "/>
<text text-anchor="middle" x="1566" y="-69.8" font-family="Times,serif" font-size="14.00"> </text>
<polyline fill="none" stroke="black" points="1576.5,-55.5 1576.5,-91.5 "/>
<text text-anchor="middle" x="1587" y="-69.8" font-family="Times,serif" font-size="14.00"> </text>
<polyline fill="none" stroke="black" points="1597.5,-55.5 1597.5,-91.5 "/>
<text text-anchor="middle" x="1608" y="-69.8" font-family="Times,serif" font-size="14.00"> </text>
<polyline fill="none" stroke="black" points="1618.5,-55.5 1618.5,-91.5 "/>
<text text-anchor="middle" x="1669.5" y="-69.8" font-family="Times,serif" font-size="14.00">data 0.0660</text>
<polyline fill="none" stroke="black" points="1720.5,-55.5 1720.5,-91.5 "/>
<text text-anchor="middle" x="1772.5" y="-69.8" font-family="Times,serif" font-size="14.00">grad 0.0000</text>
</g>
<!-- 140260402426688&#45;&gt;140260402423280+ -->
<g id="edge19" class="edge">
<title>140260402426688&#45;&gt;140260402423280+</title>
<path fill="none" stroke="black" d="M1824.76,-73.5C1892.19,-73.5 1964.7,-73.5 2006.85,-73.5"/>
<polygon fill="black" stroke="black" points="2006.89,-77 2016.89,-73.5 2006.89,-70 2006.89,-77"/>
</g>
<!-- 140260402426688*&#45;&gt;140260402426688 -->
<g id="edge8" class="edge">
<title>140260402426688*&#45;&gt;140260402426688</title>
<path fill="none" stroke="black" d="M1447.36,-73.5C1459.7,-73.5 1475.53,-73.5 1493,-73.5"/>
<polygon fill="black" stroke="black" points="1493.46,-77 1503.46,-73.5 1493.46,-70 1493.46,-77"/>
</g>
<!-- 140260402422656 -->
<g id="node21" class="node">
<title>140260402422656</title>
<polygon fill="none" stroke="black" points="0,-165.5 0,-201.5 369,-201.5 369,-165.5 0,-165.5"/>
<text text-anchor="middle" x="26" y="-179.8" font-family="Times,serif" font-size="14.00">v003</text>
<polyline fill="none" stroke="black" points="52,-165.5 52,-201.5 "/>
<text text-anchor="middle" x="69.5" y="-179.8" font-family="Times,serif" font-size="14.00">L1</text>
<polyline fill="none" stroke="black" points="87,-165.5 87,-201.5 "/>
<text text-anchor="middle" x="106" y="-179.8" font-family="Times,serif" font-size="14.00">N2</text>
<polyline fill="none" stroke="black" points="125,-165.5 125,-201.5 "/>
<text text-anchor="middle" x="144" y="-179.8" font-family="Times,serif" font-size="14.00">w1</text>
<polyline fill="none" stroke="black" points="163,-165.5 163,-201.5 "/>
<text text-anchor="middle" x="214" y="-179.8" font-family="Times,serif" font-size="14.00">data 0.7341</text>
<polyline fill="none" stroke="black" points="265,-165.5 265,-201.5 "/>
<text text-anchor="middle" x="317" y="-179.8" font-family="Times,serif" font-size="14.00">grad 0.0000</text>
</g>
<!-- 140260402422656&#45;&gt;140260402425152* -->
<g id="edge18" class="edge">
<title>140260402422656&#45;&gt;140260402425152*</title>
<path fill="none" stroke="black" d="M369.05,-183.5C378.29,-183.5 386.92,-183.5 394.62,-183.5"/>
<polygon fill="black" stroke="black" points="394.87,-187 404.87,-183.5 394.87,-180 394.87,-187"/>
</g>
<!-- 140260402426784 -->
<g id="node22" class="node">
<title>140260402426784</title>
<polygon fill="none" stroke="black" points="3182,-82.5 3182,-118.5 3503,-118.5 3503,-82.5 3182,-82.5"/>
<text text-anchor="middle" x="3208" y="-96.8" font-family="Times,serif" font-size="14.00">v054</text>
<polyline fill="none" stroke="black" points="3234,-82.5 3234,-118.5 "/>
<text text-anchor="middle" x="3244.5" y="-96.8" font-family="Times,serif" font-size="14.00"> </text>
<polyline fill="none" stroke="black" points="3255,-82.5 3255,-118.5 "/>
<text text-anchor="middle" x="3265.5" y="-96.8" font-family="Times,serif" font-size="14.00"> </text>
<polyline fill="none" stroke="black" points="3276,-82.5 3276,-118.5 "/>
<text text-anchor="middle" x="3286.5" y="-96.8" font-family="Times,serif" font-size="14.00">l</text>
<polyline fill="none" stroke="black" points="3297,-82.5 3297,-118.5 "/>
<text text-anchor="middle" x="3348" y="-96.8" font-family="Times,serif" font-size="14.00">data 1.9234</text>
<polyline fill="none" stroke="black" points="3399,-82.5 3399,-118.5 "/>
<text text-anchor="middle" x="3451" y="-96.8" font-family="Times,serif" font-size="14.00">grad 0.0000</text>
</g>
<!-- 140260402426784*&#45;&gt;140260402426784 -->
<g id="edge9" class="edge">
<title>140260402426784*&#45;&gt;140260402426784</title>
<path fill="none" stroke="black" d="M3146.28,-100.5C3153.68,-100.5 3162.32,-100.5 3171.76,-100.5"/>
<polygon fill="black" stroke="black" points="3171.88,-104 3181.88,-100.5 3171.88,-97 3171.88,-104"/>
</g>
<!-- 140260402422704 -->
<g id="node24" class="node">
<title>140260402422704</title>
<polygon fill="none" stroke="black" points="497.5,-110.5 497.5,-146.5 854.5,-146.5 854.5,-110.5 497.5,-110.5"/>
<text text-anchor="middle" x="523.5" y="-124.8" font-family="Times,serif" font-size="14.00">v004</text>
<polyline fill="none" stroke="black" points="549.5,-110.5 549.5,-146.5 "/>
<text text-anchor="middle" x="567" y="-124.8" font-family="Times,serif" font-size="14.00">L1</text>
<polyline fill="none" stroke="black" points="584.5,-110.5 584.5,-146.5 "/>
<text text-anchor="middle" x="603.5" y="-124.8" font-family="Times,serif" font-size="14.00">N2</text>
<polyline fill="none" stroke="black" points="622.5,-110.5 622.5,-146.5 "/>
<text text-anchor="middle" x="635.5" y="-124.8" font-family="Times,serif" font-size="14.00">b</text>
<polyline fill="none" stroke="black" points="648.5,-110.5 648.5,-146.5 "/>
<text text-anchor="middle" x="699.5" y="-124.8" font-family="Times,serif" font-size="14.00">data 0.0585</text>
<polyline fill="none" stroke="black" points="750.5,-110.5 750.5,-146.5 "/>
<text text-anchor="middle" x="802.5" y="-124.8" font-family="Times,serif" font-size="14.00">grad 0.0000</text>
</g>
<!-- 140260402422704&#45;&gt;140260402428560+ -->
<g id="edge11" class="edge">
<title>140260402422704&#45;&gt;140260402428560+</title>
<path fill="none" stroke="black" d="M854.78,-128.5C864.82,-128.5 874.18,-128.5 882.49,-128.5"/>
<polygon fill="black" stroke="black" points="882.76,-132 892.76,-128.5 882.76,-125 882.76,-132"/>
</g>
<!-- 140260402419680 -->
<g id="node25" class="node">
<title>140260402419680</title>
<polygon fill="none" stroke="black" points="985.5,-0.5 985.5,-36.5 1354.5,-36.5 1354.5,-0.5 985.5,-0.5"/>
<text text-anchor="middle" x="1011.5" y="-14.8" font-family="Times,serif" font-size="14.00">v005</text>
<polyline fill="none" stroke="black" points="1037.5,-0.5 1037.5,-36.5 "/>
<text text-anchor="middle" x="1055" y="-14.8" font-family="Times,serif" font-size="14.00">L2</text>
<polyline fill="none" stroke="black" points="1072.5,-0.5 1072.5,-36.5 "/>
<text text-anchor="middle" x="1091.5" y="-14.8" font-family="Times,serif" font-size="14.00">N1</text>
<polyline fill="none" stroke="black" points="1110.5,-0.5 1110.5,-36.5 "/>
<text text-anchor="middle" x="1129.5" y="-14.8" font-family="Times,serif" font-size="14.00">w1</text>
<polyline fill="none" stroke="black" points="1148.5,-0.5 1148.5,-36.5 "/>
<text text-anchor="middle" x="1199.5" y="-14.8" font-family="Times,serif" font-size="14.00">data 0.0699</text>
<polyline fill="none" stroke="black" points="1250.5,-0.5 1250.5,-36.5 "/>
<text text-anchor="middle" x="1302.5" y="-14.8" font-family="Times,serif" font-size="14.00">grad 0.0000</text>
</g>
<!-- 140260402419680&#45;&gt;140260402426688* -->
<g id="edge21" class="edge">
<title>140260402419680&#45;&gt;140260402426688*</title>
<path fill="none" stroke="black" d="M1315.99,-36.54C1329.96,-39.41 1343.82,-42.71 1357,-46.5 1367.69,-49.57 1378.96,-54.07 1388.91,-58.51"/>
<polygon fill="black" stroke="black" points="1387.44,-61.69 1397.99,-62.71 1390.38,-55.34 1387.44,-61.69"/>
</g>
<!-- 140260953974256 -->
<g id="node26" class="node">
<title>140260953974256</title>
<polygon fill="none" stroke="black" points="19.5,-110.5 19.5,-146.5 349.5,-146.5 349.5,-110.5 19.5,-110.5"/>
<text text-anchor="middle" x="45.5" y="-124.8" font-family="Times,serif" font-size="14.00">v008</text>
<polyline fill="none" stroke="black" points="71.5,-110.5 71.5,-146.5 "/>
<text text-anchor="middle" x="82" y="-124.8" font-family="Times,serif" font-size="14.00"> </text>
<polyline fill="none" stroke="black" points="92.5,-110.5 92.5,-146.5 "/>
<text text-anchor="middle" x="103" y="-124.8" font-family="Times,serif" font-size="14.00"> </text>
<polyline fill="none" stroke="black" points="113.5,-110.5 113.5,-146.5 "/>
<text text-anchor="middle" x="128.5" y="-124.8" font-family="Times,serif" font-size="14.00">i1</text>
<polyline fill="none" stroke="black" points="143.5,-110.5 143.5,-146.5 "/>
<text text-anchor="middle" x="194.5" y="-124.8" font-family="Times,serif" font-size="14.00">data 4.0000</text>
<polyline fill="none" stroke="black" points="245.5,-110.5 245.5,-146.5 "/>
<text text-anchor="middle" x="297.5" y="-124.8" font-family="Times,serif" font-size="14.00">grad 0.0000</text>
</g>
<!-- 140260953974256&#45;&gt;140260402421264* -->
<g id="edge23" class="edge">
<title>140260953974256&#45;&gt;140260402421264*</title>
<path fill="none" stroke="black" d="M333.02,-110.49C345.28,-107.88 357.41,-104.9 369,-101.5 379.82,-98.33 391.2,-93.63 401.21,-88.98"/>
<polygon fill="black" stroke="black" points="402.83,-92.08 410.32,-84.59 399.79,-85.77 402.83,-92.08"/>
</g>
<!-- 140260953974256&#45;&gt;140260402425152* -->
<g id="edge12" class="edge">
<title>140260953974256&#45;&gt;140260402425152*</title>
<path fill="none" stroke="black" d="M328.05,-146.51C341.99,-149.39 355.84,-152.7 369,-156.5 379.68,-159.58 390.95,-164.08 400.91,-168.53"/>
<polygon fill="black" stroke="black" points="399.44,-171.71 409.99,-172.72 402.38,-165.35 399.44,-171.71"/>
</g>
</g>
</svg>
