<?xml version="1.0" encoding="UTF-8" standalone="no"?>
<!DOCTYPE svg PUBLIC "-//W3C//DTD SVG 1.1//EN"
 "http://www.w3.org/Graphics/SVG/1.1/DTD/svg11.dtd">
<!-- Generated by graphviz version 2.43.0 (0)
 -->
<!-- Title: %3 Pages: 1 -->
<svg width="3068pt" height="240pt"
 viewBox="0.00 0.00 3068.00 240.00" xmlns="http://www.w3.org/2000/svg" xmlns:xlink="http://www.w3.org/1999/xlink">
<g id="graph0" class="graph" transform="scale(1 1) rotate(0) translate(4 236)">
<title>%3</title>
<polygon fill="white" stroke="transparent" points="-4,4 -4,-236 3064,-236 3064,4 -4,4"/>
<!-- 139883124753408 -->
<g id="node1" class="node">
<title>139883124753408</title>
<polygon fill="none" stroke="black" points="2699,-75.5 2699,-111.5 3060,-111.5 3060,-75.5 2699,-75.5"/>
<text text-anchor="middle" x="2725" y="-89.8" font-family="Times,serif" font-size="14.00">v092</text>
<polyline fill="none" stroke="black" points="2751,-75.5 2751,-111.5 "/>
<text text-anchor="middle" x="2768.5" y="-89.8" font-family="Times,serif" font-size="14.00">L2</text>
<polyline fill="none" stroke="black" points="2786,-75.5 2786,-111.5 "/>
<text text-anchor="middle" x="2805" y="-89.8" font-family="Times,serif" font-size="14.00">N1</text>
<polyline fill="none" stroke="black" points="2824,-75.5 2824,-111.5 "/>
<text text-anchor="middle" x="2836.5" y="-89.8" font-family="Times,serif" font-size="14.00">a</text>
<polyline fill="none" stroke="black" points="2849,-75.5 2849,-111.5 "/>
<text text-anchor="middle" x="2902.5" y="-89.8" font-family="Times,serif" font-size="14.00">data &#45;3.3606</text>
<polyline fill="none" stroke="black" points="2956,-75.5 2956,-111.5 "/>
<text text-anchor="middle" x="3008" y="-89.8" font-family="Times,serif" font-size="14.00">grad 0.0000</text>
</g>
<!-- 139883124753408+ -->
<g id="node2" class="node">
<title>139883124753408+</title>
<ellipse fill="none" stroke="black" cx="2636" cy="-93.5" rx="27" ry="18"/>
<text text-anchor="middle" x="2636" y="-89.8" font-family="Times,serif" font-size="14.00">+</text>
</g>
<!-- 139883124753408+&#45;&gt;139883124753408 -->
<g id="edge1" class="edge">
<title>139883124753408+&#45;&gt;139883124753408</title>
<path fill="none" stroke="black" d="M2663.3,-93.5C2670.65,-93.5 2679.24,-93.5 2688.68,-93.5"/>
<polygon fill="black" stroke="black" points="2688.81,-97 2698.81,-93.5 2688.81,-90 2688.81,-97"/>
</g>
<!-- 139883124754464 -->
<g id="node3" class="node">
<title>139883124754464</title>
<polygon fill="none" stroke="black" points="1507.5,-154.5 1507.5,-190.5 1828.5,-190.5 1828.5,-154.5 1507.5,-154.5"/>
<text text-anchor="middle" x="1533.5" y="-168.8" font-family="Times,serif" font-size="14.00">v089</text>
<polyline fill="none" stroke="black" points="1559.5,-154.5 1559.5,-190.5 "/>
<text text-anchor="middle" x="1570" y="-168.8" font-family="Times,serif" font-size="14.00"> </text>
<polyline fill="none" stroke="black" points="1580.5,-154.5 1580.5,-190.5 "/>
<text text-anchor="middle" x="1591" y="-168.8" font-family="Times,serif" font-size="14.00"> </text>
<polyline fill="none" stroke="black" points="1601.5,-154.5 1601.5,-190.5 "/>
<text text-anchor="middle" x="1612" y="-168.8" font-family="Times,serif" font-size="14.00"> </text>
<polyline fill="none" stroke="black" points="1622.5,-154.5 1622.5,-190.5 "/>
<text text-anchor="middle" x="1673.5" y="-168.8" font-family="Times,serif" font-size="14.00">data 0.0319</text>
<polyline fill="none" stroke="black" points="1724.5,-154.5 1724.5,-190.5 "/>
<text text-anchor="middle" x="1776.5" y="-168.8" font-family="Times,serif" font-size="14.00">grad 0.0000</text>
</g>
<!-- 139883124754080+ -->
<g id="node12" class="node">
<title>139883124754080+</title>
<ellipse fill="none" stroke="black" cx="2048" cy="-121.5" rx="27" ry="18"/>
<text text-anchor="middle" x="2048" y="-117.8" font-family="Times,serif" font-size="14.00">+</text>
</g>
<!-- 139883124754464&#45;&gt;139883124754080+ -->
<g id="edge18" class="edge">
<title>139883124754464&#45;&gt;139883124754080+</title>
<path fill="none" stroke="black" d="M1802.53,-154.48C1876.81,-144.46 1963.61,-132.75 2011.22,-126.33"/>
<polygon fill="black" stroke="black" points="2011.89,-129.77 2021.33,-124.96 2010.95,-122.83 2011.89,-129.77"/>
</g>
<!-- 139883124754464* -->
<g id="node4" class="node">
<title>139883124754464*</title>
<ellipse fill="none" stroke="black" cx="1424" cy="-172.5" rx="27" ry="18"/>
<text text-anchor="middle" x="1424" y="-168.8" font-family="Times,serif" font-size="14.00">*</text>
</g>
<!-- 139883124754464*&#45;&gt;139883124754464 -->
<g id="edge2" class="edge">
<title>139883124754464*&#45;&gt;139883124754464</title>
<path fill="none" stroke="black" d="M1451.36,-172.5C1463.7,-172.5 1479.53,-172.5 1497,-172.5"/>
<polygon fill="black" stroke="black" points="1497.46,-176 1507.46,-172.5 1497.46,-169 1497.46,-176"/>
</g>
<!-- 139883734297632 -->
<g id="node5" class="node">
<title>139883734297632</title>
<polygon fill="none" stroke="black" points="500,-188.5 500,-224.5 862,-224.5 862,-188.5 500,-188.5"/>
<text text-anchor="middle" x="526" y="-202.8" font-family="Times,serif" font-size="14.00">v002</text>
<polyline fill="none" stroke="black" points="552,-188.5 552,-224.5 "/>
<text text-anchor="middle" x="569.5" y="-202.8" font-family="Times,serif" font-size="14.00">L1</text>
<polyline fill="none" stroke="black" points="587,-188.5 587,-224.5 "/>
<text text-anchor="middle" x="606" y="-202.8" font-family="Times,serif" font-size="14.00">N1</text>
<polyline fill="none" stroke="black" points="625,-188.5 625,-224.5 "/>
<text text-anchor="middle" x="638" y="-202.8" font-family="Times,serif" font-size="14.00">b</text>
<polyline fill="none" stroke="black" points="651,-188.5 651,-224.5 "/>
<text text-anchor="middle" x="704.5" y="-202.8" font-family="Times,serif" font-size="14.00">data &#45;0.1117</text>
<polyline fill="none" stroke="black" points="758,-188.5 758,-224.5 "/>
<text text-anchor="middle" x="810" y="-202.8" font-family="Times,serif" font-size="14.00">grad 0.3371</text>
</g>
<!-- 139883124752640+ -->
<g id="node14" class="node">
<title>139883124752640+</title>
<ellipse fill="none" stroke="black" cx="925" cy="-158.5" rx="27" ry="18"/>
<text text-anchor="middle" x="925" y="-154.8" font-family="Times,serif" font-size="14.00">+</text>
</g>
<!-- 139883734297632&#45;&gt;139883124752640+ -->
<g id="edge24" class="edge">
<title>139883734297632&#45;&gt;139883124752640+</title>
<path fill="none" stroke="black" d="M813.71,-188.47C830.05,-185.51 846.46,-182.19 862,-178.5 871.62,-176.22 881.89,-173.16 891.26,-170.13"/>
<polygon fill="black" stroke="black" points="892.61,-173.37 900.99,-166.88 890.39,-166.73 892.61,-173.37"/>
</g>
<!-- 139883124658752 -->
<g id="node6" class="node">
<title>139883124658752</title>
<polygon fill="none" stroke="black" points="990,-195.5 990,-231.5 1359,-231.5 1359,-195.5 990,-195.5"/>
<text text-anchor="middle" x="1016" y="-209.8" font-family="Times,serif" font-size="14.00">v005</text>
<polyline fill="none" stroke="black" points="1042,-195.5 1042,-231.5 "/>
<text text-anchor="middle" x="1059.5" y="-209.8" font-family="Times,serif" font-size="14.00">L2</text>
<polyline fill="none" stroke="black" points="1077,-195.5 1077,-231.5 "/>
<text text-anchor="middle" x="1096" y="-209.8" font-family="Times,serif" font-size="14.00">N1</text>
<polyline fill="none" stroke="black" points="1115,-195.5 1115,-231.5 "/>
<text text-anchor="middle" x="1134" y="-209.8" font-family="Times,serif" font-size="14.00">w1</text>
<polyline fill="none" stroke="black" points="1153,-195.5 1153,-231.5 "/>
<text text-anchor="middle" x="1204" y="-209.8" font-family="Times,serif" font-size="14.00">data 0.3177</text>
<polyline fill="none" stroke="black" points="1255,-195.5 1255,-231.5 "/>
<text text-anchor="middle" x="1307" y="-209.8" font-family="Times,serif" font-size="14.00">grad 0.3869</text>
</g>
<!-- 139883124658752&#45;&gt;139883124754464* -->
<g id="edge14" class="edge">
<title>139883124658752&#45;&gt;139883124754464*</title>
<path fill="none" stroke="black" d="M1301.39,-195.49C1321.36,-192.34 1341.77,-188.96 1361,-185.5 1369.79,-183.92 1379.24,-182.03 1388.06,-180.19"/>
<polygon fill="black" stroke="black" points="1388.97,-183.57 1398.02,-178.07 1387.52,-176.73 1388.97,-183.57"/>
</g>
<!-- 139883124755520 -->
<g id="node7" class="node">
<title>139883124755520</title>
<polygon fill="none" stroke="black" points="518,-78.5 518,-114.5 844,-114.5 844,-78.5 518,-78.5"/>
<text text-anchor="middle" x="544" y="-92.8" font-family="Times,serif" font-size="14.00">v087</text>
<polyline fill="none" stroke="black" points="570,-78.5 570,-114.5 "/>
<text text-anchor="middle" x="580.5" y="-92.8" font-family="Times,serif" font-size="14.00"> </text>
<polyline fill="none" stroke="black" points="591,-78.5 591,-114.5 "/>
<text text-anchor="middle" x="601.5" y="-92.8" font-family="Times,serif" font-size="14.00"> </text>
<polyline fill="none" stroke="black" points="612,-78.5 612,-114.5 "/>
<text text-anchor="middle" x="622.5" y="-92.8" font-family="Times,serif" font-size="14.00"> </text>
<polyline fill="none" stroke="black" points="633,-78.5 633,-114.5 "/>
<text text-anchor="middle" x="686.5" y="-92.8" font-family="Times,serif" font-size="14.00">data &#45;2.3927</text>
<polyline fill="none" stroke="black" points="740,-78.5 740,-114.5 "/>
<text text-anchor="middle" x="792" y="-92.8" font-family="Times,serif" font-size="14.00">grad 0.0000</text>
</g>
<!-- 139883124754224+ -->
<g id="node18" class="node">
<title>139883124754224+</title>
<ellipse fill="none" stroke="black" cx="925" cy="-73.5" rx="27" ry="18"/>
<text text-anchor="middle" x="925" y="-69.8" font-family="Times,serif" font-size="14.00">+</text>
</g>
<!-- 139883124755520&#45;&gt;139883124754224+ -->
<g id="edge11" class="edge">
<title>139883124755520&#45;&gt;139883124754224+</title>
<path fill="none" stroke="black" d="M844.09,-81.09C860.37,-79.55 875.52,-78.11 888.16,-76.91"/>
<polygon fill="black" stroke="black" points="888.53,-80.39 898.15,-75.96 887.87,-73.42 888.53,-80.39"/>
</g>
<!-- 139883124755520* -->
<g id="node8" class="node">
<title>139883124755520*</title>
<ellipse fill="none" stroke="black" cx="437" cy="-96.5" rx="27" ry="18"/>
<text text-anchor="middle" x="437" y="-92.8" font-family="Times,serif" font-size="14.00">*</text>
</g>
<!-- 139883124755520*&#45;&gt;139883124755520 -->
<g id="edge3" class="edge">
<title>139883124755520*&#45;&gt;139883124755520</title>
<path fill="none" stroke="black" d="M464.36,-96.5C476.08,-96.5 490.94,-96.5 507.37,-96.5"/>
<polygon fill="black" stroke="black" points="507.79,-100 517.79,-96.5 507.79,-93 507.79,-100"/>
</g>
<!-- 139883124753024 -->
<g id="node9" class="node">
<title>139883124753024</title>
<polygon fill="none" stroke="black" points="520.5,-133.5 520.5,-169.5 841.5,-169.5 841.5,-133.5 520.5,-133.5"/>
<text text-anchor="middle" x="546.5" y="-147.8" font-family="Times,serif" font-size="14.00">v085</text>
<polyline fill="none" stroke="black" points="572.5,-133.5 572.5,-169.5 "/>
<text text-anchor="middle" x="583" y="-147.8" font-family="Times,serif" font-size="14.00"> </text>
<polyline fill="none" stroke="black" points="593.5,-133.5 593.5,-169.5 "/>
<text text-anchor="middle" x="604" y="-147.8" font-family="Times,serif" font-size="14.00"> </text>
<polyline fill="none" stroke="black" points="614.5,-133.5 614.5,-169.5 "/>
<text text-anchor="middle" x="625" y="-147.8" font-family="Times,serif" font-size="14.00"> </text>
<polyline fill="none" stroke="black" points="635.5,-133.5 635.5,-169.5 "/>
<text text-anchor="middle" x="686.5" y="-147.8" font-family="Times,serif" font-size="14.00">data 0.2121</text>
<polyline fill="none" stroke="black" points="737.5,-133.5 737.5,-169.5 "/>
<text text-anchor="middle" x="789.5" y="-147.8" font-family="Times,serif" font-size="14.00">grad 0.0000</text>
</g>
<!-- 139883124753024&#45;&gt;139883124752640+ -->
<g id="edge22" class="edge">
<title>139883124753024&#45;&gt;139883124752640+</title>
<path fill="none" stroke="black" d="M841.73,-156.12C858.54,-156.61 874.24,-157.06 887.32,-157.44"/>
<polygon fill="black" stroke="black" points="887.57,-160.95 897.66,-157.74 887.77,-153.95 887.57,-160.95"/>
</g>
<!-- 139883124753024* -->
<g id="node10" class="node">
<title>139883124753024*</title>
<ellipse fill="none" stroke="black" cx="437" cy="-151.5" rx="27" ry="18"/>
<text text-anchor="middle" x="437" y="-147.8" font-family="Times,serif" font-size="14.00">*</text>
</g>
<!-- 139883124753024*&#45;&gt;139883124753024 -->
<g id="edge4" class="edge">
<title>139883124753024*&#45;&gt;139883124753024</title>
<path fill="none" stroke="black" d="M464.36,-151.5C476.7,-151.5 492.53,-151.5 510,-151.5"/>
<polygon fill="black" stroke="black" points="510.46,-155 520.46,-151.5 510.46,-148 510.46,-155"/>
</g>
<!-- 139883124754080 -->
<g id="node11" class="node">
<title>139883124754080</title>
<polygon fill="none" stroke="black" points="2247,-101.5 2247,-137.5 2573,-137.5 2573,-101.5 2247,-101.5"/>
<text text-anchor="middle" x="2273" y="-115.8" font-family="Times,serif" font-size="14.00">v090</text>
<polyline fill="none" stroke="black" points="2299,-101.5 2299,-137.5 "/>
<text text-anchor="middle" x="2309.5" y="-115.8" font-family="Times,serif" font-size="14.00"> </text>
<polyline fill="none" stroke="black" points="2320,-101.5 2320,-137.5 "/>
<text text-anchor="middle" x="2330.5" y="-115.8" font-family="Times,serif" font-size="14.00"> </text>
<polyline fill="none" stroke="black" points="2341,-101.5 2341,-137.5 "/>
<text text-anchor="middle" x="2351.5" y="-115.8" font-family="Times,serif" font-size="14.00"> </text>
<polyline fill="none" stroke="black" points="2362,-101.5 2362,-137.5 "/>
<text text-anchor="middle" x="2415.5" y="-115.8" font-family="Times,serif" font-size="14.00">data &#45;0.2181</text>
<polyline fill="none" stroke="black" points="2469,-101.5 2469,-137.5 "/>
<text text-anchor="middle" x="2521" y="-115.8" font-family="Times,serif" font-size="14.00">grad 0.0000</text>
</g>
<!-- 139883124754080&#45;&gt;139883124753408+ -->
<g id="edge12" class="edge">
<title>139883124754080&#45;&gt;139883124753408+</title>
<path fill="none" stroke="black" d="M2566.27,-101.48C2578.27,-100.09 2589.48,-98.78 2599.23,-97.65"/>
<polygon fill="black" stroke="black" points="2599.67,-101.12 2609.2,-96.49 2598.86,-94.17 2599.67,-101.12"/>
</g>
<!-- 139883124754080+&#45;&gt;139883124754080 -->
<g id="edge5" class="edge">
<title>139883124754080+&#45;&gt;139883124754080</title>
<path fill="none" stroke="black" d="M2075.18,-121.35C2109.81,-121.16 2173.83,-120.81 2236.62,-120.46"/>
<polygon fill="black" stroke="black" points="2236.7,-123.96 2246.68,-120.4 2236.66,-116.96 2236.7,-123.96"/>
</g>
<!-- 139883124752640 -->
<g id="node13" class="node">
<title>139883124752640</title>
<polygon fill="none" stroke="black" points="996.5,-140.5 996.5,-176.5 1352.5,-176.5 1352.5,-140.5 996.5,-140.5"/>
<text text-anchor="middle" x="1022.5" y="-154.8" font-family="Times,serif" font-size="14.00">v086</text>
<polyline fill="none" stroke="black" points="1048.5,-140.5 1048.5,-176.5 "/>
<text text-anchor="middle" x="1066" y="-154.8" font-family="Times,serif" font-size="14.00">L1</text>
<polyline fill="none" stroke="black" points="1083.5,-140.5 1083.5,-176.5 "/>
<text text-anchor="middle" x="1102.5" y="-154.8" font-family="Times,serif" font-size="14.00">N1</text>
<polyline fill="none" stroke="black" points="1121.5,-140.5 1121.5,-176.5 "/>
<text text-anchor="middle" x="1134" y="-154.8" font-family="Times,serif" font-size="14.00">a</text>
<polyline fill="none" stroke="black" points="1146.5,-140.5 1146.5,-176.5 "/>
<text text-anchor="middle" x="1197.5" y="-154.8" font-family="Times,serif" font-size="14.00">data 0.1004</text>
<polyline fill="none" stroke="black" points="1248.5,-140.5 1248.5,-176.5 "/>
<text text-anchor="middle" x="1300.5" y="-154.8" font-family="Times,serif" font-size="14.00">grad 0.0000</text>
</g>
<!-- 139883124752640&#45;&gt;139883124754464* -->
<g id="edge19" class="edge">
<title>139883124752640&#45;&gt;139883124754464*</title>
<path fill="none" stroke="black" d="M1352.74,-168.53C1365.14,-169.23 1376.66,-169.88 1386.63,-170.44"/>
<polygon fill="black" stroke="black" points="1386.63,-173.95 1396.81,-171.02 1387.03,-166.96 1386.63,-173.95"/>
</g>
<!-- 139883124752640+&#45;&gt;139883124752640 -->
<g id="edge6" class="edge">
<title>139883124752640+&#45;&gt;139883124752640</title>
<path fill="none" stroke="black" d="M952.02,-158.5C961.56,-158.5 973.24,-158.5 986.18,-158.5"/>
<polygon fill="black" stroke="black" points="986.32,-162 996.32,-158.5 986.32,-155 986.32,-162"/>
</g>
<!-- 139883124664080 -->
<g id="node15" class="node">
<title>139883124664080</title>
<polygon fill="none" stroke="black" points="1487,-99.5 1487,-135.5 1849,-135.5 1849,-99.5 1487,-99.5"/>
<text text-anchor="middle" x="1513" y="-113.8" font-family="Times,serif" font-size="14.00">v007</text>
<polyline fill="none" stroke="black" points="1539,-99.5 1539,-135.5 "/>
<text text-anchor="middle" x="1556.5" y="-113.8" font-family="Times,serif" font-size="14.00">L2</text>
<polyline fill="none" stroke="black" points="1574,-99.5 1574,-135.5 "/>
<text text-anchor="middle" x="1593" y="-113.8" font-family="Times,serif" font-size="14.00">N1</text>
<polyline fill="none" stroke="black" points="1612,-99.5 1612,-135.5 "/>
<text text-anchor="middle" x="1625" y="-113.8" font-family="Times,serif" font-size="14.00">b</text>
<polyline fill="none" stroke="black" points="1638,-99.5 1638,-135.5 "/>
<text text-anchor="middle" x="1691.5" y="-113.8" font-family="Times,serif" font-size="14.00">data &#45;0.2500</text>
<polyline fill="none" stroke="black" points="1745,-99.5 1745,-135.5 "/>
<text text-anchor="middle" x="1797" y="-113.8" font-family="Times,serif" font-size="14.00">grad 1.0000</text>
</g>
<!-- 139883124664080&#45;&gt;139883124754080+ -->
<g id="edge20" class="edge">
<title>139883124664080&#45;&gt;139883124754080+</title>
<path fill="none" stroke="black" d="M1849.14,-119.41C1910.32,-120.05 1972.75,-120.71 2010.69,-121.12"/>
<polygon fill="black" stroke="black" points="2010.68,-124.62 2020.72,-121.22 2010.76,-117.62 2010.68,-124.62"/>
</g>
<!-- 139883734292256 -->
<g id="node16" class="node">
<title>139883734292256</title>
<polygon fill="none" stroke="black" points="2.5,-161.5 2.5,-197.5 371.5,-197.5 371.5,-161.5 2.5,-161.5"/>
<text text-anchor="middle" x="28.5" y="-175.8" font-family="Times,serif" font-size="14.00">v001</text>
<polyline fill="none" stroke="black" points="54.5,-161.5 54.5,-197.5 "/>
<text text-anchor="middle" x="72" y="-175.8" font-family="Times,serif" font-size="14.00">L1</text>
<polyline fill="none" stroke="black" points="89.5,-161.5 89.5,-197.5 "/>
<text text-anchor="middle" x="108.5" y="-175.8" font-family="Times,serif" font-size="14.00">N1</text>
<polyline fill="none" stroke="black" points="127.5,-161.5 127.5,-197.5 "/>
<text text-anchor="middle" x="146.5" y="-175.8" font-family="Times,serif" font-size="14.00">w1</text>
<polyline fill="none" stroke="black" points="165.5,-161.5 165.5,-197.5 "/>
<text text-anchor="middle" x="216.5" y="-175.8" font-family="Times,serif" font-size="14.00">data 0.0530</text>
<polyline fill="none" stroke="black" points="267.5,-161.5 267.5,-197.5 "/>
<text text-anchor="middle" x="319.5" y="-175.8" font-family="Times,serif" font-size="14.00">grad 1.3483</text>
</g>
<!-- 139883734292256&#45;&gt;139883124753024* -->
<g id="edge16" class="edge">
<title>139883734292256&#45;&gt;139883124753024*</title>
<path fill="none" stroke="black" d="M347.52,-161.49C367.04,-159.29 385.28,-157.23 400.06,-155.56"/>
<polygon fill="black" stroke="black" points="400.64,-159.01 410.19,-154.41 399.86,-152.06 400.64,-159.01"/>
</g>
<!-- 139883124754224 -->
<g id="node17" class="node">
<title>139883124754224</title>
<polygon fill="none" stroke="black" points="994,-55.5 994,-91.5 1355,-91.5 1355,-55.5 994,-55.5"/>
<text text-anchor="middle" x="1020" y="-69.8" font-family="Times,serif" font-size="14.00">v088</text>
<polyline fill="none" stroke="black" points="1046,-55.5 1046,-91.5 "/>
<text text-anchor="middle" x="1063.5" y="-69.8" font-family="Times,serif" font-size="14.00">L1</text>
<polyline fill="none" stroke="black" points="1081,-55.5 1081,-91.5 "/>
<text text-anchor="middle" x="1100" y="-69.8" font-family="Times,serif" font-size="14.00">N2</text>
<polyline fill="none" stroke="black" points="1119,-55.5 1119,-91.5 "/>
<text text-anchor="middle" x="1131.5" y="-69.8" font-family="Times,serif" font-size="14.00">a</text>
<polyline fill="none" stroke="black" points="1144,-55.5 1144,-91.5 "/>
<text text-anchor="middle" x="1197.5" y="-69.8" font-family="Times,serif" font-size="14.00">data &#45;2.6673</text>
<polyline fill="none" stroke="black" points="1251,-55.5 1251,-91.5 "/>
<text text-anchor="middle" x="1303" y="-69.8" font-family="Times,serif" font-size="14.00">grad 0.0000</text>
</g>
<!-- 139883124753216* -->
<g id="node20" class="node">
<title>139883124753216*</title>
<ellipse fill="none" stroke="black" cx="1424" cy="-66.5" rx="27" ry="18"/>
<text text-anchor="middle" x="1424" y="-62.8" font-family="Times,serif" font-size="14.00">*</text>
</g>
<!-- 139883124754224&#45;&gt;139883124753216* -->
<g id="edge17" class="edge">
<title>139883124754224&#45;&gt;139883124753216*</title>
<path fill="none" stroke="black" d="M1355.04,-68.42C1366.51,-68.1 1377.18,-67.8 1386.5,-67.53"/>
<polygon fill="black" stroke="black" points="1386.89,-71.02 1396.79,-67.24 1386.69,-64.03 1386.89,-71.02"/>
</g>
<!-- 139883124754224+&#45;&gt;139883124754224 -->
<g id="edge7" class="edge">
<title>139883124754224+&#45;&gt;139883124754224</title>
<path fill="none" stroke="black" d="M952.02,-73.5C960.94,-73.5 971.72,-73.5 983.66,-73.5"/>
<polygon fill="black" stroke="black" points="983.95,-77 993.95,-73.5 983.95,-70 983.95,-77"/>
</g>
<!-- 139883124753216 -->
<g id="node19" class="node">
<title>139883124753216</title>
<polygon fill="none" stroke="black" points="1885,-48.5 1885,-84.5 2211,-84.5 2211,-48.5 1885,-48.5"/>
<text text-anchor="middle" x="1911" y="-62.8" font-family="Times,serif" font-size="14.00">v091</text>
<polyline fill="none" stroke="black" points="1937,-48.5 1937,-84.5 "/>
<text text-anchor="middle" x="1947.5" y="-62.8" font-family="Times,serif" font-size="14.00"> </text>
<polyline fill="none" stroke="black" points="1958,-48.5 1958,-84.5 "/>
<text text-anchor="middle" x="1968.5" y="-62.8" font-family="Times,serif" font-size="14.00"> </text>
<polyline fill="none" stroke="black" points="1979,-48.5 1979,-84.5 "/>
<text text-anchor="middle" x="1989.5" y="-62.8" font-family="Times,serif" font-size="14.00"> </text>
<polyline fill="none" stroke="black" points="2000,-48.5 2000,-84.5 "/>
<text text-anchor="middle" x="2053.5" y="-62.8" font-family="Times,serif" font-size="14.00">data &#45;3.1425</text>
<polyline fill="none" stroke="black" points="2107,-48.5 2107,-84.5 "/>
<text text-anchor="middle" x="2159" y="-62.8" font-family="Times,serif" font-size="14.00">grad 0.0000</text>
</g>
<!-- 139883124753216&#45;&gt;139883124753408+ -->
<g id="edge9" class="edge">
<title>139883124753216&#45;&gt;139883124753408+</title>
<path fill="none" stroke="black" d="M2211.07,-73.97C2344.09,-80.1 2522.44,-88.31 2598.34,-91.81"/>
<polygon fill="black" stroke="black" points="2598.62,-95.33 2608.77,-92.29 2598.95,-88.33 2598.62,-95.33"/>
</g>
<!-- 139883124753216*&#45;&gt;139883124753216 -->
<g id="edge8" class="edge">
<title>139883124753216*&#45;&gt;139883124753216</title>
<path fill="none" stroke="black" d="M1451.33,-66.5C1522.87,-66.5 1725.46,-66.5 1874.6,-66.5"/>
<polygon fill="black" stroke="black" points="1874.79,-70 1884.79,-66.5 1874.79,-63 1874.79,-70"/>
</g>
<!-- 139883735116112 -->
<g id="node21" class="node">
<title>139883735116112</title>
<polygon fill="none" stroke="black" points="20,-106.5 20,-142.5 354,-142.5 354,-106.5 20,-106.5"/>
<text text-anchor="middle" x="46" y="-120.8" font-family="Times,serif" font-size="14.00">v008</text>
<polyline fill="none" stroke="black" points="72,-106.5 72,-142.5 "/>
<text text-anchor="middle" x="82.5" y="-120.8" font-family="Times,serif" font-size="14.00"> </text>
<polyline fill="none" stroke="black" points="93,-106.5 93,-142.5 "/>
<text text-anchor="middle" x="103.5" y="-120.8" font-family="Times,serif" font-size="14.00"> </text>
<polyline fill="none" stroke="black" points="114,-106.5 114,-142.5 "/>
<text text-anchor="middle" x="129" y="-120.8" font-family="Times,serif" font-size="14.00">i1</text>
<polyline fill="none" stroke="black" points="144,-106.5 144,-142.5 "/>
<text text-anchor="middle" x="195" y="-120.8" font-family="Times,serif" font-size="14.00">data 4.0000</text>
<polyline fill="none" stroke="black" points="246,-106.5 246,-142.5 "/>
<text text-anchor="middle" x="300" y="-120.8" font-family="Times,serif" font-size="14.00">grad &#45;0.3740</text>
</g>
<!-- 139883735116112&#45;&gt;139883124755520* -->
<g id="edge13" class="edge">
<title>139883735116112&#45;&gt;139883124755520*</title>
<path fill="none" stroke="black" d="M347.52,-106.49C367.04,-104.29 385.28,-102.23 400.06,-100.56"/>
<polygon fill="black" stroke="black" points="400.64,-104.01 410.19,-99.41 399.86,-97.06 400.64,-104.01"/>
</g>
<!-- 139883735116112&#45;&gt;139883124753024* -->
<g id="edge23" class="edge">
<title>139883735116112&#45;&gt;139883124753024*</title>
<path fill="none" stroke="black" d="M353.42,-142.51C370.67,-144.39 386.71,-146.13 399.97,-147.58"/>
<polygon fill="black" stroke="black" points="399.67,-151.07 409.99,-148.67 400.43,-144.11 399.67,-151.07"/>
</g>
<!-- 139883124658992 -->
<g id="node22" class="node">
<title>139883124658992</title>
<polygon fill="none" stroke="black" points="500,-23.5 500,-59.5 862,-59.5 862,-23.5 500,-23.5"/>
<text text-anchor="middle" x="526" y="-37.8" font-family="Times,serif" font-size="14.00">v004</text>
<polyline fill="none" stroke="black" points="552,-23.5 552,-59.5 "/>
<text text-anchor="middle" x="569.5" y="-37.8" font-family="Times,serif" font-size="14.00">L1</text>
<polyline fill="none" stroke="black" points="587,-23.5 587,-59.5 "/>
<text text-anchor="middle" x="606" y="-37.8" font-family="Times,serif" font-size="14.00">N2</text>
<polyline fill="none" stroke="black" points="625,-23.5 625,-59.5 "/>
<text text-anchor="middle" x="638" y="-37.8" font-family="Times,serif" font-size="14.00">b</text>
<polyline fill="none" stroke="black" points="651,-23.5 651,-59.5 "/>
<text text-anchor="middle" x="704.5" y="-37.8" font-family="Times,serif" font-size="14.00">data &#45;0.2745</text>
<polyline fill="none" stroke="black" points="758,-23.5 758,-59.5 "/>
<text text-anchor="middle" x="810" y="-37.8" font-family="Times,serif" font-size="14.00">grad 1.0912</text>
</g>
<!-- 139883124658992&#45;&gt;139883124754224+ -->
<g id="edge10" class="edge">
<title>139883124658992&#45;&gt;139883124754224+</title>
<path fill="none" stroke="black" d="M818.21,-59.51C844.14,-62.94 869.13,-66.24 888.3,-68.78"/>
<polygon fill="black" stroke="black" points="887.95,-72.26 898.33,-70.11 888.87,-65.32 887.95,-72.26"/>
</g>
<!-- 139883124659040 -->
<g id="node23" class="node">
<title>139883124659040</title>
<polygon fill="none" stroke="black" points="0,-51.5 0,-87.5 374,-87.5 374,-51.5 0,-51.5"/>
<text text-anchor="middle" x="26" y="-65.8" font-family="Times,serif" font-size="14.00">v003</text>
<polyline fill="none" stroke="black" points="52,-51.5 52,-87.5 "/>
<text text-anchor="middle" x="69.5" y="-65.8" font-family="Times,serif" font-size="14.00">L1</text>
<polyline fill="none" stroke="black" points="87,-51.5 87,-87.5 "/>
<text text-anchor="middle" x="106" y="-65.8" font-family="Times,serif" font-size="14.00">N2</text>
<polyline fill="none" stroke="black" points="125,-51.5 125,-87.5 "/>
<text text-anchor="middle" x="144" y="-65.8" font-family="Times,serif" font-size="14.00">w1</text>
<polyline fill="none" stroke="black" points="163,-51.5 163,-87.5 "/>
<text text-anchor="middle" x="216.5" y="-65.8" font-family="Times,serif" font-size="14.00">data &#45;0.5982</text>
<polyline fill="none" stroke="black" points="270,-51.5 270,-87.5 "/>
<text text-anchor="middle" x="322" y="-65.8" font-family="Times,serif" font-size="14.00">grad 4.3647</text>
</g>
<!-- 139883124659040&#45;&gt;139883124755520* -->
<g id="edge21" class="edge">
<title>139883124659040&#45;&gt;139883124755520*</title>
<path fill="none" stroke="black" d="M353.42,-87.51C370.67,-89.39 386.71,-91.13 399.97,-92.58"/>
<polygon fill="black" stroke="black" points="399.67,-96.07 409.99,-93.67 400.43,-89.11 399.67,-96.07"/>
</g>
<!-- 139883124664128 -->
<g id="node24" class="node">
<title>139883124664128</title>
<polygon fill="none" stroke="black" points="988,-0.5 988,-36.5 1361,-36.5 1361,-0.5 988,-0.5"/>
<text text-anchor="middle" x="1014" y="-14.8" font-family="Times,serif" font-size="14.00">v006</text>
<polyline fill="none" stroke="black" points="1040,-0.5 1040,-36.5 "/>
<text text-anchor="middle" x="1057.5" y="-14.8" font-family="Times,serif" font-size="14.00">L2</text>
<polyline fill="none" stroke="black" points="1075,-0.5 1075,-36.5 "/>
<text text-anchor="middle" x="1094" y="-14.8" font-family="Times,serif" font-size="14.00">N1</text>
<polyline fill="none" stroke="black" points="1113,-0.5 1113,-36.5 "/>
<text text-anchor="middle" x="1132" y="-14.8" font-family="Times,serif" font-size="14.00">w2</text>
<polyline fill="none" stroke="black" points="1151,-0.5 1151,-36.5 "/>
<text text-anchor="middle" x="1202" y="-14.8" font-family="Times,serif" font-size="14.00">data 1.1782</text>
<polyline fill="none" stroke="black" points="1253,-0.5 1253,-36.5 "/>
<text text-anchor="middle" x="1307" y="-14.8" font-family="Times,serif" font-size="14.00">grad &#45;1.7398</text>
</g>
<!-- 139883124664128&#45;&gt;139883124753216* -->
<g id="edge15" class="edge">
<title>139883124664128&#45;&gt;139883124753216*</title>
<path fill="none" stroke="black" d="M1317.8,-36.51C1332.46,-39.17 1347.08,-42.16 1361,-45.5 1370.84,-47.86 1381.34,-51.12 1390.85,-54.37"/>
<polygon fill="black" stroke="black" points="1389.73,-57.69 1400.33,-57.71 1392.06,-51.09 1389.73,-57.69"/>
</g>
</g>
</svg>
