<?xml version="1.0" encoding="UTF-8" standalone="no"?>
<!DOCTYPE svg PUBLIC "-//W3C//DTD SVG 1.1//EN"
 "http://www.w3.org/Graphics/SVG/1.1/DTD/svg11.dtd">
<!-- Generated by graphviz version 2.43.0 (0)
 -->
<!-- Title: %3 Pages: 1 -->
<svg width="3049pt" height="210pt"
 viewBox="0.00 0.00 3049.00 210.00" xmlns="http://www.w3.org/2000/svg" xmlns:xlink="http://www.w3.org/1999/xlink">
<g id="graph0" class="graph" transform="scale(1 1) rotate(0) translate(4 206)">
<title>%3</title>
<polygon fill="white" stroke="transparent" points="-4,4 -4,-206 3045,-206 3045,4 -4,4"/>
<!-- 140402538963456 -->
<g id="node1" class="node">
<title>140402538963456</title>
<polygon fill="none" stroke="black" points="1483,-80.5 1483,-116.5 1845,-116.5 1845,-80.5 1483,-80.5"/>
<text text-anchor="middle" x="1509" y="-94.8" font-family="Times,serif" font-size="14.00">v007</text>
<polyline fill="none" stroke="black" points="1535,-80.5 1535,-116.5 "/>
<text text-anchor="middle" x="1552.5" y="-94.8" font-family="Times,serif" font-size="14.00">L2</text>
<polyline fill="none" stroke="black" points="1570,-80.5 1570,-116.5 "/>
<text text-anchor="middle" x="1589" y="-94.8" font-family="Times,serif" font-size="14.00">N1</text>
<polyline fill="none" stroke="black" points="1608,-80.5 1608,-116.5 "/>
<text text-anchor="middle" x="1621" y="-94.8" font-family="Times,serif" font-size="14.00">b</text>
<polyline fill="none" stroke="black" points="1634,-80.5 1634,-116.5 "/>
<text text-anchor="middle" x="1687.5" y="-94.8" font-family="Times,serif" font-size="14.00">data &#45;0.1500</text>
<polyline fill="none" stroke="black" points="1741,-80.5 1741,-116.5 "/>
<text text-anchor="middle" x="1793" y="-94.8" font-family="Times,serif" font-size="14.00">grad 1.0000</text>
</g>
<!-- 140403020897184+ -->
<g id="node16" class="node">
<title>140403020897184+</title>
<ellipse fill="none" stroke="black" cx="2041.5" cy="-102.5" rx="27" ry="18"/>
<text text-anchor="middle" x="2041.5" y="-98.8" font-family="Times,serif" font-size="14.00">+</text>
</g>
<!-- 140402538963456&#45;&gt;140403020897184+ -->
<g id="edge16" class="edge">
<title>140402538963456&#45;&gt;140403020897184+</title>
<path fill="none" stroke="black" d="M1845.05,-100.42C1905.18,-101.06 1966.37,-101.71 2003.88,-102.11"/>
<polygon fill="black" stroke="black" points="2004.24,-105.61 2014.27,-102.22 2004.31,-98.61 2004.24,-105.61"/>
</g>
<!-- 140403021704128 -->
<g id="node2" class="node">
<title>140403021704128</title>
<polygon fill="none" stroke="black" points="22,-110.5 22,-146.5 352,-146.5 352,-110.5 22,-110.5"/>
<text text-anchor="middle" x="48" y="-124.8" font-family="Times,serif" font-size="14.00">v008</text>
<polyline fill="none" stroke="black" points="74,-110.5 74,-146.5 "/>
<text text-anchor="middle" x="84.5" y="-124.8" font-family="Times,serif" font-size="14.00"> </text>
<polyline fill="none" stroke="black" points="95,-110.5 95,-146.5 "/>
<text text-anchor="middle" x="105.5" y="-124.8" font-family="Times,serif" font-size="14.00"> </text>
<polyline fill="none" stroke="black" points="116,-110.5 116,-146.5 "/>
<text text-anchor="middle" x="131" y="-124.8" font-family="Times,serif" font-size="14.00">i1</text>
<polyline fill="none" stroke="black" points="146,-110.5 146,-146.5 "/>
<text text-anchor="middle" x="197" y="-124.8" font-family="Times,serif" font-size="14.00">data 4.0000</text>
<polyline fill="none" stroke="black" points="248,-110.5 248,-146.5 "/>
<text text-anchor="middle" x="300" y="-124.8" font-family="Times,serif" font-size="14.00">grad 0.1612</text>
</g>
<!-- 140403020899200* -->
<g id="node7" class="node">
<title>140403020899200*</title>
<ellipse fill="none" stroke="black" cx="437" cy="-73.5" rx="27" ry="18"/>
<text text-anchor="middle" x="437" y="-69.8" font-family="Times,serif" font-size="14.00">*</text>
</g>
<!-- 140403021704128&#45;&gt;140403020899200* -->
<g id="edge11" class="edge">
<title>140403021704128&#45;&gt;140403020899200*</title>
<path fill="none" stroke="black" d="M338.02,-110.46C350.29,-107.86 362.41,-104.88 374,-101.5 384.83,-98.34 396.2,-93.64 406.21,-88.99"/>
<polygon fill="black" stroke="black" points="407.83,-92.09 415.32,-84.6 404.8,-85.79 407.83,-92.09"/>
</g>
<!-- 140402538970608* -->
<g id="node24" class="node">
<title>140402538970608*</title>
<ellipse fill="none" stroke="black" cx="437" cy="-183.5" rx="27" ry="18"/>
<text text-anchor="middle" x="437" y="-179.8" font-family="Times,serif" font-size="14.00">*</text>
</g>
<!-- 140403021704128&#45;&gt;140402538970608* -->
<g id="edge24" class="edge">
<title>140403021704128&#45;&gt;140402538970608*</title>
<path fill="none" stroke="black" d="M332.99,-146.54C346.96,-149.41 360.82,-152.71 374,-156.5 384.69,-159.57 395.96,-164.07 405.91,-168.51"/>
<polygon fill="black" stroke="black" points="404.44,-171.69 414.99,-172.71 407.38,-165.34 404.44,-171.69"/>
</g>
<!-- 140402538963504 -->
<g id="node3" class="node">
<title>140402538963504</title>
<polygon fill="none" stroke="black" points="988,-110.5 988,-146.5 1357,-146.5 1357,-110.5 988,-110.5"/>
<text text-anchor="middle" x="1014" y="-124.8" font-family="Times,serif" font-size="14.00">v005</text>
<polyline fill="none" stroke="black" points="1040,-110.5 1040,-146.5 "/>
<text text-anchor="middle" x="1057.5" y="-124.8" font-family="Times,serif" font-size="14.00">L2</text>
<polyline fill="none" stroke="black" points="1075,-110.5 1075,-146.5 "/>
<text text-anchor="middle" x="1094" y="-124.8" font-family="Times,serif" font-size="14.00">N1</text>
<polyline fill="none" stroke="black" points="1113,-110.5 1113,-146.5 "/>
<text text-anchor="middle" x="1132" y="-124.8" font-family="Times,serif" font-size="14.00">w1</text>
<polyline fill="none" stroke="black" points="1151,-110.5 1151,-146.5 "/>
<text text-anchor="middle" x="1202" y="-124.8" font-family="Times,serif" font-size="14.00">data 0.3723</text>
<polyline fill="none" stroke="black" points="1253,-110.5 1253,-146.5 "/>
<text text-anchor="middle" x="1305" y="-124.8" font-family="Times,serif" font-size="14.00">grad 1.0650</text>
</g>
<!-- 140403020896992* -->
<g id="node9" class="node">
<title>140403020896992*</title>
<ellipse fill="none" stroke="black" cx="1420" cy="-153.5" rx="27" ry="18"/>
<text text-anchor="middle" x="1420" y="-149.8" font-family="Times,serif" font-size="14.00">*</text>
</g>
<!-- 140402538963504&#45;&gt;140403020896992* -->
<g id="edge19" class="edge">
<title>140402538963504&#45;&gt;140403020896992*</title>
<path fill="none" stroke="black" d="M1350.29,-146.5C1362.2,-147.72 1373.27,-148.84 1382.89,-149.82"/>
<polygon fill="black" stroke="black" points="1382.8,-153.33 1393.1,-150.86 1383.51,-146.37 1382.8,-153.33"/>
</g>
<!-- 140402538964032 -->
<g id="node4" class="node">
<title>140402538964032</title>
<polygon fill="none" stroke="black" points="500,-110.5 500,-146.5 862,-146.5 862,-110.5 500,-110.5"/>
<text text-anchor="middle" x="526" y="-124.8" font-family="Times,serif" font-size="14.00">v002</text>
<polyline fill="none" stroke="black" points="552,-110.5 552,-146.5 "/>
<text text-anchor="middle" x="569.5" y="-124.8" font-family="Times,serif" font-size="14.00">L1</text>
<polyline fill="none" stroke="black" points="587,-110.5 587,-146.5 "/>
<text text-anchor="middle" x="606" y="-124.8" font-family="Times,serif" font-size="14.00">N1</text>
<polyline fill="none" stroke="black" points="625,-110.5 625,-146.5 "/>
<text text-anchor="middle" x="638" y="-124.8" font-family="Times,serif" font-size="14.00">b</text>
<polyline fill="none" stroke="black" points="651,-110.5 651,-146.5 "/>
<text text-anchor="middle" x="704.5" y="-124.8" font-family="Times,serif" font-size="14.00">data &#45;0.0763</text>
<polyline fill="none" stroke="black" points="758,-110.5 758,-146.5 "/>
<text text-anchor="middle" x="810" y="-124.8" font-family="Times,serif" font-size="14.00">grad 0.4255</text>
</g>
<!-- 140402538963168+ -->
<g id="node11" class="node">
<title>140402538963168+</title>
<ellipse fill="none" stroke="black" cx="925" cy="-183.5" rx="27" ry="18"/>
<text text-anchor="middle" x="925" y="-179.8" font-family="Times,serif" font-size="14.00">+</text>
</g>
<!-- 140402538964032&#45;&gt;140402538963168+ -->
<g id="edge21" class="edge">
<title>140402538964032&#45;&gt;140402538963168+</title>
<path fill="none" stroke="black" d="M821.35,-146.52C835.19,-149.4 848.94,-152.71 862,-156.5 872.68,-159.6 883.95,-164.1 893.9,-168.55"/>
<polygon fill="black" stroke="black" points="892.44,-171.72 902.98,-172.74 895.37,-165.37 892.44,-171.72"/>
</g>
<!-- 140402538964080 -->
<g id="node5" class="node">
<title>140402538964080</title>
<polygon fill="none" stroke="black" points="2.5,-165.5 2.5,-201.5 371.5,-201.5 371.5,-165.5 2.5,-165.5"/>
<text text-anchor="middle" x="28.5" y="-179.8" font-family="Times,serif" font-size="14.00">v001</text>
<polyline fill="none" stroke="black" points="54.5,-165.5 54.5,-201.5 "/>
<text text-anchor="middle" x="72" y="-179.8" font-family="Times,serif" font-size="14.00">L1</text>
<polyline fill="none" stroke="black" points="89.5,-165.5 89.5,-201.5 "/>
<text text-anchor="middle" x="108.5" y="-179.8" font-family="Times,serif" font-size="14.00">N1</text>
<polyline fill="none" stroke="black" points="127.5,-165.5 127.5,-201.5 "/>
<text text-anchor="middle" x="146.5" y="-179.8" font-family="Times,serif" font-size="14.00">w1</text>
<polyline fill="none" stroke="black" points="165.5,-165.5 165.5,-201.5 "/>
<text text-anchor="middle" x="216.5" y="-179.8" font-family="Times,serif" font-size="14.00">data 0.1949</text>
<polyline fill="none" stroke="black" points="267.5,-165.5 267.5,-201.5 "/>
<text text-anchor="middle" x="319.5" y="-179.8" font-family="Times,serif" font-size="14.00">grad 1.7020</text>
</g>
<!-- 140402538964080&#45;&gt;140402538970608* -->
<g id="edge14" class="edge">
<title>140402538964080&#45;&gt;140402538970608*</title>
<path fill="none" stroke="black" d="M371.81,-183.5C381.88,-183.5 391.25,-183.5 399.55,-183.5"/>
<polygon fill="black" stroke="black" points="399.82,-187 409.82,-183.5 399.82,-180 399.82,-187"/>
</g>
<!-- 140403020899200 -->
<g id="node6" class="node">
<title>140403020899200</title>
<polygon fill="none" stroke="black" points="520.5,-55.5 520.5,-91.5 841.5,-91.5 841.5,-55.5 520.5,-55.5"/>
<text text-anchor="middle" x="546.5" y="-69.8" font-family="Times,serif" font-size="14.00">v042</text>
<polyline fill="none" stroke="black" points="572.5,-55.5 572.5,-91.5 "/>
<text text-anchor="middle" x="583" y="-69.8" font-family="Times,serif" font-size="14.00"> </text>
<polyline fill="none" stroke="black" points="593.5,-55.5 593.5,-91.5 "/>
<text text-anchor="middle" x="604" y="-69.8" font-family="Times,serif" font-size="14.00"> </text>
<polyline fill="none" stroke="black" points="614.5,-55.5 614.5,-91.5 "/>
<text text-anchor="middle" x="625" y="-69.8" font-family="Times,serif" font-size="14.00"> </text>
<polyline fill="none" stroke="black" points="635.5,-55.5 635.5,-91.5 "/>
<text text-anchor="middle" x="686.5" y="-69.8" font-family="Times,serif" font-size="14.00">data 0.1600</text>
<polyline fill="none" stroke="black" points="737.5,-55.5 737.5,-91.5 "/>
<text text-anchor="middle" x="789.5" y="-69.8" font-family="Times,serif" font-size="14.00">grad 1.0510</text>
</g>
<!-- 140403020902368+ -->
<g id="node22" class="node">
<title>140403020902368+</title>
<ellipse fill="none" stroke="black" cx="925" cy="-18.5" rx="27" ry="18"/>
<text text-anchor="middle" x="925" y="-14.8" font-family="Times,serif" font-size="14.00">+</text>
</g>
<!-- 140403020899200&#45;&gt;140403020902368+ -->
<g id="edge15" class="edge">
<title>140403020899200&#45;&gt;140403020902368+</title>
<path fill="none" stroke="black" d="M821.35,-55.48C835.19,-52.6 848.94,-49.29 862,-45.5 872.68,-42.4 883.95,-37.9 893.9,-33.45"/>
<polygon fill="black" stroke="black" points="895.37,-36.63 902.98,-29.26 892.44,-30.28 895.37,-36.63"/>
</g>
<!-- 140403020899200*&#45;&gt;140403020899200 -->
<g id="edge1" class="edge">
<title>140403020899200*&#45;&gt;140403020899200</title>
<path fill="none" stroke="black" d="M464.36,-73.5C476.7,-73.5 492.53,-73.5 510,-73.5"/>
<polygon fill="black" stroke="black" points="510.46,-77 520.46,-73.5 510.46,-70 510.46,-77"/>
</g>
<!-- 140403020896992 -->
<g id="node8" class="node">
<title>140403020896992</title>
<polygon fill="none" stroke="black" points="1503.5,-135.5 1503.5,-171.5 1824.5,-171.5 1824.5,-135.5 1503.5,-135.5"/>
<text text-anchor="middle" x="1529.5" y="-149.8" font-family="Times,serif" font-size="14.00">v044</text>
<polyline fill="none" stroke="black" points="1555.5,-135.5 1555.5,-171.5 "/>
<text text-anchor="middle" x="1566" y="-149.8" font-family="Times,serif" font-size="14.00"> </text>
<polyline fill="none" stroke="black" points="1576.5,-135.5 1576.5,-171.5 "/>
<text text-anchor="middle" x="1587" y="-149.8" font-family="Times,serif" font-size="14.00"> </text>
<polyline fill="none" stroke="black" points="1597.5,-135.5 1597.5,-171.5 "/>
<text text-anchor="middle" x="1608" y="-149.8" font-family="Times,serif" font-size="14.00"> </text>
<polyline fill="none" stroke="black" points="1618.5,-135.5 1618.5,-171.5 "/>
<text text-anchor="middle" x="1669.5" y="-149.8" font-family="Times,serif" font-size="14.00">data 0.4532</text>
<polyline fill="none" stroke="black" points="1720.5,-135.5 1720.5,-171.5 "/>
<text text-anchor="middle" x="1772.5" y="-149.8" font-family="Times,serif" font-size="14.00">grad 1.0000</text>
</g>
<!-- 140403020896992&#45;&gt;140403020897184+ -->
<g id="edge13" class="edge">
<title>140403020896992&#45;&gt;140403020897184+</title>
<path fill="none" stroke="black" d="M1797.65,-135.48C1871.43,-125.46 1957.67,-113.75 2004.96,-107.33"/>
<polygon fill="black" stroke="black" points="2005.56,-110.78 2015,-105.96 2004.62,-103.84 2005.56,-110.78"/>
</g>
<!-- 140403020896992*&#45;&gt;140403020896992 -->
<g id="edge2" class="edge">
<title>140403020896992*&#45;&gt;140403020896992</title>
<path fill="none" stroke="black" d="M1447.36,-153.5C1459.7,-153.5 1475.53,-153.5 1493,-153.5"/>
<polygon fill="black" stroke="black" points="1493.46,-157 1503.46,-153.5 1493.46,-150 1493.46,-157"/>
</g>
<!-- 140402538963168 -->
<g id="node10" class="node">
<title>140402538963168</title>
<polygon fill="none" stroke="black" points="994.5,-165.5 994.5,-201.5 1350.5,-201.5 1350.5,-165.5 994.5,-165.5"/>
<text text-anchor="middle" x="1020.5" y="-179.8" font-family="Times,serif" font-size="14.00">v041</text>
<polyline fill="none" stroke="black" points="1046.5,-165.5 1046.5,-201.5 "/>
<text text-anchor="middle" x="1064" y="-179.8" font-family="Times,serif" font-size="14.00">L1</text>
<polyline fill="none" stroke="black" points="1081.5,-165.5 1081.5,-201.5 "/>
<text text-anchor="middle" x="1100.5" y="-179.8" font-family="Times,serif" font-size="14.00">N1</text>
<polyline fill="none" stroke="black" points="1119.5,-165.5 1119.5,-201.5 "/>
<text text-anchor="middle" x="1132" y="-179.8" font-family="Times,serif" font-size="14.00">a</text>
<polyline fill="none" stroke="black" points="1144.5,-165.5 1144.5,-201.5 "/>
<text text-anchor="middle" x="1195.5" y="-179.8" font-family="Times,serif" font-size="14.00">data 1.0650</text>
<polyline fill="none" stroke="black" points="1246.5,-165.5 1246.5,-201.5 "/>
<text text-anchor="middle" x="1298.5" y="-179.8" font-family="Times,serif" font-size="14.00">grad 0.4255</text>
</g>
<!-- 140402538963168&#45;&gt;140403020896992* -->
<g id="edge22" class="edge">
<title>140402538963168&#45;&gt;140403020896992*</title>
<path fill="none" stroke="black" d="M1320.91,-165.49C1344.02,-162.66 1365.91,-159.99 1383.13,-157.88"/>
<polygon fill="black" stroke="black" points="1383.71,-161.34 1393.21,-156.65 1382.86,-154.39 1383.71,-161.34"/>
</g>
<!-- 140402538963168+&#45;&gt;140402538963168 -->
<g id="edge3" class="edge">
<title>140402538963168+&#45;&gt;140402538963168</title>
<path fill="none" stroke="black" d="M952.27,-183.5C961.26,-183.5 972.11,-183.5 984.12,-183.5"/>
<polygon fill="black" stroke="black" points="984.46,-187 994.46,-183.5 984.46,-180 984.46,-187"/>
</g>
<!-- 140403020902656 -->
<g id="node12" class="node">
<title>140403020902656</title>
<polygon fill="none" stroke="black" points="1881,-29.5 1881,-65.5 2202,-65.5 2202,-29.5 1881,-29.5"/>
<text text-anchor="middle" x="1907" y="-43.8" font-family="Times,serif" font-size="14.00">v046</text>
<polyline fill="none" stroke="black" points="1933,-29.5 1933,-65.5 "/>
<text text-anchor="middle" x="1943.5" y="-43.8" font-family="Times,serif" font-size="14.00"> </text>
<polyline fill="none" stroke="black" points="1954,-29.5 1954,-65.5 "/>
<text text-anchor="middle" x="1964.5" y="-43.8" font-family="Times,serif" font-size="14.00"> </text>
<polyline fill="none" stroke="black" points="1975,-29.5 1975,-65.5 "/>
<text text-anchor="middle" x="1985.5" y="-43.8" font-family="Times,serif" font-size="14.00"> </text>
<polyline fill="none" stroke="black" points="1996,-29.5 1996,-65.5 "/>
<text text-anchor="middle" x="2047" y="-43.8" font-family="Times,serif" font-size="14.00">data 0.0473</text>
<polyline fill="none" stroke="black" points="2098,-29.5 2098,-65.5 "/>
<text text-anchor="middle" x="2150" y="-43.8" font-family="Times,serif" font-size="14.00">grad 1.0000</text>
</g>
<!-- 140403020901312+ -->
<g id="node19" class="node">
<title>140403020901312+</title>
<ellipse fill="none" stroke="black" cx="2622" cy="-74.5" rx="27" ry="18"/>
<text text-anchor="middle" x="2622" y="-70.8" font-family="Times,serif" font-size="14.00">+</text>
</g>
<!-- 140403020902656&#45;&gt;140403020901312+ -->
<g id="edge12" class="edge">
<title>140403020902656&#45;&gt;140403020901312+</title>
<path fill="none" stroke="black" d="M2202.11,-54.95C2333.28,-61.07 2509.3,-69.29 2584.48,-72.8"/>
<polygon fill="black" stroke="black" points="2584.67,-76.31 2594.82,-73.28 2585,-69.32 2584.67,-76.31"/>
</g>
<!-- 140403020902656* -->
<g id="node13" class="node">
<title>140403020902656*</title>
<ellipse fill="none" stroke="black" cx="1420" cy="-47.5" rx="27" ry="18"/>
<text text-anchor="middle" x="1420" y="-43.8" font-family="Times,serif" font-size="14.00">*</text>
</g>
<!-- 140403020902656*&#45;&gt;140403020902656 -->
<g id="edge4" class="edge">
<title>140403020902656*&#45;&gt;140403020902656</title>
<path fill="none" stroke="black" d="M1447.22,-47.5C1518.76,-47.5 1721.85,-47.5 1870.55,-47.5"/>
<polygon fill="black" stroke="black" points="1870.71,-51 1880.71,-47.5 1870.71,-44 1870.71,-51"/>
</g>
<!-- 140402538963840 -->
<g id="node14" class="node">
<title>140402538963840</title>
<polygon fill="none" stroke="black" points="500,-0.5 500,-36.5 862,-36.5 862,-0.5 500,-0.5"/>
<text text-anchor="middle" x="526" y="-14.8" font-family="Times,serif" font-size="14.00">v004</text>
<polyline fill="none" stroke="black" points="552,-0.5 552,-36.5 "/>
<text text-anchor="middle" x="569.5" y="-14.8" font-family="Times,serif" font-size="14.00">L1</text>
<polyline fill="none" stroke="black" points="587,-0.5 587,-36.5 "/>
<text text-anchor="middle" x="606" y="-14.8" font-family="Times,serif" font-size="14.00">N2</text>
<polyline fill="none" stroke="black" points="625,-0.5 625,-36.5 "/>
<text text-anchor="middle" x="638" y="-14.8" font-family="Times,serif" font-size="14.00">b</text>
<polyline fill="none" stroke="black" points="651,-0.5 651,-36.5 "/>
<text text-anchor="middle" x="704.5" y="-14.8" font-family="Times,serif" font-size="14.00">data &#45;0.1676</text>
<polyline fill="none" stroke="black" points="758,-0.5 758,-36.5 "/>
<text text-anchor="middle" x="810" y="-14.8" font-family="Times,serif" font-size="14.00">grad 1.0510</text>
</g>
<!-- 140402538963840&#45;&gt;140403020902368+ -->
<g id="edge9" class="edge">
<title>140402538963840&#45;&gt;140403020902368+</title>
<path fill="none" stroke="black" d="M862.31,-18.5C871.5,-18.5 880.08,-18.5 887.76,-18.5"/>
<polygon fill="black" stroke="black" points="887.96,-22 897.96,-18.5 887.96,-15 887.96,-22"/>
</g>
<!-- 140403020897184 -->
<g id="node15" class="node">
<title>140403020897184</title>
<polygon fill="none" stroke="black" points="2238,-82.5 2238,-118.5 2559,-118.5 2559,-82.5 2238,-82.5"/>
<text text-anchor="middle" x="2264" y="-96.8" font-family="Times,serif" font-size="14.00">v045</text>
<polyline fill="none" stroke="black" points="2290,-82.5 2290,-118.5 "/>
<text text-anchor="middle" x="2300.5" y="-96.8" font-family="Times,serif" font-size="14.00"> </text>
<polyline fill="none" stroke="black" points="2311,-82.5 2311,-118.5 "/>
<text text-anchor="middle" x="2321.5" y="-96.8" font-family="Times,serif" font-size="14.00"> </text>
<polyline fill="none" stroke="black" points="2332,-82.5 2332,-118.5 "/>
<text text-anchor="middle" x="2342.5" y="-96.8" font-family="Times,serif" font-size="14.00"> </text>
<polyline fill="none" stroke="black" points="2353,-82.5 2353,-118.5 "/>
<text text-anchor="middle" x="2404" y="-96.8" font-family="Times,serif" font-size="14.00">data 0.3532</text>
<polyline fill="none" stroke="black" points="2455,-82.5 2455,-118.5 "/>
<text text-anchor="middle" x="2507" y="-96.8" font-family="Times,serif" font-size="14.00">grad 1.0000</text>
</g>
<!-- 140403020897184&#45;&gt;140403020901312+ -->
<g id="edge10" class="edge">
<title>140403020897184&#45;&gt;140403020901312+</title>
<path fill="none" stroke="black" d="M2553.04,-82.48C2564.67,-81.11 2575.55,-79.83 2585.06,-78.72"/>
<polygon fill="black" stroke="black" points="2585.64,-82.17 2595.17,-77.53 2584.83,-75.22 2585.64,-82.17"/>
</g>
<!-- 140403020897184+&#45;&gt;140403020897184 -->
<g id="edge5" class="edge">
<title>140403020897184+&#45;&gt;140403020897184</title>
<path fill="none" stroke="black" d="M2068.6,-102.35C2102.81,-102.16 2165.72,-101.81 2227.43,-101.46"/>
<polygon fill="black" stroke="black" points="2227.74,-104.96 2237.72,-101.4 2227.7,-97.96 2227.74,-104.96"/>
</g>
<!-- 140402538963888 -->
<g id="node17" class="node">
<title>140402538963888</title>
<polygon fill="none" stroke="black" points="0,-55.5 0,-91.5 374,-91.5 374,-55.5 0,-55.5"/>
<text text-anchor="middle" x="26" y="-69.8" font-family="Times,serif" font-size="14.00">v003</text>
<polyline fill="none" stroke="black" points="52,-55.5 52,-91.5 "/>
<text text-anchor="middle" x="69.5" y="-69.8" font-family="Times,serif" font-size="14.00">L1</text>
<polyline fill="none" stroke="black" points="87,-55.5 87,-91.5 "/>
<text text-anchor="middle" x="106" y="-69.8" font-family="Times,serif" font-size="14.00">N2</text>
<polyline fill="none" stroke="black" points="125,-55.5 125,-91.5 "/>
<text text-anchor="middle" x="144" y="-69.8" font-family="Times,serif" font-size="14.00">w1</text>
<polyline fill="none" stroke="black" points="163,-55.5 163,-91.5 "/>
<text text-anchor="middle" x="216.5" y="-69.8" font-family="Times,serif" font-size="14.00">data &#45;0.1702</text>
<polyline fill="none" stroke="black" points="270,-55.5 270,-91.5 "/>
<text text-anchor="middle" x="322" y="-69.8" font-family="Times,serif" font-size="14.00">grad 4.2040</text>
</g>
<!-- 140402538963888&#45;&gt;140403020899200* -->
<g id="edge18" class="edge">
<title>140402538963888&#45;&gt;140403020899200*</title>
<path fill="none" stroke="black" d="M374.06,-73.5C383.31,-73.5 391.94,-73.5 399.65,-73.5"/>
<polygon fill="black" stroke="black" points="399.9,-77 409.9,-73.5 399.9,-70 399.9,-77"/>
</g>
<!-- 140403020901312 -->
<g id="node18" class="node">
<title>140403020901312</title>
<polygon fill="none" stroke="black" points="2685,-56.5 2685,-92.5 3041,-92.5 3041,-56.5 2685,-56.5"/>
<text text-anchor="middle" x="2711" y="-70.8" font-family="Times,serif" font-size="14.00">v047</text>
<polyline fill="none" stroke="black" points="2737,-56.5 2737,-92.5 "/>
<text text-anchor="middle" x="2754.5" y="-70.8" font-family="Times,serif" font-size="14.00">L2</text>
<polyline fill="none" stroke="black" points="2772,-56.5 2772,-92.5 "/>
<text text-anchor="middle" x="2791" y="-70.8" font-family="Times,serif" font-size="14.00">N1</text>
<polyline fill="none" stroke="black" points="2810,-56.5 2810,-92.5 "/>
<text text-anchor="middle" x="2822.5" y="-70.8" font-family="Times,serif" font-size="14.00">a</text>
<polyline fill="none" stroke="black" points="2835,-56.5 2835,-92.5 "/>
<text text-anchor="middle" x="2886" y="-70.8" font-family="Times,serif" font-size="14.00">data 0.4005</text>
<polyline fill="none" stroke="black" points="2937,-56.5 2937,-92.5 "/>
<text text-anchor="middle" x="2989" y="-70.8" font-family="Times,serif" font-size="14.00">grad 1.0000</text>
</g>
<!-- 140403020901312+&#45;&gt;140403020901312 -->
<g id="edge6" class="edge">
<title>140403020901312+&#45;&gt;140403020901312</title>
<path fill="none" stroke="black" d="M2649.03,-74.5C2656.4,-74.5 2665.02,-74.5 2674.49,-74.5"/>
<polygon fill="black" stroke="black" points="2674.66,-78 2684.66,-74.5 2674.66,-71 2674.66,-78"/>
</g>
<!-- 140402538963408 -->
<g id="node20" class="node">
<title>140402538963408</title>
<polygon fill="none" stroke="black" points="988,-55.5 988,-91.5 1357,-91.5 1357,-55.5 988,-55.5"/>
<text text-anchor="middle" x="1014" y="-69.8" font-family="Times,serif" font-size="14.00">v006</text>
<polyline fill="none" stroke="black" points="1040,-55.5 1040,-91.5 "/>
<text text-anchor="middle" x="1057.5" y="-69.8" font-family="Times,serif" font-size="14.00">L2</text>
<polyline fill="none" stroke="black" points="1075,-55.5 1075,-91.5 "/>
<text text-anchor="middle" x="1094" y="-69.8" font-family="Times,serif" font-size="14.00">N1</text>
<polyline fill="none" stroke="black" points="1113,-55.5 1113,-91.5 "/>
<text text-anchor="middle" x="1132" y="-69.8" font-family="Times,serif" font-size="14.00">w2</text>
<polyline fill="none" stroke="black" points="1151,-55.5 1151,-91.5 "/>
<text text-anchor="middle" x="1202" y="-69.8" font-family="Times,serif" font-size="14.00">data 1.0488</text>
<polyline fill="none" stroke="black" points="1253,-55.5 1253,-91.5 "/>
<text text-anchor="middle" x="1305" y="-69.8" font-family="Times,serif" font-size="14.00">grad 0.0450</text>
</g>
<!-- 140402538963408&#45;&gt;140403020902656* -->
<g id="edge20" class="edge">
<title>140402538963408&#45;&gt;140403020902656*</title>
<path fill="none" stroke="black" d="M1343.67,-55.48C1358.11,-53.95 1371.52,-52.53 1382.9,-51.32"/>
<polygon fill="black" stroke="black" points="1383.58,-54.77 1393.15,-50.24 1382.84,-47.81 1383.58,-54.77"/>
</g>
<!-- 140403020902368 -->
<g id="node21" class="node">
<title>140403020902368</title>
<polygon fill="none" stroke="black" points="994.5,-0.5 994.5,-36.5 1350.5,-36.5 1350.5,-0.5 994.5,-0.5"/>
<text text-anchor="middle" x="1020.5" y="-14.8" font-family="Times,serif" font-size="14.00">v043</text>
<polyline fill="none" stroke="black" points="1046.5,-0.5 1046.5,-36.5 "/>
<text text-anchor="middle" x="1064" y="-14.8" font-family="Times,serif" font-size="14.00">L1</text>
<polyline fill="none" stroke="black" points="1081.5,-0.5 1081.5,-36.5 "/>
<text text-anchor="middle" x="1100.5" y="-14.8" font-family="Times,serif" font-size="14.00">N2</text>
<polyline fill="none" stroke="black" points="1119.5,-0.5 1119.5,-36.5 "/>
<text text-anchor="middle" x="1132" y="-14.8" font-family="Times,serif" font-size="14.00">a</text>
<polyline fill="none" stroke="black" points="1144.5,-0.5 1144.5,-36.5 "/>
<text text-anchor="middle" x="1195.5" y="-14.8" font-family="Times,serif" font-size="14.00">data 0.0450</text>
<polyline fill="none" stroke="black" points="1246.5,-0.5 1246.5,-36.5 "/>
<text text-anchor="middle" x="1298.5" y="-14.8" font-family="Times,serif" font-size="14.00">grad 1.0510</text>
</g>
<!-- 140403020902368&#45;&gt;140403020902656* -->
<g id="edge17" class="edge">
<title>140403020902368&#45;&gt;140403020902656*</title>
<path fill="none" stroke="black" d="M1326.19,-36.54C1347.26,-39.03 1367.08,-41.37 1382.95,-43.24"/>
<polygon fill="black" stroke="black" points="1382.93,-46.76 1393.27,-44.46 1383.75,-39.81 1382.93,-46.76"/>
</g>
<!-- 140403020902368+&#45;&gt;140403020902368 -->
<g id="edge7" class="edge">
<title>140403020902368+&#45;&gt;140403020902368</title>
<path fill="none" stroke="black" d="M952.27,-18.5C961.26,-18.5 972.11,-18.5 984.12,-18.5"/>
<polygon fill="black" stroke="black" points="984.46,-22 994.46,-18.5 984.46,-15 984.46,-22"/>
</g>
<!-- 140402538970608 -->
<g id="node23" class="node">
<title>140402538970608</title>
<polygon fill="none" stroke="black" points="520.5,-165.5 520.5,-201.5 841.5,-201.5 841.5,-165.5 520.5,-165.5"/>
<text text-anchor="middle" x="546.5" y="-179.8" font-family="Times,serif" font-size="14.00">v040</text>
<polyline fill="none" stroke="black" points="572.5,-165.5 572.5,-201.5 "/>
<text text-anchor="middle" x="583" y="-179.8" font-family="Times,serif" font-size="14.00"> </text>
<polyline fill="none" stroke="black" points="593.5,-165.5 593.5,-201.5 "/>
<text text-anchor="middle" x="604" y="-179.8" font-family="Times,serif" font-size="14.00"> </text>
<polyline fill="none" stroke="black" points="614.5,-165.5 614.5,-201.5 "/>
<text text-anchor="middle" x="625" y="-179.8" font-family="Times,serif" font-size="14.00"> </text>
<polyline fill="none" stroke="black" points="635.5,-165.5 635.5,-201.5 "/>
<text text-anchor="middle" x="686.5" y="-179.8" font-family="Times,serif" font-size="14.00">data 1.1200</text>
<polyline fill="none" stroke="black" points="737.5,-165.5 737.5,-201.5 "/>
<text text-anchor="middle" x="789.5" y="-179.8" font-family="Times,serif" font-size="14.00">grad 0.4255</text>
</g>
<!-- 140402538970608&#45;&gt;140402538963168+ -->
<g id="edge23" class="edge">
<title>140402538970608&#45;&gt;140402538963168+</title>
<path fill="none" stroke="black" d="M841.73,-183.5C858.54,-183.5 874.24,-183.5 887.32,-183.5"/>
<polygon fill="black" stroke="black" points="887.66,-187 897.66,-183.5 887.66,-180 887.66,-187"/>
</g>
<!-- 140402538970608*&#45;&gt;140402538970608 -->
<g id="edge8" class="edge">
<title>140402538970608*&#45;&gt;140402538970608</title>
<path fill="none" stroke="black" d="M464.36,-183.5C476.7,-183.5 492.53,-183.5 510,-183.5"/>
<polygon fill="black" stroke="black" points="510.46,-187 520.46,-183.5 510.46,-180 510.46,-187"/>
</g>
</g>
</svg>
