<?xml version="1.0" encoding="UTF-8" standalone="no"?>
<!DOCTYPE svg PUBLIC "-//W3C//DTD SVG 1.1//EN"
 "http://www.w3.org/Graphics/SVG/1.1/DTD/svg11.dtd">
<!-- Generated by graphviz version 2.43.0 (0)
 -->
<!-- Title: %3 Pages: 1 -->
<svg width="3490pt" height="265pt"
 viewBox="0.00 0.00 3490.00 265.00" xmlns="http://www.w3.org/2000/svg" xmlns:xlink="http://www.w3.org/1999/xlink">
<g id="graph0" class="graph" transform="scale(1 1) rotate(0) translate(4 261)">
<title>%3</title>
<polygon fill="white" stroke="transparent" points="-4,4 -4,-261 3486,-261 3486,4 -4,4"/>
<!-- 140625757229584 -->
<g id="node1" class="node">
<title>140625757229584</title>
<polygon fill="none" stroke="black" points="0,-220.5 0,-256.5 369,-256.5 369,-220.5 0,-220.5"/>
<text text-anchor="middle" x="26" y="-234.8" font-family="Times,serif" font-size="14.00">v001</text>
<polyline fill="none" stroke="black" points="52,-220.5 52,-256.5 "/>
<text text-anchor="middle" x="69.5" y="-234.8" font-family="Times,serif" font-size="14.00">L1</text>
<polyline fill="none" stroke="black" points="87,-220.5 87,-256.5 "/>
<text text-anchor="middle" x="106" y="-234.8" font-family="Times,serif" font-size="14.00">N1</text>
<polyline fill="none" stroke="black" points="125,-220.5 125,-256.5 "/>
<text text-anchor="middle" x="144" y="-234.8" font-family="Times,serif" font-size="14.00">w1</text>
<polyline fill="none" stroke="black" points="163,-220.5 163,-256.5 "/>
<text text-anchor="middle" x="214" y="-234.8" font-family="Times,serif" font-size="14.00">data 0.5000</text>
<polyline fill="none" stroke="black" points="265,-220.5 265,-256.5 "/>
<text text-anchor="middle" x="317" y="-234.8" font-family="Times,serif" font-size="14.00">grad 2.4000</text>
</g>
<!-- 140625756790384* -->
<g id="node10" class="node">
<title>140625756790384*</title>
<ellipse fill="none" stroke="black" cx="432" cy="-238.5" rx="27" ry="18"/>
<text text-anchor="middle" x="432" y="-234.8" font-family="Times,serif" font-size="14.00">*</text>
</g>
<!-- 140625757229584&#45;&gt;140625756790384* -->
<g id="edge20" class="edge">
<title>140625757229584&#45;&gt;140625756790384*</title>
<path fill="none" stroke="black" d="M369.05,-238.5C378.29,-238.5 386.92,-238.5 394.62,-238.5"/>
<polygon fill="black" stroke="black" points="394.87,-242 404.87,-238.5 394.87,-235 394.87,-242"/>
</g>
<!-- 140625757228576 -->
<g id="node2" class="node">
<title>140625757228576</title>
<polygon fill="none" stroke="black" points="0,-110.5 0,-146.5 369,-146.5 369,-110.5 0,-110.5"/>
<text text-anchor="middle" x="26" y="-124.8" font-family="Times,serif" font-size="14.00">v003</text>
<polyline fill="none" stroke="black" points="52,-110.5 52,-146.5 "/>
<text text-anchor="middle" x="69.5" y="-124.8" font-family="Times,serif" font-size="14.00">L1</text>
<polyline fill="none" stroke="black" points="87,-110.5 87,-146.5 "/>
<text text-anchor="middle" x="106" y="-124.8" font-family="Times,serif" font-size="14.00">N2</text>
<polyline fill="none" stroke="black" points="125,-110.5 125,-146.5 "/>
<text text-anchor="middle" x="144" y="-124.8" font-family="Times,serif" font-size="14.00">w1</text>
<polyline fill="none" stroke="black" points="163,-110.5 163,-146.5 "/>
<text text-anchor="middle" x="214" y="-124.8" font-family="Times,serif" font-size="14.00">data 0.5000</text>
<polyline fill="none" stroke="black" points="265,-110.5 265,-146.5 "/>
<text text-anchor="middle" x="317" y="-124.8" font-family="Times,serif" font-size="14.00">grad 4.8000</text>
</g>
<!-- 140625756787360* -->
<g id="node12" class="node">
<title>140625756787360*</title>
<ellipse fill="none" stroke="black" cx="432" cy="-128.5" rx="27" ry="18"/>
<text text-anchor="middle" x="432" y="-124.8" font-family="Times,serif" font-size="14.00">*</text>
</g>
<!-- 140625757228576&#45;&gt;140625756787360* -->
<g id="edge21" class="edge">
<title>140625757228576&#45;&gt;140625756787360*</title>
<path fill="none" stroke="black" d="M369.05,-128.5C378.29,-128.5 386.92,-128.5 394.62,-128.5"/>
<polygon fill="black" stroke="black" points="394.87,-132 404.87,-128.5 394.87,-125 394.87,-132"/>
</g>
<!-- 140625756794416 -->
<g id="node3" class="node">
<title>140625756794416</title>
<polygon fill="none" stroke="black" points="3152,-69.5 3152,-105.5 3482,-105.5 3482,-69.5 3152,-69.5"/>
<text text-anchor="middle" x="3178" y="-83.8" font-family="Times,serif" font-size="14.00">v018</text>
<polyline fill="none" stroke="black" points="3204,-69.5 3204,-105.5 "/>
<text text-anchor="middle" x="3214.5" y="-83.8" font-family="Times,serif" font-size="14.00"> </text>
<polyline fill="none" stroke="black" points="3225,-69.5 3225,-105.5 "/>
<text text-anchor="middle" x="3235.5" y="-83.8" font-family="Times,serif" font-size="14.00"> </text>
<polyline fill="none" stroke="black" points="3246,-69.5 3246,-105.5 "/>
<text text-anchor="middle" x="3256.5" y="-83.8" font-family="Times,serif" font-size="14.00"> </text>
<polyline fill="none" stroke="black" points="3267,-69.5 3267,-105.5 "/>
<text text-anchor="middle" x="3322.5" y="-83.8" font-family="Times,serif" font-size="14.00">data 12.9600</text>
<polyline fill="none" stroke="black" points="3378,-69.5 3378,-105.5 "/>
<text text-anchor="middle" x="3430" y="-83.8" font-family="Times,serif" font-size="14.00">grad 0.0000</text>
</g>
<!-- 140625756794416* -->
<g id="node4" class="node">
<title>140625756794416*</title>
<ellipse fill="none" stroke="black" cx="3089" cy="-87.5" rx="27" ry="18"/>
<text text-anchor="middle" x="3089" y="-83.8" font-family="Times,serif" font-size="14.00">*</text>
</g>
<!-- 140625756794416*&#45;&gt;140625756794416 -->
<g id="edge1" class="edge">
<title>140625756794416*&#45;&gt;140625756794416</title>
<path fill="none" stroke="black" d="M3116.37,-87.5C3123.71,-87.5 3132.28,-87.5 3141.65,-87.5"/>
<polygon fill="black" stroke="black" points="3141.7,-91 3151.7,-87.5 3141.7,-84 3141.7,-91"/>
</g>
<!-- 140625756790240 -->
<g id="node5" class="node">
<title>140625756790240</title>
<polygon fill="none" stroke="black" points="984.5,-190.5 984.5,-226.5 1340.5,-226.5 1340.5,-190.5 984.5,-190.5"/>
<text text-anchor="middle" x="1010.5" y="-204.8" font-family="Times,serif" font-size="14.00">v011</text>
<polyline fill="none" stroke="black" points="1036.5,-190.5 1036.5,-226.5 "/>
<text text-anchor="middle" x="1054" y="-204.8" font-family="Times,serif" font-size="14.00">L1</text>
<polyline fill="none" stroke="black" points="1071.5,-190.5 1071.5,-226.5 "/>
<text text-anchor="middle" x="1090.5" y="-204.8" font-family="Times,serif" font-size="14.00">N1</text>
<polyline fill="none" stroke="black" points="1109.5,-190.5 1109.5,-226.5 "/>
<text text-anchor="middle" x="1122" y="-204.8" font-family="Times,serif" font-size="14.00">a</text>
<polyline fill="none" stroke="black" points="1134.5,-190.5 1134.5,-226.5 "/>
<text text-anchor="middle" x="1185.5" y="-204.8" font-family="Times,serif" font-size="14.00">data 2.0000</text>
<polyline fill="none" stroke="black" points="1236.5,-190.5 1236.5,-226.5 "/>
<text text-anchor="middle" x="1288.5" y="-204.8" font-family="Times,serif" font-size="14.00">grad 0.6000</text>
</g>
<!-- 140625756791488* -->
<g id="node15" class="node">
<title>140625756791488*</title>
<ellipse fill="none" stroke="black" cx="1410" cy="-166.5" rx="27" ry="18"/>
<text text-anchor="middle" x="1410" y="-162.8" font-family="Times,serif" font-size="14.00">*</text>
</g>
<!-- 140625756790240&#45;&gt;140625756791488* -->
<g id="edge18" class="edge">
<title>140625756790240&#45;&gt;140625756791488*</title>
<path fill="none" stroke="black" d="M1296.05,-190.47C1313.23,-187.7 1330.56,-184.69 1347,-181.5 1356.08,-179.74 1365.84,-177.53 1374.87,-175.35"/>
<polygon fill="black" stroke="black" points="1375.8,-178.72 1384.67,-172.93 1374.12,-171.93 1375.8,-178.72"/>
</g>
<!-- 140625756790240+ -->
<g id="node6" class="node">
<title>140625756790240+</title>
<ellipse fill="none" stroke="black" cx="915" cy="-208.5" rx="27" ry="18"/>
<text text-anchor="middle" x="915" y="-204.8" font-family="Times,serif" font-size="14.00">+</text>
</g>
<!-- 140625756790240+&#45;&gt;140625756790240 -->
<g id="edge2" class="edge">
<title>140625756790240+&#45;&gt;140625756790240</title>
<path fill="none" stroke="black" d="M942.27,-208.5C951.26,-208.5 962.11,-208.5 974.12,-208.5"/>
<polygon fill="black" stroke="black" points="974.46,-212 984.46,-208.5 974.46,-205 974.46,-212"/>
</g>
<!-- 140625756794992 -->
<g id="node7" class="node">
<title>140625756794992</title>
<polygon fill="none" stroke="black" points="2223,-95.5 2223,-131.5 2544,-131.5 2544,-95.5 2223,-95.5"/>
<text text-anchor="middle" x="2249" y="-109.8" font-family="Times,serif" font-size="14.00">v015</text>
<polyline fill="none" stroke="black" points="2275,-95.5 2275,-131.5 "/>
<text text-anchor="middle" x="2285.5" y="-109.8" font-family="Times,serif" font-size="14.00"> </text>
<polyline fill="none" stroke="black" points="2296,-95.5 2296,-131.5 "/>
<text text-anchor="middle" x="2306.5" y="-109.8" font-family="Times,serif" font-size="14.00"> </text>
<polyline fill="none" stroke="black" points="2317,-95.5 2317,-131.5 "/>
<text text-anchor="middle" x="2327.5" y="-109.8" font-family="Times,serif" font-size="14.00"> </text>
<polyline fill="none" stroke="black" points="2338,-95.5 2338,-131.5 "/>
<text text-anchor="middle" x="2389" y="-109.8" font-family="Times,serif" font-size="14.00">data 1.2000</text>
<polyline fill="none" stroke="black" points="2440,-95.5 2440,-131.5 "/>
<text text-anchor="middle" x="2492" y="-109.8" font-family="Times,serif" font-size="14.00">grad 1.0000</text>
</g>
<!-- 140625756894448+ -->
<g id="node21" class="node">
<title>140625756894448+</title>
<ellipse fill="none" stroke="black" cx="2607" cy="-87.5" rx="27" ry="18"/>
<text text-anchor="middle" x="2607" y="-83.8" font-family="Times,serif" font-size="14.00">+</text>
</g>
<!-- 140625756794992&#45;&gt;140625756894448+ -->
<g id="edge22" class="edge">
<title>140625756794992&#45;&gt;140625756894448+</title>
<path fill="none" stroke="black" d="M2538.04,-95.48C2549.67,-94.11 2560.55,-92.83 2570.06,-91.72"/>
<polygon fill="black" stroke="black" points="2570.64,-95.17 2580.17,-90.53 2569.83,-88.22 2570.64,-95.17"/>
</g>
<!-- 140625756794992+ -->
<g id="node8" class="node">
<title>140625756794992+</title>
<ellipse fill="none" stroke="black" cx="2026.5" cy="-115.5" rx="27" ry="18"/>
<text text-anchor="middle" x="2026.5" y="-111.8" font-family="Times,serif" font-size="14.00">+</text>
</g>
<!-- 140625756794992+&#45;&gt;140625756794992 -->
<g id="edge3" class="edge">
<title>140625756794992+&#45;&gt;140625756794992</title>
<path fill="none" stroke="black" d="M2053.6,-115.35C2087.81,-115.16 2150.72,-114.81 2212.43,-114.46"/>
<polygon fill="black" stroke="black" points="2212.74,-117.96 2222.72,-114.4 2212.7,-110.96 2212.74,-117.96"/>
</g>
<!-- 140625756790384 -->
<g id="node9" class="node">
<title>140625756790384</title>
<polygon fill="none" stroke="black" points="513,-220.5 513,-256.5 834,-256.5 834,-220.5 513,-220.5"/>
<text text-anchor="middle" x="539" y="-234.8" font-family="Times,serif" font-size="14.00">v010</text>
<polyline fill="none" stroke="black" points="565,-220.5 565,-256.5 "/>
<text text-anchor="middle" x="575.5" y="-234.8" font-family="Times,serif" font-size="14.00"> </text>
<polyline fill="none" stroke="black" points="586,-220.5 586,-256.5 "/>
<text text-anchor="middle" x="596.5" y="-234.8" font-family="Times,serif" font-size="14.00"> </text>
<polyline fill="none" stroke="black" points="607,-220.5 607,-256.5 "/>
<text text-anchor="middle" x="617.5" y="-234.8" font-family="Times,serif" font-size="14.00"> </text>
<polyline fill="none" stroke="black" points="628,-220.5 628,-256.5 "/>
<text text-anchor="middle" x="679" y="-234.8" font-family="Times,serif" font-size="14.00">data 2.0000</text>
<polyline fill="none" stroke="black" points="730,-220.5 730,-256.5 "/>
<text text-anchor="middle" x="782" y="-234.8" font-family="Times,serif" font-size="14.00">grad 0.6000</text>
</g>
<!-- 140625756790384&#45;&gt;140625756790240+ -->
<g id="edge12" class="edge">
<title>140625756790384&#45;&gt;140625756790240+</title>
<path fill="none" stroke="black" d="M818.31,-220.49C840.31,-217.73 861.19,-215.12 877.79,-213.04"/>
<polygon fill="black" stroke="black" points="878.57,-216.47 888.05,-211.75 877.7,-209.52 878.57,-216.47"/>
</g>
<!-- 140625756790384*&#45;&gt;140625756790384 -->
<g id="edge4" class="edge">
<title>140625756790384*&#45;&gt;140625756790384</title>
<path fill="none" stroke="black" d="M459.09,-238.5C470.83,-238.5 485.78,-238.5 502.29,-238.5"/>
<polygon fill="black" stroke="black" points="502.75,-242 512.75,-238.5 502.75,-235 502.75,-242"/>
</g>
<!-- 140625756787360 -->
<g id="node11" class="node">
<title>140625756787360</title>
<polygon fill="none" stroke="black" points="513,-110.5 513,-146.5 834,-146.5 834,-110.5 513,-110.5"/>
<text text-anchor="middle" x="539" y="-124.8" font-family="Times,serif" font-size="14.00">v012</text>
<polyline fill="none" stroke="black" points="565,-110.5 565,-146.5 "/>
<text text-anchor="middle" x="575.5" y="-124.8" font-family="Times,serif" font-size="14.00"> </text>
<polyline fill="none" stroke="black" points="586,-110.5 586,-146.5 "/>
<text text-anchor="middle" x="596.5" y="-124.8" font-family="Times,serif" font-size="14.00"> </text>
<polyline fill="none" stroke="black" points="607,-110.5 607,-146.5 "/>
<text text-anchor="middle" x="617.5" y="-124.8" font-family="Times,serif" font-size="14.00"> </text>
<polyline fill="none" stroke="black" points="628,-110.5 628,-146.5 "/>
<text text-anchor="middle" x="679" y="-124.8" font-family="Times,serif" font-size="14.00">data 2.0000</text>
<polyline fill="none" stroke="black" points="730,-110.5 730,-146.5 "/>
<text text-anchor="middle" x="782" y="-124.8" font-family="Times,serif" font-size="14.00">grad 1.2000</text>
</g>
<!-- 140625756798160+ -->
<g id="node17" class="node">
<title>140625756798160+</title>
<ellipse fill="none" stroke="black" cx="915" cy="-73.5" rx="27" ry="18"/>
<text text-anchor="middle" x="915" y="-69.8" font-family="Times,serif" font-size="14.00">+</text>
</g>
<!-- 140625756787360&#45;&gt;140625756798160+ -->
<g id="edge25" class="edge">
<title>140625756787360&#45;&gt;140625756798160+</title>
<path fill="none" stroke="black" d="M811.44,-110.5C825.25,-107.61 838.97,-104.3 852,-100.5 862.68,-97.39 873.94,-92.88 883.9,-88.44"/>
<polygon fill="black" stroke="black" points="885.37,-91.62 892.98,-84.25 882.43,-85.26 885.37,-91.62"/>
</g>
<!-- 140625756787360*&#45;&gt;140625756787360 -->
<g id="edge5" class="edge">
<title>140625756787360*&#45;&gt;140625756787360</title>
<path fill="none" stroke="black" d="M459.09,-128.5C470.83,-128.5 485.78,-128.5 502.29,-128.5"/>
<polygon fill="black" stroke="black" points="502.75,-132 512.75,-128.5 502.75,-125 502.75,-132"/>
</g>
<!-- 140625757228720 -->
<g id="node13" class="node">
<title>140625757228720</title>
<polygon fill="none" stroke="black" points="495,-165.5 495,-201.5 852,-201.5 852,-165.5 495,-165.5"/>
<text text-anchor="middle" x="521" y="-179.8" font-family="Times,serif" font-size="14.00">v002</text>
<polyline fill="none" stroke="black" points="547,-165.5 547,-201.5 "/>
<text text-anchor="middle" x="564.5" y="-179.8" font-family="Times,serif" font-size="14.00">L1</text>
<polyline fill="none" stroke="black" points="582,-165.5 582,-201.5 "/>
<text text-anchor="middle" x="601" y="-179.8" font-family="Times,serif" font-size="14.00">N1</text>
<polyline fill="none" stroke="black" points="620,-165.5 620,-201.5 "/>
<text text-anchor="middle" x="633" y="-179.8" font-family="Times,serif" font-size="14.00">b</text>
<polyline fill="none" stroke="black" points="646,-165.5 646,-201.5 "/>
<text text-anchor="middle" x="697" y="-179.8" font-family="Times,serif" font-size="14.00">data 0.0000</text>
<polyline fill="none" stroke="black" points="748,-165.5 748,-201.5 "/>
<text text-anchor="middle" x="800" y="-179.8" font-family="Times,serif" font-size="14.00">grad 0.6000</text>
</g>
<!-- 140625757228720&#45;&gt;140625756790240+ -->
<g id="edge16" class="edge">
<title>140625757228720&#45;&gt;140625756790240+</title>
<path fill="none" stroke="black" d="M846.97,-201.5C858.25,-202.68 868.76,-203.78 877.95,-204.74"/>
<polygon fill="black" stroke="black" points="877.79,-208.24 888.1,-205.8 878.52,-201.28 877.79,-208.24"/>
</g>
<!-- 140625756791488 -->
<g id="node14" class="node">
<title>140625756791488</title>
<polygon fill="none" stroke="black" points="1491,-148.5 1491,-184.5 1812,-184.5 1812,-148.5 1491,-148.5"/>
<text text-anchor="middle" x="1517" y="-162.8" font-family="Times,serif" font-size="14.00">v014</text>
<polyline fill="none" stroke="black" points="1543,-148.5 1543,-184.5 "/>
<text text-anchor="middle" x="1553.5" y="-162.8" font-family="Times,serif" font-size="14.00"> </text>
<polyline fill="none" stroke="black" points="1564,-148.5 1564,-184.5 "/>
<text text-anchor="middle" x="1574.5" y="-162.8" font-family="Times,serif" font-size="14.00"> </text>
<polyline fill="none" stroke="black" points="1585,-148.5 1585,-184.5 "/>
<text text-anchor="middle" x="1595.5" y="-162.8" font-family="Times,serif" font-size="14.00"> </text>
<polyline fill="none" stroke="black" points="1606,-148.5 1606,-184.5 "/>
<text text-anchor="middle" x="1657" y="-162.8" font-family="Times,serif" font-size="14.00">data 1.2000</text>
<polyline fill="none" stroke="black" points="1708,-148.5 1708,-184.5 "/>
<text text-anchor="middle" x="1760" y="-162.8" font-family="Times,serif" font-size="14.00">grad 1.0000</text>
</g>
<!-- 140625756791488&#45;&gt;140625756794992+ -->
<g id="edge11" class="edge">
<title>140625756791488&#45;&gt;140625756794992+</title>
<path fill="none" stroke="black" d="M1784.27,-148.48C1857.36,-138.49 1942.76,-126.81 1989.82,-120.38"/>
<polygon fill="black" stroke="black" points="1990.38,-123.83 1999.82,-119.01 1989.43,-116.9 1990.38,-123.83"/>
</g>
<!-- 140625756791488*&#45;&gt;140625756791488 -->
<g id="edge6" class="edge">
<title>140625756791488*&#45;&gt;140625756791488</title>
<path fill="none" stroke="black" d="M1437.09,-166.5C1448.83,-166.5 1463.78,-166.5 1480.29,-166.5"/>
<polygon fill="black" stroke="black" points="1480.75,-170 1490.75,-166.5 1480.75,-163 1480.75,-170"/>
</g>
<!-- 140625756798160 -->
<g id="node16" class="node">
<title>140625756798160</title>
<polygon fill="none" stroke="black" points="984.5,-55.5 984.5,-91.5 1340.5,-91.5 1340.5,-55.5 984.5,-55.5"/>
<text text-anchor="middle" x="1010.5" y="-69.8" font-family="Times,serif" font-size="14.00">v013</text>
<polyline fill="none" stroke="black" points="1036.5,-55.5 1036.5,-91.5 "/>
<text text-anchor="middle" x="1054" y="-69.8" font-family="Times,serif" font-size="14.00">L1</text>
<polyline fill="none" stroke="black" points="1071.5,-55.5 1071.5,-91.5 "/>
<text text-anchor="middle" x="1090.5" y="-69.8" font-family="Times,serif" font-size="14.00">N2</text>
<polyline fill="none" stroke="black" points="1109.5,-55.5 1109.5,-91.5 "/>
<text text-anchor="middle" x="1122" y="-69.8" font-family="Times,serif" font-size="14.00">a</text>
<polyline fill="none" stroke="black" points="1134.5,-55.5 1134.5,-91.5 "/>
<text text-anchor="middle" x="1185.5" y="-69.8" font-family="Times,serif" font-size="14.00">data 2.0000</text>
<polyline fill="none" stroke="black" points="1236.5,-55.5 1236.5,-91.5 "/>
<text text-anchor="middle" x="1288.5" y="-69.8" font-family="Times,serif" font-size="14.00">grad 1.2000</text>
</g>
<!-- 140625756892384* -->
<g id="node19" class="node">
<title>140625756892384*</title>
<ellipse fill="none" stroke="black" cx="1410" cy="-60.5" rx="27" ry="18"/>
<text text-anchor="middle" x="1410" y="-56.8" font-family="Times,serif" font-size="14.00">*</text>
</g>
<!-- 140625756798160&#45;&gt;140625756892384* -->
<g id="edge14" class="edge">
<title>140625756798160&#45;&gt;140625756892384*</title>
<path fill="none" stroke="black" d="M1340.61,-64.12C1352.37,-63.5 1363.29,-62.92 1372.8,-62.42"/>
<polygon fill="black" stroke="black" points="1373.11,-65.91 1382.91,-61.88 1372.74,-58.92 1373.11,-65.91"/>
</g>
<!-- 140625756798160+&#45;&gt;140625756798160 -->
<g id="edge7" class="edge">
<title>140625756798160+&#45;&gt;140625756798160</title>
<path fill="none" stroke="black" d="M942.27,-73.5C951.26,-73.5 962.11,-73.5 974.12,-73.5"/>
<polygon fill="black" stroke="black" points="974.46,-77 984.46,-73.5 974.46,-70 974.46,-77"/>
</g>
<!-- 140625756892384 -->
<g id="node18" class="node">
<title>140625756892384</title>
<polygon fill="none" stroke="black" points="1866,-42.5 1866,-78.5 2187,-78.5 2187,-42.5 1866,-42.5"/>
<text text-anchor="middle" x="1892" y="-56.8" font-family="Times,serif" font-size="14.00">v016</text>
<polyline fill="none" stroke="black" points="1918,-42.5 1918,-78.5 "/>
<text text-anchor="middle" x="1928.5" y="-56.8" font-family="Times,serif" font-size="14.00"> </text>
<polyline fill="none" stroke="black" points="1939,-42.5 1939,-78.5 "/>
<text text-anchor="middle" x="1949.5" y="-56.8" font-family="Times,serif" font-size="14.00"> </text>
<polyline fill="none" stroke="black" points="1960,-42.5 1960,-78.5 "/>
<text text-anchor="middle" x="1970.5" y="-56.8" font-family="Times,serif" font-size="14.00"> </text>
<polyline fill="none" stroke="black" points="1981,-42.5 1981,-78.5 "/>
<text text-anchor="middle" x="2032" y="-56.8" font-family="Times,serif" font-size="14.00">data 2.4000</text>
<polyline fill="none" stroke="black" points="2083,-42.5 2083,-78.5 "/>
<text text-anchor="middle" x="2135" y="-56.8" font-family="Times,serif" font-size="14.00">grad 1.0000</text>
</g>
<!-- 140625756892384&#45;&gt;140625756894448+ -->
<g id="edge15" class="edge">
<title>140625756892384&#45;&gt;140625756894448+</title>
<path fill="none" stroke="black" d="M2187.11,-67.95C2318.28,-74.07 2494.3,-82.29 2569.48,-85.8"/>
<polygon fill="black" stroke="black" points="2569.67,-89.31 2579.82,-86.28 2570,-82.32 2569.67,-89.31"/>
</g>
<!-- 140625756892384*&#45;&gt;140625756892384 -->
<g id="edge8" class="edge">
<title>140625756892384*&#45;&gt;140625756892384</title>
<path fill="none" stroke="black" d="M1437.01,-60.5C1507.8,-60.5 1708.47,-60.5 1855.87,-60.5"/>
<polygon fill="black" stroke="black" points="1855.95,-64 1865.95,-60.5 1855.95,-57 1855.95,-64"/>
</g>
<!-- 140625756894448 -->
<g id="node20" class="node">
<title>140625756894448</title>
<polygon fill="none" stroke="black" points="2670,-69.5 2670,-105.5 3026,-105.5 3026,-69.5 2670,-69.5"/>
<text text-anchor="middle" x="2696" y="-83.8" font-family="Times,serif" font-size="14.00">v017</text>
<polyline fill="none" stroke="black" points="2722,-69.5 2722,-105.5 "/>
<text text-anchor="middle" x="2739.5" y="-83.8" font-family="Times,serif" font-size="14.00">L2</text>
<polyline fill="none" stroke="black" points="2757,-69.5 2757,-105.5 "/>
<text text-anchor="middle" x="2776" y="-83.8" font-family="Times,serif" font-size="14.00">N1</text>
<polyline fill="none" stroke="black" points="2795,-69.5 2795,-105.5 "/>
<text text-anchor="middle" x="2807.5" y="-83.8" font-family="Times,serif" font-size="14.00">a</text>
<polyline fill="none" stroke="black" points="2820,-69.5 2820,-105.5 "/>
<text text-anchor="middle" x="2871" y="-83.8" font-family="Times,serif" font-size="14.00">data 3.6000</text>
<polyline fill="none" stroke="black" points="2922,-69.5 2922,-105.5 "/>
<text text-anchor="middle" x="2974" y="-83.8" font-family="Times,serif" font-size="14.00">grad 1.0000</text>
</g>
<!-- 140625756894448&#45;&gt;140625756794416* -->
<g id="edge23" class="edge">
<title>140625756894448&#45;&gt;140625756794416*</title>
<path fill="none" stroke="black" d="M3026.14,-87.5C3035.34,-87.5 3043.94,-87.5 3051.63,-87.5"/>
<polygon fill="black" stroke="black" points="3051.86,-91 3061.86,-87.5 3051.86,-84 3051.86,-91"/>
</g>
<!-- 140625756894448+&#45;&gt;140625756894448 -->
<g id="edge9" class="edge">
<title>140625756894448+&#45;&gt;140625756894448</title>
<path fill="none" stroke="black" d="M2634.03,-87.5C2641.4,-87.5 2650.02,-87.5 2659.49,-87.5"/>
<polygon fill="black" stroke="black" points="2659.66,-91 2669.66,-87.5 2659.66,-84 2659.66,-91"/>
</g>
<!-- 140626157073648 -->
<g id="node22" class="node">
<title>140626157073648</title>
<polygon fill="none" stroke="black" points="19.5,-165.5 19.5,-201.5 349.5,-201.5 349.5,-165.5 19.5,-165.5"/>
<text text-anchor="middle" x="45.5" y="-179.8" font-family="Times,serif" font-size="14.00">v008</text>
<polyline fill="none" stroke="black" points="71.5,-165.5 71.5,-201.5 "/>
<text text-anchor="middle" x="82" y="-179.8" font-family="Times,serif" font-size="14.00"> </text>
<polyline fill="none" stroke="black" points="92.5,-165.5 92.5,-201.5 "/>
<text text-anchor="middle" x="103" y="-179.8" font-family="Times,serif" font-size="14.00"> </text>
<polyline fill="none" stroke="black" points="113.5,-165.5 113.5,-201.5 "/>
<text text-anchor="middle" x="128.5" y="-179.8" font-family="Times,serif" font-size="14.00">i1</text>
<polyline fill="none" stroke="black" points="143.5,-165.5 143.5,-201.5 "/>
<text text-anchor="middle" x="194.5" y="-179.8" font-family="Times,serif" font-size="14.00">data 4.0000</text>
<polyline fill="none" stroke="black" points="245.5,-165.5 245.5,-201.5 "/>
<text text-anchor="middle" x="297.5" y="-179.8" font-family="Times,serif" font-size="14.00">grad 0.9000</text>
</g>
<!-- 140626157073648&#45;&gt;140625756790384* -->
<g id="edge26" class="edge">
<title>140626157073648&#45;&gt;140625756790384*</title>
<path fill="none" stroke="black" d="M328.05,-201.51C341.99,-204.39 355.84,-207.7 369,-211.5 379.68,-214.58 390.95,-219.08 400.91,-223.53"/>
<polygon fill="black" stroke="black" points="399.44,-226.71 409.99,-227.72 402.38,-220.35 399.44,-226.71"/>
</g>
<!-- 140626157073648&#45;&gt;140625756787360* -->
<g id="edge19" class="edge">
<title>140626157073648&#45;&gt;140625756787360*</title>
<path fill="none" stroke="black" d="M333.02,-165.49C345.28,-162.88 357.41,-159.9 369,-156.5 379.82,-153.33 391.2,-148.63 401.21,-143.98"/>
<polygon fill="black" stroke="black" points="402.83,-147.08 410.32,-139.59 399.79,-140.77 402.83,-147.08"/>
</g>
<!-- 140625757228768 -->
<g id="node23" class="node">
<title>140625757228768</title>
<polygon fill="none" stroke="black" points="495,-55.5 495,-91.5 852,-91.5 852,-55.5 495,-55.5"/>
<text text-anchor="middle" x="521" y="-69.8" font-family="Times,serif" font-size="14.00">v004</text>
<polyline fill="none" stroke="black" points="547,-55.5 547,-91.5 "/>
<text text-anchor="middle" x="564.5" y="-69.8" font-family="Times,serif" font-size="14.00">L1</text>
<polyline fill="none" stroke="black" points="582,-55.5 582,-91.5 "/>
<text text-anchor="middle" x="601" y="-69.8" font-family="Times,serif" font-size="14.00">N2</text>
<polyline fill="none" stroke="black" points="620,-55.5 620,-91.5 "/>
<text text-anchor="middle" x="633" y="-69.8" font-family="Times,serif" font-size="14.00">b</text>
<polyline fill="none" stroke="black" points="646,-55.5 646,-91.5 "/>
<text text-anchor="middle" x="697" y="-69.8" font-family="Times,serif" font-size="14.00">data 0.0000</text>
<polyline fill="none" stroke="black" points="748,-55.5 748,-91.5 "/>
<text text-anchor="middle" x="800" y="-69.8" font-family="Times,serif" font-size="14.00">grad 1.2000</text>
</g>
<!-- 140625757228768&#45;&gt;140625756798160+ -->
<g id="edge24" class="edge">
<title>140625757228768&#45;&gt;140625756798160+</title>
<path fill="none" stroke="black" d="M852.01,-73.5C861.23,-73.5 869.85,-73.5 877.55,-73.5"/>
<polygon fill="black" stroke="black" points="877.81,-77 887.81,-73.5 877.81,-70 877.81,-77"/>
</g>
<!-- 140625757232368 -->
<g id="node24" class="node">
<title>140625757232368</title>
<polygon fill="none" stroke="black" points="978,-135.5 978,-171.5 1347,-171.5 1347,-135.5 978,-135.5"/>
<text text-anchor="middle" x="1004" y="-149.8" font-family="Times,serif" font-size="14.00">v005</text>
<polyline fill="none" stroke="black" points="1030,-135.5 1030,-171.5 "/>
<text text-anchor="middle" x="1047.5" y="-149.8" font-family="Times,serif" font-size="14.00">L2</text>
<polyline fill="none" stroke="black" points="1065,-135.5 1065,-171.5 "/>
<text text-anchor="middle" x="1084" y="-149.8" font-family="Times,serif" font-size="14.00">N1</text>
<polyline fill="none" stroke="black" points="1103,-135.5 1103,-171.5 "/>
<text text-anchor="middle" x="1122" y="-149.8" font-family="Times,serif" font-size="14.00">w1</text>
<polyline fill="none" stroke="black" points="1141,-135.5 1141,-171.5 "/>
<text text-anchor="middle" x="1192" y="-149.8" font-family="Times,serif" font-size="14.00">data 0.6000</text>
<polyline fill="none" stroke="black" points="1243,-135.5 1243,-171.5 "/>
<text text-anchor="middle" x="1295" y="-149.8" font-family="Times,serif" font-size="14.00">grad 2.0000</text>
</g>
<!-- 140625757232368&#45;&gt;140625756791488* -->
<g id="edge17" class="edge">
<title>140625757232368&#45;&gt;140625756791488*</title>
<path fill="none" stroke="black" d="M1347.05,-163.22C1356.29,-163.71 1364.92,-164.17 1372.62,-164.57"/>
<polygon fill="black" stroke="black" points="1372.7,-168.08 1382.87,-165.12 1373.07,-161.09 1372.7,-168.08"/>
</g>
<!-- 140625757226416 -->
<g id="node25" class="node">
<title>140625757226416</title>
<polygon fill="none" stroke="black" points="1473,-93.5 1473,-129.5 1830,-129.5 1830,-93.5 1473,-93.5"/>
<text text-anchor="middle" x="1499" y="-107.8" font-family="Times,serif" font-size="14.00">v007</text>
<polyline fill="none" stroke="black" points="1525,-93.5 1525,-129.5 "/>
<text text-anchor="middle" x="1542.5" y="-107.8" font-family="Times,serif" font-size="14.00">L2</text>
<polyline fill="none" stroke="black" points="1560,-93.5 1560,-129.5 "/>
<text text-anchor="middle" x="1579" y="-107.8" font-family="Times,serif" font-size="14.00">N1</text>
<polyline fill="none" stroke="black" points="1598,-93.5 1598,-129.5 "/>
<text text-anchor="middle" x="1611" y="-107.8" font-family="Times,serif" font-size="14.00">b</text>
<polyline fill="none" stroke="black" points="1624,-93.5 1624,-129.5 "/>
<text text-anchor="middle" x="1675" y="-107.8" font-family="Times,serif" font-size="14.00">data 0.0000</text>
<polyline fill="none" stroke="black" points="1726,-93.5 1726,-129.5 "/>
<text text-anchor="middle" x="1778" y="-107.8" font-family="Times,serif" font-size="14.00">grad 1.0000</text>
</g>
<!-- 140625757226416&#45;&gt;140625756794992+ -->
<g id="edge13" class="edge">
<title>140625757226416&#45;&gt;140625756794992+</title>
<path fill="none" stroke="black" d="M1830.26,-113.41C1890.2,-114.05 1951.35,-114.7 1988.87,-115.11"/>
<polygon fill="black" stroke="black" points="1989.23,-118.61 1999.26,-115.22 1989.3,-111.61 1989.23,-118.61"/>
</g>
<!-- 140625757226464 -->
<g id="node26" class="node">
<title>140625757226464</title>
<polygon fill="none" stroke="black" points="978,-0.5 978,-36.5 1347,-36.5 1347,-0.5 978,-0.5"/>
<text text-anchor="middle" x="1004" y="-14.8" font-family="Times,serif" font-size="14.00">v006</text>
<polyline fill="none" stroke="black" points="1030,-0.5 1030,-36.5 "/>
<text text-anchor="middle" x="1047.5" y="-14.8" font-family="Times,serif" font-size="14.00">L2</text>
<polyline fill="none" stroke="black" points="1065,-0.5 1065,-36.5 "/>
<text text-anchor="middle" x="1084" y="-14.8" font-family="Times,serif" font-size="14.00">N1</text>
<polyline fill="none" stroke="black" points="1103,-0.5 1103,-36.5 "/>
<text text-anchor="middle" x="1122" y="-14.8" font-family="Times,serif" font-size="14.00">w2</text>
<polyline fill="none" stroke="black" points="1141,-0.5 1141,-36.5 "/>
<text text-anchor="middle" x="1192" y="-14.8" font-family="Times,serif" font-size="14.00">data 1.2000</text>
<polyline fill="none" stroke="black" points="1243,-0.5 1243,-36.5 "/>
<text text-anchor="middle" x="1295" y="-14.8" font-family="Times,serif" font-size="14.00">grad 2.0000</text>
</g>
<!-- 140625757226464&#45;&gt;140625756892384* -->
<g id="edge10" class="edge">
<title>140625757226464&#45;&gt;140625756892384*</title>
<path fill="none" stroke="black" d="M1296.05,-36.53C1313.23,-39.3 1330.56,-42.31 1347,-45.5 1356.08,-47.26 1365.84,-49.47 1374.87,-51.65"/>
<polygon fill="black" stroke="black" points="1374.12,-55.07 1384.67,-54.07 1375.8,-48.28 1374.12,-55.07"/>
</g>
</g>
</svg>
