<?xml version="1.0" encoding="UTF-8" standalone="no"?>
<!DOCTYPE svg PUBLIC "-//W3C//DTD SVG 1.1//EN"
 "http://www.w3.org/Graphics/SVG/1.1/DTD/svg11.dtd">
<!-- Generated by graphviz version 2.43.0 (0)
 -->
<!-- Title: %3 Pages: 1 -->
<svg width="3520pt" height="210pt"
 viewBox="0.00 0.00 3520.00 210.00" xmlns="http://www.w3.org/2000/svg" xmlns:xlink="http://www.w3.org/1999/xlink">
<g id="graph0" class="graph" transform="scale(1 1) rotate(0) translate(4 206)">
<title>%3</title>
<polygon fill="white" stroke="transparent" points="-4,4 -4,-206 3516,-206 3516,4 -4,4"/>
<!-- 140260402421264 -->
<g id="node1" class="node">
<title>140260402421264</title>
<polygon fill="none" stroke="black" points="515.5,-55.5 515.5,-91.5 836.5,-91.5 836.5,-55.5 515.5,-55.5"/>
<text text-anchor="middle" x="541.5" y="-69.8" font-family="Times,serif" font-size="14.00">v046</text>
<polyline fill="none" stroke="black" points="567.5,-55.5 567.5,-91.5 "/>
<text text-anchor="middle" x="578" y="-69.8" font-family="Times,serif" font-size="14.00"> </text>
<polyline fill="none" stroke="black" points="588.5,-55.5 588.5,-91.5 "/>
<text text-anchor="middle" x="599" y="-69.8" font-family="Times,serif" font-size="14.00"> </text>
<polyline fill="none" stroke="black" points="609.5,-55.5 609.5,-91.5 "/>
<text text-anchor="middle" x="620" y="-69.8" font-family="Times,serif" font-size="14.00"> </text>
<polyline fill="none" stroke="black" points="630.5,-55.5 630.5,-91.5 "/>
<text text-anchor="middle" x="681.5" y="-69.8" font-family="Times,serif" font-size="14.00">data 1.0058</text>
<polyline fill="none" stroke="black" points="732.5,-55.5 732.5,-91.5 "/>
<text text-anchor="middle" x="784.5" y="-69.8" font-family="Times,serif" font-size="14.00">grad 0.0000</text>
</g>
<!-- 140260402425968+ -->
<g id="node5" class="node">
<title>140260402425968+</title>
<ellipse fill="none" stroke="black" cx="920" cy="-73.5" rx="27" ry="18"/>
<text text-anchor="middle" x="920" y="-69.8" font-family="Times,serif" font-size="14.00">+</text>
</g>
<!-- 140260402421264&#45;&gt;140260402425968+ -->
<g id="edge13" class="edge">
<title>140260402421264&#45;&gt;140260402425968+</title>
<path fill="none" stroke="black" d="M836.73,-73.5C853.54,-73.5 869.24,-73.5 882.32,-73.5"/>
<polygon fill="black" stroke="black" points="882.66,-77 892.66,-73.5 882.66,-70 882.66,-77"/>
</g>
<!-- 140260402421264* -->
<g id="node2" class="node">
<title>140260402421264*</title>
<ellipse fill="none" stroke="black" cx="432" cy="-73.5" rx="27" ry="18"/>
<text text-anchor="middle" x="432" y="-69.8" font-family="Times,serif" font-size="14.00">*</text>
</g>
<!-- 140260402421264*&#45;&gt;140260402421264 -->
<g id="edge1" class="edge">
<title>140260402421264*&#45;&gt;140260402421264</title>
<path fill="none" stroke="black" d="M459.36,-73.5C471.7,-73.5 487.53,-73.5 505,-73.5"/>
<polygon fill="black" stroke="black" points="505.46,-77 515.46,-73.5 505.46,-70 505.46,-77"/>
</g>
<!-- 140260402419584 -->
<g id="node3" class="node">
<title>140260402419584</title>
<polygon fill="none" stroke="black" points="0,-55.5 0,-91.5 369,-91.5 369,-55.5 0,-55.5"/>
<text text-anchor="middle" x="26" y="-69.8" font-family="Times,serif" font-size="14.00">v001</text>
<polyline fill="none" stroke="black" points="52,-55.5 52,-91.5 "/>
<text text-anchor="middle" x="69.5" y="-69.8" font-family="Times,serif" font-size="14.00">L1</text>
<polyline fill="none" stroke="black" points="87,-55.5 87,-91.5 "/>
<text text-anchor="middle" x="106" y="-69.8" font-family="Times,serif" font-size="14.00">N1</text>
<polyline fill="none" stroke="black" points="125,-55.5 125,-91.5 "/>
<text text-anchor="middle" x="144" y="-69.8" font-family="Times,serif" font-size="14.00">w1</text>
<polyline fill="none" stroke="black" points="163,-55.5 163,-91.5 "/>
<text text-anchor="middle" x="214" y="-69.8" font-family="Times,serif" font-size="14.00">data 0.2514</text>
<polyline fill="none" stroke="black" points="265,-55.5 265,-91.5 "/>
<text text-anchor="middle" x="317" y="-69.8" font-family="Times,serif" font-size="14.00">grad 4.5995</text>
</g>
<!-- 140260402419584&#45;&gt;140260402421264* -->
<g id="edge14" class="edge">
<title>140260402419584&#45;&gt;140260402421264*</title>
<path fill="none" stroke="black" d="M369.05,-73.5C378.29,-73.5 386.92,-73.5 394.62,-73.5"/>
<polygon fill="black" stroke="black" points="394.87,-77 404.87,-73.5 394.87,-70 394.87,-77"/>
</g>
<!-- 140260402425968 -->
<g id="node4" class="node">
<title>140260402425968</title>
<polygon fill="none" stroke="black" points="996.5,-55.5 996.5,-91.5 1352.5,-91.5 1352.5,-55.5 996.5,-55.5"/>
<text text-anchor="middle" x="1022.5" y="-69.8" font-family="Times,serif" font-size="14.00">v047</text>
<polyline fill="none" stroke="black" points="1048.5,-55.5 1048.5,-91.5 "/>
<text text-anchor="middle" x="1066" y="-69.8" font-family="Times,serif" font-size="14.00">L1</text>
<polyline fill="none" stroke="black" points="1083.5,-55.5 1083.5,-91.5 "/>
<text text-anchor="middle" x="1102.5" y="-69.8" font-family="Times,serif" font-size="14.00">N1</text>
<polyline fill="none" stroke="black" points="1121.5,-55.5 1121.5,-91.5 "/>
<text text-anchor="middle" x="1134" y="-69.8" font-family="Times,serif" font-size="14.00">a</text>
<polyline fill="none" stroke="black" points="1146.5,-55.5 1146.5,-91.5 "/>
<text text-anchor="middle" x="1197.5" y="-69.8" font-family="Times,serif" font-size="14.00">data 0.9437</text>
<polyline fill="none" stroke="black" points="1248.5,-55.5 1248.5,-91.5 "/>
<text text-anchor="middle" x="1300.5" y="-69.8" font-family="Times,serif" font-size="14.00">grad 0.0000</text>
</g>
<!-- 140260402426688* -->
<g id="node20" class="node">
<title>140260402426688*</title>
<ellipse fill="none" stroke="black" cx="1429" cy="-73.5" rx="27" ry="18"/>
<text text-anchor="middle" x="1429" y="-69.8" font-family="Times,serif" font-size="14.00">*</text>
</g>
<!-- 140260402425968&#45;&gt;140260402426688* -->
<g id="edge20" class="edge">
<title>140260402425968&#45;&gt;140260402426688*</title>
<path fill="none" stroke="black" d="M1352.58,-73.5C1366.97,-73.5 1380.31,-73.5 1391.63,-73.5"/>
<polygon fill="black" stroke="black" points="1391.85,-77 1401.85,-73.5 1391.85,-70 1391.85,-77"/>
</g>
<!-- 140260402425968+&#45;&gt;140260402425968 -->
<g id="edge2" class="edge">
<title>140260402425968+&#45;&gt;140260402425968</title>
<path fill="none" stroke="black" d="M947.07,-73.5C957.82,-73.5 971.27,-73.5 986.23,-73.5"/>
<polygon fill="black" stroke="black" points="986.27,-77 996.27,-73.5 986.27,-70 986.27,-77"/>
</g>
<!-- 140260402419344 -->
<g id="node6" class="node">
<title>140260402419344</title>
<polygon fill="none" stroke="black" points="983,-165.5 983,-201.5 1366,-201.5 1366,-165.5 983,-165.5"/>
<text text-anchor="middle" x="1009" y="-179.8" font-family="Times,serif" font-size="14.00">v006</text>
<polyline fill="none" stroke="black" points="1035,-165.5 1035,-201.5 "/>
<text text-anchor="middle" x="1052.5" y="-179.8" font-family="Times,serif" font-size="14.00">L2</text>
<polyline fill="none" stroke="black" points="1070,-165.5 1070,-201.5 "/>
<text text-anchor="middle" x="1089" y="-179.8" font-family="Times,serif" font-size="14.00">N1</text>
<polyline fill="none" stroke="black" points="1108,-165.5 1108,-201.5 "/>
<text text-anchor="middle" x="1127" y="-179.8" font-family="Times,serif" font-size="14.00">w2</text>
<polyline fill="none" stroke="black" points="1146,-165.5 1146,-201.5 "/>
<text text-anchor="middle" x="1199.5" y="-179.8" font-family="Times,serif" font-size="14.00">data &#45;0.2623</text>
<polyline fill="none" stroke="black" points="1253,-165.5 1253,-201.5 "/>
<text text-anchor="middle" x="1309.5" y="-179.8" font-family="Times,serif" font-size="14.00">grad 12.1940</text>
</g>
<!-- 140260402419104* -->
<g id="node10" class="node">
<title>140260402419104*</title>
<ellipse fill="none" stroke="black" cx="1429" cy="-128.5" rx="27" ry="18"/>
<text text-anchor="middle" x="1429" y="-124.8" font-family="Times,serif" font-size="14.00">*</text>
</g>
<!-- 140260402419344&#45;&gt;140260402419104* -->
<g id="edge15" class="edge">
<title>140260402419344&#45;&gt;140260402419104*</title>
<path fill="none" stroke="black" d="M1329.66,-165.49C1342.05,-162.88 1354.29,-159.9 1366,-156.5 1376.83,-153.36 1388.21,-148.66 1398.22,-144.01"/>
<polygon fill="black" stroke="black" points="1399.84,-147.11 1407.33,-139.62 1396.8,-140.81 1399.84,-147.11"/>
</g>
<!-- 140260402428560 -->
<g id="node7" class="node">
<title>140260402428560</title>
<polygon fill="none" stroke="black" points="996.5,-110.5 996.5,-146.5 1352.5,-146.5 1352.5,-110.5 996.5,-110.5"/>
<text text-anchor="middle" x="1022.5" y="-124.8" font-family="Times,serif" font-size="14.00">v049</text>
<polyline fill="none" stroke="black" points="1048.5,-110.5 1048.5,-146.5 "/>
<text text-anchor="middle" x="1066" y="-124.8" font-family="Times,serif" font-size="14.00">L1</text>
<polyline fill="none" stroke="black" points="1083.5,-110.5 1083.5,-146.5 "/>
<text text-anchor="middle" x="1102.5" y="-124.8" font-family="Times,serif" font-size="14.00">N2</text>
<polyline fill="none" stroke="black" points="1121.5,-110.5 1121.5,-146.5 "/>
<text text-anchor="middle" x="1134" y="-124.8" font-family="Times,serif" font-size="14.00">a</text>
<polyline fill="none" stroke="black" points="1146.5,-110.5 1146.5,-146.5 "/>
<text text-anchor="middle" x="1197.5" y="-124.8" font-family="Times,serif" font-size="14.00">data 2.9948</text>
<polyline fill="none" stroke="black" points="1248.5,-110.5 1248.5,-146.5 "/>
<text text-anchor="middle" x="1300.5" y="-124.8" font-family="Times,serif" font-size="14.00">grad 0.0000</text>
</g>
<!-- 140260402428560&#45;&gt;140260402419104* -->
<g id="edge26" class="edge">
<title>140260402428560&#45;&gt;140260402419104*</title>
<path fill="none" stroke="black" d="M1352.58,-128.5C1366.97,-128.5 1380.31,-128.5 1391.63,-128.5"/>
<polygon fill="black" stroke="black" points="1391.85,-132 1401.85,-128.5 1391.85,-125 1391.85,-132"/>
</g>
<!-- 140260402428560+ -->
<g id="node8" class="node">
<title>140260402428560+</title>
<ellipse fill="none" stroke="black" cx="920" cy="-128.5" rx="27" ry="18"/>
<text text-anchor="middle" x="920" y="-124.8" font-family="Times,serif" font-size="14.00">+</text>
</g>
<!-- 140260402428560+&#45;&gt;140260402428560 -->
<g id="edge3" class="edge">
<title>140260402428560+&#45;&gt;140260402428560</title>
<path fill="none" stroke="black" d="M947.07,-128.5C957.82,-128.5 971.27,-128.5 986.23,-128.5"/>
<polygon fill="black" stroke="black" points="986.27,-132 996.27,-128.5 986.27,-125 986.27,-132"/>
</g>
<!-- 140260402419104 -->
<g id="node9" class="node">
<title>140260402419104</title>
<polygon fill="none" stroke="black" points="1890,-110.5 1890,-146.5 2216,-146.5 2216,-110.5 1890,-110.5"/>
<text text-anchor="middle" x="1916" y="-124.8" font-family="Times,serif" font-size="14.00">v052</text>
<polyline fill="none" stroke="black" points="1942,-110.5 1942,-146.5 "/>
<text text-anchor="middle" x="1952.5" y="-124.8" font-family="Times,serif" font-size="14.00"> </text>
<polyline fill="none" stroke="black" points="1963,-110.5 1963,-146.5 "/>
<text text-anchor="middle" x="1973.5" y="-124.8" font-family="Times,serif" font-size="14.00"> </text>
<polyline fill="none" stroke="black" points="1984,-110.5 1984,-146.5 "/>
<text text-anchor="middle" x="1994.5" y="-124.8" font-family="Times,serif" font-size="14.00"> </text>
<polyline fill="none" stroke="black" points="2005,-110.5 2005,-146.5 "/>
<text text-anchor="middle" x="2058.5" y="-124.8" font-family="Times,serif" font-size="14.00">data &#45;0.7855</text>
<polyline fill="none" stroke="black" points="2112,-110.5 2112,-146.5 "/>
<text text-anchor="middle" x="2164" y="-124.8" font-family="Times,serif" font-size="14.00">grad 0.0000</text>
</g>
<!-- 140260402429760+ -->
<g id="node16" class="node">
<title>140260402429760+</title>
<ellipse fill="none" stroke="black" cx="2641" cy="-100.5" rx="27" ry="18"/>
<text text-anchor="middle" x="2641" y="-96.8" font-family="Times,serif" font-size="14.00">+</text>
</g>
<!-- 140260402419104&#45;&gt;140260402429760+ -->
<g id="edge24" class="edge">
<title>140260402419104&#45;&gt;140260402429760+</title>
<path fill="none" stroke="black" d="M2216.07,-122.92C2319.64,-118.97 2456.78,-113.05 2578,-105.5 2586.43,-104.98 2595.49,-104.3 2604.02,-103.63"/>
<polygon fill="black" stroke="black" points="2604.39,-107.11 2614.07,-102.8 2603.82,-100.13 2604.39,-107.11"/>
</g>
<!-- 140260402419104*&#45;&gt;140260402419104 -->
<g id="edge4" class="edge">
<title>140260402419104*&#45;&gt;140260402419104</title>
<path fill="none" stroke="black" d="M1456.33,-128.5C1527.87,-128.5 1730.46,-128.5 1879.6,-128.5"/>
<polygon fill="black" stroke="black" points="1879.79,-132 1889.79,-128.5 1879.79,-125 1879.79,-132"/>
</g>
<!-- 140260402423280 -->
<g id="node11" class="node">
<title>140260402423280</title>
<polygon fill="none" stroke="black" points="2252,-59.5 2252,-95.5 2578,-95.5 2578,-59.5 2252,-59.5"/>
<text text-anchor="middle" x="2278" y="-73.8" font-family="Times,serif" font-size="14.00">v051</text>
<polyline fill="none" stroke="black" points="2304,-59.5 2304,-95.5 "/>
<text text-anchor="middle" x="2314.5" y="-73.8" font-family="Times,serif" font-size="14.00"> </text>
<polyline fill="none" stroke="black" points="2325,-59.5 2325,-95.5 "/>
<text text-anchor="middle" x="2335.5" y="-73.8" font-family="Times,serif" font-size="14.00"> </text>
<polyline fill="none" stroke="black" points="2346,-59.5 2346,-95.5 "/>
<text text-anchor="middle" x="2356.5" y="-73.8" font-family="Times,serif" font-size="14.00"> </text>
<polyline fill="none" stroke="black" points="2367,-59.5 2367,-95.5 "/>
<text text-anchor="middle" x="2420.5" y="-73.8" font-family="Times,serif" font-size="14.00">data &#45;0.6013</text>
<polyline fill="none" stroke="black" points="2474,-59.5 2474,-95.5 "/>
<text text-anchor="middle" x="2526" y="-73.8" font-family="Times,serif" font-size="14.00">grad 0.0000</text>
</g>
<!-- 140260402423280&#45;&gt;140260402429760+ -->
<g id="edge22" class="edge">
<title>140260402423280&#45;&gt;140260402429760+</title>
<path fill="none" stroke="black" d="M2578.2,-94.15C2587.51,-95.11 2596.24,-96.01 2604.04,-96.81"/>
<polygon fill="black" stroke="black" points="2603.76,-100.3 2614.06,-97.84 2604.47,-93.33 2603.76,-100.3"/>
</g>
<!-- 140260402423280+ -->
<g id="node12" class="node">
<title>140260402423280+</title>
<ellipse fill="none" stroke="black" cx="2053" cy="-73.5" rx="27" ry="18"/>
<text text-anchor="middle" x="2053" y="-69.8" font-family="Times,serif" font-size="14.00">+</text>
</g>
<!-- 140260402423280+&#45;&gt;140260402423280 -->
<g id="edge5" class="edge">
<title>140260402423280+&#45;&gt;140260402423280</title>
<path fill="none" stroke="black" d="M2080.18,-73.79C2114.81,-74.18 2178.83,-74.89 2241.62,-75.58"/>
<polygon fill="black" stroke="black" points="2241.64,-79.08 2251.68,-75.7 2241.72,-72.09 2241.64,-79.08"/>
</g>
<!-- 140260402422512 -->
<g id="node13" class="node">
<title>140260402422512</title>
<polygon fill="none" stroke="black" points="495,-0.5 495,-36.5 857,-36.5 857,-0.5 495,-0.5"/>
<text text-anchor="middle" x="521" y="-14.8" font-family="Times,serif" font-size="14.00">v002</text>
<polyline fill="none" stroke="black" points="547,-0.5 547,-36.5 "/>
<text text-anchor="middle" x="564.5" y="-14.8" font-family="Times,serif" font-size="14.00">L1</text>
<polyline fill="none" stroke="black" points="582,-0.5 582,-36.5 "/>
<text text-anchor="middle" x="601" y="-14.8" font-family="Times,serif" font-size="14.00">N1</text>
<polyline fill="none" stroke="black" points="620,-0.5 620,-36.5 "/>
<text text-anchor="middle" x="633" y="-14.8" font-family="Times,serif" font-size="14.00">b</text>
<polyline fill="none" stroke="black" points="646,-0.5 646,-36.5 "/>
<text text-anchor="middle" x="699.5" y="-14.8" font-family="Times,serif" font-size="14.00">data &#45;0.0621</text>
<polyline fill="none" stroke="black" points="753,-0.5 753,-36.5 "/>
<text text-anchor="middle" x="805" y="-14.8" font-family="Times,serif" font-size="14.00">grad 1.1499</text>
</g>
<!-- 140260402422512&#45;&gt;140260402425968+ -->
<g id="edge17" class="edge">
<title>140260402422512&#45;&gt;140260402425968+</title>
<path fill="none" stroke="black" d="M816.35,-36.52C830.19,-39.4 843.94,-42.71 857,-46.5 867.68,-49.6 878.95,-54.1 888.9,-58.55"/>
<polygon fill="black" stroke="black" points="887.44,-61.72 897.98,-62.74 890.37,-55.37 887.44,-61.72"/>
</g>
<!-- 140260402419632 -->
<g id="node14" class="node">
<title>140260402419632</title>
<polygon fill="none" stroke="black" points="1492,-0.5 1492,-36.5 1854,-36.5 1854,-0.5 1492,-0.5"/>
<text text-anchor="middle" x="1518" y="-14.8" font-family="Times,serif" font-size="14.00">v007</text>
<polyline fill="none" stroke="black" points="1544,-0.5 1544,-36.5 "/>
<text text-anchor="middle" x="1561.5" y="-14.8" font-family="Times,serif" font-size="14.00">L2</text>
<polyline fill="none" stroke="black" points="1579,-0.5 1579,-36.5 "/>
<text text-anchor="middle" x="1598" y="-14.8" font-family="Times,serif" font-size="14.00">N1</text>
<polyline fill="none" stroke="black" points="1617,-0.5 1617,-36.5 "/>
<text text-anchor="middle" x="1630" y="-14.8" font-family="Times,serif" font-size="14.00">b</text>
<polyline fill="none" stroke="black" points="1643,-0.5 1643,-36.5 "/>
<text text-anchor="middle" x="1696.5" y="-14.8" font-family="Times,serif" font-size="14.00">data &#45;0.6673</text>
<polyline fill="none" stroke="black" points="1750,-0.5 1750,-36.5 "/>
<text text-anchor="middle" x="1802" y="-14.8" font-family="Times,serif" font-size="14.00">grad 3.1150</text>
</g>
<!-- 140260402419632&#45;&gt;140260402423280+ -->
<g id="edge25" class="edge">
<title>140260402419632&#45;&gt;140260402423280+</title>
<path fill="none" stroke="black" d="M1797.77,-36.51C1874.16,-47.62 1966.75,-61.1 2016.41,-68.32"/>
<polygon fill="black" stroke="black" points="2015.93,-71.79 2026.33,-69.77 2016.94,-64.86 2015.93,-71.79"/>
</g>
<!-- 140260402429760 -->
<g id="node15" class="node">
<title>140260402429760</title>
<polygon fill="none" stroke="black" points="2704,-82.5 2704,-118.5 3065,-118.5 3065,-82.5 2704,-82.5"/>
<text text-anchor="middle" x="2730" y="-96.8" font-family="Times,serif" font-size="14.00">v053</text>
<polyline fill="none" stroke="black" points="2756,-82.5 2756,-118.5 "/>
<text text-anchor="middle" x="2773.5" y="-96.8" font-family="Times,serif" font-size="14.00">L2</text>
<polyline fill="none" stroke="black" points="2791,-82.5 2791,-118.5 "/>
<text text-anchor="middle" x="2810" y="-96.8" font-family="Times,serif" font-size="14.00">N1</text>
<polyline fill="none" stroke="black" points="2829,-82.5 2829,-118.5 "/>
<text text-anchor="middle" x="2841.5" y="-96.8" font-family="Times,serif" font-size="14.00">a</text>
<polyline fill="none" stroke="black" points="2854,-82.5 2854,-118.5 "/>
<text text-anchor="middle" x="2907.5" y="-96.8" font-family="Times,serif" font-size="14.00">data &#45;1.3869</text>
<polyline fill="none" stroke="black" points="2961,-82.5 2961,-118.5 "/>
<text text-anchor="middle" x="3013" y="-96.8" font-family="Times,serif" font-size="14.00">grad 0.0000</text>
</g>
<!-- 140260402426784* -->
<g id="node23" class="node">
<title>140260402426784*</title>
<ellipse fill="none" stroke="black" cx="3128" cy="-100.5" rx="27" ry="18"/>
<text text-anchor="middle" x="3128" y="-96.8" font-family="Times,serif" font-size="14.00">*</text>
</g>
<!-- 140260402429760&#45;&gt;140260402426784* -->
<g id="edge16" class="edge">
<title>140260402429760&#45;&gt;140260402426784*</title>
<path fill="none" stroke="black" d="M3065.12,-100.5C3074.34,-100.5 3082.94,-100.5 3090.64,-100.5"/>
<polygon fill="black" stroke="black" points="3090.87,-104 3100.87,-100.5 3090.87,-97 3090.87,-104"/>
</g>
<!-- 140260402429760+&#45;&gt;140260402429760 -->
<g id="edge6" class="edge">
<title>140260402429760+&#45;&gt;140260402429760</title>
<path fill="none" stroke="black" d="M2668.3,-100.5C2675.65,-100.5 2684.24,-100.5 2693.68,-100.5"/>
<polygon fill="black" stroke="black" points="2693.81,-104 2703.81,-100.5 2693.81,-97 2693.81,-104"/>
</g>
<!-- 140260402425152 -->
<g id="node17" class="node">
<title>140260402425152</title>
<polygon fill="none" stroke="black" points="515.5,-165.5 515.5,-201.5 836.5,-201.5 836.5,-165.5 515.5,-165.5"/>
<text text-anchor="middle" x="541.5" y="-179.8" font-family="Times,serif" font-size="14.00">v048</text>
<polyline fill="none" stroke="black" points="567.5,-165.5 567.5,-201.5 "/>
<text text-anchor="middle" x="578" y="-179.8" font-family="Times,serif" font-size="14.00"> </text>
<polyline fill="none" stroke="black" points="588.5,-165.5 588.5,-201.5 "/>
<text text-anchor="middle" x="599" y="-179.8" font-family="Times,serif" font-size="14.00"> </text>
<polyline fill="none" stroke="black" points="609.5,-165.5 609.5,-201.5 "/>
<text text-anchor="middle" x="620" y="-179.8" font-family="Times,serif" font-size="14.00"> </text>
<polyline fill="none" stroke="black" points="630.5,-165.5 630.5,-201.5 "/>
<text text-anchor="middle" x="681.5" y="-179.8" font-family="Times,serif" font-size="14.00">data 2.9363</text>
<polyline fill="none" stroke="black" points="732.5,-165.5 732.5,-201.5 "/>
<text text-anchor="middle" x="784.5" y="-179.8" font-family="Times,serif" font-size="14.00">grad 0.0000</text>
</g>
<!-- 140260402425152&#45;&gt;140260402428560+ -->
<g id="edge10" class="edge">
<title>140260402425152&#45;&gt;140260402428560+</title>
<path fill="none" stroke="black" d="M821.22,-165.49C833.42,-162.88 845.48,-159.89 857,-156.5 867.82,-153.31 879.19,-148.61 889.2,-143.96"/>
<polygon fill="black" stroke="black" points="890.82,-147.06 898.32,-139.57 887.79,-140.76 890.82,-147.06"/>
</g>
<!-- 140260402425152* -->
<g id="node18" class="node">
<title>140260402425152*</title>
<ellipse fill="none" stroke="black" cx="432" cy="-183.5" rx="27" ry="18"/>
<text text-anchor="middle" x="432" y="-179.8" font-family="Times,serif" font-size="14.00">*</text>
</g>
<!-- 140260402425152*&#45;&gt;140260402425152 -->
<g id="edge7" class="edge">
<title>140260402425152*&#45;&gt;140260402425152</title>
<path fill="none" stroke="black" d="M459.36,-183.5C471.7,-183.5 487.53,-183.5 505,-183.5"/>
<polygon fill="black" stroke="black" points="505.46,-187 515.46,-183.5 505.46,-180 505.46,-187"/>
</g>
<!-- 140260402426688 -->
<g id="node19" class="node">
<title>140260402426688</title>
<polygon fill="none" stroke="black" points="1512.5,-55.5 1512.5,-91.5 1833.5,-91.5 1833.5,-55.5 1512.5,-55.5"/>
<text text-anchor="middle" x="1538.5" y="-69.8" font-family="Times,serif" font-size="14.00">v050</text>
<polyline fill="none" stroke="black" points="1564.5,-55.5 1564.5,-91.5 "/>
<text text-anchor="middle" x="1575" y="-69.8" font-family="Times,serif" font-size="14.00"> </text>
<polyline fill="none" stroke="black" points="1585.5,-55.5 1585.5,-91.5 "/>
<text text-anchor="middle" x="1596" y="-69.8" font-family="Times,serif" font-size="14.00"> </text>
<polyline fill="none" stroke="black" points="1606.5,-55.5 1606.5,-91.5 "/>
<text text-anchor="middle" x="1617" y="-69.8" font-family="Times,serif" font-size="14.00"> </text>
<polyline fill="none" stroke="black" points="1627.5,-55.5 1627.5,-91.5 "/>
<text text-anchor="middle" x="1678.5" y="-69.8" font-family="Times,serif" font-size="14.00">data 0.0660</text>
<polyline fill="none" stroke="black" points="1729.5,-55.5 1729.5,-91.5 "/>
<text text-anchor="middle" x="1781.5" y="-69.8" font-family="Times,serif" font-size="14.00">grad 0.0000</text>
</g>
<!-- 140260402426688&#45;&gt;140260402423280+ -->
<g id="edge19" class="edge">
<title>140260402426688&#45;&gt;140260402423280+</title>
<path fill="none" stroke="black" d="M1833.76,-73.5C1901.19,-73.5 1973.7,-73.5 2015.85,-73.5"/>
<polygon fill="black" stroke="black" points="2015.89,-77 2025.89,-73.5 2015.89,-70 2015.89,-77"/>
</g>
<!-- 140260402426688*&#45;&gt;140260402426688 -->
<g id="edge8" class="edge">
<title>140260402426688*&#45;&gt;140260402426688</title>
<path fill="none" stroke="black" d="M1456.36,-73.5C1468.7,-73.5 1484.53,-73.5 1502,-73.5"/>
<polygon fill="black" stroke="black" points="1502.46,-77 1512.46,-73.5 1502.46,-70 1502.46,-77"/>
</g>
<!-- 140260402422656 -->
<g id="node21" class="node">
<title>140260402422656</title>
<polygon fill="none" stroke="black" points="0,-165.5 0,-201.5 369,-201.5 369,-165.5 0,-165.5"/>
<text text-anchor="middle" x="26" y="-179.8" font-family="Times,serif" font-size="14.00">v003</text>
<polyline fill="none" stroke="black" points="52,-165.5 52,-201.5 "/>
<text text-anchor="middle" x="69.5" y="-179.8" font-family="Times,serif" font-size="14.00">L1</text>
<polyline fill="none" stroke="black" points="87,-165.5 87,-201.5 "/>
<text text-anchor="middle" x="106" y="-179.8" font-family="Times,serif" font-size="14.00">N2</text>
<polyline fill="none" stroke="black" points="125,-165.5 125,-201.5 "/>
<text text-anchor="middle" x="144" y="-179.8" font-family="Times,serif" font-size="14.00">w1</text>
<polyline fill="none" stroke="black" points="163,-165.5 163,-201.5 "/>
<text text-anchor="middle" x="214" y="-179.8" font-family="Times,serif" font-size="14.00">data 0.7341</text>
<polyline fill="none" stroke="black" points="265,-165.5 265,-201.5 "/>
<text text-anchor="middle" x="317" y="-179.8" font-family="Times,serif" font-size="14.00">grad 4.3286</text>
</g>
<!-- 140260402422656&#45;&gt;140260402425152* -->
<g id="edge18" class="edge">
<title>140260402422656&#45;&gt;140260402425152*</title>
<path fill="none" stroke="black" d="M369.05,-183.5C378.29,-183.5 386.92,-183.5 394.62,-183.5"/>
<polygon fill="black" stroke="black" points="394.87,-187 404.87,-183.5 394.87,-180 394.87,-187"/>
</g>
<!-- 140260402426784 -->
<g id="node22" class="node">
<title>140260402426784</title>
<polygon fill="none" stroke="black" points="3191,-82.5 3191,-118.5 3512,-118.5 3512,-82.5 3191,-82.5"/>
<text text-anchor="middle" x="3217" y="-96.8" font-family="Times,serif" font-size="14.00">v054</text>
<polyline fill="none" stroke="black" points="3243,-82.5 3243,-118.5 "/>
<text text-anchor="middle" x="3253.5" y="-96.8" font-family="Times,serif" font-size="14.00"> </text>
<polyline fill="none" stroke="black" points="3264,-82.5 3264,-118.5 "/>
<text text-anchor="middle" x="3274.5" y="-96.8" font-family="Times,serif" font-size="14.00"> </text>
<polyline fill="none" stroke="black" points="3285,-82.5 3285,-118.5 "/>
<text text-anchor="middle" x="3295.5" y="-96.8" font-family="Times,serif" font-size="14.00">l</text>
<polyline fill="none" stroke="black" points="3306,-82.5 3306,-118.5 "/>
<text text-anchor="middle" x="3357" y="-96.8" font-family="Times,serif" font-size="14.00">data 1.9234</text>
<polyline fill="none" stroke="black" points="3408,-82.5 3408,-118.5 "/>
<text text-anchor="middle" x="3460" y="-96.8" font-family="Times,serif" font-size="14.00">grad 0.0000</text>
</g>
<!-- 140260402426784*&#45;&gt;140260402426784 -->
<g id="edge9" class="edge">
<title>140260402426784*&#45;&gt;140260402426784</title>
<path fill="none" stroke="black" d="M3155.28,-100.5C3162.68,-100.5 3171.32,-100.5 3180.76,-100.5"/>
<polygon fill="black" stroke="black" points="3180.88,-104 3190.88,-100.5 3180.88,-97 3180.88,-104"/>
</g>
<!-- 140260402422704 -->
<g id="node24" class="node">
<title>140260402422704</title>
<polygon fill="none" stroke="black" points="497.5,-110.5 497.5,-146.5 854.5,-146.5 854.5,-110.5 497.5,-110.5"/>
<text text-anchor="middle" x="523.5" y="-124.8" font-family="Times,serif" font-size="14.00">v004</text>
<polyline fill="none" stroke="black" points="549.5,-110.5 549.5,-146.5 "/>
<text text-anchor="middle" x="567" y="-124.8" font-family="Times,serif" font-size="14.00">L1</text>
<polyline fill="none" stroke="black" points="584.5,-110.5 584.5,-146.5 "/>
<text text-anchor="middle" x="603.5" y="-124.8" font-family="Times,serif" font-size="14.00">N2</text>
<polyline fill="none" stroke="black" points="622.5,-110.5 622.5,-146.5 "/>
<text text-anchor="middle" x="635.5" y="-124.8" font-family="Times,serif" font-size="14.00">b</text>
<polyline fill="none" stroke="black" points="648.5,-110.5 648.5,-146.5 "/>
<text text-anchor="middle" x="699.5" y="-124.8" font-family="Times,serif" font-size="14.00">data 0.0585</text>
<polyline fill="none" stroke="black" points="750.5,-110.5 750.5,-146.5 "/>
<text text-anchor="middle" x="802.5" y="-124.8" font-family="Times,serif" font-size="14.00">grad 1.0821</text>
</g>
<!-- 140260402422704&#45;&gt;140260402428560+ -->
<g id="edge11" class="edge">
<title>140260402422704&#45;&gt;140260402428560+</title>
<path fill="none" stroke="black" d="M854.78,-128.5C864.82,-128.5 874.18,-128.5 882.49,-128.5"/>
<polygon fill="black" stroke="black" points="882.76,-132 892.76,-128.5 882.76,-125 882.76,-132"/>
</g>
<!-- 140260402419680 -->
<g id="node25" class="node">
<title>140260402419680</title>
<polygon fill="none" stroke="black" points="990,-0.5 990,-36.5 1359,-36.5 1359,-0.5 990,-0.5"/>
<text text-anchor="middle" x="1016" y="-14.8" font-family="Times,serif" font-size="14.00">v005</text>
<polyline fill="none" stroke="black" points="1042,-0.5 1042,-36.5 "/>
<text text-anchor="middle" x="1059.5" y="-14.8" font-family="Times,serif" font-size="14.00">L2</text>
<polyline fill="none" stroke="black" points="1077,-0.5 1077,-36.5 "/>
<text text-anchor="middle" x="1096" y="-14.8" font-family="Times,serif" font-size="14.00">N1</text>
<polyline fill="none" stroke="black" points="1115,-0.5 1115,-36.5 "/>
<text text-anchor="middle" x="1134" y="-14.8" font-family="Times,serif" font-size="14.00">w1</text>
<polyline fill="none" stroke="black" points="1153,-0.5 1153,-36.5 "/>
<text text-anchor="middle" x="1204" y="-14.8" font-family="Times,serif" font-size="14.00">data 0.0699</text>
<polyline fill="none" stroke="black" points="1255,-0.5 1255,-36.5 "/>
<text text-anchor="middle" x="1307" y="-14.8" font-family="Times,serif" font-size="14.00">grad 5.9841</text>
</g>
<!-- 140260402419680&#45;&gt;140260402426688* -->
<g id="edge21" class="edge">
<title>140260402419680&#45;&gt;140260402426688*</title>
<path fill="none" stroke="black" d="M1324.51,-36.5C1338.64,-39.38 1352.66,-42.69 1366,-46.5 1376.69,-49.56 1387.96,-54.05 1397.92,-58.49"/>
<polygon fill="black" stroke="black" points="1396.45,-61.67 1407,-62.69 1399.39,-55.32 1396.45,-61.67"/>
</g>
<!-- 140260953974256 -->
<g id="node26" class="node">
<title>140260953974256</title>
<polygon fill="none" stroke="black" points="19.5,-110.5 19.5,-146.5 349.5,-146.5 349.5,-110.5 19.5,-110.5"/>
<text text-anchor="middle" x="45.5" y="-124.8" font-family="Times,serif" font-size="14.00">v008</text>
<polyline fill="none" stroke="black" points="71.5,-110.5 71.5,-146.5 "/>
<text text-anchor="middle" x="82" y="-124.8" font-family="Times,serif" font-size="14.00"> </text>
<polyline fill="none" stroke="black" points="92.5,-110.5 92.5,-146.5 "/>
<text text-anchor="middle" x="103" y="-124.8" font-family="Times,serif" font-size="14.00"> </text>
<polyline fill="none" stroke="black" points="113.5,-110.5 113.5,-146.5 "/>
<text text-anchor="middle" x="128.5" y="-124.8" font-family="Times,serif" font-size="14.00">i1</text>
<polyline fill="none" stroke="black" points="143.5,-110.5 143.5,-146.5 "/>
<text text-anchor="middle" x="194.5" y="-124.8" font-family="Times,serif" font-size="14.00">data 4.0000</text>
<polyline fill="none" stroke="black" points="245.5,-110.5 245.5,-146.5 "/>
<text text-anchor="middle" x="297.5" y="-124.8" font-family="Times,serif" font-size="14.00">grad 1.5822</text>
</g>
<!-- 140260953974256&#45;&gt;140260402421264* -->
<g id="edge23" class="edge">
<title>140260953974256&#45;&gt;140260402421264*</title>
<path fill="none" stroke="black" d="M333.02,-110.49C345.28,-107.88 357.41,-104.9 369,-101.5 379.82,-98.33 391.2,-93.63 401.21,-88.98"/>
<polygon fill="black" stroke="black" points="402.83,-92.08 410.32,-84.59 399.79,-85.77 402.83,-92.08"/>
</g>
<!-- 140260953974256&#45;&gt;140260402425152* -->
<g id="edge12" class="edge">
<title>140260953974256&#45;&gt;140260402425152*</title>
<path fill="none" stroke="black" d="M328.05,-146.51C341.99,-149.39 355.84,-152.7 369,-156.5 379.68,-159.58 390.95,-164.08 400.91,-168.53"/>
<polygon fill="black" stroke="black" points="399.44,-171.71 409.99,-172.72 402.38,-165.35 399.44,-171.71"/>
</g>
</g>
</svg>
