<?xml version="1.0" encoding="UTF-8" standalone="no"?>
<!DOCTYPE svg PUBLIC "-//W3C//DTD SVG 1.1//EN"
 "http://www.w3.org/Graphics/SVG/1.1/DTD/svg11.dtd">
<!-- Generated by graphviz version 2.43.0 (0)
 -->
<!-- Title: %3 Pages: 1 -->
<svg width="3049pt" height="238pt"
 viewBox="0.00 0.00 3049.00 238.00" xmlns="http://www.w3.org/2000/svg" xmlns:xlink="http://www.w3.org/1999/xlink">
<g id="graph0" class="graph" transform="scale(1 1) rotate(0) translate(4 234)">
<title>%3</title>
<polygon fill="white" stroke="transparent" points="-4,4 -4,-234 3045,-234 3045,4 -4,4"/>
<!-- 139883124667920 -->
<g id="node1" class="node">
<title>139883124667920</title>
<polygon fill="none" stroke="black" points="520.5,-28.5 520.5,-64.5 841.5,-64.5 841.5,-28.5 520.5,-28.5"/>
<text text-anchor="middle" x="546.5" y="-42.8" font-family="Times,serif" font-size="14.00">v040</text>
<polyline fill="none" stroke="black" points="572.5,-28.5 572.5,-64.5 "/>
<text text-anchor="middle" x="583" y="-42.8" font-family="Times,serif" font-size="14.00"> </text>
<polyline fill="none" stroke="black" points="593.5,-28.5 593.5,-64.5 "/>
<text text-anchor="middle" x="604" y="-42.8" font-family="Times,serif" font-size="14.00"> </text>
<polyline fill="none" stroke="black" points="614.5,-28.5 614.5,-64.5 "/>
<text text-anchor="middle" x="625" y="-42.8" font-family="Times,serif" font-size="14.00"> </text>
<polyline fill="none" stroke="black" points="635.5,-28.5 635.5,-64.5 "/>
<text text-anchor="middle" x="686.5" y="-42.8" font-family="Times,serif" font-size="14.00">data 1.1200</text>
<polyline fill="none" stroke="black" points="737.5,-28.5 737.5,-64.5 "/>
<text text-anchor="middle" x="789.5" y="-42.8" font-family="Times,serif" font-size="14.00">grad 0.4255</text>
</g>
<!-- 139883124660912+ -->
<g id="node10" class="node">
<title>139883124660912+</title>
<ellipse fill="none" stroke="black" cx="925" cy="-73.5" rx="27" ry="18"/>
<text text-anchor="middle" x="925" y="-69.8" font-family="Times,serif" font-size="14.00">+</text>
</g>
<!-- 139883124667920&#45;&gt;139883124660912+ -->
<g id="edge14" class="edge">
<title>139883124667920&#45;&gt;139883124660912+</title>
<path fill="none" stroke="black" d="M841.73,-64.32C858.85,-66.23 874.82,-68.01 888.04,-69.49"/>
<polygon fill="black" stroke="black" points="887.7,-72.97 898.03,-70.6 888.48,-66.01 887.7,-72.97"/>
</g>
<!-- 139883124667920* -->
<g id="node2" class="node">
<title>139883124667920*</title>
<ellipse fill="none" stroke="black" cx="437" cy="-46.5" rx="27" ry="18"/>
<text text-anchor="middle" x="437" y="-42.8" font-family="Times,serif" font-size="14.00">*</text>
</g>
<!-- 139883124667920*&#45;&gt;139883124667920 -->
<g id="edge1" class="edge">
<title>139883124667920*&#45;&gt;139883124667920</title>
<path fill="none" stroke="black" d="M464.36,-46.5C476.7,-46.5 492.53,-46.5 510,-46.5"/>
<polygon fill="black" stroke="black" points="510.46,-50 520.46,-46.5 510.46,-43 510.46,-50"/>
</g>
<!-- 139883734297632 -->
<g id="node3" class="node">
<title>139883734297632</title>
<polygon fill="none" stroke="black" points="500,-83.5 500,-119.5 862,-119.5 862,-83.5 500,-83.5"/>
<text text-anchor="middle" x="526" y="-97.8" font-family="Times,serif" font-size="14.00">v002</text>
<polyline fill="none" stroke="black" points="552,-83.5 552,-119.5 "/>
<text text-anchor="middle" x="569.5" y="-97.8" font-family="Times,serif" font-size="14.00">L1</text>
<polyline fill="none" stroke="black" points="587,-83.5 587,-119.5 "/>
<text text-anchor="middle" x="606" y="-97.8" font-family="Times,serif" font-size="14.00">N1</text>
<polyline fill="none" stroke="black" points="625,-83.5 625,-119.5 "/>
<text text-anchor="middle" x="638" y="-97.8" font-family="Times,serif" font-size="14.00">b</text>
<polyline fill="none" stroke="black" points="651,-83.5 651,-119.5 "/>
<text text-anchor="middle" x="704.5" y="-97.8" font-family="Times,serif" font-size="14.00">data &#45;0.0763</text>
<polyline fill="none" stroke="black" points="758,-83.5 758,-119.5 "/>
<text text-anchor="middle" x="810" y="-97.8" font-family="Times,serif" font-size="14.00">grad 0.4255</text>
</g>
<!-- 139883734297632&#45;&gt;139883124660912+ -->
<g id="edge18" class="edge">
<title>139883734297632&#45;&gt;139883124660912+</title>
<path fill="none" stroke="black" d="M837.66,-83.49C856.23,-81.34 873.61,-79.33 887.84,-77.68"/>
<polygon fill="black" stroke="black" points="888.54,-81.13 898.08,-76.5 887.74,-74.17 888.54,-81.13"/>
</g>
<!-- 139883124658752 -->
<g id="node4" class="node">
<title>139883124658752</title>
<polygon fill="none" stroke="black" points="988,-0.5 988,-36.5 1357,-36.5 1357,-0.5 988,-0.5"/>
<text text-anchor="middle" x="1014" y="-14.8" font-family="Times,serif" font-size="14.00">v005</text>
<polyline fill="none" stroke="black" points="1040,-0.5 1040,-36.5 "/>
<text text-anchor="middle" x="1057.5" y="-14.8" font-family="Times,serif" font-size="14.00">L2</text>
<polyline fill="none" stroke="black" points="1075,-0.5 1075,-36.5 "/>
<text text-anchor="middle" x="1094" y="-14.8" font-family="Times,serif" font-size="14.00">N1</text>
<polyline fill="none" stroke="black" points="1113,-0.5 1113,-36.5 "/>
<text text-anchor="middle" x="1132" y="-14.8" font-family="Times,serif" font-size="14.00">w1</text>
<polyline fill="none" stroke="black" points="1151,-0.5 1151,-36.5 "/>
<text text-anchor="middle" x="1202" y="-14.8" font-family="Times,serif" font-size="14.00">data 0.3723</text>
<polyline fill="none" stroke="black" points="1253,-0.5 1253,-36.5 "/>
<text text-anchor="middle" x="1305" y="-14.8" font-family="Times,serif" font-size="14.00">grad 1.0650</text>
</g>
<!-- 139883124668064* -->
<g id="node8" class="node">
<title>139883124668064*</title>
<ellipse fill="none" stroke="black" cx="1420" cy="-47.5" rx="27" ry="18"/>
<text text-anchor="middle" x="1420" y="-43.8" font-family="Times,serif" font-size="14.00">*</text>
</g>
<!-- 139883124658752&#45;&gt;139883124668064* -->
<g id="edge16" class="edge">
<title>139883124658752&#45;&gt;139883124668064*</title>
<path fill="none" stroke="black" d="M1326.19,-36.54C1347.26,-39.03 1367.08,-41.37 1382.95,-43.24"/>
<polygon fill="black" stroke="black" points="1382.93,-46.76 1393.27,-44.46 1383.75,-39.81 1382.93,-46.76"/>
</g>
<!-- 139883124659328 -->
<g id="node5" class="node">
<title>139883124659328</title>
<polygon fill="none" stroke="black" points="994.5,-165.5 994.5,-201.5 1350.5,-201.5 1350.5,-165.5 994.5,-165.5"/>
<text text-anchor="middle" x="1020.5" y="-179.8" font-family="Times,serif" font-size="14.00">v043</text>
<polyline fill="none" stroke="black" points="1046.5,-165.5 1046.5,-201.5 "/>
<text text-anchor="middle" x="1064" y="-179.8" font-family="Times,serif" font-size="14.00">L1</text>
<polyline fill="none" stroke="black" points="1081.5,-165.5 1081.5,-201.5 "/>
<text text-anchor="middle" x="1100.5" y="-179.8" font-family="Times,serif" font-size="14.00">N2</text>
<polyline fill="none" stroke="black" points="1119.5,-165.5 1119.5,-201.5 "/>
<text text-anchor="middle" x="1132" y="-179.8" font-family="Times,serif" font-size="14.00">a</text>
<polyline fill="none" stroke="black" points="1144.5,-165.5 1144.5,-201.5 "/>
<text text-anchor="middle" x="1195.5" y="-179.8" font-family="Times,serif" font-size="14.00">data 0.0450</text>
<polyline fill="none" stroke="black" points="1246.5,-165.5 1246.5,-201.5 "/>
<text text-anchor="middle" x="1298.5" y="-179.8" font-family="Times,serif" font-size="14.00">grad 1.0510</text>
</g>
<!-- 139883124661008* -->
<g id="node12" class="node">
<title>139883124661008*</title>
<ellipse fill="none" stroke="black" cx="1420" cy="-153.5" rx="27" ry="18"/>
<text text-anchor="middle" x="1420" y="-149.8" font-family="Times,serif" font-size="14.00">*</text>
</g>
<!-- 139883124659328&#45;&gt;139883124661008* -->
<g id="edge15" class="edge">
<title>139883124659328&#45;&gt;139883124661008*</title>
<path fill="none" stroke="black" d="M1320.91,-165.49C1344.02,-162.66 1365.91,-159.99 1383.13,-157.88"/>
<polygon fill="black" stroke="black" points="1383.71,-161.34 1393.21,-156.65 1382.86,-154.39 1383.71,-161.34"/>
</g>
<!-- 139883124659328+ -->
<g id="node6" class="node">
<title>139883124659328+</title>
<ellipse fill="none" stroke="black" cx="925" cy="-183.5" rx="27" ry="18"/>
<text text-anchor="middle" x="925" y="-179.8" font-family="Times,serif" font-size="14.00">+</text>
</g>
<!-- 139883124659328+&#45;&gt;139883124659328 -->
<g id="edge2" class="edge">
<title>139883124659328+&#45;&gt;139883124659328</title>
<path fill="none" stroke="black" d="M952.27,-183.5C961.26,-183.5 972.11,-183.5 984.12,-183.5"/>
<polygon fill="black" stroke="black" points="984.46,-187 994.46,-183.5 984.46,-180 984.46,-187"/>
</g>
<!-- 139883124668064 -->
<g id="node7" class="node">
<title>139883124668064</title>
<polygon fill="none" stroke="black" points="1503.5,-29.5 1503.5,-65.5 1824.5,-65.5 1824.5,-29.5 1503.5,-29.5"/>
<text text-anchor="middle" x="1529.5" y="-43.8" font-family="Times,serif" font-size="14.00">v044</text>
<polyline fill="none" stroke="black" points="1555.5,-29.5 1555.5,-65.5 "/>
<text text-anchor="middle" x="1566" y="-43.8" font-family="Times,serif" font-size="14.00"> </text>
<polyline fill="none" stroke="black" points="1576.5,-29.5 1576.5,-65.5 "/>
<text text-anchor="middle" x="1587" y="-43.8" font-family="Times,serif" font-size="14.00"> </text>
<polyline fill="none" stroke="black" points="1597.5,-29.5 1597.5,-65.5 "/>
<text text-anchor="middle" x="1608" y="-43.8" font-family="Times,serif" font-size="14.00"> </text>
<polyline fill="none" stroke="black" points="1618.5,-29.5 1618.5,-65.5 "/>
<text text-anchor="middle" x="1669.5" y="-43.8" font-family="Times,serif" font-size="14.00">data 0.4532</text>
<polyline fill="none" stroke="black" points="1720.5,-29.5 1720.5,-65.5 "/>
<text text-anchor="middle" x="1772.5" y="-43.8" font-family="Times,serif" font-size="14.00">grad 1.0000</text>
</g>
<!-- 139883124660720+ -->
<g id="node24" class="node">
<title>139883124660720+</title>
<ellipse fill="none" stroke="black" cx="2041.5" cy="-98.5" rx="27" ry="18"/>
<text text-anchor="middle" x="2041.5" y="-94.8" font-family="Times,serif" font-size="14.00">+</text>
</g>
<!-- 139883124668064&#45;&gt;139883124660720+ -->
<g id="edge22" class="edge">
<title>139883124668064&#45;&gt;139883124660720+</title>
<path fill="none" stroke="black" d="M1797.65,-65.52C1871.43,-75.54 1957.67,-87.25 2004.96,-93.67"/>
<polygon fill="black" stroke="black" points="2004.62,-97.16 2015,-95.04 2005.56,-90.22 2004.62,-97.16"/>
</g>
<!-- 139883124668064*&#45;&gt;139883124668064 -->
<g id="edge3" class="edge">
<title>139883124668064*&#45;&gt;139883124668064</title>
<path fill="none" stroke="black" d="M1447.36,-47.5C1459.7,-47.5 1475.53,-47.5 1493,-47.5"/>
<polygon fill="black" stroke="black" points="1493.46,-51 1503.46,-47.5 1493.46,-44 1493.46,-51"/>
</g>
<!-- 139883124660912 -->
<g id="node9" class="node">
<title>139883124660912</title>
<polygon fill="none" stroke="black" points="994.5,-55.5 994.5,-91.5 1350.5,-91.5 1350.5,-55.5 994.5,-55.5"/>
<text text-anchor="middle" x="1020.5" y="-69.8" font-family="Times,serif" font-size="14.00">v041</text>
<polyline fill="none" stroke="black" points="1046.5,-55.5 1046.5,-91.5 "/>
<text text-anchor="middle" x="1064" y="-69.8" font-family="Times,serif" font-size="14.00">L1</text>
<polyline fill="none" stroke="black" points="1081.5,-55.5 1081.5,-91.5 "/>
<text text-anchor="middle" x="1100.5" y="-69.8" font-family="Times,serif" font-size="14.00">N1</text>
<polyline fill="none" stroke="black" points="1119.5,-55.5 1119.5,-91.5 "/>
<text text-anchor="middle" x="1132" y="-69.8" font-family="Times,serif" font-size="14.00">a</text>
<polyline fill="none" stroke="black" points="1144.5,-55.5 1144.5,-91.5 "/>
<text text-anchor="middle" x="1195.5" y="-69.8" font-family="Times,serif" font-size="14.00">data 1.0650</text>
<polyline fill="none" stroke="black" points="1246.5,-55.5 1246.5,-91.5 "/>
<text text-anchor="middle" x="1298.5" y="-69.8" font-family="Times,serif" font-size="14.00">grad 0.4255</text>
</g>
<!-- 139883124660912&#45;&gt;139883124668064* -->
<g id="edge13" class="edge">
<title>139883124660912&#45;&gt;139883124668064*</title>
<path fill="none" stroke="black" d="M1343.67,-55.48C1358.11,-53.95 1371.52,-52.53 1382.9,-51.32"/>
<polygon fill="black" stroke="black" points="1383.58,-54.77 1393.15,-50.24 1382.84,-47.81 1383.58,-54.77"/>
</g>
<!-- 139883124660912+&#45;&gt;139883124660912 -->
<g id="edge4" class="edge">
<title>139883124660912+&#45;&gt;139883124660912</title>
<path fill="none" stroke="black" d="M952.27,-73.5C961.26,-73.5 972.11,-73.5 984.12,-73.5"/>
<polygon fill="black" stroke="black" points="984.46,-77 994.46,-73.5 984.46,-70 984.46,-77"/>
</g>
<!-- 139883124661008 -->
<g id="node11" class="node">
<title>139883124661008</title>
<polygon fill="none" stroke="black" points="1881,-135.5 1881,-171.5 2202,-171.5 2202,-135.5 1881,-135.5"/>
<text text-anchor="middle" x="1907" y="-149.8" font-family="Times,serif" font-size="14.00">v046</text>
<polyline fill="none" stroke="black" points="1933,-135.5 1933,-171.5 "/>
<text text-anchor="middle" x="1943.5" y="-149.8" font-family="Times,serif" font-size="14.00"> </text>
<polyline fill="none" stroke="black" points="1954,-135.5 1954,-171.5 "/>
<text text-anchor="middle" x="1964.5" y="-149.8" font-family="Times,serif" font-size="14.00"> </text>
<polyline fill="none" stroke="black" points="1975,-135.5 1975,-171.5 "/>
<text text-anchor="middle" x="1985.5" y="-149.8" font-family="Times,serif" font-size="14.00"> </text>
<polyline fill="none" stroke="black" points="1996,-135.5 1996,-171.5 "/>
<text text-anchor="middle" x="2047" y="-149.8" font-family="Times,serif" font-size="14.00">data 0.0473</text>
<polyline fill="none" stroke="black" points="2098,-135.5 2098,-171.5 "/>
<text text-anchor="middle" x="2150" y="-149.8" font-family="Times,serif" font-size="14.00">grad 1.0000</text>
</g>
<!-- 139883124661056+ -->
<g id="node16" class="node">
<title>139883124661056+</title>
<ellipse fill="none" stroke="black" cx="2622" cy="-125.5" rx="27" ry="18"/>
<text text-anchor="middle" x="2622" y="-121.8" font-family="Times,serif" font-size="14.00">+</text>
</g>
<!-- 139883124661008&#45;&gt;139883124661056+ -->
<g id="edge19" class="edge">
<title>139883124661008&#45;&gt;139883124661056+</title>
<path fill="none" stroke="black" d="M2202.25,-147.87C2304.34,-143.9 2439.52,-137.98 2559,-130.5 2567.43,-129.97 2576.49,-129.3 2585.02,-128.62"/>
<polygon fill="black" stroke="black" points="2585.39,-132.1 2595.07,-127.8 2584.82,-125.13 2585.39,-132.1"/>
</g>
<!-- 139883124661008*&#45;&gt;139883124661008 -->
<g id="edge5" class="edge">
<title>139883124661008*&#45;&gt;139883124661008</title>
<path fill="none" stroke="black" d="M1447.22,-153.5C1518.76,-153.5 1721.85,-153.5 1870.55,-153.5"/>
<polygon fill="black" stroke="black" points="1870.71,-157 1880.71,-153.5 1870.71,-150 1870.71,-157"/>
</g>
<!-- 139883124664080 -->
<g id="node13" class="node">
<title>139883124664080</title>
<polygon fill="none" stroke="black" points="1483,-84.5 1483,-120.5 1845,-120.5 1845,-84.5 1483,-84.5"/>
<text text-anchor="middle" x="1509" y="-98.8" font-family="Times,serif" font-size="14.00">v007</text>
<polyline fill="none" stroke="black" points="1535,-84.5 1535,-120.5 "/>
<text text-anchor="middle" x="1552.5" y="-98.8" font-family="Times,serif" font-size="14.00">L2</text>
<polyline fill="none" stroke="black" points="1570,-84.5 1570,-120.5 "/>
<text text-anchor="middle" x="1589" y="-98.8" font-family="Times,serif" font-size="14.00">N1</text>
<polyline fill="none" stroke="black" points="1608,-84.5 1608,-120.5 "/>
<text text-anchor="middle" x="1621" y="-98.8" font-family="Times,serif" font-size="14.00">b</text>
<polyline fill="none" stroke="black" points="1634,-84.5 1634,-120.5 "/>
<text text-anchor="middle" x="1687.5" y="-98.8" font-family="Times,serif" font-size="14.00">data &#45;0.1500</text>
<polyline fill="none" stroke="black" points="1741,-84.5 1741,-120.5 "/>
<text text-anchor="middle" x="1793" y="-98.8" font-family="Times,serif" font-size="14.00">grad 1.0000</text>
</g>
<!-- 139883124664080&#45;&gt;139883124660720+ -->
<g id="edge9" class="edge">
<title>139883124664080&#45;&gt;139883124660720+</title>
<path fill="none" stroke="black" d="M1845.05,-100.58C1905.18,-99.94 1966.37,-99.29 2003.88,-98.89"/>
<polygon fill="black" stroke="black" points="2004.31,-102.39 2014.27,-98.78 2004.24,-95.39 2004.31,-102.39"/>
</g>
<!-- 139883124658992 -->
<g id="node14" class="node">
<title>139883124658992</title>
<polygon fill="none" stroke="black" points="500,-193.5 500,-229.5 862,-229.5 862,-193.5 500,-193.5"/>
<text text-anchor="middle" x="526" y="-207.8" font-family="Times,serif" font-size="14.00">v004</text>
<polyline fill="none" stroke="black" points="552,-193.5 552,-229.5 "/>
<text text-anchor="middle" x="569.5" y="-207.8" font-family="Times,serif" font-size="14.00">L1</text>
<polyline fill="none" stroke="black" points="587,-193.5 587,-229.5 "/>
<text text-anchor="middle" x="606" y="-207.8" font-family="Times,serif" font-size="14.00">N2</text>
<polyline fill="none" stroke="black" points="625,-193.5 625,-229.5 "/>
<text text-anchor="middle" x="638" y="-207.8" font-family="Times,serif" font-size="14.00">b</text>
<polyline fill="none" stroke="black" points="651,-193.5 651,-229.5 "/>
<text text-anchor="middle" x="704.5" y="-207.8" font-family="Times,serif" font-size="14.00">data &#45;0.1676</text>
<polyline fill="none" stroke="black" points="758,-193.5 758,-229.5 "/>
<text text-anchor="middle" x="810" y="-207.8" font-family="Times,serif" font-size="14.00">grad 1.0510</text>
</g>
<!-- 139883124658992&#45;&gt;139883124659328+ -->
<g id="edge11" class="edge">
<title>139883124658992&#45;&gt;139883124659328+</title>
<path fill="none" stroke="black" d="M837.66,-193.49C856.23,-191.34 873.61,-189.33 887.84,-187.68"/>
<polygon fill="black" stroke="black" points="888.54,-191.13 898.08,-186.5 887.74,-184.17 888.54,-191.13"/>
</g>
<!-- 139883124661056 -->
<g id="node15" class="node">
<title>139883124661056</title>
<polygon fill="none" stroke="black" points="2685,-107.5 2685,-143.5 3041,-143.5 3041,-107.5 2685,-107.5"/>
<text text-anchor="middle" x="2711" y="-121.8" font-family="Times,serif" font-size="14.00">v047</text>
<polyline fill="none" stroke="black" points="2737,-107.5 2737,-143.5 "/>
<text text-anchor="middle" x="2754.5" y="-121.8" font-family="Times,serif" font-size="14.00">L2</text>
<polyline fill="none" stroke="black" points="2772,-107.5 2772,-143.5 "/>
<text text-anchor="middle" x="2791" y="-121.8" font-family="Times,serif" font-size="14.00">N1</text>
<polyline fill="none" stroke="black" points="2810,-107.5 2810,-143.5 "/>
<text text-anchor="middle" x="2822.5" y="-121.8" font-family="Times,serif" font-size="14.00">a</text>
<polyline fill="none" stroke="black" points="2835,-107.5 2835,-143.5 "/>
<text text-anchor="middle" x="2886" y="-121.8" font-family="Times,serif" font-size="14.00">data 0.4005</text>
<polyline fill="none" stroke="black" points="2937,-107.5 2937,-143.5 "/>
<text text-anchor="middle" x="2989" y="-121.8" font-family="Times,serif" font-size="14.00">grad 1.0000</text>
</g>
<!-- 139883124661056+&#45;&gt;139883124661056 -->
<g id="edge6" class="edge">
<title>139883124661056+&#45;&gt;139883124661056</title>
<path fill="none" stroke="black" d="M2649.03,-125.5C2656.4,-125.5 2665.02,-125.5 2674.49,-125.5"/>
<polygon fill="black" stroke="black" points="2674.66,-129 2684.66,-125.5 2674.66,-122 2674.66,-129"/>
</g>
<!-- 139883735116112 -->
<g id="node17" class="node">
<title>139883735116112</title>
<polygon fill="none" stroke="black" points="22,-83.5 22,-119.5 352,-119.5 352,-83.5 22,-83.5"/>
<text text-anchor="middle" x="48" y="-97.8" font-family="Times,serif" font-size="14.00">v008</text>
<polyline fill="none" stroke="black" points="74,-83.5 74,-119.5 "/>
<text text-anchor="middle" x="84.5" y="-97.8" font-family="Times,serif" font-size="14.00"> </text>
<polyline fill="none" stroke="black" points="95,-83.5 95,-119.5 "/>
<text text-anchor="middle" x="105.5" y="-97.8" font-family="Times,serif" font-size="14.00"> </text>
<polyline fill="none" stroke="black" points="116,-83.5 116,-119.5 "/>
<text text-anchor="middle" x="131" y="-97.8" font-family="Times,serif" font-size="14.00">i1</text>
<polyline fill="none" stroke="black" points="146,-83.5 146,-119.5 "/>
<text text-anchor="middle" x="197" y="-97.8" font-family="Times,serif" font-size="14.00">data 4.0000</text>
<polyline fill="none" stroke="black" points="248,-83.5 248,-119.5 "/>
<text text-anchor="middle" x="300" y="-97.8" font-family="Times,serif" font-size="14.00">grad 0.1612</text>
</g>
<!-- 139883735116112&#45;&gt;139883124667920* -->
<g id="edge21" class="edge">
<title>139883735116112&#45;&gt;139883124667920*</title>
<path fill="none" stroke="black" d="M338.02,-83.46C350.29,-80.86 362.41,-77.88 374,-74.5 384.83,-71.34 396.2,-66.64 406.21,-61.99"/>
<polygon fill="black" stroke="black" points="407.83,-65.09 415.32,-57.6 404.8,-58.79 407.83,-65.09"/>
</g>
<!-- 139883124662160* -->
<g id="node22" class="node">
<title>139883124662160*</title>
<ellipse fill="none" stroke="black" cx="437" cy="-156.5" rx="27" ry="18"/>
<text text-anchor="middle" x="437" y="-152.8" font-family="Times,serif" font-size="14.00">*</text>
</g>
<!-- 139883735116112&#45;&gt;139883124662160* -->
<g id="edge20" class="edge">
<title>139883735116112&#45;&gt;139883124662160*</title>
<path fill="none" stroke="black" d="M332.99,-119.54C346.96,-122.41 360.82,-125.71 374,-129.5 384.69,-132.57 395.96,-137.07 405.91,-141.51"/>
<polygon fill="black" stroke="black" points="404.44,-144.69 414.99,-145.71 407.38,-138.34 404.44,-144.69"/>
</g>
<!-- 139883124659040 -->
<g id="node18" class="node">
<title>139883124659040</title>
<polygon fill="none" stroke="black" points="0,-138.5 0,-174.5 374,-174.5 374,-138.5 0,-138.5"/>
<text text-anchor="middle" x="26" y="-152.8" font-family="Times,serif" font-size="14.00">v003</text>
<polyline fill="none" stroke="black" points="52,-138.5 52,-174.5 "/>
<text text-anchor="middle" x="69.5" y="-152.8" font-family="Times,serif" font-size="14.00">L1</text>
<polyline fill="none" stroke="black" points="87,-138.5 87,-174.5 "/>
<text text-anchor="middle" x="106" y="-152.8" font-family="Times,serif" font-size="14.00">N2</text>
<polyline fill="none" stroke="black" points="125,-138.5 125,-174.5 "/>
<text text-anchor="middle" x="144" y="-152.8" font-family="Times,serif" font-size="14.00">w1</text>
<polyline fill="none" stroke="black" points="163,-138.5 163,-174.5 "/>
<text text-anchor="middle" x="216.5" y="-152.8" font-family="Times,serif" font-size="14.00">data &#45;0.1702</text>
<polyline fill="none" stroke="black" points="270,-138.5 270,-174.5 "/>
<text text-anchor="middle" x="322" y="-152.8" font-family="Times,serif" font-size="14.00">grad 4.2040</text>
</g>
<!-- 139883124659040&#45;&gt;139883124662160* -->
<g id="edge23" class="edge">
<title>139883124659040&#45;&gt;139883124662160*</title>
<path fill="none" stroke="black" d="M374.06,-156.5C383.31,-156.5 391.94,-156.5 399.65,-156.5"/>
<polygon fill="black" stroke="black" points="399.9,-160 409.9,-156.5 399.9,-153 399.9,-160"/>
</g>
<!-- 139883124664128 -->
<g id="node19" class="node">
<title>139883124664128</title>
<polygon fill="none" stroke="black" points="988,-110.5 988,-146.5 1357,-146.5 1357,-110.5 988,-110.5"/>
<text text-anchor="middle" x="1014" y="-124.8" font-family="Times,serif" font-size="14.00">v006</text>
<polyline fill="none" stroke="black" points="1040,-110.5 1040,-146.5 "/>
<text text-anchor="middle" x="1057.5" y="-124.8" font-family="Times,serif" font-size="14.00">L2</text>
<polyline fill="none" stroke="black" points="1075,-110.5 1075,-146.5 "/>
<text text-anchor="middle" x="1094" y="-124.8" font-family="Times,serif" font-size="14.00">N1</text>
<polyline fill="none" stroke="black" points="1113,-110.5 1113,-146.5 "/>
<text text-anchor="middle" x="1132" y="-124.8" font-family="Times,serif" font-size="14.00">w2</text>
<polyline fill="none" stroke="black" points="1151,-110.5 1151,-146.5 "/>
<text text-anchor="middle" x="1202" y="-124.8" font-family="Times,serif" font-size="14.00">data 1.0488</text>
<polyline fill="none" stroke="black" points="1253,-110.5 1253,-146.5 "/>
<text text-anchor="middle" x="1305" y="-124.8" font-family="Times,serif" font-size="14.00">grad 0.0450</text>
</g>
<!-- 139883124664128&#45;&gt;139883124661008* -->
<g id="edge12" class="edge">
<title>139883124664128&#45;&gt;139883124661008*</title>
<path fill="none" stroke="black" d="M1350.29,-146.5C1362.2,-147.72 1373.27,-148.84 1382.89,-149.82"/>
<polygon fill="black" stroke="black" points="1382.8,-153.33 1393.1,-150.86 1383.51,-146.37 1382.8,-153.33"/>
</g>
<!-- 139883734292256 -->
<g id="node20" class="node">
<title>139883734292256</title>
<polygon fill="none" stroke="black" points="2.5,-28.5 2.5,-64.5 371.5,-64.5 371.5,-28.5 2.5,-28.5"/>
<text text-anchor="middle" x="28.5" y="-42.8" font-family="Times,serif" font-size="14.00">v001</text>
<polyline fill="none" stroke="black" points="54.5,-28.5 54.5,-64.5 "/>
<text text-anchor="middle" x="72" y="-42.8" font-family="Times,serif" font-size="14.00">L1</text>
<polyline fill="none" stroke="black" points="89.5,-28.5 89.5,-64.5 "/>
<text text-anchor="middle" x="108.5" y="-42.8" font-family="Times,serif" font-size="14.00">N1</text>
<polyline fill="none" stroke="black" points="127.5,-28.5 127.5,-64.5 "/>
<text text-anchor="middle" x="146.5" y="-42.8" font-family="Times,serif" font-size="14.00">w1</text>
<polyline fill="none" stroke="black" points="165.5,-28.5 165.5,-64.5 "/>
<text text-anchor="middle" x="216.5" y="-42.8" font-family="Times,serif" font-size="14.00">data 0.1949</text>
<polyline fill="none" stroke="black" points="267.5,-28.5 267.5,-64.5 "/>
<text text-anchor="middle" x="319.5" y="-42.8" font-family="Times,serif" font-size="14.00">grad 1.7020</text>
</g>
<!-- 139883734292256&#45;&gt;139883124667920* -->
<g id="edge24" class="edge">
<title>139883734292256&#45;&gt;139883124667920*</title>
<path fill="none" stroke="black" d="M371.81,-46.5C381.88,-46.5 391.25,-46.5 399.55,-46.5"/>
<polygon fill="black" stroke="black" points="399.82,-50 409.82,-46.5 399.82,-43 399.82,-50"/>
</g>
<!-- 139883124662160 -->
<g id="node21" class="node">
<title>139883124662160</title>
<polygon fill="none" stroke="black" points="520.5,-138.5 520.5,-174.5 841.5,-174.5 841.5,-138.5 520.5,-138.5"/>
<text text-anchor="middle" x="546.5" y="-152.8" font-family="Times,serif" font-size="14.00">v042</text>
<polyline fill="none" stroke="black" points="572.5,-138.5 572.5,-174.5 "/>
<text text-anchor="middle" x="583" y="-152.8" font-family="Times,serif" font-size="14.00"> </text>
<polyline fill="none" stroke="black" points="593.5,-138.5 593.5,-174.5 "/>
<text text-anchor="middle" x="604" y="-152.8" font-family="Times,serif" font-size="14.00"> </text>
<polyline fill="none" stroke="black" points="614.5,-138.5 614.5,-174.5 "/>
<text text-anchor="middle" x="625" y="-152.8" font-family="Times,serif" font-size="14.00"> </text>
<polyline fill="none" stroke="black" points="635.5,-138.5 635.5,-174.5 "/>
<text text-anchor="middle" x="686.5" y="-152.8" font-family="Times,serif" font-size="14.00">data 0.1600</text>
<polyline fill="none" stroke="black" points="737.5,-138.5 737.5,-174.5 "/>
<text text-anchor="middle" x="789.5" y="-152.8" font-family="Times,serif" font-size="14.00">grad 1.0510</text>
</g>
<!-- 139883124662160&#45;&gt;139883124659328+ -->
<g id="edge10" class="edge">
<title>139883124662160&#45;&gt;139883124659328+</title>
<path fill="none" stroke="black" d="M841.73,-174.32C858.85,-176.23 874.82,-178.01 888.04,-179.49"/>
<polygon fill="black" stroke="black" points="887.7,-182.97 898.03,-180.6 888.48,-176.01 887.7,-182.97"/>
</g>
<!-- 139883124662160*&#45;&gt;139883124662160 -->
<g id="edge7" class="edge">
<title>139883124662160*&#45;&gt;139883124662160</title>
<path fill="none" stroke="black" d="M464.36,-156.5C476.7,-156.5 492.53,-156.5 510,-156.5"/>
<polygon fill="black" stroke="black" points="510.46,-160 520.46,-156.5 510.46,-153 510.46,-160"/>
</g>
<!-- 139883124660720 -->
<g id="node23" class="node">
<title>139883124660720</title>
<polygon fill="none" stroke="black" points="2238,-84.5 2238,-120.5 2559,-120.5 2559,-84.5 2238,-84.5"/>
<text text-anchor="middle" x="2264" y="-98.8" font-family="Times,serif" font-size="14.00">v045</text>
<polyline fill="none" stroke="black" points="2290,-84.5 2290,-120.5 "/>
<text text-anchor="middle" x="2300.5" y="-98.8" font-family="Times,serif" font-size="14.00"> </text>
<polyline fill="none" stroke="black" points="2311,-84.5 2311,-120.5 "/>
<text text-anchor="middle" x="2321.5" y="-98.8" font-family="Times,serif" font-size="14.00"> </text>
<polyline fill="none" stroke="black" points="2332,-84.5 2332,-120.5 "/>
<text text-anchor="middle" x="2342.5" y="-98.8" font-family="Times,serif" font-size="14.00"> </text>
<polyline fill="none" stroke="black" points="2353,-84.5 2353,-120.5 "/>
<text text-anchor="middle" x="2404" y="-98.8" font-family="Times,serif" font-size="14.00">data 0.3532</text>
<polyline fill="none" stroke="black" points="2455,-84.5 2455,-120.5 "/>
<text text-anchor="middle" x="2507" y="-98.8" font-family="Times,serif" font-size="14.00">grad 1.0000</text>
</g>
<!-- 139883124660720&#45;&gt;139883124661056+ -->
<g id="edge17" class="edge">
<title>139883124660720&#45;&gt;139883124661056+</title>
<path fill="none" stroke="black" d="M2559.01,-119.06C2568.42,-120.04 2577.26,-120.96 2585.13,-121.78"/>
<polygon fill="black" stroke="black" points="2584.95,-125.28 2595.26,-122.83 2585.67,-118.31 2584.95,-125.28"/>
</g>
<!-- 139883124660720+&#45;&gt;139883124660720 -->
<g id="edge8" class="edge">
<title>139883124660720+&#45;&gt;139883124660720</title>
<path fill="none" stroke="black" d="M2068.6,-98.79C2102.81,-99.18 2165.72,-99.89 2227.43,-100.58"/>
<polygon fill="black" stroke="black" points="2227.68,-104.09 2237.72,-100.7 2227.76,-97.09 2227.68,-104.09"/>
</g>
</g>
</svg>
