<?xml version="1.0" encoding="UTF-8" standalone="no"?>
<!DOCTYPE svg PUBLIC "-//W3C//DTD SVG 1.1//EN"
 "http://www.w3.org/Graphics/SVG/1.1/DTD/svg11.dtd">
<!-- Generated by graphviz version 2.43.0 (0)
 -->
<!-- Title: %3 Pages: 1 -->
<svg width="3064pt" height="210pt"
 viewBox="0.00 0.00 3064.00 210.00" xmlns="http://www.w3.org/2000/svg" xmlns:xlink="http://www.w3.org/1999/xlink">
<g id="graph0" class="graph" transform="scale(1 1) rotate(0) translate(4 206)">
<title>%3</title>
<polygon fill="white" stroke="transparent" points="-4,4 -4,-206 3060,-206 3060,4 -4,4"/>
<!-- 139883735115776 -->
<g id="node1" class="node">
<title>139883735115776</title>
<polygon fill="none" stroke="black" points="518,-55.5 518,-91.5 844,-91.5 844,-55.5 518,-55.5"/>
<text text-anchor="middle" x="544" y="-69.8" font-family="Times,serif" font-size="14.00">v072</text>
<polyline fill="none" stroke="black" points="570,-55.5 570,-91.5 "/>
<text text-anchor="middle" x="580.5" y="-69.8" font-family="Times,serif" font-size="14.00"> </text>
<polyline fill="none" stroke="black" points="591,-55.5 591,-91.5 "/>
<text text-anchor="middle" x="601.5" y="-69.8" font-family="Times,serif" font-size="14.00"> </text>
<polyline fill="none" stroke="black" points="612,-55.5 612,-91.5 "/>
<text text-anchor="middle" x="622.5" y="-69.8" font-family="Times,serif" font-size="14.00"> </text>
<polyline fill="none" stroke="black" points="633,-55.5 633,-91.5 "/>
<text text-anchor="middle" x="686.5" y="-69.8" font-family="Times,serif" font-size="14.00">data &#45;1.5198</text>
<polyline fill="none" stroke="black" points="740,-55.5 740,-91.5 "/>
<text text-anchor="middle" x="792" y="-69.8" font-family="Times,serif" font-size="14.00">grad 0.0000</text>
</g>
<!-- 139883734298160+ -->
<g id="node7" class="node">
<title>139883734298160+</title>
<ellipse fill="none" stroke="black" cx="925" cy="-73.5" rx="27" ry="18"/>
<text text-anchor="middle" x="925" y="-69.8" font-family="Times,serif" font-size="14.00">+</text>
</g>
<!-- 139883735115776&#45;&gt;139883734298160+ -->
<g id="edge23" class="edge">
<title>139883735115776&#45;&gt;139883734298160+</title>
<path fill="none" stroke="black" d="M844.09,-73.5C860.07,-73.5 874.97,-73.5 887.47,-73.5"/>
<polygon fill="black" stroke="black" points="887.8,-77 897.8,-73.5 887.8,-70 887.8,-77"/>
</g>
<!-- 139883735115776* -->
<g id="node2" class="node">
<title>139883735115776*</title>
<ellipse fill="none" stroke="black" cx="437" cy="-73.5" rx="27" ry="18"/>
<text text-anchor="middle" x="437" y="-69.8" font-family="Times,serif" font-size="14.00">*</text>
</g>
<!-- 139883735115776*&#45;&gt;139883735115776 -->
<g id="edge1" class="edge">
<title>139883735115776*&#45;&gt;139883735115776</title>
<path fill="none" stroke="black" d="M464.36,-73.5C476.08,-73.5 490.94,-73.5 507.37,-73.5"/>
<polygon fill="black" stroke="black" points="507.79,-77 517.79,-73.5 507.79,-70 507.79,-77"/>
</g>
<!-- 139883734295568 -->
<g id="node3" class="node">
<title>139883734295568</title>
<polygon fill="none" stroke="black" points="2695,-82.5 2695,-118.5 3056,-118.5 3056,-82.5 2695,-82.5"/>
<text text-anchor="middle" x="2721" y="-96.8" font-family="Times,serif" font-size="14.00">v077</text>
<polyline fill="none" stroke="black" points="2747,-82.5 2747,-118.5 "/>
<text text-anchor="middle" x="2764.5" y="-96.8" font-family="Times,serif" font-size="14.00">L2</text>
<polyline fill="none" stroke="black" points="2782,-82.5 2782,-118.5 "/>
<text text-anchor="middle" x="2801" y="-96.8" font-family="Times,serif" font-size="14.00">N1</text>
<polyline fill="none" stroke="black" points="2820,-82.5 2820,-118.5 "/>
<text text-anchor="middle" x="2832.5" y="-96.8" font-family="Times,serif" font-size="14.00">a</text>
<polyline fill="none" stroke="black" points="2845,-82.5 2845,-118.5 "/>
<text text-anchor="middle" x="2898.5" y="-96.8" font-family="Times,serif" font-size="14.00">data &#45;1.9680</text>
<polyline fill="none" stroke="black" points="2952,-82.5 2952,-118.5 "/>
<text text-anchor="middle" x="3004" y="-96.8" font-family="Times,serif" font-size="14.00">grad 0.0000</text>
</g>
<!-- 139883734295568+ -->
<g id="node4" class="node">
<title>139883734295568+</title>
<ellipse fill="none" stroke="black" cx="2632" cy="-100.5" rx="27" ry="18"/>
<text text-anchor="middle" x="2632" y="-96.8" font-family="Times,serif" font-size="14.00">+</text>
</g>
<!-- 139883734295568+&#45;&gt;139883734295568 -->
<g id="edge2" class="edge">
<title>139883734295568+&#45;&gt;139883734295568</title>
<path fill="none" stroke="black" d="M2659.3,-100.5C2666.65,-100.5 2675.24,-100.5 2684.68,-100.5"/>
<polygon fill="black" stroke="black" points="2684.81,-104 2694.81,-100.5 2684.81,-97 2684.81,-104"/>
</g>
<!-- 139883734297632 -->
<g id="node5" class="node">
<title>139883734297632</title>
<polygon fill="none" stroke="black" points="500,-165.5 500,-201.5 862,-201.5 862,-165.5 500,-165.5"/>
<text text-anchor="middle" x="526" y="-179.8" font-family="Times,serif" font-size="14.00">v002</text>
<polyline fill="none" stroke="black" points="552,-165.5 552,-201.5 "/>
<text text-anchor="middle" x="569.5" y="-179.8" font-family="Times,serif" font-size="14.00">L1</text>
<polyline fill="none" stroke="black" points="587,-165.5 587,-201.5 "/>
<text text-anchor="middle" x="606" y="-179.8" font-family="Times,serif" font-size="14.00">N1</text>
<polyline fill="none" stroke="black" points="625,-165.5 625,-201.5 "/>
<text text-anchor="middle" x="638" y="-179.8" font-family="Times,serif" font-size="14.00">b</text>
<polyline fill="none" stroke="black" points="651,-165.5 651,-201.5 "/>
<text text-anchor="middle" x="704.5" y="-179.8" font-family="Times,serif" font-size="14.00">data &#45;0.0949</text>
<polyline fill="none" stroke="black" points="758,-165.5 758,-201.5 "/>
<text text-anchor="middle" x="810" y="-179.8" font-family="Times,serif" font-size="14.00">grad 0.0000</text>
</g>
<!-- 139883735118800+ -->
<g id="node12" class="node">
<title>139883735118800+</title>
<ellipse fill="none" stroke="black" cx="925" cy="-128.5" rx="27" ry="18"/>
<text text-anchor="middle" x="925" y="-124.8" font-family="Times,serif" font-size="14.00">+</text>
</g>
<!-- 139883734297632&#45;&gt;139883735118800+ -->
<g id="edge20" class="edge">
<title>139883734297632&#45;&gt;139883735118800+</title>
<path fill="none" stroke="black" d="M826.22,-165.49C838.42,-162.88 850.48,-159.89 862,-156.5 872.82,-153.31 884.19,-148.61 894.2,-143.96"/>
<polygon fill="black" stroke="black" points="895.82,-147.06 903.32,-139.57 892.79,-140.76 895.82,-147.06"/>
</g>
<!-- 139883734298160 -->
<g id="node6" class="node">
<title>139883734298160</title>
<polygon fill="none" stroke="black" points="992,-55.5 992,-91.5 1353,-91.5 1353,-55.5 992,-55.5"/>
<text text-anchor="middle" x="1018" y="-69.8" font-family="Times,serif" font-size="14.00">v073</text>
<polyline fill="none" stroke="black" points="1044,-55.5 1044,-91.5 "/>
<text text-anchor="middle" x="1061.5" y="-69.8" font-family="Times,serif" font-size="14.00">L1</text>
<polyline fill="none" stroke="black" points="1079,-55.5 1079,-91.5 "/>
<text text-anchor="middle" x="1098" y="-69.8" font-family="Times,serif" font-size="14.00">N2</text>
<polyline fill="none" stroke="black" points="1117,-55.5 1117,-91.5 "/>
<text text-anchor="middle" x="1129.5" y="-69.8" font-family="Times,serif" font-size="14.00">a</text>
<polyline fill="none" stroke="black" points="1142,-55.5 1142,-91.5 "/>
<text text-anchor="middle" x="1195.5" y="-69.8" font-family="Times,serif" font-size="14.00">data &#45;1.7398</text>
<polyline fill="none" stroke="black" points="1249,-55.5 1249,-91.5 "/>
<text text-anchor="middle" x="1301" y="-69.8" font-family="Times,serif" font-size="14.00">grad 0.0000</text>
</g>
<!-- 139883734292112* -->
<g id="node10" class="node">
<title>139883734292112*</title>
<ellipse fill="none" stroke="black" cx="1420" cy="-73.5" rx="27" ry="18"/>
<text text-anchor="middle" x="1420" y="-69.8" font-family="Times,serif" font-size="14.00">*</text>
</g>
<!-- 139883734298160&#45;&gt;139883734292112* -->
<g id="edge21" class="edge">
<title>139883734298160&#45;&gt;139883734292112*</title>
<path fill="none" stroke="black" d="M1353.21,-73.5C1363.92,-73.5 1373.88,-73.5 1382.65,-73.5"/>
<polygon fill="black" stroke="black" points="1382.73,-77 1392.73,-73.5 1382.73,-70 1382.73,-77"/>
</g>
<!-- 139883734298160+&#45;&gt;139883734298160 -->
<g id="edge3" class="edge">
<title>139883734298160+&#45;&gt;139883734298160</title>
<path fill="none" stroke="black" d="M952.27,-73.5C960.69,-73.5 970.75,-73.5 981.85,-73.5"/>
<polygon fill="black" stroke="black" points="981.87,-77 991.87,-73.5 981.87,-70 981.87,-77"/>
</g>
<!-- 139883124658752 -->
<g id="node8" class="node">
<title>139883124658752</title>
<polygon fill="none" stroke="black" points="988,-165.5 988,-201.5 1357,-201.5 1357,-165.5 988,-165.5"/>
<text text-anchor="middle" x="1014" y="-179.8" font-family="Times,serif" font-size="14.00">v005</text>
<polyline fill="none" stroke="black" points="1040,-165.5 1040,-201.5 "/>
<text text-anchor="middle" x="1057.5" y="-179.8" font-family="Times,serif" font-size="14.00">L2</text>
<polyline fill="none" stroke="black" points="1075,-165.5 1075,-201.5 "/>
<text text-anchor="middle" x="1094" y="-179.8" font-family="Times,serif" font-size="14.00">N1</text>
<polyline fill="none" stroke="black" points="1113,-165.5 1113,-201.5 "/>
<text text-anchor="middle" x="1132" y="-179.8" font-family="Times,serif" font-size="14.00">w1</text>
<polyline fill="none" stroke="black" points="1151,-165.5 1151,-201.5 "/>
<text text-anchor="middle" x="1202" y="-179.8" font-family="Times,serif" font-size="14.00">data 0.3371</text>
<polyline fill="none" stroke="black" points="1253,-165.5 1253,-201.5 "/>
<text text-anchor="middle" x="1305" y="-179.8" font-family="Times,serif" font-size="14.00">grad 0.0000</text>
</g>
<!-- 139883734291440* -->
<g id="node24" class="node">
<title>139883734291440*</title>
<ellipse fill="none" stroke="black" cx="1420" cy="-128.5" rx="27" ry="18"/>
<text text-anchor="middle" x="1420" y="-124.8" font-family="Times,serif" font-size="14.00">*</text>
</g>
<!-- 139883124658752&#45;&gt;139883734291440* -->
<g id="edge24" class="edge">
<title>139883124658752&#45;&gt;139883734291440*</title>
<path fill="none" stroke="black" d="M1321.02,-165.49C1333.28,-162.88 1345.41,-159.9 1357,-156.5 1367.82,-153.33 1379.2,-148.63 1389.21,-143.98"/>
<polygon fill="black" stroke="black" points="1390.83,-147.08 1398.32,-139.59 1387.79,-140.77 1390.83,-147.08"/>
</g>
<!-- 139883734292112 -->
<g id="node9" class="node">
<title>139883734292112</title>
<polygon fill="none" stroke="black" points="1881,-55.5 1881,-91.5 2207,-91.5 2207,-55.5 1881,-55.5"/>
<text text-anchor="middle" x="1907" y="-69.8" font-family="Times,serif" font-size="14.00">v076</text>
<polyline fill="none" stroke="black" points="1933,-55.5 1933,-91.5 "/>
<text text-anchor="middle" x="1943.5" y="-69.8" font-family="Times,serif" font-size="14.00"> </text>
<polyline fill="none" stroke="black" points="1954,-55.5 1954,-91.5 "/>
<text text-anchor="middle" x="1964.5" y="-69.8" font-family="Times,serif" font-size="14.00"> </text>
<polyline fill="none" stroke="black" points="1975,-55.5 1975,-91.5 "/>
<text text-anchor="middle" x="1985.5" y="-69.8" font-family="Times,serif" font-size="14.00"> </text>
<polyline fill="none" stroke="black" points="1996,-55.5 1996,-91.5 "/>
<text text-anchor="middle" x="2049.5" y="-69.8" font-family="Times,serif" font-size="14.00">data &#45;1.8984</text>
<polyline fill="none" stroke="black" points="2103,-55.5 2103,-91.5 "/>
<text text-anchor="middle" x="2155" y="-69.8" font-family="Times,serif" font-size="14.00">grad 0.0000</text>
</g>
<!-- 139883734292112&#45;&gt;139883734295568+ -->
<g id="edge22" class="edge">
<title>139883734292112&#45;&gt;139883734295568+</title>
<path fill="none" stroke="black" d="M2207.07,-80.97C2340.09,-87.1 2518.44,-95.31 2594.34,-98.81"/>
<polygon fill="black" stroke="black" points="2594.62,-102.33 2604.77,-99.29 2594.95,-95.33 2594.62,-102.33"/>
</g>
<!-- 139883734292112*&#45;&gt;139883734292112 -->
<g id="edge4" class="edge">
<title>139883734292112*&#45;&gt;139883734292112</title>
<path fill="none" stroke="black" d="M1447.33,-73.5C1518.87,-73.5 1721.46,-73.5 1870.6,-73.5"/>
<polygon fill="black" stroke="black" points="1870.79,-77 1880.79,-73.5 1870.79,-70 1870.79,-77"/>
</g>
<!-- 139883735118800 -->
<g id="node11" class="node">
<title>139883735118800</title>
<polygon fill="none" stroke="black" points="994.5,-110.5 994.5,-146.5 1350.5,-146.5 1350.5,-110.5 994.5,-110.5"/>
<text text-anchor="middle" x="1020.5" y="-124.8" font-family="Times,serif" font-size="14.00">v071</text>
<polyline fill="none" stroke="black" points="1046.5,-110.5 1046.5,-146.5 "/>
<text text-anchor="middle" x="1064" y="-124.8" font-family="Times,serif" font-size="14.00">L1</text>
<polyline fill="none" stroke="black" points="1081.5,-110.5 1081.5,-146.5 "/>
<text text-anchor="middle" x="1100.5" y="-124.8" font-family="Times,serif" font-size="14.00">N1</text>
<polyline fill="none" stroke="black" points="1119.5,-110.5 1119.5,-146.5 "/>
<text text-anchor="middle" x="1132" y="-124.8" font-family="Times,serif" font-size="14.00">a</text>
<polyline fill="none" stroke="black" points="1144.5,-110.5 1144.5,-146.5 "/>
<text text-anchor="middle" x="1195.5" y="-124.8" font-family="Times,serif" font-size="14.00">data 0.3869</text>
<polyline fill="none" stroke="black" points="1246.5,-110.5 1246.5,-146.5 "/>
<text text-anchor="middle" x="1298.5" y="-124.8" font-family="Times,serif" font-size="14.00">grad 0.0000</text>
</g>
<!-- 139883735118800&#45;&gt;139883734291440* -->
<g id="edge17" class="edge">
<title>139883735118800&#45;&gt;139883734291440*</title>
<path fill="none" stroke="black" d="M1350.61,-128.5C1362.37,-128.5 1373.29,-128.5 1382.8,-128.5"/>
<polygon fill="black" stroke="black" points="1382.91,-132 1392.91,-128.5 1382.91,-125 1382.91,-132"/>
</g>
<!-- 139883735118800+&#45;&gt;139883735118800 -->
<g id="edge5" class="edge">
<title>139883735118800+&#45;&gt;139883735118800</title>
<path fill="none" stroke="black" d="M952.27,-128.5C961.26,-128.5 972.11,-128.5 984.12,-128.5"/>
<polygon fill="black" stroke="black" points="984.46,-132 994.46,-128.5 984.46,-125 984.46,-132"/>
</g>
<!-- 139883124664080 -->
<g id="node13" class="node">
<title>139883124664080</title>
<polygon fill="none" stroke="black" points="1483,-165.5 1483,-201.5 1845,-201.5 1845,-165.5 1483,-165.5"/>
<text text-anchor="middle" x="1509" y="-179.8" font-family="Times,serif" font-size="14.00">v007</text>
<polyline fill="none" stroke="black" points="1535,-165.5 1535,-201.5 "/>
<text text-anchor="middle" x="1552.5" y="-179.8" font-family="Times,serif" font-size="14.00">L2</text>
<polyline fill="none" stroke="black" points="1570,-165.5 1570,-201.5 "/>
<text text-anchor="middle" x="1589" y="-179.8" font-family="Times,serif" font-size="14.00">N1</text>
<polyline fill="none" stroke="black" points="1608,-165.5 1608,-201.5 "/>
<text text-anchor="middle" x="1621" y="-179.8" font-family="Times,serif" font-size="14.00">b</text>
<polyline fill="none" stroke="black" points="1634,-165.5 1634,-201.5 "/>
<text text-anchor="middle" x="1687.5" y="-179.8" font-family="Times,serif" font-size="14.00">data &#45;0.2000</text>
<polyline fill="none" stroke="black" points="1741,-165.5 1741,-201.5 "/>
<text text-anchor="middle" x="1793" y="-179.8" font-family="Times,serif" font-size="14.00">grad 0.0000</text>
</g>
<!-- 139883734293456+ -->
<g id="node22" class="node">
<title>139883734293456+</title>
<ellipse fill="none" stroke="black" cx="2044" cy="-128.5" rx="27" ry="18"/>
<text text-anchor="middle" x="2044" y="-124.8" font-family="Times,serif" font-size="14.00">+</text>
</g>
<!-- 139883124664080&#45;&gt;139883734293456+ -->
<g id="edge19" class="edge">
<title>139883124664080&#45;&gt;139883734293456+</title>
<path fill="none" stroke="black" d="M1788.77,-165.49C1865.16,-154.38 1957.75,-140.9 2007.41,-133.68"/>
<polygon fill="black" stroke="black" points="2007.94,-137.14 2017.33,-132.23 2006.93,-130.21 2007.94,-137.14"/>
</g>
<!-- 139883734292256 -->
<g id="node14" class="node">
<title>139883734292256</title>
<polygon fill="none" stroke="black" points="2.5,-138.5 2.5,-174.5 371.5,-174.5 371.5,-138.5 2.5,-138.5"/>
<text text-anchor="middle" x="28.5" y="-152.8" font-family="Times,serif" font-size="14.00">v001</text>
<polyline fill="none" stroke="black" points="54.5,-138.5 54.5,-174.5 "/>
<text text-anchor="middle" x="72" y="-152.8" font-family="Times,serif" font-size="14.00">L1</text>
<polyline fill="none" stroke="black" points="89.5,-138.5 89.5,-174.5 "/>
<text text-anchor="middle" x="108.5" y="-152.8" font-family="Times,serif" font-size="14.00">N1</text>
<polyline fill="none" stroke="black" points="127.5,-138.5 127.5,-174.5 "/>
<text text-anchor="middle" x="146.5" y="-152.8" font-family="Times,serif" font-size="14.00">w1</text>
<polyline fill="none" stroke="black" points="165.5,-138.5 165.5,-174.5 "/>
<text text-anchor="middle" x="216.5" y="-152.8" font-family="Times,serif" font-size="14.00">data 0.1204</text>
<polyline fill="none" stroke="black" points="267.5,-138.5 267.5,-174.5 "/>
<text text-anchor="middle" x="319.5" y="-152.8" font-family="Times,serif" font-size="14.00">grad 0.0000</text>
</g>
<!-- 139883735116208* -->
<g id="node20" class="node">
<title>139883735116208*</title>
<ellipse fill="none" stroke="black" cx="437" cy="-128.5" rx="27" ry="18"/>
<text text-anchor="middle" x="437" y="-124.8" font-family="Times,serif" font-size="14.00">*</text>
</g>
<!-- 139883734292256&#45;&gt;139883735116208* -->
<g id="edge10" class="edge">
<title>139883734292256&#45;&gt;139883735116208*</title>
<path fill="none" stroke="black" d="M347.52,-138.49C367.04,-136.29 385.28,-134.23 400.06,-132.56"/>
<polygon fill="black" stroke="black" points="400.64,-136.01 410.19,-131.41 399.86,-129.06 400.64,-136.01"/>
</g>
<!-- 139883124658992 -->
<g id="node15" class="node">
<title>139883124658992</title>
<polygon fill="none" stroke="black" points="500,-0.5 500,-36.5 862,-36.5 862,-0.5 500,-0.5"/>
<text text-anchor="middle" x="526" y="-14.8" font-family="Times,serif" font-size="14.00">v004</text>
<polyline fill="none" stroke="black" points="552,-0.5 552,-36.5 "/>
<text text-anchor="middle" x="569.5" y="-14.8" font-family="Times,serif" font-size="14.00">L1</text>
<polyline fill="none" stroke="black" points="587,-0.5 587,-36.5 "/>
<text text-anchor="middle" x="606" y="-14.8" font-family="Times,serif" font-size="14.00">N2</text>
<polyline fill="none" stroke="black" points="625,-0.5 625,-36.5 "/>
<text text-anchor="middle" x="638" y="-14.8" font-family="Times,serif" font-size="14.00">b</text>
<polyline fill="none" stroke="black" points="651,-0.5 651,-36.5 "/>
<text text-anchor="middle" x="704.5" y="-14.8" font-family="Times,serif" font-size="14.00">data &#45;0.2200</text>
<polyline fill="none" stroke="black" points="758,-0.5 758,-36.5 "/>
<text text-anchor="middle" x="810" y="-14.8" font-family="Times,serif" font-size="14.00">grad 0.0000</text>
</g>
<!-- 139883124658992&#45;&gt;139883734298160+ -->
<g id="edge13" class="edge">
<title>139883124658992&#45;&gt;139883734298160+</title>
<path fill="none" stroke="black" d="M821.35,-36.52C835.19,-39.4 848.94,-42.71 862,-46.5 872.68,-49.6 883.95,-54.1 893.9,-58.55"/>
<polygon fill="black" stroke="black" points="892.44,-61.72 902.98,-62.74 895.37,-55.37 892.44,-61.72"/>
</g>
<!-- 139883124664128 -->
<g id="node16" class="node">
<title>139883124664128</title>
<polygon fill="none" stroke="black" points="988,-0.5 988,-36.5 1357,-36.5 1357,-0.5 988,-0.5"/>
<text text-anchor="middle" x="1014" y="-14.8" font-family="Times,serif" font-size="14.00">v006</text>
<polyline fill="none" stroke="black" points="1040,-0.5 1040,-36.5 "/>
<text text-anchor="middle" x="1057.5" y="-14.8" font-family="Times,serif" font-size="14.00">L2</text>
<polyline fill="none" stroke="black" points="1075,-0.5 1075,-36.5 "/>
<text text-anchor="middle" x="1094" y="-14.8" font-family="Times,serif" font-size="14.00">N1</text>
<polyline fill="none" stroke="black" points="1113,-0.5 1113,-36.5 "/>
<text text-anchor="middle" x="1132" y="-14.8" font-family="Times,serif" font-size="14.00">w2</text>
<polyline fill="none" stroke="black" points="1151,-0.5 1151,-36.5 "/>
<text text-anchor="middle" x="1202" y="-14.8" font-family="Times,serif" font-size="14.00">data 1.0912</text>
<polyline fill="none" stroke="black" points="1253,-0.5 1253,-36.5 "/>
<text text-anchor="middle" x="1305" y="-14.8" font-family="Times,serif" font-size="14.00">grad 0.0000</text>
</g>
<!-- 139883124664128&#45;&gt;139883734292112* -->
<g id="edge16" class="edge">
<title>139883124664128&#45;&gt;139883734292112*</title>
<path fill="none" stroke="black" d="M1316.05,-36.51C1329.99,-39.39 1343.84,-42.7 1357,-46.5 1367.68,-49.58 1378.95,-54.08 1388.91,-58.53"/>
<polygon fill="black" stroke="black" points="1387.44,-61.71 1397.99,-62.72 1390.38,-55.35 1387.44,-61.71"/>
</g>
<!-- 139883735116112 -->
<g id="node17" class="node">
<title>139883735116112</title>
<polygon fill="none" stroke="black" points="22,-83.5 22,-119.5 352,-119.5 352,-83.5 22,-83.5"/>
<text text-anchor="middle" x="48" y="-97.8" font-family="Times,serif" font-size="14.00">v008</text>
<polyline fill="none" stroke="black" points="74,-83.5 74,-119.5 "/>
<text text-anchor="middle" x="84.5" y="-97.8" font-family="Times,serif" font-size="14.00"> </text>
<polyline fill="none" stroke="black" points="95,-83.5 95,-119.5 "/>
<text text-anchor="middle" x="105.5" y="-97.8" font-family="Times,serif" font-size="14.00"> </text>
<polyline fill="none" stroke="black" points="116,-83.5 116,-119.5 "/>
<text text-anchor="middle" x="131" y="-97.8" font-family="Times,serif" font-size="14.00">i1</text>
<polyline fill="none" stroke="black" points="146,-83.5 146,-119.5 "/>
<text text-anchor="middle" x="197" y="-97.8" font-family="Times,serif" font-size="14.00">data 4.0000</text>
<polyline fill="none" stroke="black" points="248,-83.5 248,-119.5 "/>
<text text-anchor="middle" x="300" y="-97.8" font-family="Times,serif" font-size="14.00">grad 0.0000</text>
</g>
<!-- 139883735116112&#45;&gt;139883735115776* -->
<g id="edge9" class="edge">
<title>139883735116112&#45;&gt;139883735115776*</title>
<path fill="none" stroke="black" d="M347.52,-83.49C367.04,-81.29 385.28,-79.23 400.06,-77.56"/>
<polygon fill="black" stroke="black" points="400.64,-81.01 410.19,-76.41 399.86,-74.06 400.64,-81.01"/>
</g>
<!-- 139883735116112&#45;&gt;139883735116208* -->
<g id="edge15" class="edge">
<title>139883735116112&#45;&gt;139883735116208*</title>
<path fill="none" stroke="black" d="M352.04,-119.36C369.81,-121.29 386.35,-123.09 399.97,-124.58"/>
<polygon fill="black" stroke="black" points="399.91,-128.09 410.23,-125.69 400.67,-121.13 399.91,-128.09"/>
</g>
<!-- 139883124659040 -->
<g id="node18" class="node">
<title>139883124659040</title>
<polygon fill="none" stroke="black" points="0,-28.5 0,-64.5 374,-64.5 374,-28.5 0,-28.5"/>
<text text-anchor="middle" x="26" y="-42.8" font-family="Times,serif" font-size="14.00">v003</text>
<polyline fill="none" stroke="black" points="52,-28.5 52,-64.5 "/>
<text text-anchor="middle" x="69.5" y="-42.8" font-family="Times,serif" font-size="14.00">L1</text>
<polyline fill="none" stroke="black" points="87,-28.5 87,-64.5 "/>
<text text-anchor="middle" x="106" y="-42.8" font-family="Times,serif" font-size="14.00">N2</text>
<polyline fill="none" stroke="black" points="125,-28.5 125,-64.5 "/>
<text text-anchor="middle" x="144" y="-42.8" font-family="Times,serif" font-size="14.00">w1</text>
<polyline fill="none" stroke="black" points="163,-28.5 163,-64.5 "/>
<text text-anchor="middle" x="216.5" y="-42.8" font-family="Times,serif" font-size="14.00">data &#45;0.3800</text>
<polyline fill="none" stroke="black" points="270,-28.5 270,-64.5 "/>
<text text-anchor="middle" x="322" y="-42.8" font-family="Times,serif" font-size="14.00">grad 0.0000</text>
</g>
<!-- 139883124659040&#45;&gt;139883735115776* -->
<g id="edge11" class="edge">
<title>139883124659040&#45;&gt;139883735115776*</title>
<path fill="none" stroke="black" d="M353.42,-64.51C370.67,-66.39 386.71,-68.13 399.97,-69.58"/>
<polygon fill="black" stroke="black" points="399.67,-73.07 409.99,-70.67 400.43,-66.11 399.67,-73.07"/>
</g>
<!-- 139883735116208 -->
<g id="node19" class="node">
<title>139883735116208</title>
<polygon fill="none" stroke="black" points="520.5,-110.5 520.5,-146.5 841.5,-146.5 841.5,-110.5 520.5,-110.5"/>
<text text-anchor="middle" x="546.5" y="-124.8" font-family="Times,serif" font-size="14.00">v070</text>
<polyline fill="none" stroke="black" points="572.5,-110.5 572.5,-146.5 "/>
<text text-anchor="middle" x="583" y="-124.8" font-family="Times,serif" font-size="14.00"> </text>
<polyline fill="none" stroke="black" points="593.5,-110.5 593.5,-146.5 "/>
<text text-anchor="middle" x="604" y="-124.8" font-family="Times,serif" font-size="14.00"> </text>
<polyline fill="none" stroke="black" points="614.5,-110.5 614.5,-146.5 "/>
<text text-anchor="middle" x="625" y="-124.8" font-family="Times,serif" font-size="14.00"> </text>
<polyline fill="none" stroke="black" points="635.5,-110.5 635.5,-146.5 "/>
<text text-anchor="middle" x="686.5" y="-124.8" font-family="Times,serif" font-size="14.00">data 0.4818</text>
<polyline fill="none" stroke="black" points="737.5,-110.5 737.5,-146.5 "/>
<text text-anchor="middle" x="789.5" y="-124.8" font-family="Times,serif" font-size="14.00">grad 0.0000</text>
</g>
<!-- 139883735116208&#45;&gt;139883735118800+ -->
<g id="edge12" class="edge">
<title>139883735116208&#45;&gt;139883735118800+</title>
<path fill="none" stroke="black" d="M841.73,-128.5C858.54,-128.5 874.24,-128.5 887.32,-128.5"/>
<polygon fill="black" stroke="black" points="887.66,-132 897.66,-128.5 887.66,-125 887.66,-132"/>
</g>
<!-- 139883735116208*&#45;&gt;139883735116208 -->
<g id="edge6" class="edge">
<title>139883735116208*&#45;&gt;139883735116208</title>
<path fill="none" stroke="black" d="M464.36,-128.5C476.7,-128.5 492.53,-128.5 510,-128.5"/>
<polygon fill="black" stroke="black" points="510.46,-132 520.46,-128.5 510.46,-125 510.46,-132"/>
</g>
<!-- 139883734293456 -->
<g id="node21" class="node">
<title>139883734293456</title>
<polygon fill="none" stroke="black" points="2243,-108.5 2243,-144.5 2569,-144.5 2569,-108.5 2243,-108.5"/>
<text text-anchor="middle" x="2269" y="-122.8" font-family="Times,serif" font-size="14.00">v075</text>
<polyline fill="none" stroke="black" points="2295,-108.5 2295,-144.5 "/>
<text text-anchor="middle" x="2305.5" y="-122.8" font-family="Times,serif" font-size="14.00"> </text>
<polyline fill="none" stroke="black" points="2316,-108.5 2316,-144.5 "/>
<text text-anchor="middle" x="2326.5" y="-122.8" font-family="Times,serif" font-size="14.00"> </text>
<polyline fill="none" stroke="black" points="2337,-108.5 2337,-144.5 "/>
<text text-anchor="middle" x="2347.5" y="-122.8" font-family="Times,serif" font-size="14.00"> </text>
<polyline fill="none" stroke="black" points="2358,-108.5 2358,-144.5 "/>
<text text-anchor="middle" x="2411.5" y="-122.8" font-family="Times,serif" font-size="14.00">data &#45;0.0696</text>
<polyline fill="none" stroke="black" points="2465,-108.5 2465,-144.5 "/>
<text text-anchor="middle" x="2517" y="-122.8" font-family="Times,serif" font-size="14.00">grad 0.0000</text>
</g>
<!-- 139883734293456&#45;&gt;139883734295568+ -->
<g id="edge14" class="edge">
<title>139883734293456&#45;&gt;139883734295568+</title>
<path fill="none" stroke="black" d="M2562.27,-108.48C2574.27,-107.09 2585.48,-105.78 2595.23,-104.65"/>
<polygon fill="black" stroke="black" points="2595.67,-108.12 2605.2,-103.49 2594.86,-101.17 2595.67,-108.12"/>
</g>
<!-- 139883734293456+&#45;&gt;139883734293456 -->
<g id="edge7" class="edge">
<title>139883734293456+&#45;&gt;139883734293456</title>
<path fill="none" stroke="black" d="M2071.18,-128.35C2105.81,-128.16 2169.83,-127.81 2232.62,-127.46"/>
<polygon fill="black" stroke="black" points="2232.7,-130.96 2242.68,-127.4 2232.66,-123.96 2232.7,-130.96"/>
</g>
<!-- 139883734291440 -->
<g id="node23" class="node">
<title>139883734291440</title>
<polygon fill="none" stroke="black" points="1503.5,-110.5 1503.5,-146.5 1824.5,-146.5 1824.5,-110.5 1503.5,-110.5"/>
<text text-anchor="middle" x="1529.5" y="-124.8" font-family="Times,serif" font-size="14.00">v074</text>
<polyline fill="none" stroke="black" points="1555.5,-110.5 1555.5,-146.5 "/>
<text text-anchor="middle" x="1566" y="-124.8" font-family="Times,serif" font-size="14.00"> </text>
<polyline fill="none" stroke="black" points="1576.5,-110.5 1576.5,-146.5 "/>
<text text-anchor="middle" x="1587" y="-124.8" font-family="Times,serif" font-size="14.00"> </text>
<polyline fill="none" stroke="black" points="1597.5,-110.5 1597.5,-146.5 "/>
<text text-anchor="middle" x="1608" y="-124.8" font-family="Times,serif" font-size="14.00"> </text>
<polyline fill="none" stroke="black" points="1618.5,-110.5 1618.5,-146.5 "/>
<text text-anchor="middle" x="1669.5" y="-124.8" font-family="Times,serif" font-size="14.00">data 0.1304</text>
<polyline fill="none" stroke="black" points="1720.5,-110.5 1720.5,-146.5 "/>
<text text-anchor="middle" x="1772.5" y="-124.8" font-family="Times,serif" font-size="14.00">grad 0.0000</text>
</g>
<!-- 139883734291440&#45;&gt;139883734293456+ -->
<g id="edge18" class="edge">
<title>139883734291440&#45;&gt;139883734293456+</title>
<path fill="none" stroke="black" d="M1824.76,-128.5C1892.19,-128.5 1964.7,-128.5 2006.85,-128.5"/>
<polygon fill="black" stroke="black" points="2006.89,-132 2016.89,-128.5 2006.89,-125 2006.89,-132"/>
</g>
<!-- 139883734291440*&#45;&gt;139883734291440 -->
<g id="edge8" class="edge">
<title>139883734291440*&#45;&gt;139883734291440</title>
<path fill="none" stroke="black" d="M1447.36,-128.5C1459.7,-128.5 1475.53,-128.5 1493,-128.5"/>
<polygon fill="black" stroke="black" points="1493.46,-132 1503.46,-128.5 1493.46,-125 1493.46,-132"/>
</g>
</g>
</svg>
