<?xml version="1.0" encoding="UTF-8" standalone="no"?>
<!DOCTYPE svg PUBLIC "-//W3C//DTD SVG 1.1//EN"
 "http://www.w3.org/Graphics/SVG/1.1/DTD/svg11.dtd">
<!-- Generated by graphviz version 2.43.0 (0)
 -->
<!-- Title: %3 Pages: 1 -->
<svg width="3491pt" height="240pt"
 viewBox="0.00 0.00 3491.00 240.00" xmlns="http://www.w3.org/2000/svg" xmlns:xlink="http://www.w3.org/1999/xlink">
<g id="graph0" class="graph" transform="scale(1 1) rotate(0) translate(4 236)">
<title>%3</title>
<polygon fill="white" stroke="transparent" points="-4,4 -4,-236 3487,-236 3487,4 -4,4"/>
<!-- 140625756894736 -->
<g id="node1" class="node">
<title>140625756894736</title>
<polygon fill="none" stroke="black" points="3162,-75.5 3162,-111.5 3483,-111.5 3483,-75.5 3162,-75.5"/>
<text text-anchor="middle" x="3188" y="-89.8" font-family="Times,serif" font-size="14.00">v036</text>
<polyline fill="none" stroke="black" points="3214,-75.5 3214,-111.5 "/>
<text text-anchor="middle" x="3224.5" y="-89.8" font-family="Times,serif" font-size="14.00"> </text>
<polyline fill="none" stroke="black" points="3235,-75.5 3235,-111.5 "/>
<text text-anchor="middle" x="3245.5" y="-89.8" font-family="Times,serif" font-size="14.00"> </text>
<polyline fill="none" stroke="black" points="3256,-75.5 3256,-111.5 "/>
<text text-anchor="middle" x="3266.5" y="-89.8" font-family="Times,serif" font-size="14.00"> </text>
<polyline fill="none" stroke="black" points="3277,-75.5 3277,-111.5 "/>
<text text-anchor="middle" x="3328" y="-89.8" font-family="Times,serif" font-size="14.00">data 0.1604</text>
<polyline fill="none" stroke="black" points="3379,-75.5 3379,-111.5 "/>
<text text-anchor="middle" x="3431" y="-89.8" font-family="Times,serif" font-size="14.00">grad 0.0000</text>
</g>
<!-- 140625756894736* -->
<g id="node2" class="node">
<title>140625756894736*</title>
<ellipse fill="none" stroke="black" cx="3099" cy="-93.5" rx="27" ry="18"/>
<text text-anchor="middle" x="3099" y="-89.8" font-family="Times,serif" font-size="14.00">*</text>
</g>
<!-- 140625756894736*&#45;&gt;140625756894736 -->
<g id="edge1" class="edge">
<title>140625756894736*&#45;&gt;140625756894736</title>
<path fill="none" stroke="black" d="M3126.28,-93.5C3133.68,-93.5 3142.32,-93.5 3151.76,-93.5"/>
<polygon fill="black" stroke="black" points="3151.88,-97 3161.88,-93.5 3151.88,-90 3151.88,-97"/>
</g>
<!-- 140625757229584 -->
<g id="node3" class="node">
<title>140625757229584</title>
<polygon fill="none" stroke="black" points="0,-188.5 0,-224.5 369,-224.5 369,-188.5 0,-188.5"/>
<text text-anchor="middle" x="26" y="-202.8" font-family="Times,serif" font-size="14.00">v001</text>
<polyline fill="none" stroke="black" points="52,-188.5 52,-224.5 "/>
<text text-anchor="middle" x="69.5" y="-202.8" font-family="Times,serif" font-size="14.00">L1</text>
<polyline fill="none" stroke="black" points="87,-188.5 87,-224.5 "/>
<text text-anchor="middle" x="106" y="-202.8" font-family="Times,serif" font-size="14.00">N1</text>
<polyline fill="none" stroke="black" points="125,-188.5 125,-224.5 "/>
<text text-anchor="middle" x="144" y="-202.8" font-family="Times,serif" font-size="14.00">w1</text>
<polyline fill="none" stroke="black" points="163,-188.5 163,-224.5 "/>
<text text-anchor="middle" x="214" y="-202.8" font-family="Times,serif" font-size="14.00">data 0.2800</text>
<polyline fill="none" stroke="black" points="265,-188.5 265,-224.5 "/>
<text text-anchor="middle" x="317" y="-202.8" font-family="Times,serif" font-size="14.00">grad 2.0000</text>
</g>
<!-- 140625756889168* -->
<g id="node6" class="node">
<title>140625756889168*</title>
<ellipse fill="none" stroke="black" cx="432" cy="-206.5" rx="27" ry="18"/>
<text text-anchor="middle" x="432" y="-202.8" font-family="Times,serif" font-size="14.00">*</text>
</g>
<!-- 140625757229584&#45;&gt;140625756889168* -->
<g id="edge25" class="edge">
<title>140625757229584&#45;&gt;140625756889168*</title>
<path fill="none" stroke="black" d="M369.05,-206.5C378.29,-206.5 386.92,-206.5 394.62,-206.5"/>
<polygon fill="black" stroke="black" points="394.87,-210 404.87,-206.5 394.87,-203 394.87,-210"/>
</g>
<!-- 140625757228576 -->
<g id="node4" class="node">
<title>140625757228576</title>
<polygon fill="none" stroke="black" points="0,-78.5 0,-114.5 369,-114.5 369,-78.5 0,-78.5"/>
<text text-anchor="middle" x="26" y="-92.8" font-family="Times,serif" font-size="14.00">v003</text>
<polyline fill="none" stroke="black" points="52,-78.5 52,-114.5 "/>
<text text-anchor="middle" x="69.5" y="-92.8" font-family="Times,serif" font-size="14.00">L1</text>
<polyline fill="none" stroke="black" points="87,-78.5 87,-114.5 "/>
<text text-anchor="middle" x="106" y="-92.8" font-family="Times,serif" font-size="14.00">N2</text>
<polyline fill="none" stroke="black" points="125,-78.5 125,-114.5 "/>
<text text-anchor="middle" x="144" y="-92.8" font-family="Times,serif" font-size="14.00">w1</text>
<polyline fill="none" stroke="black" points="163,-78.5 163,-114.5 "/>
<text text-anchor="middle" x="214" y="-92.8" font-family="Times,serif" font-size="14.00">data 0.0400</text>
<polyline fill="none" stroke="black" points="265,-78.5 265,-114.5 "/>
<text text-anchor="middle" x="317" y="-92.8" font-family="Times,serif" font-size="14.00">grad 4.4000</text>
</g>
<!-- 140625756892528* -->
<g id="node20" class="node">
<title>140625756892528*</title>
<ellipse fill="none" stroke="black" cx="432" cy="-96.5" rx="27" ry="18"/>
<text text-anchor="middle" x="432" y="-92.8" font-family="Times,serif" font-size="14.00">*</text>
</g>
<!-- 140625757228576&#45;&gt;140625756892528* -->
<g id="edge23" class="edge">
<title>140625757228576&#45;&gt;140625756892528*</title>
<path fill="none" stroke="black" d="M369.05,-96.5C378.29,-96.5 386.92,-96.5 394.62,-96.5"/>
<polygon fill="black" stroke="black" points="394.87,-100 404.87,-96.5 394.87,-93 394.87,-100"/>
</g>
<!-- 140625756889168 -->
<g id="node5" class="node">
<title>140625756889168</title>
<polygon fill="none" stroke="black" points="515.5,-188.5 515.5,-224.5 836.5,-224.5 836.5,-188.5 515.5,-188.5"/>
<text text-anchor="middle" x="541.5" y="-202.8" font-family="Times,serif" font-size="14.00">v028</text>
<polyline fill="none" stroke="black" points="567.5,-188.5 567.5,-224.5 "/>
<text text-anchor="middle" x="578" y="-202.8" font-family="Times,serif" font-size="14.00"> </text>
<polyline fill="none" stroke="black" points="588.5,-188.5 588.5,-224.5 "/>
<text text-anchor="middle" x="599" y="-202.8" font-family="Times,serif" font-size="14.00"> </text>
<polyline fill="none" stroke="black" points="609.5,-188.5 609.5,-224.5 "/>
<text text-anchor="middle" x="620" y="-202.8" font-family="Times,serif" font-size="14.00"> </text>
<polyline fill="none" stroke="black" points="630.5,-188.5 630.5,-224.5 "/>
<text text-anchor="middle" x="681.5" y="-202.8" font-family="Times,serif" font-size="14.00">data 1.1200</text>
<polyline fill="none" stroke="black" points="732.5,-188.5 732.5,-224.5 "/>
<text text-anchor="middle" x="784.5" y="-202.8" font-family="Times,serif" font-size="14.00">grad 0.0000</text>
</g>
<!-- 140625756894112+ -->
<g id="node23" class="node">
<title>140625756894112+</title>
<ellipse fill="none" stroke="black" cx="920" cy="-158.5" rx="27" ry="18"/>
<text text-anchor="middle" x="920" y="-154.8" font-family="Times,serif" font-size="14.00">+</text>
</g>
<!-- 140625756889168&#45;&gt;140625756894112+ -->
<g id="edge11" class="edge">
<title>140625756889168&#45;&gt;140625756894112+</title>
<path fill="none" stroke="black" d="M814.59,-188.44C828.98,-185.79 843.33,-182.81 857,-179.5 866.84,-177.12 877.33,-173.85 886.84,-170.6"/>
<polygon fill="black" stroke="black" points="888.05,-173.89 896.32,-167.26 885.72,-167.28 888.05,-173.89"/>
</g>
<!-- 140625756889168*&#45;&gt;140625756889168 -->
<g id="edge2" class="edge">
<title>140625756889168*&#45;&gt;140625756889168</title>
<path fill="none" stroke="black" d="M459.36,-206.5C471.7,-206.5 487.53,-206.5 505,-206.5"/>
<polygon fill="black" stroke="black" points="505.46,-210 515.46,-206.5 505.46,-203 505.46,-210"/>
</g>
<!-- 140625756895888 -->
<g id="node7" class="node">
<title>140625756895888</title>
<polygon fill="none" stroke="black" points="2233,-101.5 2233,-137.5 2554,-137.5 2554,-101.5 2233,-101.5"/>
<text text-anchor="middle" x="2259" y="-115.8" font-family="Times,serif" font-size="14.00">v033</text>
<polyline fill="none" stroke="black" points="2285,-101.5 2285,-137.5 "/>
<text text-anchor="middle" x="2295.5" y="-115.8" font-family="Times,serif" font-size="14.00"> </text>
<polyline fill="none" stroke="black" points="2306,-101.5 2306,-137.5 "/>
<text text-anchor="middle" x="2316.5" y="-115.8" font-family="Times,serif" font-size="14.00"> </text>
<polyline fill="none" stroke="black" points="2327,-101.5 2327,-137.5 "/>
<text text-anchor="middle" x="2337.5" y="-115.8" font-family="Times,serif" font-size="14.00"> </text>
<polyline fill="none" stroke="black" points="2348,-101.5 2348,-137.5 "/>
<text text-anchor="middle" x="2399" y="-115.8" font-family="Times,serif" font-size="14.00">data 0.3532</text>
<polyline fill="none" stroke="black" points="2450,-101.5 2450,-137.5 "/>
<text text-anchor="middle" x="2502" y="-115.8" font-family="Times,serif" font-size="14.00">grad 0.0000</text>
</g>
<!-- 140625756885472+ -->
<g id="node26" class="node">
<title>140625756885472+</title>
<ellipse fill="none" stroke="black" cx="2617" cy="-93.5" rx="27" ry="18"/>
<text text-anchor="middle" x="2617" y="-89.8" font-family="Times,serif" font-size="14.00">+</text>
</g>
<!-- 140625756895888&#45;&gt;140625756885472+ -->
<g id="edge18" class="edge">
<title>140625756895888&#45;&gt;140625756885472+</title>
<path fill="none" stroke="black" d="M2548.04,-101.48C2559.67,-100.11 2570.55,-98.83 2580.06,-97.72"/>
<polygon fill="black" stroke="black" points="2580.64,-101.17 2590.17,-96.53 2579.83,-94.22 2580.64,-101.17"/>
</g>
<!-- 140625756895888+ -->
<g id="node8" class="node">
<title>140625756895888+</title>
<ellipse fill="none" stroke="black" cx="2036.5" cy="-121.5" rx="27" ry="18"/>
<text text-anchor="middle" x="2036.5" y="-117.8" font-family="Times,serif" font-size="14.00">+</text>
</g>
<!-- 140625756895888+&#45;&gt;140625756895888 -->
<g id="edge3" class="edge">
<title>140625756895888+&#45;&gt;140625756895888</title>
<path fill="none" stroke="black" d="M2063.6,-121.35C2097.81,-121.16 2160.72,-120.81 2222.43,-120.46"/>
<polygon fill="black" stroke="black" points="2222.74,-123.96 2232.72,-120.4 2222.7,-116.96 2222.74,-123.96"/>
</g>
<!-- 140625756888736 -->
<g id="node9" class="node">
<title>140625756888736</title>
<polygon fill="none" stroke="black" points="1498.5,-154.5 1498.5,-190.5 1819.5,-190.5 1819.5,-154.5 1498.5,-154.5"/>
<text text-anchor="middle" x="1524.5" y="-168.8" font-family="Times,serif" font-size="14.00">v032</text>
<polyline fill="none" stroke="black" points="1550.5,-154.5 1550.5,-190.5 "/>
<text text-anchor="middle" x="1561" y="-168.8" font-family="Times,serif" font-size="14.00"> </text>
<polyline fill="none" stroke="black" points="1571.5,-154.5 1571.5,-190.5 "/>
<text text-anchor="middle" x="1582" y="-168.8" font-family="Times,serif" font-size="14.00"> </text>
<polyline fill="none" stroke="black" points="1592.5,-154.5 1592.5,-190.5 "/>
<text text-anchor="middle" x="1603" y="-168.8" font-family="Times,serif" font-size="14.00"> </text>
<polyline fill="none" stroke="black" points="1613.5,-154.5 1613.5,-190.5 "/>
<text text-anchor="middle" x="1664.5" y="-168.8" font-family="Times,serif" font-size="14.00">data 0.4532</text>
<polyline fill="none" stroke="black" points="1715.5,-154.5 1715.5,-190.5 "/>
<text text-anchor="middle" x="1767.5" y="-168.8" font-family="Times,serif" font-size="14.00">grad 0.0000</text>
</g>
<!-- 140625756888736&#45;&gt;140625756895888+ -->
<g id="edge20" class="edge">
<title>140625756888736&#45;&gt;140625756895888+</title>
<path fill="none" stroke="black" d="M1792.65,-154.48C1866.43,-144.46 1952.67,-132.75 1999.96,-126.33"/>
<polygon fill="black" stroke="black" points="2000.56,-129.78 2010,-124.96 1999.62,-122.84 2000.56,-129.78"/>
</g>
<!-- 140625756888736* -->
<g id="node10" class="node">
<title>140625756888736*</title>
<ellipse fill="none" stroke="black" cx="1415" cy="-172.5" rx="27" ry="18"/>
<text text-anchor="middle" x="1415" y="-168.8" font-family="Times,serif" font-size="14.00">*</text>
</g>
<!-- 140625756888736*&#45;&gt;140625756888736 -->
<g id="edge4" class="edge">
<title>140625756888736*&#45;&gt;140625756888736</title>
<path fill="none" stroke="black" d="M1442.36,-172.5C1454.7,-172.5 1470.53,-172.5 1488,-172.5"/>
<polygon fill="black" stroke="black" points="1488.46,-176 1498.46,-172.5 1488.46,-169 1488.46,-176"/>
</g>
<!-- 140625757228720 -->
<g id="node11" class="node">
<title>140625757228720</title>
<polygon fill="none" stroke="black" points="495,-133.5 495,-169.5 857,-169.5 857,-133.5 495,-133.5"/>
<text text-anchor="middle" x="521" y="-147.8" font-family="Times,serif" font-size="14.00">v002</text>
<polyline fill="none" stroke="black" points="547,-133.5 547,-169.5 "/>
<text text-anchor="middle" x="564.5" y="-147.8" font-family="Times,serif" font-size="14.00">L1</text>
<polyline fill="none" stroke="black" points="582,-133.5 582,-169.5 "/>
<text text-anchor="middle" x="601" y="-147.8" font-family="Times,serif" font-size="14.00">N1</text>
<polyline fill="none" stroke="black" points="620,-133.5 620,-169.5 "/>
<text text-anchor="middle" x="633" y="-147.8" font-family="Times,serif" font-size="14.00">b</text>
<polyline fill="none" stroke="black" points="646,-133.5 646,-169.5 "/>
<text text-anchor="middle" x="699.5" y="-147.8" font-family="Times,serif" font-size="14.00">data &#45;0.0550</text>
<polyline fill="none" stroke="black" points="753,-133.5 753,-169.5 "/>
<text text-anchor="middle" x="805" y="-147.8" font-family="Times,serif" font-size="14.00">grad 0.5000</text>
</g>
<!-- 140625757228720&#45;&gt;140625756894112+ -->
<g id="edge26" class="edge">
<title>140625757228720&#45;&gt;140625756894112+</title>
<path fill="none" stroke="black" d="M857.31,-156.72C866.5,-156.98 875.08,-157.23 882.76,-157.45"/>
<polygon fill="black" stroke="black" points="882.86,-160.96 892.96,-157.75 883.07,-153.96 882.86,-160.96"/>
</g>
<!-- 140625756893344 -->
<g id="node12" class="node">
<title>140625756893344</title>
<polygon fill="none" stroke="black" points="1876,-48.5 1876,-84.5 2197,-84.5 2197,-48.5 1876,-48.5"/>
<text text-anchor="middle" x="1902" y="-62.8" font-family="Times,serif" font-size="14.00">v034</text>
<polyline fill="none" stroke="black" points="1928,-48.5 1928,-84.5 "/>
<text text-anchor="middle" x="1938.5" y="-62.8" font-family="Times,serif" font-size="14.00"> </text>
<polyline fill="none" stroke="black" points="1949,-48.5 1949,-84.5 "/>
<text text-anchor="middle" x="1959.5" y="-62.8" font-family="Times,serif" font-size="14.00"> </text>
<polyline fill="none" stroke="black" points="1970,-48.5 1970,-84.5 "/>
<text text-anchor="middle" x="1980.5" y="-62.8" font-family="Times,serif" font-size="14.00"> </text>
<polyline fill="none" stroke="black" points="1991,-48.5 1991,-84.5 "/>
<text text-anchor="middle" x="2042" y="-62.8" font-family="Times,serif" font-size="14.00">data 0.0473</text>
<polyline fill="none" stroke="black" points="2093,-48.5 2093,-84.5 "/>
<text text-anchor="middle" x="2145" y="-62.8" font-family="Times,serif" font-size="14.00">grad 0.0000</text>
</g>
<!-- 140625756893344&#45;&gt;140625756885472+ -->
<g id="edge15" class="edge">
<title>140625756893344&#45;&gt;140625756885472+</title>
<path fill="none" stroke="black" d="M2197.11,-73.95C2328.28,-80.07 2504.3,-88.29 2579.48,-91.8"/>
<polygon fill="black" stroke="black" points="2579.67,-95.31 2589.82,-92.28 2580,-88.32 2579.67,-95.31"/>
</g>
<!-- 140625756893344* -->
<g id="node13" class="node">
<title>140625756893344*</title>
<ellipse fill="none" stroke="black" cx="1415" cy="-66.5" rx="27" ry="18"/>
<text text-anchor="middle" x="1415" y="-62.8" font-family="Times,serif" font-size="14.00">*</text>
</g>
<!-- 140625756893344*&#45;&gt;140625756893344 -->
<g id="edge5" class="edge">
<title>140625756893344*&#45;&gt;140625756893344</title>
<path fill="none" stroke="black" d="M1442.22,-66.5C1513.76,-66.5 1716.85,-66.5 1865.55,-66.5"/>
<polygon fill="black" stroke="black" points="1865.71,-70 1875.71,-66.5 1865.71,-63 1865.71,-70"/>
</g>
<!-- 140625757228768 -->
<g id="node14" class="node">
<title>140625757228768</title>
<polygon fill="none" stroke="black" points="495,-23.5 495,-59.5 857,-59.5 857,-23.5 495,-23.5"/>
<text text-anchor="middle" x="521" y="-37.8" font-family="Times,serif" font-size="14.00">v004</text>
<polyline fill="none" stroke="black" points="547,-23.5 547,-59.5 "/>
<text text-anchor="middle" x="564.5" y="-37.8" font-family="Times,serif" font-size="14.00">L1</text>
<polyline fill="none" stroke="black" points="582,-23.5 582,-59.5 "/>
<text text-anchor="middle" x="601" y="-37.8" font-family="Times,serif" font-size="14.00">N2</text>
<polyline fill="none" stroke="black" points="620,-23.5 620,-59.5 "/>
<text text-anchor="middle" x="633" y="-37.8" font-family="Times,serif" font-size="14.00">b</text>
<polyline fill="none" stroke="black" points="646,-23.5 646,-59.5 "/>
<text text-anchor="middle" x="699.5" y="-37.8" font-family="Times,serif" font-size="14.00">data &#45;0.1150</text>
<polyline fill="none" stroke="black" points="753,-23.5 753,-59.5 "/>
<text text-anchor="middle" x="805" y="-37.8" font-family="Times,serif" font-size="14.00">grad 1.1000</text>
</g>
<!-- 140625756889936+ -->
<g id="node18" class="node">
<title>140625756889936+</title>
<ellipse fill="none" stroke="black" cx="920" cy="-73.5" rx="27" ry="18"/>
<text text-anchor="middle" x="920" y="-69.8" font-family="Times,serif" font-size="14.00">+</text>
</g>
<!-- 140625757228768&#45;&gt;140625756889936+ -->
<g id="edge14" class="edge">
<title>140625757228768&#45;&gt;140625756889936+</title>
<path fill="none" stroke="black" d="M813.21,-59.51C839.14,-62.94 864.13,-66.24 883.3,-68.78"/>
<polygon fill="black" stroke="black" points="882.95,-72.26 893.33,-70.11 883.87,-65.32 882.95,-72.26"/>
</g>
<!-- 140626157073648 -->
<g id="node15" class="node">
<title>140626157073648</title>
<polygon fill="none" stroke="black" points="19.5,-133.5 19.5,-169.5 349.5,-169.5 349.5,-133.5 19.5,-133.5"/>
<text text-anchor="middle" x="45.5" y="-147.8" font-family="Times,serif" font-size="14.00">v008</text>
<polyline fill="none" stroke="black" points="71.5,-133.5 71.5,-169.5 "/>
<text text-anchor="middle" x="82" y="-147.8" font-family="Times,serif" font-size="14.00"> </text>
<polyline fill="none" stroke="black" points="92.5,-133.5 92.5,-169.5 "/>
<text text-anchor="middle" x="103" y="-147.8" font-family="Times,serif" font-size="14.00"> </text>
<polyline fill="none" stroke="black" points="113.5,-133.5 113.5,-169.5 "/>
<text text-anchor="middle" x="128.5" y="-147.8" font-family="Times,serif" font-size="14.00">i1</text>
<polyline fill="none" stroke="black" points="143.5,-133.5 143.5,-169.5 "/>
<text text-anchor="middle" x="194.5" y="-147.8" font-family="Times,serif" font-size="14.00">data 4.0000</text>
<polyline fill="none" stroke="black" points="245.5,-133.5 245.5,-169.5 "/>
<text text-anchor="middle" x="297.5" y="-147.8" font-family="Times,serif" font-size="14.00">grad 0.4760</text>
</g>
<!-- 140626157073648&#45;&gt;140625756889168* -->
<g id="edge13" class="edge">
<title>140626157073648&#45;&gt;140625756889168*</title>
<path fill="none" stroke="black" d="M328.05,-169.51C341.99,-172.39 355.84,-175.7 369,-179.5 379.68,-182.58 390.95,-187.08 400.91,-191.53"/>
<polygon fill="black" stroke="black" points="399.44,-194.71 409.99,-195.72 402.38,-188.35 399.44,-194.71"/>
</g>
<!-- 140626157073648&#45;&gt;140625756892528* -->
<g id="edge24" class="edge">
<title>140626157073648&#45;&gt;140625756892528*</title>
<path fill="none" stroke="black" d="M328.05,-133.49C341.99,-130.61 355.84,-127.3 369,-123.5 379.68,-120.42 390.95,-115.92 400.91,-111.47"/>
<polygon fill="black" stroke="black" points="402.38,-114.65 409.99,-107.28 399.44,-108.29 402.38,-114.65"/>
</g>
<!-- 140625757232368 -->
<g id="node16" class="node">
<title>140625757232368</title>
<polygon fill="none" stroke="black" points="983,-195.5 983,-231.5 1352,-231.5 1352,-195.5 983,-195.5"/>
<text text-anchor="middle" x="1009" y="-209.8" font-family="Times,serif" font-size="14.00">v005</text>
<polyline fill="none" stroke="black" points="1035,-195.5 1035,-231.5 "/>
<text text-anchor="middle" x="1052.5" y="-209.8" font-family="Times,serif" font-size="14.00">L2</text>
<polyline fill="none" stroke="black" points="1070,-195.5 1070,-231.5 "/>
<text text-anchor="middle" x="1089" y="-209.8" font-family="Times,serif" font-size="14.00">N1</text>
<polyline fill="none" stroke="black" points="1108,-195.5 1108,-231.5 "/>
<text text-anchor="middle" x="1127" y="-209.8" font-family="Times,serif" font-size="14.00">w1</text>
<polyline fill="none" stroke="black" points="1146,-195.5 1146,-231.5 "/>
<text text-anchor="middle" x="1197" y="-209.8" font-family="Times,serif" font-size="14.00">data 0.4255</text>
<polyline fill="none" stroke="black" points="1248,-195.5 1248,-231.5 "/>
<text text-anchor="middle" x="1300" y="-209.8" font-family="Times,serif" font-size="14.00">grad 1.4900</text>
</g>
<!-- 140625757232368&#45;&gt;140625756888736* -->
<g id="edge22" class="edge">
<title>140625757232368&#45;&gt;140625756888736*</title>
<path fill="none" stroke="black" d="M1299.52,-195.46C1317.19,-192.67 1335.06,-189.65 1352,-186.5 1360.89,-184.84 1370.44,-182.82 1379.32,-180.82"/>
<polygon fill="black" stroke="black" points="1380.39,-184.17 1389.35,-178.52 1378.82,-177.34 1380.39,-184.17"/>
</g>
<!-- 140625756889936 -->
<g id="node17" class="node">
<title>140625756889936</title>
<polygon fill="none" stroke="black" points="989.5,-55.5 989.5,-91.5 1345.5,-91.5 1345.5,-55.5 989.5,-55.5"/>
<text text-anchor="middle" x="1015.5" y="-69.8" font-family="Times,serif" font-size="14.00">v031</text>
<polyline fill="none" stroke="black" points="1041.5,-55.5 1041.5,-91.5 "/>
<text text-anchor="middle" x="1059" y="-69.8" font-family="Times,serif" font-size="14.00">L1</text>
<polyline fill="none" stroke="black" points="1076.5,-55.5 1076.5,-91.5 "/>
<text text-anchor="middle" x="1095.5" y="-69.8" font-family="Times,serif" font-size="14.00">N2</text>
<polyline fill="none" stroke="black" points="1114.5,-55.5 1114.5,-91.5 "/>
<text text-anchor="middle" x="1127" y="-69.8" font-family="Times,serif" font-size="14.00">a</text>
<polyline fill="none" stroke="black" points="1139.5,-55.5 1139.5,-91.5 "/>
<text text-anchor="middle" x="1190.5" y="-69.8" font-family="Times,serif" font-size="14.00">data 0.0450</text>
<polyline fill="none" stroke="black" points="1241.5,-55.5 1241.5,-91.5 "/>
<text text-anchor="middle" x="1293.5" y="-69.8" font-family="Times,serif" font-size="14.00">grad 0.0000</text>
</g>
<!-- 140625756889936&#45;&gt;140625756893344* -->
<g id="edge17" class="edge">
<title>140625756889936&#45;&gt;140625756893344*</title>
<path fill="none" stroke="black" d="M1345.61,-68.45C1357.37,-68.11 1368.29,-67.8 1377.8,-67.53"/>
<polygon fill="black" stroke="black" points="1378.02,-71.03 1387.91,-67.24 1377.82,-64.03 1378.02,-71.03"/>
</g>
<!-- 140625756889936+&#45;&gt;140625756889936 -->
<g id="edge6" class="edge">
<title>140625756889936+&#45;&gt;140625756889936</title>
<path fill="none" stroke="black" d="M947.27,-73.5C956.26,-73.5 967.11,-73.5 979.12,-73.5"/>
<polygon fill="black" stroke="black" points="979.46,-77 989.46,-73.5 979.46,-70 979.46,-77"/>
</g>
<!-- 140625756892528 -->
<g id="node19" class="node">
<title>140625756892528</title>
<polygon fill="none" stroke="black" points="515.5,-78.5 515.5,-114.5 836.5,-114.5 836.5,-78.5 515.5,-78.5"/>
<text text-anchor="middle" x="541.5" y="-92.8" font-family="Times,serif" font-size="14.00">v030</text>
<polyline fill="none" stroke="black" points="567.5,-78.5 567.5,-114.5 "/>
<text text-anchor="middle" x="578" y="-92.8" font-family="Times,serif" font-size="14.00"> </text>
<polyline fill="none" stroke="black" points="588.5,-78.5 588.5,-114.5 "/>
<text text-anchor="middle" x="599" y="-92.8" font-family="Times,serif" font-size="14.00"> </text>
<polyline fill="none" stroke="black" points="609.5,-78.5 609.5,-114.5 "/>
<text text-anchor="middle" x="620" y="-92.8" font-family="Times,serif" font-size="14.00"> </text>
<polyline fill="none" stroke="black" points="630.5,-78.5 630.5,-114.5 "/>
<text text-anchor="middle" x="681.5" y="-92.8" font-family="Times,serif" font-size="14.00">data 0.1600</text>
<polyline fill="none" stroke="black" points="732.5,-78.5 732.5,-114.5 "/>
<text text-anchor="middle" x="784.5" y="-92.8" font-family="Times,serif" font-size="14.00">grad 0.0000</text>
</g>
<!-- 140625756892528&#45;&gt;140625756889936+ -->
<g id="edge12" class="edge">
<title>140625756892528&#45;&gt;140625756889936+</title>
<path fill="none" stroke="black" d="M836.73,-81.32C853.85,-79.69 869.82,-78.17 883.04,-76.92"/>
<polygon fill="black" stroke="black" points="883.4,-80.4 893.03,-75.97 882.74,-73.43 883.4,-80.4"/>
</g>
<!-- 140625756892528*&#45;&gt;140625756892528 -->
<g id="edge7" class="edge">
<title>140625756892528*&#45;&gt;140625756892528</title>
<path fill="none" stroke="black" d="M459.36,-96.5C471.7,-96.5 487.53,-96.5 505,-96.5"/>
<polygon fill="black" stroke="black" points="505.46,-100 515.46,-96.5 505.46,-93 505.46,-100"/>
</g>
<!-- 140625757226464 -->
<g id="node21" class="node">
<title>140625757226464</title>
<polygon fill="none" stroke="black" points="983,-0.5 983,-36.5 1352,-36.5 1352,-0.5 983,-0.5"/>
<text text-anchor="middle" x="1009" y="-14.8" font-family="Times,serif" font-size="14.00">v006</text>
<polyline fill="none" stroke="black" points="1035,-0.5 1035,-36.5 "/>
<text text-anchor="middle" x="1052.5" y="-14.8" font-family="Times,serif" font-size="14.00">L2</text>
<polyline fill="none" stroke="black" points="1070,-0.5 1070,-36.5 "/>
<text text-anchor="middle" x="1089" y="-14.8" font-family="Times,serif" font-size="14.00">N1</text>
<polyline fill="none" stroke="black" points="1108,-0.5 1108,-36.5 "/>
<text text-anchor="middle" x="1127" y="-14.8" font-family="Times,serif" font-size="14.00">w2</text>
<polyline fill="none" stroke="black" points="1146,-0.5 1146,-36.5 "/>
<text text-anchor="middle" x="1197" y="-14.8" font-family="Times,serif" font-size="14.00">data 1.0510</text>
<polyline fill="none" stroke="black" points="1248,-0.5 1248,-36.5 "/>
<text text-anchor="middle" x="1300" y="-14.8" font-family="Times,serif" font-size="14.00">grad 0.9800</text>
</g>
<!-- 140625757226464&#45;&gt;140625756893344* -->
<g id="edge21" class="edge">
<title>140625757226464&#45;&gt;140625756893344*</title>
<path fill="none" stroke="black" d="M1309.26,-36.56C1323.77,-39.21 1338.23,-42.18 1352,-45.5 1361.84,-47.87 1372.34,-51.13 1381.84,-54.38"/>
<polygon fill="black" stroke="black" points="1380.73,-57.7 1391.32,-57.72 1383.06,-51.1 1380.73,-57.7"/>
</g>
<!-- 140625756894112 -->
<g id="node22" class="node">
<title>140625756894112</title>
<polygon fill="none" stroke="black" points="989.5,-140.5 989.5,-176.5 1345.5,-176.5 1345.5,-140.5 989.5,-140.5"/>
<text text-anchor="middle" x="1015.5" y="-154.8" font-family="Times,serif" font-size="14.00">v029</text>
<polyline fill="none" stroke="black" points="1041.5,-140.5 1041.5,-176.5 "/>
<text text-anchor="middle" x="1059" y="-154.8" font-family="Times,serif" font-size="14.00">L1</text>
<polyline fill="none" stroke="black" points="1076.5,-140.5 1076.5,-176.5 "/>
<text text-anchor="middle" x="1095.5" y="-154.8" font-family="Times,serif" font-size="14.00">N1</text>
<polyline fill="none" stroke="black" points="1114.5,-140.5 1114.5,-176.5 "/>
<text text-anchor="middle" x="1127" y="-154.8" font-family="Times,serif" font-size="14.00">a</text>
<polyline fill="none" stroke="black" points="1139.5,-140.5 1139.5,-176.5 "/>
<text text-anchor="middle" x="1190.5" y="-154.8" font-family="Times,serif" font-size="14.00">data 1.0650</text>
<polyline fill="none" stroke="black" points="1241.5,-140.5 1241.5,-176.5 "/>
<text text-anchor="middle" x="1293.5" y="-154.8" font-family="Times,serif" font-size="14.00">grad 0.0000</text>
</g>
<!-- 140625756894112&#45;&gt;140625756888736* -->
<g id="edge16" class="edge">
<title>140625756894112&#45;&gt;140625756888736*</title>
<path fill="none" stroke="black" d="M1345.61,-168.6C1357.37,-169.27 1368.29,-169.89 1377.8,-170.44"/>
<polygon fill="black" stroke="black" points="1377.73,-173.94 1387.91,-171.01 1378.13,-166.95 1377.73,-173.94"/>
</g>
<!-- 140625756894112+&#45;&gt;140625756894112 -->
<g id="edge8" class="edge">
<title>140625756894112+&#45;&gt;140625756894112</title>
<path fill="none" stroke="black" d="M947.27,-158.5C956.26,-158.5 967.11,-158.5 979.12,-158.5"/>
<polygon fill="black" stroke="black" points="979.46,-162 989.46,-158.5 979.46,-155 979.46,-162"/>
</g>
<!-- 140625757226416 -->
<g id="node24" class="node">
<title>140625757226416</title>
<polygon fill="none" stroke="black" points="1478,-99.5 1478,-135.5 1840,-135.5 1840,-99.5 1478,-99.5"/>
<text text-anchor="middle" x="1504" y="-113.8" font-family="Times,serif" font-size="14.00">v007</text>
<polyline fill="none" stroke="black" points="1530,-99.5 1530,-135.5 "/>
<text text-anchor="middle" x="1547.5" y="-113.8" font-family="Times,serif" font-size="14.00">L2</text>
<polyline fill="none" stroke="black" points="1565,-99.5 1565,-135.5 "/>
<text text-anchor="middle" x="1584" y="-113.8" font-family="Times,serif" font-size="14.00">N1</text>
<polyline fill="none" stroke="black" points="1603,-99.5 1603,-135.5 "/>
<text text-anchor="middle" x="1616" y="-113.8" font-family="Times,serif" font-size="14.00">b</text>
<polyline fill="none" stroke="black" points="1629,-99.5 1629,-135.5 "/>
<text text-anchor="middle" x="1682.5" y="-113.8" font-family="Times,serif" font-size="14.00">data &#45;0.1000</text>
<polyline fill="none" stroke="black" points="1736,-99.5 1736,-135.5 "/>
<text text-anchor="middle" x="1788" y="-113.8" font-family="Times,serif" font-size="14.00">grad 1.0000</text>
</g>
<!-- 140625757226416&#45;&gt;140625756895888+ -->
<g id="edge19" class="edge">
<title>140625757226416&#45;&gt;140625756895888+</title>
<path fill="none" stroke="black" d="M1840.05,-119.42C1900.18,-120.06 1961.37,-120.71 1998.88,-121.11"/>
<polygon fill="black" stroke="black" points="1999.24,-124.61 2009.27,-121.22 1999.31,-117.61 1999.24,-124.61"/>
</g>
<!-- 140625756885472 -->
<g id="node25" class="node">
<title>140625756885472</title>
<polygon fill="none" stroke="black" points="2680,-75.5 2680,-111.5 3036,-111.5 3036,-75.5 2680,-75.5"/>
<text text-anchor="middle" x="2706" y="-89.8" font-family="Times,serif" font-size="14.00">v035</text>
<polyline fill="none" stroke="black" points="2732,-75.5 2732,-111.5 "/>
<text text-anchor="middle" x="2749.5" y="-89.8" font-family="Times,serif" font-size="14.00">L2</text>
<polyline fill="none" stroke="black" points="2767,-75.5 2767,-111.5 "/>
<text text-anchor="middle" x="2786" y="-89.8" font-family="Times,serif" font-size="14.00">N1</text>
<polyline fill="none" stroke="black" points="2805,-75.5 2805,-111.5 "/>
<text text-anchor="middle" x="2817.5" y="-89.8" font-family="Times,serif" font-size="14.00">a</text>
<polyline fill="none" stroke="black" points="2830,-75.5 2830,-111.5 "/>
<text text-anchor="middle" x="2881" y="-89.8" font-family="Times,serif" font-size="14.00">data 0.4005</text>
<polyline fill="none" stroke="black" points="2932,-75.5 2932,-111.5 "/>
<text text-anchor="middle" x="2984" y="-89.8" font-family="Times,serif" font-size="14.00">grad 0.0000</text>
</g>
<!-- 140625756885472&#45;&gt;140625756894736* -->
<g id="edge10" class="edge">
<title>140625756885472&#45;&gt;140625756894736*</title>
<path fill="none" stroke="black" d="M3036.14,-93.5C3045.34,-93.5 3053.94,-93.5 3061.63,-93.5"/>
<polygon fill="black" stroke="black" points="3061.86,-97 3071.86,-93.5 3061.86,-90 3061.86,-97"/>
</g>
<!-- 140625756885472+&#45;&gt;140625756885472 -->
<g id="edge9" class="edge">
<title>140625756885472+&#45;&gt;140625756885472</title>
<path fill="none" stroke="black" d="M2644.03,-93.5C2651.4,-93.5 2660.02,-93.5 2669.49,-93.5"/>
<polygon fill="black" stroke="black" points="2669.66,-97 2679.66,-93.5 2669.66,-90 2669.66,-97"/>
</g>
</g>
</svg>
