<?xml version="1.0" encoding="UTF-8" standalone="no"?>
<!DOCTYPE svg PUBLIC "-//W3C//DTD SVG 1.1//EN"
 "http://www.w3.org/Graphics/SVG/1.1/DTD/svg11.dtd">
<!-- Generated by graphviz version 2.43.0 (0)
 -->
<!-- Title: %3 Pages: 1 -->
<svg width="3534pt" height="210pt"
 viewBox="0.00 0.00 3534.00 210.00" xmlns="http://www.w3.org/2000/svg" xmlns:xlink="http://www.w3.org/1999/xlink">
<g id="graph0" class="graph" transform="scale(1 1) rotate(0) translate(4 206)">
<title>%3</title>
<polygon fill="white" stroke="transparent" points="-4,4 -4,-206 3530,-206 3530,4 -4,4"/>
<!-- 140260402421264 -->
<g id="node1" class="node">
<title>140260402421264</title>
<polygon fill="none" stroke="black" points="519.5,-55.5 519.5,-91.5 844.5,-91.5 844.5,-55.5 519.5,-55.5"/>
<text text-anchor="middle" x="545.5" y="-69.8" font-family="Times,serif" font-size="14.00">v046</text>
<polyline fill="none" stroke="black" points="571.5,-55.5 571.5,-91.5 "/>
<text text-anchor="middle" x="582" y="-69.8" font-family="Times,serif" font-size="14.00"> </text>
<polyline fill="none" stroke="black" points="592.5,-55.5 592.5,-91.5 "/>
<text text-anchor="middle" x="603" y="-69.8" font-family="Times,serif" font-size="14.00"> </text>
<polyline fill="none" stroke="black" points="613.5,-55.5 613.5,-91.5 "/>
<text text-anchor="middle" x="624" y="-69.8" font-family="Times,serif" font-size="14.00"> </text>
<polyline fill="none" stroke="black" points="634.5,-55.5 634.5,-91.5 "/>
<text text-anchor="middle" x="685.5" y="-69.8" font-family="Times,serif" font-size="14.00">data 1.0058</text>
<polyline fill="none" stroke="black" points="736.5,-55.5 736.5,-91.5 "/>
<text text-anchor="middle" x="790.5" y="-69.8" font-family="Times,serif" font-size="14.00">grad &#45;0.1940</text>
</g>
<!-- 140260402425968+ -->
<g id="node5" class="node">
<title>140260402425968+</title>
<ellipse fill="none" stroke="black" cx="928" cy="-73.5" rx="27" ry="18"/>
<text text-anchor="middle" x="928" y="-69.8" font-family="Times,serif" font-size="14.00">+</text>
</g>
<!-- 140260402421264&#45;&gt;140260402425968+ -->
<g id="edge13" class="edge">
<title>140260402421264&#45;&gt;140260402425968+</title>
<path fill="none" stroke="black" d="M844.73,-73.5C861.57,-73.5 877.27,-73.5 890.35,-73.5"/>
<polygon fill="black" stroke="black" points="890.69,-77 900.69,-73.5 890.69,-70 890.69,-77"/>
</g>
<!-- 140260402421264* -->
<g id="node2" class="node">
<title>140260402421264*</title>
<ellipse fill="none" stroke="black" cx="436" cy="-73.5" rx="27" ry="18"/>
<text text-anchor="middle" x="436" y="-69.8" font-family="Times,serif" font-size="14.00">*</text>
</g>
<!-- 140260402421264*&#45;&gt;140260402421264 -->
<g id="edge1" class="edge">
<title>140260402421264*&#45;&gt;140260402421264</title>
<path fill="none" stroke="black" d="M463.11,-73.5C475.56,-73.5 491.61,-73.5 509.34,-73.5"/>
<polygon fill="black" stroke="black" points="509.35,-77 519.35,-73.5 509.35,-70 509.35,-77"/>
</g>
<!-- 140260402419584 -->
<g id="node3" class="node">
<title>140260402419584</title>
<polygon fill="none" stroke="black" points="0,-55.5 0,-91.5 373,-91.5 373,-55.5 0,-55.5"/>
<text text-anchor="middle" x="26" y="-69.8" font-family="Times,serif" font-size="14.00">v001</text>
<polyline fill="none" stroke="black" points="52,-55.5 52,-91.5 "/>
<text text-anchor="middle" x="69.5" y="-69.8" font-family="Times,serif" font-size="14.00">L1</text>
<polyline fill="none" stroke="black" points="87,-55.5 87,-91.5 "/>
<text text-anchor="middle" x="106" y="-69.8" font-family="Times,serif" font-size="14.00">N1</text>
<polyline fill="none" stroke="black" points="125,-55.5 125,-91.5 "/>
<text text-anchor="middle" x="144" y="-69.8" font-family="Times,serif" font-size="14.00">w1</text>
<polyline fill="none" stroke="black" points="163,-55.5 163,-91.5 "/>
<text text-anchor="middle" x="214" y="-69.8" font-family="Times,serif" font-size="14.00">data 0.2902</text>
<polyline fill="none" stroke="black" points="265,-55.5 265,-91.5 "/>
<text text-anchor="middle" x="319" y="-69.8" font-family="Times,serif" font-size="14.00">grad &#45;0.7760</text>
</g>
<!-- 140260402419584&#45;&gt;140260402421264* -->
<g id="edge14" class="edge">
<title>140260402419584&#45;&gt;140260402421264*</title>
<path fill="none" stroke="black" d="M373.18,-73.5C382.42,-73.5 391.03,-73.5 398.72,-73.5"/>
<polygon fill="black" stroke="black" points="398.95,-77 408.95,-73.5 398.95,-70 398.95,-77"/>
</g>
<!-- 140260402425968 -->
<g id="node4" class="node">
<title>140260402425968</title>
<polygon fill="none" stroke="black" points="997.5,-55.5 997.5,-91.5 1357.5,-91.5 1357.5,-55.5 997.5,-55.5"/>
<text text-anchor="middle" x="1023.5" y="-69.8" font-family="Times,serif" font-size="14.00">v047</text>
<polyline fill="none" stroke="black" points="1049.5,-55.5 1049.5,-91.5 "/>
<text text-anchor="middle" x="1067" y="-69.8" font-family="Times,serif" font-size="14.00">L1</text>
<polyline fill="none" stroke="black" points="1084.5,-55.5 1084.5,-91.5 "/>
<text text-anchor="middle" x="1103.5" y="-69.8" font-family="Times,serif" font-size="14.00">N1</text>
<polyline fill="none" stroke="black" points="1122.5,-55.5 1122.5,-91.5 "/>
<text text-anchor="middle" x="1135" y="-69.8" font-family="Times,serif" font-size="14.00">a</text>
<polyline fill="none" stroke="black" points="1147.5,-55.5 1147.5,-91.5 "/>
<text text-anchor="middle" x="1198.5" y="-69.8" font-family="Times,serif" font-size="14.00">data 0.9437</text>
<polyline fill="none" stroke="black" points="1249.5,-55.5 1249.5,-91.5 "/>
<text text-anchor="middle" x="1303.5" y="-69.8" font-family="Times,serif" font-size="14.00">grad &#45;0.1940</text>
</g>
<!-- 140260402426688* -->
<g id="node20" class="node">
<title>140260402426688*</title>
<ellipse fill="none" stroke="black" cx="1427" cy="-73.5" rx="27" ry="18"/>
<text text-anchor="middle" x="1427" y="-69.8" font-family="Times,serif" font-size="14.00">*</text>
</g>
<!-- 140260402425968&#45;&gt;140260402426688* -->
<g id="edge20" class="edge">
<title>140260402425968&#45;&gt;140260402426688*</title>
<path fill="none" stroke="black" d="M1357.71,-73.5C1369.47,-73.5 1380.38,-73.5 1389.88,-73.5"/>
<polygon fill="black" stroke="black" points="1389.97,-77 1399.97,-73.5 1389.97,-70 1389.97,-77"/>
</g>
<!-- 140260402425968+&#45;&gt;140260402425968 -->
<g id="edge2" class="edge">
<title>140260402425968+&#45;&gt;140260402425968</title>
<path fill="none" stroke="black" d="M955.02,-73.5C964.13,-73.5 975.17,-73.5 987.42,-73.5"/>
<polygon fill="black" stroke="black" points="987.48,-77 997.48,-73.5 987.48,-70 987.48,-77"/>
</g>
<!-- 140260402419344 -->
<g id="node6" class="node">
<title>140260402419344</title>
<polygon fill="none" stroke="black" points="991,-165.5 991,-201.5 1364,-201.5 1364,-165.5 991,-165.5"/>
<text text-anchor="middle" x="1017" y="-179.8" font-family="Times,serif" font-size="14.00">v006</text>
<polyline fill="none" stroke="black" points="1043,-165.5 1043,-201.5 "/>
<text text-anchor="middle" x="1060.5" y="-179.8" font-family="Times,serif" font-size="14.00">L2</text>
<polyline fill="none" stroke="black" points="1078,-165.5 1078,-201.5 "/>
<text text-anchor="middle" x="1097" y="-179.8" font-family="Times,serif" font-size="14.00">N1</text>
<polyline fill="none" stroke="black" points="1116,-165.5 1116,-201.5 "/>
<text text-anchor="middle" x="1135" y="-179.8" font-family="Times,serif" font-size="14.00">w2</text>
<polyline fill="none" stroke="black" points="1154,-165.5 1154,-201.5 "/>
<text text-anchor="middle" x="1205" y="-179.8" font-family="Times,serif" font-size="14.00">data 0.1530</text>
<polyline fill="none" stroke="black" points="1256,-165.5 1256,-201.5 "/>
<text text-anchor="middle" x="1310" y="-179.8" font-family="Times,serif" font-size="14.00">grad &#45;8.3068</text>
</g>
<!-- 140260402419104* -->
<g id="node10" class="node">
<title>140260402419104*</title>
<ellipse fill="none" stroke="black" cx="1427" cy="-128.5" rx="27" ry="18"/>
<text text-anchor="middle" x="1427" y="-124.8" font-family="Times,serif" font-size="14.00">*</text>
</g>
<!-- 140260402419344&#45;&gt;140260402419104* -->
<g id="edge15" class="edge">
<title>140260402419344&#45;&gt;140260402419104*</title>
<path fill="none" stroke="black" d="M1328.12,-165.45C1340.35,-162.84 1352.44,-159.88 1364,-156.5 1374.82,-153.34 1386.2,-148.64 1396.21,-143.99"/>
<polygon fill="black" stroke="black" points="1397.83,-147.09 1405.32,-139.6 1394.8,-140.78 1397.83,-147.09"/>
</g>
<!-- 140260402428560 -->
<g id="node7" class="node">
<title>140260402428560</title>
<polygon fill="none" stroke="black" points="999.5,-110.5 999.5,-146.5 1355.5,-146.5 1355.5,-110.5 999.5,-110.5"/>
<text text-anchor="middle" x="1025.5" y="-124.8" font-family="Times,serif" font-size="14.00">v049</text>
<polyline fill="none" stroke="black" points="1051.5,-110.5 1051.5,-146.5 "/>
<text text-anchor="middle" x="1069" y="-124.8" font-family="Times,serif" font-size="14.00">L1</text>
<polyline fill="none" stroke="black" points="1086.5,-110.5 1086.5,-146.5 "/>
<text text-anchor="middle" x="1105.5" y="-124.8" font-family="Times,serif" font-size="14.00">N2</text>
<polyline fill="none" stroke="black" points="1124.5,-110.5 1124.5,-146.5 "/>
<text text-anchor="middle" x="1137" y="-124.8" font-family="Times,serif" font-size="14.00">a</text>
<polyline fill="none" stroke="black" points="1149.5,-110.5 1149.5,-146.5 "/>
<text text-anchor="middle" x="1200.5" y="-124.8" font-family="Times,serif" font-size="14.00">data 2.9948</text>
<polyline fill="none" stroke="black" points="1251.5,-110.5 1251.5,-146.5 "/>
<text text-anchor="middle" x="1303.5" y="-124.8" font-family="Times,serif" font-size="14.00">grad 0.7275</text>
</g>
<!-- 140260402428560&#45;&gt;140260402419104* -->
<g id="edge26" class="edge">
<title>140260402428560&#45;&gt;140260402419104*</title>
<path fill="none" stroke="black" d="M1355.74,-128.5C1368.14,-128.5 1379.66,-128.5 1389.63,-128.5"/>
<polygon fill="black" stroke="black" points="1389.81,-132 1399.81,-128.5 1389.81,-125 1389.81,-132"/>
</g>
<!-- 140260402428560+ -->
<g id="node8" class="node">
<title>140260402428560+</title>
<ellipse fill="none" stroke="black" cx="928" cy="-128.5" rx="27" ry="18"/>
<text text-anchor="middle" x="928" y="-124.8" font-family="Times,serif" font-size="14.00">+</text>
</g>
<!-- 140260402428560+&#45;&gt;140260402428560 -->
<g id="edge3" class="edge">
<title>140260402428560+&#45;&gt;140260402428560</title>
<path fill="none" stroke="black" d="M955.02,-128.5C964.56,-128.5 976.24,-128.5 989.18,-128.5"/>
<polygon fill="black" stroke="black" points="989.32,-132 999.32,-128.5 989.32,-125 989.32,-132"/>
</g>
<!-- 140260402419104 -->
<g id="node9" class="node">
<title>140260402419104</title>
<polygon fill="none" stroke="black" points="1892,-110.5 1892,-146.5 2222,-146.5 2222,-110.5 1892,-110.5"/>
<text text-anchor="middle" x="1918" y="-124.8" font-family="Times,serif" font-size="14.00">v052</text>
<polyline fill="none" stroke="black" points="1944,-110.5 1944,-146.5 "/>
<text text-anchor="middle" x="1954.5" y="-124.8" font-family="Times,serif" font-size="14.00"> </text>
<polyline fill="none" stroke="black" points="1965,-110.5 1965,-146.5 "/>
<text text-anchor="middle" x="1975.5" y="-124.8" font-family="Times,serif" font-size="14.00"> </text>
<polyline fill="none" stroke="black" points="1986,-110.5 1986,-146.5 "/>
<text text-anchor="middle" x="1996.5" y="-124.8" font-family="Times,serif" font-size="14.00"> </text>
<polyline fill="none" stroke="black" points="2007,-110.5 2007,-146.5 "/>
<text text-anchor="middle" x="2060.5" y="-124.8" font-family="Times,serif" font-size="14.00">data &#45;0.7855</text>
<polyline fill="none" stroke="black" points="2114,-110.5 2114,-146.5 "/>
<text text-anchor="middle" x="2168" y="-124.8" font-family="Times,serif" font-size="14.00">grad &#45;2.7737</text>
</g>
<!-- 140260402429760+ -->
<g id="node16" class="node">
<title>140260402429760+</title>
<ellipse fill="none" stroke="black" cx="2651" cy="-100.5" rx="27" ry="18"/>
<text text-anchor="middle" x="2651" y="-96.8" font-family="Times,serif" font-size="14.00">+</text>
</g>
<!-- 140260402419104&#45;&gt;140260402429760+ -->
<g id="edge24" class="edge">
<title>140260402419104&#45;&gt;140260402429760+</title>
<path fill="none" stroke="black" d="M2222.22,-122.95C2326.94,-119.01 2465.51,-113.09 2588,-105.5 2596.43,-104.98 2605.49,-104.31 2614.02,-103.63"/>
<polygon fill="black" stroke="black" points="2614.39,-107.11 2624.07,-102.81 2613.82,-100.13 2614.39,-107.11"/>
</g>
<!-- 140260402419104*&#45;&gt;140260402419104 -->
<g id="edge4" class="edge">
<title>140260402419104*&#45;&gt;140260402419104</title>
<path fill="none" stroke="black" d="M1454.18,-128.5C1526.01,-128.5 1730.78,-128.5 1881.6,-128.5"/>
<polygon fill="black" stroke="black" points="1881.91,-132 1891.91,-128.5 1881.91,-125 1881.91,-132"/>
</g>
<!-- 140260402423280 -->
<g id="node11" class="node">
<title>140260402423280</title>
<polygon fill="none" stroke="black" points="2258,-59.5 2258,-95.5 2588,-95.5 2588,-59.5 2258,-59.5"/>
<text text-anchor="middle" x="2284" y="-73.8" font-family="Times,serif" font-size="14.00">v051</text>
<polyline fill="none" stroke="black" points="2310,-59.5 2310,-95.5 "/>
<text text-anchor="middle" x="2320.5" y="-73.8" font-family="Times,serif" font-size="14.00"> </text>
<polyline fill="none" stroke="black" points="2331,-59.5 2331,-95.5 "/>
<text text-anchor="middle" x="2341.5" y="-73.8" font-family="Times,serif" font-size="14.00"> </text>
<polyline fill="none" stroke="black" points="2352,-59.5 2352,-95.5 "/>
<text text-anchor="middle" x="2362.5" y="-73.8" font-family="Times,serif" font-size="14.00"> </text>
<polyline fill="none" stroke="black" points="2373,-59.5 2373,-95.5 "/>
<text text-anchor="middle" x="2426.5" y="-73.8" font-family="Times,serif" font-size="14.00">data &#45;0.6013</text>
<polyline fill="none" stroke="black" points="2480,-59.5 2480,-95.5 "/>
<text text-anchor="middle" x="2534" y="-73.8" font-family="Times,serif" font-size="14.00">grad &#45;2.7737</text>
</g>
<!-- 140260402423280&#45;&gt;140260402429760+ -->
<g id="edge22" class="edge">
<title>140260402423280&#45;&gt;140260402429760+</title>
<path fill="none" stroke="black" d="M2588.24,-94.22C2597.56,-95.16 2606.29,-96.05 2614.09,-96.85"/>
<polygon fill="black" stroke="black" points="2613.8,-100.33 2624.1,-97.86 2614.51,-93.37 2613.8,-100.33"/>
</g>
<!-- 140260402423280+ -->
<g id="node12" class="node">
<title>140260402423280+</title>
<ellipse fill="none" stroke="black" cx="2057" cy="-73.5" rx="27" ry="18"/>
<text text-anchor="middle" x="2057" y="-69.8" font-family="Times,serif" font-size="14.00">+</text>
</g>
<!-- 140260402423280+&#45;&gt;140260402423280 -->
<g id="edge5" class="edge">
<title>140260402423280+&#45;&gt;140260402423280</title>
<path fill="none" stroke="black" d="M2084.18,-73.79C2119.07,-74.17 2183.83,-74.88 2247.39,-75.58"/>
<polygon fill="black" stroke="black" points="2247.54,-79.08 2257.58,-75.69 2247.61,-72.08 2247.54,-79.08"/>
</g>
<!-- 140260402422512 -->
<g id="node13" class="node">
<title>140260402422512</title>
<polygon fill="none" stroke="black" points="499,-0.5 499,-36.5 865,-36.5 865,-0.5 499,-0.5"/>
<text text-anchor="middle" x="525" y="-14.8" font-family="Times,serif" font-size="14.00">v002</text>
<polyline fill="none" stroke="black" points="551,-0.5 551,-36.5 "/>
<text text-anchor="middle" x="568.5" y="-14.8" font-family="Times,serif" font-size="14.00">L1</text>
<polyline fill="none" stroke="black" points="586,-0.5 586,-36.5 "/>
<text text-anchor="middle" x="605" y="-14.8" font-family="Times,serif" font-size="14.00">N1</text>
<polyline fill="none" stroke="black" points="624,-0.5 624,-36.5 "/>
<text text-anchor="middle" x="637" y="-14.8" font-family="Times,serif" font-size="14.00">b</text>
<polyline fill="none" stroke="black" points="650,-0.5 650,-36.5 "/>
<text text-anchor="middle" x="703.5" y="-14.8" font-family="Times,serif" font-size="14.00">data &#45;0.0524</text>
<polyline fill="none" stroke="black" points="757,-0.5 757,-36.5 "/>
<text text-anchor="middle" x="811" y="-14.8" font-family="Times,serif" font-size="14.00">grad &#45;0.1940</text>
</g>
<!-- 140260402422512&#45;&gt;140260402425968+ -->
<g id="edge17" class="edge">
<title>140260402422512&#45;&gt;140260402425968+</title>
<path fill="none" stroke="black" d="M824.38,-36.56C838.21,-39.43 851.95,-42.72 865,-46.5 875.68,-49.59 886.95,-54.09 896.9,-58.54"/>
<polygon fill="black" stroke="black" points="895.44,-61.71 905.98,-62.73 898.37,-55.36 895.44,-61.71"/>
</g>
<!-- 140260402419632 -->
<g id="node14" class="node">
<title>140260402419632</title>
<polygon fill="none" stroke="black" points="1490,-0.5 1490,-36.5 1856,-36.5 1856,-0.5 1490,-0.5"/>
<text text-anchor="middle" x="1516" y="-14.8" font-family="Times,serif" font-size="14.00">v007</text>
<polyline fill="none" stroke="black" points="1542,-0.5 1542,-36.5 "/>
<text text-anchor="middle" x="1559.5" y="-14.8" font-family="Times,serif" font-size="14.00">L2</text>
<polyline fill="none" stroke="black" points="1577,-0.5 1577,-36.5 "/>
<text text-anchor="middle" x="1596" y="-14.8" font-family="Times,serif" font-size="14.00">N1</text>
<polyline fill="none" stroke="black" points="1615,-0.5 1615,-36.5 "/>
<text text-anchor="middle" x="1628" y="-14.8" font-family="Times,serif" font-size="14.00">b</text>
<polyline fill="none" stroke="black" points="1641,-0.5 1641,-36.5 "/>
<text text-anchor="middle" x="1694.5" y="-14.8" font-family="Times,serif" font-size="14.00">data &#45;0.5287</text>
<polyline fill="none" stroke="black" points="1748,-0.5 1748,-36.5 "/>
<text text-anchor="middle" x="1802" y="-14.8" font-family="Times,serif" font-size="14.00">grad &#45;2.7737</text>
</g>
<!-- 140260402419632&#45;&gt;140260402423280+ -->
<g id="edge25" class="edge">
<title>140260402419632&#45;&gt;140260402423280+</title>
<path fill="none" stroke="black" d="M1799.08,-36.51C1876.48,-47.65 1970.34,-61.17 2020.43,-68.38"/>
<polygon fill="black" stroke="black" points="2020.03,-71.86 2030.43,-69.82 2021.03,-64.93 2020.03,-71.86"/>
</g>
<!-- 140260402429760 -->
<g id="node15" class="node">
<title>140260402429760</title>
<polygon fill="none" stroke="black" points="2714,-82.5 2714,-118.5 3079,-118.5 3079,-82.5 2714,-82.5"/>
<text text-anchor="middle" x="2740" y="-96.8" font-family="Times,serif" font-size="14.00">v053</text>
<polyline fill="none" stroke="black" points="2766,-82.5 2766,-118.5 "/>
<text text-anchor="middle" x="2783.5" y="-96.8" font-family="Times,serif" font-size="14.00">L2</text>
<polyline fill="none" stroke="black" points="2801,-82.5 2801,-118.5 "/>
<text text-anchor="middle" x="2820" y="-96.8" font-family="Times,serif" font-size="14.00">N1</text>
<polyline fill="none" stroke="black" points="2839,-82.5 2839,-118.5 "/>
<text text-anchor="middle" x="2851.5" y="-96.8" font-family="Times,serif" font-size="14.00">a</text>
<polyline fill="none" stroke="black" points="2864,-82.5 2864,-118.5 "/>
<text text-anchor="middle" x="2917.5" y="-96.8" font-family="Times,serif" font-size="14.00">data &#45;1.3869</text>
<polyline fill="none" stroke="black" points="2971,-82.5 2971,-118.5 "/>
<text text-anchor="middle" x="3025" y="-96.8" font-family="Times,serif" font-size="14.00">grad &#45;2.7737</text>
</g>
<!-- 140260402426784* -->
<g id="node23" class="node">
<title>140260402426784*</title>
<ellipse fill="none" stroke="black" cx="3142" cy="-100.5" rx="27" ry="18"/>
<text text-anchor="middle" x="3142" y="-96.8" font-family="Times,serif" font-size="14.00">*</text>
</g>
<!-- 140260402429760&#45;&gt;140260402426784* -->
<g id="edge16" class="edge">
<title>140260402429760&#45;&gt;140260402426784*</title>
<path fill="none" stroke="black" d="M3079.24,-100.5C3088.45,-100.5 3097.04,-100.5 3104.73,-100.5"/>
<polygon fill="black" stroke="black" points="3104.94,-104 3114.94,-100.5 3104.94,-97 3104.94,-104"/>
</g>
<!-- 140260402429760+&#45;&gt;140260402429760 -->
<g id="edge6" class="edge">
<title>140260402429760+&#45;&gt;140260402429760</title>
<path fill="none" stroke="black" d="M2678.06,-100.5C2685.43,-100.5 2694.08,-100.5 2703.58,-100.5"/>
<polygon fill="black" stroke="black" points="2703.79,-104 2713.79,-100.5 2703.79,-97 2703.79,-104"/>
</g>
<!-- 140260402425152 -->
<g id="node17" class="node">
<title>140260402425152</title>
<polygon fill="none" stroke="black" points="521.5,-165.5 521.5,-201.5 842.5,-201.5 842.5,-165.5 521.5,-165.5"/>
<text text-anchor="middle" x="547.5" y="-179.8" font-family="Times,serif" font-size="14.00">v048</text>
<polyline fill="none" stroke="black" points="573.5,-165.5 573.5,-201.5 "/>
<text text-anchor="middle" x="584" y="-179.8" font-family="Times,serif" font-size="14.00"> </text>
<polyline fill="none" stroke="black" points="594.5,-165.5 594.5,-201.5 "/>
<text text-anchor="middle" x="605" y="-179.8" font-family="Times,serif" font-size="14.00"> </text>
<polyline fill="none" stroke="black" points="615.5,-165.5 615.5,-201.5 "/>
<text text-anchor="middle" x="626" y="-179.8" font-family="Times,serif" font-size="14.00"> </text>
<polyline fill="none" stroke="black" points="636.5,-165.5 636.5,-201.5 "/>
<text text-anchor="middle" x="687.5" y="-179.8" font-family="Times,serif" font-size="14.00">data 2.9363</text>
<polyline fill="none" stroke="black" points="738.5,-165.5 738.5,-201.5 "/>
<text text-anchor="middle" x="790.5" y="-179.8" font-family="Times,serif" font-size="14.00">grad 0.7275</text>
</g>
<!-- 140260402425152&#45;&gt;140260402428560+ -->
<g id="edge10" class="edge">
<title>140260402425152&#45;&gt;140260402428560+</title>
<path fill="none" stroke="black" d="M829.31,-165.45C841.48,-162.84 853.51,-159.88 865,-156.5 875.82,-153.32 887.19,-148.62 897.2,-143.97"/>
<polygon fill="black" stroke="black" points="898.83,-147.07 906.32,-139.58 895.79,-140.77 898.83,-147.07"/>
</g>
<!-- 140260402425152* -->
<g id="node18" class="node">
<title>140260402425152*</title>
<ellipse fill="none" stroke="black" cx="436" cy="-183.5" rx="27" ry="18"/>
<text text-anchor="middle" x="436" y="-179.8" font-family="Times,serif" font-size="14.00">*</text>
</g>
<!-- 140260402425152*&#45;&gt;140260402425152 -->
<g id="edge7" class="edge">
<title>140260402425152*&#45;&gt;140260402425152</title>
<path fill="none" stroke="black" d="M463.11,-183.5C475.98,-183.5 492.7,-183.5 511.15,-183.5"/>
<polygon fill="black" stroke="black" points="511.25,-187 521.25,-183.5 511.25,-180 511.25,-187"/>
</g>
<!-- 140260402426688 -->
<g id="node19" class="node">
<title>140260402426688</title>
<polygon fill="none" stroke="black" points="1510.5,-55.5 1510.5,-91.5 1835.5,-91.5 1835.5,-55.5 1510.5,-55.5"/>
<text text-anchor="middle" x="1536.5" y="-69.8" font-family="Times,serif" font-size="14.00">v050</text>
<polyline fill="none" stroke="black" points="1562.5,-55.5 1562.5,-91.5 "/>
<text text-anchor="middle" x="1573" y="-69.8" font-family="Times,serif" font-size="14.00"> </text>
<polyline fill="none" stroke="black" points="1583.5,-55.5 1583.5,-91.5 "/>
<text text-anchor="middle" x="1594" y="-69.8" font-family="Times,serif" font-size="14.00"> </text>
<polyline fill="none" stroke="black" points="1604.5,-55.5 1604.5,-91.5 "/>
<text text-anchor="middle" x="1615" y="-69.8" font-family="Times,serif" font-size="14.00"> </text>
<polyline fill="none" stroke="black" points="1625.5,-55.5 1625.5,-91.5 "/>
<text text-anchor="middle" x="1676.5" y="-69.8" font-family="Times,serif" font-size="14.00">data 0.0660</text>
<polyline fill="none" stroke="black" points="1727.5,-55.5 1727.5,-91.5 "/>
<text text-anchor="middle" x="1781.5" y="-69.8" font-family="Times,serif" font-size="14.00">grad &#45;2.7737</text>
</g>
<!-- 140260402426688&#45;&gt;140260402423280+ -->
<g id="edge19" class="edge">
<title>140260402426688&#45;&gt;140260402423280+</title>
<path fill="none" stroke="black" d="M1835.73,-73.5C1904.01,-73.5 1977.4,-73.5 2019.88,-73.5"/>
<polygon fill="black" stroke="black" points="2019.99,-77 2029.99,-73.5 2019.99,-70 2019.99,-77"/>
</g>
<!-- 140260402426688*&#45;&gt;140260402426688 -->
<g id="edge8" class="edge">
<title>140260402426688*&#45;&gt;140260402426688</title>
<path fill="none" stroke="black" d="M1454.11,-73.5C1466.56,-73.5 1482.61,-73.5 1500.34,-73.5"/>
<polygon fill="black" stroke="black" points="1500.35,-77 1510.35,-73.5 1500.35,-70 1500.35,-77"/>
</g>
<!-- 140260402422656 -->
<g id="node21" class="node">
<title>140260402422656</title>
<polygon fill="none" stroke="black" points="2,-165.5 2,-201.5 371,-201.5 371,-165.5 2,-165.5"/>
<text text-anchor="middle" x="28" y="-179.8" font-family="Times,serif" font-size="14.00">v003</text>
<polyline fill="none" stroke="black" points="54,-165.5 54,-201.5 "/>
<text text-anchor="middle" x="71.5" y="-179.8" font-family="Times,serif" font-size="14.00">L1</text>
<polyline fill="none" stroke="black" points="89,-165.5 89,-201.5 "/>
<text text-anchor="middle" x="108" y="-179.8" font-family="Times,serif" font-size="14.00">N2</text>
<polyline fill="none" stroke="black" points="127,-165.5 127,-201.5 "/>
<text text-anchor="middle" x="146" y="-179.8" font-family="Times,serif" font-size="14.00">w1</text>
<polyline fill="none" stroke="black" points="165,-165.5 165,-201.5 "/>
<text text-anchor="middle" x="216" y="-179.8" font-family="Times,serif" font-size="14.00">data 0.5886</text>
<polyline fill="none" stroke="black" points="267,-165.5 267,-201.5 "/>
<text text-anchor="middle" x="319" y="-179.8" font-family="Times,serif" font-size="14.00">grad 2.9102</text>
</g>
<!-- 140260402422656&#45;&gt;140260402425152* -->
<g id="edge18" class="edge">
<title>140260402422656&#45;&gt;140260402425152*</title>
<path fill="none" stroke="black" d="M371.26,-183.5C381.16,-183.5 390.39,-183.5 398.57,-183.5"/>
<polygon fill="black" stroke="black" points="398.7,-187 408.7,-183.5 398.7,-180 398.7,-187"/>
</g>
<!-- 140260402426784 -->
<g id="node22" class="node">
<title>140260402426784</title>
<polygon fill="none" stroke="black" points="3205,-82.5 3205,-118.5 3526,-118.5 3526,-82.5 3205,-82.5"/>
<text text-anchor="middle" x="3231" y="-96.8" font-family="Times,serif" font-size="14.00">v054</text>
<polyline fill="none" stroke="black" points="3257,-82.5 3257,-118.5 "/>
<text text-anchor="middle" x="3267.5" y="-96.8" font-family="Times,serif" font-size="14.00"> </text>
<polyline fill="none" stroke="black" points="3278,-82.5 3278,-118.5 "/>
<text text-anchor="middle" x="3288.5" y="-96.8" font-family="Times,serif" font-size="14.00"> </text>
<polyline fill="none" stroke="black" points="3299,-82.5 3299,-118.5 "/>
<text text-anchor="middle" x="3309.5" y="-96.8" font-family="Times,serif" font-size="14.00">l</text>
<polyline fill="none" stroke="black" points="3320,-82.5 3320,-118.5 "/>
<text text-anchor="middle" x="3371" y="-96.8" font-family="Times,serif" font-size="14.00">data 1.9234</text>
<polyline fill="none" stroke="black" points="3422,-82.5 3422,-118.5 "/>
<text text-anchor="middle" x="3474" y="-96.8" font-family="Times,serif" font-size="14.00">grad 1.0000</text>
</g>
<!-- 140260402426784*&#45;&gt;140260402426784 -->
<g id="edge9" class="edge">
<title>140260402426784*&#45;&gt;140260402426784</title>
<path fill="none" stroke="black" d="M3169.28,-100.5C3176.68,-100.5 3185.32,-100.5 3194.76,-100.5"/>
<polygon fill="black" stroke="black" points="3194.88,-104 3204.88,-100.5 3194.88,-97 3194.88,-104"/>
</g>
<!-- 140260402422704 -->
<g id="node24" class="node">
<title>140260402422704</title>
<polygon fill="none" stroke="black" points="503.5,-110.5 503.5,-146.5 860.5,-146.5 860.5,-110.5 503.5,-110.5"/>
<text text-anchor="middle" x="529.5" y="-124.8" font-family="Times,serif" font-size="14.00">v004</text>
<polyline fill="none" stroke="black" points="555.5,-110.5 555.5,-146.5 "/>
<text text-anchor="middle" x="573" y="-124.8" font-family="Times,serif" font-size="14.00">L1</text>
<polyline fill="none" stroke="black" points="590.5,-110.5 590.5,-146.5 "/>
<text text-anchor="middle" x="609.5" y="-124.8" font-family="Times,serif" font-size="14.00">N2</text>
<polyline fill="none" stroke="black" points="628.5,-110.5 628.5,-146.5 "/>
<text text-anchor="middle" x="641.5" y="-124.8" font-family="Times,serif" font-size="14.00">b</text>
<polyline fill="none" stroke="black" points="654.5,-110.5 654.5,-146.5 "/>
<text text-anchor="middle" x="705.5" y="-124.8" font-family="Times,serif" font-size="14.00">data 0.0221</text>
<polyline fill="none" stroke="black" points="756.5,-110.5 756.5,-146.5 "/>
<text text-anchor="middle" x="808.5" y="-124.8" font-family="Times,serif" font-size="14.00">grad 0.7275</text>
</g>
<!-- 140260402422704&#45;&gt;140260402428560+ -->
<g id="edge11" class="edge">
<title>140260402422704&#45;&gt;140260402428560+</title>
<path fill="none" stroke="black" d="M860.65,-128.5C871.53,-128.5 881.66,-128.5 890.57,-128.5"/>
<polygon fill="black" stroke="black" points="890.79,-132 900.79,-128.5 890.79,-125 890.79,-132"/>
</g>
<!-- 140260402419680 -->
<g id="node25" class="node">
<title>140260402419680</title>
<polygon fill="none" stroke="black" points="991,-0.5 991,-36.5 1364,-36.5 1364,-0.5 991,-0.5"/>
<text text-anchor="middle" x="1017" y="-14.8" font-family="Times,serif" font-size="14.00">v005</text>
<polyline fill="none" stroke="black" points="1043,-0.5 1043,-36.5 "/>
<text text-anchor="middle" x="1060.5" y="-14.8" font-family="Times,serif" font-size="14.00">L2</text>
<polyline fill="none" stroke="black" points="1078,-0.5 1078,-36.5 "/>
<text text-anchor="middle" x="1097" y="-14.8" font-family="Times,serif" font-size="14.00">N1</text>
<polyline fill="none" stroke="black" points="1116,-0.5 1116,-36.5 "/>
<text text-anchor="middle" x="1135" y="-14.8" font-family="Times,serif" font-size="14.00">w1</text>
<polyline fill="none" stroke="black" points="1154,-0.5 1154,-36.5 "/>
<text text-anchor="middle" x="1205" y="-14.8" font-family="Times,serif" font-size="14.00">data 0.2008</text>
<polyline fill="none" stroke="black" points="1256,-0.5 1256,-36.5 "/>
<text text-anchor="middle" x="1310" y="-14.8" font-family="Times,serif" font-size="14.00">grad &#45;2.6175</text>
</g>
<!-- 140260402419680&#45;&gt;140260402426688* -->
<g id="edge21" class="edge">
<title>140260402419680&#45;&gt;140260402426688*</title>
<path fill="none" stroke="black" d="M1323.1,-36.55C1337.03,-39.42 1350.85,-42.72 1364,-46.5 1374.69,-49.58 1385.95,-54.07 1395.91,-58.52"/>
<polygon fill="black" stroke="black" points="1394.44,-61.7 1404.99,-62.71 1397.38,-55.34 1394.44,-61.7"/>
</g>
<!-- 140260953974256 -->
<g id="node26" class="node">
<title>140260953974256</title>
<polygon fill="none" stroke="black" points="21.5,-110.5 21.5,-146.5 351.5,-146.5 351.5,-110.5 21.5,-110.5"/>
<text text-anchor="middle" x="47.5" y="-124.8" font-family="Times,serif" font-size="14.00">v008</text>
<polyline fill="none" stroke="black" points="73.5,-110.5 73.5,-146.5 "/>
<text text-anchor="middle" x="84" y="-124.8" font-family="Times,serif" font-size="14.00"> </text>
<polyline fill="none" stroke="black" points="94.5,-110.5 94.5,-146.5 "/>
<text text-anchor="middle" x="105" y="-124.8" font-family="Times,serif" font-size="14.00"> </text>
<polyline fill="none" stroke="black" points="115.5,-110.5 115.5,-146.5 "/>
<text text-anchor="middle" x="130.5" y="-124.8" font-family="Times,serif" font-size="14.00">i1</text>
<polyline fill="none" stroke="black" points="145.5,-110.5 145.5,-146.5 "/>
<text text-anchor="middle" x="196.5" y="-124.8" font-family="Times,serif" font-size="14.00">data 4.0000</text>
<polyline fill="none" stroke="black" points="247.5,-110.5 247.5,-146.5 "/>
<text text-anchor="middle" x="299.5" y="-124.8" font-family="Times,serif" font-size="14.00">grad 0.4853</text>
</g>
<!-- 140260953974256&#45;&gt;140260402421264* -->
<g id="edge23" class="edge">
<title>140260953974256&#45;&gt;140260402421264*</title>
<path fill="none" stroke="black" d="M337.12,-110.45C349.35,-107.84 361.44,-104.88 373,-101.5 383.82,-98.34 395.2,-93.64 405.21,-88.99"/>
<polygon fill="black" stroke="black" points="406.83,-92.09 414.32,-84.6 403.8,-85.78 406.83,-92.09"/>
</g>
<!-- 140260953974256&#45;&gt;140260402425152* -->
<g id="edge12" class="edge">
<title>140260953974256&#45;&gt;140260402425152*</title>
<path fill="none" stroke="black" d="M332.1,-146.55C346.03,-149.42 359.85,-152.72 373,-156.5 383.69,-159.58 394.95,-164.07 404.91,-168.52"/>
<polygon fill="black" stroke="black" points="403.44,-171.7 413.99,-172.71 406.38,-165.34 403.44,-171.7"/>
</g>
</g>
</svg>
