<?xml version="1.0" encoding="UTF-8" standalone="no"?>
<!DOCTYPE svg PUBLIC "-//W3C//DTD SVG 1.1//EN"
 "http://www.w3.org/Graphics/SVG/1.1/DTD/svg11.dtd">
<!-- Generated by graphviz version 2.43.0 (0)
 -->
<!-- Title: %3 Pages: 1 -->
<svg width="3064pt" height="262pt"
 viewBox="0.00 0.00 3064.00 262.00" xmlns="http://www.w3.org/2000/svg" xmlns:xlink="http://www.w3.org/1999/xlink">
<g id="graph0" class="graph" transform="scale(1 1) rotate(0) translate(4 258)">
<title>%3</title>
<polygon fill="white" stroke="transparent" points="-4,4 -4,-258 3060,-258 3060,4 -4,4"/>
<!-- 139883735115776 -->
<g id="node1" class="node">
<title>139883735115776</title>
<polygon fill="none" stroke="black" points="992,-55.5 992,-91.5 1353,-91.5 1353,-55.5 992,-55.5"/>
<text text-anchor="middle" x="1018" y="-69.8" font-family="Times,serif" font-size="14.00">v118</text>
<polyline fill="none" stroke="black" points="1044,-55.5 1044,-91.5 "/>
<text text-anchor="middle" x="1061.5" y="-69.8" font-family="Times,serif" font-size="14.00">L1</text>
<polyline fill="none" stroke="black" points="1079,-55.5 1079,-91.5 "/>
<text text-anchor="middle" x="1098" y="-69.8" font-family="Times,serif" font-size="14.00">N2</text>
<polyline fill="none" stroke="black" points="1117,-55.5 1117,-91.5 "/>
<text text-anchor="middle" x="1129.5" y="-69.8" font-family="Times,serif" font-size="14.00">a</text>
<polyline fill="none" stroke="black" points="1142,-55.5 1142,-91.5 "/>
<text text-anchor="middle" x="1195.5" y="-69.8" font-family="Times,serif" font-size="14.00">data &#45;4.7835</text>
<polyline fill="none" stroke="black" points="1249,-55.5 1249,-91.5 "/>
<text text-anchor="middle" x="1301" y="-69.8" font-family="Times,serif" font-size="14.00">grad 0.0000</text>
</g>
<!-- 139883735116064* -->
<g id="node16" class="node">
<title>139883735116064*</title>
<ellipse fill="none" stroke="black" cx="1420" cy="-73.5" rx="27" ry="18"/>
<text text-anchor="middle" x="1420" y="-69.8" font-family="Times,serif" font-size="14.00">*</text>
</g>
<!-- 139883735115776&#45;&gt;139883735116064* -->
<g id="edge16" class="edge">
<title>139883735115776&#45;&gt;139883735116064*</title>
<path fill="none" stroke="black" d="M1353.21,-73.5C1363.92,-73.5 1373.88,-73.5 1382.65,-73.5"/>
<polygon fill="black" stroke="black" points="1382.73,-77 1392.73,-73.5 1382.73,-70 1382.73,-77"/>
</g>
<!-- 139883735115776+ -->
<g id="node2" class="node">
<title>139883735115776+</title>
<ellipse fill="none" stroke="black" cx="925" cy="-73.5" rx="27" ry="18"/>
<text text-anchor="middle" x="925" y="-69.8" font-family="Times,serif" font-size="14.00">+</text>
</g>
<!-- 139883735115776+&#45;&gt;139883735115776 -->
<g id="edge1" class="edge">
<title>139883735115776+&#45;&gt;139883735115776</title>
<path fill="none" stroke="black" d="M952.27,-73.5C960.69,-73.5 970.75,-73.5 981.85,-73.5"/>
<polygon fill="black" stroke="black" points="981.87,-77 991.87,-73.5 981.87,-70 981.87,-77"/>
</g>
<!-- 139883734297632 -->
<g id="node3" class="node">
<title>139883734297632</title>
<polygon fill="none" stroke="black" points="500,-216.5 500,-252.5 862,-252.5 862,-216.5 500,-216.5"/>
<text text-anchor="middle" x="526" y="-230.8" font-family="Times,serif" font-size="14.00">v002</text>
<polyline fill="none" stroke="black" points="552,-216.5 552,-252.5 "/>
<text text-anchor="middle" x="569.5" y="-230.8" font-family="Times,serif" font-size="14.00">L1</text>
<polyline fill="none" stroke="black" points="587,-216.5 587,-252.5 "/>
<text text-anchor="middle" x="606" y="-230.8" font-family="Times,serif" font-size="14.00">N1</text>
<polyline fill="none" stroke="black" points="625,-216.5 625,-252.5 "/>
<text text-anchor="middle" x="638" y="-230.8" font-family="Times,serif" font-size="14.00">b</text>
<polyline fill="none" stroke="black" points="651,-216.5 651,-252.5 "/>
<text text-anchor="middle" x="704.5" y="-230.8" font-family="Times,serif" font-size="14.00">data &#45;0.1433</text>
<polyline fill="none" stroke="black" points="758,-216.5 758,-252.5 "/>
<text text-anchor="middle" x="810" y="-230.8" font-family="Times,serif" font-size="14.00">grad 0.0000</text>
</g>
<!-- 139883734298304+ -->
<g id="node6" class="node">
<title>139883734298304+</title>
<ellipse fill="none" stroke="black" cx="925" cy="-180.5" rx="27" ry="18"/>
<text text-anchor="middle" x="925" y="-176.8" font-family="Times,serif" font-size="14.00">+</text>
</g>
<!-- 139883734297632&#45;&gt;139883734298304+ -->
<g id="edge19" class="edge">
<title>139883734297632&#45;&gt;139883734298304+</title>
<path fill="none" stroke="black" d="M825.69,-216.42C838.06,-213.82 850.31,-210.86 862,-207.5 872.69,-204.43 883.96,-199.93 893.91,-195.49"/>
<polygon fill="black" stroke="black" points="895.38,-198.66 902.99,-191.29 892.44,-192.31 895.38,-198.66"/>
</g>
<!-- 139883124658752 -->
<g id="node4" class="node">
<title>139883124658752</title>
<polygon fill="none" stroke="black" points="988,-217.5 988,-253.5 1357,-253.5 1357,-217.5 988,-217.5"/>
<text text-anchor="middle" x="1014" y="-231.8" font-family="Times,serif" font-size="14.00">v005</text>
<polyline fill="none" stroke="black" points="1040,-217.5 1040,-253.5 "/>
<text text-anchor="middle" x="1057.5" y="-231.8" font-family="Times,serif" font-size="14.00">L2</text>
<polyline fill="none" stroke="black" points="1075,-217.5 1075,-253.5 "/>
<text text-anchor="middle" x="1094" y="-231.8" font-family="Times,serif" font-size="14.00">N1</text>
<polyline fill="none" stroke="black" points="1113,-217.5 1113,-253.5 "/>
<text text-anchor="middle" x="1132" y="-231.8" font-family="Times,serif" font-size="14.00">w1</text>
<polyline fill="none" stroke="black" points="1151,-217.5 1151,-253.5 "/>
<text text-anchor="middle" x="1202" y="-231.8" font-family="Times,serif" font-size="14.00">data 0.3212</text>
<polyline fill="none" stroke="black" points="1253,-217.5 1253,-253.5 "/>
<text text-anchor="middle" x="1305" y="-231.8" font-family="Times,serif" font-size="14.00">grad 0.0000</text>
</g>
<!-- 139883735110928* -->
<g id="node12" class="node">
<title>139883735110928*</title>
<ellipse fill="none" stroke="black" cx="1420" cy="-182.5" rx="27" ry="18"/>
<text text-anchor="middle" x="1420" y="-178.8" font-family="Times,serif" font-size="14.00">*</text>
</g>
<!-- 139883124658752&#45;&gt;139883735110928* -->
<g id="edge23" class="edge">
<title>139883124658752&#45;&gt;139883735110928*</title>
<path fill="none" stroke="black" d="M1319.44,-217.45C1332.23,-214.84 1344.9,-211.87 1357,-208.5 1367.46,-205.59 1378.5,-201.36 1388.32,-197.16"/>
<polygon fill="black" stroke="black" points="1389.95,-200.27 1397.67,-193.01 1387.11,-193.87 1389.95,-200.27"/>
</g>
<!-- 139883734298304 -->
<g id="node5" class="node">
<title>139883734298304</title>
<polygon fill="none" stroke="black" points="992,-162.5 992,-198.5 1353,-198.5 1353,-162.5 992,-162.5"/>
<text text-anchor="middle" x="1018" y="-176.8" font-family="Times,serif" font-size="14.00">v116</text>
<polyline fill="none" stroke="black" points="1044,-162.5 1044,-198.5 "/>
<text text-anchor="middle" x="1061.5" y="-176.8" font-family="Times,serif" font-size="14.00">L1</text>
<polyline fill="none" stroke="black" points="1079,-162.5 1079,-198.5 "/>
<text text-anchor="middle" x="1098" y="-176.8" font-family="Times,serif" font-size="14.00">N1</text>
<polyline fill="none" stroke="black" points="1117,-162.5 1117,-198.5 "/>
<text text-anchor="middle" x="1129.5" y="-176.8" font-family="Times,serif" font-size="14.00">a</text>
<polyline fill="none" stroke="black" points="1142,-162.5 1142,-198.5 "/>
<text text-anchor="middle" x="1195.5" y="-176.8" font-family="Times,serif" font-size="14.00">data &#45;0.4355</text>
<polyline fill="none" stroke="black" points="1249,-162.5 1249,-198.5 "/>
<text text-anchor="middle" x="1301" y="-176.8" font-family="Times,serif" font-size="14.00">grad 0.0000</text>
</g>
<!-- 139883734298304&#45;&gt;139883735110928* -->
<g id="edge21" class="edge">
<title>139883734298304&#45;&gt;139883735110928*</title>
<path fill="none" stroke="black" d="M1353.21,-181.96C1363.92,-182.05 1373.88,-182.13 1382.65,-182.2"/>
<polygon fill="black" stroke="black" points="1382.7,-185.7 1392.73,-182.29 1382.76,-178.7 1382.7,-185.7"/>
</g>
<!-- 139883734298304+&#45;&gt;139883734298304 -->
<g id="edge2" class="edge">
<title>139883734298304+&#45;&gt;139883734298304</title>
<path fill="none" stroke="black" d="M952.27,-180.5C960.69,-180.5 970.75,-180.5 981.85,-180.5"/>
<polygon fill="black" stroke="black" points="981.87,-184 991.87,-180.5 981.87,-177 981.87,-184"/>
</g>
<!-- 139883734295280 -->
<g id="node7" class="node">
<title>139883734295280</title>
<polygon fill="none" stroke="black" points="518,-106.5 518,-142.5 844,-142.5 844,-106.5 518,-106.5"/>
<text text-anchor="middle" x="544" y="-120.8" font-family="Times,serif" font-size="14.00">v117</text>
<polyline fill="none" stroke="black" points="570,-106.5 570,-142.5 "/>
<text text-anchor="middle" x="580.5" y="-120.8" font-family="Times,serif" font-size="14.00"> </text>
<polyline fill="none" stroke="black" points="591,-106.5 591,-142.5 "/>
<text text-anchor="middle" x="601.5" y="-120.8" font-family="Times,serif" font-size="14.00"> </text>
<polyline fill="none" stroke="black" points="612,-106.5 612,-142.5 "/>
<text text-anchor="middle" x="622.5" y="-120.8" font-family="Times,serif" font-size="14.00"> </text>
<polyline fill="none" stroke="black" points="633,-106.5 633,-142.5 "/>
<text text-anchor="middle" x="686.5" y="-120.8" font-family="Times,serif" font-size="14.00">data &#45;4.3845</text>
<polyline fill="none" stroke="black" points="740,-106.5 740,-142.5 "/>
<text text-anchor="middle" x="792" y="-120.8" font-family="Times,serif" font-size="14.00">grad 0.0000</text>
</g>
<!-- 139883734295280&#45;&gt;139883735115776+ -->
<g id="edge18" class="edge">
<title>139883734295280&#45;&gt;139883735115776+</title>
<path fill="none" stroke="black" d="M817.26,-106.48C832.45,-103.56 847.62,-100.25 862,-96.5 872.06,-93.88 882.76,-90.24 892.39,-86.62"/>
<polygon fill="black" stroke="black" points="893.91,-89.79 901.96,-82.91 891.37,-83.26 893.91,-89.79"/>
</g>
<!-- 139883734295280* -->
<g id="node8" class="node">
<title>139883734295280*</title>
<ellipse fill="none" stroke="black" cx="437" cy="-124.5" rx="27" ry="18"/>
<text text-anchor="middle" x="437" y="-120.8" font-family="Times,serif" font-size="14.00">*</text>
</g>
<!-- 139883734295280*&#45;&gt;139883734295280 -->
<g id="edge3" class="edge">
<title>139883734295280*&#45;&gt;139883734295280</title>
<path fill="none" stroke="black" d="M464.36,-124.5C476.08,-124.5 490.94,-124.5 507.37,-124.5"/>
<polygon fill="black" stroke="black" points="507.79,-128 517.79,-124.5 507.79,-121 507.79,-128"/>
</g>
<!-- 139883735116544 -->
<g id="node9" class="node">
<title>139883735116544</title>
<polygon fill="none" stroke="black" points="2243,-108.5 2243,-144.5 2569,-144.5 2569,-108.5 2243,-108.5"/>
<text text-anchor="middle" x="2269" y="-122.8" font-family="Times,serif" font-size="14.00">v120</text>
<polyline fill="none" stroke="black" points="2295,-108.5 2295,-144.5 "/>
<text text-anchor="middle" x="2305.5" y="-122.8" font-family="Times,serif" font-size="14.00"> </text>
<polyline fill="none" stroke="black" points="2316,-108.5 2316,-144.5 "/>
<text text-anchor="middle" x="2326.5" y="-122.8" font-family="Times,serif" font-size="14.00"> </text>
<polyline fill="none" stroke="black" points="2337,-108.5 2337,-144.5 "/>
<text text-anchor="middle" x="2347.5" y="-122.8" font-family="Times,serif" font-size="14.00"> </text>
<polyline fill="none" stroke="black" points="2358,-108.5 2358,-144.5 "/>
<text text-anchor="middle" x="2411.5" y="-122.8" font-family="Times,serif" font-size="14.00">data &#45;0.4899</text>
<polyline fill="none" stroke="black" points="2465,-108.5 2465,-144.5 "/>
<text text-anchor="middle" x="2517" y="-122.8" font-family="Times,serif" font-size="14.00">grad 0.0000</text>
</g>
<!-- 139883735117168+ -->
<g id="node20" class="node">
<title>139883735117168+</title>
<ellipse fill="none" stroke="black" cx="2632" cy="-100.5" rx="27" ry="18"/>
<text text-anchor="middle" x="2632" y="-96.8" font-family="Times,serif" font-size="14.00">+</text>
</g>
<!-- 139883735116544&#45;&gt;139883735117168+ -->
<g id="edge12" class="edge">
<title>139883735116544&#45;&gt;139883735117168+</title>
<path fill="none" stroke="black" d="M2562.27,-108.48C2574.27,-107.09 2585.48,-105.78 2595.23,-104.65"/>
<polygon fill="black" stroke="black" points="2595.67,-108.12 2605.2,-103.49 2594.86,-101.17 2595.67,-108.12"/>
</g>
<!-- 139883735116544+ -->
<g id="node10" class="node">
<title>139883735116544+</title>
<ellipse fill="none" stroke="black" cx="2044" cy="-128.5" rx="27" ry="18"/>
<text text-anchor="middle" x="2044" y="-124.8" font-family="Times,serif" font-size="14.00">+</text>
</g>
<!-- 139883735116544+&#45;&gt;139883735116544 -->
<g id="edge4" class="edge">
<title>139883735116544+&#45;&gt;139883735116544</title>
<path fill="none" stroke="black" d="M2071.18,-128.35C2105.81,-128.16 2169.83,-127.81 2232.62,-127.46"/>
<polygon fill="black" stroke="black" points="2232.7,-130.96 2242.68,-127.4 2232.66,-123.96 2232.7,-130.96"/>
</g>
<!-- 139883735110928 -->
<g id="node11" class="node">
<title>139883735110928</title>
<polygon fill="none" stroke="black" points="1501,-164.5 1501,-200.5 1827,-200.5 1827,-164.5 1501,-164.5"/>
<text text-anchor="middle" x="1527" y="-178.8" font-family="Times,serif" font-size="14.00">v119</text>
<polyline fill="none" stroke="black" points="1553,-164.5 1553,-200.5 "/>
<text text-anchor="middle" x="1563.5" y="-178.8" font-family="Times,serif" font-size="14.00"> </text>
<polyline fill="none" stroke="black" points="1574,-164.5 1574,-200.5 "/>
<text text-anchor="middle" x="1584.5" y="-178.8" font-family="Times,serif" font-size="14.00"> </text>
<polyline fill="none" stroke="black" points="1595,-164.5 1595,-200.5 "/>
<text text-anchor="middle" x="1605.5" y="-178.8" font-family="Times,serif" font-size="14.00"> </text>
<polyline fill="none" stroke="black" points="1616,-164.5 1616,-200.5 "/>
<text text-anchor="middle" x="1669.5" y="-178.8" font-family="Times,serif" font-size="14.00">data &#45;0.1399</text>
<polyline fill="none" stroke="black" points="1723,-164.5 1723,-200.5 "/>
<text text-anchor="middle" x="1775" y="-178.8" font-family="Times,serif" font-size="14.00">grad 0.0000</text>
</g>
<!-- 139883735110928&#45;&gt;139883735116544+ -->
<g id="edge11" class="edge">
<title>139883735110928&#45;&gt;139883735116544+</title>
<path fill="none" stroke="black" d="M1791.13,-164.48C1866.94,-153.65 1957.97,-140.65 2007.18,-133.62"/>
<polygon fill="black" stroke="black" points="2007.91,-137.05 2017.31,-132.17 2006.92,-130.12 2007.91,-137.05"/>
</g>
<!-- 139883735110928*&#45;&gt;139883735110928 -->
<g id="edge5" class="edge">
<title>139883735110928*&#45;&gt;139883735110928</title>
<path fill="none" stroke="black" d="M1447.36,-182.5C1459.08,-182.5 1473.94,-182.5 1490.37,-182.5"/>
<polygon fill="black" stroke="black" points="1490.79,-186 1500.79,-182.5 1490.79,-179 1490.79,-186"/>
</g>
<!-- 139883734292256 -->
<g id="node13" class="node">
<title>139883734292256</title>
<polygon fill="none" stroke="black" points="0,-189.5 0,-225.5 374,-225.5 374,-189.5 0,-189.5"/>
<text text-anchor="middle" x="26" y="-203.8" font-family="Times,serif" font-size="14.00">v001</text>
<polyline fill="none" stroke="black" points="52,-189.5 52,-225.5 "/>
<text text-anchor="middle" x="69.5" y="-203.8" font-family="Times,serif" font-size="14.00">L1</text>
<polyline fill="none" stroke="black" points="87,-189.5 87,-225.5 "/>
<text text-anchor="middle" x="106" y="-203.8" font-family="Times,serif" font-size="14.00">N1</text>
<polyline fill="none" stroke="black" points="125,-189.5 125,-225.5 "/>
<text text-anchor="middle" x="144" y="-203.8" font-family="Times,serif" font-size="14.00">w1</text>
<polyline fill="none" stroke="black" points="163,-189.5 163,-225.5 "/>
<text text-anchor="middle" x="216.5" y="-203.8" font-family="Times,serif" font-size="14.00">data &#45;0.0731</text>
<polyline fill="none" stroke="black" points="270,-189.5 270,-225.5 "/>
<text text-anchor="middle" x="322" y="-203.8" font-family="Times,serif" font-size="14.00">grad 0.0000</text>
</g>
<!-- 139883734292352* -->
<g id="node22" class="node">
<title>139883734292352*</title>
<ellipse fill="none" stroke="black" cx="437" cy="-179.5" rx="27" ry="18"/>
<text text-anchor="middle" x="437" y="-175.8" font-family="Times,serif" font-size="14.00">*</text>
</g>
<!-- 139883734292256&#45;&gt;139883734292352* -->
<g id="edge13" class="edge">
<title>139883734292256&#45;&gt;139883734292352*</title>
<path fill="none" stroke="black" d="M347.52,-189.49C367.04,-187.29 385.28,-185.23 400.06,-183.56"/>
<polygon fill="black" stroke="black" points="400.64,-187.01 410.19,-182.41 399.86,-180.06 400.64,-187.01"/>
</g>
<!-- 139883124664080 -->
<g id="node14" class="node">
<title>139883124664080</title>
<polygon fill="none" stroke="black" points="1483,-109.5 1483,-145.5 1845,-145.5 1845,-109.5 1483,-109.5"/>
<text text-anchor="middle" x="1509" y="-123.8" font-family="Times,serif" font-size="14.00">v007</text>
<polyline fill="none" stroke="black" points="1535,-109.5 1535,-145.5 "/>
<text text-anchor="middle" x="1552.5" y="-123.8" font-family="Times,serif" font-size="14.00">L2</text>
<polyline fill="none" stroke="black" points="1570,-109.5 1570,-145.5 "/>
<text text-anchor="middle" x="1589" y="-123.8" font-family="Times,serif" font-size="14.00">N1</text>
<polyline fill="none" stroke="black" points="1608,-109.5 1608,-145.5 "/>
<text text-anchor="middle" x="1621" y="-123.8" font-family="Times,serif" font-size="14.00">b</text>
<polyline fill="none" stroke="black" points="1634,-109.5 1634,-145.5 "/>
<text text-anchor="middle" x="1687.5" y="-123.8" font-family="Times,serif" font-size="14.00">data &#45;0.3500</text>
<polyline fill="none" stroke="black" points="1741,-109.5 1741,-145.5 "/>
<text text-anchor="middle" x="1793" y="-123.8" font-family="Times,serif" font-size="14.00">grad 0.0000</text>
</g>
<!-- 139883124664080&#45;&gt;139883735116544+ -->
<g id="edge14" class="edge">
<title>139883124664080&#45;&gt;139883735116544+</title>
<path fill="none" stroke="black" d="M1845.14,-127.98C1906.32,-128.14 1968.75,-128.3 2006.69,-128.4"/>
<polygon fill="black" stroke="black" points="2006.71,-131.9 2016.72,-128.43 2006.73,-124.9 2006.71,-131.9"/>
</g>
<!-- 139883735116064 -->
<g id="node15" class="node">
<title>139883735116064</title>
<polygon fill="none" stroke="black" points="1881,-55.5 1881,-91.5 2207,-91.5 2207,-55.5 1881,-55.5"/>
<text text-anchor="middle" x="1907" y="-69.8" font-family="Times,serif" font-size="14.00">v121</text>
<polyline fill="none" stroke="black" points="1933,-55.5 1933,-91.5 "/>
<text text-anchor="middle" x="1943.5" y="-69.8" font-family="Times,serif" font-size="14.00"> </text>
<polyline fill="none" stroke="black" points="1954,-55.5 1954,-91.5 "/>
<text text-anchor="middle" x="1964.5" y="-69.8" font-family="Times,serif" font-size="14.00"> </text>
<polyline fill="none" stroke="black" points="1975,-55.5 1975,-91.5 "/>
<text text-anchor="middle" x="1985.5" y="-69.8" font-family="Times,serif" font-size="14.00"> </text>
<polyline fill="none" stroke="black" points="1996,-55.5 1996,-91.5 "/>
<text text-anchor="middle" x="2049.5" y="-69.8" font-family="Times,serif" font-size="14.00">data &#45;7.1511</text>
<polyline fill="none" stroke="black" points="2103,-55.5 2103,-91.5 "/>
<text text-anchor="middle" x="2155" y="-69.8" font-family="Times,serif" font-size="14.00">grad 0.0000</text>
</g>
<!-- 139883735116064&#45;&gt;139883735117168+ -->
<g id="edge9" class="edge">
<title>139883735116064&#45;&gt;139883735117168+</title>
<path fill="none" stroke="black" d="M2207.07,-80.97C2340.09,-87.1 2518.44,-95.31 2594.34,-98.81"/>
<polygon fill="black" stroke="black" points="2594.62,-102.33 2604.77,-99.29 2594.95,-95.33 2594.62,-102.33"/>
</g>
<!-- 139883735116064*&#45;&gt;139883735116064 -->
<g id="edge6" class="edge">
<title>139883735116064*&#45;&gt;139883735116064</title>
<path fill="none" stroke="black" d="M1447.33,-73.5C1518.87,-73.5 1721.46,-73.5 1870.6,-73.5"/>
<polygon fill="black" stroke="black" points="1870.79,-77 1880.79,-73.5 1870.79,-70 1870.79,-77"/>
</g>
<!-- 139883735116112 -->
<g id="node17" class="node">
<title>139883735116112</title>
<polygon fill="none" stroke="black" points="22,-134.5 22,-170.5 352,-170.5 352,-134.5 22,-134.5"/>
<text text-anchor="middle" x="48" y="-148.8" font-family="Times,serif" font-size="14.00">v008</text>
<polyline fill="none" stroke="black" points="74,-134.5 74,-170.5 "/>
<text text-anchor="middle" x="84.5" y="-148.8" font-family="Times,serif" font-size="14.00"> </text>
<polyline fill="none" stroke="black" points="95,-134.5 95,-170.5 "/>
<text text-anchor="middle" x="105.5" y="-148.8" font-family="Times,serif" font-size="14.00"> </text>
<polyline fill="none" stroke="black" points="116,-134.5 116,-170.5 "/>
<text text-anchor="middle" x="131" y="-148.8" font-family="Times,serif" font-size="14.00">i1</text>
<polyline fill="none" stroke="black" points="146,-134.5 146,-170.5 "/>
<text text-anchor="middle" x="197" y="-148.8" font-family="Times,serif" font-size="14.00">data 4.0000</text>
<polyline fill="none" stroke="black" points="248,-134.5 248,-170.5 "/>
<text text-anchor="middle" x="300" y="-148.8" font-family="Times,serif" font-size="14.00">grad 0.0000</text>
</g>
<!-- 139883735116112&#45;&gt;139883734295280* -->
<g id="edge24" class="edge">
<title>139883735116112&#45;&gt;139883734295280*</title>
<path fill="none" stroke="black" d="M347.52,-134.49C367.04,-132.29 385.28,-130.23 400.06,-128.56"/>
<polygon fill="black" stroke="black" points="400.64,-132.01 410.19,-127.41 399.86,-125.06 400.64,-132.01"/>
</g>
<!-- 139883735116112&#45;&gt;139883734292352* -->
<g id="edge22" class="edge">
<title>139883735116112&#45;&gt;139883734292352*</title>
<path fill="none" stroke="black" d="M352.04,-170.36C369.81,-172.29 386.35,-174.09 399.97,-175.58"/>
<polygon fill="black" stroke="black" points="399.91,-179.09 410.23,-176.69 400.67,-172.13 399.91,-179.09"/>
</g>
<!-- 139883124658992 -->
<g id="node18" class="node">
<title>139883124658992</title>
<polygon fill="none" stroke="black" points="500,-51.5 500,-87.5 862,-87.5 862,-51.5 500,-51.5"/>
<text text-anchor="middle" x="526" y="-65.8" font-family="Times,serif" font-size="14.00">v004</text>
<polyline fill="none" stroke="black" points="552,-51.5 552,-87.5 "/>
<text text-anchor="middle" x="569.5" y="-65.8" font-family="Times,serif" font-size="14.00">L1</text>
<polyline fill="none" stroke="black" points="587,-51.5 587,-87.5 "/>
<text text-anchor="middle" x="606" y="-65.8" font-family="Times,serif" font-size="14.00">N2</text>
<polyline fill="none" stroke="black" points="625,-51.5 625,-87.5 "/>
<text text-anchor="middle" x="638" y="-65.8" font-family="Times,serif" font-size="14.00">b</text>
<polyline fill="none" stroke="black" points="651,-51.5 651,-87.5 "/>
<text text-anchor="middle" x="704.5" y="-65.8" font-family="Times,serif" font-size="14.00">data &#45;0.3990</text>
<polyline fill="none" stroke="black" points="758,-51.5 758,-87.5 "/>
<text text-anchor="middle" x="810" y="-65.8" font-family="Times,serif" font-size="14.00">grad 0.0000</text>
</g>
<!-- 139883124658992&#45;&gt;139883735115776+ -->
<g id="edge17" class="edge">
<title>139883124658992&#45;&gt;139883735115776+</title>
<path fill="none" stroke="black" d="M862.31,-72.48C871.5,-72.63 880.08,-72.77 887.76,-72.9"/>
<polygon fill="black" stroke="black" points="887.91,-76.4 897.96,-73.07 888.02,-69.4 887.91,-76.4"/>
</g>
<!-- 139883735117168 -->
<g id="node19" class="node">
<title>139883735117168</title>
<polygon fill="none" stroke="black" points="2695,-82.5 2695,-118.5 3056,-118.5 3056,-82.5 2695,-82.5"/>
<text text-anchor="middle" x="2721" y="-96.8" font-family="Times,serif" font-size="14.00">v122</text>
<polyline fill="none" stroke="black" points="2747,-82.5 2747,-118.5 "/>
<text text-anchor="middle" x="2764.5" y="-96.8" font-family="Times,serif" font-size="14.00">L2</text>
<polyline fill="none" stroke="black" points="2782,-82.5 2782,-118.5 "/>
<text text-anchor="middle" x="2801" y="-96.8" font-family="Times,serif" font-size="14.00">N1</text>
<polyline fill="none" stroke="black" points="2820,-82.5 2820,-118.5 "/>
<text text-anchor="middle" x="2832.5" y="-96.8" font-family="Times,serif" font-size="14.00">a</text>
<polyline fill="none" stroke="black" points="2845,-82.5 2845,-118.5 "/>
<text text-anchor="middle" x="2898.5" y="-96.8" font-family="Times,serif" font-size="14.00">data &#45;7.6410</text>
<polyline fill="none" stroke="black" points="2952,-82.5 2952,-118.5 "/>
<text text-anchor="middle" x="3004" y="-96.8" font-family="Times,serif" font-size="14.00">grad 0.0000</text>
</g>
<!-- 139883735117168+&#45;&gt;139883735117168 -->
<g id="edge7" class="edge">
<title>139883735117168+&#45;&gt;139883735117168</title>
<path fill="none" stroke="black" d="M2659.3,-100.5C2666.65,-100.5 2675.24,-100.5 2684.68,-100.5"/>
<polygon fill="black" stroke="black" points="2684.81,-104 2694.81,-100.5 2684.81,-97 2684.81,-104"/>
</g>
<!-- 139883734292352 -->
<g id="node21" class="node">
<title>139883734292352</title>
<polygon fill="none" stroke="black" points="518,-161.5 518,-197.5 844,-197.5 844,-161.5 518,-161.5"/>
<text text-anchor="middle" x="544" y="-175.8" font-family="Times,serif" font-size="14.00">v115</text>
<polyline fill="none" stroke="black" points="570,-161.5 570,-197.5 "/>
<text text-anchor="middle" x="580.5" y="-175.8" font-family="Times,serif" font-size="14.00"> </text>
<polyline fill="none" stroke="black" points="591,-161.5 591,-197.5 "/>
<text text-anchor="middle" x="601.5" y="-175.8" font-family="Times,serif" font-size="14.00"> </text>
<polyline fill="none" stroke="black" points="612,-161.5 612,-197.5 "/>
<text text-anchor="middle" x="622.5" y="-175.8" font-family="Times,serif" font-size="14.00"> </text>
<polyline fill="none" stroke="black" points="633,-161.5 633,-197.5 "/>
<text text-anchor="middle" x="686.5" y="-175.8" font-family="Times,serif" font-size="14.00">data &#45;0.2922</text>
<polyline fill="none" stroke="black" points="740,-161.5 740,-197.5 "/>
<text text-anchor="middle" x="792" y="-175.8" font-family="Times,serif" font-size="14.00">grad 0.0000</text>
</g>
<!-- 139883734292352&#45;&gt;139883734298304+ -->
<g id="edge15" class="edge">
<title>139883734292352&#45;&gt;139883734298304+</title>
<path fill="none" stroke="black" d="M844.09,-180.17C860.07,-180.24 874.97,-180.3 887.47,-180.35"/>
<polygon fill="black" stroke="black" points="887.79,-183.85 897.8,-180.39 887.81,-176.85 887.79,-183.85"/>
</g>
<!-- 139883734292352*&#45;&gt;139883734292352 -->
<g id="edge8" class="edge">
<title>139883734292352*&#45;&gt;139883734292352</title>
<path fill="none" stroke="black" d="M464.36,-179.5C476.08,-179.5 490.94,-179.5 507.37,-179.5"/>
<polygon fill="black" stroke="black" points="507.79,-183 517.79,-179.5 507.79,-176 507.79,-183"/>
</g>
<!-- 139883124659040 -->
<g id="node23" class="node">
<title>139883124659040</title>
<polygon fill="none" stroke="black" points="0,-79.5 0,-115.5 374,-115.5 374,-79.5 0,-79.5"/>
<text text-anchor="middle" x="26" y="-93.8" font-family="Times,serif" font-size="14.00">v003</text>
<polyline fill="none" stroke="black" points="52,-79.5 52,-115.5 "/>
<text text-anchor="middle" x="69.5" y="-93.8" font-family="Times,serif" font-size="14.00">L1</text>
<polyline fill="none" stroke="black" points="87,-79.5 87,-115.5 "/>
<text text-anchor="middle" x="106" y="-93.8" font-family="Times,serif" font-size="14.00">N2</text>
<polyline fill="none" stroke="black" points="125,-79.5 125,-115.5 "/>
<text text-anchor="middle" x="144" y="-93.8" font-family="Times,serif" font-size="14.00">w1</text>
<polyline fill="none" stroke="black" points="163,-79.5 163,-115.5 "/>
<text text-anchor="middle" x="216.5" y="-93.8" font-family="Times,serif" font-size="14.00">data &#45;1.0961</text>
<polyline fill="none" stroke="black" points="270,-79.5 270,-115.5 "/>
<text text-anchor="middle" x="322" y="-93.8" font-family="Times,serif" font-size="14.00">grad 0.0000</text>
</g>
<!-- 139883124659040&#45;&gt;139883734295280* -->
<g id="edge10" class="edge">
<title>139883124659040&#45;&gt;139883734295280*</title>
<path fill="none" stroke="black" d="M353.42,-115.51C370.67,-117.39 386.71,-119.13 399.97,-120.58"/>
<polygon fill="black" stroke="black" points="399.67,-124.07 409.99,-121.67 400.43,-117.11 399.67,-124.07"/>
</g>
<!-- 139883124664128 -->
<g id="node24" class="node">
<title>139883124664128</title>
<polygon fill="none" stroke="black" points="988,-0.5 988,-36.5 1357,-36.5 1357,-0.5 988,-0.5"/>
<text text-anchor="middle" x="1014" y="-14.8" font-family="Times,serif" font-size="14.00">v006</text>
<polyline fill="none" stroke="black" points="1040,-0.5 1040,-36.5 "/>
<text text-anchor="middle" x="1057.5" y="-14.8" font-family="Times,serif" font-size="14.00">L2</text>
<polyline fill="none" stroke="black" points="1075,-0.5 1075,-36.5 "/>
<text text-anchor="middle" x="1094" y="-14.8" font-family="Times,serif" font-size="14.00">N1</text>
<polyline fill="none" stroke="black" points="1113,-0.5 1113,-36.5 "/>
<text text-anchor="middle" x="1132" y="-14.8" font-family="Times,serif" font-size="14.00">w2</text>
<polyline fill="none" stroke="black" points="1151,-0.5 1151,-36.5 "/>
<text text-anchor="middle" x="1202" y="-14.8" font-family="Times,serif" font-size="14.00">data 1.4950</text>
<polyline fill="none" stroke="black" points="1253,-0.5 1253,-36.5 "/>
<text text-anchor="middle" x="1305" y="-14.8" font-family="Times,serif" font-size="14.00">grad 0.0000</text>
</g>
<!-- 139883124664128&#45;&gt;139883735116064* -->
<g id="edge20" class="edge">
<title>139883124664128&#45;&gt;139883735116064*</title>
<path fill="none" stroke="black" d="M1321.02,-36.51C1333.28,-39.12 1345.41,-42.1 1357,-45.5 1367.82,-48.67 1379.2,-53.37 1389.21,-58.02"/>
<polygon fill="black" stroke="black" points="1387.79,-61.23 1398.32,-62.41 1390.83,-54.92 1387.79,-61.23"/>
</g>
</g>
</svg>
