<?xml version="1.0" encoding="UTF-8" standalone="no"?>
<!DOCTYPE svg PUBLIC "-//W3C//DTD SVG 1.1//EN"
 "http://www.w3.org/Graphics/SVG/1.1/DTD/svg11.dtd">
<!-- Generated by graphviz version 2.43.0 (0)
 -->
<!-- Title: %3 Pages: 1 -->
<svg width="3510pt" height="265pt"
 viewBox="0.00 0.00 3510.00 265.00" xmlns="http://www.w3.org/2000/svg" xmlns:xlink="http://www.w3.org/1999/xlink">
<g id="graph0" class="graph" transform="scale(1 1) rotate(0) translate(4 261)">
<title>%3</title>
<polygon fill="white" stroke="transparent" points="-4,4 -4,-261 3506,-261 3506,4 -4,4"/>
<!-- 140260402419584 -->
<g id="node1" class="node">
<title>140260402419584</title>
<polygon fill="none" stroke="black" points="0,-220.5 0,-256.5 374,-256.5 374,-220.5 0,-220.5"/>
<text text-anchor="middle" x="26" y="-234.8" font-family="Times,serif" font-size="14.00">v001</text>
<polyline fill="none" stroke="black" points="52,-220.5 52,-256.5 "/>
<text text-anchor="middle" x="69.5" y="-234.8" font-family="Times,serif" font-size="14.00">L1</text>
<polyline fill="none" stroke="black" points="87,-220.5 87,-256.5 "/>
<text text-anchor="middle" x="106" y="-234.8" font-family="Times,serif" font-size="14.00">N1</text>
<polyline fill="none" stroke="black" points="125,-220.5 125,-256.5 "/>
<text text-anchor="middle" x="144" y="-234.8" font-family="Times,serif" font-size="14.00">w1</text>
<polyline fill="none" stroke="black" points="163,-220.5 163,-256.5 "/>
<text text-anchor="middle" x="216.5" y="-234.8" font-family="Times,serif" font-size="14.00">data &#45;0.4948</text>
<polyline fill="none" stroke="black" points="270,-220.5 270,-256.5 "/>
<text text-anchor="middle" x="322" y="-234.8" font-family="Times,serif" font-size="14.00">grad 0.0000</text>
</g>
<!-- 140260402420496* -->
<g id="node13" class="node">
<title>140260402420496*</title>
<ellipse fill="none" stroke="black" cx="437" cy="-238.5" rx="27" ry="18"/>
<text text-anchor="middle" x="437" y="-234.8" font-family="Times,serif" font-size="14.00">*</text>
</g>
<!-- 140260402419584&#45;&gt;140260402420496* -->
<g id="edge14" class="edge">
<title>140260402419584&#45;&gt;140260402420496*</title>
<path fill="none" stroke="black" d="M374.06,-238.5C383.31,-238.5 391.94,-238.5 399.65,-238.5"/>
<polygon fill="black" stroke="black" points="399.9,-242 409.9,-238.5 399.9,-235 399.9,-242"/>
</g>
<!-- 140260402427504 -->
<g id="node2" class="node">
<title>140260402427504</title>
<polygon fill="none" stroke="black" points="994.5,-55.5 994.5,-91.5 1355.5,-91.5 1355.5,-55.5 994.5,-55.5"/>
<text text-anchor="middle" x="1020.5" y="-69.8" font-family="Times,serif" font-size="14.00">v031</text>
<polyline fill="none" stroke="black" points="1046.5,-55.5 1046.5,-91.5 "/>
<text text-anchor="middle" x="1064" y="-69.8" font-family="Times,serif" font-size="14.00">L1</text>
<polyline fill="none" stroke="black" points="1081.5,-55.5 1081.5,-91.5 "/>
<text text-anchor="middle" x="1100.5" y="-69.8" font-family="Times,serif" font-size="14.00">N2</text>
<polyline fill="none" stroke="black" points="1119.5,-55.5 1119.5,-91.5 "/>
<text text-anchor="middle" x="1132" y="-69.8" font-family="Times,serif" font-size="14.00">a</text>
<polyline fill="none" stroke="black" points="1144.5,-55.5 1144.5,-91.5 "/>
<text text-anchor="middle" x="1198" y="-69.8" font-family="Times,serif" font-size="14.00">data &#45;3.1208</text>
<polyline fill="none" stroke="black" points="1251.5,-55.5 1251.5,-91.5 "/>
<text text-anchor="middle" x="1303.5" y="-69.8" font-family="Times,serif" font-size="14.00">grad 0.0000</text>
</g>
<!-- 140260402427552* -->
<g id="node8" class="node">
<title>140260402427552*</title>
<ellipse fill="none" stroke="black" cx="1425" cy="-60.5" rx="27" ry="18"/>
<text text-anchor="middle" x="1425" y="-56.8" font-family="Times,serif" font-size="14.00">*</text>
</g>
<!-- 140260402427504&#45;&gt;140260402427552* -->
<g id="edge10" class="edge">
<title>140260402427504&#45;&gt;140260402427552*</title>
<path fill="none" stroke="black" d="M1355.58,-64.09C1367.35,-63.47 1378.29,-62.9 1387.81,-62.4"/>
<polygon fill="black" stroke="black" points="1388.12,-65.89 1397.92,-61.87 1387.75,-58.9 1388.12,-65.89"/>
</g>
<!-- 140260402427504+ -->
<g id="node3" class="node">
<title>140260402427504+</title>
<ellipse fill="none" stroke="black" cx="925" cy="-73.5" rx="27" ry="18"/>
<text text-anchor="middle" x="925" y="-69.8" font-family="Times,serif" font-size="14.00">+</text>
</g>
<!-- 140260402427504+&#45;&gt;140260402427504 -->
<g id="edge1" class="edge">
<title>140260402427504+&#45;&gt;140260402427504</title>
<path fill="none" stroke="black" d="M952.07,-73.5C961.15,-73.5 972.15,-73.5 984.34,-73.5"/>
<polygon fill="black" stroke="black" points="984.35,-77 994.35,-73.5 984.35,-70 984.35,-77"/>
</g>
<!-- 140260402420352 -->
<g id="node4" class="node">
<title>140260402420352</title>
<polygon fill="none" stroke="black" points="994.5,-190.5 994.5,-226.5 1355.5,-226.5 1355.5,-190.5 994.5,-190.5"/>
<text text-anchor="middle" x="1020.5" y="-204.8" font-family="Times,serif" font-size="14.00">v029</text>
<polyline fill="none" stroke="black" points="1046.5,-190.5 1046.5,-226.5 "/>
<text text-anchor="middle" x="1064" y="-204.8" font-family="Times,serif" font-size="14.00">L1</text>
<polyline fill="none" stroke="black" points="1081.5,-190.5 1081.5,-226.5 "/>
<text text-anchor="middle" x="1100.5" y="-204.8" font-family="Times,serif" font-size="14.00">N1</text>
<polyline fill="none" stroke="black" points="1119.5,-190.5 1119.5,-226.5 "/>
<text text-anchor="middle" x="1132" y="-204.8" font-family="Times,serif" font-size="14.00">a</text>
<polyline fill="none" stroke="black" points="1144.5,-190.5 1144.5,-226.5 "/>
<text text-anchor="middle" x="1198" y="-204.8" font-family="Times,serif" font-size="14.00">data &#45;2.2278</text>
<polyline fill="none" stroke="black" points="1251.5,-190.5 1251.5,-226.5 "/>
<text text-anchor="middle" x="1303.5" y="-204.8" font-family="Times,serif" font-size="14.00">grad 0.0000</text>
</g>
<!-- 140260402424720* -->
<g id="node23" class="node">
<title>140260402424720*</title>
<ellipse fill="none" stroke="black" cx="1425" cy="-166.5" rx="27" ry="18"/>
<text text-anchor="middle" x="1425" y="-162.8" font-family="Times,serif" font-size="14.00">*</text>
</g>
<!-- 140260402420352&#45;&gt;140260402424720* -->
<g id="edge13" class="edge">
<title>140260402420352&#45;&gt;140260402424720*</title>
<path fill="none" stroke="black" d="M1310.61,-190.48C1327.94,-187.71 1345.42,-184.7 1362,-181.5 1371.09,-179.75 1380.84,-177.54 1389.87,-175.36"/>
<polygon fill="black" stroke="black" points="1390.8,-178.74 1399.67,-172.94 1389.13,-171.94 1390.8,-178.74"/>
</g>
<!-- 140260402420352+ -->
<g id="node5" class="node">
<title>140260402420352+</title>
<ellipse fill="none" stroke="black" cx="925" cy="-208.5" rx="27" ry="18"/>
<text text-anchor="middle" x="925" y="-204.8" font-family="Times,serif" font-size="14.00">+</text>
</g>
<!-- 140260402420352+&#45;&gt;140260402420352 -->
<g id="edge2" class="edge">
<title>140260402420352+&#45;&gt;140260402420352</title>
<path fill="none" stroke="black" d="M952.07,-208.5C961.15,-208.5 972.15,-208.5 984.34,-208.5"/>
<polygon fill="black" stroke="black" points="984.35,-212 994.35,-208.5 984.35,-205 984.35,-212"/>
</g>
<!-- 140260402419344 -->
<g id="node6" class="node">
<title>140260402419344</title>
<polygon fill="none" stroke="black" points="988,-0.5 988,-36.5 1362,-36.5 1362,-0.5 988,-0.5"/>
<text text-anchor="middle" x="1014" y="-14.8" font-family="Times,serif" font-size="14.00">v006</text>
<polyline fill="none" stroke="black" points="1040,-0.5 1040,-36.5 "/>
<text text-anchor="middle" x="1057.5" y="-14.8" font-family="Times,serif" font-size="14.00">L2</text>
<polyline fill="none" stroke="black" points="1075,-0.5 1075,-36.5 "/>
<text text-anchor="middle" x="1094" y="-14.8" font-family="Times,serif" font-size="14.00">N1</text>
<polyline fill="none" stroke="black" points="1113,-0.5 1113,-36.5 "/>
<text text-anchor="middle" x="1132" y="-14.8" font-family="Times,serif" font-size="14.00">w2</text>
<polyline fill="none" stroke="black" points="1151,-0.5 1151,-36.5 "/>
<text text-anchor="middle" x="1204.5" y="-14.8" font-family="Times,serif" font-size="14.00">data &#45;0.9760</text>
<polyline fill="none" stroke="black" points="1258,-0.5 1258,-36.5 "/>
<text text-anchor="middle" x="1310" y="-14.8" font-family="Times,serif" font-size="14.00">grad 0.0000</text>
</g>
<!-- 140260402419344&#45;&gt;140260402427552* -->
<g id="edge11" class="edge">
<title>140260402419344&#45;&gt;140260402427552*</title>
<path fill="none" stroke="black" d="M1310.61,-36.52C1327.94,-39.29 1345.42,-42.3 1362,-45.5 1371.09,-47.25 1380.84,-49.46 1389.87,-51.64"/>
<polygon fill="black" stroke="black" points="1389.13,-55.06 1399.67,-54.06 1390.8,-48.26 1389.13,-55.06"/>
</g>
<!-- 140260402427552 -->
<g id="node7" class="node">
<title>140260402427552</title>
<polygon fill="none" stroke="black" points="1886,-42.5 1886,-78.5 2207,-78.5 2207,-42.5 1886,-42.5"/>
<text text-anchor="middle" x="1912" y="-56.8" font-family="Times,serif" font-size="14.00">v034</text>
<polyline fill="none" stroke="black" points="1938,-42.5 1938,-78.5 "/>
<text text-anchor="middle" x="1948.5" y="-56.8" font-family="Times,serif" font-size="14.00"> </text>
<polyline fill="none" stroke="black" points="1959,-42.5 1959,-78.5 "/>
<text text-anchor="middle" x="1969.5" y="-56.8" font-family="Times,serif" font-size="14.00"> </text>
<polyline fill="none" stroke="black" points="1980,-42.5 1980,-78.5 "/>
<text text-anchor="middle" x="1990.5" y="-56.8" font-family="Times,serif" font-size="14.00"> </text>
<polyline fill="none" stroke="black" points="2001,-42.5 2001,-78.5 "/>
<text text-anchor="middle" x="2052" y="-56.8" font-family="Times,serif" font-size="14.00">data 3.0458</text>
<polyline fill="none" stroke="black" points="2103,-42.5 2103,-78.5 "/>
<text text-anchor="middle" x="2155" y="-56.8" font-family="Times,serif" font-size="14.00">grad 0.0000</text>
</g>
<!-- 140260402429280+ -->
<g id="node18" class="node">
<title>140260402429280+</title>
<ellipse fill="none" stroke="black" cx="2627" cy="-87.5" rx="27" ry="18"/>
<text text-anchor="middle" x="2627" y="-83.8" font-family="Times,serif" font-size="14.00">+</text>
</g>
<!-- 140260402427552&#45;&gt;140260402429280+ -->
<g id="edge24" class="edge">
<title>140260402427552&#45;&gt;140260402429280+</title>
<path fill="none" stroke="black" d="M2207.11,-67.95C2338.28,-74.07 2514.3,-82.29 2589.48,-85.8"/>
<polygon fill="black" stroke="black" points="2589.67,-89.31 2599.82,-86.28 2590,-82.32 2589.67,-89.31"/>
</g>
<!-- 140260402427552*&#45;&gt;140260402427552 -->
<g id="edge3" class="edge">
<title>140260402427552*&#45;&gt;140260402427552</title>
<path fill="none" stroke="black" d="M1452.22,-60.5C1523.76,-60.5 1726.85,-60.5 1875.55,-60.5"/>
<polygon fill="black" stroke="black" points="1875.71,-64 1885.71,-60.5 1875.71,-57 1875.71,-64"/>
</g>
<!-- 140260402420448 -->
<g id="node9" class="node">
<title>140260402420448</title>
<polygon fill="none" stroke="black" points="2243,-95.5 2243,-131.5 2564,-131.5 2564,-95.5 2243,-95.5"/>
<text text-anchor="middle" x="2269" y="-109.8" font-family="Times,serif" font-size="14.00">v033</text>
<polyline fill="none" stroke="black" points="2295,-95.5 2295,-131.5 "/>
<text text-anchor="middle" x="2305.5" y="-109.8" font-family="Times,serif" font-size="14.00"> </text>
<polyline fill="none" stroke="black" points="2316,-95.5 2316,-131.5 "/>
<text text-anchor="middle" x="2326.5" y="-109.8" font-family="Times,serif" font-size="14.00"> </text>
<polyline fill="none" stroke="black" points="2337,-95.5 2337,-131.5 "/>
<text text-anchor="middle" x="2347.5" y="-109.8" font-family="Times,serif" font-size="14.00"> </text>
<polyline fill="none" stroke="black" points="2358,-95.5 2358,-131.5 "/>
<text text-anchor="middle" x="2409" y="-109.8" font-family="Times,serif" font-size="14.00">data 1.1946</text>
<polyline fill="none" stroke="black" points="2460,-95.5 2460,-131.5 "/>
<text text-anchor="middle" x="2512" y="-109.8" font-family="Times,serif" font-size="14.00">grad 0.0000</text>
</g>
<!-- 140260402420448&#45;&gt;140260402429280+ -->
<g id="edge15" class="edge">
<title>140260402420448&#45;&gt;140260402429280+</title>
<path fill="none" stroke="black" d="M2558.04,-95.48C2569.67,-94.11 2580.55,-92.83 2590.06,-91.72"/>
<polygon fill="black" stroke="black" points="2590.64,-95.17 2600.17,-90.53 2589.83,-88.22 2590.64,-95.17"/>
</g>
<!-- 140260402420448+ -->
<g id="node10" class="node">
<title>140260402420448+</title>
<ellipse fill="none" stroke="black" cx="2046.5" cy="-115.5" rx="27" ry="18"/>
<text text-anchor="middle" x="2046.5" y="-111.8" font-family="Times,serif" font-size="14.00">+</text>
</g>
<!-- 140260402420448+&#45;&gt;140260402420448 -->
<g id="edge4" class="edge">
<title>140260402420448+&#45;&gt;140260402420448</title>
<path fill="none" stroke="black" d="M2073.6,-115.35C2107.81,-115.16 2170.72,-114.81 2232.43,-114.46"/>
<polygon fill="black" stroke="black" points="2232.74,-117.96 2242.72,-114.4 2232.7,-110.96 2232.74,-117.96"/>
</g>
<!-- 140260402422512 -->
<g id="node11" class="node">
<title>140260402422512</title>
<polygon fill="none" stroke="black" points="500,-165.5 500,-201.5 862,-201.5 862,-165.5 500,-165.5"/>
<text text-anchor="middle" x="526" y="-179.8" font-family="Times,serif" font-size="14.00">v002</text>
<polyline fill="none" stroke="black" points="552,-165.5 552,-201.5 "/>
<text text-anchor="middle" x="569.5" y="-179.8" font-family="Times,serif" font-size="14.00">L1</text>
<polyline fill="none" stroke="black" points="587,-165.5 587,-201.5 "/>
<text text-anchor="middle" x="606" y="-179.8" font-family="Times,serif" font-size="14.00">N1</text>
<polyline fill="none" stroke="black" points="625,-165.5 625,-201.5 "/>
<text text-anchor="middle" x="638" y="-179.8" font-family="Times,serif" font-size="14.00">b</text>
<polyline fill="none" stroke="black" points="651,-165.5 651,-201.5 "/>
<text text-anchor="middle" x="704.5" y="-179.8" font-family="Times,serif" font-size="14.00">data &#45;0.2487</text>
<polyline fill="none" stroke="black" points="758,-165.5 758,-201.5 "/>
<text text-anchor="middle" x="810" y="-179.8" font-family="Times,serif" font-size="14.00">grad 0.0000</text>
</g>
<!-- 140260402422512&#45;&gt;140260402420352+ -->
<g id="edge19" class="edge">
<title>140260402422512&#45;&gt;140260402420352+</title>
<path fill="none" stroke="black" d="M856.27,-201.5C867.9,-202.7 878.72,-203.82 888.14,-204.8"/>
<polygon fill="black" stroke="black" points="887.84,-208.28 898.15,-205.83 888.56,-201.32 887.84,-208.28"/>
</g>
<!-- 140260402420496 -->
<g id="node12" class="node">
<title>140260402420496</title>
<polygon fill="none" stroke="black" points="518,-220.5 518,-256.5 844,-256.5 844,-220.5 518,-220.5"/>
<text text-anchor="middle" x="544" y="-234.8" font-family="Times,serif" font-size="14.00">v028</text>
<polyline fill="none" stroke="black" points="570,-220.5 570,-256.5 "/>
<text text-anchor="middle" x="580.5" y="-234.8" font-family="Times,serif" font-size="14.00"> </text>
<polyline fill="none" stroke="black" points="591,-220.5 591,-256.5 "/>
<text text-anchor="middle" x="601.5" y="-234.8" font-family="Times,serif" font-size="14.00"> </text>
<polyline fill="none" stroke="black" points="612,-220.5 612,-256.5 "/>
<text text-anchor="middle" x="622.5" y="-234.8" font-family="Times,serif" font-size="14.00"> </text>
<polyline fill="none" stroke="black" points="633,-220.5 633,-256.5 "/>
<text text-anchor="middle" x="686.5" y="-234.8" font-family="Times,serif" font-size="14.00">data &#45;1.9791</text>
<polyline fill="none" stroke="black" points="740,-220.5 740,-256.5 "/>
<text text-anchor="middle" x="792" y="-234.8" font-family="Times,serif" font-size="14.00">grad 0.0000</text>
</g>
<!-- 140260402420496&#45;&gt;140260402420352+ -->
<g id="edge25" class="edge">
<title>140260402420496&#45;&gt;140260402420352+</title>
<path fill="none" stroke="black" d="M827.31,-220.49C849.71,-217.71 870.95,-215.08 887.78,-212.99"/>
<polygon fill="black" stroke="black" points="888.69,-216.4 898.18,-211.7 887.83,-209.46 888.69,-216.4"/>
</g>
<!-- 140260402420496*&#45;&gt;140260402420496 -->
<g id="edge5" class="edge">
<title>140260402420496*&#45;&gt;140260402420496</title>
<path fill="none" stroke="black" d="M464.36,-238.5C476.08,-238.5 490.94,-238.5 507.37,-238.5"/>
<polygon fill="black" stroke="black" points="507.79,-242 517.79,-238.5 507.79,-235 507.79,-242"/>
</g>
<!-- 140260402419632 -->
<g id="node14" class="node">
<title>140260402419632</title>
<polygon fill="none" stroke="black" points="1488,-93.5 1488,-129.5 1850,-129.5 1850,-93.5 1488,-93.5"/>
<text text-anchor="middle" x="1514" y="-107.8" font-family="Times,serif" font-size="14.00">v007</text>
<polyline fill="none" stroke="black" points="1540,-93.5 1540,-129.5 "/>
<text text-anchor="middle" x="1557.5" y="-107.8" font-family="Times,serif" font-size="14.00">L2</text>
<polyline fill="none" stroke="black" points="1575,-93.5 1575,-129.5 "/>
<text text-anchor="middle" x="1594" y="-107.8" font-family="Times,serif" font-size="14.00">N1</text>
<polyline fill="none" stroke="black" points="1613,-93.5 1613,-129.5 "/>
<text text-anchor="middle" x="1626" y="-107.8" font-family="Times,serif" font-size="14.00">b</text>
<polyline fill="none" stroke="black" points="1639,-93.5 1639,-129.5 "/>
<text text-anchor="middle" x="1692.5" y="-107.8" font-family="Times,serif" font-size="14.00">data &#45;0.0876</text>
<polyline fill="none" stroke="black" points="1746,-93.5 1746,-129.5 "/>
<text text-anchor="middle" x="1798" y="-107.8" font-family="Times,serif" font-size="14.00">grad 0.0000</text>
</g>
<!-- 140260402419632&#45;&gt;140260402420448+ -->
<g id="edge26" class="edge">
<title>140260402419632&#45;&gt;140260402420448+</title>
<path fill="none" stroke="black" d="M1850.05,-113.42C1910.18,-114.06 1971.37,-114.71 2008.88,-115.11"/>
<polygon fill="black" stroke="black" points="2009.24,-118.61 2019.27,-115.22 2009.31,-111.61 2009.24,-118.61"/>
</g>
<!-- 140260402421072 -->
<g id="node15" class="node">
<title>140260402421072</title>
<polygon fill="none" stroke="black" points="3172,-69.5 3172,-105.5 3502,-105.5 3502,-69.5 3172,-69.5"/>
<text text-anchor="middle" x="3198" y="-83.8" font-family="Times,serif" font-size="14.00">v036</text>
<polyline fill="none" stroke="black" points="3224,-69.5 3224,-105.5 "/>
<text text-anchor="middle" x="3234.5" y="-83.8" font-family="Times,serif" font-size="14.00"> </text>
<polyline fill="none" stroke="black" points="3245,-69.5 3245,-105.5 "/>
<text text-anchor="middle" x="3255.5" y="-83.8" font-family="Times,serif" font-size="14.00"> </text>
<polyline fill="none" stroke="black" points="3266,-69.5 3266,-105.5 "/>
<text text-anchor="middle" x="3276.5" y="-83.8" font-family="Times,serif" font-size="14.00">l</text>
<polyline fill="none" stroke="black" points="3287,-69.5 3287,-105.5 "/>
<text text-anchor="middle" x="3342.5" y="-83.8" font-family="Times,serif" font-size="14.00">data 17.9812</text>
<polyline fill="none" stroke="black" points="3398,-69.5 3398,-105.5 "/>
<text text-anchor="middle" x="3450" y="-83.8" font-family="Times,serif" font-size="14.00">grad 0.0000</text>
</g>
<!-- 140260402421072* -->
<g id="node16" class="node">
<title>140260402421072*</title>
<ellipse fill="none" stroke="black" cx="3109" cy="-87.5" rx="27" ry="18"/>
<text text-anchor="middle" x="3109" y="-83.8" font-family="Times,serif" font-size="14.00">*</text>
</g>
<!-- 140260402421072*&#45;&gt;140260402421072 -->
<g id="edge6" class="edge">
<title>140260402421072*&#45;&gt;140260402421072</title>
<path fill="none" stroke="black" d="M3136.37,-87.5C3143.71,-87.5 3152.28,-87.5 3161.65,-87.5"/>
<polygon fill="black" stroke="black" points="3161.7,-91 3171.7,-87.5 3161.7,-84 3161.7,-91"/>
</g>
<!-- 140260402429280 -->
<g id="node17" class="node">
<title>140260402429280</title>
<polygon fill="none" stroke="black" points="2690,-69.5 2690,-105.5 3046,-105.5 3046,-69.5 2690,-69.5"/>
<text text-anchor="middle" x="2716" y="-83.8" font-family="Times,serif" font-size="14.00">v035</text>
<polyline fill="none" stroke="black" points="2742,-69.5 2742,-105.5 "/>
<text text-anchor="middle" x="2759.5" y="-83.8" font-family="Times,serif" font-size="14.00">L2</text>
<polyline fill="none" stroke="black" points="2777,-69.5 2777,-105.5 "/>
<text text-anchor="middle" x="2796" y="-83.8" font-family="Times,serif" font-size="14.00">N1</text>
<polyline fill="none" stroke="black" points="2815,-69.5 2815,-105.5 "/>
<text text-anchor="middle" x="2827.5" y="-83.8" font-family="Times,serif" font-size="14.00">a</text>
<polyline fill="none" stroke="black" points="2840,-69.5 2840,-105.5 "/>
<text text-anchor="middle" x="2891" y="-83.8" font-family="Times,serif" font-size="14.00">data 4.2404</text>
<polyline fill="none" stroke="black" points="2942,-69.5 2942,-105.5 "/>
<text text-anchor="middle" x="2994" y="-83.8" font-family="Times,serif" font-size="14.00">grad 0.0000</text>
</g>
<!-- 140260402429280&#45;&gt;140260402421072* -->
<g id="edge21" class="edge">
<title>140260402429280&#45;&gt;140260402421072*</title>
<path fill="none" stroke="black" d="M3046.14,-87.5C3055.34,-87.5 3063.94,-87.5 3071.63,-87.5"/>
<polygon fill="black" stroke="black" points="3071.86,-91 3081.86,-87.5 3071.86,-84 3071.86,-91"/>
</g>
<!-- 140260402429280+&#45;&gt;140260402429280 -->
<g id="edge7" class="edge">
<title>140260402429280+&#45;&gt;140260402429280</title>
<path fill="none" stroke="black" d="M2654.03,-87.5C2661.4,-87.5 2670.02,-87.5 2679.49,-87.5"/>
<polygon fill="black" stroke="black" points="2679.66,-91 2689.66,-87.5 2679.66,-84 2679.66,-91"/>
</g>
<!-- 140260402420592 -->
<g id="node19" class="node">
<title>140260402420592</title>
<polygon fill="none" stroke="black" points="518,-110.5 518,-146.5 844,-146.5 844,-110.5 518,-110.5"/>
<text text-anchor="middle" x="544" y="-124.8" font-family="Times,serif" font-size="14.00">v030</text>
<polyline fill="none" stroke="black" points="570,-110.5 570,-146.5 "/>
<text text-anchor="middle" x="580.5" y="-124.8" font-family="Times,serif" font-size="14.00"> </text>
<polyline fill="none" stroke="black" points="591,-110.5 591,-146.5 "/>
<text text-anchor="middle" x="601.5" y="-124.8" font-family="Times,serif" font-size="14.00"> </text>
<polyline fill="none" stroke="black" points="612,-110.5 612,-146.5 "/>
<text text-anchor="middle" x="622.5" y="-124.8" font-family="Times,serif" font-size="14.00"> </text>
<polyline fill="none" stroke="black" points="633,-110.5 633,-146.5 "/>
<text text-anchor="middle" x="686.5" y="-124.8" font-family="Times,serif" font-size="14.00">data &#45;2.8196</text>
<polyline fill="none" stroke="black" points="740,-110.5 740,-146.5 "/>
<text text-anchor="middle" x="792" y="-124.8" font-family="Times,serif" font-size="14.00">grad 0.0000</text>
</g>
<!-- 140260402420592&#45;&gt;140260402427504+ -->
<g id="edge20" class="edge">
<title>140260402420592&#45;&gt;140260402427504+</title>
<path fill="none" stroke="black" d="M821.35,-110.48C835.19,-107.6 848.94,-104.29 862,-100.5 872.68,-97.4 883.95,-92.9 893.9,-88.45"/>
<polygon fill="black" stroke="black" points="895.37,-91.63 902.98,-84.26 892.44,-85.28 895.37,-91.63"/>
</g>
<!-- 140260402420592* -->
<g id="node20" class="node">
<title>140260402420592*</title>
<ellipse fill="none" stroke="black" cx="437" cy="-128.5" rx="27" ry="18"/>
<text text-anchor="middle" x="437" y="-124.8" font-family="Times,serif" font-size="14.00">*</text>
</g>
<!-- 140260402420592*&#45;&gt;140260402420592 -->
<g id="edge8" class="edge">
<title>140260402420592*&#45;&gt;140260402420592</title>
<path fill="none" stroke="black" d="M464.36,-128.5C476.08,-128.5 490.94,-128.5 507.37,-128.5"/>
<polygon fill="black" stroke="black" points="507.79,-132 517.79,-128.5 507.79,-125 507.79,-132"/>
</g>
<!-- 140260402422656 -->
<g id="node21" class="node">
<title>140260402422656</title>
<polygon fill="none" stroke="black" points="0,-110.5 0,-146.5 374,-146.5 374,-110.5 0,-110.5"/>
<text text-anchor="middle" x="26" y="-124.8" font-family="Times,serif" font-size="14.00">v003</text>
<polyline fill="none" stroke="black" points="52,-110.5 52,-146.5 "/>
<text text-anchor="middle" x="69.5" y="-124.8" font-family="Times,serif" font-size="14.00">L1</text>
<polyline fill="none" stroke="black" points="87,-110.5 87,-146.5 "/>
<text text-anchor="middle" x="106" y="-124.8" font-family="Times,serif" font-size="14.00">N2</text>
<polyline fill="none" stroke="black" points="125,-110.5 125,-146.5 "/>
<text text-anchor="middle" x="144" y="-124.8" font-family="Times,serif" font-size="14.00">w1</text>
<polyline fill="none" stroke="black" points="163,-110.5 163,-146.5 "/>
<text text-anchor="middle" x="216.5" y="-124.8" font-family="Times,serif" font-size="14.00">data &#45;0.7049</text>
<polyline fill="none" stroke="black" points="270,-110.5 270,-146.5 "/>
<text text-anchor="middle" x="322" y="-124.8" font-family="Times,serif" font-size="14.00">grad 0.0000</text>
</g>
<!-- 140260402422656&#45;&gt;140260402420592* -->
<g id="edge16" class="edge">
<title>140260402422656&#45;&gt;140260402420592*</title>
<path fill="none" stroke="black" d="M374.06,-128.5C383.31,-128.5 391.94,-128.5 399.65,-128.5"/>
<polygon fill="black" stroke="black" points="399.9,-132 409.9,-128.5 399.9,-125 399.9,-132"/>
</g>
<!-- 140260402424720 -->
<g id="node22" class="node">
<title>140260402424720</title>
<polygon fill="none" stroke="black" points="1508.5,-148.5 1508.5,-184.5 1829.5,-184.5 1829.5,-148.5 1508.5,-148.5"/>
<text text-anchor="middle" x="1534.5" y="-162.8" font-family="Times,serif" font-size="14.00">v032</text>
<polyline fill="none" stroke="black" points="1560.5,-148.5 1560.5,-184.5 "/>
<text text-anchor="middle" x="1571" y="-162.8" font-family="Times,serif" font-size="14.00"> </text>
<polyline fill="none" stroke="black" points="1581.5,-148.5 1581.5,-184.5 "/>
<text text-anchor="middle" x="1592" y="-162.8" font-family="Times,serif" font-size="14.00"> </text>
<polyline fill="none" stroke="black" points="1602.5,-148.5 1602.5,-184.5 "/>
<text text-anchor="middle" x="1613" y="-162.8" font-family="Times,serif" font-size="14.00"> </text>
<polyline fill="none" stroke="black" points="1623.5,-148.5 1623.5,-184.5 "/>
<text text-anchor="middle" x="1674.5" y="-162.8" font-family="Times,serif" font-size="14.00">data 1.2822</text>
<polyline fill="none" stroke="black" points="1725.5,-148.5 1725.5,-184.5 "/>
<text text-anchor="middle" x="1777.5" y="-162.8" font-family="Times,serif" font-size="14.00">grad 0.0000</text>
</g>
<!-- 140260402424720&#45;&gt;140260402420448+ -->
<g id="edge17" class="edge">
<title>140260402424720&#45;&gt;140260402420448+</title>
<path fill="none" stroke="black" d="M1802.65,-148.48C1876.43,-138.46 1962.67,-126.75 2009.96,-120.33"/>
<polygon fill="black" stroke="black" points="2010.56,-123.78 2020,-118.96 2009.62,-116.84 2010.56,-123.78"/>
</g>
<!-- 140260402424720*&#45;&gt;140260402424720 -->
<g id="edge9" class="edge">
<title>140260402424720*&#45;&gt;140260402424720</title>
<path fill="none" stroke="black" d="M1452.36,-166.5C1464.7,-166.5 1480.53,-166.5 1498,-166.5"/>
<polygon fill="black" stroke="black" points="1498.46,-170 1508.46,-166.5 1498.46,-163 1498.46,-170"/>
</g>
<!-- 140260402422704 -->
<g id="node24" class="node">
<title>140260402422704</title>
<polygon fill="none" stroke="black" points="500,-55.5 500,-91.5 862,-91.5 862,-55.5 500,-55.5"/>
<text text-anchor="middle" x="526" y="-69.8" font-family="Times,serif" font-size="14.00">v004</text>
<polyline fill="none" stroke="black" points="552,-55.5 552,-91.5 "/>
<text text-anchor="middle" x="569.5" y="-69.8" font-family="Times,serif" font-size="14.00">L1</text>
<polyline fill="none" stroke="black" points="587,-55.5 587,-91.5 "/>
<text text-anchor="middle" x="606" y="-69.8" font-family="Times,serif" font-size="14.00">N2</text>
<polyline fill="none" stroke="black" points="625,-55.5 625,-91.5 "/>
<text text-anchor="middle" x="638" y="-69.8" font-family="Times,serif" font-size="14.00">b</text>
<polyline fill="none" stroke="black" points="651,-55.5 651,-91.5 "/>
<text text-anchor="middle" x="704.5" y="-69.8" font-family="Times,serif" font-size="14.00">data &#45;0.3012</text>
<polyline fill="none" stroke="black" points="758,-55.5 758,-91.5 "/>
<text text-anchor="middle" x="810" y="-69.8" font-family="Times,serif" font-size="14.00">grad 0.0000</text>
</g>
<!-- 140260402422704&#45;&gt;140260402427504+ -->
<g id="edge18" class="edge">
<title>140260402422704&#45;&gt;140260402427504+</title>
<path fill="none" stroke="black" d="M862.31,-73.5C871.5,-73.5 880.08,-73.5 887.76,-73.5"/>
<polygon fill="black" stroke="black" points="887.96,-77 897.96,-73.5 887.96,-70 887.96,-77"/>
</g>
<!-- 140260402419680 -->
<g id="node25" class="node">
<title>140260402419680</title>
<polygon fill="none" stroke="black" points="988,-135.5 988,-171.5 1362,-171.5 1362,-135.5 988,-135.5"/>
<text text-anchor="middle" x="1014" y="-149.8" font-family="Times,serif" font-size="14.00">v005</text>
<polyline fill="none" stroke="black" points="1040,-135.5 1040,-171.5 "/>
<text text-anchor="middle" x="1057.5" y="-149.8" font-family="Times,serif" font-size="14.00">L2</text>
<polyline fill="none" stroke="black" points="1075,-135.5 1075,-171.5 "/>
<text text-anchor="middle" x="1094" y="-149.8" font-family="Times,serif" font-size="14.00">N1</text>
<polyline fill="none" stroke="black" points="1113,-135.5 1113,-171.5 "/>
<text text-anchor="middle" x="1132" y="-149.8" font-family="Times,serif" font-size="14.00">w1</text>
<polyline fill="none" stroke="black" points="1151,-135.5 1151,-171.5 "/>
<text text-anchor="middle" x="1204.5" y="-149.8" font-family="Times,serif" font-size="14.00">data &#45;0.5755</text>
<polyline fill="none" stroke="black" points="1258,-135.5 1258,-171.5 "/>
<text text-anchor="middle" x="1310" y="-149.8" font-family="Times,serif" font-size="14.00">grad 0.0000</text>
</g>
<!-- 140260402419680&#45;&gt;140260402424720* -->
<g id="edge23" class="edge">
<title>140260402419680&#45;&gt;140260402424720*</title>
<path fill="none" stroke="black" d="M1362.06,-163.25C1371.31,-163.74 1379.94,-164.19 1387.65,-164.59"/>
<polygon fill="black" stroke="black" points="1387.73,-168.1 1397.9,-165.13 1388.09,-161.11 1387.73,-168.1"/>
</g>
<!-- 140260953974256 -->
<g id="node26" class="node">
<title>140260953974256</title>
<polygon fill="none" stroke="black" points="22,-165.5 22,-201.5 352,-201.5 352,-165.5 22,-165.5"/>
<text text-anchor="middle" x="48" y="-179.8" font-family="Times,serif" font-size="14.00">v008</text>
<polyline fill="none" stroke="black" points="74,-165.5 74,-201.5 "/>
<text text-anchor="middle" x="84.5" y="-179.8" font-family="Times,serif" font-size="14.00"> </text>
<polyline fill="none" stroke="black" points="95,-165.5 95,-201.5 "/>
<text text-anchor="middle" x="105.5" y="-179.8" font-family="Times,serif" font-size="14.00"> </text>
<polyline fill="none" stroke="black" points="116,-165.5 116,-201.5 "/>
<text text-anchor="middle" x="131" y="-179.8" font-family="Times,serif" font-size="14.00">i1</text>
<polyline fill="none" stroke="black" points="146,-165.5 146,-201.5 "/>
<text text-anchor="middle" x="197" y="-179.8" font-family="Times,serif" font-size="14.00">data 4.0000</text>
<polyline fill="none" stroke="black" points="248,-165.5 248,-201.5 "/>
<text text-anchor="middle" x="300" y="-179.8" font-family="Times,serif" font-size="14.00">grad 0.0000</text>
</g>
<!-- 140260953974256&#45;&gt;140260402420496* -->
<g id="edge12" class="edge">
<title>140260953974256&#45;&gt;140260402420496*</title>
<path fill="none" stroke="black" d="M332.99,-201.54C346.96,-204.41 360.82,-207.71 374,-211.5 384.69,-214.57 395.96,-219.07 405.91,-223.51"/>
<polygon fill="black" stroke="black" points="404.44,-226.69 414.99,-227.71 407.38,-220.34 404.44,-226.69"/>
</g>
<!-- 140260953974256&#45;&gt;140260402420592* -->
<g id="edge22" class="edge">
<title>140260953974256&#45;&gt;140260402420592*</title>
<path fill="none" stroke="black" d="M338.02,-165.46C350.29,-162.86 362.41,-159.88 374,-156.5 384.83,-153.34 396.2,-148.64 406.21,-143.99"/>
<polygon fill="black" stroke="black" points="407.83,-147.09 415.32,-139.6 404.8,-140.79 407.83,-147.09"/>
</g>
</g>
</svg>
