<?xml version="1.0" encoding="UTF-8" standalone="no"?>
<!DOCTYPE svg PUBLIC "-//W3C//DTD SVG 1.1//EN"
 "http://www.w3.org/Graphics/SVG/1.1/DTD/svg11.dtd">
<!-- Generated by graphviz version 2.43.0 (0)
 -->
<!-- Title: %3 Pages: 1 -->
<svg width="3558pt" height="238pt"
 viewBox="0.00 0.00 3558.00 238.00" xmlns="http://www.w3.org/2000/svg" xmlns:xlink="http://www.w3.org/1999/xlink">
<g id="graph0" class="graph" transform="scale(1 1) rotate(0) translate(4 234)">
<title>%3</title>
<polygon fill="white" stroke="transparent" points="-4,4 -4,-234 3554,-234 3554,4 -4,4"/>
<!-- 140260402425872 -->
<g id="node1" class="node">
<title>140260402425872</title>
<polygon fill="none" stroke="black" points="531,-69.5 531,-105.5 861,-105.5 861,-69.5 531,-69.5"/>
<text text-anchor="middle" x="557" y="-83.8" font-family="Times,serif" font-size="14.00">v021</text>
<polyline fill="none" stroke="black" points="583,-69.5 583,-105.5 "/>
<text text-anchor="middle" x="593.5" y="-83.8" font-family="Times,serif" font-size="14.00"> </text>
<polyline fill="none" stroke="black" points="604,-69.5 604,-105.5 "/>
<text text-anchor="middle" x="614.5" y="-83.8" font-family="Times,serif" font-size="14.00"> </text>
<polyline fill="none" stroke="black" points="625,-69.5 625,-105.5 "/>
<text text-anchor="middle" x="635.5" y="-83.8" font-family="Times,serif" font-size="14.00"> </text>
<polyline fill="none" stroke="black" points="646,-69.5 646,-105.5 "/>
<text text-anchor="middle" x="699.5" y="-83.8" font-family="Times,serif" font-size="14.00">data &#45;4.9120</text>
<polyline fill="none" stroke="black" points="753,-69.5 753,-105.5 "/>
<text text-anchor="middle" x="807" y="-83.8" font-family="Times,serif" font-size="14.00">grad &#45;2.6155</text>
</g>
<!-- 140260402421936+ -->
<g id="node12" class="node">
<title>140260402421936+</title>
<ellipse fill="none" stroke="black" cx="942" cy="-73.5" rx="27" ry="18"/>
<text text-anchor="middle" x="942" y="-69.8" font-family="Times,serif" font-size="14.00">+</text>
</g>
<!-- 140260402425872&#45;&gt;140260402421936+ -->
<g id="edge12" class="edge">
<title>140260402425872&#45;&gt;140260402421936+</title>
<path fill="none" stroke="black" d="M861.11,-78.08C877.11,-77.17 892.01,-76.31 904.5,-75.59"/>
<polygon fill="black" stroke="black" points="905.05,-79.07 914.83,-75 904.65,-72.08 905.05,-79.07"/>
</g>
<!-- 140260402425872* -->
<g id="node2" class="node">
<title>140260402425872*</title>
<ellipse fill="none" stroke="black" cx="450" cy="-87.5" rx="27" ry="18"/>
<text text-anchor="middle" x="450" y="-83.8" font-family="Times,serif" font-size="14.00">*</text>
</g>
<!-- 140260402425872*&#45;&gt;140260402425872 -->
<g id="edge1" class="edge">
<title>140260402425872*&#45;&gt;140260402425872</title>
<path fill="none" stroke="black" d="M477.11,-87.5C488.98,-87.5 504.12,-87.5 520.88,-87.5"/>
<polygon fill="black" stroke="black" points="520.92,-91 530.92,-87.5 520.92,-84 520.92,-91"/>
</g>
<!-- 140260402428464 -->
<g id="node3" class="node">
<title>140260402428464</title>
<polygon fill="none" stroke="black" points="1534.5,-135.5 1534.5,-171.5 1859.5,-171.5 1859.5,-135.5 1534.5,-135.5"/>
<text text-anchor="middle" x="1560.5" y="-149.8" font-family="Times,serif" font-size="14.00">v023</text>
<polyline fill="none" stroke="black" points="1586.5,-135.5 1586.5,-171.5 "/>
<text text-anchor="middle" x="1597" y="-149.8" font-family="Times,serif" font-size="14.00"> </text>
<polyline fill="none" stroke="black" points="1607.5,-135.5 1607.5,-171.5 "/>
<text text-anchor="middle" x="1618" y="-149.8" font-family="Times,serif" font-size="14.00"> </text>
<polyline fill="none" stroke="black" points="1628.5,-135.5 1628.5,-171.5 "/>
<text text-anchor="middle" x="1639" y="-149.8" font-family="Times,serif" font-size="14.00"> </text>
<polyline fill="none" stroke="black" points="1649.5,-135.5 1649.5,-171.5 "/>
<text text-anchor="middle" x="1700.5" y="-149.8" font-family="Times,serif" font-size="14.00">data 0.2006</text>
<polyline fill="none" stroke="black" points="1751.5,-135.5 1751.5,-171.5 "/>
<text text-anchor="middle" x="1805.5" y="-149.8" font-family="Times,serif" font-size="14.00">grad &#45;5.4490</text>
</g>
<!-- 140260402423568+ -->
<g id="node15" class="node">
<title>140260402423568+</title>
<ellipse fill="none" stroke="black" cx="2081" cy="-102.5" rx="27" ry="18"/>
<text text-anchor="middle" x="2081" y="-98.8" font-family="Times,serif" font-size="14.00">+</text>
</g>
<!-- 140260402428464&#45;&gt;140260402423568+ -->
<g id="edge11" class="edge">
<title>140260402428464&#45;&gt;140260402423568+</title>
<path fill="none" stroke="black" d="M1832.95,-135.48C1908.2,-125.44 1996.2,-113.69 2044.23,-107.28"/>
<polygon fill="black" stroke="black" points="2044.96,-110.71 2054.41,-105.92 2044.04,-103.77 2044.96,-110.71"/>
</g>
<!-- 140260402428464* -->
<g id="node4" class="node">
<title>140260402428464*</title>
<ellipse fill="none" stroke="black" cx="1451" cy="-153.5" rx="27" ry="18"/>
<text text-anchor="middle" x="1451" y="-149.8" font-family="Times,serif" font-size="14.00">*</text>
</g>
<!-- 140260402428464*&#45;&gt;140260402428464 -->
<g id="edge2" class="edge">
<title>140260402428464*&#45;&gt;140260402428464</title>
<path fill="none" stroke="black" d="M1478.11,-153.5C1490.56,-153.5 1506.61,-153.5 1524.34,-153.5"/>
<polygon fill="black" stroke="black" points="1524.35,-157 1534.35,-153.5 1524.35,-150 1524.35,-157"/>
</g>
<!-- 140260402427984 -->
<g id="node5" class="node">
<title>140260402427984</title>
<polygon fill="none" stroke="black" points="1916,-29.5 1916,-65.5 2246,-65.5 2246,-29.5 1916,-29.5"/>
<text text-anchor="middle" x="1942" y="-43.8" font-family="Times,serif" font-size="14.00">v025</text>
<polyline fill="none" stroke="black" points="1968,-29.5 1968,-65.5 "/>
<text text-anchor="middle" x="1978.5" y="-43.8" font-family="Times,serif" font-size="14.00"> </text>
<polyline fill="none" stroke="black" points="1989,-29.5 1989,-65.5 "/>
<text text-anchor="middle" x="1999.5" y="-43.8" font-family="Times,serif" font-size="14.00"> </text>
<polyline fill="none" stroke="black" points="2010,-29.5 2010,-65.5 "/>
<text text-anchor="middle" x="2020.5" y="-43.8" font-family="Times,serif" font-size="14.00"> </text>
<polyline fill="none" stroke="black" points="2031,-29.5 2031,-65.5 "/>
<text text-anchor="middle" x="2084.5" y="-43.8" font-family="Times,serif" font-size="14.00">data &#45;2.5651</text>
<polyline fill="none" stroke="black" points="2138,-29.5 2138,-65.5 "/>
<text text-anchor="middle" x="2192" y="-43.8" font-family="Times,serif" font-size="14.00">grad &#45;5.4490</text>
</g>
<!-- 140260402428320+ -->
<g id="node21" class="node">
<title>140260402428320+</title>
<ellipse fill="none" stroke="black" cx="2675" cy="-74.5" rx="27" ry="18"/>
<text text-anchor="middle" x="2675" y="-70.8" font-family="Times,serif" font-size="14.00">+</text>
</g>
<!-- 140260402427984&#45;&gt;140260402428320+ -->
<g id="edge25" class="edge">
<title>140260402427984&#45;&gt;140260402428320+</title>
<path fill="none" stroke="black" d="M2246.12,-54.99C2381.09,-61.14 2562.06,-69.39 2638.04,-72.86"/>
<polygon fill="black" stroke="black" points="2637.9,-76.36 2648.05,-73.32 2638.22,-69.36 2637.9,-76.36"/>
</g>
<!-- 140260402427984* -->
<g id="node6" class="node">
<title>140260402427984*</title>
<ellipse fill="none" stroke="black" cx="1451" cy="-47.5" rx="27" ry="18"/>
<text text-anchor="middle" x="1451" y="-43.8" font-family="Times,serif" font-size="14.00">*</text>
</g>
<!-- 140260402427984*&#45;&gt;140260402427984 -->
<g id="edge3" class="edge">
<title>140260402427984*&#45;&gt;140260402427984</title>
<path fill="none" stroke="black" d="M1478.18,-47.5C1550.01,-47.5 1754.78,-47.5 1905.6,-47.5"/>
<polygon fill="black" stroke="black" points="1905.91,-51 1915.91,-47.5 1905.91,-44 1905.91,-51"/>
</g>
<!-- 140260402419344 -->
<g id="node7" class="node">
<title>140260402419344</title>
<polygon fill="none" stroke="black" points="1005,-0.5 1005,-36.5 1388,-36.5 1388,-0.5 1005,-0.5"/>
<text text-anchor="middle" x="1031" y="-14.8" font-family="Times,serif" font-size="14.00">v006</text>
<polyline fill="none" stroke="black" points="1057,-0.5 1057,-36.5 "/>
<text text-anchor="middle" x="1074.5" y="-14.8" font-family="Times,serif" font-size="14.00">L2</text>
<polyline fill="none" stroke="black" points="1092,-0.5 1092,-36.5 "/>
<text text-anchor="middle" x="1111" y="-14.8" font-family="Times,serif" font-size="14.00">N1</text>
<polyline fill="none" stroke="black" points="1130,-0.5 1130,-36.5 "/>
<text text-anchor="middle" x="1149" y="-14.8" font-family="Times,serif" font-size="14.00">w2</text>
<polyline fill="none" stroke="black" points="1168,-0.5 1168,-36.5 "/>
<text text-anchor="middle" x="1221.5" y="-14.8" font-family="Times,serif" font-size="14.00">data &#45;0.9760</text>
<polyline fill="none" stroke="black" points="1275,-0.5 1275,-36.5 "/>
<text text-anchor="middle" x="1331.5" y="-14.8" font-family="Times,serif" font-size="14.00">grad 29.1192</text>
</g>
<!-- 140260402419344&#45;&gt;140260402427984* -->
<g id="edge22" class="edge">
<title>140260402419344&#45;&gt;140260402427984*</title>
<path fill="none" stroke="black" d="M1354.54,-36.54C1376.75,-39.09 1397.61,-41.48 1414.13,-43.38"/>
<polygon fill="black" stroke="black" points="1414,-46.89 1424.33,-44.55 1414.79,-39.93 1414,-46.89"/>
</g>
<!-- 140260402422656 -->
<g id="node8" class="node">
<title>140260402422656</title>
<polygon fill="none" stroke="black" points="0,-69.5 0,-105.5 387,-105.5 387,-69.5 0,-69.5"/>
<text text-anchor="middle" x="26" y="-83.8" font-family="Times,serif" font-size="14.00">v003</text>
<polyline fill="none" stroke="black" points="52,-69.5 52,-105.5 "/>
<text text-anchor="middle" x="69.5" y="-83.8" font-family="Times,serif" font-size="14.00">L1</text>
<polyline fill="none" stroke="black" points="87,-69.5 87,-105.5 "/>
<text text-anchor="middle" x="106" y="-83.8" font-family="Times,serif" font-size="14.00">N2</text>
<polyline fill="none" stroke="black" points="125,-69.5 125,-105.5 "/>
<text text-anchor="middle" x="144" y="-83.8" font-family="Times,serif" font-size="14.00">w1</text>
<polyline fill="none" stroke="black" points="163,-69.5 163,-105.5 "/>
<text text-anchor="middle" x="216.5" y="-83.8" font-family="Times,serif" font-size="14.00">data &#45;0.7049</text>
<polyline fill="none" stroke="black" points="270,-69.5 270,-105.5 "/>
<text text-anchor="middle" x="328.5" y="-83.8" font-family="Times,serif" font-size="14.00">grad &#45;10.4620</text>
</g>
<!-- 140260402422656&#45;&gt;140260402425872* -->
<g id="edge21" class="edge">
<title>140260402422656&#45;&gt;140260402425872*</title>
<path fill="none" stroke="black" d="M387.07,-87.5C396.35,-87.5 404.99,-87.5 412.7,-87.5"/>
<polygon fill="black" stroke="black" points="412.95,-91 422.95,-87.5 412.95,-84 412.95,-91"/>
</g>
<!-- 140260402426544 -->
<g id="node9" class="node">
<title>140260402426544</title>
<polygon fill="none" stroke="black" points="3229,-56.5 3229,-92.5 3550,-92.5 3550,-56.5 3229,-56.5"/>
<text text-anchor="middle" x="3255" y="-70.8" font-family="Times,serif" font-size="14.00">v027</text>
<polyline fill="none" stroke="black" points="3281,-56.5 3281,-92.5 "/>
<text text-anchor="middle" x="3291.5" y="-70.8" font-family="Times,serif" font-size="14.00"> </text>
<polyline fill="none" stroke="black" points="3302,-56.5 3302,-92.5 "/>
<text text-anchor="middle" x="3312.5" y="-70.8" font-family="Times,serif" font-size="14.00"> </text>
<polyline fill="none" stroke="black" points="3323,-56.5 3323,-92.5 "/>
<text text-anchor="middle" x="3333.5" y="-70.8" font-family="Times,serif" font-size="14.00">l</text>
<polyline fill="none" stroke="black" points="3344,-56.5 3344,-92.5 "/>
<text text-anchor="middle" x="3395" y="-70.8" font-family="Times,serif" font-size="14.00">data 7.4228</text>
<polyline fill="none" stroke="black" points="3446,-56.5 3446,-92.5 "/>
<text text-anchor="middle" x="3498" y="-70.8" font-family="Times,serif" font-size="14.00">grad 1.0000</text>
</g>
<!-- 140260402426544* -->
<g id="node10" class="node">
<title>140260402426544*</title>
<ellipse fill="none" stroke="black" cx="3166" cy="-74.5" rx="27" ry="18"/>
<text text-anchor="middle" x="3166" y="-70.8" font-family="Times,serif" font-size="14.00">*</text>
</g>
<!-- 140260402426544*&#45;&gt;140260402426544 -->
<g id="edge4" class="edge">
<title>140260402426544*&#45;&gt;140260402426544</title>
<path fill="none" stroke="black" d="M3193.28,-74.5C3200.68,-74.5 3209.32,-74.5 3218.76,-74.5"/>
<polygon fill="black" stroke="black" points="3218.88,-78 3228.88,-74.5 3218.88,-71 3218.88,-78"/>
</g>
<!-- 140260402421936 -->
<g id="node11" class="node">
<title>140260402421936</title>
<polygon fill="none" stroke="black" points="1014,-55.5 1014,-91.5 1379,-91.5 1379,-55.5 1014,-55.5"/>
<text text-anchor="middle" x="1040" y="-69.8" font-family="Times,serif" font-size="14.00">v022</text>
<polyline fill="none" stroke="black" points="1066,-55.5 1066,-91.5 "/>
<text text-anchor="middle" x="1083.5" y="-69.8" font-family="Times,serif" font-size="14.00">L1</text>
<polyline fill="none" stroke="black" points="1101,-55.5 1101,-91.5 "/>
<text text-anchor="middle" x="1120" y="-69.8" font-family="Times,serif" font-size="14.00">N2</text>
<polyline fill="none" stroke="black" points="1139,-55.5 1139,-91.5 "/>
<text text-anchor="middle" x="1151.5" y="-69.8" font-family="Times,serif" font-size="14.00">a</text>
<polyline fill="none" stroke="black" points="1164,-55.5 1164,-91.5 "/>
<text text-anchor="middle" x="1217.5" y="-69.8" font-family="Times,serif" font-size="14.00">data &#45;5.3440</text>
<polyline fill="none" stroke="black" points="1271,-55.5 1271,-91.5 "/>
<text text-anchor="middle" x="1325" y="-69.8" font-family="Times,serif" font-size="14.00">grad &#45;2.6155</text>
</g>
<!-- 140260402421936&#45;&gt;140260402427984* -->
<g id="edge20" class="edge">
<title>140260402421936&#45;&gt;140260402427984*</title>
<path fill="none" stroke="black" d="M1372.53,-55.48C1387.79,-53.91 1401.93,-52.45 1413.84,-51.22"/>
<polygon fill="black" stroke="black" points="1414.52,-54.67 1424.11,-50.17 1413.81,-47.71 1414.52,-54.67"/>
</g>
<!-- 140260402421936+&#45;&gt;140260402421936 -->
<g id="edge5" class="edge">
<title>140260402421936+&#45;&gt;140260402421936</title>
<path fill="none" stroke="black" d="M969.07,-73.5C978.71,-73.5 990.52,-73.5 1003.65,-73.5"/>
<polygon fill="black" stroke="black" points="1003.92,-77 1013.92,-73.5 1003.92,-70 1003.92,-77"/>
</g>
<!-- 140260402422512 -->
<g id="node13" class="node">
<title>140260402422512</title>
<polygon fill="none" stroke="black" points="515,-193.5 515,-229.5 877,-229.5 877,-193.5 515,-193.5"/>
<text text-anchor="middle" x="541" y="-207.8" font-family="Times,serif" font-size="14.00">v002</text>
<polyline fill="none" stroke="black" points="567,-193.5 567,-229.5 "/>
<text text-anchor="middle" x="584.5" y="-207.8" font-family="Times,serif" font-size="14.00">L1</text>
<polyline fill="none" stroke="black" points="602,-193.5 602,-229.5 "/>
<text text-anchor="middle" x="621" y="-207.8" font-family="Times,serif" font-size="14.00">N1</text>
<polyline fill="none" stroke="black" points="640,-193.5 640,-229.5 "/>
<text text-anchor="middle" x="653" y="-207.8" font-family="Times,serif" font-size="14.00">b</text>
<polyline fill="none" stroke="black" points="666,-193.5 666,-229.5 "/>
<text text-anchor="middle" x="719.5" y="-207.8" font-family="Times,serif" font-size="14.00">data &#45;0.2487</text>
<polyline fill="none" stroke="black" points="773,-193.5 773,-229.5 "/>
<text text-anchor="middle" x="825" y="-207.8" font-family="Times,serif" font-size="14.00">grad 0.6539</text>
</g>
<!-- 140260402426640+ -->
<g id="node17" class="node">
<title>140260402426640+</title>
<ellipse fill="none" stroke="black" cx="942" cy="-183.5" rx="27" ry="18"/>
<text text-anchor="middle" x="942" y="-179.8" font-family="Times,serif" font-size="14.00">+</text>
</g>
<!-- 140260402422512&#45;&gt;140260402426640+ -->
<g id="edge17" class="edge">
<title>140260402422512&#45;&gt;140260402426640+</title>
<path fill="none" stroke="black" d="M853.94,-193.49C872.82,-191.32 890.47,-189.3 904.88,-187.64"/>
<polygon fill="black" stroke="black" points="905.7,-191.07 915.23,-186.46 904.9,-184.12 905.7,-191.07"/>
</g>
<!-- 140260402423568 -->
<g id="node14" class="node">
<title>140260402423568</title>
<polygon fill="none" stroke="black" points="2282,-82.5 2282,-118.5 2612,-118.5 2612,-82.5 2282,-82.5"/>
<text text-anchor="middle" x="2308" y="-96.8" font-family="Times,serif" font-size="14.00">v024</text>
<polyline fill="none" stroke="black" points="2334,-82.5 2334,-118.5 "/>
<text text-anchor="middle" x="2344.5" y="-96.8" font-family="Times,serif" font-size="14.00"> </text>
<polyline fill="none" stroke="black" points="2355,-82.5 2355,-118.5 "/>
<text text-anchor="middle" x="2365.5" y="-96.8" font-family="Times,serif" font-size="14.00"> </text>
<polyline fill="none" stroke="black" points="2376,-82.5 2376,-118.5 "/>
<text text-anchor="middle" x="2386.5" y="-96.8" font-family="Times,serif" font-size="14.00"> </text>
<polyline fill="none" stroke="black" points="2397,-82.5 2397,-118.5 "/>
<text text-anchor="middle" x="2450.5" y="-96.8" font-family="Times,serif" font-size="14.00">data &#45;0.1594</text>
<polyline fill="none" stroke="black" points="2504,-82.5 2504,-118.5 "/>
<text text-anchor="middle" x="2558" y="-96.8" font-family="Times,serif" font-size="14.00">grad &#45;5.4490</text>
</g>
<!-- 140260402423568&#45;&gt;140260402428320+ -->
<g id="edge10" class="edge">
<title>140260402423568&#45;&gt;140260402428320+</title>
<path fill="none" stroke="black" d="M2604.66,-82.48C2616.87,-81.07 2628.28,-79.76 2638.18,-78.62"/>
<polygon fill="black" stroke="black" points="2638.76,-82.08 2648.29,-77.46 2637.96,-75.12 2638.76,-82.08"/>
</g>
<!-- 140260402423568+&#45;&gt;140260402423568 -->
<g id="edge6" class="edge">
<title>140260402423568+&#45;&gt;140260402423568</title>
<path fill="none" stroke="black" d="M2108.18,-102.36C2143.07,-102.16 2207.83,-101.81 2271.39,-101.46"/>
<polygon fill="black" stroke="black" points="2271.59,-104.96 2281.58,-101.4 2271.56,-97.96 2271.59,-104.96"/>
</g>
<!-- 140260402426640 -->
<g id="node16" class="node">
<title>140260402426640</title>
<polygon fill="none" stroke="black" points="1016,-165.5 1016,-201.5 1377,-201.5 1377,-165.5 1016,-165.5"/>
<text text-anchor="middle" x="1042" y="-179.8" font-family="Times,serif" font-size="14.00">v020</text>
<polyline fill="none" stroke="black" points="1068,-165.5 1068,-201.5 "/>
<text text-anchor="middle" x="1085.5" y="-179.8" font-family="Times,serif" font-size="14.00">L1</text>
<polyline fill="none" stroke="black" points="1103,-165.5 1103,-201.5 "/>
<text text-anchor="middle" x="1122" y="-179.8" font-family="Times,serif" font-size="14.00">N1</text>
<polyline fill="none" stroke="black" points="1141,-165.5 1141,-201.5 "/>
<text text-anchor="middle" x="1153.5" y="-179.8" font-family="Times,serif" font-size="14.00">a</text>
<polyline fill="none" stroke="black" points="1166,-165.5 1166,-201.5 "/>
<text text-anchor="middle" x="1219.5" y="-179.8" font-family="Times,serif" font-size="14.00">data &#45;1.6720</text>
<polyline fill="none" stroke="black" points="1273,-165.5 1273,-201.5 "/>
<text text-anchor="middle" x="1325" y="-179.8" font-family="Times,serif" font-size="14.00">grad 0.6539</text>
</g>
<!-- 140260402426640&#45;&gt;140260402428464* -->
<g id="edge24" class="edge">
<title>140260402426640&#45;&gt;140260402428464*</title>
<path fill="none" stroke="black" d="M1349.12,-165.49C1373.34,-162.61 1396.27,-159.88 1414.13,-157.76"/>
<polygon fill="black" stroke="black" points="1414.77,-161.21 1424.29,-156.55 1413.95,-154.26 1414.77,-161.21"/>
</g>
<!-- 140260402426640+&#45;&gt;140260402426640 -->
<g id="edge7" class="edge">
<title>140260402426640+&#45;&gt;140260402426640</title>
<path fill="none" stroke="black" d="M969.07,-183.5C979.16,-183.5 991.63,-183.5 1005.49,-183.5"/>
<polygon fill="black" stroke="black" points="1005.82,-187 1015.82,-183.5 1005.82,-180 1005.82,-187"/>
</g>
<!-- 140260402419584 -->
<g id="node18" class="node">
<title>140260402419584</title>
<polygon fill="none" stroke="black" points="6.5,-179.5 6.5,-215.5 380.5,-215.5 380.5,-179.5 6.5,-179.5"/>
<text text-anchor="middle" x="32.5" y="-193.8" font-family="Times,serif" font-size="14.00">v001</text>
<polyline fill="none" stroke="black" points="58.5,-179.5 58.5,-215.5 "/>
<text text-anchor="middle" x="76" y="-193.8" font-family="Times,serif" font-size="14.00">L1</text>
<polyline fill="none" stroke="black" points="93.5,-179.5 93.5,-215.5 "/>
<text text-anchor="middle" x="112.5" y="-193.8" font-family="Times,serif" font-size="14.00">N1</text>
<polyline fill="none" stroke="black" points="131.5,-179.5 131.5,-215.5 "/>
<text text-anchor="middle" x="150.5" y="-193.8" font-family="Times,serif" font-size="14.00">w1</text>
<polyline fill="none" stroke="black" points="169.5,-179.5 169.5,-215.5 "/>
<text text-anchor="middle" x="223" y="-193.8" font-family="Times,serif" font-size="14.00">data &#45;0.4948</text>
<polyline fill="none" stroke="black" points="276.5,-179.5 276.5,-215.5 "/>
<text text-anchor="middle" x="328.5" y="-193.8" font-family="Times,serif" font-size="14.00">grad 2.6155</text>
</g>
<!-- 140260402426832* -->
<g id="node24" class="node">
<title>140260402426832*</title>
<ellipse fill="none" stroke="black" cx="450" cy="-156.5" rx="27" ry="18"/>
<text text-anchor="middle" x="450" y="-152.8" font-family="Times,serif" font-size="14.00">*</text>
</g>
<!-- 140260402419584&#45;&gt;140260402426832* -->
<g id="edge26" class="edge">
<title>140260402419584&#45;&gt;140260402426832*</title>
<path fill="none" stroke="black" d="M332.99,-179.48C351.19,-176.7 369.57,-173.68 387,-170.5 395.89,-168.87 405.45,-166.86 414.32,-164.86"/>
<polygon fill="black" stroke="black" points="415.39,-168.21 424.36,-162.56 413.83,-161.38 415.39,-168.21"/>
</g>
<!-- 140260402422704 -->
<g id="node19" class="node">
<title>140260402422704</title>
<polygon fill="none" stroke="black" points="513,-14.5 513,-50.5 879,-50.5 879,-14.5 513,-14.5"/>
<text text-anchor="middle" x="539" y="-28.8" font-family="Times,serif" font-size="14.00">v004</text>
<polyline fill="none" stroke="black" points="565,-14.5 565,-50.5 "/>
<text text-anchor="middle" x="582.5" y="-28.8" font-family="Times,serif" font-size="14.00">L1</text>
<polyline fill="none" stroke="black" points="600,-14.5 600,-50.5 "/>
<text text-anchor="middle" x="619" y="-28.8" font-family="Times,serif" font-size="14.00">N2</text>
<polyline fill="none" stroke="black" points="638,-14.5 638,-50.5 "/>
<text text-anchor="middle" x="651" y="-28.8" font-family="Times,serif" font-size="14.00">b</text>
<polyline fill="none" stroke="black" points="664,-14.5 664,-50.5 "/>
<text text-anchor="middle" x="717.5" y="-28.8" font-family="Times,serif" font-size="14.00">data &#45;0.3012</text>
<polyline fill="none" stroke="black" points="771,-14.5 771,-50.5 "/>
<text text-anchor="middle" x="825" y="-28.8" font-family="Times,serif" font-size="14.00">grad &#45;2.6155</text>
</g>
<!-- 140260402422704&#45;&gt;140260402421936+ -->
<g id="edge23" class="edge">
<title>140260402422704&#45;&gt;140260402421936+</title>
<path fill="none" stroke="black" d="M820.02,-50.5C839.77,-53.66 859.97,-57.04 879,-60.5 887.79,-62.1 897.24,-63.99 906.05,-65.83"/>
<polygon fill="black" stroke="black" points="905.51,-69.29 916.02,-67.94 906.97,-62.44 905.51,-69.29"/>
</g>
<!-- 140260402428320 -->
<g id="node20" class="node">
<title>140260402428320</title>
<polygon fill="none" stroke="black" points="2738,-56.5 2738,-92.5 3103,-92.5 3103,-56.5 2738,-56.5"/>
<text text-anchor="middle" x="2764" y="-70.8" font-family="Times,serif" font-size="14.00">v026</text>
<polyline fill="none" stroke="black" points="2790,-56.5 2790,-92.5 "/>
<text text-anchor="middle" x="2807.5" y="-70.8" font-family="Times,serif" font-size="14.00">L2</text>
<polyline fill="none" stroke="black" points="2825,-56.5 2825,-92.5 "/>
<text text-anchor="middle" x="2844" y="-70.8" font-family="Times,serif" font-size="14.00">N1</text>
<polyline fill="none" stroke="black" points="2863,-56.5 2863,-92.5 "/>
<text text-anchor="middle" x="2875.5" y="-70.8" font-family="Times,serif" font-size="14.00">a</text>
<polyline fill="none" stroke="black" points="2888,-56.5 2888,-92.5 "/>
<text text-anchor="middle" x="2941.5" y="-70.8" font-family="Times,serif" font-size="14.00">data &#45;2.7245</text>
<polyline fill="none" stroke="black" points="2995,-56.5 2995,-92.5 "/>
<text text-anchor="middle" x="3049" y="-70.8" font-family="Times,serif" font-size="14.00">grad &#45;5.4490</text>
</g>
<!-- 140260402428320&#45;&gt;140260402426544* -->
<g id="edge14" class="edge">
<title>140260402428320&#45;&gt;140260402426544*</title>
<path fill="none" stroke="black" d="M3103.24,-74.5C3112.45,-74.5 3121.04,-74.5 3128.73,-74.5"/>
<polygon fill="black" stroke="black" points="3128.94,-78 3138.94,-74.5 3128.94,-71 3128.94,-78"/>
</g>
<!-- 140260402428320+&#45;&gt;140260402428320 -->
<g id="edge8" class="edge">
<title>140260402428320+&#45;&gt;140260402428320</title>
<path fill="none" stroke="black" d="M2702.06,-74.5C2709.43,-74.5 2718.08,-74.5 2727.58,-74.5"/>
<polygon fill="black" stroke="black" points="2727.79,-78 2737.79,-74.5 2727.79,-71 2727.79,-78"/>
</g>
<!-- 140260402419632 -->
<g id="node22" class="node">
<title>140260402419632</title>
<polygon fill="none" stroke="black" points="1514,-80.5 1514,-116.5 1880,-116.5 1880,-80.5 1514,-80.5"/>
<text text-anchor="middle" x="1540" y="-94.8" font-family="Times,serif" font-size="14.00">v007</text>
<polyline fill="none" stroke="black" points="1566,-80.5 1566,-116.5 "/>
<text text-anchor="middle" x="1583.5" y="-94.8" font-family="Times,serif" font-size="14.00">L2</text>
<polyline fill="none" stroke="black" points="1601,-80.5 1601,-116.5 "/>
<text text-anchor="middle" x="1620" y="-94.8" font-family="Times,serif" font-size="14.00">N1</text>
<polyline fill="none" stroke="black" points="1639,-80.5 1639,-116.5 "/>
<text text-anchor="middle" x="1652" y="-94.8" font-family="Times,serif" font-size="14.00">b</text>
<polyline fill="none" stroke="black" points="1665,-80.5 1665,-116.5 "/>
<text text-anchor="middle" x="1718.5" y="-94.8" font-family="Times,serif" font-size="14.00">data &#45;0.0876</text>
<polyline fill="none" stroke="black" points="1772,-80.5 1772,-116.5 "/>
<text text-anchor="middle" x="1826" y="-94.8" font-family="Times,serif" font-size="14.00">grad &#45;5.4490</text>
</g>
<!-- 140260402419632&#45;&gt;140260402423568+ -->
<g id="edge13" class="edge">
<title>140260402419632&#45;&gt;140260402423568+</title>
<path fill="none" stroke="black" d="M1880.05,-100.41C1942.05,-101.06 2005.32,-101.72 2043.63,-102.12"/>
<polygon fill="black" stroke="black" points="2043.72,-105.62 2053.75,-102.23 2043.79,-98.62 2043.72,-105.62"/>
</g>
<!-- 140260402426832 -->
<g id="node23" class="node">
<title>140260402426832</title>
<polygon fill="none" stroke="black" points="533,-138.5 533,-174.5 859,-174.5 859,-138.5 533,-138.5"/>
<text text-anchor="middle" x="559" y="-152.8" font-family="Times,serif" font-size="14.00">v019</text>
<polyline fill="none" stroke="black" points="585,-138.5 585,-174.5 "/>
<text text-anchor="middle" x="595.5" y="-152.8" font-family="Times,serif" font-size="14.00"> </text>
<polyline fill="none" stroke="black" points="606,-138.5 606,-174.5 "/>
<text text-anchor="middle" x="616.5" y="-152.8" font-family="Times,serif" font-size="14.00"> </text>
<polyline fill="none" stroke="black" points="627,-138.5 627,-174.5 "/>
<text text-anchor="middle" x="637.5" y="-152.8" font-family="Times,serif" font-size="14.00"> </text>
<polyline fill="none" stroke="black" points="648,-138.5 648,-174.5 "/>
<text text-anchor="middle" x="701.5" y="-152.8" font-family="Times,serif" font-size="14.00">data &#45;1.4560</text>
<polyline fill="none" stroke="black" points="755,-138.5 755,-174.5 "/>
<text text-anchor="middle" x="807" y="-152.8" font-family="Times,serif" font-size="14.00">grad 0.6539</text>
</g>
<!-- 140260402426832&#45;&gt;140260402426640+ -->
<g id="edge18" class="edge">
<title>140260402426832&#45;&gt;140260402426640+</title>
<path fill="none" stroke="black" d="M859.07,-174.43C876.16,-176.32 892.06,-178.09 905.23,-179.54"/>
<polygon fill="black" stroke="black" points="904.85,-183.02 915.17,-180.64 905.62,-176.06 904.85,-183.02"/>
</g>
<!-- 140260402426832*&#45;&gt;140260402426832 -->
<g id="edge9" class="edge">
<title>140260402426832*&#45;&gt;140260402426832</title>
<path fill="none" stroke="black" d="M477.11,-156.5C489.34,-156.5 505.04,-156.5 522.41,-156.5"/>
<polygon fill="black" stroke="black" points="522.81,-160 532.81,-156.5 522.81,-153 522.81,-160"/>
</g>
<!-- 140260402419680 -->
<g id="node25" class="node">
<title>140260402419680</title>
<polygon fill="none" stroke="black" points="1009.5,-110.5 1009.5,-146.5 1383.5,-146.5 1383.5,-110.5 1009.5,-110.5"/>
<text text-anchor="middle" x="1035.5" y="-124.8" font-family="Times,serif" font-size="14.00">v005</text>
<polyline fill="none" stroke="black" points="1061.5,-110.5 1061.5,-146.5 "/>
<text text-anchor="middle" x="1079" y="-124.8" font-family="Times,serif" font-size="14.00">L2</text>
<polyline fill="none" stroke="black" points="1096.5,-110.5 1096.5,-146.5 "/>
<text text-anchor="middle" x="1115.5" y="-124.8" font-family="Times,serif" font-size="14.00">N1</text>
<polyline fill="none" stroke="black" points="1134.5,-110.5 1134.5,-146.5 "/>
<text text-anchor="middle" x="1153.5" y="-124.8" font-family="Times,serif" font-size="14.00">w1</text>
<polyline fill="none" stroke="black" points="1172.5,-110.5 1172.5,-146.5 "/>
<text text-anchor="middle" x="1226" y="-124.8" font-family="Times,serif" font-size="14.00">data &#45;0.5755</text>
<polyline fill="none" stroke="black" points="1279.5,-110.5 1279.5,-146.5 "/>
<text text-anchor="middle" x="1331.5" y="-124.8" font-family="Times,serif" font-size="14.00">grad 9.1107</text>
</g>
<!-- 140260402419680&#45;&gt;140260402428464* -->
<g id="edge16" class="edge">
<title>140260402419680&#45;&gt;140260402428464*</title>
<path fill="none" stroke="black" d="M1379.33,-146.5C1392.08,-147.77 1403.88,-148.93 1414.05,-149.94"/>
<polygon fill="black" stroke="black" points="1413.73,-153.43 1424.02,-150.93 1414.42,-146.46 1413.73,-153.43"/>
</g>
<!-- 140260953974256 -->
<g id="node26" class="node">
<title>140260953974256</title>
<polygon fill="none" stroke="black" points="28.5,-124.5 28.5,-160.5 358.5,-160.5 358.5,-124.5 28.5,-124.5"/>
<text text-anchor="middle" x="54.5" y="-138.8" font-family="Times,serif" font-size="14.00">v008</text>
<polyline fill="none" stroke="black" points="80.5,-124.5 80.5,-160.5 "/>
<text text-anchor="middle" x="91" y="-138.8" font-family="Times,serif" font-size="14.00"> </text>
<polyline fill="none" stroke="black" points="101.5,-124.5 101.5,-160.5 "/>
<text text-anchor="middle" x="112" y="-138.8" font-family="Times,serif" font-size="14.00"> </text>
<polyline fill="none" stroke="black" points="122.5,-124.5 122.5,-160.5 "/>
<text text-anchor="middle" x="137.5" y="-138.8" font-family="Times,serif" font-size="14.00">i1</text>
<polyline fill="none" stroke="black" points="152.5,-124.5 152.5,-160.5 "/>
<text text-anchor="middle" x="203.5" y="-138.8" font-family="Times,serif" font-size="14.00">data 4.0000</text>
<polyline fill="none" stroke="black" points="254.5,-124.5 254.5,-160.5 "/>
<text text-anchor="middle" x="306.5" y="-138.8" font-family="Times,serif" font-size="14.00">grad 2.9738</text>
</g>
<!-- 140260953974256&#45;&gt;140260402425872* -->
<g id="edge15" class="edge">
<title>140260953974256&#45;&gt;140260402425872*</title>
<path fill="none" stroke="black" d="M350.54,-124.49C362.97,-121.88 375.25,-118.9 387,-115.5 397.92,-112.34 409.39,-107.6 419.46,-102.91"/>
<polygon fill="black" stroke="black" points="421.13,-105.99 428.61,-98.49 418.09,-99.69 421.13,-105.99"/>
</g>
<!-- 140260953974256&#45;&gt;140260402426832* -->
<g id="edge19" class="edge">
<title>140260953974256&#45;&gt;140260402426832*</title>
<path fill="none" stroke="black" d="M358.56,-151.52C378.68,-152.63 397.46,-153.66 412.63,-154.5"/>
<polygon fill="black" stroke="black" points="412.83,-158.02 423.01,-155.07 413.22,-151.03 412.83,-158.02"/>
</g>
</g>
</svg>
