<?xml version="1.0" encoding="UTF-8" standalone="no"?>
<!DOCTYPE svg PUBLIC "-//W3C//DTD SVG 1.1//EN"
 "http://www.w3.org/Graphics/SVG/1.1/DTD/svg11.dtd">
<!-- Generated by graphviz version 2.43.0 (0)
 -->
<!-- Title: %3 Pages: 1 -->
<svg width="3521pt" height="265pt"
 viewBox="0.00 0.00 3521.00 265.00" xmlns="http://www.w3.org/2000/svg" xmlns:xlink="http://www.w3.org/1999/xlink">
<g id="graph0" class="graph" transform="scale(1 1) rotate(0) translate(4 261)">
<title>%3</title>
<polygon fill="white" stroke="transparent" points="-4,4 -4,-261 3517,-261 3517,4 -4,4"/>
<!-- 140260402426400 -->
<g id="node1" class="node">
<title>140260402426400</title>
<polygon fill="none" stroke="black" points="1013,-55.5 1013,-91.5 1369,-91.5 1369,-55.5 1013,-55.5"/>
<text text-anchor="middle" x="1039" y="-69.8" font-family="Times,serif" font-size="14.00">v040</text>
<polyline fill="none" stroke="black" points="1065,-55.5 1065,-91.5 "/>
<text text-anchor="middle" x="1082.5" y="-69.8" font-family="Times,serif" font-size="14.00">L1</text>
<polyline fill="none" stroke="black" points="1100,-55.5 1100,-91.5 "/>
<text text-anchor="middle" x="1119" y="-69.8" font-family="Times,serif" font-size="14.00">N2</text>
<polyline fill="none" stroke="black" points="1138,-55.5 1138,-91.5 "/>
<text text-anchor="middle" x="1150.5" y="-69.8" font-family="Times,serif" font-size="14.00">a</text>
<polyline fill="none" stroke="black" points="1163,-55.5 1163,-91.5 "/>
<text text-anchor="middle" x="1214" y="-69.8" font-family="Times,serif" font-size="14.00">data 3.9146</text>
<polyline fill="none" stroke="black" points="1265,-55.5 1265,-91.5 "/>
<text text-anchor="middle" x="1317" y="-69.8" font-family="Times,serif" font-size="14.00">grad 0.0000</text>
</g>
<!-- 140260402428176* -->
<g id="node16" class="node">
<title>140260402428176*</title>
<ellipse fill="none" stroke="black" cx="1445" cy="-60.5" rx="27" ry="18"/>
<text text-anchor="middle" x="1445" y="-56.8" font-family="Times,serif" font-size="14.00">*</text>
</g>
<!-- 140260402426400&#45;&gt;140260402428176* -->
<g id="edge21" class="edge">
<title>140260402426400&#45;&gt;140260402428176*</title>
<path fill="none" stroke="black" d="M1369.07,-64.37C1383.38,-63.63 1396.63,-62.94 1407.88,-62.36"/>
<polygon fill="black" stroke="black" points="1408.22,-65.85 1418.03,-61.84 1407.86,-58.86 1408.22,-65.85"/>
</g>
<!-- 140260402426400+ -->
<g id="node2" class="node">
<title>140260402426400+</title>
<ellipse fill="none" stroke="black" cx="937" cy="-73.5" rx="27" ry="18"/>
<text text-anchor="middle" x="937" y="-69.8" font-family="Times,serif" font-size="14.00">+</text>
</g>
<!-- 140260402426400+&#45;&gt;140260402426400 -->
<g id="edge1" class="edge">
<title>140260402426400+&#45;&gt;140260402426400</title>
<path fill="none" stroke="black" d="M964.02,-73.5C974.59,-73.5 987.79,-73.5 1002.46,-73.5"/>
<polygon fill="black" stroke="black" points="1002.84,-77 1012.84,-73.5 1002.84,-70 1002.84,-77"/>
</g>
<!-- 140260402426496 -->
<g id="node3" class="node">
<title>140260402426496</title>
<polygon fill="none" stroke="black" points="1528.5,-148.5 1528.5,-184.5 1849.5,-184.5 1849.5,-148.5 1528.5,-148.5"/>
<text text-anchor="middle" x="1554.5" y="-162.8" font-family="Times,serif" font-size="14.00">v041</text>
<polyline fill="none" stroke="black" points="1580.5,-148.5 1580.5,-184.5 "/>
<text text-anchor="middle" x="1591" y="-162.8" font-family="Times,serif" font-size="14.00"> </text>
<polyline fill="none" stroke="black" points="1601.5,-148.5 1601.5,-184.5 "/>
<text text-anchor="middle" x="1612" y="-162.8" font-family="Times,serif" font-size="14.00"> </text>
<polyline fill="none" stroke="black" points="1622.5,-148.5 1622.5,-184.5 "/>
<text text-anchor="middle" x="1633" y="-162.8" font-family="Times,serif" font-size="14.00"> </text>
<polyline fill="none" stroke="black" points="1643.5,-148.5 1643.5,-184.5 "/>
<text text-anchor="middle" x="1694.5" y="-162.8" font-family="Times,serif" font-size="14.00">data 0.7092</text>
<polyline fill="none" stroke="black" points="1745.5,-148.5 1745.5,-184.5 "/>
<text text-anchor="middle" x="1797.5" y="-162.8" font-family="Times,serif" font-size="14.00">grad 0.0000</text>
</g>
<!-- 140260402424576+ -->
<g id="node13" class="node">
<title>140260402424576+</title>
<ellipse fill="none" stroke="black" cx="2066.5" cy="-115.5" rx="27" ry="18"/>
<text text-anchor="middle" x="2066.5" y="-111.8" font-family="Times,serif" font-size="14.00">+</text>
</g>
<!-- 140260402426496&#45;&gt;140260402424576+ -->
<g id="edge22" class="edge">
<title>140260402426496&#45;&gt;140260402424576+</title>
<path fill="none" stroke="black" d="M1822.65,-148.48C1896.43,-138.46 1982.67,-126.75 2029.96,-120.33"/>
<polygon fill="black" stroke="black" points="2030.56,-123.78 2040,-118.96 2029.62,-116.84 2030.56,-123.78"/>
</g>
<!-- 140260402426496* -->
<g id="node4" class="node">
<title>140260402426496*</title>
<ellipse fill="none" stroke="black" cx="1445" cy="-166.5" rx="27" ry="18"/>
<text text-anchor="middle" x="1445" y="-162.8" font-family="Times,serif" font-size="14.00">*</text>
</g>
<!-- 140260402426496*&#45;&gt;140260402426496 -->
<g id="edge2" class="edge">
<title>140260402426496*&#45;&gt;140260402426496</title>
<path fill="none" stroke="black" d="M1472.36,-166.5C1484.7,-166.5 1500.53,-166.5 1518,-166.5"/>
<polygon fill="black" stroke="black" points="1518.46,-170 1528.46,-166.5 1518.46,-163 1518.46,-170"/>
</g>
<!-- 140260402419344 -->
<g id="node5" class="node">
<title>140260402419344</title>
<polygon fill="none" stroke="black" points="1000,-0.5 1000,-36.5 1382,-36.5 1382,-0.5 1000,-0.5"/>
<text text-anchor="middle" x="1026" y="-14.8" font-family="Times,serif" font-size="14.00">v006</text>
<polyline fill="none" stroke="black" points="1052,-0.5 1052,-36.5 "/>
<text text-anchor="middle" x="1069.5" y="-14.8" font-family="Times,serif" font-size="14.00">L2</text>
<polyline fill="none" stroke="black" points="1087,-0.5 1087,-36.5 "/>
<text text-anchor="middle" x="1106" y="-14.8" font-family="Times,serif" font-size="14.00">N1</text>
<polyline fill="none" stroke="black" points="1125,-0.5 1125,-36.5 "/>
<text text-anchor="middle" x="1144" y="-14.8" font-family="Times,serif" font-size="14.00">w2</text>
<polyline fill="none" stroke="black" points="1163,-0.5 1163,-36.5 "/>
<text text-anchor="middle" x="1214" y="-14.8" font-family="Times,serif" font-size="14.00">data 0.3474</text>
<polyline fill="none" stroke="black" points="1265,-0.5 1265,-36.5 "/>
<text text-anchor="middle" x="1323.5" y="-14.8" font-family="Times,serif" font-size="14.00">grad &#45;26.4672</text>
</g>
<!-- 140260402419344&#45;&gt;140260402428176* -->
<g id="edge24" class="edge">
<title>140260402419344&#45;&gt;140260402428176*</title>
<path fill="none" stroke="black" d="M1330.02,-36.52C1347.56,-39.28 1365.23,-42.29 1382,-45.5 1391.09,-47.24 1400.85,-49.44 1409.87,-51.62"/>
<polygon fill="black" stroke="black" points="1409.13,-55.04 1419.68,-54.04 1410.81,-48.25 1409.13,-55.04"/>
</g>
<!-- 140260402422656 -->
<g id="node6" class="node">
<title>140260402422656</title>
<polygon fill="none" stroke="black" points="0,-110.5 0,-146.5 382,-146.5 382,-110.5 0,-110.5"/>
<text text-anchor="middle" x="26" y="-124.8" font-family="Times,serif" font-size="14.00">v003</text>
<polyline fill="none" stroke="black" points="52,-110.5 52,-146.5 "/>
<text text-anchor="middle" x="69.5" y="-124.8" font-family="Times,serif" font-size="14.00">L1</text>
<polyline fill="none" stroke="black" points="87,-110.5 87,-146.5 "/>
<text text-anchor="middle" x="106" y="-124.8" font-family="Times,serif" font-size="14.00">N2</text>
<polyline fill="none" stroke="black" points="125,-110.5 125,-146.5 "/>
<text text-anchor="middle" x="144" y="-124.8" font-family="Times,serif" font-size="14.00">w1</text>
<polyline fill="none" stroke="black" points="163,-110.5 163,-146.5 "/>
<text text-anchor="middle" x="214" y="-124.8" font-family="Times,serif" font-size="14.00">data 0.9505</text>
<polyline fill="none" stroke="black" points="265,-110.5 265,-146.5 "/>
<text text-anchor="middle" x="323.5" y="-124.8" font-family="Times,serif" font-size="14.00">grad &#45;33.1079</text>
</g>
<!-- 140260402426832* -->
<g id="node23" class="node">
<title>140260402426832*</title>
<ellipse fill="none" stroke="black" cx="445" cy="-128.5" rx="27" ry="18"/>
<text text-anchor="middle" x="445" y="-124.8" font-family="Times,serif" font-size="14.00">*</text>
</g>
<!-- 140260402422656&#45;&gt;140260402426832* -->
<g id="edge25" class="edge">
<title>140260402422656&#45;&gt;140260402426832*</title>
<path fill="none" stroke="black" d="M382.03,-128.5C391.3,-128.5 399.95,-128.5 407.66,-128.5"/>
<polygon fill="black" stroke="black" points="407.91,-132 417.91,-128.5 407.91,-125 407.91,-132"/>
</g>
<!-- 140260402428608 -->
<g id="node7" class="node">
<title>140260402428608</title>
<polygon fill="none" stroke="black" points="530.5,-220.5 530.5,-256.5 851.5,-256.5 851.5,-220.5 530.5,-220.5"/>
<text text-anchor="middle" x="556.5" y="-234.8" font-family="Times,serif" font-size="14.00">v037</text>
<polyline fill="none" stroke="black" points="582.5,-220.5 582.5,-256.5 "/>
<text text-anchor="middle" x="593" y="-234.8" font-family="Times,serif" font-size="14.00"> </text>
<polyline fill="none" stroke="black" points="603.5,-220.5 603.5,-256.5 "/>
<text text-anchor="middle" x="614" y="-234.8" font-family="Times,serif" font-size="14.00"> </text>
<polyline fill="none" stroke="black" points="624.5,-220.5 624.5,-256.5 "/>
<text text-anchor="middle" x="635" y="-234.8" font-family="Times,serif" font-size="14.00"> </text>
<polyline fill="none" stroke="black" points="645.5,-220.5 645.5,-256.5 "/>
<text text-anchor="middle" x="696.5" y="-234.8" font-family="Times,serif" font-size="14.00">data 1.9257</text>
<polyline fill="none" stroke="black" points="747.5,-220.5 747.5,-256.5 "/>
<text text-anchor="middle" x="799.5" y="-234.8" font-family="Times,serif" font-size="14.00">grad 0.0000</text>
</g>
<!-- 140260402427792+ -->
<g id="node20" class="node">
<title>140260402427792+</title>
<ellipse fill="none" stroke="black" cx="937" cy="-196.5" rx="27" ry="18"/>
<text text-anchor="middle" x="937" y="-192.8" font-family="Times,serif" font-size="14.00">+</text>
</g>
<!-- 140260402428608&#45;&gt;140260402427792+ -->
<g id="edge11" class="edge">
<title>140260402428608&#45;&gt;140260402427792+</title>
<path fill="none" stroke="black" d="M823.46,-220.44C840.51,-217.67 857.7,-214.67 874,-211.5 883.08,-209.73 892.84,-207.52 901.87,-205.34"/>
<polygon fill="black" stroke="black" points="902.8,-208.72 911.67,-202.92 901.12,-201.92 902.8,-208.72"/>
</g>
<!-- 140260402428608* -->
<g id="node8" class="node">
<title>140260402428608*</title>
<ellipse fill="none" stroke="black" cx="445" cy="-238.5" rx="27" ry="18"/>
<text text-anchor="middle" x="445" y="-234.8" font-family="Times,serif" font-size="14.00">*</text>
</g>
<!-- 140260402428608*&#45;&gt;140260402428608 -->
<g id="edge3" class="edge">
<title>140260402428608*&#45;&gt;140260402428608</title>
<path fill="none" stroke="black" d="M472.11,-238.5C484.98,-238.5 501.7,-238.5 520.15,-238.5"/>
<polygon fill="black" stroke="black" points="520.25,-242 530.25,-238.5 520.25,-235 520.25,-242"/>
</g>
<!-- 140260402428128 -->
<g id="node9" class="node">
<title>140260402428128</title>
<polygon fill="none" stroke="black" points="2710,-69.5 2710,-105.5 3066,-105.5 3066,-69.5 2710,-69.5"/>
<text text-anchor="middle" x="2736" y="-83.8" font-family="Times,serif" font-size="14.00">v044</text>
<polyline fill="none" stroke="black" points="2762,-69.5 2762,-105.5 "/>
<text text-anchor="middle" x="2779.5" y="-83.8" font-family="Times,serif" font-size="14.00">L2</text>
<polyline fill="none" stroke="black" points="2797,-69.5 2797,-105.5 "/>
<text text-anchor="middle" x="2816" y="-83.8" font-family="Times,serif" font-size="14.00">N1</text>
<polyline fill="none" stroke="black" points="2835,-69.5 2835,-105.5 "/>
<text text-anchor="middle" x="2847.5" y="-83.8" font-family="Times,serif" font-size="14.00">a</text>
<polyline fill="none" stroke="black" points="2860,-69.5 2860,-105.5 "/>
<text text-anchor="middle" x="2911" y="-83.8" font-family="Times,serif" font-size="14.00">data 1.5575</text>
<polyline fill="none" stroke="black" points="2962,-69.5 2962,-105.5 "/>
<text text-anchor="middle" x="3014" y="-83.8" font-family="Times,serif" font-size="14.00">grad 0.0000</text>
</g>
<!-- 140260402429424* -->
<g id="node26" class="node">
<title>140260402429424*</title>
<ellipse fill="none" stroke="black" cx="3129" cy="-87.5" rx="27" ry="18"/>
<text text-anchor="middle" x="3129" y="-83.8" font-family="Times,serif" font-size="14.00">*</text>
</g>
<!-- 140260402428128&#45;&gt;140260402429424* -->
<g id="edge15" class="edge">
<title>140260402428128&#45;&gt;140260402429424*</title>
<path fill="none" stroke="black" d="M3066.14,-87.5C3075.34,-87.5 3083.94,-87.5 3091.63,-87.5"/>
<polygon fill="black" stroke="black" points="3091.86,-91 3101.86,-87.5 3091.86,-84 3091.86,-91"/>
</g>
<!-- 140260402428128+ -->
<g id="node10" class="node">
<title>140260402428128+</title>
<ellipse fill="none" stroke="black" cx="2647" cy="-87.5" rx="27" ry="18"/>
<text text-anchor="middle" x="2647" y="-83.8" font-family="Times,serif" font-size="14.00">+</text>
</g>
<!-- 140260402428128+&#45;&gt;140260402428128 -->
<g id="edge4" class="edge">
<title>140260402428128+&#45;&gt;140260402428128</title>
<path fill="none" stroke="black" d="M2674.03,-87.5C2681.4,-87.5 2690.02,-87.5 2699.49,-87.5"/>
<polygon fill="black" stroke="black" points="2699.66,-91 2709.66,-87.5 2699.66,-84 2699.66,-91"/>
</g>
<!-- 140260953974256 -->
<g id="node11" class="node">
<title>140260953974256</title>
<polygon fill="none" stroke="black" points="26,-165.5 26,-201.5 356,-201.5 356,-165.5 26,-165.5"/>
<text text-anchor="middle" x="52" y="-179.8" font-family="Times,serif" font-size="14.00">v008</text>
<polyline fill="none" stroke="black" points="78,-165.5 78,-201.5 "/>
<text text-anchor="middle" x="88.5" y="-179.8" font-family="Times,serif" font-size="14.00"> </text>
<polyline fill="none" stroke="black" points="99,-165.5 99,-201.5 "/>
<text text-anchor="middle" x="109.5" y="-179.8" font-family="Times,serif" font-size="14.00"> </text>
<polyline fill="none" stroke="black" points="120,-165.5 120,-201.5 "/>
<text text-anchor="middle" x="135" y="-179.8" font-family="Times,serif" font-size="14.00">i1</text>
<polyline fill="none" stroke="black" points="150,-165.5 150,-201.5 "/>
<text text-anchor="middle" x="201" y="-179.8" font-family="Times,serif" font-size="14.00">data 4.0000</text>
<polyline fill="none" stroke="black" points="252,-165.5 252,-201.5 "/>
<text text-anchor="middle" x="304" y="-179.8" font-family="Times,serif" font-size="14.00">grad 8.2494</text>
</g>
<!-- 140260953974256&#45;&gt;140260402428608* -->
<g id="edge10" class="edge">
<title>140260953974256&#45;&gt;140260402428608*</title>
<path fill="none" stroke="black" d="M340.62,-201.52C354.71,-204.39 368.7,-207.7 382,-211.5 392.69,-214.56 403.96,-219.05 413.92,-223.49"/>
<polygon fill="black" stroke="black" points="412.45,-226.67 422.99,-227.69 415.39,-220.32 412.45,-226.67"/>
</g>
<!-- 140260953974256&#45;&gt;140260402426832* -->
<g id="edge17" class="edge">
<title>140260953974256&#45;&gt;140260402426832*</title>
<path fill="none" stroke="black" d="M345.76,-165.47C358.11,-162.87 370.32,-159.89 382,-156.5 392.83,-153.35 404.21,-148.66 414.21,-144.01"/>
<polygon fill="black" stroke="black" points="415.84,-147.11 423.33,-139.62 412.8,-140.81 415.84,-147.11"/>
</g>
<!-- 140260402424576 -->
<g id="node12" class="node">
<title>140260402424576</title>
<polygon fill="none" stroke="black" points="2263,-95.5 2263,-131.5 2584,-131.5 2584,-95.5 2263,-95.5"/>
<text text-anchor="middle" x="2289" y="-109.8" font-family="Times,serif" font-size="14.00">v042</text>
<polyline fill="none" stroke="black" points="2315,-95.5 2315,-131.5 "/>
<text text-anchor="middle" x="2325.5" y="-109.8" font-family="Times,serif" font-size="14.00"> </text>
<polyline fill="none" stroke="black" points="2336,-95.5 2336,-131.5 "/>
<text text-anchor="middle" x="2346.5" y="-109.8" font-family="Times,serif" font-size="14.00"> </text>
<polyline fill="none" stroke="black" points="2357,-95.5 2357,-131.5 "/>
<text text-anchor="middle" x="2367.5" y="-109.8" font-family="Times,serif" font-size="14.00"> </text>
<polyline fill="none" stroke="black" points="2378,-95.5 2378,-131.5 "/>
<text text-anchor="middle" x="2429" y="-109.8" font-family="Times,serif" font-size="14.00">data 0.1976</text>
<polyline fill="none" stroke="black" points="2480,-95.5 2480,-131.5 "/>
<text text-anchor="middle" x="2532" y="-109.8" font-family="Times,serif" font-size="14.00">grad 0.0000</text>
</g>
<!-- 140260402424576&#45;&gt;140260402428128+ -->
<g id="edge19" class="edge">
<title>140260402424576&#45;&gt;140260402428128+</title>
<path fill="none" stroke="black" d="M2578.04,-95.48C2589.67,-94.11 2600.55,-92.83 2610.06,-91.72"/>
<polygon fill="black" stroke="black" points="2610.64,-95.17 2620.17,-90.53 2609.83,-88.22 2610.64,-95.17"/>
</g>
<!-- 140260402424576+&#45;&gt;140260402424576 -->
<g id="edge5" class="edge">
<title>140260402424576+&#45;&gt;140260402424576</title>
<path fill="none" stroke="black" d="M2093.6,-115.35C2127.81,-115.16 2190.72,-114.81 2252.43,-114.46"/>
<polygon fill="black" stroke="black" points="2252.74,-117.96 2262.72,-114.4 2252.7,-110.96 2252.74,-117.96"/>
</g>
<!-- 140260402422512 -->
<g id="node14" class="node">
<title>140260402422512</title>
<polygon fill="none" stroke="black" points="508,-165.5 508,-201.5 874,-201.5 874,-165.5 508,-165.5"/>
<text text-anchor="middle" x="534" y="-179.8" font-family="Times,serif" font-size="14.00">v002</text>
<polyline fill="none" stroke="black" points="560,-165.5 560,-201.5 "/>
<text text-anchor="middle" x="577.5" y="-179.8" font-family="Times,serif" font-size="14.00">L1</text>
<polyline fill="none" stroke="black" points="595,-165.5 595,-201.5 "/>
<text text-anchor="middle" x="614" y="-179.8" font-family="Times,serif" font-size="14.00">N1</text>
<polyline fill="none" stroke="black" points="633,-165.5 633,-201.5 "/>
<text text-anchor="middle" x="646" y="-179.8" font-family="Times,serif" font-size="14.00">b</text>
<polyline fill="none" stroke="black" points="659,-165.5 659,-201.5 "/>
<text text-anchor="middle" x="712.5" y="-179.8" font-family="Times,serif" font-size="14.00">data &#45;0.0046</text>
<polyline fill="none" stroke="black" points="766,-165.5 766,-201.5 "/>
<text text-anchor="middle" x="820" y="-179.8" font-family="Times,serif" font-size="14.00">grad &#45;4.8810</text>
</g>
<!-- 140260402422512&#45;&gt;140260402427792+ -->
<g id="edge26" class="edge">
<title>140260402422512&#45;&gt;140260402427792+</title>
<path fill="none" stroke="black" d="M874.11,-193.2C883.34,-193.69 891.95,-194.15 899.65,-194.56"/>
<polygon fill="black" stroke="black" points="899.72,-198.07 909.89,-195.11 900.09,-191.08 899.72,-198.07"/>
</g>
<!-- 140260402428176 -->
<g id="node15" class="node">
<title>140260402428176</title>
<polygon fill="none" stroke="black" points="1906,-42.5 1906,-78.5 2227,-78.5 2227,-42.5 1906,-42.5"/>
<text text-anchor="middle" x="1932" y="-56.8" font-family="Times,serif" font-size="14.00">v043</text>
<polyline fill="none" stroke="black" points="1958,-42.5 1958,-78.5 "/>
<text text-anchor="middle" x="1968.5" y="-56.8" font-family="Times,serif" font-size="14.00"> </text>
<polyline fill="none" stroke="black" points="1979,-42.5 1979,-78.5 "/>
<text text-anchor="middle" x="1989.5" y="-56.8" font-family="Times,serif" font-size="14.00"> </text>
<polyline fill="none" stroke="black" points="2000,-42.5 2000,-78.5 "/>
<text text-anchor="middle" x="2010.5" y="-56.8" font-family="Times,serif" font-size="14.00"> </text>
<polyline fill="none" stroke="black" points="2021,-42.5 2021,-78.5 "/>
<text text-anchor="middle" x="2072" y="-56.8" font-family="Times,serif" font-size="14.00">data 1.3599</text>
<polyline fill="none" stroke="black" points="2123,-42.5 2123,-78.5 "/>
<text text-anchor="middle" x="2175" y="-56.8" font-family="Times,serif" font-size="14.00">grad 0.0000</text>
</g>
<!-- 140260402428176&#45;&gt;140260402428128+ -->
<g id="edge23" class="edge">
<title>140260402428176&#45;&gt;140260402428128+</title>
<path fill="none" stroke="black" d="M2227.11,-67.95C2358.28,-74.07 2534.3,-82.29 2609.48,-85.8"/>
<polygon fill="black" stroke="black" points="2609.67,-89.31 2619.82,-86.28 2610,-82.32 2609.67,-89.31"/>
</g>
<!-- 140260402428176*&#45;&gt;140260402428176 -->
<g id="edge6" class="edge">
<title>140260402428176*&#45;&gt;140260402428176</title>
<path fill="none" stroke="black" d="M1472.22,-60.5C1543.76,-60.5 1746.85,-60.5 1895.55,-60.5"/>
<polygon fill="black" stroke="black" points="1895.71,-64 1905.71,-60.5 1895.71,-57 1895.71,-64"/>
</g>
<!-- 140260402422704 -->
<g id="node17" class="node">
<title>140260402422704</title>
<polygon fill="none" stroke="black" points="510.5,-55.5 510.5,-91.5 871.5,-91.5 871.5,-55.5 510.5,-55.5"/>
<text text-anchor="middle" x="536.5" y="-69.8" font-family="Times,serif" font-size="14.00">v004</text>
<polyline fill="none" stroke="black" points="562.5,-55.5 562.5,-91.5 "/>
<text text-anchor="middle" x="580" y="-69.8" font-family="Times,serif" font-size="14.00">L1</text>
<polyline fill="none" stroke="black" points="597.5,-55.5 597.5,-91.5 "/>
<text text-anchor="middle" x="616.5" y="-69.8" font-family="Times,serif" font-size="14.00">N2</text>
<polyline fill="none" stroke="black" points="635.5,-55.5 635.5,-91.5 "/>
<text text-anchor="middle" x="648.5" y="-69.8" font-family="Times,serif" font-size="14.00">b</text>
<polyline fill="none" stroke="black" points="661.5,-55.5 661.5,-91.5 "/>
<text text-anchor="middle" x="712.5" y="-69.8" font-family="Times,serif" font-size="14.00">data 0.1126</text>
<polyline fill="none" stroke="black" points="763.5,-55.5 763.5,-91.5 "/>
<text text-anchor="middle" x="817.5" y="-69.8" font-family="Times,serif" font-size="14.00">grad &#45;8.2770</text>
</g>
<!-- 140260402422704&#45;&gt;140260402426400+ -->
<g id="edge12" class="edge">
<title>140260402422704&#45;&gt;140260402426400+</title>
<path fill="none" stroke="black" d="M871.57,-73.5C881.86,-73.5 891.44,-73.5 899.91,-73.5"/>
<polygon fill="black" stroke="black" points="899.99,-77 909.99,-73.5 899.99,-70 899.99,-77"/>
</g>
<!-- 140260402419584 -->
<g id="node18" class="node">
<title>140260402419584</title>
<polygon fill="none" stroke="black" points="0,-220.5 0,-256.5 382,-256.5 382,-220.5 0,-220.5"/>
<text text-anchor="middle" x="26" y="-234.8" font-family="Times,serif" font-size="14.00">v001</text>
<polyline fill="none" stroke="black" points="52,-220.5 52,-256.5 "/>
<text text-anchor="middle" x="69.5" y="-234.8" font-family="Times,serif" font-size="14.00">L1</text>
<polyline fill="none" stroke="black" points="87,-220.5 87,-256.5 "/>
<text text-anchor="middle" x="106" y="-234.8" font-family="Times,serif" font-size="14.00">N1</text>
<polyline fill="none" stroke="black" points="125,-220.5 125,-256.5 "/>
<text text-anchor="middle" x="144" y="-234.8" font-family="Times,serif" font-size="14.00">w1</text>
<polyline fill="none" stroke="black" points="163,-220.5 163,-256.5 "/>
<text text-anchor="middle" x="214" y="-234.8" font-family="Times,serif" font-size="14.00">data 0.4814</text>
<polyline fill="none" stroke="black" points="265,-220.5 265,-256.5 "/>
<text text-anchor="middle" x="323.5" y="-234.8" font-family="Times,serif" font-size="14.00">grad &#45;19.5240</text>
</g>
<!-- 140260402419584&#45;&gt;140260402428608* -->
<g id="edge16" class="edge">
<title>140260402419584&#45;&gt;140260402428608*</title>
<path fill="none" stroke="black" d="M382.03,-238.5C391.3,-238.5 399.95,-238.5 407.66,-238.5"/>
<polygon fill="black" stroke="black" points="407.91,-242 417.91,-238.5 407.91,-235 407.91,-242"/>
</g>
<!-- 140260402427792 -->
<g id="node19" class="node">
<title>140260402427792</title>
<polygon fill="none" stroke="black" points="1013,-178.5 1013,-214.5 1369,-214.5 1369,-178.5 1013,-178.5"/>
<text text-anchor="middle" x="1039" y="-192.8" font-family="Times,serif" font-size="14.00">v038</text>
<polyline fill="none" stroke="black" points="1065,-178.5 1065,-214.5 "/>
<text text-anchor="middle" x="1082.5" y="-192.8" font-family="Times,serif" font-size="14.00">L1</text>
<polyline fill="none" stroke="black" points="1100,-178.5 1100,-214.5 "/>
<text text-anchor="middle" x="1119" y="-192.8" font-family="Times,serif" font-size="14.00">N1</text>
<polyline fill="none" stroke="black" points="1138,-178.5 1138,-214.5 "/>
<text text-anchor="middle" x="1150.5" y="-192.8" font-family="Times,serif" font-size="14.00">a</text>
<polyline fill="none" stroke="black" points="1163,-178.5 1163,-214.5 "/>
<text text-anchor="middle" x="1214" y="-192.8" font-family="Times,serif" font-size="14.00">data 1.9211</text>
<polyline fill="none" stroke="black" points="1265,-178.5 1265,-214.5 "/>
<text text-anchor="middle" x="1317" y="-192.8" font-family="Times,serif" font-size="14.00">grad 0.0000</text>
</g>
<!-- 140260402427792&#45;&gt;140260402426496* -->
<g id="edge14" class="edge">
<title>140260402427792&#45;&gt;140260402426496*</title>
<path fill="none" stroke="black" d="M1343.32,-178.49C1367.49,-175.61 1390.38,-172.88 1408.2,-170.76"/>
<polygon fill="black" stroke="black" points="1408.83,-174.21 1418.34,-169.55 1408,-167.26 1408.83,-174.21"/>
</g>
<!-- 140260402427792+&#45;&gt;140260402427792 -->
<g id="edge7" class="edge">
<title>140260402427792+&#45;&gt;140260402427792</title>
<path fill="none" stroke="black" d="M964.02,-196.5C974.59,-196.5 987.79,-196.5 1002.46,-196.5"/>
<polygon fill="black" stroke="black" points="1002.84,-200 1012.84,-196.5 1002.84,-193 1002.84,-200"/>
</g>
<!-- 140260402419632 -->
<g id="node21" class="node">
<title>140260402419632</title>
<polygon fill="none" stroke="black" points="1508,-93.5 1508,-129.5 1870,-129.5 1870,-93.5 1508,-93.5"/>
<text text-anchor="middle" x="1534" y="-107.8" font-family="Times,serif" font-size="14.00">v007</text>
<polyline fill="none" stroke="black" points="1560,-93.5 1560,-129.5 "/>
<text text-anchor="middle" x="1577.5" y="-107.8" font-family="Times,serif" font-size="14.00">L2</text>
<polyline fill="none" stroke="black" points="1595,-93.5 1595,-129.5 "/>
<text text-anchor="middle" x="1614" y="-107.8" font-family="Times,serif" font-size="14.00">N1</text>
<polyline fill="none" stroke="black" points="1633,-93.5 1633,-129.5 "/>
<text text-anchor="middle" x="1646" y="-107.8" font-family="Times,serif" font-size="14.00">b</text>
<polyline fill="none" stroke="black" points="1659,-93.5 1659,-129.5 "/>
<text text-anchor="middle" x="1712.5" y="-107.8" font-family="Times,serif" font-size="14.00">data &#45;0.5116</text>
<polyline fill="none" stroke="black" points="1766,-93.5 1766,-129.5 "/>
<text text-anchor="middle" x="1818" y="-107.8" font-family="Times,serif" font-size="14.00">grad 8.4808</text>
</g>
<!-- 140260402419632&#45;&gt;140260402424576+ -->
<g id="edge18" class="edge">
<title>140260402419632&#45;&gt;140260402424576+</title>
<path fill="none" stroke="black" d="M1870.05,-113.42C1930.18,-114.06 1991.37,-114.71 2028.88,-115.11"/>
<polygon fill="black" stroke="black" points="2029.24,-118.61 2039.27,-115.22 2029.31,-111.61 2029.24,-118.61"/>
</g>
<!-- 140260402426832 -->
<g id="node22" class="node">
<title>140260402426832</title>
<polygon fill="none" stroke="black" points="530.5,-110.5 530.5,-146.5 851.5,-146.5 851.5,-110.5 530.5,-110.5"/>
<text text-anchor="middle" x="556.5" y="-124.8" font-family="Times,serif" font-size="14.00">v039</text>
<polyline fill="none" stroke="black" points="582.5,-110.5 582.5,-146.5 "/>
<text text-anchor="middle" x="593" y="-124.8" font-family="Times,serif" font-size="14.00"> </text>
<polyline fill="none" stroke="black" points="603.5,-110.5 603.5,-146.5 "/>
<text text-anchor="middle" x="614" y="-124.8" font-family="Times,serif" font-size="14.00"> </text>
<polyline fill="none" stroke="black" points="624.5,-110.5 624.5,-146.5 "/>
<text text-anchor="middle" x="635" y="-124.8" font-family="Times,serif" font-size="14.00"> </text>
<polyline fill="none" stroke="black" points="645.5,-110.5 645.5,-146.5 "/>
<text text-anchor="middle" x="696.5" y="-124.8" font-family="Times,serif" font-size="14.00">data 3.8020</text>
<polyline fill="none" stroke="black" points="747.5,-110.5 747.5,-146.5 "/>
<text text-anchor="middle" x="799.5" y="-124.8" font-family="Times,serif" font-size="14.00">grad 0.0000</text>
</g>
<!-- 140260402426832&#45;&gt;140260402426400+ -->
<g id="edge13" class="edge">
<title>140260402426832&#45;&gt;140260402426400+</title>
<path fill="none" stroke="black" d="M838.31,-110.45C850.48,-107.84 862.51,-104.88 874,-101.5 884.82,-98.32 896.19,-93.62 906.2,-88.97"/>
<polygon fill="black" stroke="black" points="907.83,-92.07 915.32,-84.58 904.79,-85.77 907.83,-92.07"/>
</g>
<!-- 140260402426832*&#45;&gt;140260402426832 -->
<g id="edge8" class="edge">
<title>140260402426832*&#45;&gt;140260402426832</title>
<path fill="none" stroke="black" d="M472.11,-128.5C484.98,-128.5 501.7,-128.5 520.15,-128.5"/>
<polygon fill="black" stroke="black" points="520.25,-132 530.25,-128.5 520.25,-125 520.25,-132"/>
</g>
<!-- 140260402419680 -->
<g id="node24" class="node">
<title>140260402419680</title>
<polygon fill="none" stroke="black" points="1000,-123.5 1000,-159.5 1382,-159.5 1382,-123.5 1000,-123.5"/>
<text text-anchor="middle" x="1026" y="-137.8" font-family="Times,serif" font-size="14.00">v005</text>
<polyline fill="none" stroke="black" points="1052,-123.5 1052,-159.5 "/>
<text text-anchor="middle" x="1069.5" y="-137.8" font-family="Times,serif" font-size="14.00">L2</text>
<polyline fill="none" stroke="black" points="1087,-123.5 1087,-159.5 "/>
<text text-anchor="middle" x="1106" y="-137.8" font-family="Times,serif" font-size="14.00">N1</text>
<polyline fill="none" stroke="black" points="1125,-123.5 1125,-159.5 "/>
<text text-anchor="middle" x="1144" y="-137.8" font-family="Times,serif" font-size="14.00">w1</text>
<polyline fill="none" stroke="black" points="1163,-123.5 1163,-159.5 "/>
<text text-anchor="middle" x="1214" y="-137.8" font-family="Times,serif" font-size="14.00">data 0.3691</text>
<polyline fill="none" stroke="black" points="1265,-123.5 1265,-159.5 "/>
<text text-anchor="middle" x="1323.5" y="-137.8" font-family="Times,serif" font-size="14.00">grad &#45;18.8936</text>
</g>
<!-- 140260402419680&#45;&gt;140260402426496* -->
<g id="edge20" class="edge">
<title>140260402419680&#45;&gt;140260402426496*</title>
<path fill="none" stroke="black" d="M1373.47,-159.5C1386.19,-160.77 1397.98,-161.93 1408.12,-162.94"/>
<polygon fill="black" stroke="black" points="1407.78,-166.42 1418.07,-163.93 1408.47,-159.46 1407.78,-166.42"/>
</g>
<!-- 140260402429424 -->
<g id="node25" class="node">
<title>140260402429424</title>
<polygon fill="none" stroke="black" points="3192,-69.5 3192,-105.5 3513,-105.5 3513,-69.5 3192,-69.5"/>
<text text-anchor="middle" x="3218" y="-83.8" font-family="Times,serif" font-size="14.00">v045</text>
<polyline fill="none" stroke="black" points="3244,-69.5 3244,-105.5 "/>
<text text-anchor="middle" x="3254.5" y="-83.8" font-family="Times,serif" font-size="14.00"> </text>
<polyline fill="none" stroke="black" points="3265,-69.5 3265,-105.5 "/>
<text text-anchor="middle" x="3275.5" y="-83.8" font-family="Times,serif" font-size="14.00"> </text>
<polyline fill="none" stroke="black" points="3286,-69.5 3286,-105.5 "/>
<text text-anchor="middle" x="3296.5" y="-83.8" font-family="Times,serif" font-size="14.00">l</text>
<polyline fill="none" stroke="black" points="3307,-69.5 3307,-105.5 "/>
<text text-anchor="middle" x="3358" y="-83.8" font-family="Times,serif" font-size="14.00">data 2.4258</text>
<polyline fill="none" stroke="black" points="3409,-69.5 3409,-105.5 "/>
<text text-anchor="middle" x="3461" y="-83.8" font-family="Times,serif" font-size="14.00">grad 0.0000</text>
</g>
<!-- 140260402429424*&#45;&gt;140260402429424 -->
<g id="edge9" class="edge">
<title>140260402429424*&#45;&gt;140260402429424</title>
<path fill="none" stroke="black" d="M3156.28,-87.5C3163.68,-87.5 3172.32,-87.5 3181.76,-87.5"/>
<polygon fill="black" stroke="black" points="3181.88,-91 3191.88,-87.5 3181.88,-84 3181.88,-91"/>
</g>
</g>
</svg>
