<?xml version="1.0" encoding="UTF-8" standalone="no"?>
<!DOCTYPE svg PUBLIC "-//W3C//DTD SVG 1.1//EN"
 "http://www.w3.org/Graphics/SVG/1.1/DTD/svg11.dtd">
<!-- Generated by graphviz version 2.43.0 (0)
 -->
<!-- Title: %3 Pages: 1 -->
<svg width="3530pt" height="265pt"
 viewBox="0.00 0.00 3530.00 265.00" xmlns="http://www.w3.org/2000/svg" xmlns:xlink="http://www.w3.org/1999/xlink">
<g id="graph0" class="graph" transform="scale(1 1) rotate(0) translate(4 261)">
<title>%3</title>
<polygon fill="white" stroke="transparent" points="-4,4 -4,-261 3526,-261 3526,4 -4,4"/>
<!-- 140260402419584 -->
<g id="node1" class="node">
<title>140260402419584</title>
<polygon fill="none" stroke="black" points="0,-220.5 0,-256.5 382,-256.5 382,-220.5 0,-220.5"/>
<text text-anchor="middle" x="26" y="-234.8" font-family="Times,serif" font-size="14.00">v001</text>
<polyline fill="none" stroke="black" points="52,-220.5 52,-256.5 "/>
<text text-anchor="middle" x="69.5" y="-234.8" font-family="Times,serif" font-size="14.00">L1</text>
<polyline fill="none" stroke="black" points="87,-220.5 87,-256.5 "/>
<text text-anchor="middle" x="106" y="-234.8" font-family="Times,serif" font-size="14.00">N1</text>
<polyline fill="none" stroke="black" points="125,-220.5 125,-256.5 "/>
<text text-anchor="middle" x="144" y="-234.8" font-family="Times,serif" font-size="14.00">w1</text>
<polyline fill="none" stroke="black" points="163,-220.5 163,-256.5 "/>
<text text-anchor="middle" x="214" y="-234.8" font-family="Times,serif" font-size="14.00">data 0.4814</text>
<polyline fill="none" stroke="black" points="265,-220.5 265,-256.5 "/>
<text text-anchor="middle" x="323.5" y="-234.8" font-family="Times,serif" font-size="14.00">grad &#45;19.5240</text>
</g>
<!-- 140260402420496* -->
<g id="node13" class="node">
<title>140260402420496*</title>
<ellipse fill="none" stroke="black" cx="445" cy="-238.5" rx="27" ry="18"/>
<text text-anchor="middle" x="445" y="-234.8" font-family="Times,serif" font-size="14.00">*</text>
</g>
<!-- 140260402419584&#45;&gt;140260402420496* -->
<g id="edge14" class="edge">
<title>140260402419584&#45;&gt;140260402420496*</title>
<path fill="none" stroke="black" d="M382.03,-238.5C391.3,-238.5 399.95,-238.5 407.66,-238.5"/>
<polygon fill="black" stroke="black" points="407.91,-242 417.91,-238.5 407.91,-235 407.91,-242"/>
</g>
<!-- 140260402427504 -->
<g id="node2" class="node">
<title>140260402427504</title>
<polygon fill="none" stroke="black" points="1008.5,-55.5 1008.5,-91.5 1373.5,-91.5 1373.5,-55.5 1008.5,-55.5"/>
<text text-anchor="middle" x="1034.5" y="-69.8" font-family="Times,serif" font-size="14.00">v031</text>
<polyline fill="none" stroke="black" points="1060.5,-55.5 1060.5,-91.5 "/>
<text text-anchor="middle" x="1078" y="-69.8" font-family="Times,serif" font-size="14.00">L1</text>
<polyline fill="none" stroke="black" points="1095.5,-55.5 1095.5,-91.5 "/>
<text text-anchor="middle" x="1114.5" y="-69.8" font-family="Times,serif" font-size="14.00">N2</text>
<polyline fill="none" stroke="black" points="1133.5,-55.5 1133.5,-91.5 "/>
<text text-anchor="middle" x="1146" y="-69.8" font-family="Times,serif" font-size="14.00">a</text>
<polyline fill="none" stroke="black" points="1158.5,-55.5 1158.5,-91.5 "/>
<text text-anchor="middle" x="1212" y="-69.8" font-family="Times,serif" font-size="14.00">data &#45;3.1208</text>
<polyline fill="none" stroke="black" points="1265.5,-55.5 1265.5,-91.5 "/>
<text text-anchor="middle" x="1319.5" y="-69.8" font-family="Times,serif" font-size="14.00">grad &#45;8.2770</text>
</g>
<!-- 140260402427552* -->
<g id="node8" class="node">
<title>140260402427552*</title>
<ellipse fill="none" stroke="black" cx="1445" cy="-60.5" rx="27" ry="18"/>
<text text-anchor="middle" x="1445" y="-56.8" font-family="Times,serif" font-size="14.00">*</text>
</g>
<!-- 140260402427504&#45;&gt;140260402427552* -->
<g id="edge10" class="edge">
<title>140260402427504&#45;&gt;140260402427552*</title>
<path fill="none" stroke="black" d="M1373.8,-64.12C1386.23,-63.48 1397.75,-62.89 1407.71,-62.37"/>
<polygon fill="black" stroke="black" points="1408.07,-65.86 1417.88,-61.85 1407.71,-58.87 1408.07,-65.86"/>
</g>
<!-- 140260402427504+ -->
<g id="node3" class="node">
<title>140260402427504+</title>
<ellipse fill="none" stroke="black" cx="937" cy="-73.5" rx="27" ry="18"/>
<text text-anchor="middle" x="937" y="-69.8" font-family="Times,serif" font-size="14.00">+</text>
</g>
<!-- 140260402427504+&#45;&gt;140260402427504 -->
<g id="edge1" class="edge">
<title>140260402427504+&#45;&gt;140260402427504</title>
<path fill="none" stroke="black" d="M964.02,-73.5C973.54,-73.5 985.18,-73.5 998.12,-73.5"/>
<polygon fill="black" stroke="black" points="998.25,-77 1008.25,-73.5 998.25,-70 998.25,-77"/>
</g>
<!-- 140260402420352 -->
<g id="node4" class="node">
<title>140260402420352</title>
<polygon fill="none" stroke="black" points="1008.5,-190.5 1008.5,-226.5 1373.5,-226.5 1373.5,-190.5 1008.5,-190.5"/>
<text text-anchor="middle" x="1034.5" y="-204.8" font-family="Times,serif" font-size="14.00">v029</text>
<polyline fill="none" stroke="black" points="1060.5,-190.5 1060.5,-226.5 "/>
<text text-anchor="middle" x="1078" y="-204.8" font-family="Times,serif" font-size="14.00">L1</text>
<polyline fill="none" stroke="black" points="1095.5,-190.5 1095.5,-226.5 "/>
<text text-anchor="middle" x="1114.5" y="-204.8" font-family="Times,serif" font-size="14.00">N1</text>
<polyline fill="none" stroke="black" points="1133.5,-190.5 1133.5,-226.5 "/>
<text text-anchor="middle" x="1146" y="-204.8" font-family="Times,serif" font-size="14.00">a</text>
<polyline fill="none" stroke="black" points="1158.5,-190.5 1158.5,-226.5 "/>
<text text-anchor="middle" x="1212" y="-204.8" font-family="Times,serif" font-size="14.00">data &#45;2.2278</text>
<polyline fill="none" stroke="black" points="1265.5,-190.5 1265.5,-226.5 "/>
<text text-anchor="middle" x="1319.5" y="-204.8" font-family="Times,serif" font-size="14.00">grad &#45;4.8810</text>
</g>
<!-- 140260402424720* -->
<g id="node23" class="node">
<title>140260402424720*</title>
<ellipse fill="none" stroke="black" cx="1445" cy="-166.5" rx="27" ry="18"/>
<text text-anchor="middle" x="1445" y="-162.8" font-family="Times,serif" font-size="14.00">*</text>
</g>
<!-- 140260402420352&#45;&gt;140260402424720* -->
<g id="edge13" class="edge">
<title>140260402420352&#45;&gt;140260402424720*</title>
<path fill="none" stroke="black" d="M1330.02,-190.48C1347.56,-187.72 1365.23,-184.71 1382,-181.5 1391.09,-179.76 1400.85,-177.56 1409.87,-175.38"/>
<polygon fill="black" stroke="black" points="1410.81,-178.75 1419.68,-172.96 1409.13,-171.96 1410.81,-178.75"/>
</g>
<!-- 140260402420352+ -->
<g id="node5" class="node">
<title>140260402420352+</title>
<ellipse fill="none" stroke="black" cx="937" cy="-208.5" rx="27" ry="18"/>
<text text-anchor="middle" x="937" y="-204.8" font-family="Times,serif" font-size="14.00">+</text>
</g>
<!-- 140260402420352+&#45;&gt;140260402420352 -->
<g id="edge2" class="edge">
<title>140260402420352+&#45;&gt;140260402420352</title>
<path fill="none" stroke="black" d="M964.02,-208.5C973.54,-208.5 985.18,-208.5 998.12,-208.5"/>
<polygon fill="black" stroke="black" points="998.25,-212 1008.25,-208.5 998.25,-205 998.25,-212"/>
</g>
<!-- 140260402419344 -->
<g id="node6" class="node">
<title>140260402419344</title>
<polygon fill="none" stroke="black" points="1000,-0.5 1000,-36.5 1382,-36.5 1382,-0.5 1000,-0.5"/>
<text text-anchor="middle" x="1026" y="-14.8" font-family="Times,serif" font-size="14.00">v006</text>
<polyline fill="none" stroke="black" points="1052,-0.5 1052,-36.5 "/>
<text text-anchor="middle" x="1069.5" y="-14.8" font-family="Times,serif" font-size="14.00">L2</text>
<polyline fill="none" stroke="black" points="1087,-0.5 1087,-36.5 "/>
<text text-anchor="middle" x="1106" y="-14.8" font-family="Times,serif" font-size="14.00">N1</text>
<polyline fill="none" stroke="black" points="1125,-0.5 1125,-36.5 "/>
<text text-anchor="middle" x="1144" y="-14.8" font-family="Times,serif" font-size="14.00">w2</text>
<polyline fill="none" stroke="black" points="1163,-0.5 1163,-36.5 "/>
<text text-anchor="middle" x="1214" y="-14.8" font-family="Times,serif" font-size="14.00">data 0.3474</text>
<polyline fill="none" stroke="black" points="1265,-0.5 1265,-36.5 "/>
<text text-anchor="middle" x="1323.5" y="-14.8" font-family="Times,serif" font-size="14.00">grad &#45;26.4672</text>
</g>
<!-- 140260402419344&#45;&gt;140260402427552* -->
<g id="edge11" class="edge">
<title>140260402419344&#45;&gt;140260402427552*</title>
<path fill="none" stroke="black" d="M1330.02,-36.52C1347.56,-39.28 1365.23,-42.29 1382,-45.5 1391.09,-47.24 1400.85,-49.44 1409.87,-51.62"/>
<polygon fill="black" stroke="black" points="1409.13,-55.04 1419.68,-54.04 1410.81,-48.25 1409.13,-55.04"/>
</g>
<!-- 140260402427552 -->
<g id="node7" class="node">
<title>140260402427552</title>
<polygon fill="none" stroke="black" points="1906,-42.5 1906,-78.5 2227,-78.5 2227,-42.5 1906,-42.5"/>
<text text-anchor="middle" x="1932" y="-56.8" font-family="Times,serif" font-size="14.00">v034</text>
<polyline fill="none" stroke="black" points="1958,-42.5 1958,-78.5 "/>
<text text-anchor="middle" x="1968.5" y="-56.8" font-family="Times,serif" font-size="14.00"> </text>
<polyline fill="none" stroke="black" points="1979,-42.5 1979,-78.5 "/>
<text text-anchor="middle" x="1989.5" y="-56.8" font-family="Times,serif" font-size="14.00"> </text>
<polyline fill="none" stroke="black" points="2000,-42.5 2000,-78.5 "/>
<text text-anchor="middle" x="2010.5" y="-56.8" font-family="Times,serif" font-size="14.00"> </text>
<polyline fill="none" stroke="black" points="2021,-42.5 2021,-78.5 "/>
<text text-anchor="middle" x="2072" y="-56.8" font-family="Times,serif" font-size="14.00">data 3.0458</text>
<polyline fill="none" stroke="black" points="2123,-42.5 2123,-78.5 "/>
<text text-anchor="middle" x="2175" y="-56.8" font-family="Times,serif" font-size="14.00">grad 8.4808</text>
</g>
<!-- 140260402429280+ -->
<g id="node18" class="node">
<title>140260402429280+</title>
<ellipse fill="none" stroke="black" cx="2647" cy="-87.5" rx="27" ry="18"/>
<text text-anchor="middle" x="2647" y="-83.8" font-family="Times,serif" font-size="14.00">+</text>
</g>
<!-- 140260402427552&#45;&gt;140260402429280+ -->
<g id="edge24" class="edge">
<title>140260402427552&#45;&gt;140260402429280+</title>
<path fill="none" stroke="black" d="M2227.11,-67.95C2358.28,-74.07 2534.3,-82.29 2609.48,-85.8"/>
<polygon fill="black" stroke="black" points="2609.67,-89.31 2619.82,-86.28 2610,-82.32 2609.67,-89.31"/>
</g>
<!-- 140260402427552*&#45;&gt;140260402427552 -->
<g id="edge3" class="edge">
<title>140260402427552*&#45;&gt;140260402427552</title>
<path fill="none" stroke="black" d="M1472.22,-60.5C1543.76,-60.5 1746.85,-60.5 1895.55,-60.5"/>
<polygon fill="black" stroke="black" points="1895.71,-64 1905.71,-60.5 1895.71,-57 1895.71,-64"/>
</g>
<!-- 140260402420448 -->
<g id="node9" class="node">
<title>140260402420448</title>
<polygon fill="none" stroke="black" points="2263,-95.5 2263,-131.5 2584,-131.5 2584,-95.5 2263,-95.5"/>
<text text-anchor="middle" x="2289" y="-109.8" font-family="Times,serif" font-size="14.00">v033</text>
<polyline fill="none" stroke="black" points="2315,-95.5 2315,-131.5 "/>
<text text-anchor="middle" x="2325.5" y="-109.8" font-family="Times,serif" font-size="14.00"> </text>
<polyline fill="none" stroke="black" points="2336,-95.5 2336,-131.5 "/>
<text text-anchor="middle" x="2346.5" y="-109.8" font-family="Times,serif" font-size="14.00"> </text>
<polyline fill="none" stroke="black" points="2357,-95.5 2357,-131.5 "/>
<text text-anchor="middle" x="2367.5" y="-109.8" font-family="Times,serif" font-size="14.00"> </text>
<polyline fill="none" stroke="black" points="2378,-95.5 2378,-131.5 "/>
<text text-anchor="middle" x="2429" y="-109.8" font-family="Times,serif" font-size="14.00">data 1.1946</text>
<polyline fill="none" stroke="black" points="2480,-95.5 2480,-131.5 "/>
<text text-anchor="middle" x="2532" y="-109.8" font-family="Times,serif" font-size="14.00">grad 8.4808</text>
</g>
<!-- 140260402420448&#45;&gt;140260402429280+ -->
<g id="edge15" class="edge">
<title>140260402420448&#45;&gt;140260402429280+</title>
<path fill="none" stroke="black" d="M2578.04,-95.48C2589.67,-94.11 2600.55,-92.83 2610.06,-91.72"/>
<polygon fill="black" stroke="black" points="2610.64,-95.17 2620.17,-90.53 2609.83,-88.22 2610.64,-95.17"/>
</g>
<!-- 140260402420448+ -->
<g id="node10" class="node">
<title>140260402420448+</title>
<ellipse fill="none" stroke="black" cx="2066.5" cy="-115.5" rx="27" ry="18"/>
<text text-anchor="middle" x="2066.5" y="-111.8" font-family="Times,serif" font-size="14.00">+</text>
</g>
<!-- 140260402420448+&#45;&gt;140260402420448 -->
<g id="edge4" class="edge">
<title>140260402420448+&#45;&gt;140260402420448</title>
<path fill="none" stroke="black" d="M2093.6,-115.35C2127.81,-115.16 2190.72,-114.81 2252.43,-114.46"/>
<polygon fill="black" stroke="black" points="2252.74,-117.96 2262.72,-114.4 2252.7,-110.96 2252.74,-117.96"/>
</g>
<!-- 140260402422512 -->
<g id="node11" class="node">
<title>140260402422512</title>
<polygon fill="none" stroke="black" points="508,-165.5 508,-201.5 874,-201.5 874,-165.5 508,-165.5"/>
<text text-anchor="middle" x="534" y="-179.8" font-family="Times,serif" font-size="14.00">v002</text>
<polyline fill="none" stroke="black" points="560,-165.5 560,-201.5 "/>
<text text-anchor="middle" x="577.5" y="-179.8" font-family="Times,serif" font-size="14.00">L1</text>
<polyline fill="none" stroke="black" points="595,-165.5 595,-201.5 "/>
<text text-anchor="middle" x="614" y="-179.8" font-family="Times,serif" font-size="14.00">N1</text>
<polyline fill="none" stroke="black" points="633,-165.5 633,-201.5 "/>
<text text-anchor="middle" x="646" y="-179.8" font-family="Times,serif" font-size="14.00">b</text>
<polyline fill="none" stroke="black" points="659,-165.5 659,-201.5 "/>
<text text-anchor="middle" x="712.5" y="-179.8" font-family="Times,serif" font-size="14.00">data &#45;0.0046</text>
<polyline fill="none" stroke="black" points="766,-165.5 766,-201.5 "/>
<text text-anchor="middle" x="820" y="-179.8" font-family="Times,serif" font-size="14.00">grad &#45;4.8810</text>
</g>
<!-- 140260402422512&#45;&gt;140260402420352+ -->
<g id="edge19" class="edge">
<title>140260402422512&#45;&gt;140260402420352+</title>
<path fill="none" stroke="black" d="M867.71,-201.5C879.55,-202.72 890.55,-203.84 900.11,-204.82"/>
<polygon fill="black" stroke="black" points="899.95,-208.33 910.26,-205.86 900.67,-201.36 899.95,-208.33"/>
</g>
<!-- 140260402420496 -->
<g id="node12" class="node">
<title>140260402420496</title>
<polygon fill="none" stroke="black" points="526,-220.5 526,-256.5 856,-256.5 856,-220.5 526,-220.5"/>
<text text-anchor="middle" x="552" y="-234.8" font-family="Times,serif" font-size="14.00">v028</text>
<polyline fill="none" stroke="black" points="578,-220.5 578,-256.5 "/>
<text text-anchor="middle" x="588.5" y="-234.8" font-family="Times,serif" font-size="14.00"> </text>
<polyline fill="none" stroke="black" points="599,-220.5 599,-256.5 "/>
<text text-anchor="middle" x="609.5" y="-234.8" font-family="Times,serif" font-size="14.00"> </text>
<polyline fill="none" stroke="black" points="620,-220.5 620,-256.5 "/>
<text text-anchor="middle" x="630.5" y="-234.8" font-family="Times,serif" font-size="14.00"> </text>
<polyline fill="none" stroke="black" points="641,-220.5 641,-256.5 "/>
<text text-anchor="middle" x="694.5" y="-234.8" font-family="Times,serif" font-size="14.00">data &#45;1.9791</text>
<polyline fill="none" stroke="black" points="748,-220.5 748,-256.5 "/>
<text text-anchor="middle" x="802" y="-234.8" font-family="Times,serif" font-size="14.00">grad &#45;4.8810</text>
</g>
<!-- 140260402420496&#45;&gt;140260402420352+ -->
<g id="edge25" class="edge">
<title>140260402420496&#45;&gt;140260402420352+</title>
<path fill="none" stroke="black" d="M838.51,-220.49C861.48,-217.66 883.24,-214.99 900.34,-212.88"/>
<polygon fill="black" stroke="black" points="900.87,-216.35 910.37,-211.65 900.01,-209.4 900.87,-216.35"/>
</g>
<!-- 140260402420496*&#45;&gt;140260402420496 -->
<g id="edge5" class="edge">
<title>140260402420496*&#45;&gt;140260402420496</title>
<path fill="none" stroke="black" d="M472.11,-238.5C483.98,-238.5 499.12,-238.5 515.88,-238.5"/>
<polygon fill="black" stroke="black" points="515.92,-242 525.92,-238.5 515.92,-235 515.92,-242"/>
</g>
<!-- 140260402419632 -->
<g id="node14" class="node">
<title>140260402419632</title>
<polygon fill="none" stroke="black" points="1508,-93.5 1508,-129.5 1870,-129.5 1870,-93.5 1508,-93.5"/>
<text text-anchor="middle" x="1534" y="-107.8" font-family="Times,serif" font-size="14.00">v007</text>
<polyline fill="none" stroke="black" points="1560,-93.5 1560,-129.5 "/>
<text text-anchor="middle" x="1577.5" y="-107.8" font-family="Times,serif" font-size="14.00">L2</text>
<polyline fill="none" stroke="black" points="1595,-93.5 1595,-129.5 "/>
<text text-anchor="middle" x="1614" y="-107.8" font-family="Times,serif" font-size="14.00">N1</text>
<polyline fill="none" stroke="black" points="1633,-93.5 1633,-129.5 "/>
<text text-anchor="middle" x="1646" y="-107.8" font-family="Times,serif" font-size="14.00">b</text>
<polyline fill="none" stroke="black" points="1659,-93.5 1659,-129.5 "/>
<text text-anchor="middle" x="1712.5" y="-107.8" font-family="Times,serif" font-size="14.00">data &#45;0.5116</text>
<polyline fill="none" stroke="black" points="1766,-93.5 1766,-129.5 "/>
<text text-anchor="middle" x="1818" y="-107.8" font-family="Times,serif" font-size="14.00">grad 8.4808</text>
</g>
<!-- 140260402419632&#45;&gt;140260402420448+ -->
<g id="edge26" class="edge">
<title>140260402419632&#45;&gt;140260402420448+</title>
<path fill="none" stroke="black" d="M1870.05,-113.42C1930.18,-114.06 1991.37,-114.71 2028.88,-115.11"/>
<polygon fill="black" stroke="black" points="2029.24,-118.61 2039.27,-115.22 2029.31,-111.61 2029.24,-118.61"/>
</g>
<!-- 140260402421072 -->
<g id="node15" class="node">
<title>140260402421072</title>
<polygon fill="none" stroke="black" points="3192,-69.5 3192,-105.5 3522,-105.5 3522,-69.5 3192,-69.5"/>
<text text-anchor="middle" x="3218" y="-83.8" font-family="Times,serif" font-size="14.00">v036</text>
<polyline fill="none" stroke="black" points="3244,-69.5 3244,-105.5 "/>
<text text-anchor="middle" x="3254.5" y="-83.8" font-family="Times,serif" font-size="14.00"> </text>
<polyline fill="none" stroke="black" points="3265,-69.5 3265,-105.5 "/>
<text text-anchor="middle" x="3275.5" y="-83.8" font-family="Times,serif" font-size="14.00"> </text>
<polyline fill="none" stroke="black" points="3286,-69.5 3286,-105.5 "/>
<text text-anchor="middle" x="3296.5" y="-83.8" font-family="Times,serif" font-size="14.00">l</text>
<polyline fill="none" stroke="black" points="3307,-69.5 3307,-105.5 "/>
<text text-anchor="middle" x="3362.5" y="-83.8" font-family="Times,serif" font-size="14.00">data 17.9812</text>
<polyline fill="none" stroke="black" points="3418,-69.5 3418,-105.5 "/>
<text text-anchor="middle" x="3470" y="-83.8" font-family="Times,serif" font-size="14.00">grad 1.0000</text>
</g>
<!-- 140260402421072* -->
<g id="node16" class="node">
<title>140260402421072*</title>
<ellipse fill="none" stroke="black" cx="3129" cy="-87.5" rx="27" ry="18"/>
<text text-anchor="middle" x="3129" y="-83.8" font-family="Times,serif" font-size="14.00">*</text>
</g>
<!-- 140260402421072*&#45;&gt;140260402421072 -->
<g id="edge6" class="edge">
<title>140260402421072*&#45;&gt;140260402421072</title>
<path fill="none" stroke="black" d="M3156.37,-87.5C3163.71,-87.5 3172.28,-87.5 3181.65,-87.5"/>
<polygon fill="black" stroke="black" points="3181.7,-91 3191.7,-87.5 3181.7,-84 3181.7,-91"/>
</g>
<!-- 140260402429280 -->
<g id="node17" class="node">
<title>140260402429280</title>
<polygon fill="none" stroke="black" points="2710,-69.5 2710,-105.5 3066,-105.5 3066,-69.5 2710,-69.5"/>
<text text-anchor="middle" x="2736" y="-83.8" font-family="Times,serif" font-size="14.00">v035</text>
<polyline fill="none" stroke="black" points="2762,-69.5 2762,-105.5 "/>
<text text-anchor="middle" x="2779.5" y="-83.8" font-family="Times,serif" font-size="14.00">L2</text>
<polyline fill="none" stroke="black" points="2797,-69.5 2797,-105.5 "/>
<text text-anchor="middle" x="2816" y="-83.8" font-family="Times,serif" font-size="14.00">N1</text>
<polyline fill="none" stroke="black" points="2835,-69.5 2835,-105.5 "/>
<text text-anchor="middle" x="2847.5" y="-83.8" font-family="Times,serif" font-size="14.00">a</text>
<polyline fill="none" stroke="black" points="2860,-69.5 2860,-105.5 "/>
<text text-anchor="middle" x="2911" y="-83.8" font-family="Times,serif" font-size="14.00">data 4.2404</text>
<polyline fill="none" stroke="black" points="2962,-69.5 2962,-105.5 "/>
<text text-anchor="middle" x="3014" y="-83.8" font-family="Times,serif" font-size="14.00">grad 8.4808</text>
</g>
<!-- 140260402429280&#45;&gt;140260402421072* -->
<g id="edge21" class="edge">
<title>140260402429280&#45;&gt;140260402421072*</title>
<path fill="none" stroke="black" d="M3066.14,-87.5C3075.34,-87.5 3083.94,-87.5 3091.63,-87.5"/>
<polygon fill="black" stroke="black" points="3091.86,-91 3101.86,-87.5 3091.86,-84 3091.86,-91"/>
</g>
<!-- 140260402429280+&#45;&gt;140260402429280 -->
<g id="edge7" class="edge">
<title>140260402429280+&#45;&gt;140260402429280</title>
<path fill="none" stroke="black" d="M2674.03,-87.5C2681.4,-87.5 2690.02,-87.5 2699.49,-87.5"/>
<polygon fill="black" stroke="black" points="2699.66,-91 2709.66,-87.5 2699.66,-84 2699.66,-91"/>
</g>
<!-- 140260402420592 -->
<g id="node19" class="node">
<title>140260402420592</title>
<polygon fill="none" stroke="black" points="526,-110.5 526,-146.5 856,-146.5 856,-110.5 526,-110.5"/>
<text text-anchor="middle" x="552" y="-124.8" font-family="Times,serif" font-size="14.00">v030</text>
<polyline fill="none" stroke="black" points="578,-110.5 578,-146.5 "/>
<text text-anchor="middle" x="588.5" y="-124.8" font-family="Times,serif" font-size="14.00"> </text>
<polyline fill="none" stroke="black" points="599,-110.5 599,-146.5 "/>
<text text-anchor="middle" x="609.5" y="-124.8" font-family="Times,serif" font-size="14.00"> </text>
<polyline fill="none" stroke="black" points="620,-110.5 620,-146.5 "/>
<text text-anchor="middle" x="630.5" y="-124.8" font-family="Times,serif" font-size="14.00"> </text>
<polyline fill="none" stroke="black" points="641,-110.5 641,-146.5 "/>
<text text-anchor="middle" x="694.5" y="-124.8" font-family="Times,serif" font-size="14.00">data &#45;2.8196</text>
<polyline fill="none" stroke="black" points="748,-110.5 748,-146.5 "/>
<text text-anchor="middle" x="802" y="-124.8" font-family="Times,serif" font-size="14.00">grad &#45;8.2770</text>
</g>
<!-- 140260402420592&#45;&gt;140260402427504+ -->
<g id="edge20" class="edge">
<title>140260402420592&#45;&gt;140260402427504+</title>
<path fill="none" stroke="black" d="M833.38,-110.44C847.21,-107.57 860.95,-104.28 874,-100.5 884.68,-97.41 895.95,-92.91 905.9,-88.46"/>
<polygon fill="black" stroke="black" points="907.37,-91.64 914.98,-84.27 904.44,-85.29 907.37,-91.64"/>
</g>
<!-- 140260402420592* -->
<g id="node20" class="node">
<title>140260402420592*</title>
<ellipse fill="none" stroke="black" cx="445" cy="-128.5" rx="27" ry="18"/>
<text text-anchor="middle" x="445" y="-124.8" font-family="Times,serif" font-size="14.00">*</text>
</g>
<!-- 140260402420592*&#45;&gt;140260402420592 -->
<g id="edge8" class="edge">
<title>140260402420592*&#45;&gt;140260402420592</title>
<path fill="none" stroke="black" d="M472.11,-128.5C483.98,-128.5 499.12,-128.5 515.88,-128.5"/>
<polygon fill="black" stroke="black" points="515.92,-132 525.92,-128.5 515.92,-125 515.92,-132"/>
</g>
<!-- 140260402422656 -->
<g id="node21" class="node">
<title>140260402422656</title>
<polygon fill="none" stroke="black" points="0,-110.5 0,-146.5 382,-146.5 382,-110.5 0,-110.5"/>
<text text-anchor="middle" x="26" y="-124.8" font-family="Times,serif" font-size="14.00">v003</text>
<polyline fill="none" stroke="black" points="52,-110.5 52,-146.5 "/>
<text text-anchor="middle" x="69.5" y="-124.8" font-family="Times,serif" font-size="14.00">L1</text>
<polyline fill="none" stroke="black" points="87,-110.5 87,-146.5 "/>
<text text-anchor="middle" x="106" y="-124.8" font-family="Times,serif" font-size="14.00">N2</text>
<polyline fill="none" stroke="black" points="125,-110.5 125,-146.5 "/>
<text text-anchor="middle" x="144" y="-124.8" font-family="Times,serif" font-size="14.00">w1</text>
<polyline fill="none" stroke="black" points="163,-110.5 163,-146.5 "/>
<text text-anchor="middle" x="214" y="-124.8" font-family="Times,serif" font-size="14.00">data 0.9505</text>
<polyline fill="none" stroke="black" points="265,-110.5 265,-146.5 "/>
<text text-anchor="middle" x="323.5" y="-124.8" font-family="Times,serif" font-size="14.00">grad &#45;33.1079</text>
</g>
<!-- 140260402422656&#45;&gt;140260402420592* -->
<g id="edge16" class="edge">
<title>140260402422656&#45;&gt;140260402420592*</title>
<path fill="none" stroke="black" d="M382.03,-128.5C391.3,-128.5 399.95,-128.5 407.66,-128.5"/>
<polygon fill="black" stroke="black" points="407.91,-132 417.91,-128.5 407.91,-125 407.91,-132"/>
</g>
<!-- 140260402424720 -->
<g id="node22" class="node">
<title>140260402424720</title>
<polygon fill="none" stroke="black" points="1528.5,-148.5 1528.5,-184.5 1849.5,-184.5 1849.5,-148.5 1528.5,-148.5"/>
<text text-anchor="middle" x="1554.5" y="-162.8" font-family="Times,serif" font-size="14.00">v032</text>
<polyline fill="none" stroke="black" points="1580.5,-148.5 1580.5,-184.5 "/>
<text text-anchor="middle" x="1591" y="-162.8" font-family="Times,serif" font-size="14.00"> </text>
<polyline fill="none" stroke="black" points="1601.5,-148.5 1601.5,-184.5 "/>
<text text-anchor="middle" x="1612" y="-162.8" font-family="Times,serif" font-size="14.00"> </text>
<polyline fill="none" stroke="black" points="1622.5,-148.5 1622.5,-184.5 "/>
<text text-anchor="middle" x="1633" y="-162.8" font-family="Times,serif" font-size="14.00"> </text>
<polyline fill="none" stroke="black" points="1643.5,-148.5 1643.5,-184.5 "/>
<text text-anchor="middle" x="1694.5" y="-162.8" font-family="Times,serif" font-size="14.00">data 1.2822</text>
<polyline fill="none" stroke="black" points="1745.5,-148.5 1745.5,-184.5 "/>
<text text-anchor="middle" x="1797.5" y="-162.8" font-family="Times,serif" font-size="14.00">grad 8.4808</text>
</g>
<!-- 140260402424720&#45;&gt;140260402420448+ -->
<g id="edge17" class="edge">
<title>140260402424720&#45;&gt;140260402420448+</title>
<path fill="none" stroke="black" d="M1822.65,-148.48C1896.43,-138.46 1982.67,-126.75 2029.96,-120.33"/>
<polygon fill="black" stroke="black" points="2030.56,-123.78 2040,-118.96 2029.62,-116.84 2030.56,-123.78"/>
</g>
<!-- 140260402424720*&#45;&gt;140260402424720 -->
<g id="edge9" class="edge">
<title>140260402424720*&#45;&gt;140260402424720</title>
<path fill="none" stroke="black" d="M1472.36,-166.5C1484.7,-166.5 1500.53,-166.5 1518,-166.5"/>
<polygon fill="black" stroke="black" points="1518.46,-170 1528.46,-166.5 1518.46,-163 1518.46,-170"/>
</g>
<!-- 140260402422704 -->
<g id="node24" class="node">
<title>140260402422704</title>
<polygon fill="none" stroke="black" points="510.5,-55.5 510.5,-91.5 871.5,-91.5 871.5,-55.5 510.5,-55.5"/>
<text text-anchor="middle" x="536.5" y="-69.8" font-family="Times,serif" font-size="14.00">v004</text>
<polyline fill="none" stroke="black" points="562.5,-55.5 562.5,-91.5 "/>
<text text-anchor="middle" x="580" y="-69.8" font-family="Times,serif" font-size="14.00">L1</text>
<polyline fill="none" stroke="black" points="597.5,-55.5 597.5,-91.5 "/>
<text text-anchor="middle" x="616.5" y="-69.8" font-family="Times,serif" font-size="14.00">N2</text>
<polyline fill="none" stroke="black" points="635.5,-55.5 635.5,-91.5 "/>
<text text-anchor="middle" x="648.5" y="-69.8" font-family="Times,serif" font-size="14.00">b</text>
<polyline fill="none" stroke="black" points="661.5,-55.5 661.5,-91.5 "/>
<text text-anchor="middle" x="712.5" y="-69.8" font-family="Times,serif" font-size="14.00">data 0.1126</text>
<polyline fill="none" stroke="black" points="763.5,-55.5 763.5,-91.5 "/>
<text text-anchor="middle" x="817.5" y="-69.8" font-family="Times,serif" font-size="14.00">grad &#45;8.2770</text>
</g>
<!-- 140260402422704&#45;&gt;140260402427504+ -->
<g id="edge18" class="edge">
<title>140260402422704&#45;&gt;140260402427504+</title>
<path fill="none" stroke="black" d="M871.57,-73.5C881.86,-73.5 891.44,-73.5 899.91,-73.5"/>
<polygon fill="black" stroke="black" points="899.99,-77 909.99,-73.5 899.99,-70 899.99,-77"/>
</g>
<!-- 140260402419680 -->
<g id="node25" class="node">
<title>140260402419680</title>
<polygon fill="none" stroke="black" points="1000,-135.5 1000,-171.5 1382,-171.5 1382,-135.5 1000,-135.5"/>
<text text-anchor="middle" x="1026" y="-149.8" font-family="Times,serif" font-size="14.00">v005</text>
<polyline fill="none" stroke="black" points="1052,-135.5 1052,-171.5 "/>
<text text-anchor="middle" x="1069.5" y="-149.8" font-family="Times,serif" font-size="14.00">L2</text>
<polyline fill="none" stroke="black" points="1087,-135.5 1087,-171.5 "/>
<text text-anchor="middle" x="1106" y="-149.8" font-family="Times,serif" font-size="14.00">N1</text>
<polyline fill="none" stroke="black" points="1125,-135.5 1125,-171.5 "/>
<text text-anchor="middle" x="1144" y="-149.8" font-family="Times,serif" font-size="14.00">w1</text>
<polyline fill="none" stroke="black" points="1163,-135.5 1163,-171.5 "/>
<text text-anchor="middle" x="1214" y="-149.8" font-family="Times,serif" font-size="14.00">data 0.3691</text>
<polyline fill="none" stroke="black" points="1265,-135.5 1265,-171.5 "/>
<text text-anchor="middle" x="1323.5" y="-149.8" font-family="Times,serif" font-size="14.00">grad &#45;18.8936</text>
</g>
<!-- 140260402419680&#45;&gt;140260402424720* -->
<g id="edge23" class="edge">
<title>140260402419680&#45;&gt;140260402424720*</title>
<path fill="none" stroke="black" d="M1382.03,-163.3C1391.41,-163.79 1400.15,-164.24 1407.93,-164.64"/>
<polygon fill="black" stroke="black" points="1407.75,-168.13 1417.91,-165.15 1408.11,-161.14 1407.75,-168.13"/>
</g>
<!-- 140260953974256 -->
<g id="node26" class="node">
<title>140260953974256</title>
<polygon fill="none" stroke="black" points="26,-165.5 26,-201.5 356,-201.5 356,-165.5 26,-165.5"/>
<text text-anchor="middle" x="52" y="-179.8" font-family="Times,serif" font-size="14.00">v008</text>
<polyline fill="none" stroke="black" points="78,-165.5 78,-201.5 "/>
<text text-anchor="middle" x="88.5" y="-179.8" font-family="Times,serif" font-size="14.00"> </text>
<polyline fill="none" stroke="black" points="99,-165.5 99,-201.5 "/>
<text text-anchor="middle" x="109.5" y="-179.8" font-family="Times,serif" font-size="14.00"> </text>
<polyline fill="none" stroke="black" points="120,-165.5 120,-201.5 "/>
<text text-anchor="middle" x="135" y="-179.8" font-family="Times,serif" font-size="14.00">i1</text>
<polyline fill="none" stroke="black" points="150,-165.5 150,-201.5 "/>
<text text-anchor="middle" x="201" y="-179.8" font-family="Times,serif" font-size="14.00">data 4.0000</text>
<polyline fill="none" stroke="black" points="252,-165.5 252,-201.5 "/>
<text text-anchor="middle" x="304" y="-179.8" font-family="Times,serif" font-size="14.00">grad 8.2494</text>
</g>
<!-- 140260953974256&#45;&gt;140260402420496* -->
<g id="edge12" class="edge">
<title>140260953974256&#45;&gt;140260402420496*</title>
<path fill="none" stroke="black" d="M340.62,-201.52C354.71,-204.39 368.7,-207.7 382,-211.5 392.69,-214.56 403.96,-219.05 413.92,-223.49"/>
<polygon fill="black" stroke="black" points="412.45,-226.67 422.99,-227.69 415.39,-220.32 412.45,-226.67"/>
</g>
<!-- 140260953974256&#45;&gt;140260402420592* -->
<g id="edge22" class="edge">
<title>140260953974256&#45;&gt;140260402420592*</title>
<path fill="none" stroke="black" d="M345.76,-165.47C358.11,-162.87 370.32,-159.89 382,-156.5 392.83,-153.35 404.21,-148.66 414.21,-144.01"/>
<polygon fill="black" stroke="black" points="415.84,-147.11 423.33,-139.62 412.8,-140.81 415.84,-147.11"/>
</g>
</g>
</svg>
