<?xml version="1.0" encoding="UTF-8" standalone="no"?>
<!DOCTYPE svg PUBLIC "-//W3C//DTD SVG 1.1//EN"
 "http://www.w3.org/Graphics/SVG/1.1/DTD/svg11.dtd">
<!-- Generated by graphviz version 2.43.0 (0)
 -->
<!-- Title: %3 Pages: 1 -->
<svg width="3513pt" height="210pt"
 viewBox="0.00 0.00 3512.79 210.00" xmlns="http://www.w3.org/2000/svg" xmlns:xlink="http://www.w3.org/1999/xlink">
<g id="graph0" class="graph" transform="scale(1 1) rotate(0) translate(4 206)">
<title>%3</title>
<polygon fill="white" stroke="transparent" points="-4,4 -4,-206 3508.79,-206 3508.79,4 -4,4"/>
<!-- 140106800144896 -->
<g id="node1" class="node">
<title>140106800144896</title>
<polygon fill="none" stroke="black" points="1481.79,-55.5 1481.79,-91.5 1806.79,-91.5 1806.79,-55.5 1481.79,-55.5"/>
<text text-anchor="middle" x="1509.79" y="-69.8" font-family="Times,serif" font-size="14.00">val12</text>
<polyline fill="none" stroke="black" points="1537.79,-55.5 1537.79,-91.5 "/>
<text text-anchor="middle" x="1548.29" y="-69.8" font-family="Times,serif" font-size="14.00"> </text>
<polyline fill="none" stroke="black" points="1558.79,-55.5 1558.79,-91.5 "/>
<text text-anchor="middle" x="1569.29" y="-69.8" font-family="Times,serif" font-size="14.00"> </text>
<polyline fill="none" stroke="black" points="1579.79,-55.5 1579.79,-91.5 "/>
<text text-anchor="middle" x="1590.29" y="-69.8" font-family="Times,serif" font-size="14.00"> </text>
<polyline fill="none" stroke="black" points="1600.79,-55.5 1600.79,-91.5 "/>
<text text-anchor="middle" x="1651.79" y="-69.8" font-family="Times,serif" font-size="14.00">data 2.1000</text>
<polyline fill="none" stroke="black" points="1702.79,-55.5 1702.79,-91.5 "/>
<text text-anchor="middle" x="1754.79" y="-69.8" font-family="Times,serif" font-size="14.00">grad 0.4000</text>
</g>
<!-- 140106800148208* -->
<g id="node15" class="node">
<title>140106800148208*</title>
<ellipse fill="none" stroke="black" cx="1887.79" cy="-73.5" rx="27" ry="18"/>
<text text-anchor="middle" x="1887.79" y="-69.8" font-family="Times,serif" font-size="14.00">*</text>
</g>
<!-- 140106800144896&#45;&gt;140106800148208* -->
<g id="edge11" class="edge">
<title>140106800144896&#45;&gt;140106800148208*</title>
<path fill="none" stroke="black" d="M1807.05,-73.5C1823,-73.5 1837.86,-73.5 1850.34,-73.5"/>
<polygon fill="black" stroke="black" points="1850.65,-77 1860.65,-73.5 1850.65,-70 1850.65,-77"/>
</g>
<!-- 140106800144896ReLU -->
<g id="node2" class="node">
<title>140106800144896ReLU</title>
<ellipse fill="none" stroke="black" cx="1391.4" cy="-73.5" rx="36.29" ry="18"/>
<text text-anchor="middle" x="1391.4" y="-69.8" font-family="Times,serif" font-size="14.00">ReLU</text>
</g>
<!-- 140106800144896ReLU&#45;&gt;140106800144896 -->
<g id="edge1" class="edge">
<title>140106800144896ReLU&#45;&gt;140106800144896</title>
<path fill="none" stroke="black" d="M1427.81,-73.5C1440.28,-73.5 1455.27,-73.5 1471.45,-73.5"/>
<polygon fill="black" stroke="black" points="1471.67,-77 1481.67,-73.5 1471.67,-70 1471.67,-77"/>
</g>
<!-- 140106800150128 -->
<g id="node3" class="node">
<title>140106800150128</title>
<polygon fill="none" stroke="black" points="499,-165.5 499,-201.5 824,-201.5 824,-165.5 499,-165.5"/>
<text text-anchor="middle" x="527" y="-179.8" font-family="Times,serif" font-size="14.00">val13</text>
<polyline fill="none" stroke="black" points="555,-165.5 555,-201.5 "/>
<text text-anchor="middle" x="565.5" y="-179.8" font-family="Times,serif" font-size="14.00"> </text>
<polyline fill="none" stroke="black" points="576,-165.5 576,-201.5 "/>
<text text-anchor="middle" x="586.5" y="-179.8" font-family="Times,serif" font-size="14.00"> </text>
<polyline fill="none" stroke="black" points="597,-165.5 597,-201.5 "/>
<text text-anchor="middle" x="607.5" y="-179.8" font-family="Times,serif" font-size="14.00"> </text>
<polyline fill="none" stroke="black" points="618,-165.5 618,-201.5 "/>
<text text-anchor="middle" x="669" y="-179.8" font-family="Times,serif" font-size="14.00">data 1.4000</text>
<polyline fill="none" stroke="black" points="720,-165.5 720,-201.5 "/>
<text text-anchor="middle" x="772" y="-179.8" font-family="Times,serif" font-size="14.00">grad 0.8000</text>
</g>
<!-- 140106800140480+ -->
<g id="node11" class="node">
<title>140106800140480+</title>
<ellipse fill="none" stroke="black" cx="899" cy="-128.5" rx="27" ry="18"/>
<text text-anchor="middle" x="899" y="-124.8" font-family="Times,serif" font-size="14.00">+</text>
</g>
<!-- 140106800150128&#45;&gt;140106800140480+ -->
<g id="edge23" class="edge">
<title>140106800150128&#45;&gt;140106800140480+</title>
<path fill="none" stroke="black" d="M800.58,-165.5C812.66,-162.88 824.61,-159.89 836,-156.5 846.81,-153.28 858.18,-148.57 868.19,-143.93"/>
<polygon fill="black" stroke="black" points="869.81,-147.03 877.31,-139.54 866.78,-140.72 869.81,-147.03"/>
</g>
<!-- 140106800150128* -->
<g id="node4" class="node">
<title>140106800150128*</title>
<ellipse fill="none" stroke="black" cx="424" cy="-183.5" rx="27" ry="18"/>
<text text-anchor="middle" x="424" y="-179.8" font-family="Times,serif" font-size="14.00">*</text>
</g>
<!-- 140106800150128*&#45;&gt;140106800150128 -->
<g id="edge2" class="edge">
<title>140106800150128*&#45;&gt;140106800150128</title>
<path fill="none" stroke="black" d="M451.1,-183.5C461.51,-183.5 474.43,-183.5 488.69,-183.5"/>
<polygon fill="black" stroke="black" points="488.77,-187 498.77,-183.5 488.77,-180 488.77,-187"/>
</g>
<!-- 140106800150656 -->
<g id="node5" class="node">
<title>140106800150656</title>
<polygon fill="none" stroke="black" points="2696.79,-59.5 2696.79,-95.5 3021.79,-95.5 3021.79,-59.5 2696.79,-59.5"/>
<text text-anchor="middle" x="2724.79" y="-73.8" font-family="Times,serif" font-size="14.00">val17</text>
<polyline fill="none" stroke="black" points="2752.79,-59.5 2752.79,-95.5 "/>
<text text-anchor="middle" x="2763.29" y="-73.8" font-family="Times,serif" font-size="14.00"> </text>
<polyline fill="none" stroke="black" points="2773.79,-59.5 2773.79,-95.5 "/>
<text text-anchor="middle" x="2784.29" y="-73.8" font-family="Times,serif" font-size="14.00"> </text>
<polyline fill="none" stroke="black" points="2794.79,-59.5 2794.79,-95.5 "/>
<text text-anchor="middle" x="2805.29" y="-73.8" font-family="Times,serif" font-size="14.00"> </text>
<polyline fill="none" stroke="black" points="2815.79,-59.5 2815.79,-95.5 "/>
<text text-anchor="middle" x="2866.79" y="-73.8" font-family="Times,serif" font-size="14.00">data 0.8400</text>
<polyline fill="none" stroke="black" points="2917.79,-59.5 2917.79,-95.5 "/>
<text text-anchor="middle" x="2969.79" y="-73.8" font-family="Times,serif" font-size="14.00">grad 1.0000</text>
</g>
<!-- 140106800144176+ -->
<g id="node18" class="node">
<title>140106800144176+</title>
<ellipse fill="none" stroke="black" cx="3084.79" cy="-100.5" rx="27" ry="18"/>
<text text-anchor="middle" x="3084.79" y="-96.8" font-family="Times,serif" font-size="14.00">+</text>
</g>
<!-- 140106800150656&#45;&gt;140106800144176+ -->
<g id="edge25" class="edge">
<title>140106800150656&#45;&gt;140106800144176+</title>
<path fill="none" stroke="black" d="M3021.83,-94.12C3031.26,-95.09 3040.09,-96 3047.97,-96.81"/>
<polygon fill="black" stroke="black" points="3047.78,-100.31 3058.08,-97.85 3048.49,-93.35 3047.78,-100.31"/>
</g>
<!-- 140106800150656+ -->
<g id="node6" class="node">
<title>140106800150656+</title>
<ellipse fill="none" stroke="black" cx="2498.29" cy="-73.5" rx="27" ry="18"/>
<text text-anchor="middle" x="2498.29" y="-69.8" font-family="Times,serif" font-size="14.00">+</text>
</g>
<!-- 140106800150656+&#45;&gt;140106800150656 -->
<g id="edge3" class="edge">
<title>140106800150656+&#45;&gt;140106800150656</title>
<path fill="none" stroke="black" d="M2525.4,-73.79C2559.94,-74.18 2623.78,-74.89 2686.39,-75.58"/>
<polygon fill="black" stroke="black" points="2686.38,-79.08 2696.42,-75.7 2686.46,-72.09 2686.38,-79.08"/>
</g>
<!-- 140106800149648 -->
<g id="node7" class="node">
<title>140106800149648</title>
<polygon fill="none" stroke="black" points="499,-55.5 499,-91.5 824,-91.5 824,-55.5 499,-55.5"/>
<text text-anchor="middle" x="527" y="-69.8" font-family="Times,serif" font-size="14.00">val10</text>
<polyline fill="none" stroke="black" points="555,-55.5 555,-91.5 "/>
<text text-anchor="middle" x="565.5" y="-69.8" font-family="Times,serif" font-size="14.00"> </text>
<polyline fill="none" stroke="black" points="576,-55.5 576,-91.5 "/>
<text text-anchor="middle" x="586.5" y="-69.8" font-family="Times,serif" font-size="14.00"> </text>
<polyline fill="none" stroke="black" points="597,-55.5 597,-91.5 "/>
<text text-anchor="middle" x="607.5" y="-69.8" font-family="Times,serif" font-size="14.00"> </text>
<polyline fill="none" stroke="black" points="618,-55.5 618,-91.5 "/>
<text text-anchor="middle" x="669" y="-69.8" font-family="Times,serif" font-size="14.00">data 2.1000</text>
<polyline fill="none" stroke="black" points="720,-55.5 720,-91.5 "/>
<text text-anchor="middle" x="772" y="-69.8" font-family="Times,serif" font-size="14.00">grad 0.4000</text>
</g>
<!-- 140106800137168+ -->
<g id="node26" class="node">
<title>140106800137168+</title>
<ellipse fill="none" stroke="black" cx="899" cy="-73.5" rx="27" ry="18"/>
<text text-anchor="middle" x="899" y="-69.8" font-family="Times,serif" font-size="14.00">+</text>
</g>
<!-- 140106800149648&#45;&gt;140106800137168+ -->
<g id="edge12" class="edge">
<title>140106800149648&#45;&gt;140106800137168+</title>
<path fill="none" stroke="black" d="M824.13,-73.5C837.86,-73.5 850.65,-73.5 861.61,-73.5"/>
<polygon fill="black" stroke="black" points="861.92,-77 871.92,-73.5 861.92,-70 861.92,-77"/>
</g>
<!-- 140106800149648* -->
<g id="node8" class="node">
<title>140106800149648*</title>
<ellipse fill="none" stroke="black" cx="424" cy="-73.5" rx="27" ry="18"/>
<text text-anchor="middle" x="424" y="-69.8" font-family="Times,serif" font-size="14.00">*</text>
</g>
<!-- 140106800149648*&#45;&gt;140106800149648 -->
<g id="edge4" class="edge">
<title>140106800149648*&#45;&gt;140106800149648</title>
<path fill="none" stroke="black" d="M451.1,-73.5C461.51,-73.5 474.43,-73.5 488.69,-73.5"/>
<polygon fill="black" stroke="black" points="488.77,-77 498.77,-73.5 488.77,-70 488.77,-77"/>
</g>
<!-- 140106800151712 -->
<g id="node9" class="node">
<title>140106800151712</title>
<polygon fill="none" stroke="black" points="1463.79,-165.5 1463.79,-201.5 1824.79,-201.5 1824.79,-165.5 1463.79,-165.5"/>
<text text-anchor="middle" x="1487.29" y="-179.8" font-family="Times,serif" font-size="14.00">val6</text>
<polyline fill="none" stroke="black" points="1510.79,-165.5 1510.79,-201.5 "/>
<text text-anchor="middle" x="1528.29" y="-179.8" font-family="Times,serif" font-size="14.00">L2</text>
<polyline fill="none" stroke="black" points="1545.79,-165.5 1545.79,-201.5 "/>
<text text-anchor="middle" x="1563.29" y="-179.8" font-family="Times,serif" font-size="14.00">n1</text>
<polyline fill="none" stroke="black" points="1580.79,-165.5 1580.79,-201.5 "/>
<text text-anchor="middle" x="1599.79" y="-179.8" font-family="Times,serif" font-size="14.00">w2</text>
<polyline fill="none" stroke="black" points="1618.79,-165.5 1618.79,-201.5 "/>
<text text-anchor="middle" x="1669.79" y="-179.8" font-family="Times,serif" font-size="14.00">data 0.8000</text>
<polyline fill="none" stroke="black" points="1720.79,-165.5 1720.79,-201.5 "/>
<text text-anchor="middle" x="1772.79" y="-179.8" font-family="Times,serif" font-size="14.00">grad 1.4000</text>
</g>
<!-- 140106800145328* -->
<g id="node23" class="node">
<title>140106800145328*</title>
<ellipse fill="none" stroke="black" cx="1887.79" cy="-128.5" rx="27" ry="18"/>
<text text-anchor="middle" x="1887.79" y="-124.8" font-family="Times,serif" font-size="14.00">*</text>
</g>
<!-- 140106800151712&#45;&gt;140106800145328* -->
<g id="edge19" class="edge">
<title>140106800151712&#45;&gt;140106800145328*</title>
<path fill="none" stroke="black" d="M1789.11,-165.48C1801.28,-162.86 1813.31,-159.89 1824.79,-156.5 1835.61,-153.31 1846.98,-148.6 1856.99,-143.96"/>
<polygon fill="black" stroke="black" points="1858.62,-147.06 1866.11,-139.57 1855.58,-140.75 1858.62,-147.06"/>
</g>
<!-- 140106800140480 -->
<g id="node10" class="node">
<title>140106800140480</title>
<polygon fill="none" stroke="black" points="962,-110.5 962,-146.5 1319,-146.5 1319,-110.5 962,-110.5"/>
<text text-anchor="middle" x="990" y="-124.8" font-family="Times,serif" font-size="14.00">val14</text>
<polyline fill="none" stroke="black" points="1018,-110.5 1018,-146.5 "/>
<text text-anchor="middle" x="1035.5" y="-124.8" font-family="Times,serif" font-size="14.00">L1</text>
<polyline fill="none" stroke="black" points="1053,-110.5 1053,-146.5 "/>
<text text-anchor="middle" x="1070.5" y="-124.8" font-family="Times,serif" font-size="14.00">n2</text>
<polyline fill="none" stroke="black" points="1088,-110.5 1088,-146.5 "/>
<text text-anchor="middle" x="1100.5" y="-124.8" font-family="Times,serif" font-size="14.00">a</text>
<polyline fill="none" stroke="black" points="1113,-110.5 1113,-146.5 "/>
<text text-anchor="middle" x="1164" y="-124.8" font-family="Times,serif" font-size="14.00">data 1.4000</text>
<polyline fill="none" stroke="black" points="1215,-110.5 1215,-146.5 "/>
<text text-anchor="middle" x="1267" y="-124.8" font-family="Times,serif" font-size="14.00">grad 0.8000</text>
</g>
<!-- 140106800150512ReLU -->
<g id="node28" class="node">
<title>140106800150512ReLU</title>
<ellipse fill="none" stroke="black" cx="1391.4" cy="-128.5" rx="36.29" ry="18"/>
<text text-anchor="middle" x="1391.4" y="-124.8" font-family="Times,serif" font-size="14.00">ReLU</text>
</g>
<!-- 140106800140480&#45;&gt;140106800150512ReLU -->
<g id="edge21" class="edge">
<title>140106800140480&#45;&gt;140106800150512ReLU</title>
<path fill="none" stroke="black" d="M1319.07,-128.5C1328.25,-128.5 1336.95,-128.5 1344.92,-128.5"/>
<polygon fill="black" stroke="black" points="1344.94,-132 1354.94,-128.5 1344.94,-125 1344.94,-132"/>
</g>
<!-- 140106800140480+&#45;&gt;140106800140480 -->
<g id="edge5" class="edge">
<title>140106800140480+&#45;&gt;140106800140480</title>
<path fill="none" stroke="black" d="M926.09,-128.5C933.47,-128.5 942.1,-128.5 951.6,-128.5"/>
<polygon fill="black" stroke="black" points="951.79,-132 961.79,-128.5 951.79,-125 951.79,-132"/>
</g>
<!-- 140106800151232 -->
<g id="node12" class="node">
<title>140106800151232</title>
<polygon fill="none" stroke="black" points="487,-110.5 487,-146.5 836,-146.5 836,-110.5 487,-110.5"/>
<text text-anchor="middle" x="510.5" y="-124.8" font-family="Times,serif" font-size="14.00">val4</text>
<polyline fill="none" stroke="black" points="534,-110.5 534,-146.5 "/>
<text text-anchor="middle" x="551.5" y="-124.8" font-family="Times,serif" font-size="14.00">L1</text>
<polyline fill="none" stroke="black" points="569,-110.5 569,-146.5 "/>
<text text-anchor="middle" x="586.5" y="-124.8" font-family="Times,serif" font-size="14.00">n2</text>
<polyline fill="none" stroke="black" points="604,-110.5 604,-146.5 "/>
<text text-anchor="middle" x="617" y="-124.8" font-family="Times,serif" font-size="14.00">b</text>
<polyline fill="none" stroke="black" points="630,-110.5 630,-146.5 "/>
<text text-anchor="middle" x="681" y="-124.8" font-family="Times,serif" font-size="14.00">data 0.0000</text>
<polyline fill="none" stroke="black" points="732,-110.5 732,-146.5 "/>
<text text-anchor="middle" x="784" y="-124.8" font-family="Times,serif" font-size="14.00">grad 0.8000</text>
</g>
<!-- 140106800151232&#45;&gt;140106800140480+ -->
<g id="edge22" class="edge">
<title>140106800151232&#45;&gt;140106800140480+</title>
<path fill="none" stroke="black" d="M836.13,-128.5C845.31,-128.5 853.9,-128.5 861.59,-128.5"/>
<polygon fill="black" stroke="black" points="861.83,-132 871.83,-128.5 861.83,-125 861.83,-132"/>
</g>
<!-- 140106800146144 -->
<g id="node13" class="node">
<title>140106800146144</title>
<polygon fill="none" stroke="black" points="22.5,-110.5 22.5,-146.5 338.5,-146.5 338.5,-110.5 22.5,-110.5"/>
<text text-anchor="middle" x="46" y="-124.8" font-family="Times,serif" font-size="14.00">val8</text>
<polyline fill="none" stroke="black" points="69.5,-110.5 69.5,-146.5 "/>
<text text-anchor="middle" x="80" y="-124.8" font-family="Times,serif" font-size="14.00"> </text>
<polyline fill="none" stroke="black" points="90.5,-110.5 90.5,-146.5 "/>
<text text-anchor="middle" x="101" y="-124.8" font-family="Times,serif" font-size="14.00"> </text>
<polyline fill="none" stroke="black" points="111.5,-110.5 111.5,-146.5 "/>
<text text-anchor="middle" x="122" y="-124.8" font-family="Times,serif" font-size="14.00">i</text>
<polyline fill="none" stroke="black" points="132.5,-110.5 132.5,-146.5 "/>
<text text-anchor="middle" x="183.5" y="-124.8" font-family="Times,serif" font-size="14.00">data 7.0000</text>
<polyline fill="none" stroke="black" points="234.5,-110.5 234.5,-146.5 "/>
<text text-anchor="middle" x="286.5" y="-124.8" font-family="Times,serif" font-size="14.00">grad 0.2800</text>
</g>
<!-- 140106800146144&#45;&gt;140106800150128* -->
<g id="edge24" class="edge">
<title>140106800146144&#45;&gt;140106800150128*</title>
<path fill="none" stroke="black" d="M320.46,-146.54C334.26,-149.41 347.98,-152.72 361,-156.5 371.68,-159.6 382.94,-164.11 392.9,-168.55"/>
<polygon fill="black" stroke="black" points="391.43,-171.73 401.98,-172.74 394.37,-165.37 391.43,-171.73"/>
</g>
<!-- 140106800146144&#45;&gt;140106800149648* -->
<g id="edge13" class="edge">
<title>140106800146144&#45;&gt;140106800149648*</title>
<path fill="none" stroke="black" d="M325.32,-110.48C337.48,-107.86 349.51,-104.89 361,-101.5 371.82,-98.31 383.19,-93.6 393.2,-88.96"/>
<polygon fill="black" stroke="black" points="394.82,-92.06 402.32,-84.57 391.79,-85.75 394.82,-92.06"/>
</g>
<!-- 140106800148208 -->
<g id="node14" class="node">
<title>140106800148208</title>
<polygon fill="none" stroke="black" points="1962.79,-55.5 1962.79,-91.5 2287.79,-91.5 2287.79,-55.5 1962.79,-55.5"/>
<text text-anchor="middle" x="1990.79" y="-69.8" font-family="Times,serif" font-size="14.00">val16</text>
<polyline fill="none" stroke="black" points="2018.79,-55.5 2018.79,-91.5 "/>
<text text-anchor="middle" x="2029.29" y="-69.8" font-family="Times,serif" font-size="14.00"> </text>
<polyline fill="none" stroke="black" points="2039.79,-55.5 2039.79,-91.5 "/>
<text text-anchor="middle" x="2050.29" y="-69.8" font-family="Times,serif" font-size="14.00"> </text>
<polyline fill="none" stroke="black" points="2060.79,-55.5 2060.79,-91.5 "/>
<text text-anchor="middle" x="2071.29" y="-69.8" font-family="Times,serif" font-size="14.00"> </text>
<polyline fill="none" stroke="black" points="2081.79,-55.5 2081.79,-91.5 "/>
<text text-anchor="middle" x="2132.79" y="-69.8" font-family="Times,serif" font-size="14.00">data 0.8400</text>
<polyline fill="none" stroke="black" points="2183.79,-55.5 2183.79,-91.5 "/>
<text text-anchor="middle" x="2235.79" y="-69.8" font-family="Times,serif" font-size="14.00">grad 1.0000</text>
</g>
<!-- 140106800148208&#45;&gt;140106800150656+ -->
<g id="edge28" class="edge">
<title>140106800148208&#45;&gt;140106800150656+</title>
<path fill="none" stroke="black" d="M2287.94,-73.5C2352.29,-73.5 2420.54,-73.5 2461,-73.5"/>
<polygon fill="black" stroke="black" points="2461.16,-77 2471.16,-73.5 2461.16,-70 2461.16,-77"/>
</g>
<!-- 140106800148208*&#45;&gt;140106800148208 -->
<g id="edge6" class="edge">
<title>140106800148208*&#45;&gt;140106800148208</title>
<path fill="none" stroke="black" d="M1914.9,-73.5C1925.31,-73.5 1938.22,-73.5 1952.49,-73.5"/>
<polygon fill="black" stroke="black" points="1952.56,-77 1962.56,-73.5 1952.56,-70 1952.56,-77"/>
</g>
<!-- 140106800140576 -->
<g id="node16" class="node">
<title>140106800140576</title>
<polygon fill="none" stroke="black" points="0,-55.5 0,-91.5 361,-91.5 361,-55.5 0,-55.5"/>
<text text-anchor="middle" x="23.5" y="-69.8" font-family="Times,serif" font-size="14.00">val1</text>
<polyline fill="none" stroke="black" points="47,-55.5 47,-91.5 "/>
<text text-anchor="middle" x="64.5" y="-69.8" font-family="Times,serif" font-size="14.00">L1</text>
<polyline fill="none" stroke="black" points="82,-55.5 82,-91.5 "/>
<text text-anchor="middle" x="99.5" y="-69.8" font-family="Times,serif" font-size="14.00">n1</text>
<polyline fill="none" stroke="black" points="117,-55.5 117,-91.5 "/>
<text text-anchor="middle" x="136" y="-69.8" font-family="Times,serif" font-size="14.00">w1</text>
<polyline fill="none" stroke="black" points="155,-55.5 155,-91.5 "/>
<text text-anchor="middle" x="206" y="-69.8" font-family="Times,serif" font-size="14.00">data 0.3000</text>
<polyline fill="none" stroke="black" points="257,-55.5 257,-91.5 "/>
<text text-anchor="middle" x="309" y="-69.8" font-family="Times,serif" font-size="14.00">grad 2.8000</text>
</g>
<!-- 140106800140576&#45;&gt;140106800149648* -->
<g id="edge16" class="edge">
<title>140106800140576&#45;&gt;140106800149648*</title>
<path fill="none" stroke="black" d="M361.12,-73.5C370.34,-73.5 378.94,-73.5 386.64,-73.5"/>
<polygon fill="black" stroke="black" points="386.87,-77 396.87,-73.5 386.87,-70 386.87,-77"/>
</g>
<!-- 140106800144176 -->
<g id="node17" class="node">
<title>140106800144176</title>
<polygon fill="none" stroke="black" points="3147.79,-82.5 3147.79,-118.5 3504.79,-118.5 3504.79,-82.5 3147.79,-82.5"/>
<text text-anchor="middle" x="3175.79" y="-96.8" font-family="Times,serif" font-size="14.00">val19</text>
<polyline fill="none" stroke="black" points="3203.79,-82.5 3203.79,-118.5 "/>
<text text-anchor="middle" x="3221.29" y="-96.8" font-family="Times,serif" font-size="14.00">L2</text>
<polyline fill="none" stroke="black" points="3238.79,-82.5 3238.79,-118.5 "/>
<text text-anchor="middle" x="3256.29" y="-96.8" font-family="Times,serif" font-size="14.00">n1</text>
<polyline fill="none" stroke="black" points="3273.79,-82.5 3273.79,-118.5 "/>
<text text-anchor="middle" x="3286.29" y="-96.8" font-family="Times,serif" font-size="14.00">a</text>
<polyline fill="none" stroke="black" points="3298.79,-82.5 3298.79,-118.5 "/>
<text text-anchor="middle" x="3349.79" y="-96.8" font-family="Times,serif" font-size="14.00">data 1.9600</text>
<polyline fill="none" stroke="black" points="3400.79,-82.5 3400.79,-118.5 "/>
<text text-anchor="middle" x="3452.79" y="-96.8" font-family="Times,serif" font-size="14.00">grad 1.0000</text>
</g>
<!-- 140106800144176+&#45;&gt;140106800144176 -->
<g id="edge7" class="edge">
<title>140106800144176+&#45;&gt;140106800144176</title>
<path fill="none" stroke="black" d="M3111.88,-100.5C3119.26,-100.5 3127.9,-100.5 3137.4,-100.5"/>
<polygon fill="black" stroke="black" points="3137.59,-104 3147.59,-100.5 3137.59,-97 3137.59,-104"/>
</g>
<!-- 140106800142688 -->
<g id="node19" class="node">
<title>140106800142688</title>
<polygon fill="none" stroke="black" points="1950.79,-0.5 1950.79,-36.5 2299.79,-36.5 2299.79,-0.5 1950.79,-0.5"/>
<text text-anchor="middle" x="1974.29" y="-14.8" font-family="Times,serif" font-size="14.00">val7</text>
<polyline fill="none" stroke="black" points="1997.79,-0.5 1997.79,-36.5 "/>
<text text-anchor="middle" x="2015.29" y="-14.8" font-family="Times,serif" font-size="14.00">L2</text>
<polyline fill="none" stroke="black" points="2032.79,-0.5 2032.79,-36.5 "/>
<text text-anchor="middle" x="2050.29" y="-14.8" font-family="Times,serif" font-size="14.00">n1</text>
<polyline fill="none" stroke="black" points="2067.79,-0.5 2067.79,-36.5 "/>
<text text-anchor="middle" x="2080.79" y="-14.8" font-family="Times,serif" font-size="14.00">b</text>
<polyline fill="none" stroke="black" points="2093.79,-0.5 2093.79,-36.5 "/>
<text text-anchor="middle" x="2144.79" y="-14.8" font-family="Times,serif" font-size="14.00">data 0.0000</text>
<polyline fill="none" stroke="black" points="2195.79,-0.5 2195.79,-36.5 "/>
<text text-anchor="middle" x="2247.79" y="-14.8" font-family="Times,serif" font-size="14.00">grad 1.0000</text>
</g>
<!-- 140106800142688&#45;&gt;140106800150656+ -->
<g id="edge18" class="edge">
<title>140106800142688&#45;&gt;140106800150656+</title>
<path fill="none" stroke="black" d="M2247.77,-36.51C2322.39,-47.57 2412.76,-60.97 2461.67,-68.22"/>
<polygon fill="black" stroke="black" points="2461.34,-71.71 2471.74,-69.71 2462.36,-64.78 2461.34,-71.71"/>
</g>
<!-- 140106800151904 -->
<g id="node20" class="node">
<title>140106800151904</title>
<polygon fill="none" stroke="black" points="487,-0.5 487,-36.5 836,-36.5 836,-0.5 487,-0.5"/>
<text text-anchor="middle" x="510.5" y="-14.8" font-family="Times,serif" font-size="14.00">val2</text>
<polyline fill="none" stroke="black" points="534,-0.5 534,-36.5 "/>
<text text-anchor="middle" x="551.5" y="-14.8" font-family="Times,serif" font-size="14.00">L1</text>
<polyline fill="none" stroke="black" points="569,-0.5 569,-36.5 "/>
<text text-anchor="middle" x="586.5" y="-14.8" font-family="Times,serif" font-size="14.00">n1</text>
<polyline fill="none" stroke="black" points="604,-0.5 604,-36.5 "/>
<text text-anchor="middle" x="617" y="-14.8" font-family="Times,serif" font-size="14.00">b</text>
<polyline fill="none" stroke="black" points="630,-0.5 630,-36.5 "/>
<text text-anchor="middle" x="681" y="-14.8" font-family="Times,serif" font-size="14.00">data 0.0000</text>
<polyline fill="none" stroke="black" points="732,-0.5 732,-36.5 "/>
<text text-anchor="middle" x="784" y="-14.8" font-family="Times,serif" font-size="14.00">grad 0.4000</text>
</g>
<!-- 140106800151904&#45;&gt;140106800137168+ -->
<g id="edge17" class="edge">
<title>140106800151904&#45;&gt;140106800137168+</title>
<path fill="none" stroke="black" d="M795.88,-36.53C809.54,-39.41 823.12,-42.72 836,-46.5 846.67,-49.63 857.93,-54.14 867.89,-58.58"/>
<polygon fill="black" stroke="black" points="866.43,-61.76 876.97,-62.77 869.36,-55.4 866.43,-61.76"/>
</g>
<!-- 140106800142208 -->
<g id="node21" class="node">
<title>140106800142208</title>
<polygon fill="none" stroke="black" points="1463.79,-0.5 1463.79,-36.5 1824.79,-36.5 1824.79,-0.5 1463.79,-0.5"/>
<text text-anchor="middle" x="1487.29" y="-14.8" font-family="Times,serif" font-size="14.00">val5</text>
<polyline fill="none" stroke="black" points="1510.79,-0.5 1510.79,-36.5 "/>
<text text-anchor="middle" x="1528.29" y="-14.8" font-family="Times,serif" font-size="14.00">L2</text>
<polyline fill="none" stroke="black" points="1545.79,-0.5 1545.79,-36.5 "/>
<text text-anchor="middle" x="1563.29" y="-14.8" font-family="Times,serif" font-size="14.00">n1</text>
<polyline fill="none" stroke="black" points="1580.79,-0.5 1580.79,-36.5 "/>
<text text-anchor="middle" x="1599.79" y="-14.8" font-family="Times,serif" font-size="14.00">w1</text>
<polyline fill="none" stroke="black" points="1618.79,-0.5 1618.79,-36.5 "/>
<text text-anchor="middle" x="1669.79" y="-14.8" font-family="Times,serif" font-size="14.00">data 0.4000</text>
<polyline fill="none" stroke="black" points="1720.79,-0.5 1720.79,-36.5 "/>
<text text-anchor="middle" x="1772.79" y="-14.8" font-family="Times,serif" font-size="14.00">grad 2.1000</text>
</g>
<!-- 140106800142208&#45;&gt;140106800148208* -->
<g id="edge14" class="edge">
<title>140106800142208&#45;&gt;140106800148208*</title>
<path fill="none" stroke="black" d="M1784.25,-36.54C1798.06,-39.41 1811.77,-42.72 1824.79,-46.5 1835.47,-49.6 1846.74,-54.11 1856.69,-58.55"/>
<polygon fill="black" stroke="black" points="1855.23,-61.73 1865.77,-62.74 1858.16,-55.37 1855.23,-61.73"/>
</g>
<!-- 140106800145328 -->
<g id="node22" class="node">
<title>140106800145328</title>
<polygon fill="none" stroke="black" points="2335.79,-110.5 2335.79,-146.5 2660.79,-146.5 2660.79,-110.5 2335.79,-110.5"/>
<text text-anchor="middle" x="2363.79" y="-124.8" font-family="Times,serif" font-size="14.00">val18</text>
<polyline fill="none" stroke="black" points="2391.79,-110.5 2391.79,-146.5 "/>
<text text-anchor="middle" x="2402.29" y="-124.8" font-family="Times,serif" font-size="14.00"> </text>
<polyline fill="none" stroke="black" points="2412.79,-110.5 2412.79,-146.5 "/>
<text text-anchor="middle" x="2423.29" y="-124.8" font-family="Times,serif" font-size="14.00"> </text>
<polyline fill="none" stroke="black" points="2433.79,-110.5 2433.79,-146.5 "/>
<text text-anchor="middle" x="2444.29" y="-124.8" font-family="Times,serif" font-size="14.00"> </text>
<polyline fill="none" stroke="black" points="2454.79,-110.5 2454.79,-146.5 "/>
<text text-anchor="middle" x="2505.79" y="-124.8" font-family="Times,serif" font-size="14.00">data 1.1200</text>
<polyline fill="none" stroke="black" points="2556.79,-110.5 2556.79,-146.5 "/>
<text text-anchor="middle" x="2608.79" y="-124.8" font-family="Times,serif" font-size="14.00">grad 1.0000</text>
</g>
<!-- 140106800145328&#45;&gt;140106800144176+ -->
<g id="edge26" class="edge">
<title>140106800145328&#45;&gt;140106800144176+</title>
<path fill="none" stroke="black" d="M2660.9,-122.91C2764.17,-118.96 2900.92,-113.03 3021.79,-105.5 3030.22,-104.97 3039.29,-104.3 3047.81,-103.63"/>
<polygon fill="black" stroke="black" points="3048.18,-107.11 3057.87,-102.8 3047.61,-100.13 3048.18,-107.11"/>
</g>
<!-- 140106800145328*&#45;&gt;140106800145328 -->
<g id="edge8" class="edge">
<title>140106800145328*&#45;&gt;140106800145328</title>
<path fill="none" stroke="black" d="M1914.94,-128.5C1984.75,-128.5 2180.09,-128.5 2325.4,-128.5"/>
<polygon fill="black" stroke="black" points="2325.77,-132 2335.77,-128.5 2325.77,-125 2325.77,-132"/>
</g>
<!-- 140106800136688 -->
<g id="node24" class="node">
<title>140106800136688</title>
<polygon fill="none" stroke="black" points="0,-165.5 0,-201.5 361,-201.5 361,-165.5 0,-165.5"/>
<text text-anchor="middle" x="23.5" y="-179.8" font-family="Times,serif" font-size="14.00">val3</text>
<polyline fill="none" stroke="black" points="47,-165.5 47,-201.5 "/>
<text text-anchor="middle" x="64.5" y="-179.8" font-family="Times,serif" font-size="14.00">L1</text>
<polyline fill="none" stroke="black" points="82,-165.5 82,-201.5 "/>
<text text-anchor="middle" x="99.5" y="-179.8" font-family="Times,serif" font-size="14.00">n2</text>
<polyline fill="none" stroke="black" points="117,-165.5 117,-201.5 "/>
<text text-anchor="middle" x="136" y="-179.8" font-family="Times,serif" font-size="14.00">w1</text>
<polyline fill="none" stroke="black" points="155,-165.5 155,-201.5 "/>
<text text-anchor="middle" x="206" y="-179.8" font-family="Times,serif" font-size="14.00">data 0.2000</text>
<polyline fill="none" stroke="black" points="257,-165.5 257,-201.5 "/>
<text text-anchor="middle" x="309" y="-179.8" font-family="Times,serif" font-size="14.00">grad 5.6000</text>
</g>
<!-- 140106800136688&#45;&gt;140106800150128* -->
<g id="edge15" class="edge">
<title>140106800136688&#45;&gt;140106800150128*</title>
<path fill="none" stroke="black" d="M361.12,-183.5C370.34,-183.5 378.94,-183.5 386.64,-183.5"/>
<polygon fill="black" stroke="black" points="386.87,-187 396.87,-183.5 386.87,-180 386.87,-187"/>
</g>
<!-- 140106800137168 -->
<g id="node25" class="node">
<title>140106800137168</title>
<polygon fill="none" stroke="black" points="962,-55.5 962,-91.5 1319,-91.5 1319,-55.5 962,-55.5"/>
<text text-anchor="middle" x="990" y="-69.8" font-family="Times,serif" font-size="14.00">val11</text>
<polyline fill="none" stroke="black" points="1018,-55.5 1018,-91.5 "/>
<text text-anchor="middle" x="1035.5" y="-69.8" font-family="Times,serif" font-size="14.00">L1</text>
<polyline fill="none" stroke="black" points="1053,-55.5 1053,-91.5 "/>
<text text-anchor="middle" x="1070.5" y="-69.8" font-family="Times,serif" font-size="14.00">n1</text>
<polyline fill="none" stroke="black" points="1088,-55.5 1088,-91.5 "/>
<text text-anchor="middle" x="1100.5" y="-69.8" font-family="Times,serif" font-size="14.00">a</text>
<polyline fill="none" stroke="black" points="1113,-55.5 1113,-91.5 "/>
<text text-anchor="middle" x="1164" y="-69.8" font-family="Times,serif" font-size="14.00">data 2.1000</text>
<polyline fill="none" stroke="black" points="1215,-55.5 1215,-91.5 "/>
<text text-anchor="middle" x="1267" y="-69.8" font-family="Times,serif" font-size="14.00">grad 0.4000</text>
</g>
<!-- 140106800137168&#45;&gt;140106800144896ReLU -->
<g id="edge27" class="edge">
<title>140106800137168&#45;&gt;140106800144896ReLU</title>
<path fill="none" stroke="black" d="M1319.07,-73.5C1328.25,-73.5 1336.95,-73.5 1344.92,-73.5"/>
<polygon fill="black" stroke="black" points="1344.94,-77 1354.94,-73.5 1344.94,-70 1344.94,-77"/>
</g>
<!-- 140106800137168+&#45;&gt;140106800137168 -->
<g id="edge9" class="edge">
<title>140106800137168+&#45;&gt;140106800137168</title>
<path fill="none" stroke="black" d="M926.09,-73.5C933.47,-73.5 942.1,-73.5 951.6,-73.5"/>
<polygon fill="black" stroke="black" points="951.79,-77 961.79,-73.5 951.79,-70 951.79,-77"/>
</g>
<!-- 140106800150512 -->
<g id="node27" class="node">
<title>140106800150512</title>
<polygon fill="none" stroke="black" points="1481.79,-110.5 1481.79,-146.5 1806.79,-146.5 1806.79,-110.5 1481.79,-110.5"/>
<text text-anchor="middle" x="1509.79" y="-124.8" font-family="Times,serif" font-size="14.00">val15</text>
<polyline fill="none" stroke="black" points="1537.79,-110.5 1537.79,-146.5 "/>
<text text-anchor="middle" x="1548.29" y="-124.8" font-family="Times,serif" font-size="14.00"> </text>
<polyline fill="none" stroke="black" points="1558.79,-110.5 1558.79,-146.5 "/>
<text text-anchor="middle" x="1569.29" y="-124.8" font-family="Times,serif" font-size="14.00"> </text>
<polyline fill="none" stroke="black" points="1579.79,-110.5 1579.79,-146.5 "/>
<text text-anchor="middle" x="1590.29" y="-124.8" font-family="Times,serif" font-size="14.00"> </text>
<polyline fill="none" stroke="black" points="1600.79,-110.5 1600.79,-146.5 "/>
<text text-anchor="middle" x="1651.79" y="-124.8" font-family="Times,serif" font-size="14.00">data 1.4000</text>
<polyline fill="none" stroke="black" points="1702.79,-110.5 1702.79,-146.5 "/>
<text text-anchor="middle" x="1754.79" y="-124.8" font-family="Times,serif" font-size="14.00">grad 0.8000</text>
</g>
<!-- 140106800150512&#45;&gt;140106800145328* -->
<g id="edge20" class="edge">
<title>140106800150512&#45;&gt;140106800145328*</title>
<path fill="none" stroke="black" d="M1807.05,-128.5C1823,-128.5 1837.86,-128.5 1850.34,-128.5"/>
<polygon fill="black" stroke="black" points="1850.65,-132 1860.65,-128.5 1850.65,-125 1850.65,-132"/>
</g>
<!-- 140106800150512ReLU&#45;&gt;140106800150512 -->
<g id="edge10" class="edge">
<title>140106800150512ReLU&#45;&gt;140106800150512</title>
<path fill="none" stroke="black" d="M1427.81,-128.5C1440.28,-128.5 1455.27,-128.5 1471.45,-128.5"/>
<polygon fill="black" stroke="black" points="1471.67,-132 1481.67,-128.5 1471.67,-125 1471.67,-132"/>
</g>
</g>
</svg>
