<?xml version="1.0" encoding="UTF-8" standalone="no"?>
<!DOCTYPE svg PUBLIC "-//W3C//DTD SVG 1.1//EN"
 "http://www.w3.org/Graphics/SVG/1.1/DTD/svg11.dtd">
<!-- Generated by graphviz version 2.43.0 (0)
 -->
<!-- Title: %3 Pages: 1 -->
<svg width="880pt" height="360pt"
 viewBox="0.00 0.00 880.00 360.00" xmlns="http://www.w3.org/2000/svg" xmlns:xlink="http://www.w3.org/1999/xlink">
<g id="graph0" class="graph" transform="scale(1 1) rotate(0) translate(4 356)">
<title>%3</title>
<polygon fill="white" stroke="transparent" points="-4,4 -4,-356 876,-356 876,4 -4,4"/>
<g id="clust1" class="cluster">
<title>cluster_I</title>
<polygon fill="lightgrey" stroke="lightgrey" points="8,-68 8,-284 192,-284 192,-68 8,-68"/>
<text text-anchor="middle" x="100" y="-268.8" font-family="Times,serif" font-size="14.00">I</text>
</g>
<g id="clust2" class="cluster">
<title>cluster_L1</title>
<polygon fill="lightgrey" stroke="lightgrey" points="212,-8 212,-344 413,-344 413,-8 212,-8"/>
<text text-anchor="middle" x="312.5" y="-328.8" font-family="Times,serif" font-size="14.00">L1</text>
</g>
<g id="clust3" class="cluster">
<title>cluster_L2</title>
<polygon fill="lightgrey" stroke="lightgrey" points="433,-31 433,-320 634,-320 634,-31 433,-31"/>
<text text-anchor="middle" x="533.5" y="-304.8" font-family="Times,serif" font-size="14.00">L2</text>
</g>
<g id="clust4" class="cluster">
<title>cluster_O</title>
<polygon fill="lightgrey" stroke="lightgrey" points="654,-98 654,-253 864,-253 864,-98 654,-98"/>
<text text-anchor="middle" x="759" y="-237.8" font-family="Times,serif" font-size="14.00">O</text>
</g>
<!-- i1 -->
<g id="node1" class="node">
<title>i1</title>
<polygon fill="white" stroke="white" points="16,-141 16,-187 184,-187 184,-141 16,-141"/>
<text text-anchor="middle" x="100" y="-171.8" font-family="Times,serif" font-size="14.00">i1</text>
<polyline fill="none" stroke="white" points="16,-164 184,-164 "/>
<text text-anchor="middle" x="26.5" y="-148.8" font-family="Times,serif" font-size="14.00">i</text>
<polyline fill="none" stroke="white" points="37,-141 37,-164 "/>
<text text-anchor="middle" x="110.5" y="-148.8" font-family="Times,serif" font-size="14.00">d 1.0000 g 0.9000</text>
</g>
<!-- L1N1 -->
<g id="node4" class="node">
<title>L1N1</title>
<polygon fill="white" stroke="white" points="220,-174 220,-312 405,-312 405,-174 220,-174"/>
<text text-anchor="middle" x="312.5" y="-296.8" font-family="Times,serif" font-size="14.00">N1</text>
<polyline fill="none" stroke="white" points="220,-289 405,-289 "/>
<text text-anchor="middle" x="239" y="-273.8" font-family="Times,serif" font-size="14.00">w1</text>
<polyline fill="none" stroke="white" points="258,-266 258,-289 "/>
<text text-anchor="middle" x="331.5" y="-273.8" font-family="Times,serif" font-size="14.00">d 0.5000 g 0.6000</text>
<polyline fill="none" stroke="white" points="220,-266 405,-266 "/>
<text text-anchor="middle" x="239" y="-250.8" font-family="Times,serif" font-size="14.00">w2</text>
<polyline fill="none" stroke="white" points="258,-243 258,-266 "/>
<text text-anchor="middle" x="331.5" y="-250.8" font-family="Times,serif" font-size="14.00">d 1.0000 g 1.2000</text>
<polyline fill="none" stroke="white" points="220,-243 405,-243 "/>
<text text-anchor="middle" x="239" y="-227.8" font-family="Times,serif" font-size="14.00">w3</text>
<polyline fill="none" stroke="white" points="258,-220 258,-243 "/>
<text text-anchor="middle" x="331.5" y="-227.8" font-family="Times,serif" font-size="14.00">d 1.5000 g 1.8000</text>
<polyline fill="none" stroke="white" points="220,-220 405,-220 "/>
<text text-anchor="middle" x="236" y="-204.8" font-family="Times,serif" font-size="14.00">b</text>
<polyline fill="none" stroke="white" points="252,-197 252,-220 "/>
<text text-anchor="middle" x="328.5" y="-204.8" font-family="Times,serif" font-size="14.00">d 0.0000 g 0.6000</text>
<polyline fill="none" stroke="white" points="220,-197 405,-197 "/>
<text text-anchor="middle" x="235.5" y="-181.8" font-family="Times,serif" font-size="14.00">a</text>
<polyline fill="none" stroke="white" points="251,-174 251,-197 "/>
<text text-anchor="middle" x="328" y="-181.8" font-family="Times,serif" font-size="14.00">d 7.0000 g 0.6000</text>
</g>
<!-- i1&#45;&gt;L1N1 -->
<g id="edge1" class="edge">
<title>i1&#45;&gt;L1N1</title>
<path fill="none" stroke="black" d="M165.19,-187.1C174.2,-190.4 183.34,-193.76 192,-197 197.94,-199.22 204.05,-201.52 210.2,-203.85"/>
<polygon fill="black" stroke="black" points="209.31,-207.25 219.9,-207.53 211.8,-200.71 209.31,-207.25"/>
</g>
<!-- L1N2 -->
<g id="node5" class="node">
<title>L1N2</title>
<polygon fill="white" stroke="white" points="220,-17 220,-155 405,-155 405,-17 220,-17"/>
<text text-anchor="middle" x="312.5" y="-139.8" font-family="Times,serif" font-size="14.00">N2</text>
<polyline fill="none" stroke="white" points="220,-132 405,-132 "/>
<text text-anchor="middle" x="239" y="-116.8" font-family="Times,serif" font-size="14.00">w1</text>
<polyline fill="none" stroke="white" points="258,-109 258,-132 "/>
<text text-anchor="middle" x="331.5" y="-116.8" font-family="Times,serif" font-size="14.00">d 0.5000 g 1.2000</text>
<polyline fill="none" stroke="white" points="220,-109 405,-109 "/>
<text text-anchor="middle" x="239" y="-93.8" font-family="Times,serif" font-size="14.00">w2</text>
<polyline fill="none" stroke="white" points="258,-86 258,-109 "/>
<text text-anchor="middle" x="331.5" y="-93.8" font-family="Times,serif" font-size="14.00">d 1.0000 g 2.4000</text>
<polyline fill="none" stroke="white" points="220,-86 405,-86 "/>
<text text-anchor="middle" x="239" y="-70.8" font-family="Times,serif" font-size="14.00">w3</text>
<polyline fill="none" stroke="white" points="258,-63 258,-86 "/>
<text text-anchor="middle" x="331.5" y="-70.8" font-family="Times,serif" font-size="14.00">d 1.5000 g 3.6000</text>
<polyline fill="none" stroke="white" points="220,-63 405,-63 "/>
<text text-anchor="middle" x="236" y="-47.8" font-family="Times,serif" font-size="14.00">b</text>
<polyline fill="none" stroke="white" points="252,-40 252,-63 "/>
<text text-anchor="middle" x="328.5" y="-47.8" font-family="Times,serif" font-size="14.00">d 0.0000 g 1.2000</text>
<polyline fill="none" stroke="white" points="220,-40 405,-40 "/>
<text text-anchor="middle" x="235.5" y="-24.8" font-family="Times,serif" font-size="14.00">a</text>
<polyline fill="none" stroke="white" points="251,-17 251,-40 "/>
<text text-anchor="middle" x="328" y="-24.8" font-family="Times,serif" font-size="14.00">d 7.0000 g 1.2000</text>
</g>
<!-- i1&#45;&gt;L1N2 -->
<g id="edge2" class="edge">
<title>i1&#45;&gt;L1N2</title>
<path fill="none" stroke="black" d="M165.17,-140.84C174.19,-137.55 183.33,-134.2 192,-131 197.94,-128.81 204.03,-126.54 210.18,-124.25"/>
<polygon fill="black" stroke="black" points="211.73,-127.41 219.88,-120.63 209.28,-120.85 211.73,-127.41"/>
</g>
<!-- i2 -->
<g id="node2" class="node">
<title>i2</title>
<polygon fill="white" stroke="white" points="16,-76 16,-122 184,-122 184,-76 16,-76"/>
<text text-anchor="middle" x="100" y="-106.8" font-family="Times,serif" font-size="14.00">i2</text>
<polyline fill="none" stroke="white" points="16,-99 184,-99 "/>
<text text-anchor="middle" x="26.5" y="-83.8" font-family="Times,serif" font-size="14.00">i</text>
<polyline fill="none" stroke="white" points="37,-76 37,-99 "/>
<text text-anchor="middle" x="110.5" y="-83.8" font-family="Times,serif" font-size="14.00">d 2.0000 g 1.8000</text>
</g>
<!-- i2&#45;&gt;L1N1 -->
<g id="edge3" class="edge">
<title>i2&#45;&gt;L1N1</title>
<path fill="none" stroke="black" d="M178.98,-122.12C183.58,-124.78 187.97,-127.73 192,-131 205.31,-141.81 200.66,-151.13 212,-164 212.73,-164.83 213.47,-165.65 214.22,-166.48"/>
<polygon fill="black" stroke="black" points="211.74,-168.96 221.16,-173.81 216.83,-164.14 211.74,-168.96"/>
</g>
<!-- i2&#45;&gt;L1N2 -->
<g id="edge4" class="edge">
<title>i2&#45;&gt;L1N2</title>
<path fill="none" stroke="black" d="M184.2,-93.86C192.62,-93.34 201.24,-92.81 209.83,-92.28"/>
<polygon fill="black" stroke="black" points="210.12,-95.77 219.89,-91.66 209.69,-88.78 210.12,-95.77"/>
</g>
<!-- i3 -->
<g id="node3" class="node">
<title>i3</title>
<polygon fill="white" stroke="white" points="16,-206 16,-252 184,-252 184,-206 16,-206"/>
<text text-anchor="middle" x="100" y="-236.8" font-family="Times,serif" font-size="14.00">i3</text>
<polyline fill="none" stroke="white" points="16,-229 184,-229 "/>
<text text-anchor="middle" x="26.5" y="-213.8" font-family="Times,serif" font-size="14.00">i</text>
<polyline fill="none" stroke="white" points="37,-206 37,-229 "/>
<text text-anchor="middle" x="110.5" y="-213.8" font-family="Times,serif" font-size="14.00">d 3.0000 g 2.7000</text>
</g>
<!-- i3&#45;&gt;L1N1 -->
<g id="edge5" class="edge">
<title>i3&#45;&gt;L1N1</title>
<path fill="none" stroke="black" d="M184.2,-234.53C192.62,-235.09 201.24,-235.67 209.83,-236.24"/>
<polygon fill="black" stroke="black" points="209.68,-239.74 219.89,-236.91 210.14,-232.75 209.68,-239.74"/>
</g>
<!-- i3&#45;&gt;L1N2 -->
<g id="edge6" class="edge">
<title>i3&#45;&gt;L1N2</title>
<path fill="none" stroke="black" d="M177.14,-205.95C182.4,-203 187.43,-199.7 192,-196 205.04,-185.45 200.79,-176.47 212,-164 212.41,-163.54 212.83,-163.08 213.25,-162.62"/>
<polygon fill="black" stroke="black" points="215.88,-164.93 220.26,-155.28 210.82,-160.1 215.88,-164.93"/>
</g>
<!-- L2N1 -->
<g id="node6" class="node">
<title>L2N1</title>
<polygon fill="white" stroke="white" points="441,-173.5 441,-288.5 626,-288.5 626,-173.5 441,-173.5"/>
<text text-anchor="middle" x="533.5" y="-273.3" font-family="Times,serif" font-size="14.00">N1</text>
<polyline fill="none" stroke="white" points="441,-265.5 626,-265.5 "/>
<text text-anchor="middle" x="460" y="-250.3" font-family="Times,serif" font-size="14.00">w1</text>
<polyline fill="none" stroke="white" points="479,-242.5 479,-265.5 "/>
<text text-anchor="middle" x="552.5" y="-250.3" font-family="Times,serif" font-size="14.00">d 0.6000 g 3.5000</text>
<polyline fill="none" stroke="white" points="441,-242.5 626,-242.5 "/>
<text text-anchor="middle" x="460" y="-227.3" font-family="Times,serif" font-size="14.00">w2</text>
<polyline fill="none" stroke="white" points="479,-219.5 479,-242.5 "/>
<text text-anchor="middle" x="552.5" y="-227.3" font-family="Times,serif" font-size="14.00">d 1.2000 g 3.5000</text>
<polyline fill="none" stroke="white" points="441,-219.5 626,-219.5 "/>
<text text-anchor="middle" x="457" y="-204.3" font-family="Times,serif" font-size="14.00">b</text>
<polyline fill="none" stroke="white" points="473,-196.5 473,-219.5 "/>
<text text-anchor="middle" x="549.5" y="-204.3" font-family="Times,serif" font-size="14.00">d 0.0000 g 0.5000</text>
<polyline fill="none" stroke="white" points="441,-196.5 626,-196.5 "/>
<text text-anchor="middle" x="454.5" y="-181.3" font-family="Times,serif" font-size="14.00">a</text>
<polyline fill="none" stroke="white" points="468,-173.5 468,-196.5 "/>
<text text-anchor="middle" x="547" y="-181.3" font-family="Times,serif" font-size="14.00">d 12.6000 g 0.5000</text>
</g>
<!-- L1N1&#45;&gt;L2N1 -->
<g id="edge7" class="edge">
<title>L1N1&#45;&gt;L2N1</title>
<path fill="none" stroke="black" d="M405.11,-237.98C413.62,-237.51 422.27,-237.04 430.86,-236.57"/>
<polygon fill="black" stroke="black" points="431.11,-240.06 440.91,-236.02 430.73,-233.07 431.11,-240.06"/>
</g>
<!-- L2N2 -->
<g id="node7" class="node">
<title>L2N2</title>
<polygon fill="white" stroke="white" points="441,-39.5 441,-154.5 626,-154.5 626,-39.5 441,-39.5"/>
<text text-anchor="middle" x="533.5" y="-139.3" font-family="Times,serif" font-size="14.00">N2</text>
<polyline fill="none" stroke="white" points="441,-131.5 626,-131.5 "/>
<text text-anchor="middle" x="460" y="-116.3" font-family="Times,serif" font-size="14.00">w1</text>
<polyline fill="none" stroke="white" points="479,-108.5 479,-131.5 "/>
<text text-anchor="middle" x="552.5" y="-116.3" font-family="Times,serif" font-size="14.00">d 0.3000 g 7.0000</text>
<polyline fill="none" stroke="white" points="441,-108.5 626,-108.5 "/>
<text text-anchor="middle" x="460" y="-93.3" font-family="Times,serif" font-size="14.00">w2</text>
<polyline fill="none" stroke="white" points="479,-85.5 479,-108.5 "/>
<text text-anchor="middle" x="552.5" y="-93.3" font-family="Times,serif" font-size="14.00">d 0.6000 g 7.0000</text>
<polyline fill="none" stroke="white" points="441,-85.5 626,-85.5 "/>
<text text-anchor="middle" x="457" y="-70.3" font-family="Times,serif" font-size="14.00">b</text>
<polyline fill="none" stroke="white" points="473,-62.5 473,-85.5 "/>
<text text-anchor="middle" x="549.5" y="-70.3" font-family="Times,serif" font-size="14.00">d 0.0000 g 1.0000</text>
<polyline fill="none" stroke="white" points="441,-62.5 626,-62.5 "/>
<text text-anchor="middle" x="456.5" y="-47.3" font-family="Times,serif" font-size="14.00">a</text>
<polyline fill="none" stroke="white" points="472,-39.5 472,-62.5 "/>
<text text-anchor="middle" x="549" y="-47.3" font-family="Times,serif" font-size="14.00">d 6.3000 g 1.0000</text>
</g>
<!-- L1N1&#45;&gt;L2N2 -->
<g id="edge8" class="edge">
<title>L1N1&#45;&gt;L2N2</title>
<path fill="none" stroke="black" d="M405.11,-181.93C415.84,-174.78 426.8,-167.47 437.57,-160.29"/>
<polygon fill="black" stroke="black" points="439.78,-163.02 446.16,-154.56 435.9,-157.19 439.78,-163.02"/>
</g>
<!-- L1N2&#45;&gt;L2N1 -->
<g id="edge9" class="edge">
<title>L1N2&#45;&gt;L2N1</title>
<path fill="none" stroke="black" d="M405.11,-146.65C415.65,-153.63 426.42,-160.77 437.01,-167.78"/>
<polygon fill="black" stroke="black" points="435.19,-170.77 445.46,-173.37 439.06,-164.93 435.19,-170.77"/>
</g>
<!-- L1N2&#45;&gt;L2N2 -->
<g id="edge10" class="edge">
<title>L1N2&#45;&gt;L2N2</title>
<path fill="none" stroke="black" d="M405.11,-90.6C413.62,-91.03 422.27,-91.46 430.86,-91.9"/>
<polygon fill="black" stroke="black" points="430.75,-95.39 440.91,-92.4 431.1,-88.4 430.75,-95.39"/>
</g>
<!-- ON1 -->
<g id="node8" class="node">
<title>ON1</title>
<polygon fill="white" stroke="white" points="662,-106.5 662,-221.5 856,-221.5 856,-106.5 662,-106.5"/>
<text text-anchor="middle" x="759" y="-206.3" font-family="Times,serif" font-size="14.00">N1</text>
<polyline fill="none" stroke="white" points="662,-198.5 856,-198.5 "/>
<text text-anchor="middle" x="681" y="-183.3" font-family="Times,serif" font-size="14.00">w1</text>
<polyline fill="none" stroke="white" points="700,-175.5 700,-198.5 "/>
<text text-anchor="middle" x="778" y="-183.3" font-family="Times,serif" font-size="14.00">d 0.5000 g 12.6000</text>
<polyline fill="none" stroke="white" points="662,-175.5 856,-175.5 "/>
<text text-anchor="middle" x="683" y="-160.3" font-family="Times,serif" font-size="14.00">w2</text>
<polyline fill="none" stroke="white" points="704,-152.5 704,-175.5 "/>
<text text-anchor="middle" x="780" y="-160.3" font-family="Times,serif" font-size="14.00">d 1.0000 g 6.3000</text>
<polyline fill="none" stroke="white" points="662,-152.5 856,-152.5 "/>
<text text-anchor="middle" x="680" y="-137.3" font-family="Times,serif" font-size="14.00">b</text>
<polyline fill="none" stroke="white" points="698,-129.5 698,-152.5 "/>
<text text-anchor="middle" x="777" y="-137.3" font-family="Times,serif" font-size="14.00">d 0.0000 g 1.0000</text>
<polyline fill="none" stroke="white" points="662,-129.5 856,-129.5 "/>
<text text-anchor="middle" x="677.5" y="-114.3" font-family="Times,serif" font-size="14.00">a</text>
<polyline fill="none" stroke="white" points="693,-106.5 693,-129.5 "/>
<text text-anchor="middle" x="774.5" y="-114.3" font-family="Times,serif" font-size="14.00">d 12.6000 g 1.0000</text>
</g>
<!-- L2N1&#45;&gt;ON1 -->
<g id="edge11" class="edge">
<title>L2N1&#45;&gt;ON1</title>
<path fill="none" stroke="black" d="M626.05,-203.56C634.63,-200.98 643.38,-198.36 652.08,-195.75"/>
<polygon fill="black" stroke="black" points="653.3,-199.04 661.88,-192.82 651.29,-192.33 653.3,-199.04"/>
</g>
<!-- L2N2&#45;&gt;ON1 -->
<g id="edge12" class="edge">
<title>L2N2&#45;&gt;ON1</title>
<path fill="none" stroke="black" d="M626.05,-124.44C634.63,-127.02 643.38,-129.64 652.08,-132.25"/>
<polygon fill="black" stroke="black" points="651.29,-135.67 661.88,-135.18 653.3,-128.96 651.29,-135.67"/>
</g>
</g>
</svg>
