<?xml version="1.0" encoding="UTF-8" standalone="no"?>
<!DOCTYPE svg PUBLIC "-//W3C//DTD SVG 1.1//EN"
 "http://www.w3.org/Graphics/SVG/1.1/DTD/svg11.dtd">
<!-- Generated by graphviz version 2.43.0 (0)
 -->
<!-- Title: %3 Pages: 1 -->
<svg width="655pt" height="267pt"
 viewBox="0.00 0.00 655.00 267.00" xmlns="http://www.w3.org/2000/svg" xmlns:xlink="http://www.w3.org/1999/xlink">
<g id="graph0" class="graph" transform="scale(1 1) rotate(0) translate(4 263)">
<title>%3</title>
<polygon fill="white" stroke="transparent" points="-4,4 -4,-263 651,-263 651,4 -4,4"/>
<g id="clust1" class="cluster">
<title>cluster_I</title>
<polygon fill="lightgrey" stroke="lightgrey" points="8,-86 8,-172 192,-172 192,-86 8,-86"/>
<text text-anchor="middle" x="100" y="-156.8" font-family="Times,serif" font-size="14.00">I</text>
</g>
<g id="clust2" class="cluster">
<title>cluster_L1</title>
<polygon fill="lightgrey" stroke="lightgrey" points="212,-8 212,-251 418,-251 418,-8 212,-8"/>
<text text-anchor="middle" x="315" y="-235.8" font-family="Times,serif" font-size="14.00">L1</text>
</g>
<g id="clust3" class="cluster">
<title>cluster_L2</title>
<polygon fill="lightgrey" stroke="lightgrey" points="438,-49 438,-204 639,-204 639,-49 438,-49"/>
<text text-anchor="middle" x="538.5" y="-188.8" font-family="Times,serif" font-size="14.00">L2</text>
</g>
<!-- i1 -->
<g id="node1" class="node">
<title>i1</title>
<polygon fill="white" stroke="white" points="16,-94 16,-140 184,-140 184,-94 16,-94"/>
<text text-anchor="middle" x="100" y="-124.8" font-family="Times,serif" font-size="14.00">i1</text>
<polyline fill="none" stroke="white" points="16,-117 184,-117 "/>
<text text-anchor="middle" x="26.5" y="-101.8" font-family="Times,serif" font-size="14.00">i</text>
<polyline fill="none" stroke="white" points="37,-94 37,-117 "/>
<text text-anchor="middle" x="110.5" y="-101.8" font-family="Times,serif" font-size="14.00">d 4.0000 g 0.1612</text>
</g>
<!-- L1N1 -->
<g id="node2" class="node">
<title>L1N1</title>
<polygon fill="white" stroke="white" points="222.5,-127 222.5,-219 407.5,-219 407.5,-127 222.5,-127"/>
<text text-anchor="middle" x="315" y="-203.8" font-family="Times,serif" font-size="14.00">N1</text>
<polyline fill="none" stroke="white" points="222.5,-196 407.5,-196 "/>
<text text-anchor="middle" x="241.5" y="-180.8" font-family="Times,serif" font-size="14.00">w1</text>
<polyline fill="none" stroke="white" points="260.5,-173 260.5,-196 "/>
<text text-anchor="middle" x="334" y="-180.8" font-family="Times,serif" font-size="14.00">d 0.1949 g 1.7020</text>
<polyline fill="none" stroke="white" points="222.5,-173 407.5,-173 "/>
<text text-anchor="middle" x="237" y="-157.8" font-family="Times,serif" font-size="14.00">b</text>
<polyline fill="none" stroke="white" points="251.5,-150 251.5,-173 "/>
<text text-anchor="middle" x="329.5" y="-157.8" font-family="Times,serif" font-size="14.00">d &#45;0.0763 g 0.4255</text>
<polyline fill="none" stroke="white" points="222.5,-150 407.5,-150 "/>
<text text-anchor="middle" x="238" y="-134.8" font-family="Times,serif" font-size="14.00">a</text>
<polyline fill="none" stroke="white" points="253.5,-127 253.5,-150 "/>
<text text-anchor="middle" x="330.5" y="-134.8" font-family="Times,serif" font-size="14.00">d 1.0650 g 0.4255</text>
</g>
<!-- i1&#45;&gt;L1N1 -->
<g id="edge1" class="edge">
<title>i1&#45;&gt;L1N1</title>
<path fill="none" stroke="black" d="M184.27,-138.89C193.53,-141.33 203.05,-143.83 212.51,-146.32"/>
<polygon fill="black" stroke="black" points="211.77,-149.74 222.33,-148.9 213.55,-142.97 211.77,-149.74"/>
</g>
<!-- L1N2 -->
<g id="node3" class="node">
<title>L1N2</title>
<polygon fill="white" stroke="white" points="220,-16 220,-108 410,-108 410,-16 220,-16"/>
<text text-anchor="middle" x="315" y="-92.8" font-family="Times,serif" font-size="14.00">N2</text>
<polyline fill="none" stroke="white" points="220,-85 410,-85 "/>
<text text-anchor="middle" x="239" y="-69.8" font-family="Times,serif" font-size="14.00">w1</text>
<polyline fill="none" stroke="white" points="258,-62 258,-85 "/>
<text text-anchor="middle" x="334" y="-69.8" font-family="Times,serif" font-size="14.00">d &#45;0.1702 g 4.2040</text>
<polyline fill="none" stroke="white" points="220,-62 410,-62 "/>
<text text-anchor="middle" x="236" y="-46.8" font-family="Times,serif" font-size="14.00">b</text>
<polyline fill="none" stroke="white" points="252,-39 252,-62 "/>
<text text-anchor="middle" x="331" y="-46.8" font-family="Times,serif" font-size="14.00">d &#45;0.1676 g 1.0510</text>
<polyline fill="none" stroke="white" points="220,-39 410,-39 "/>
<text text-anchor="middle" x="237" y="-23.8" font-family="Times,serif" font-size="14.00">a</text>
<polyline fill="none" stroke="white" points="254,-16 254,-39 "/>
<text text-anchor="middle" x="332" y="-23.8" font-family="Times,serif" font-size="14.00">d 0.0450 g 1.0510</text>
</g>
<!-- i1&#45;&gt;L1N2 -->
<g id="edge2" class="edge">
<title>i1&#45;&gt;L1N2</title>
<path fill="none" stroke="black" d="M184.27,-95.5C192.74,-93.31 201.43,-91.07 210.09,-88.83"/>
<polygon fill="black" stroke="black" points="211.04,-92.2 219.85,-86.31 209.29,-85.42 211.04,-92.2"/>
</g>
<!-- L2N1 -->
<g id="node4" class="node">
<title>L2N1</title>
<polygon fill="white" stroke="white" points="446,-57.5 446,-172.5 631,-172.5 631,-57.5 446,-57.5"/>
<text text-anchor="middle" x="538.5" y="-157.3" font-family="Times,serif" font-size="14.00">N1</text>
<polyline fill="none" stroke="white" points="446,-149.5 631,-149.5 "/>
<text text-anchor="middle" x="465" y="-134.3" font-family="Times,serif" font-size="14.00">w1</text>
<polyline fill="none" stroke="white" points="484,-126.5 484,-149.5 "/>
<text text-anchor="middle" x="557.5" y="-134.3" font-family="Times,serif" font-size="14.00">d 0.3723 g 1.0650</text>
<polyline fill="none" stroke="white" points="446,-126.5 631,-126.5 "/>
<text text-anchor="middle" x="465" y="-111.3" font-family="Times,serif" font-size="14.00">w2</text>
<polyline fill="none" stroke="white" points="484,-103.5 484,-126.5 "/>
<text text-anchor="middle" x="557.5" y="-111.3" font-family="Times,serif" font-size="14.00">d 1.0488 g 0.0450</text>
<polyline fill="none" stroke="white" points="446,-103.5 631,-103.5 "/>
<text text-anchor="middle" x="460.5" y="-88.3" font-family="Times,serif" font-size="14.00">b</text>
<polyline fill="none" stroke="white" points="475,-80.5 475,-103.5 "/>
<text text-anchor="middle" x="553" y="-88.3" font-family="Times,serif" font-size="14.00">d &#45;0.1500 g 1.0000</text>
<polyline fill="none" stroke="white" points="446,-80.5 631,-80.5 "/>
<text text-anchor="middle" x="461.5" y="-65.3" font-family="Times,serif" font-size="14.00">a</text>
<polyline fill="none" stroke="white" points="477,-57.5 477,-80.5 "/>
<text text-anchor="middle" x="554" y="-65.3" font-family="Times,serif" font-size="14.00">d 0.4005 g 1.0000</text>
</g>
<!-- L1N1&#45;&gt;L2N1 -->
<g id="edge3" class="edge">
<title>L1N1&#45;&gt;L2N1</title>
<path fill="none" stroke="black" d="M407.69,-148.99C417.05,-146.54 426.61,-144.04 436.06,-141.56"/>
<polygon fill="black" stroke="black" points="437.09,-144.91 445.88,-138.99 435.32,-138.14 437.09,-144.91"/>
</g>
<!-- L1N2&#45;&gt;L2N1 -->
<g id="edge4" class="edge">
<title>L1N2&#45;&gt;L2N1</title>
<path fill="none" stroke="black" d="M410.26,-84.55C418.72,-86.58 427.31,-88.64 435.84,-90.67"/>
<polygon fill="black" stroke="black" points="435.26,-94.13 445.8,-93.06 436.89,-87.33 435.26,-94.13"/>
</g>
<!-- loss -->
<g id="node5" class="node">
<title>loss</title>
<polygon fill="none" stroke="black" points="35.5,-181 35.5,-217 164.5,-217 164.5,-181 35.5,-181"/>
<text text-anchor="middle" x="100" y="-195.3" font-family="Times,serif" font-size="14.00">step 3 loss 0.64</text>
</g>
</g>
</svg>
