<?xml version="1.0" encoding="UTF-8" standalone="no"?>
<!DOCTYPE svg PUBLIC "-//W3C//DTD SVG 1.1//EN"
 "http://www.w3.org/Graphics/SVG/1.1/DTD/svg11.dtd">
<!-- Generated by graphviz version 2.43.0 (0)
 -->
<!-- Title: %3 Pages: 1 -->
<svg width="650pt" height="267pt"
 viewBox="0.00 0.00 650.00 267.00" xmlns="http://www.w3.org/2000/svg" xmlns:xlink="http://www.w3.org/1999/xlink">
<g id="graph0" class="graph" transform="scale(1 1) rotate(0) translate(4 263)">
<title>%3</title>
<polygon fill="white" stroke="transparent" points="-4,4 -4,-263 646,-263 646,4 -4,4"/>
<g id="clust1" class="cluster">
<title>cluster_I</title>
<polygon fill="lightgrey" stroke="lightgrey" points="8,-86 8,-172 192,-172 192,-86 8,-86"/>
<text text-anchor="middle" x="100" y="-156.8" font-family="Times,serif" font-size="14.00">I</text>
</g>
<g id="clust2" class="cluster">
<title>cluster_L1</title>
<polygon fill="lightgrey" stroke="lightgrey" points="212,-8 212,-251 413,-251 413,-8 212,-8"/>
<text text-anchor="middle" x="312.5" y="-235.8" font-family="Times,serif" font-size="14.00">L1</text>
</g>
<g id="clust3" class="cluster">
<title>cluster_L2</title>
<polygon fill="lightgrey" stroke="lightgrey" points="433,-49 433,-204 634,-204 634,-49 433,-49"/>
<text text-anchor="middle" x="533.5" y="-188.8" font-family="Times,serif" font-size="14.00">L2</text>
</g>
<!-- i1 -->
<g id="node1" class="node">
<title>i1</title>
<polygon fill="white" stroke="white" points="16,-94 16,-140 184,-140 184,-94 16,-94"/>
<text text-anchor="middle" x="100" y="-124.8" font-family="Times,serif" font-size="14.00">i1</text>
<polyline fill="none" stroke="white" points="16,-117 184,-117 "/>
<text text-anchor="middle" x="26.5" y="-101.8" font-family="Times,serif" font-size="14.00">i</text>
<polyline fill="none" stroke="white" points="37,-94 37,-117 "/>
<text text-anchor="middle" x="110.5" y="-101.8" font-family="Times,serif" font-size="14.00">d 4.0000 g 0.0000</text>
</g>
<!-- L1N1 -->
<g id="node2" class="node">
<title>L1N1</title>
<polygon fill="white" stroke="white" points="220,-127 220,-219 405,-219 405,-127 220,-127"/>
<text text-anchor="middle" x="312.5" y="-203.8" font-family="Times,serif" font-size="14.00">N1</text>
<polyline fill="none" stroke="white" points="220,-196 405,-196 "/>
<text text-anchor="middle" x="239" y="-180.8" font-family="Times,serif" font-size="14.00">w1</text>
<polyline fill="none" stroke="white" points="258,-173 258,-196 "/>
<text text-anchor="middle" x="331.5" y="-180.8" font-family="Times,serif" font-size="14.00">d 0.2800 g 0.0000</text>
<polyline fill="none" stroke="white" points="220,-173 405,-173 "/>
<text text-anchor="middle" x="234.5" y="-157.8" font-family="Times,serif" font-size="14.00">b</text>
<polyline fill="none" stroke="white" points="249,-150 249,-173 "/>
<text text-anchor="middle" x="327" y="-157.8" font-family="Times,serif" font-size="14.00">d &#45;0.0550 g 0.0000</text>
<polyline fill="none" stroke="white" points="220,-150 405,-150 "/>
<text text-anchor="middle" x="235.5" y="-134.8" font-family="Times,serif" font-size="14.00">a</text>
<polyline fill="none" stroke="white" points="251,-127 251,-150 "/>
<text text-anchor="middle" x="328" y="-134.8" font-family="Times,serif" font-size="14.00">d 1.0650 g 0.0000</text>
</g>
<!-- i1&#45;&gt;L1N1 -->
<g id="edge1" class="edge">
<title>i1&#45;&gt;L1N1</title>
<path fill="none" stroke="black" d="M184.2,-139.13C192.71,-141.4 201.43,-143.72 210.11,-146.03"/>
<polygon fill="black" stroke="black" points="209.33,-149.44 219.89,-148.63 211.13,-142.68 209.33,-149.44"/>
</g>
<!-- L1N2 -->
<g id="node3" class="node">
<title>L1N2</title>
<polygon fill="white" stroke="white" points="220,-16 220,-108 405,-108 405,-16 220,-16"/>
<text text-anchor="middle" x="312.5" y="-92.8" font-family="Times,serif" font-size="14.00">N2</text>
<polyline fill="none" stroke="white" points="220,-85 405,-85 "/>
<text text-anchor="middle" x="239" y="-69.8" font-family="Times,serif" font-size="14.00">w1</text>
<polyline fill="none" stroke="white" points="258,-62 258,-85 "/>
<text text-anchor="middle" x="331.5" y="-69.8" font-family="Times,serif" font-size="14.00">d 0.0400 g 0.0000</text>
<polyline fill="none" stroke="white" points="220,-62 405,-62 "/>
<text text-anchor="middle" x="234.5" y="-46.8" font-family="Times,serif" font-size="14.00">b</text>
<polyline fill="none" stroke="white" points="249,-39 249,-62 "/>
<text text-anchor="middle" x="327" y="-46.8" font-family="Times,serif" font-size="14.00">d &#45;0.1150 g 0.0000</text>
<polyline fill="none" stroke="white" points="220,-39 405,-39 "/>
<text text-anchor="middle" x="235.5" y="-23.8" font-family="Times,serif" font-size="14.00">a</text>
<polyline fill="none" stroke="white" points="251,-16 251,-39 "/>
<text text-anchor="middle" x="328" y="-23.8" font-family="Times,serif" font-size="14.00">d 0.0450 g 0.0000</text>
</g>
<!-- i1&#45;&gt;L1N2 -->
<g id="edge2" class="edge">
<title>i1&#45;&gt;L1N2</title>
<path fill="none" stroke="black" d="M184.2,-95.26C192.71,-93.04 201.43,-90.76 210.11,-88.49"/>
<polygon fill="black" stroke="black" points="211.1,-91.85 219.89,-85.94 209.33,-85.08 211.1,-91.85"/>
</g>
<!-- L2N1 -->
<g id="node4" class="node">
<title>L2N1</title>
<polygon fill="white" stroke="white" points="441,-57.5 441,-172.5 626,-172.5 626,-57.5 441,-57.5"/>
<text text-anchor="middle" x="533.5" y="-157.3" font-family="Times,serif" font-size="14.00">N1</text>
<polyline fill="none" stroke="white" points="441,-149.5 626,-149.5 "/>
<text text-anchor="middle" x="460" y="-134.3" font-family="Times,serif" font-size="14.00">w1</text>
<polyline fill="none" stroke="white" points="479,-126.5 479,-149.5 "/>
<text text-anchor="middle" x="552.5" y="-134.3" font-family="Times,serif" font-size="14.00">d 0.4255 g 0.0000</text>
<polyline fill="none" stroke="white" points="441,-126.5 626,-126.5 "/>
<text text-anchor="middle" x="460" y="-111.3" font-family="Times,serif" font-size="14.00">w2</text>
<polyline fill="none" stroke="white" points="479,-103.5 479,-126.5 "/>
<text text-anchor="middle" x="552.5" y="-111.3" font-family="Times,serif" font-size="14.00">d 1.0510 g 0.0000</text>
<polyline fill="none" stroke="white" points="441,-103.5 626,-103.5 "/>
<text text-anchor="middle" x="455.5" y="-88.3" font-family="Times,serif" font-size="14.00">b</text>
<polyline fill="none" stroke="white" points="470,-80.5 470,-103.5 "/>
<text text-anchor="middle" x="548" y="-88.3" font-family="Times,serif" font-size="14.00">d &#45;0.1000 g 0.0000</text>
<polyline fill="none" stroke="white" points="441,-80.5 626,-80.5 "/>
<text text-anchor="middle" x="456.5" y="-65.3" font-family="Times,serif" font-size="14.00">a</text>
<polyline fill="none" stroke="white" points="472,-57.5 472,-80.5 "/>
<text text-anchor="middle" x="549" y="-65.3" font-family="Times,serif" font-size="14.00">d 0.4005 g 0.0000</text>
</g>
<!-- L1N1&#45;&gt;L2N1 -->
<g id="edge3" class="edge">
<title>L1N1&#45;&gt;L2N1</title>
<path fill="none" stroke="black" d="M405.11,-148.74C413.71,-146.46 422.46,-144.14 431.14,-141.84"/>
<polygon fill="black" stroke="black" points="432.14,-145.2 440.91,-139.26 430.35,-138.43 432.14,-145.2"/>
</g>
<!-- L1N2&#45;&gt;L2N1 -->
<g id="edge4" class="edge">
<title>L1N2&#45;&gt;L2N1</title>
<path fill="none" stroke="black" d="M405.11,-84.17C413.71,-86.25 422.46,-88.37 431.14,-90.47"/>
<polygon fill="black" stroke="black" points="430.37,-93.88 440.91,-92.83 432.01,-87.08 430.37,-93.88"/>
</g>
<!-- loss -->
<g id="node5" class="node">
<title>loss</title>
<polygon fill="none" stroke="black" points="35.5,-181 35.5,-217 164.5,-217 164.5,-181 35.5,-181"/>
<text text-anchor="middle" x="100" y="-195.3" font-family="Times,serif" font-size="14.00">step 3 loss 0.64</text>
</g>
</g>
</svg>
