<?xml version="1.0" encoding="UTF-8" standalone="no"?>
<!DOCTYPE svg PUBLIC "-//W3C//DTD SVG 1.1//EN"
 "http://www.w3.org/Graphics/SVG/1.1/DTD/svg11.dtd">
<!-- Generated by graphviz version 2.43.0 (0)
 -->
<!-- Title: %3 Pages: 1 -->
<svg width="686pt" height="267pt"
 viewBox="0.00 0.00 686.00 267.00" xmlns="http://www.w3.org/2000/svg" xmlns:xlink="http://www.w3.org/1999/xlink">
<g id="graph0" class="graph" transform="scale(1 1) rotate(0) translate(4 263)">
<title>%3</title>
<polygon fill="white" stroke="transparent" points="-4,4 -4,-263 682,-263 682,4 -4,4"/>
<g id="clust1" class="cluster">
<title>cluster_I</title>
<polygon fill="lightgrey" stroke="lightgrey" points="8,-86 8,-172 192,-172 192,-86 8,-86"/>
<text text-anchor="middle" x="100" y="-156.8" font-family="Times,serif" font-size="14.00">I</text>
</g>
<g id="clust2" class="cluster">
<title>cluster_L1</title>
<polygon fill="lightgrey" stroke="lightgrey" points="212,-8 212,-251 431,-251 431,-8 212,-8"/>
<text text-anchor="middle" x="321.5" y="-235.8" font-family="Times,serif" font-size="14.00">L1</text>
</g>
<g id="clust3" class="cluster">
<title>cluster_L2</title>
<polygon fill="lightgrey" stroke="lightgrey" points="451,-49 451,-204 670,-204 670,-49 451,-49"/>
<text text-anchor="middle" x="560.5" y="-188.8" font-family="Times,serif" font-size="14.00">L2</text>
</g>
<!-- i1 -->
<g id="node1" class="node">
<title>i1</title>
<polygon fill="white" stroke="white" points="16,-94 16,-140 184,-140 184,-94 16,-94"/>
<text text-anchor="middle" x="100" y="-124.8" font-family="Times,serif" font-size="14.00">i1</text>
<polyline fill="none" stroke="white" points="16,-117 184,-117 "/>
<text text-anchor="middle" x="26.5" y="-101.8" font-family="Times,serif" font-size="14.00">i</text>
<polyline fill="none" stroke="white" points="37,-94 37,-117 "/>
<text text-anchor="middle" x="110.5" y="-101.8" font-family="Times,serif" font-size="14.00">d 4.0000 g 8.2494</text>
</g>
<!-- L1N1 -->
<g id="node2" class="node">
<title>L1N1</title>
<polygon fill="white" stroke="white" points="220,-127 220,-219 423,-219 423,-127 220,-127"/>
<text text-anchor="middle" x="321.5" y="-203.8" font-family="Times,serif" font-size="14.00">N1</text>
<polyline fill="none" stroke="white" points="220,-196 423,-196 "/>
<text text-anchor="middle" x="239" y="-180.8" font-family="Times,serif" font-size="14.00">w1</text>
<polyline fill="none" stroke="white" points="258,-173 258,-196 "/>
<text text-anchor="middle" x="340.5" y="-180.8" font-family="Times,serif" font-size="14.00">d &#45;0.4948 g &#45;19.5240</text>
<polyline fill="none" stroke="white" points="220,-173 423,-173 "/>
<text text-anchor="middle" x="238" y="-157.8" font-family="Times,serif" font-size="14.00">b</text>
<polyline fill="none" stroke="white" points="256,-150 256,-173 "/>
<text text-anchor="middle" x="339.5" y="-157.8" font-family="Times,serif" font-size="14.00">d &#45;0.2487 g &#45;4.8810</text>
<polyline fill="none" stroke="white" points="220,-150 423,-150 "/>
<text text-anchor="middle" x="238" y="-134.8" font-family="Times,serif" font-size="14.00">a</text>
<polyline fill="none" stroke="white" points="256,-127 256,-150 "/>
<text text-anchor="middle" x="339.5" y="-134.8" font-family="Times,serif" font-size="14.00">d &#45;2.2278 g &#45;4.8810</text>
</g>
<!-- i1&#45;&gt;L1N1 -->
<g id="edge1" class="edge">
<title>i1&#45;&gt;L1N1</title>
<path fill="none" stroke="black" d="M184.3,-138.25C192.76,-140.41 201.44,-142.62 210.13,-144.84"/>
<polygon fill="black" stroke="black" points="209.37,-148.26 219.92,-147.34 211.1,-141.48 209.37,-148.26"/>
</g>
<!-- L1N2 -->
<g id="node3" class="node">
<title>L1N2</title>
<polygon fill="white" stroke="white" points="220,-16 220,-108 423,-108 423,-16 220,-16"/>
<text text-anchor="middle" x="321.5" y="-92.8" font-family="Times,serif" font-size="14.00">N2</text>
<polyline fill="none" stroke="white" points="220,-85 423,-85 "/>
<text text-anchor="middle" x="239" y="-69.8" font-family="Times,serif" font-size="14.00">w1</text>
<polyline fill="none" stroke="white" points="258,-62 258,-85 "/>
<text text-anchor="middle" x="340.5" y="-69.8" font-family="Times,serif" font-size="14.00">d &#45;0.7049 g &#45;33.1079</text>
<polyline fill="none" stroke="white" points="220,-62 423,-62 "/>
<text text-anchor="middle" x="238" y="-46.8" font-family="Times,serif" font-size="14.00">b</text>
<polyline fill="none" stroke="white" points="256,-39 256,-62 "/>
<text text-anchor="middle" x="339.5" y="-46.8" font-family="Times,serif" font-size="14.00">d &#45;0.3012 g &#45;8.2770</text>
<polyline fill="none" stroke="white" points="220,-39 423,-39 "/>
<text text-anchor="middle" x="238" y="-23.8" font-family="Times,serif" font-size="14.00">a</text>
<polyline fill="none" stroke="white" points="256,-16 256,-39 "/>
<text text-anchor="middle" x="339.5" y="-23.8" font-family="Times,serif" font-size="14.00">d &#45;3.1208 g &#45;8.2770</text>
</g>
<!-- i1&#45;&gt;L1N2 -->
<g id="edge2" class="edge">
<title>i1&#45;&gt;L1N2</title>
<path fill="none" stroke="black" d="M184.3,-96.13C192.76,-94.01 201.44,-91.83 210.13,-89.66"/>
<polygon fill="black" stroke="black" points="211.07,-93.03 219.92,-87.2 209.37,-86.24 211.07,-93.03"/>
</g>
<!-- L2N1 -->
<g id="node4" class="node">
<title>L2N1</title>
<polygon fill="white" stroke="white" points="459,-57.5 459,-172.5 662,-172.5 662,-57.5 459,-57.5"/>
<text text-anchor="middle" x="560.5" y="-157.3" font-family="Times,serif" font-size="14.00">N1</text>
<polyline fill="none" stroke="white" points="459,-149.5 662,-149.5 "/>
<text text-anchor="middle" x="478" y="-134.3" font-family="Times,serif" font-size="14.00">w1</text>
<polyline fill="none" stroke="white" points="497,-126.5 497,-149.5 "/>
<text text-anchor="middle" x="579.5" y="-134.3" font-family="Times,serif" font-size="14.00">d &#45;0.5755 g &#45;18.8936</text>
<polyline fill="none" stroke="white" points="459,-126.5 662,-126.5 "/>
<text text-anchor="middle" x="478" y="-111.3" font-family="Times,serif" font-size="14.00">w2</text>
<polyline fill="none" stroke="white" points="497,-103.5 497,-126.5 "/>
<text text-anchor="middle" x="579.5" y="-111.3" font-family="Times,serif" font-size="14.00">d &#45;0.9760 g &#45;26.4672</text>
<polyline fill="none" stroke="white" points="459,-103.5 662,-103.5 "/>
<text text-anchor="middle" x="478" y="-88.3" font-family="Times,serif" font-size="14.00">b</text>
<polyline fill="none" stroke="white" points="497,-80.5 497,-103.5 "/>
<text text-anchor="middle" x="579.5" y="-88.3" font-family="Times,serif" font-size="14.00">d &#45;0.0876 g 8.4808</text>
<polyline fill="none" stroke="white" points="459,-80.5 662,-80.5 "/>
<text text-anchor="middle" x="479" y="-65.3" font-family="Times,serif" font-size="14.00">a</text>
<polyline fill="none" stroke="white" points="499,-57.5 499,-80.5 "/>
<text text-anchor="middle" x="580.5" y="-65.3" font-family="Times,serif" font-size="14.00">d 4.2404 g 8.4808</text>
</g>
<!-- L1N1&#45;&gt;L2N1 -->
<g id="edge3" class="edge">
<title>L1N1&#45;&gt;L2N1</title>
<path fill="none" stroke="black" d="M423.01,-148.4C431.63,-146.29 440.37,-144.15 449.06,-142.03"/>
<polygon fill="black" stroke="black" points="449.95,-145.41 458.83,-139.64 448.29,-138.61 449.95,-145.41"/>
</g>
<!-- L1N2&#45;&gt;L2N1 -->
<g id="edge4" class="edge">
<title>L1N2&#45;&gt;L2N1</title>
<path fill="none" stroke="black" d="M423.01,-84.48C431.63,-86.4 440.37,-88.36 449.06,-90.3"/>
<polygon fill="black" stroke="black" points="448.31,-93.72 458.83,-92.49 449.84,-86.89 448.31,-93.72"/>
</g>
<!-- loss -->
<g id="node5" class="node">
<title>loss</title>
<polygon fill="none" stroke="black" points="31,-181 31,-217 169,-217 169,-181 31,-181"/>
<text text-anchor="middle" x="100" y="-195.3" font-family="Times,serif" font-size="14.00">step 3 loss 17.98</text>
</g>
</g>
</svg>
