<?xml version="1.0" encoding="UTF-8" standalone="no"?>
<!DOCTYPE svg PUBLIC "-//W3C//DTD SVG 1.1//EN"
 "http://www.w3.org/Graphics/SVG/1.1/DTD/svg11.dtd">
<!-- Generated by graphviz version 2.43.0 (0)
 -->
<!-- Title: %3 Pages: 1 -->
<svg width="682pt" height="267pt"
 viewBox="0.00 0.00 682.00 267.00" xmlns="http://www.w3.org/2000/svg" xmlns:xlink="http://www.w3.org/1999/xlink">
<g id="graph0" class="graph" transform="scale(1 1) rotate(0) translate(4 263)">
<title>%3</title>
<polygon fill="white" stroke="transparent" points="-4,4 -4,-263 678,-263 678,4 -4,4"/>
<g id="clust1" class="cluster">
<title>cluster_I</title>
<polygon fill="lightgrey" stroke="lightgrey" points="8,-86 8,-172 192,-172 192,-86 8,-86"/>
<text text-anchor="middle" x="100" y="-156.8" font-family="Times,serif" font-size="14.00">I</text>
</g>
<g id="clust2" class="cluster">
<title>cluster_L1</title>
<polygon fill="lightgrey" stroke="lightgrey" points="212,-8 212,-251 431,-251 431,-8 212,-8"/>
<text text-anchor="middle" x="321.5" y="-235.8" font-family="Times,serif" font-size="14.00">L1</text>
</g>
<g id="clust3" class="cluster">
<title>cluster_L2</title>
<polygon fill="lightgrey" stroke="lightgrey" points="451,-49 451,-204 666,-204 666,-49 451,-49"/>
<text text-anchor="middle" x="558.5" y="-188.8" font-family="Times,serif" font-size="14.00">L2</text>
</g>
<!-- i1 -->
<g id="node1" class="node">
<title>i1</title>
<polygon fill="white" stroke="white" points="16,-94 16,-140 184,-140 184,-94 16,-94"/>
<text text-anchor="middle" x="100" y="-124.8" font-family="Times,serif" font-size="14.00">i1</text>
<polyline fill="none" stroke="white" points="16,-117 184,-117 "/>
<text text-anchor="middle" x="26.5" y="-101.8" font-family="Times,serif" font-size="14.00">i</text>
<polyline fill="none" stroke="white" points="37,-94 37,-117 "/>
<text text-anchor="middle" x="110.5" y="-101.8" font-family="Times,serif" font-size="14.00">d 4.0000 g 2.9738</text>
</g>
<!-- L1N1 -->
<g id="node2" class="node">
<title>L1N1</title>
<polygon fill="white" stroke="white" points="226.5,-127 226.5,-219 416.5,-219 416.5,-127 226.5,-127"/>
<text text-anchor="middle" x="321.5" y="-203.8" font-family="Times,serif" font-size="14.00">N1</text>
<polyline fill="none" stroke="white" points="226.5,-196 416.5,-196 "/>
<text text-anchor="middle" x="245.5" y="-180.8" font-family="Times,serif" font-size="14.00">w1</text>
<polyline fill="none" stroke="white" points="264.5,-173 264.5,-196 "/>
<text text-anchor="middle" x="340.5" y="-180.8" font-family="Times,serif" font-size="14.00">d &#45;0.4948 g 2.6155</text>
<polyline fill="none" stroke="white" points="226.5,-173 416.5,-173 "/>
<text text-anchor="middle" x="242.5" y="-157.8" font-family="Times,serif" font-size="14.00">b</text>
<polyline fill="none" stroke="white" points="258.5,-150 258.5,-173 "/>
<text text-anchor="middle" x="337.5" y="-157.8" font-family="Times,serif" font-size="14.00">d &#45;0.2487 g 0.6539</text>
<polyline fill="none" stroke="white" points="226.5,-150 416.5,-150 "/>
<text text-anchor="middle" x="242" y="-134.8" font-family="Times,serif" font-size="14.00">a</text>
<polyline fill="none" stroke="white" points="257.5,-127 257.5,-150 "/>
<text text-anchor="middle" x="337" y="-134.8" font-family="Times,serif" font-size="14.00">d &#45;2.2278 g 0.0000</text>
</g>
<!-- i1&#45;&gt;L1N1 -->
<g id="edge1" class="edge">
<title>i1&#45;&gt;L1N1</title>
<path fill="none" stroke="black" d="M184.3,-138.25C194.79,-140.93 205.62,-143.69 216.39,-146.44"/>
<polygon fill="black" stroke="black" points="215.68,-149.87 226.24,-148.95 217.42,-143.09 215.68,-149.87"/>
</g>
<!-- L1N2 -->
<g id="node3" class="node">
<title>L1N2</title>
<polygon fill="white" stroke="white" points="220,-16 220,-108 423,-108 423,-16 220,-16"/>
<text text-anchor="middle" x="321.5" y="-92.8" font-family="Times,serif" font-size="14.00">N2</text>
<polyline fill="none" stroke="white" points="220,-85 423,-85 "/>
<text text-anchor="middle" x="239" y="-69.8" font-family="Times,serif" font-size="14.00">w1</text>
<polyline fill="none" stroke="white" points="258,-62 258,-85 "/>
<text text-anchor="middle" x="340.5" y="-69.8" font-family="Times,serif" font-size="14.00">d &#45;0.7049 g &#45;10.4620</text>
<polyline fill="none" stroke="white" points="220,-62 423,-62 "/>
<text text-anchor="middle" x="238" y="-46.8" font-family="Times,serif" font-size="14.00">b</text>
<polyline fill="none" stroke="white" points="256,-39 256,-62 "/>
<text text-anchor="middle" x="339.5" y="-46.8" font-family="Times,serif" font-size="14.00">d &#45;0.3012 g &#45;2.6155</text>
<polyline fill="none" stroke="white" points="220,-39 423,-39 "/>
<text text-anchor="middle" x="239" y="-23.8" font-family="Times,serif" font-size="14.00">a</text>
<polyline fill="none" stroke="white" points="258,-16 258,-39 "/>
<text text-anchor="middle" x="340.5" y="-23.8" font-family="Times,serif" font-size="14.00">d &#45;3.1208 g 0.0000</text>
</g>
<!-- i1&#45;&gt;L1N2 -->
<g id="edge2" class="edge">
<title>i1&#45;&gt;L1N2</title>
<path fill="none" stroke="black" d="M184.3,-96.13C192.76,-94.01 201.44,-91.83 210.13,-89.66"/>
<polygon fill="black" stroke="black" points="211.07,-93.03 219.92,-87.2 209.37,-86.24 211.07,-93.03"/>
</g>
<!-- L2N1 -->
<g id="node4" class="node">
<title>L2N1</title>
<polygon fill="white" stroke="white" points="459,-57.5 459,-172.5 658,-172.5 658,-57.5 459,-57.5"/>
<text text-anchor="middle" x="558.5" y="-157.3" font-family="Times,serif" font-size="14.00">N1</text>
<polyline fill="none" stroke="white" points="459,-149.5 658,-149.5 "/>
<text text-anchor="middle" x="480" y="-134.3" font-family="Times,serif" font-size="14.00">w1</text>
<polyline fill="none" stroke="white" points="501,-126.5 501,-149.5 "/>
<text text-anchor="middle" x="579.5" y="-134.3" font-family="Times,serif" font-size="14.00">d &#45;0.5755 g 9.1107</text>
<polyline fill="none" stroke="white" points="459,-126.5 658,-126.5 "/>
<text text-anchor="middle" x="478" y="-111.3" font-family="Times,serif" font-size="14.00">w2</text>
<polyline fill="none" stroke="white" points="497,-103.5 497,-126.5 "/>
<text text-anchor="middle" x="577.5" y="-111.3" font-family="Times,serif" font-size="14.00">d &#45;0.9760 g 29.1192</text>
<polyline fill="none" stroke="white" points="459,-103.5 658,-103.5 "/>
<text text-anchor="middle" x="476" y="-88.3" font-family="Times,serif" font-size="14.00">b</text>
<polyline fill="none" stroke="white" points="493,-80.5 493,-103.5 "/>
<text text-anchor="middle" x="575.5" y="-88.3" font-family="Times,serif" font-size="14.00">d &#45;0.0876 g &#45;5.4490</text>
<polyline fill="none" stroke="white" points="459,-80.5 658,-80.5 "/>
<text text-anchor="middle" x="478" y="-65.3" font-family="Times,serif" font-size="14.00">a</text>
<polyline fill="none" stroke="white" points="497,-57.5 497,-80.5 "/>
<text text-anchor="middle" x="577.5" y="-65.3" font-family="Times,serif" font-size="14.00">d 4.2404 g 0.0000</text>
</g>
<!-- L1N1&#45;&gt;L2N1 -->
<g id="edge3" class="edge">
<title>L1N1&#45;&gt;L2N1</title>
<path fill="none" stroke="black" d="M416.73,-149.74C427.29,-147.14 438.11,-144.47 448.83,-141.82"/>
<polygon fill="black" stroke="black" points="449.77,-145.19 458.64,-139.4 448.09,-138.4 449.77,-145.19"/>
</g>
<!-- L1N2&#45;&gt;L2N1 -->
<g id="edge4" class="edge">
<title>L1N2&#45;&gt;L2N1</title>
<path fill="none" stroke="black" d="M423.18,-84.71C431.69,-86.63 440.32,-88.57 448.88,-90.5"/>
<polygon fill="black" stroke="black" points="448.37,-93.97 458.89,-92.76 449.91,-87.15 448.37,-93.97"/>
</g>
<!-- loss -->
<g id="node5" class="node">
<title>loss</title>
<polygon fill="none" stroke="black" points="31,-181 31,-217 169,-217 169,-181 31,-181"/>
<text text-anchor="middle" x="100" y="-195.3" font-family="Times,serif" font-size="14.00">step 3 loss 17.98</text>
</g>
</g>
</svg>
