<?xml version="1.0" encoding="UTF-8" standalone="no"?>
<!DOCTYPE svg PUBLIC "-//W3C//DTD SVG 1.1//EN"
 "http://www.w3.org/Graphics/SVG/1.1/DTD/svg11.dtd">
<!-- Generated by graphviz version 2.43.0 (0)
 -->
<!-- Title: %3 Pages: 1 -->
<svg width="660pt" height="267pt"
 viewBox="0.00 0.00 660.00 267.00" xmlns="http://www.w3.org/2000/svg" xmlns:xlink="http://www.w3.org/1999/xlink">
<g id="graph0" class="graph" transform="scale(1 1) rotate(0) translate(4 263)">
<title>%3</title>
<polygon fill="white" stroke="transparent" points="-4,4 -4,-263 656,-263 656,4 -4,4"/>
<g id="clust1" class="cluster">
<title>cluster_I</title>
<polygon fill="lightgrey" stroke="lightgrey" points="8,-86 8,-172 192,-172 192,-86 8,-86"/>
<text text-anchor="middle" x="100" y="-156.8" font-family="Times,serif" font-size="14.00">I</text>
</g>
<g id="clust2" class="cluster">
<title>cluster_L1</title>
<polygon fill="lightgrey" stroke="lightgrey" points="212,-8 212,-251 418,-251 418,-8 212,-8"/>
<text text-anchor="middle" x="315" y="-235.8" font-family="Times,serif" font-size="14.00">L1</text>
</g>
<g id="clust3" class="cluster">
<title>cluster_L2</title>
<polygon fill="lightgrey" stroke="lightgrey" points="438,-49 438,-204 644,-204 644,-49 438,-49"/>
<text text-anchor="middle" x="541" y="-188.8" font-family="Times,serif" font-size="14.00">L2</text>
</g>
<!-- i1 -->
<g id="node1" class="node">
<title>i1</title>
<polygon fill="white" stroke="white" points="16,-94 16,-140 184,-140 184,-94 16,-94"/>
<text text-anchor="middle" x="100" y="-124.8" font-family="Times,serif" font-size="14.00">i1</text>
<polyline fill="none" stroke="white" points="16,-117 184,-117 "/>
<text text-anchor="middle" x="26.5" y="-101.8" font-family="Times,serif" font-size="14.00">i</text>
<polyline fill="none" stroke="white" points="37,-94 37,-117 "/>
<text text-anchor="middle" x="110.5" y="-101.8" font-family="Times,serif" font-size="14.00">d 4.0000 g 0.4853</text>
</g>
<!-- L1N1 -->
<g id="node2" class="node">
<title>L1N1</title>
<polygon fill="white" stroke="white" points="220,-127 220,-219 410,-219 410,-127 220,-127"/>
<text text-anchor="middle" x="315" y="-203.8" font-family="Times,serif" font-size="14.00">N1</text>
<polyline fill="none" stroke="white" points="220,-196 410,-196 "/>
<text text-anchor="middle" x="239" y="-180.8" font-family="Times,serif" font-size="14.00">w1</text>
<polyline fill="none" stroke="white" points="258,-173 258,-196 "/>
<text text-anchor="middle" x="334" y="-180.8" font-family="Times,serif" font-size="14.00">d 0.2902 g &#45;0.7760</text>
<polyline fill="none" stroke="white" points="220,-173 410,-173 "/>
<text text-anchor="middle" x="235" y="-157.8" font-family="Times,serif" font-size="14.00">b</text>
<polyline fill="none" stroke="white" points="250,-150 250,-173 "/>
<text text-anchor="middle" x="330" y="-157.8" font-family="Times,serif" font-size="14.00">d &#45;0.0524 g &#45;0.1940</text>
<polyline fill="none" stroke="white" points="220,-150 410,-150 "/>
<text text-anchor="middle" x="235.5" y="-134.8" font-family="Times,serif" font-size="14.00">a</text>
<polyline fill="none" stroke="white" points="251,-127 251,-150 "/>
<text text-anchor="middle" x="330.5" y="-134.8" font-family="Times,serif" font-size="14.00">d 0.9437 g &#45;0.1940</text>
</g>
<!-- i1&#45;&gt;L1N1 -->
<g id="edge1" class="edge">
<title>i1&#45;&gt;L1N1</title>
<path fill="none" stroke="black" d="M184.27,-138.89C192.74,-141.12 201.43,-143.4 210.09,-145.68"/>
<polygon fill="black" stroke="black" points="209.28,-149.09 219.85,-148.25 211.06,-142.32 209.28,-149.09"/>
</g>
<!-- L1N2 -->
<g id="node3" class="node">
<title>L1N2</title>
<polygon fill="white" stroke="white" points="222.5,-16 222.5,-108 407.5,-108 407.5,-16 222.5,-16"/>
<text text-anchor="middle" x="315" y="-92.8" font-family="Times,serif" font-size="14.00">N2</text>
<polyline fill="none" stroke="white" points="222.5,-85 407.5,-85 "/>
<text text-anchor="middle" x="241.5" y="-69.8" font-family="Times,serif" font-size="14.00">w1</text>
<polyline fill="none" stroke="white" points="260.5,-62 260.5,-85 "/>
<text text-anchor="middle" x="334" y="-69.8" font-family="Times,serif" font-size="14.00">d 0.5886 g 2.9102</text>
<polyline fill="none" stroke="white" points="222.5,-62 407.5,-62 "/>
<text text-anchor="middle" x="238.5" y="-46.8" font-family="Times,serif" font-size="14.00">b</text>
<polyline fill="none" stroke="white" points="254.5,-39 254.5,-62 "/>
<text text-anchor="middle" x="331" y="-46.8" font-family="Times,serif" font-size="14.00">d 0.0221 g 0.7275</text>
<polyline fill="none" stroke="white" points="222.5,-39 407.5,-39 "/>
<text text-anchor="middle" x="238" y="-23.8" font-family="Times,serif" font-size="14.00">a</text>
<polyline fill="none" stroke="white" points="253.5,-16 253.5,-39 "/>
<text text-anchor="middle" x="330.5" y="-23.8" font-family="Times,serif" font-size="14.00">d 2.9948 g 0.7275</text>
</g>
<!-- i1&#45;&gt;L1N2 -->
<g id="edge2" class="edge">
<title>i1&#45;&gt;L1N2</title>
<path fill="none" stroke="black" d="M184.27,-95.5C193.53,-93.11 203.05,-90.65 212.51,-88.21"/>
<polygon fill="black" stroke="black" points="213.52,-91.56 222.33,-85.67 211.77,-84.78 213.52,-91.56"/>
</g>
<!-- L2N1 -->
<g id="node4" class="node">
<title>L2N1</title>
<polygon fill="white" stroke="white" points="446,-57.5 446,-172.5 636,-172.5 636,-57.5 446,-57.5"/>
<text text-anchor="middle" x="541" y="-157.3" font-family="Times,serif" font-size="14.00">N1</text>
<polyline fill="none" stroke="white" points="446,-149.5 636,-149.5 "/>
<text text-anchor="middle" x="465" y="-134.3" font-family="Times,serif" font-size="14.00">w1</text>
<polyline fill="none" stroke="white" points="484,-126.5 484,-149.5 "/>
<text text-anchor="middle" x="560" y="-134.3" font-family="Times,serif" font-size="14.00">d 0.2008 g &#45;2.6175</text>
<polyline fill="none" stroke="white" points="446,-126.5 636,-126.5 "/>
<text text-anchor="middle" x="465" y="-111.3" font-family="Times,serif" font-size="14.00">w2</text>
<polyline fill="none" stroke="white" points="484,-103.5 484,-126.5 "/>
<text text-anchor="middle" x="560" y="-111.3" font-family="Times,serif" font-size="14.00">d 0.1530 g &#45;8.3068</text>
<polyline fill="none" stroke="white" points="446,-103.5 636,-103.5 "/>
<text text-anchor="middle" x="461" y="-88.3" font-family="Times,serif" font-size="14.00">b</text>
<polyline fill="none" stroke="white" points="476,-80.5 476,-103.5 "/>
<text text-anchor="middle" x="556" y="-88.3" font-family="Times,serif" font-size="14.00">d &#45;0.5287 g &#45;2.7737</text>
<polyline fill="none" stroke="white" points="446,-80.5 636,-80.5 "/>
<text text-anchor="middle" x="460.5" y="-65.3" font-family="Times,serif" font-size="14.00">a</text>
<polyline fill="none" stroke="white" points="475,-57.5 475,-80.5 "/>
<text text-anchor="middle" x="555.5" y="-65.3" font-family="Times,serif" font-size="14.00">d &#45;1.3869 g &#45;2.7737</text>
</g>
<!-- L1N1&#45;&gt;L2N1 -->
<g id="edge3" class="edge">
<title>L1N1&#45;&gt;L2N1</title>
<path fill="none" stroke="black" d="M410.02,-148.65C418.63,-146.43 427.39,-144.16 436.08,-141.91"/>
<polygon fill="black" stroke="black" points="437.06,-145.27 445.86,-139.38 435.3,-138.49 437.06,-145.27"/>
</g>
<!-- L1N2&#45;&gt;L2N1 -->
<g id="edge4" class="edge">
<title>L1N2&#45;&gt;L2N1</title>
<path fill="none" stroke="black" d="M407.76,-83.71C417.08,-85.92 426.6,-88.17 436.04,-90.4"/>
<polygon fill="black" stroke="black" points="435.31,-93.83 445.85,-92.72 436.92,-87.01 435.31,-93.83"/>
</g>
<!-- loss -->
<g id="node5" class="node">
<title>loss</title>
<polygon fill="none" stroke="black" points="35.5,-181 35.5,-217 164.5,-217 164.5,-181 35.5,-181"/>
<text text-anchor="middle" x="100" y="-195.3" font-family="Times,serif" font-size="14.00">step 5 loss 1.92</text>
</g>
</g>
</svg>
