<?xml version="1.0" encoding="UTF-8" standalone="no"?>
<!DOCTYPE svg PUBLIC "-//W3C//DTD SVG 1.1//EN"
 "http://www.w3.org/Graphics/SVG/1.1/DTD/svg11.dtd">
<!-- Generated by graphviz version 2.43.0 (0)
 -->
<!-- Title: %3 Pages: 1 -->
<svg width="655pt" height="267pt"
 viewBox="0.00 0.00 655.00 267.00" xmlns="http://www.w3.org/2000/svg" xmlns:xlink="http://www.w3.org/1999/xlink">
<g id="graph0" class="graph" transform="scale(1 1) rotate(0) translate(4 263)">
<title>%3</title>
<polygon fill="white" stroke="transparent" points="-4,4 -4,-263 651,-263 651,4 -4,4"/>
<g id="clust1" class="cluster">
<title>cluster_I</title>
<polygon fill="lightgrey" stroke="lightgrey" points="8,-86 8,-172 192,-172 192,-86 8,-86"/>
<text text-anchor="middle" x="100" y="-156.8" font-family="Times,serif" font-size="14.00">I</text>
</g>
<g id="clust2" class="cluster">
<title>cluster_L1</title>
<polygon fill="lightgrey" stroke="lightgrey" points="212,-8 212,-251 418,-251 418,-8 212,-8"/>
<text text-anchor="middle" x="315" y="-235.8" font-family="Times,serif" font-size="14.00">L1</text>
</g>
<g id="clust3" class="cluster">
<title>cluster_L2</title>
<polygon fill="lightgrey" stroke="lightgrey" points="438,-49 438,-204 639,-204 639,-49 438,-49"/>
<text text-anchor="middle" x="538.5" y="-188.8" font-family="Times,serif" font-size="14.00">L2</text>
</g>
<!-- i1 -->
<g id="node1" class="node">
<title>i1</title>
<polygon fill="white" stroke="white" points="16,-94 16,-140 184,-140 184,-94 16,-94"/>
<text text-anchor="middle" x="100" y="-124.8" font-family="Times,serif" font-size="14.00">i1</text>
<polyline fill="none" stroke="white" points="16,-117 184,-117 "/>
<text text-anchor="middle" x="26.5" y="-101.8" font-family="Times,serif" font-size="14.00">i</text>
<polyline fill="none" stroke="white" points="37,-94 37,-117 "/>
<text text-anchor="middle" x="110.5" y="-101.8" font-family="Times,serif" font-size="14.00">d 4.0000 g 0.0000</text>
</g>
<!-- L1N1 -->
<g id="node2" class="node">
<title>L1N1</title>
<polygon fill="white" stroke="white" points="220,-127 220,-219 410,-219 410,-127 220,-127"/>
<text text-anchor="middle" x="315" y="-203.8" font-family="Times,serif" font-size="14.00">N1</text>
<polyline fill="none" stroke="white" points="220,-196 410,-196 "/>
<text text-anchor="middle" x="239" y="-180.8" font-family="Times,serif" font-size="14.00">w1</text>
<polyline fill="none" stroke="white" points="258,-173 258,-196 "/>
<text text-anchor="middle" x="334" y="-180.8" font-family="Times,serif" font-size="14.00">d &#45;0.0105 g 0.0000</text>
<polyline fill="none" stroke="white" points="220,-173 410,-173 "/>
<text text-anchor="middle" x="236" y="-157.8" font-family="Times,serif" font-size="14.00">b</text>
<polyline fill="none" stroke="white" points="252,-150 252,-173 "/>
<text text-anchor="middle" x="331" y="-157.8" font-family="Times,serif" font-size="14.00">d &#45;0.1276 g 0.0000</text>
<polyline fill="none" stroke="white" points="220,-150 410,-150 "/>
<text text-anchor="middle" x="235.5" y="-134.8" font-family="Times,serif" font-size="14.00">a</text>
<polyline fill="none" stroke="white" points="251,-127 251,-150 "/>
<text text-anchor="middle" x="330.5" y="-134.8" font-family="Times,serif" font-size="14.00">d &#45;0.1697 g 0.0000</text>
</g>
<!-- i1&#45;&gt;L1N1 -->
<g id="edge1" class="edge">
<title>i1&#45;&gt;L1N1</title>
<path fill="none" stroke="black" d="M184.27,-138.89C192.74,-141.12 201.43,-143.4 210.09,-145.68"/>
<polygon fill="black" stroke="black" points="209.28,-149.09 219.85,-148.25 211.06,-142.32 209.28,-149.09"/>
</g>
<!-- L1N2 -->
<g id="node3" class="node">
<title>L1N2</title>
<polygon fill="white" stroke="white" points="220,-16 220,-108 410,-108 410,-16 220,-16"/>
<text text-anchor="middle" x="315" y="-92.8" font-family="Times,serif" font-size="14.00">N2</text>
<polyline fill="none" stroke="white" points="220,-85 410,-85 "/>
<text text-anchor="middle" x="239" y="-69.8" font-family="Times,serif" font-size="14.00">w1</text>
<polyline fill="none" stroke="white" points="258,-62 258,-85 "/>
<text text-anchor="middle" x="334" y="-69.8" font-family="Times,serif" font-size="14.00">d &#45;0.8338 g 0.0000</text>
<polyline fill="none" stroke="white" points="220,-62 410,-62 "/>
<text text-anchor="middle" x="236" y="-46.8" font-family="Times,serif" font-size="14.00">b</text>
<polyline fill="none" stroke="white" points="252,-39 252,-62 "/>
<text text-anchor="middle" x="331" y="-46.8" font-family="Times,serif" font-size="14.00">d &#45;0.3335 g 0.0000</text>
<polyline fill="none" stroke="white" points="220,-39 410,-39 "/>
<text text-anchor="middle" x="235.5" y="-23.8" font-family="Times,serif" font-size="14.00">a</text>
<polyline fill="none" stroke="white" points="251,-16 251,-39 "/>
<text text-anchor="middle" x="330.5" y="-23.8" font-family="Times,serif" font-size="14.00">d &#45;3.6687 g 0.0000</text>
</g>
<!-- i1&#45;&gt;L1N2 -->
<g id="edge2" class="edge">
<title>i1&#45;&gt;L1N2</title>
<path fill="none" stroke="black" d="M184.27,-95.5C192.74,-93.31 201.43,-91.07 210.09,-88.83"/>
<polygon fill="black" stroke="black" points="211.04,-92.2 219.85,-86.31 209.29,-85.42 211.04,-92.2"/>
</g>
<!-- L2N1 -->
<g id="node4" class="node">
<title>L2N1</title>
<polygon fill="white" stroke="white" points="446,-57.5 446,-172.5 631,-172.5 631,-57.5 446,-57.5"/>
<text text-anchor="middle" x="538.5" y="-157.3" font-family="Times,serif" font-size="14.00">N1</text>
<polyline fill="none" stroke="white" points="446,-149.5 631,-149.5 "/>
<text text-anchor="middle" x="465" y="-134.3" font-family="Times,serif" font-size="14.00">w1</text>
<polyline fill="none" stroke="white" points="484,-126.5 484,-149.5 "/>
<text text-anchor="middle" x="557.5" y="-134.3" font-family="Times,serif" font-size="14.00">d 0.3127 g 0.0000</text>
<polyline fill="none" stroke="white" points="446,-126.5 631,-126.5 "/>
<text text-anchor="middle" x="465" y="-111.3" font-family="Times,serif" font-size="14.00">w2</text>
<polyline fill="none" stroke="white" points="484,-103.5 484,-126.5 "/>
<text text-anchor="middle" x="557.5" y="-111.3" font-family="Times,serif" font-size="14.00">d 1.3115 g 0.0000</text>
<polyline fill="none" stroke="white" points="446,-103.5 631,-103.5 "/>
<text text-anchor="middle" x="460.5" y="-88.3" font-family="Times,serif" font-size="14.00">b</text>
<polyline fill="none" stroke="white" points="475,-80.5 475,-103.5 "/>
<text text-anchor="middle" x="553" y="-88.3" font-family="Times,serif" font-size="14.00">d &#45;0.3000 g 0.0000</text>
<polyline fill="none" stroke="white" points="446,-80.5 631,-80.5 "/>
<text text-anchor="middle" x="460.5" y="-65.3" font-family="Times,serif" font-size="14.00">a</text>
<polyline fill="none" stroke="white" points="475,-57.5 475,-80.5 "/>
<text text-anchor="middle" x="553" y="-65.3" font-family="Times,serif" font-size="14.00">d &#45;5.1647 g 0.0000</text>
</g>
<!-- L1N1&#45;&gt;L2N1 -->
<g id="edge3" class="edge">
<title>L1N1&#45;&gt;L2N1</title>
<path fill="none" stroke="black" d="M410.26,-148.32C418.81,-146.08 427.5,-143.8 436.11,-141.55"/>
<polygon fill="black" stroke="black" points="437.01,-144.93 445.8,-139.01 435.24,-138.16 437.01,-144.93"/>
</g>
<!-- L1N2&#45;&gt;L2N1 -->
<g id="edge4" class="edge">
<title>L1N2&#45;&gt;L2N1</title>
<path fill="none" stroke="black" d="M410.26,-84.55C418.72,-86.58 427.31,-88.64 435.84,-90.67"/>
<polygon fill="black" stroke="black" points="435.26,-94.13 445.8,-93.06 436.89,-87.33 435.26,-94.13"/>
</g>
<!-- loss -->
<g id="node5" class="node">
<title>loss</title>
<polygon fill="none" stroke="black" points="31,-181 31,-217 169,-217 169,-181 31,-181"/>
<text text-anchor="middle" x="100" y="-195.3" font-family="Times,serif" font-size="14.00">step 7 loss 26.67</text>
</g>
</g>
</svg>
