<?xml version="1.0" encoding="UTF-8" standalone="no"?>
<!DOCTYPE svg PUBLIC "-//W3C//DTD SVG 1.1//EN"
 "http://www.w3.org/Graphics/SVG/1.1/DTD/svg11.dtd">
<!-- Generated by graphviz version 2.43.0 (0)
 -->
<!-- Title: %3 Pages: 1 -->
<svg width="678pt" height="267pt"
 viewBox="0.00 0.00 678.00 267.00" xmlns="http://www.w3.org/2000/svg" xmlns:xlink="http://www.w3.org/1999/xlink">
<g id="graph0" class="graph" transform="scale(1 1) rotate(0) translate(4 263)">
<title>%3</title>
<polygon fill="white" stroke="transparent" points="-4,4 -4,-263 674,-263 674,4 -4,4"/>
<g id="clust1" class="cluster">
<title>cluster_I</title>
<polygon fill="lightgrey" stroke="lightgrey" points="8,-86 8,-172 192,-172 192,-86 8,-86"/>
<text text-anchor="middle" x="100" y="-156.8" font-family="Times,serif" font-size="14.00">I</text>
</g>
<g id="clust2" class="cluster">
<title>cluster_L1</title>
<polygon fill="lightgrey" stroke="lightgrey" points="212,-8 212,-251 427,-251 427,-8 212,-8"/>
<text text-anchor="middle" x="319.5" y="-235.8" font-family="Times,serif" font-size="14.00">L1</text>
</g>
<g id="clust3" class="cluster">
<title>cluster_L2</title>
<polygon fill="lightgrey" stroke="lightgrey" points="447,-49 447,-204 662,-204 662,-49 447,-49"/>
<text text-anchor="middle" x="554.5" y="-188.8" font-family="Times,serif" font-size="14.00">L2</text>
</g>
<!-- i1 -->
<g id="node1" class="node">
<title>i1</title>
<polygon fill="white" stroke="white" points="16,-94 16,-140 184,-140 184,-94 16,-94"/>
<text text-anchor="middle" x="100" y="-124.8" font-family="Times,serif" font-size="14.00">i1</text>
<polyline fill="none" stroke="white" points="16,-117 184,-117 "/>
<text text-anchor="middle" x="26.5" y="-101.8" font-family="Times,serif" font-size="14.00">i</text>
<polyline fill="none" stroke="white" points="37,-94 37,-117 "/>
<text text-anchor="middle" x="110.5" y="-101.8" font-family="Times,serif" font-size="14.00">d 4.0000 g 8.2494</text>
</g>
<!-- L1N1 -->
<g id="node2" class="node">
<title>L1N1</title>
<polygon fill="white" stroke="white" points="220,-127 220,-219 419,-219 419,-127 220,-127"/>
<text text-anchor="middle" x="319.5" y="-203.8" font-family="Times,serif" font-size="14.00">N1</text>
<polyline fill="none" stroke="white" points="220,-196 419,-196 "/>
<text text-anchor="middle" x="239" y="-180.8" font-family="Times,serif" font-size="14.00">w1</text>
<polyline fill="none" stroke="white" points="258,-173 258,-196 "/>
<text text-anchor="middle" x="338.5" y="-180.8" font-family="Times,serif" font-size="14.00">d 0.4814 g &#45;19.5240</text>
<polyline fill="none" stroke="white" points="220,-173 419,-173 "/>
<text text-anchor="middle" x="237" y="-157.8" font-family="Times,serif" font-size="14.00">b</text>
<polyline fill="none" stroke="white" points="254,-150 254,-173 "/>
<text text-anchor="middle" x="336.5" y="-157.8" font-family="Times,serif" font-size="14.00">d &#45;0.0046 g &#45;4.8810</text>
<polyline fill="none" stroke="white" points="220,-150 419,-150 "/>
<text text-anchor="middle" x="239" y="-134.8" font-family="Times,serif" font-size="14.00">a</text>
<polyline fill="none" stroke="white" points="258,-127 258,-150 "/>
<text text-anchor="middle" x="338.5" y="-134.8" font-family="Times,serif" font-size="14.00">d 1.9211 g 0.0000</text>
</g>
<!-- i1&#45;&gt;L1N1 -->
<g id="edge1" class="edge">
<title>i1&#45;&gt;L1N1</title>
<path fill="none" stroke="black" d="M184.16,-138.41C192.61,-140.59 201.28,-142.82 209.95,-145.05"/>
<polygon fill="black" stroke="black" points="209.17,-148.46 219.72,-147.57 210.91,-141.69 209.17,-148.46"/>
</g>
<!-- L1N2 -->
<g id="node3" class="node">
<title>L1N2</title>
<polygon fill="white" stroke="white" points="220,-16 220,-108 419,-108 419,-16 220,-16"/>
<text text-anchor="middle" x="319.5" y="-92.8" font-family="Times,serif" font-size="14.00">N2</text>
<polyline fill="none" stroke="white" points="220,-85 419,-85 "/>
<text text-anchor="middle" x="239" y="-69.8" font-family="Times,serif" font-size="14.00">w1</text>
<polyline fill="none" stroke="white" points="258,-62 258,-85 "/>
<text text-anchor="middle" x="338.5" y="-69.8" font-family="Times,serif" font-size="14.00">d 0.9505 g &#45;33.1079</text>
<polyline fill="none" stroke="white" points="220,-62 419,-62 "/>
<text text-anchor="middle" x="238" y="-46.8" font-family="Times,serif" font-size="14.00">b</text>
<polyline fill="none" stroke="white" points="256,-39 256,-62 "/>
<text text-anchor="middle" x="337.5" y="-46.8" font-family="Times,serif" font-size="14.00">d 0.1126 g &#45;8.2770</text>
<polyline fill="none" stroke="white" points="220,-39 419,-39 "/>
<text text-anchor="middle" x="239" y="-23.8" font-family="Times,serif" font-size="14.00">a</text>
<polyline fill="none" stroke="white" points="258,-16 258,-39 "/>
<text text-anchor="middle" x="338.5" y="-23.8" font-family="Times,serif" font-size="14.00">d 3.9146 g 0.0000</text>
</g>
<!-- i1&#45;&gt;L1N2 -->
<g id="edge2" class="edge">
<title>i1&#45;&gt;L1N2</title>
<path fill="none" stroke="black" d="M184.16,-95.97C192.61,-93.83 201.28,-91.64 209.95,-89.45"/>
<polygon fill="black" stroke="black" points="210.89,-92.82 219.72,-86.98 209.17,-86.04 210.89,-92.82"/>
</g>
<!-- L2N1 -->
<g id="node4" class="node">
<title>L2N1</title>
<polygon fill="white" stroke="white" points="455,-57.5 455,-172.5 654,-172.5 654,-57.5 455,-57.5"/>
<text text-anchor="middle" x="554.5" y="-157.3" font-family="Times,serif" font-size="14.00">N1</text>
<polyline fill="none" stroke="white" points="455,-149.5 654,-149.5 "/>
<text text-anchor="middle" x="474" y="-134.3" font-family="Times,serif" font-size="14.00">w1</text>
<polyline fill="none" stroke="white" points="493,-126.5 493,-149.5 "/>
<text text-anchor="middle" x="573.5" y="-134.3" font-family="Times,serif" font-size="14.00">d 0.3691 g &#45;18.8936</text>
<polyline fill="none" stroke="white" points="455,-126.5 654,-126.5 "/>
<text text-anchor="middle" x="474" y="-111.3" font-family="Times,serif" font-size="14.00">w2</text>
<polyline fill="none" stroke="white" points="493,-103.5 493,-126.5 "/>
<text text-anchor="middle" x="573.5" y="-111.3" font-family="Times,serif" font-size="14.00">d 0.3474 g &#45;26.4672</text>
<polyline fill="none" stroke="white" points="455,-103.5 654,-103.5 "/>
<text text-anchor="middle" x="473" y="-88.3" font-family="Times,serif" font-size="14.00">b</text>
<polyline fill="none" stroke="white" points="491,-80.5 491,-103.5 "/>
<text text-anchor="middle" x="572.5" y="-88.3" font-family="Times,serif" font-size="14.00">d &#45;0.5116 g 8.4808</text>
<polyline fill="none" stroke="white" points="455,-80.5 654,-80.5 "/>
<text text-anchor="middle" x="474" y="-65.3" font-family="Times,serif" font-size="14.00">a</text>
<polyline fill="none" stroke="white" points="493,-57.5 493,-80.5 "/>
<text text-anchor="middle" x="573.5" y="-65.3" font-family="Times,serif" font-size="14.00">d 1.5575 g 0.0000</text>
</g>
<!-- L1N1&#45;&gt;L2N1 -->
<g id="edge3" class="edge">
<title>L1N1&#45;&gt;L2N1</title>
<path fill="none" stroke="black" d="M419.31,-148.4C427.87,-146.27 436.57,-144.11 445.2,-141.96"/>
<polygon fill="black" stroke="black" points="446.05,-145.35 454.91,-139.54 444.36,-138.56 446.05,-145.35"/>
</g>
<!-- L1N2&#45;&gt;L2N1 -->
<g id="edge4" class="edge">
<title>L1N2&#45;&gt;L2N1</title>
<path fill="none" stroke="black" d="M419.31,-84.48C427.78,-86.4 436.38,-88.36 444.92,-90.3"/>
<polygon fill="black" stroke="black" points="444.38,-93.77 454.91,-92.57 445.93,-86.94 444.38,-93.77"/>
</g>
<!-- loss -->
<g id="node5" class="node">
<title>loss</title>
<polygon fill="none" stroke="black" points="35.5,-181 35.5,-217 164.5,-217 164.5,-181 35.5,-181"/>
<text text-anchor="middle" x="100" y="-195.3" font-family="Times,serif" font-size="14.00">step 4 loss 2.43</text>
</g>
</g>
</svg>
