<?xml version="1.0" encoding="UTF-8" standalone="no"?>
<!DOCTYPE svg PUBLIC "-//W3C//DTD SVG 1.1//EN"
 "http://www.w3.org/Graphics/SVG/1.1/DTD/svg11.dtd">
<!-- Generated by graphviz version 2.43.0 (0)
 -->
<!-- Title: %3 Pages: 1 -->
<svg width="664pt" height="267pt"
 viewBox="0.00 0.00 664.00 267.00" xmlns="http://www.w3.org/2000/svg" xmlns:xlink="http://www.w3.org/1999/xlink">
<g id="graph0" class="graph" transform="scale(1 1) rotate(0) translate(4 263)">
<title>%3</title>
<polygon fill="white" stroke="transparent" points="-4,4 -4,-263 660,-263 660,4 -4,4"/>
<g id="clust1" class="cluster">
<title>cluster_I</title>
<polygon fill="lightgrey" stroke="lightgrey" points="8,-86 8,-172 192,-172 192,-86 8,-86"/>
<text text-anchor="middle" x="100" y="-156.8" font-family="Times,serif" font-size="14.00">I</text>
</g>
<g id="clust2" class="cluster">
<title>cluster_L1</title>
<polygon fill="lightgrey" stroke="lightgrey" points="212,-8 212,-251 413,-251 413,-8 212,-8"/>
<text text-anchor="middle" x="312.5" y="-235.8" font-family="Times,serif" font-size="14.00">L1</text>
</g>
<g id="clust3" class="cluster">
<title>cluster_L2</title>
<polygon fill="lightgrey" stroke="lightgrey" points="433,-49 433,-204 648,-204 648,-49 433,-49"/>
<text text-anchor="middle" x="540.5" y="-188.8" font-family="Times,serif" font-size="14.00">L2</text>
</g>
<!-- i1 -->
<g id="node1" class="node">
<title>i1</title>
<polygon fill="white" stroke="white" points="16,-94 16,-140 184,-140 184,-94 16,-94"/>
<text text-anchor="middle" x="100" y="-124.8" font-family="Times,serif" font-size="14.00">i1</text>
<polyline fill="none" stroke="white" points="16,-117 184,-117 "/>
<text text-anchor="middle" x="26.5" y="-101.8" font-family="Times,serif" font-size="14.00">i</text>
<polyline fill="none" stroke="white" points="37,-94 37,-117 "/>
<text text-anchor="middle" x="110.5" y="-101.8" font-family="Times,serif" font-size="14.00">d 4.0000 g 1.5822</text>
</g>
<!-- L1N1 -->
<g id="node2" class="node">
<title>L1N1</title>
<polygon fill="white" stroke="white" points="220,-127 220,-219 405,-219 405,-127 220,-127"/>
<text text-anchor="middle" x="312.5" y="-203.8" font-family="Times,serif" font-size="14.00">N1</text>
<polyline fill="none" stroke="white" points="220,-196 405,-196 "/>
<text text-anchor="middle" x="239" y="-180.8" font-family="Times,serif" font-size="14.00">w1</text>
<polyline fill="none" stroke="white" points="258,-173 258,-196 "/>
<text text-anchor="middle" x="331.5" y="-180.8" font-family="Times,serif" font-size="14.00">d 0.2514 g 4.5995</text>
<polyline fill="none" stroke="white" points="220,-173 405,-173 "/>
<text text-anchor="middle" x="234.5" y="-157.8" font-family="Times,serif" font-size="14.00">b</text>
<polyline fill="none" stroke="white" points="249,-150 249,-173 "/>
<text text-anchor="middle" x="327" y="-157.8" font-family="Times,serif" font-size="14.00">d &#45;0.0621 g 1.1499</text>
<polyline fill="none" stroke="white" points="220,-150 405,-150 "/>
<text text-anchor="middle" x="235.5" y="-134.8" font-family="Times,serif" font-size="14.00">a</text>
<polyline fill="none" stroke="white" points="251,-127 251,-150 "/>
<text text-anchor="middle" x="328" y="-134.8" font-family="Times,serif" font-size="14.00">d 0.9437 g 0.0000</text>
</g>
<!-- i1&#45;&gt;L1N1 -->
<g id="edge1" class="edge">
<title>i1&#45;&gt;L1N1</title>
<path fill="none" stroke="black" d="M184.2,-139.13C192.71,-141.4 201.43,-143.72 210.11,-146.03"/>
<polygon fill="black" stroke="black" points="209.33,-149.44 219.89,-148.63 211.13,-142.68 209.33,-149.44"/>
</g>
<!-- L1N2 -->
<g id="node3" class="node">
<title>L1N2</title>
<polygon fill="white" stroke="white" points="220,-16 220,-108 405,-108 405,-16 220,-16"/>
<text text-anchor="middle" x="312.5" y="-92.8" font-family="Times,serif" font-size="14.00">N2</text>
<polyline fill="none" stroke="white" points="220,-85 405,-85 "/>
<text text-anchor="middle" x="239" y="-69.8" font-family="Times,serif" font-size="14.00">w1</text>
<polyline fill="none" stroke="white" points="258,-62 258,-85 "/>
<text text-anchor="middle" x="331.5" y="-69.8" font-family="Times,serif" font-size="14.00">d 0.7341 g 4.3286</text>
<polyline fill="none" stroke="white" points="220,-62 405,-62 "/>
<text text-anchor="middle" x="236" y="-46.8" font-family="Times,serif" font-size="14.00">b</text>
<polyline fill="none" stroke="white" points="252,-39 252,-62 "/>
<text text-anchor="middle" x="328.5" y="-46.8" font-family="Times,serif" font-size="14.00">d 0.0585 g 1.0821</text>
<polyline fill="none" stroke="white" points="220,-39 405,-39 "/>
<text text-anchor="middle" x="235.5" y="-23.8" font-family="Times,serif" font-size="14.00">a</text>
<polyline fill="none" stroke="white" points="251,-16 251,-39 "/>
<text text-anchor="middle" x="328" y="-23.8" font-family="Times,serif" font-size="14.00">d 2.9948 g 0.0000</text>
</g>
<!-- i1&#45;&gt;L1N2 -->
<g id="edge2" class="edge">
<title>i1&#45;&gt;L1N2</title>
<path fill="none" stroke="black" d="M184.2,-95.26C192.71,-93.04 201.43,-90.76 210.11,-88.49"/>
<polygon fill="black" stroke="black" points="211.1,-91.85 219.89,-85.94 209.33,-85.08 211.1,-91.85"/>
</g>
<!-- L2N1 -->
<g id="node4" class="node">
<title>L2N1</title>
<polygon fill="white" stroke="white" points="441,-57.5 441,-172.5 640,-172.5 640,-57.5 441,-57.5"/>
<text text-anchor="middle" x="540.5" y="-157.3" font-family="Times,serif" font-size="14.00">N1</text>
<polyline fill="none" stroke="white" points="441,-149.5 640,-149.5 "/>
<text text-anchor="middle" x="463.5" y="-134.3" font-family="Times,serif" font-size="14.00">w1</text>
<polyline fill="none" stroke="white" points="486,-126.5 486,-149.5 "/>
<text text-anchor="middle" x="563" y="-134.3" font-family="Times,serif" font-size="14.00">d 0.0699 g 5.9841</text>
<polyline fill="none" stroke="white" points="441,-126.5 640,-126.5 "/>
<text text-anchor="middle" x="460" y="-111.3" font-family="Times,serif" font-size="14.00">w2</text>
<polyline fill="none" stroke="white" points="479,-103.5 479,-126.5 "/>
<text text-anchor="middle" x="559.5" y="-111.3" font-family="Times,serif" font-size="14.00">d &#45;0.2623 g 12.1940</text>
<polyline fill="none" stroke="white" points="441,-103.5 640,-103.5 "/>
<text text-anchor="middle" x="459" y="-88.3" font-family="Times,serif" font-size="14.00">b</text>
<polyline fill="none" stroke="white" points="477,-80.5 477,-103.5 "/>
<text text-anchor="middle" x="558.5" y="-88.3" font-family="Times,serif" font-size="14.00">d &#45;0.6673 g 3.1150</text>
<polyline fill="none" stroke="white" points="441,-80.5 640,-80.5 "/>
<text text-anchor="middle" x="459" y="-65.3" font-family="Times,serif" font-size="14.00">a</text>
<polyline fill="none" stroke="white" points="477,-57.5 477,-80.5 "/>
<text text-anchor="middle" x="558.5" y="-65.3" font-family="Times,serif" font-size="14.00">d &#45;1.3869 g 0.0000</text>
</g>
<!-- L1N1&#45;&gt;L2N1 -->
<g id="edge3" class="edge">
<title>L1N1&#45;&gt;L2N1</title>
<path fill="none" stroke="black" d="M405.1,-149.49C413.63,-147.3 422.33,-145.07 431,-142.84"/>
<polygon fill="black" stroke="black" points="431.95,-146.22 440.76,-140.34 430.21,-139.44 431.95,-146.22"/>
</g>
<!-- L1N2&#45;&gt;L2N1 -->
<g id="edge4" class="edge">
<title>L1N2&#45;&gt;L2N1</title>
<path fill="none" stroke="black" d="M405.1,-83.48C413.63,-85.48 422.33,-87.52 431,-89.56"/>
<polygon fill="black" stroke="black" points="430.23,-92.97 440.76,-91.84 431.83,-86.15 430.23,-92.97"/>
</g>
<!-- loss -->
<g id="node5" class="node">
<title>loss</title>
<polygon fill="none" stroke="black" points="35.5,-181 35.5,-217 164.5,-217 164.5,-181 35.5,-181"/>
<text text-anchor="middle" x="100" y="-195.3" font-family="Times,serif" font-size="14.00">step 5 loss 1.92</text>
</g>
</g>
</svg>
