<?xml version="1.0" encoding="UTF-8" standalone="no"?>
<!DOCTYPE svg PUBLIC "-//W3C//DTD SVG 1.1//EN"
 "http://www.w3.org/Graphics/SVG/1.1/DTD/svg11.dtd">
<!-- Generated by graphviz version 2.43.0 (0)
 -->
<!-- Title: %3 Pages: 1 -->
<svg width="683pt" height="267pt"
 viewBox="0.00 0.00 683.00 267.00" xmlns="http://www.w3.org/2000/svg" xmlns:xlink="http://www.w3.org/1999/xlink">
<g id="graph0" class="graph" transform="scale(1 1) rotate(0) translate(4 263)">
<title>%3</title>
<polygon fill="white" stroke="transparent" points="-4,4 -4,-263 679,-263 679,4 -4,4"/>
<g id="clust1" class="cluster">
<title>cluster_I</title>
<polygon fill="lightgrey" stroke="lightgrey" points="8,-86 8,-172 197,-172 197,-86 8,-86"/>
<text text-anchor="middle" x="102.5" y="-156.8" font-family="Times,serif" font-size="14.00">I</text>
</g>
<g id="clust2" class="cluster">
<title>cluster_L1</title>
<polygon fill="lightgrey" stroke="lightgrey" points="217,-8 217,-251 432,-251 432,-8 217,-8"/>
<text text-anchor="middle" x="324.5" y="-235.8" font-family="Times,serif" font-size="14.00">L1</text>
</g>
<g id="clust3" class="cluster">
<title>cluster_L2</title>
<polygon fill="lightgrey" stroke="lightgrey" points="452,-49 452,-204 667,-204 667,-49 452,-49"/>
<text text-anchor="middle" x="559.5" y="-188.8" font-family="Times,serif" font-size="14.00">L2</text>
</g>
<!-- i1 -->
<g id="node1" class="node">
<title>i1</title>
<polygon fill="white" stroke="white" points="16,-94 16,-140 189,-140 189,-94 16,-94"/>
<text text-anchor="middle" x="102.5" y="-124.8" font-family="Times,serif" font-size="14.00">i1</text>
<polyline fill="none" stroke="white" points="16,-117 189,-117 "/>
<text text-anchor="middle" x="26.5" y="-101.8" font-family="Times,serif" font-size="14.00">i</text>
<polyline fill="none" stroke="white" points="37,-94 37,-117 "/>
<text text-anchor="middle" x="113" y="-101.8" font-family="Times,serif" font-size="14.00">d 4.0000 g &#45;7.7517</text>
</g>
<!-- L1N1 -->
<g id="node2" class="node">
<title>L1N1</title>
<polygon fill="white" stroke="white" points="229.5,-127 229.5,-219 419.5,-219 419.5,-127 229.5,-127"/>
<text text-anchor="middle" x="324.5" y="-203.8" font-family="Times,serif" font-size="14.00">N1</text>
<polyline fill="none" stroke="white" points="229.5,-196 419.5,-196 "/>
<text text-anchor="middle" x="248.5" y="-180.8" font-family="Times,serif" font-size="14.00">w1</text>
<polyline fill="none" stroke="white" points="267.5,-173 267.5,-196 "/>
<text text-anchor="middle" x="343.5" y="-180.8" font-family="Times,serif" font-size="14.00">d &#45;0.3673 g 1.9780</text>
<polyline fill="none" stroke="white" points="229.5,-173 419.5,-173 "/>
<text text-anchor="middle" x="245.5" y="-157.8" font-family="Times,serif" font-size="14.00">b</text>
<polyline fill="none" stroke="white" points="261.5,-150 261.5,-173 "/>
<text text-anchor="middle" x="340.5" y="-157.8" font-family="Times,serif" font-size="14.00">d &#45;0.2168 g 0.4945</text>
<polyline fill="none" stroke="white" points="229.5,-150 419.5,-150 "/>
<text text-anchor="middle" x="245" y="-134.8" font-family="Times,serif" font-size="14.00">a</text>
<polyline fill="none" stroke="white" points="260.5,-127 260.5,-150 "/>
<text text-anchor="middle" x="340" y="-134.8" font-family="Times,serif" font-size="14.00">d &#45;1.6858 g 0.4945</text>
</g>
<!-- i1&#45;&gt;L1N1 -->
<g id="edge1" class="edge">
<title>i1&#45;&gt;L1N1</title>
<path fill="none" stroke="black" d="M189.19,-138.81C199.15,-141.35 209.4,-143.96 219.58,-146.55"/>
<polygon fill="black" stroke="black" points="218.75,-149.95 229.3,-149.02 220.47,-143.16 218.75,-149.95"/>
</g>
<!-- L1N2 -->
<g id="node3" class="node">
<title>L1N2</title>
<polygon fill="white" stroke="white" points="225,-16 225,-108 424,-108 424,-16 225,-16"/>
<text text-anchor="middle" x="324.5" y="-92.8" font-family="Times,serif" font-size="14.00">N2</text>
<polyline fill="none" stroke="white" points="225,-85 424,-85 "/>
<text text-anchor="middle" x="244" y="-69.8" font-family="Times,serif" font-size="14.00">w1</text>
<polyline fill="none" stroke="white" points="263,-62 263,-85 "/>
<text text-anchor="middle" x="343.5" y="-69.8" font-family="Times,serif" font-size="14.00">d &#45;2.6320 g 11.5049</text>
<polyline fill="none" stroke="white" points="225,-62 424,-62 "/>
<text text-anchor="middle" x="243" y="-46.8" font-family="Times,serif" font-size="14.00">b</text>
<polyline fill="none" stroke="white" points="261,-39 261,-62 "/>
<text text-anchor="middle" x="342.5" y="-46.8" font-family="Times,serif" font-size="14.00">d &#45;0.7830 g 2.8762</text>
<polyline fill="none" stroke="white" points="225,-39 424,-39 "/>
<text text-anchor="middle" x="240.5" y="-23.8" font-family="Times,serif" font-size="14.00">a</text>
<polyline fill="none" stroke="white" points="256,-16 256,-39 "/>
<text text-anchor="middle" x="340" y="-23.8" font-family="Times,serif" font-size="14.00">d &#45;11.3108 g 2.8762</text>
</g>
<!-- i1&#45;&gt;L1N2 -->
<g id="edge2" class="edge">
<title>i1&#45;&gt;L1N2</title>
<path fill="none" stroke="black" d="M189.19,-95.58C197.69,-93.45 206.4,-91.28 215.09,-89.1"/>
<polygon fill="black" stroke="black" points="216.04,-92.47 224.89,-86.65 214.34,-85.68 216.04,-92.47"/>
</g>
<!-- L2N1 -->
<g id="node4" class="node">
<title>L2N1</title>
<polygon fill="white" stroke="white" points="460,-57.5 460,-172.5 659,-172.5 659,-57.5 460,-57.5"/>
<text text-anchor="middle" x="559.5" y="-157.3" font-family="Times,serif" font-size="14.00">N1</text>
<polyline fill="none" stroke="white" points="460,-149.5 659,-149.5 "/>
<text text-anchor="middle" x="481" y="-134.3" font-family="Times,serif" font-size="14.00">w1</text>
<polyline fill="none" stroke="white" points="502,-126.5 502,-149.5 "/>
<text text-anchor="middle" x="580.5" y="-134.3" font-family="Times,serif" font-size="14.00">d 0.4945 g &#45;1.6858</text>
<polyline fill="none" stroke="white" points="460,-126.5 659,-126.5 "/>
<text text-anchor="middle" x="479" y="-111.3" font-family="Times,serif" font-size="14.00">w2</text>
<polyline fill="none" stroke="white" points="498,-103.5 498,-126.5 "/>
<text text-anchor="middle" x="578.5" y="-111.3" font-family="Times,serif" font-size="14.00">d 2.8762 g &#45;11.3108</text>
<polyline fill="none" stroke="white" points="460,-103.5 659,-103.5 "/>
<text text-anchor="middle" x="478" y="-88.3" font-family="Times,serif" font-size="14.00">b</text>
<polyline fill="none" stroke="white" points="496,-80.5 496,-103.5 "/>
<text text-anchor="middle" x="577.5" y="-88.3" font-family="Times,serif" font-size="14.00">d &#45;0.5500 g 1.0000</text>
<polyline fill="none" stroke="white" points="460,-80.5 659,-80.5 "/>
<text text-anchor="middle" x="475.5" y="-65.3" font-family="Times,serif" font-size="14.00">a</text>
<polyline fill="none" stroke="white" points="491,-57.5 491,-80.5 "/>
<text text-anchor="middle" x="575" y="-65.3" font-family="Times,serif" font-size="14.00">d &#45;33.9162 g 1.0000</text>
</g>
<!-- L1N1&#45;&gt;L2N1 -->
<g id="edge3" class="edge">
<title>L1N1&#45;&gt;L2N1</title>
<path fill="none" stroke="black" d="M419.6,-149.58C429.65,-147.07 439.93,-144.52 450.13,-141.98"/>
<polygon fill="black" stroke="black" points="451.01,-145.36 459.87,-139.55 449.32,-138.57 451.01,-145.36"/>
</g>
<!-- L1N2&#45;&gt;L2N1 -->
<g id="edge4" class="edge">
<title>L1N2&#45;&gt;L2N1</title>
<path fill="none" stroke="black" d="M424.31,-84.48C432.78,-86.4 441.38,-88.36 449.92,-90.3"/>
<polygon fill="black" stroke="black" points="449.38,-93.77 459.91,-92.57 450.93,-86.94 449.38,-93.77"/>
</g>
<!-- lossLabel -->
<g id="node5" class="node">
<title>lossLabel</title>
<polygon fill="none" stroke="black" points="49,-181 49,-217 156,-217 156,-181 49,-181"/>
<text text-anchor="middle" x="102.5" y="-195.3" font-family="Times,serif" font-size="14.00">loss 1233.14</text>
</g>
</g>
</svg>
