<?xml version="1.0" encoding="UTF-8" standalone="no"?>
<!DOCTYPE svg PUBLIC "-//W3C//DTD SVG 1.1//EN"
 "http://www.w3.org/Graphics/SVG/1.1/DTD/svg11.dtd">
<!-- Generated by graphviz version 2.43.0 (0)
 -->
<!-- Title: %3 Pages: 1 -->
<svg width="659pt" height="267pt"
 viewBox="0.00 0.00 659.00 267.00" xmlns="http://www.w3.org/2000/svg" xmlns:xlink="http://www.w3.org/1999/xlink">
<g id="graph0" class="graph" transform="scale(1 1) rotate(0) translate(4 263)">
<title>%3</title>
<polygon fill="white" stroke="transparent" points="-4,4 -4,-263 655,-263 655,4 -4,4"/>
<g id="clust1" class="cluster">
<title>cluster_I</title>
<polygon fill="lightgrey" stroke="lightgrey" points="8,-86 8,-172 201,-172 201,-86 8,-86"/>
<text text-anchor="middle" x="104.5" y="-156.8" font-family="Times,serif" font-size="14.00">I</text>
</g>
<g id="clust2" class="cluster">
<title>cluster_L1</title>
<polygon fill="lightgrey" stroke="lightgrey" points="221,-8 221,-251 422,-251 422,-8 221,-8"/>
<text text-anchor="middle" x="321.5" y="-235.8" font-family="Times,serif" font-size="14.00">L1</text>
</g>
<g id="clust3" class="cluster">
<title>cluster_L2</title>
<polygon fill="lightgrey" stroke="lightgrey" points="442,-49 442,-204 643,-204 643,-49 442,-49"/>
<text text-anchor="middle" x="542.5" y="-188.8" font-family="Times,serif" font-size="14.00">L2</text>
</g>
<!-- i1 -->
<g id="node1" class="node">
<title>i1</title>
<polygon fill="white" stroke="white" points="16,-94 16,-140 193,-140 193,-94 16,-94"/>
<text text-anchor="middle" x="104.5" y="-124.8" font-family="Times,serif" font-size="14.00">i1</text>
<polyline fill="none" stroke="white" points="16,-117 193,-117 "/>
<text text-anchor="middle" x="26.5" y="-101.8" font-family="Times,serif" font-size="14.00">i</text>
<polyline fill="none" stroke="white" points="37,-94 37,-117 "/>
<text text-anchor="middle" x="115" y="-101.8" font-family="Times,serif" font-size="14.00">d 4.0000 g 15.3000</text>
</g>
<!-- L1N1 -->
<g id="node2" class="node">
<title>L1N1</title>
<polygon fill="white" stroke="white" points="229,-127 229,-219 414,-219 414,-127 229,-127"/>
<text text-anchor="middle" x="321.5" y="-203.8" font-family="Times,serif" font-size="14.00">N1</text>
<polyline fill="none" stroke="white" points="229,-196 414,-196 "/>
<text text-anchor="middle" x="248" y="-180.8" font-family="Times,serif" font-size="14.00">w1</text>
<polyline fill="none" stroke="white" points="267,-173 267,-196 "/>
<text text-anchor="middle" x="340.5" y="-180.8" font-family="Times,serif" font-size="14.00">d 0.5000 g 0.0000</text>
<polyline fill="none" stroke="white" points="229,-173 414,-173 "/>
<text text-anchor="middle" x="245" y="-157.8" font-family="Times,serif" font-size="14.00">b</text>
<polyline fill="none" stroke="white" points="261,-150 261,-173 "/>
<text text-anchor="middle" x="337.5" y="-157.8" font-family="Times,serif" font-size="14.00">d 0.0000 g 0.0000</text>
<polyline fill="none" stroke="white" points="229,-150 414,-150 "/>
<text text-anchor="middle" x="244.5" y="-134.8" font-family="Times,serif" font-size="14.00">a</text>
<polyline fill="none" stroke="white" points="260,-127 260,-150 "/>
<text text-anchor="middle" x="337" y="-134.8" font-family="Times,serif" font-size="14.00">d 2.0000 g 6.0000</text>
</g>
<!-- i1&#45;&gt;L1N1 -->
<g id="edge1" class="edge">
<title>i1&#45;&gt;L1N1</title>
<path fill="none" stroke="black" d="M193.26,-139.86C201.78,-142.08 210.47,-144.34 219.11,-146.59"/>
<polygon fill="black" stroke="black" points="218.27,-149.99 228.83,-149.12 220.04,-143.22 218.27,-149.99"/>
</g>
<!-- L1N2 -->
<g id="node3" class="node">
<title>L1N2</title>
<polygon fill="white" stroke="white" points="229,-16 229,-108 414,-108 414,-16 229,-16"/>
<text text-anchor="middle" x="321.5" y="-92.8" font-family="Times,serif" font-size="14.00">N2</text>
<polyline fill="none" stroke="white" points="229,-85 414,-85 "/>
<text text-anchor="middle" x="248" y="-69.8" font-family="Times,serif" font-size="14.00">w1</text>
<polyline fill="none" stroke="white" points="267,-62 267,-85 "/>
<text text-anchor="middle" x="340.5" y="-69.8" font-family="Times,serif" font-size="14.00">d 0.5000 g 0.0000</text>
<polyline fill="none" stroke="white" points="229,-62 414,-62 "/>
<text text-anchor="middle" x="245" y="-46.8" font-family="Times,serif" font-size="14.00">b</text>
<polyline fill="none" stroke="white" points="261,-39 261,-62 "/>
<text text-anchor="middle" x="337.5" y="-46.8" font-family="Times,serif" font-size="14.00">d 0.0000 g 0.0000</text>
<polyline fill="none" stroke="white" points="229,-39 414,-39 "/>
<text text-anchor="middle" x="244.5" y="-23.8" font-family="Times,serif" font-size="14.00">a</text>
<polyline fill="none" stroke="white" points="260,-16 260,-39 "/>
<text text-anchor="middle" x="337" y="-23.8" font-family="Times,serif" font-size="14.00">d 2.0000 g 7.2000</text>
</g>
<!-- i1&#45;&gt;L1N2 -->
<g id="edge2" class="edge">
<title>i1&#45;&gt;L1N2</title>
<path fill="none" stroke="black" d="M193.26,-94.55C201.78,-92.37 210.47,-90.15 219.11,-87.94"/>
<polygon fill="black" stroke="black" points="220.01,-91.32 228.83,-85.45 218.27,-84.54 220.01,-91.32"/>
</g>
<!-- L2N1 -->
<g id="node4" class="node">
<title>L2N1</title>
<polygon fill="white" stroke="white" points="450,-57.5 450,-172.5 635,-172.5 635,-57.5 450,-57.5"/>
<text text-anchor="middle" x="542.5" y="-157.3" font-family="Times,serif" font-size="14.00">N1</text>
<polyline fill="none" stroke="white" points="450,-149.5 635,-149.5 "/>
<text text-anchor="middle" x="469" y="-134.3" font-family="Times,serif" font-size="14.00">w1</text>
<polyline fill="none" stroke="white" points="488,-126.5 488,-149.5 "/>
<text text-anchor="middle" x="561.5" y="-134.3" font-family="Times,serif" font-size="14.00">d 0.6000 g 0.0000</text>
<polyline fill="none" stroke="white" points="450,-126.5 635,-126.5 "/>
<text text-anchor="middle" x="469" y="-111.3" font-family="Times,serif" font-size="14.00">w2</text>
<polyline fill="none" stroke="white" points="488,-103.5 488,-126.5 "/>
<text text-anchor="middle" x="561.5" y="-111.3" font-family="Times,serif" font-size="14.00">d 1.2000 g 0.0000</text>
<polyline fill="none" stroke="white" points="450,-103.5 635,-103.5 "/>
<text text-anchor="middle" x="466" y="-88.3" font-family="Times,serif" font-size="14.00">b</text>
<polyline fill="none" stroke="white" points="482,-80.5 482,-103.5 "/>
<text text-anchor="middle" x="558.5" y="-88.3" font-family="Times,serif" font-size="14.00">d 0.0000 g 0.0000</text>
<polyline fill="none" stroke="white" points="450,-80.5 635,-80.5 "/>
<text text-anchor="middle" x="465.5" y="-65.3" font-family="Times,serif" font-size="14.00">a</text>
<polyline fill="none" stroke="white" points="481,-57.5 481,-80.5 "/>
<text text-anchor="middle" x="558" y="-65.3" font-family="Times,serif" font-size="14.00">d 3.6000 g 1.0000</text>
</g>
<!-- L1N1&#45;&gt;L2N1 -->
<g id="edge3" class="edge">
<title>L1N1&#45;&gt;L2N1</title>
<path fill="none" stroke="black" d="M414.11,-148.74C422.71,-146.46 431.46,-144.14 440.14,-141.84"/>
<polygon fill="black" stroke="black" points="441.14,-145.2 449.91,-139.26 439.35,-138.43 441.14,-145.2"/>
</g>
<!-- L1N2&#45;&gt;L2N1 -->
<g id="edge4" class="edge">
<title>L1N2&#45;&gt;L2N1</title>
<path fill="none" stroke="black" d="M414.11,-84.17C422.71,-86.25 431.46,-88.37 440.14,-90.47"/>
<polygon fill="black" stroke="black" points="439.37,-93.88 449.91,-92.83 441.01,-87.08 439.37,-93.88"/>
</g>
<!-- a -->
<g id="node5" class="node">
<title>a</title>
<polygon fill="none" stroke="black" points="67.5,-181 67.5,-217 141.5,-217 141.5,-181 67.5,-181"/>
<text text-anchor="middle" x="104.5" y="-195.3" font-family="Times,serif" font-size="14.00">hello 29</text>
</g>
</g>
</svg>
