<?xml version="1.0" encoding="UTF-8" standalone="no"?>
<!DOCTYPE svg PUBLIC "-//W3C//DTD SVG 1.1//EN"
 "http://www.w3.org/Graphics/SVG/1.1/DTD/svg11.dtd">
<!-- Generated by graphviz version 2.43.0 (0)
 -->
<!-- Title: %3 Pages: 1 -->
<svg width="668pt" height="267pt"
 viewBox="0.00 0.00 668.00 267.00" xmlns="http://www.w3.org/2000/svg" xmlns:xlink="http://www.w3.org/1999/xlink">
<g id="graph0" class="graph" transform="scale(1 1) rotate(0) translate(4 263)">
<title>%3</title>
<polygon fill="white" stroke="transparent" points="-4,4 -4,-263 664,-263 664,4 -4,4"/>
<g id="clust1" class="cluster">
<title>cluster_I</title>
<polygon fill="lightgrey" stroke="lightgrey" points="8,-86 8,-172 192,-172 192,-86 8,-86"/>
<text text-anchor="middle" x="100" y="-156.8" font-family="Times,serif" font-size="14.00">I</text>
</g>
<g id="clust2" class="cluster">
<title>cluster_L1</title>
<polygon fill="lightgrey" stroke="lightgrey" points="212,-8 212,-251 422,-251 422,-8 212,-8"/>
<text text-anchor="middle" x="317" y="-235.8" font-family="Times,serif" font-size="14.00">L1</text>
</g>
<g id="clust3" class="cluster">
<title>cluster_L2</title>
<polygon fill="lightgrey" stroke="lightgrey" points="442,-49 442,-204 652,-204 652,-49 442,-49"/>
<text text-anchor="middle" x="547" y="-188.8" font-family="Times,serif" font-size="14.00">L2</text>
</g>
<!-- i1 -->
<g id="node1" class="node">
<title>i1</title>
<polygon fill="white" stroke="white" points="16,-94 16,-140 184,-140 184,-94 16,-94"/>
<text text-anchor="middle" x="100" y="-124.8" font-family="Times,serif" font-size="14.00">i1</text>
<polyline fill="none" stroke="white" points="16,-117 184,-117 "/>
<text text-anchor="middle" x="26.5" y="-101.8" font-family="Times,serif" font-size="14.00">i</text>
<polyline fill="none" stroke="white" points="37,-94 37,-117 "/>
<text text-anchor="middle" x="110.5" y="-101.8" font-family="Times,serif" font-size="14.00">d 4.0000 g 4.5000</text>
</g>
<!-- L1N1 -->
<g id="node2" class="node">
<title>L1N1</title>
<polygon fill="white" stroke="white" points="220,-127 220,-219 414,-219 414,-127 220,-127"/>
<text text-anchor="middle" x="317" y="-203.8" font-family="Times,serif" font-size="14.00">N1</text>
<polyline fill="none" stroke="white" points="220,-196 414,-196 "/>
<text text-anchor="middle" x="239" y="-180.8" font-family="Times,serif" font-size="14.00">w1</text>
<polyline fill="none" stroke="white" points="258,-173 258,-196 "/>
<text text-anchor="middle" x="336" y="-180.8" font-family="Times,serif" font-size="14.00">d 0.5000 g 12.0000</text>
<polyline fill="none" stroke="white" points="220,-173 414,-173 "/>
<text text-anchor="middle" x="238" y="-157.8" font-family="Times,serif" font-size="14.00">b</text>
<polyline fill="none" stroke="white" points="256,-150 256,-173 "/>
<text text-anchor="middle" x="335" y="-157.8" font-family="Times,serif" font-size="14.00">d 0.0000 g 3.0000</text>
<polyline fill="none" stroke="white" points="220,-150 414,-150 "/>
<text text-anchor="middle" x="238" y="-134.8" font-family="Times,serif" font-size="14.00">a</text>
<polyline fill="none" stroke="white" points="256,-127 256,-150 "/>
<text text-anchor="middle" x="335" y="-134.8" font-family="Times,serif" font-size="14.00">d 2.0000 g 0.6000</text>
</g>
<!-- i1&#45;&gt;L1N1 -->
<g id="edge1" class="edge">
<title>i1&#45;&gt;L1N1</title>
<path fill="none" stroke="black" d="M184.12,-138.65C192.62,-140.86 201.34,-143.13 210.04,-145.4"/>
<polygon fill="black" stroke="black" points="209.29,-148.82 219.84,-147.95 211.05,-142.05 209.29,-148.82"/>
</g>
<!-- L1N2 -->
<g id="node3" class="node">
<title>L1N2</title>
<polygon fill="white" stroke="white" points="220,-16 220,-108 414,-108 414,-16 220,-16"/>
<text text-anchor="middle" x="317" y="-92.8" font-family="Times,serif" font-size="14.00">N2</text>
<polyline fill="none" stroke="white" points="220,-85 414,-85 "/>
<text text-anchor="middle" x="239" y="-69.8" font-family="Times,serif" font-size="14.00">w1</text>
<polyline fill="none" stroke="white" points="258,-62 258,-85 "/>
<text text-anchor="middle" x="336" y="-69.8" font-family="Times,serif" font-size="14.00">d 0.5000 g 24.0000</text>
<polyline fill="none" stroke="white" points="220,-62 414,-62 "/>
<text text-anchor="middle" x="238" y="-46.8" font-family="Times,serif" font-size="14.00">b</text>
<polyline fill="none" stroke="white" points="256,-39 256,-62 "/>
<text text-anchor="middle" x="335" y="-46.8" font-family="Times,serif" font-size="14.00">d 0.0000 g 6.0000</text>
<polyline fill="none" stroke="white" points="220,-39 414,-39 "/>
<text text-anchor="middle" x="238" y="-23.8" font-family="Times,serif" font-size="14.00">a</text>
<polyline fill="none" stroke="white" points="256,-16 256,-39 "/>
<text text-anchor="middle" x="335" y="-23.8" font-family="Times,serif" font-size="14.00">d 2.0000 g 1.2000</text>
</g>
<!-- i1&#45;&gt;L1N2 -->
<g id="edge2" class="edge">
<title>i1&#45;&gt;L1N2</title>
<path fill="none" stroke="black" d="M184.12,-95.74C192.62,-93.56 201.34,-91.33 210.04,-89.11"/>
<polygon fill="black" stroke="black" points="211.02,-92.47 219.84,-86.6 209.29,-85.69 211.02,-92.47"/>
</g>
<!-- L2N1 -->
<g id="node4" class="node">
<title>L2N1</title>
<polygon fill="white" stroke="white" points="450,-57.5 450,-172.5 644,-172.5 644,-57.5 450,-57.5"/>
<text text-anchor="middle" x="547" y="-157.3" font-family="Times,serif" font-size="14.00">N1</text>
<polyline fill="none" stroke="white" points="450,-149.5 644,-149.5 "/>
<text text-anchor="middle" x="469" y="-134.3" font-family="Times,serif" font-size="14.00">w1</text>
<polyline fill="none" stroke="white" points="488,-126.5 488,-149.5 "/>
<text text-anchor="middle" x="566" y="-134.3" font-family="Times,serif" font-size="14.00">d 0.6000 g 10.0000</text>
<polyline fill="none" stroke="white" points="450,-126.5 644,-126.5 "/>
<text text-anchor="middle" x="469" y="-111.3" font-family="Times,serif" font-size="14.00">w2</text>
<polyline fill="none" stroke="white" points="488,-103.5 488,-126.5 "/>
<text text-anchor="middle" x="566" y="-111.3" font-family="Times,serif" font-size="14.00">d 1.2000 g 10.0000</text>
<polyline fill="none" stroke="white" points="450,-103.5 644,-103.5 "/>
<text text-anchor="middle" x="468" y="-88.3" font-family="Times,serif" font-size="14.00">b</text>
<polyline fill="none" stroke="white" points="486,-80.5 486,-103.5 "/>
<text text-anchor="middle" x="565" y="-88.3" font-family="Times,serif" font-size="14.00">d 0.0000 g 5.0000</text>
<polyline fill="none" stroke="white" points="450,-80.5 644,-80.5 "/>
<text text-anchor="middle" x="468" y="-65.3" font-family="Times,serif" font-size="14.00">a</text>
<polyline fill="none" stroke="white" points="486,-57.5 486,-80.5 "/>
<text text-anchor="middle" x="565" y="-65.3" font-family="Times,serif" font-size="14.00">d 3.6000 g 1.0000</text>
</g>
<!-- L1N1&#45;&gt;L2N1 -->
<g id="edge3" class="edge">
<title>L1N1&#45;&gt;L2N1</title>
<path fill="none" stroke="black" d="M414.03,-148.57C422.61,-146.39 431.33,-144.17 439.98,-141.97"/>
<polygon fill="black" stroke="black" points="440.89,-145.35 449.71,-139.49 439.16,-138.57 440.89,-145.35"/>
</g>
<!-- L1N2&#45;&gt;L2N1 -->
<g id="edge4" class="edge">
<title>L1N2&#45;&gt;L2N1</title>
<path fill="none" stroke="black" d="M414.03,-84.32C422.52,-86.3 431.14,-88.3 439.7,-90.29"/>
<polygon fill="black" stroke="black" points="439.18,-93.76 449.71,-92.62 440.77,-86.94 439.18,-93.76"/>
</g>
<!-- a -->
<g id="node5" class="node">
<title>a</title>
<polygon fill="none" stroke="black" points="63,-181 63,-217 137,-217 137,-181 63,-181"/>
<text text-anchor="middle" x="100" y="-195.3" font-family="Times,serif" font-size="14.00">hello 11</text>
</g>
</g>
</svg>
