<?xml version="1.0" encoding="UTF-8" standalone="no"?>
<!DOCTYPE svg PUBLIC "-//W3C//DTD SVG 1.1//EN"
 "http://www.w3.org/Graphics/SVG/1.1/DTD/svg11.dtd">
<!-- Generated by graphviz version 2.43.0 (0)
 -->
<!-- Title: %3 Pages: 1 -->
<svg width="898pt" height="313pt"
 viewBox="0.00 0.00 898.00 313.00" xmlns="http://www.w3.org/2000/svg" xmlns:xlink="http://www.w3.org/1999/xlink">
<g id="graph0" class="graph" transform="scale(1 1) rotate(0) translate(4 309)">
<title>%3</title>
<polygon fill="white" stroke="transparent" points="-4,4 -4,-309 894,-309 894,4 -4,4"/>
<g id="clust1" class="cluster">
<title>cluster_I</title>
<polygon fill="lightgrey" stroke="lightgrey" points="8,-109 8,-195 201,-195 201,-109 8,-109"/>
<text text-anchor="middle" x="104.5" y="-179.8" font-family="Times,serif" font-size="14.00">I</text>
</g>
<g id="clust2" class="cluster">
<title>cluster_L1</title>
<polygon fill="lightgrey" stroke="lightgrey" points="221,-31 221,-274 431,-274 431,-31 221,-31"/>
<text text-anchor="middle" x="326" y="-258.8" font-family="Times,serif" font-size="14.00">L1</text>
</g>
<g id="clust3" class="cluster">
<title>cluster_L2</title>
<polygon fill="lightgrey" stroke="lightgrey" points="451,-8 451,-297 661,-297 661,-8 451,-8"/>
<text text-anchor="middle" x="556" y="-281.8" font-family="Times,serif" font-size="14.00">L2</text>
</g>
<g id="clust4" class="cluster">
<title>cluster_O</title>
<polygon fill="lightgrey" stroke="lightgrey" points="681,-75 681,-230 882,-230 882,-75 681,-75"/>
<text text-anchor="middle" x="781.5" y="-214.8" font-family="Times,serif" font-size="14.00">O</text>
</g>
<!-- i1 -->
<g id="node1" class="node">
<title>i1</title>
<polygon fill="white" stroke="white" points="16,-117 16,-163 193,-163 193,-117 16,-117"/>
<text text-anchor="middle" x="104.5" y="-147.8" font-family="Times,serif" font-size="14.00">i1</text>
<polyline fill="none" stroke="white" points="16,-140 193,-140 "/>
<text text-anchor="middle" x="26.5" y="-124.8" font-family="Times,serif" font-size="14.00">i</text>
<polyline fill="none" stroke="white" points="37,-117 37,-140 "/>
<text text-anchor="middle" x="115" y="-124.8" font-family="Times,serif" font-size="14.00">d 1.0000 g 31.3500</text>
</g>
<!-- L1N1 -->
<g id="node2" class="node">
<title>L1N1</title>
<polygon fill="white" stroke="white" points="229,-150 229,-242 423,-242 423,-150 229,-150"/>
<text text-anchor="middle" x="326" y="-226.8" font-family="Times,serif" font-size="14.00">N1</text>
<polyline fill="none" stroke="white" points="229,-219 423,-219 "/>
<text text-anchor="middle" x="248" y="-203.8" font-family="Times,serif" font-size="14.00">w1</text>
<polyline fill="none" stroke="white" points="267,-196 267,-219 "/>
<text text-anchor="middle" x="345" y="-203.8" font-family="Times,serif" font-size="14.00">d 0.5000 g 24.3000</text>
<polyline fill="none" stroke="white" points="229,-196 423,-196 "/>
<text text-anchor="middle" x="245" y="-180.8" font-family="Times,serif" font-size="14.00">b</text>
<polyline fill="none" stroke="white" points="261,-173 261,-196 "/>
<text text-anchor="middle" x="342" y="-180.8" font-family="Times,serif" font-size="14.00">d 0.0000 g 19.2000</text>
<polyline fill="none" stroke="white" points="229,-173 423,-173 "/>
<text text-anchor="middle" x="247" y="-157.8" font-family="Times,serif" font-size="14.00">a</text>
<polyline fill="none" stroke="white" points="265,-150 265,-173 "/>
<text text-anchor="middle" x="344" y="-157.8" font-family="Times,serif" font-size="14.00">d 0.5000 g 0.0000</text>
</g>
<!-- i1&#45;&gt;L1N1 -->
<g id="edge1" class="edge">
<title>i1&#45;&gt;L1N1</title>
<path fill="none" stroke="black" d="M193.2,-162.37C201.7,-164.54 210.39,-166.76 219.04,-168.97"/>
<polygon fill="black" stroke="black" points="218.24,-172.37 228.79,-171.45 219.97,-165.59 218.24,-172.37"/>
</g>
<!-- L1N2 -->
<g id="node3" class="node">
<title>L1N2</title>
<polygon fill="white" stroke="white" points="229,-39 229,-131 423,-131 423,-39 229,-39"/>
<text text-anchor="middle" x="326" y="-115.8" font-family="Times,serif" font-size="14.00">N2</text>
<polyline fill="none" stroke="white" points="229,-108 423,-108 "/>
<text text-anchor="middle" x="248" y="-92.8" font-family="Times,serif" font-size="14.00">w1</text>
<polyline fill="none" stroke="white" points="267,-85 267,-108 "/>
<text text-anchor="middle" x="345" y="-92.8" font-family="Times,serif" font-size="14.00">d 0.5000 g 38.4000</text>
<polyline fill="none" stroke="white" points="229,-85 423,-85 "/>
<text text-anchor="middle" x="245" y="-69.8" font-family="Times,serif" font-size="14.00">b</text>
<polyline fill="none" stroke="white" points="261,-62 261,-85 "/>
<text text-anchor="middle" x="342" y="-69.8" font-family="Times,serif" font-size="14.00">d 0.0000 g 29.4000</text>
<polyline fill="none" stroke="white" points="229,-62 423,-62 "/>
<text text-anchor="middle" x="247" y="-46.8" font-family="Times,serif" font-size="14.00">a</text>
<polyline fill="none" stroke="white" points="265,-39 265,-62 "/>
<text text-anchor="middle" x="344" y="-46.8" font-family="Times,serif" font-size="14.00">d 0.5000 g 0.0000</text>
</g>
<!-- i1&#45;&gt;L1N2 -->
<g id="edge2" class="edge">
<title>i1&#45;&gt;L1N2</title>
<path fill="none" stroke="black" d="M193.2,-118.03C201.7,-115.89 210.39,-113.72 219.04,-111.55"/>
<polygon fill="black" stroke="black" points="219.94,-114.93 228.79,-109.11 218.24,-108.14 219.94,-114.93"/>
</g>
<!-- L2N1 -->
<g id="node4" class="node">
<title>L2N1</title>
<polygon fill="white" stroke="white" points="463.5,-150.5 463.5,-265.5 648.5,-265.5 648.5,-150.5 463.5,-150.5"/>
<text text-anchor="middle" x="556" y="-250.3" font-family="Times,serif" font-size="14.00">N1</text>
<polyline fill="none" stroke="white" points="463.5,-242.5 648.5,-242.5 "/>
<text text-anchor="middle" x="482.5" y="-227.3" font-family="Times,serif" font-size="14.00">w1</text>
<polyline fill="none" stroke="white" points="501.5,-219.5 501.5,-242.5 "/>
<text text-anchor="middle" x="575" y="-227.3" font-family="Times,serif" font-size="14.00">d 0.6000 g 7.0000</text>
<polyline fill="none" stroke="white" points="463.5,-219.5 648.5,-219.5 "/>
<text text-anchor="middle" x="482.5" y="-204.3" font-family="Times,serif" font-size="14.00">w2</text>
<polyline fill="none" stroke="white" points="501.5,-196.5 501.5,-219.5 "/>
<text text-anchor="middle" x="575" y="-204.3" font-family="Times,serif" font-size="14.00">d 1.2000 g 5.2500</text>
<polyline fill="none" stroke="white" points="463.5,-196.5 648.5,-196.5 "/>
<text text-anchor="middle" x="477" y="-181.3" font-family="Times,serif" font-size="14.00">b</text>
<polyline fill="none" stroke="white" points="490.5,-173.5 490.5,-196.5 "/>
<text text-anchor="middle" x="569.5" y="-181.3" font-family="Times,serif" font-size="14.00">d 0.0000 g 10.5000</text>
<polyline fill="none" stroke="white" points="463.5,-173.5 648.5,-173.5 "/>
<text text-anchor="middle" x="479" y="-158.3" font-family="Times,serif" font-size="14.00">a</text>
<polyline fill="none" stroke="white" points="494.5,-150.5 494.5,-173.5 "/>
<text text-anchor="middle" x="571.5" y="-158.3" font-family="Times,serif" font-size="14.00">d 0.9000 g 0.0000</text>
</g>
<!-- L1N1&#45;&gt;L2N1 -->
<g id="edge3" class="edge">
<title>L1N1&#45;&gt;L2N1</title>
<path fill="none" stroke="black" d="M423.03,-201.05C433.07,-201.58 443.3,-202.12 453.4,-202.65"/>
<polygon fill="black" stroke="black" points="453.28,-206.15 463.45,-203.18 453.64,-199.16 453.28,-206.15"/>
</g>
<!-- L2N2 -->
<g id="node5" class="node">
<title>L2N2</title>
<polygon fill="white" stroke="white" points="459,-16.5 459,-131.5 653,-131.5 653,-16.5 459,-16.5"/>
<text text-anchor="middle" x="556" y="-116.3" font-family="Times,serif" font-size="14.00">N2</text>
<polyline fill="none" stroke="white" points="459,-108.5 653,-108.5 "/>
<text text-anchor="middle" x="478" y="-93.3" font-family="Times,serif" font-size="14.00">w1</text>
<polyline fill="none" stroke="white" points="497,-85.5 497,-108.5 "/>
<text text-anchor="middle" x="575" y="-93.3" font-family="Times,serif" font-size="14.00">d 0.3000 g 10.5000</text>
<polyline fill="none" stroke="white" points="459,-85.5 653,-85.5 "/>
<text text-anchor="middle" x="480" y="-70.3" font-family="Times,serif" font-size="14.00">w2</text>
<polyline fill="none" stroke="white" points="501,-62.5 501,-85.5 "/>
<text text-anchor="middle" x="577" y="-70.3" font-family="Times,serif" font-size="14.00">d 0.6000 g 7.5000</text>
<polyline fill="none" stroke="white" points="459,-62.5 653,-62.5 "/>
<text text-anchor="middle" x="475" y="-47.3" font-family="Times,serif" font-size="14.00">b</text>
<polyline fill="none" stroke="white" points="491,-39.5 491,-62.5 "/>
<text text-anchor="middle" x="572" y="-47.3" font-family="Times,serif" font-size="14.00">d 0.0000 g 15.0000</text>
<polyline fill="none" stroke="white" points="459,-39.5 653,-39.5 "/>
<text text-anchor="middle" x="477" y="-24.3" font-family="Times,serif" font-size="14.00">a</text>
<polyline fill="none" stroke="white" points="495,-16.5 495,-39.5 "/>
<text text-anchor="middle" x="574" y="-24.3" font-family="Times,serif" font-size="14.00">d 0.4500 g 0.0000</text>
</g>
<!-- L1N1&#45;&gt;L2N2 -->
<g id="edge4" class="edge">
<title>L1N1&#45;&gt;L2N2</title>
<path fill="none" stroke="black" d="M414.13,-149.99C419.85,-146.95 425.51,-143.94 431,-141 437.23,-137.67 443.63,-134.24 450.09,-130.77"/>
<polygon fill="black" stroke="black" points="451.77,-133.84 458.92,-126.02 448.45,-127.68 451.77,-133.84"/>
</g>
<!-- L1N2&#45;&gt;L2N1 -->
<g id="edge5" class="edge">
<title>L1N2&#45;&gt;L2N1</title>
<path fill="none" stroke="black" d="M412.7,-131.14C418.9,-134.47 425.04,-137.79 431,-141 438.59,-145.09 446.44,-149.33 454.33,-153.59"/>
<polygon fill="black" stroke="black" points="452.79,-156.74 463.25,-158.41 456.12,-150.58 452.79,-156.74"/>
</g>
<!-- L1N2&#45;&gt;L2N2 -->
<g id="edge6" class="edge">
<title>L1N2&#45;&gt;L2N2</title>
<path fill="none" stroke="black" d="M423.03,-80.37C431.52,-79.96 440.14,-79.54 448.7,-79.13"/>
<polygon fill="black" stroke="black" points="448.89,-82.62 458.71,-78.65 448.56,-75.63 448.89,-82.62"/>
</g>
<!-- ON1 -->
<g id="node6" class="node">
<title>ON1</title>
<polygon fill="white" stroke="white" points="689,-83.5 689,-198.5 874,-198.5 874,-83.5 689,-83.5"/>
<text text-anchor="middle" x="781.5" y="-183.3" font-family="Times,serif" font-size="14.00">N1</text>
<polyline fill="none" stroke="white" points="689,-175.5 874,-175.5 "/>
<text text-anchor="middle" x="708" y="-160.3" font-family="Times,serif" font-size="14.00">w1</text>
<polyline fill="none" stroke="white" points="727,-152.5 727,-175.5 "/>
<text text-anchor="middle" x="800.5" y="-160.3" font-family="Times,serif" font-size="14.00">d 0.5000 g 9.0000</text>
<polyline fill="none" stroke="white" points="689,-152.5 874,-152.5 "/>
<text text-anchor="middle" x="708" y="-137.3" font-family="Times,serif" font-size="14.00">w2</text>
<polyline fill="none" stroke="white" points="727,-129.5 727,-152.5 "/>
<text text-anchor="middle" x="800.5" y="-137.3" font-family="Times,serif" font-size="14.00">d 1.0000 g 2.7000</text>
<polyline fill="none" stroke="white" points="689,-129.5 874,-129.5 "/>
<text text-anchor="middle" x="705" y="-114.3" font-family="Times,serif" font-size="14.00">b</text>
<polyline fill="none" stroke="white" points="721,-106.5 721,-129.5 "/>
<text text-anchor="middle" x="797.5" y="-114.3" font-family="Times,serif" font-size="14.00">d 0.0000 g 6.0000</text>
<polyline fill="none" stroke="white" points="689,-106.5 874,-106.5 "/>
<text text-anchor="middle" x="704.5" y="-91.3" font-family="Times,serif" font-size="14.00">a</text>
<polyline fill="none" stroke="white" points="720,-83.5 720,-106.5 "/>
<text text-anchor="middle" x="797" y="-91.3" font-family="Times,serif" font-size="14.00">d 0.9000 g 0.0000</text>
</g>
<!-- L2N1&#45;&gt;ON1 -->
<g id="edge7" class="edge">
<title>L2N1&#45;&gt;ON1</title>
<path fill="none" stroke="black" d="M648.55,-180.56C658.6,-177.54 668.87,-174.46 679.03,-171.42"/>
<polygon fill="black" stroke="black" points="680.16,-174.73 688.73,-168.51 678.15,-168.03 680.16,-174.73"/>
</g>
<!-- L2N2&#45;&gt;ON1 -->
<g id="edge8" class="edge">
<title>L2N2&#45;&gt;ON1</title>
<path fill="none" stroke="black" d="M653.08,-102.8C661.68,-105.38 670.4,-107.99 679.04,-110.58"/>
<polygon fill="black" stroke="black" points="678.16,-113.98 688.75,-113.49 680.17,-107.27 678.16,-113.98"/>
</g>
<!-- a -->
<g id="node7" class="node">
<title>a</title>
<polygon fill="none" stroke="black" points="67.5,-204 67.5,-240 141.5,-240 141.5,-204 67.5,-204"/>
<text text-anchor="middle" x="104.5" y="-218.3" font-family="Times,serif" font-size="14.00">hello 37</text>
</g>
</g>
</svg>
