<?xml version="1.0" encoding="UTF-8" standalone="no"?>
<!DOCTYPE svg PUBLIC "-//W3C//DTD SVG 1.1//EN"
 "http://www.w3.org/Graphics/SVG/1.1/DTD/svg11.dtd">
<!-- Generated by graphviz version 2.43.0 (0)
 -->
<!-- Title: %3 Pages: 1 -->
<svg width="664pt" height="267pt"
 viewBox="0.00 0.00 664.00 267.00" xmlns="http://www.w3.org/2000/svg" xmlns:xlink="http://www.w3.org/1999/xlink">
<g id="graph0" class="graph" transform="scale(1 1) rotate(0) translate(4 263)">
<title>%3</title>
<polygon fill="white" stroke="transparent" points="-4,4 -4,-263 660,-263 660,4 -4,4"/>
<g id="clust1" class="cluster">
<title>cluster_I</title>
<polygon fill="lightgrey" stroke="lightgrey" points="8,-86 8,-172 192,-172 192,-86 8,-86"/>
<text text-anchor="middle" x="100" y="-156.8" font-family="Times,serif" font-size="14.00">I</text>
</g>
<g id="clust2" class="cluster">
<title>cluster_L1</title>
<polygon fill="lightgrey" stroke="lightgrey" points="212,-8 212,-251 418,-251 418,-8 212,-8"/>
<text text-anchor="middle" x="315" y="-235.8" font-family="Times,serif" font-size="14.00">L1</text>
</g>
<g id="clust3" class="cluster">
<title>cluster_L2</title>
<polygon fill="lightgrey" stroke="lightgrey" points="438,-49 438,-204 648,-204 648,-49 438,-49"/>
<text text-anchor="middle" x="543" y="-188.8" font-family="Times,serif" font-size="14.00">L2</text>
</g>
<!-- i1 -->
<g id="node1" class="node">
<title>i1</title>
<polygon fill="white" stroke="white" points="16,-94 16,-140 184,-140 184,-94 16,-94"/>
<text text-anchor="middle" x="100" y="-124.8" font-family="Times,serif" font-size="14.00">i1</text>
<polyline fill="none" stroke="white" points="16,-117 184,-117 "/>
<text text-anchor="middle" x="26.5" y="-101.8" font-family="Times,serif" font-size="14.00">i</text>
<polyline fill="none" stroke="white" points="37,-94 37,-117 "/>
<text text-anchor="middle" x="110.5" y="-101.8" font-family="Times,serif" font-size="14.00">d 4.0000 g 0.0294</text>
</g>
<!-- L1N1 -->
<g id="node2" class="node">
<title>L1N1</title>
<polygon fill="white" stroke="white" points="220,-127 220,-219 410,-219 410,-127 220,-127"/>
<text text-anchor="middle" x="315" y="-203.8" font-family="Times,serif" font-size="14.00">N1</text>
<polyline fill="none" stroke="white" points="220,-196 410,-196 "/>
<text text-anchor="middle" x="239" y="-180.8" font-family="Times,serif" font-size="14.00">w1</text>
<polyline fill="none" stroke="white" points="258,-173 258,-196 "/>
<text text-anchor="middle" x="334" y="-180.8" font-family="Times,serif" font-size="14.00">d 0.0720 g &#45;0.0295</text>
<polyline fill="none" stroke="white" points="220,-173 410,-173 "/>
<text text-anchor="middle" x="235" y="-157.8" font-family="Times,serif" font-size="14.00">b</text>
<polyline fill="none" stroke="white" points="250,-150 250,-173 "/>
<text text-anchor="middle" x="330" y="-157.8" font-family="Times,serif" font-size="14.00">d &#45;0.1070 g &#45;0.0074</text>
<polyline fill="none" stroke="white" points="220,-150 410,-150 "/>
<text text-anchor="middle" x="235.5" y="-134.8" font-family="Times,serif" font-size="14.00">a</text>
<polyline fill="none" stroke="white" points="251,-127 251,-150 "/>
<text text-anchor="middle" x="330.5" y="-134.8" font-family="Times,serif" font-size="14.00">d 0.1749 g &#45;0.0074</text>
</g>
<!-- i1&#45;&gt;L1N1 -->
<g id="edge1" class="edge">
<title>i1&#45;&gt;L1N1</title>
<path fill="none" stroke="black" d="M184.27,-138.89C192.74,-141.12 201.43,-143.4 210.09,-145.68"/>
<polygon fill="black" stroke="black" points="209.28,-149.09 219.85,-148.25 211.06,-142.32 209.28,-149.09"/>
</g>
<!-- L1N2 -->
<g id="node3" class="node">
<title>L1N2</title>
<polygon fill="white" stroke="white" points="222.5,-16 222.5,-108 407.5,-108 407.5,-16 222.5,-16"/>
<text text-anchor="middle" x="315" y="-92.8" font-family="Times,serif" font-size="14.00">N2</text>
<polyline fill="none" stroke="white" points="222.5,-85 407.5,-85 "/>
<text text-anchor="middle" x="241.5" y="-69.8" font-family="Times,serif" font-size="14.00">w1</text>
<polyline fill="none" stroke="white" points="260.5,-62 260.5,-85 "/>
<text text-anchor="middle" x="334" y="-69.8" font-family="Times,serif" font-size="14.00">d 0.1478 g 0.6611</text>
<polyline fill="none" stroke="white" points="222.5,-62 407.5,-62 "/>
<text text-anchor="middle" x="237" y="-46.8" font-family="Times,serif" font-size="14.00">b</text>
<polyline fill="none" stroke="white" points="251.5,-39 251.5,-62 "/>
<text text-anchor="middle" x="329.5" y="-46.8" font-family="Times,serif" font-size="14.00">d &#45;0.0881 g 0.1653</text>
<polyline fill="none" stroke="white" points="222.5,-39 407.5,-39 "/>
<text text-anchor="middle" x="238" y="-23.8" font-family="Times,serif" font-size="14.00">a</text>
<polyline fill="none" stroke="white" points="253.5,-16 253.5,-39 "/>
<text text-anchor="middle" x="330.5" y="-23.8" font-family="Times,serif" font-size="14.00">d 0.6436 g 0.1653</text>
</g>
<!-- i1&#45;&gt;L1N2 -->
<g id="edge2" class="edge">
<title>i1&#45;&gt;L1N2</title>
<path fill="none" stroke="black" d="M184.27,-95.5C193.53,-93.11 203.05,-90.65 212.51,-88.21"/>
<polygon fill="black" stroke="black" points="213.52,-91.56 222.33,-85.67 211.77,-84.78 213.52,-91.56"/>
</g>
<!-- L2N1 -->
<g id="node4" class="node">
<title>L2N1</title>
<polygon fill="white" stroke="white" points="446,-57.5 446,-172.5 640,-172.5 640,-57.5 446,-57.5"/>
<text text-anchor="middle" x="543" y="-157.3" font-family="Times,serif" font-size="14.00">N1</text>
<polyline fill="none" stroke="white" points="446,-149.5 640,-149.5 "/>
<text text-anchor="middle" x="466" y="-134.3" font-family="Times,serif" font-size="14.00">w1</text>
<polyline fill="none" stroke="white" points="486,-126.5 486,-149.5 "/>
<text text-anchor="middle" x="563" y="-134.3" font-family="Times,serif" font-size="14.00">d 0.0209 g &#45;0.3426</text>
<polyline fill="none" stroke="white" points="446,-126.5 640,-126.5 "/>
<text text-anchor="middle" x="465" y="-111.3" font-family="Times,serif" font-size="14.00">w2</text>
<polyline fill="none" stroke="white" points="484,-103.5 484,-126.5 "/>
<text text-anchor="middle" x="562" y="-111.3" font-family="Times,serif" font-size="14.00">d &#45;0.0213 g &#45;1.2607</text>
<polyline fill="none" stroke="white" points="446,-103.5 640,-103.5 "/>
<text text-anchor="middle" x="463" y="-88.3" font-family="Times,serif" font-size="14.00">b</text>
<polyline fill="none" stroke="white" points="480,-80.5 480,-103.5 "/>
<text text-anchor="middle" x="560" y="-88.3" font-family="Times,serif" font-size="14.00">d 0.3722 g &#45;1.9589</text>
<polyline fill="none" stroke="white" points="446,-80.5 640,-80.5 "/>
<text text-anchor="middle" x="462.5" y="-65.3" font-family="Times,serif" font-size="14.00">a</text>
<polyline fill="none" stroke="white" points="479,-57.5 479,-80.5 "/>
<text text-anchor="middle" x="559.5" y="-65.3" font-family="Times,serif" font-size="14.00">d 0.2206 g &#45;1.9589</text>
</g>
<!-- L1N1&#45;&gt;L2N1 -->
<g id="edge3" class="edge">
<title>L1N1&#45;&gt;L2N1</title>
<path fill="none" stroke="black" d="M410.21,-148.82C418.74,-146.63 427.43,-144.4 436.05,-142.19"/>
<polygon fill="black" stroke="black" points="436.95,-145.57 445.76,-139.7 435.21,-138.79 436.95,-145.57"/>
</g>
<!-- L1N2&#45;&gt;L2N1 -->
<g id="edge4" class="edge">
<title>L1N2&#45;&gt;L2N1</title>
<path fill="none" stroke="black" d="M407.6,-83.48C416.95,-85.67 426.51,-87.92 436,-90.14"/>
<polygon fill="black" stroke="black" points="435.32,-93.58 445.85,-92.45 436.92,-86.76 435.32,-93.58"/>
</g>
<!-- loss -->
<g id="node5" class="node">
<title>loss</title>
<polygon fill="none" stroke="black" points="35.5,-181 35.5,-217 164.5,-217 164.5,-181 35.5,-181"/>
<text text-anchor="middle" x="100" y="-195.3" font-family="Times,serif" font-size="14.00">step 4 loss 0.96</text>
</g>
</g>
</svg>
