<?xml version="1.0" encoding="UTF-8" standalone="no"?>
<!DOCTYPE svg PUBLIC "-//W3C//DTD SVG 1.1//EN"
 "http://www.w3.org/Graphics/SVG/1.1/DTD/svg11.dtd">
<!-- Generated by graphviz version 2.43.0 (0)
 -->
<!-- Title: %3 Pages: 1 -->
<svg width="710pt" height="267pt"
 viewBox="0.00 0.00 710.00 267.00" xmlns="http://www.w3.org/2000/svg" xmlns:xlink="http://www.w3.org/1999/xlink">
<g id="graph0" class="graph" transform="scale(1 1) rotate(0) translate(4 263)">
<title>%3</title>
<polygon fill="white" stroke="transparent" points="-4,4 -4,-263 706,-263 706,4 -4,4"/>
<g id="clust1" class="cluster">
<title>cluster_I</title>
<polygon fill="lightgrey" stroke="lightgrey" points="8,-86 8,-172 206,-172 206,-86 8,-86"/>
<text text-anchor="middle" x="107" y="-156.8" font-family="Times,serif" font-size="14.00">I</text>
</g>
<g id="clust2" class="cluster">
<title>cluster_L1</title>
<polygon fill="lightgrey" stroke="lightgrey" points="226,-8 226,-251 450,-251 450,-8 226,-8"/>
<text text-anchor="middle" x="338" y="-235.8" font-family="Times,serif" font-size="14.00">L1</text>
</g>
<g id="clust3" class="cluster">
<title>cluster_L2</title>
<polygon fill="lightgrey" stroke="lightgrey" points="470,-49 470,-204 694,-204 694,-49 470,-49"/>
<text text-anchor="middle" x="582" y="-188.8" font-family="Times,serif" font-size="14.00">L2</text>
</g>
<!-- i1 -->
<g id="node1" class="node">
<title>i1</title>
<polygon fill="white" stroke="white" points="16,-94 16,-140 198,-140 198,-94 16,-94"/>
<text text-anchor="middle" x="107" y="-124.8" font-family="Times,serif" font-size="14.00">i1</text>
<polyline fill="none" stroke="white" points="16,-117 198,-117 "/>
<text text-anchor="middle" x="26.5" y="-101.8" font-family="Times,serif" font-size="14.00">i</text>
<polyline fill="none" stroke="white" points="37,-94 37,-117 "/>
<text text-anchor="middle" x="117.5" y="-101.8" font-family="Times,serif" font-size="14.00">d 4.0000 g &#45;79.6243</text>
</g>
<!-- L1N1 -->
<g id="node2" class="node">
<title>L1N1</title>
<polygon fill="white" stroke="white" points="243,-127 243,-219 433,-219 433,-127 243,-127"/>
<text text-anchor="middle" x="338" y="-203.8" font-family="Times,serif" font-size="14.00">N1</text>
<polyline fill="none" stroke="white" points="243,-196 433,-196 "/>
<text text-anchor="middle" x="262" y="-180.8" font-family="Times,serif" font-size="14.00">w1</text>
<polyline fill="none" stroke="white" points="281,-173 281,-196 "/>
<text text-anchor="middle" x="357" y="-180.8" font-family="Times,serif" font-size="14.00">d &#45;1.9463 g 5.7502</text>
<polyline fill="none" stroke="white" points="243,-173 433,-173 "/>
<text text-anchor="middle" x="259" y="-157.8" font-family="Times,serif" font-size="14.00">b</text>
<polyline fill="none" stroke="white" points="275,-150 275,-173 "/>
<text text-anchor="middle" x="354" y="-157.8" font-family="Times,serif" font-size="14.00">d &#45;0.6116 g 1.4376</text>
<polyline fill="none" stroke="white" points="243,-150 433,-150 "/>
<text text-anchor="middle" x="258.5" y="-134.8" font-family="Times,serif" font-size="14.00">a</text>
<polyline fill="none" stroke="white" points="274,-127 274,-150 "/>
<text text-anchor="middle" x="353.5" y="-134.8" font-family="Times,serif" font-size="14.00">d &#45;5.9528 g 1.4376</text>
</g>
<!-- i1&#45;&gt;L1N1 -->
<g id="edge1" class="edge">
<title>i1&#45;&gt;L1N1</title>
<path fill="none" stroke="black" d="M198.18,-139.05C209.62,-141.85 221.4,-144.73 233.03,-147.58"/>
<polygon fill="black" stroke="black" points="232.22,-150.98 242.76,-149.95 233.88,-144.18 232.22,-150.98"/>
</g>
<!-- L1N2 -->
<g id="node3" class="node">
<title>L1N2</title>
<polygon fill="white" stroke="white" points="234,-16 234,-108 442,-108 442,-16 234,-16"/>
<text text-anchor="middle" x="338" y="-92.8" font-family="Times,serif" font-size="14.00">N2</text>
<polyline fill="none" stroke="white" points="234,-85 442,-85 "/>
<text text-anchor="middle" x="253" y="-69.8" font-family="Times,serif" font-size="14.00">w1</text>
<polyline fill="none" stroke="white" points="272,-62 272,-85 "/>
<text text-anchor="middle" x="357" y="-69.8" font-family="Times,serif" font-size="14.00">d &#45;12.2523 g 35.8280</text>
<polyline fill="none" stroke="white" points="234,-62 442,-62 "/>
<text text-anchor="middle" x="254.5" y="-46.8" font-family="Times,serif" font-size="14.00">b</text>
<polyline fill="none" stroke="white" points="275,-39 275,-62 "/>
<text text-anchor="middle" x="358.5" y="-46.8" font-family="Times,serif" font-size="14.00">d &#45;3.1881 g 8.9570</text>
<polyline fill="none" stroke="white" points="234,-39 442,-39 "/>
<text text-anchor="middle" x="252" y="-23.8" font-family="Times,serif" font-size="14.00">a</text>
<polyline fill="none" stroke="white" points="270,-16 270,-39 "/>
<text text-anchor="middle" x="356" y="-23.8" font-family="Times,serif" font-size="14.00">d &#45;36.9705 g 8.9570</text>
</g>
<!-- i1&#45;&gt;L1N2 -->
<g id="edge2" class="edge">
<title>i1&#45;&gt;L1N2</title>
<path fill="none" stroke="black" d="M198.18,-95.34C206.64,-93.31 215.28,-91.23 223.91,-89.16"/>
<polygon fill="black" stroke="black" points="224.74,-92.56 233.64,-86.82 223.1,-85.76 224.74,-92.56"/>
</g>
<!-- L2N1 -->
<g id="node4" class="node">
<title>L2N1</title>
<polygon fill="white" stroke="white" points="478,-57.5 478,-172.5 686,-172.5 686,-57.5 478,-57.5"/>
<text text-anchor="middle" x="582" y="-157.3" font-family="Times,serif" font-size="14.00">N1</text>
<polyline fill="none" stroke="white" points="478,-149.5 686,-149.5 "/>
<text text-anchor="middle" x="501.5" y="-134.3" font-family="Times,serif" font-size="14.00">w1</text>
<polyline fill="none" stroke="white" points="525,-126.5 525,-149.5 "/>
<text text-anchor="middle" x="605.5" y="-134.3" font-family="Times,serif" font-size="14.00">d 2.0328 g &#45;5.9528</text>
<polyline fill="none" stroke="white" points="478,-126.5 686,-126.5 "/>
<text text-anchor="middle" x="497" y="-111.3" font-family="Times,serif" font-size="14.00">w2</text>
<polyline fill="none" stroke="white" points="516,-103.5 516,-126.5 "/>
<text text-anchor="middle" x="601" y="-111.3" font-family="Times,serif" font-size="14.00">d 12.6541 g &#45;36.9705</text>
<polyline fill="none" stroke="white" points="478,-103.5 686,-103.5 "/>
<text text-anchor="middle" x="498.5" y="-88.3" font-family="Times,serif" font-size="14.00">b</text>
<polyline fill="none" stroke="white" points="519,-80.5 519,-103.5 "/>
<text text-anchor="middle" x="602.5" y="-88.3" font-family="Times,serif" font-size="14.00">d &#45;1.1000 g 1.0000</text>
<polyline fill="none" stroke="white" points="478,-80.5 686,-80.5 "/>
<text text-anchor="middle" x="493.5" y="-65.3" font-family="Times,serif" font-size="14.00">a</text>
<polyline fill="none" stroke="white" points="509,-57.5 509,-80.5 "/>
<text text-anchor="middle" x="597.5" y="-65.3" font-family="Times,serif" font-size="14.00">d &#45;340.7025 g 1.0000</text>
</g>
<!-- L1N1&#45;&gt;L2N1 -->
<g id="edge3" class="edge">
<title>L1N1&#45;&gt;L2N1</title>
<path fill="none" stroke="black" d="M433.26,-150.41C444.66,-147.68 456.4,-144.86 468.04,-142.07"/>
<polygon fill="black" stroke="black" points="468.87,-145.47 477.78,-139.74 467.24,-138.67 468.87,-145.47"/>
</g>
<!-- L1N2&#45;&gt;L2N1 -->
<g id="edge4" class="edge">
<title>L1N2&#45;&gt;L2N1</title>
<path fill="none" stroke="black" d="M442.33,-84.63C450.73,-86.47 459.25,-88.34 467.72,-90.19"/>
<polygon fill="black" stroke="black" points="467.11,-93.64 477.63,-92.36 468.61,-86.8 467.11,-93.64"/>
</g>
<!-- a -->
<g id="node5" class="node">
<title>a</title>
<polygon fill="none" stroke="black" points="62.5,-181 62.5,-217 151.5,-217 151.5,-181 62.5,-181"/>
<text text-anchor="middle" x="107" y="-195.3" font-family="Times,serif" font-size="14.00">clicked 45</text>
</g>
</g>
</svg>
