<?xml version="1.0" encoding="UTF-8" standalone="no"?>
<!DOCTYPE svg PUBLIC "-//W3C//DTD SVG 1.1//EN"
 "http://www.w3.org/Graphics/SVG/1.1/DTD/svg11.dtd">
<!-- Generated by graphviz version 2.43.0 (0)
 -->
<!-- Title: %3 Pages: 1 -->
<svg width="871pt" height="313pt"
 viewBox="0.00 0.00 871.00 313.00" xmlns="http://www.w3.org/2000/svg" xmlns:xlink="http://www.w3.org/1999/xlink">
<g id="graph0" class="graph" transform="scale(1 1) rotate(0) translate(4 309)">
<title>%3</title>
<polygon fill="white" stroke="transparent" points="-4,4 -4,-309 867,-309 867,4 -4,4"/>
<g id="clust1" class="cluster">
<title>cluster_I</title>
<polygon fill="lightgrey" stroke="lightgrey" points="8,-109 8,-195 192,-195 192,-109 8,-109"/>
<text text-anchor="middle" x="100" y="-179.8" font-family="Times,serif" font-size="14.00">I</text>
</g>
<g id="clust2" class="cluster">
<title>cluster_L1</title>
<polygon fill="lightgrey" stroke="lightgrey" points="212,-31 212,-274 413,-274 413,-31 212,-31"/>
<text text-anchor="middle" x="312.5" y="-258.8" font-family="Times,serif" font-size="14.00">L1</text>
</g>
<g id="clust3" class="cluster">
<title>cluster_L2</title>
<polygon fill="lightgrey" stroke="lightgrey" points="433,-8 433,-297 634,-297 634,-8 433,-8"/>
<text text-anchor="middle" x="533.5" y="-281.8" font-family="Times,serif" font-size="14.00">L2</text>
</g>
<g id="clust4" class="cluster">
<title>cluster_O</title>
<polygon fill="lightgrey" stroke="lightgrey" points="654,-75 654,-230 855,-230 855,-75 654,-75"/>
<text text-anchor="middle" x="754.5" y="-214.8" font-family="Times,serif" font-size="14.00">O</text>
</g>
<!-- i1 -->
<g id="node1" class="node">
<title>i1</title>
<polygon fill="white" stroke="white" points="16,-117 16,-163 184,-163 184,-117 16,-117"/>
<text text-anchor="middle" x="100" y="-147.8" font-family="Times,serif" font-size="14.00">i1</text>
<polyline fill="none" stroke="white" points="16,-140 184,-140 "/>
<text text-anchor="middle" x="26.5" y="-124.8" font-family="Times,serif" font-size="14.00">i</text>
<polyline fill="none" stroke="white" points="37,-117 37,-140 "/>
<text text-anchor="middle" x="110.5" y="-124.8" font-family="Times,serif" font-size="14.00">d 1.0000 g 0.0000</text>
</g>
<!-- L1N1 -->
<g id="node2" class="node">
<title>L1N1</title>
<polygon fill="white" stroke="white" points="220,-150 220,-242 405,-242 405,-150 220,-150"/>
<text text-anchor="middle" x="312.5" y="-226.8" font-family="Times,serif" font-size="14.00">N1</text>
<polyline fill="none" stroke="white" points="220,-219 405,-219 "/>
<text text-anchor="middle" x="239" y="-203.8" font-family="Times,serif" font-size="14.00">w1</text>
<polyline fill="none" stroke="white" points="258,-196 258,-219 "/>
<text text-anchor="middle" x="331.5" y="-203.8" font-family="Times,serif" font-size="14.00">d 0.5000 g 0.0000</text>
<polyline fill="none" stroke="white" points="220,-196 405,-196 "/>
<text text-anchor="middle" x="236" y="-180.8" font-family="Times,serif" font-size="14.00">b</text>
<polyline fill="none" stroke="white" points="252,-173 252,-196 "/>
<text text-anchor="middle" x="328.5" y="-180.8" font-family="Times,serif" font-size="14.00">d 0.0000 g 0.0000</text>
<polyline fill="none" stroke="white" points="220,-173 405,-173 "/>
<text text-anchor="middle" x="235.5" y="-157.8" font-family="Times,serif" font-size="14.00">a</text>
<polyline fill="none" stroke="white" points="251,-150 251,-173 "/>
<text text-anchor="middle" x="328" y="-157.8" font-family="Times,serif" font-size="14.00">d 0.5000 g 0.0000</text>
</g>
<!-- i1&#45;&gt;L1N1 -->
<g id="edge1" class="edge">
<title>i1&#45;&gt;L1N1</title>
<path fill="none" stroke="black" d="M184.2,-162.13C192.71,-164.4 201.43,-166.72 210.11,-169.03"/>
<polygon fill="black" stroke="black" points="209.33,-172.44 219.89,-171.63 211.13,-165.68 209.33,-172.44"/>
</g>
<!-- L1N2 -->
<g id="node3" class="node">
<title>L1N2</title>
<polygon fill="white" stroke="white" points="220,-39 220,-131 405,-131 405,-39 220,-39"/>
<text text-anchor="middle" x="312.5" y="-115.8" font-family="Times,serif" font-size="14.00">N2</text>
<polyline fill="none" stroke="white" points="220,-108 405,-108 "/>
<text text-anchor="middle" x="239" y="-92.8" font-family="Times,serif" font-size="14.00">w1</text>
<polyline fill="none" stroke="white" points="258,-85 258,-108 "/>
<text text-anchor="middle" x="331.5" y="-92.8" font-family="Times,serif" font-size="14.00">d 0.5000 g 0.0000</text>
<polyline fill="none" stroke="white" points="220,-85 405,-85 "/>
<text text-anchor="middle" x="236" y="-69.8" font-family="Times,serif" font-size="14.00">b</text>
<polyline fill="none" stroke="white" points="252,-62 252,-85 "/>
<text text-anchor="middle" x="328.5" y="-69.8" font-family="Times,serif" font-size="14.00">d 0.0000 g 0.0000</text>
<polyline fill="none" stroke="white" points="220,-62 405,-62 "/>
<text text-anchor="middle" x="235.5" y="-46.8" font-family="Times,serif" font-size="14.00">a</text>
<polyline fill="none" stroke="white" points="251,-39 251,-62 "/>
<text text-anchor="middle" x="328" y="-46.8" font-family="Times,serif" font-size="14.00">d 0.5000 g 0.0000</text>
</g>
<!-- i1&#45;&gt;L1N2 -->
<g id="edge2" class="edge">
<title>i1&#45;&gt;L1N2</title>
<path fill="none" stroke="black" d="M184.2,-118.26C192.71,-116.04 201.43,-113.76 210.11,-111.49"/>
<polygon fill="black" stroke="black" points="211.1,-114.85 219.89,-108.94 209.33,-108.08 211.1,-114.85"/>
</g>
<!-- L2N1 -->
<g id="node4" class="node">
<title>L2N1</title>
<polygon fill="white" stroke="white" points="441,-150.5 441,-265.5 626,-265.5 626,-150.5 441,-150.5"/>
<text text-anchor="middle" x="533.5" y="-250.3" font-family="Times,serif" font-size="14.00">N1</text>
<polyline fill="none" stroke="white" points="441,-242.5 626,-242.5 "/>
<text text-anchor="middle" x="460" y="-227.3" font-family="Times,serif" font-size="14.00">w1</text>
<polyline fill="none" stroke="white" points="479,-219.5 479,-242.5 "/>
<text text-anchor="middle" x="552.5" y="-227.3" font-family="Times,serif" font-size="14.00">d 0.6000 g 0.0000</text>
<polyline fill="none" stroke="white" points="441,-219.5 626,-219.5 "/>
<text text-anchor="middle" x="460" y="-204.3" font-family="Times,serif" font-size="14.00">w2</text>
<polyline fill="none" stroke="white" points="479,-196.5 479,-219.5 "/>
<text text-anchor="middle" x="552.5" y="-204.3" font-family="Times,serif" font-size="14.00">d 1.2000 g 0.0000</text>
<polyline fill="none" stroke="white" points="441,-196.5 626,-196.5 "/>
<text text-anchor="middle" x="457" y="-181.3" font-family="Times,serif" font-size="14.00">b</text>
<polyline fill="none" stroke="white" points="473,-173.5 473,-196.5 "/>
<text text-anchor="middle" x="549.5" y="-181.3" font-family="Times,serif" font-size="14.00">d 0.0000 g 0.0000</text>
<polyline fill="none" stroke="white" points="441,-173.5 626,-173.5 "/>
<text text-anchor="middle" x="456.5" y="-158.3" font-family="Times,serif" font-size="14.00">a</text>
<polyline fill="none" stroke="white" points="472,-150.5 472,-173.5 "/>
<text text-anchor="middle" x="549" y="-158.3" font-family="Times,serif" font-size="14.00">d 0.9000 g 0.0000</text>
</g>
<!-- L1N1&#45;&gt;L2N1 -->
<g id="edge3" class="edge">
<title>L1N1&#45;&gt;L2N1</title>
<path fill="none" stroke="black" d="M405.11,-201.02C413.62,-201.49 422.27,-201.96 430.86,-202.43"/>
<polygon fill="black" stroke="black" points="430.73,-205.93 440.91,-202.98 431.11,-198.94 430.73,-205.93"/>
</g>
<!-- L2N2 -->
<g id="node5" class="node">
<title>L2N2</title>
<polygon fill="white" stroke="white" points="441,-16.5 441,-131.5 626,-131.5 626,-16.5 441,-16.5"/>
<text text-anchor="middle" x="533.5" y="-116.3" font-family="Times,serif" font-size="14.00">N2</text>
<polyline fill="none" stroke="white" points="441,-108.5 626,-108.5 "/>
<text text-anchor="middle" x="460" y="-93.3" font-family="Times,serif" font-size="14.00">w1</text>
<polyline fill="none" stroke="white" points="479,-85.5 479,-108.5 "/>
<text text-anchor="middle" x="552.5" y="-93.3" font-family="Times,serif" font-size="14.00">d 0.3000 g 0.0000</text>
<polyline fill="none" stroke="white" points="441,-85.5 626,-85.5 "/>
<text text-anchor="middle" x="460" y="-70.3" font-family="Times,serif" font-size="14.00">w2</text>
<polyline fill="none" stroke="white" points="479,-62.5 479,-85.5 "/>
<text text-anchor="middle" x="552.5" y="-70.3" font-family="Times,serif" font-size="14.00">d 0.6000 g 0.0000</text>
<polyline fill="none" stroke="white" points="441,-62.5 626,-62.5 "/>
<text text-anchor="middle" x="457" y="-47.3" font-family="Times,serif" font-size="14.00">b</text>
<polyline fill="none" stroke="white" points="473,-39.5 473,-62.5 "/>
<text text-anchor="middle" x="549.5" y="-47.3" font-family="Times,serif" font-size="14.00">d 0.0000 g 0.0000</text>
<polyline fill="none" stroke="white" points="441,-39.5 626,-39.5 "/>
<text text-anchor="middle" x="456.5" y="-24.3" font-family="Times,serif" font-size="14.00">a</text>
<polyline fill="none" stroke="white" points="472,-16.5 472,-39.5 "/>
<text text-anchor="middle" x="549" y="-24.3" font-family="Times,serif" font-size="14.00">d 0.4500 g 0.0000</text>
</g>
<!-- L1N1&#45;&gt;L2N2 -->
<g id="edge4" class="edge">
<title>L1N1&#45;&gt;L2N2</title>
<path fill="none" stroke="black" d="M396.86,-149.97C402.32,-146.94 407.74,-143.93 413,-141 419.21,-137.54 425.61,-133.97 432.05,-130.37"/>
<polygon fill="black" stroke="black" points="433.84,-133.38 440.86,-125.45 430.43,-127.27 433.84,-133.38"/>
</g>
<!-- L1N2&#45;&gt;L2N1 -->
<g id="edge5" class="edge">
<title>L1N2&#45;&gt;L2N1</title>
<path fill="none" stroke="black" d="M395.67,-131.15C407.49,-137.79 419.76,-144.68 431.88,-151.49"/>
<polygon fill="black" stroke="black" points="430.25,-154.58 440.68,-156.43 433.67,-148.48 430.25,-154.58"/>
</g>
<!-- L1N2&#45;&gt;L2N2 -->
<g id="edge6" class="edge">
<title>L1N2&#45;&gt;L2N2</title>
<path fill="none" stroke="black" d="M405.11,-80.4C413.62,-79.97 422.27,-79.54 430.86,-79.1"/>
<polygon fill="black" stroke="black" points="431.1,-82.6 440.91,-78.6 430.75,-75.61 431.1,-82.6"/>
</g>
<!-- ON1 -->
<g id="node6" class="node">
<title>ON1</title>
<polygon fill="white" stroke="white" points="662,-83.5 662,-198.5 847,-198.5 847,-83.5 662,-83.5"/>
<text text-anchor="middle" x="754.5" y="-183.3" font-family="Times,serif" font-size="14.00">N1</text>
<polyline fill="none" stroke="white" points="662,-175.5 847,-175.5 "/>
<text text-anchor="middle" x="681" y="-160.3" font-family="Times,serif" font-size="14.00">w1</text>
<polyline fill="none" stroke="white" points="700,-152.5 700,-175.5 "/>
<text text-anchor="middle" x="773.5" y="-160.3" font-family="Times,serif" font-size="14.00">d 0.5000 g 0.0000</text>
<polyline fill="none" stroke="white" points="662,-152.5 847,-152.5 "/>
<text text-anchor="middle" x="681" y="-137.3" font-family="Times,serif" font-size="14.00">w2</text>
<polyline fill="none" stroke="white" points="700,-129.5 700,-152.5 "/>
<text text-anchor="middle" x="773.5" y="-137.3" font-family="Times,serif" font-size="14.00">d 1.0000 g 0.0000</text>
<polyline fill="none" stroke="white" points="662,-129.5 847,-129.5 "/>
<text text-anchor="middle" x="678" y="-114.3" font-family="Times,serif" font-size="14.00">b</text>
<polyline fill="none" stroke="white" points="694,-106.5 694,-129.5 "/>
<text text-anchor="middle" x="770.5" y="-114.3" font-family="Times,serif" font-size="14.00">d 0.0000 g 0.0000</text>
<polyline fill="none" stroke="white" points="662,-106.5 847,-106.5 "/>
<text text-anchor="middle" x="677.5" y="-91.3" font-family="Times,serif" font-size="14.00">a</text>
<polyline fill="none" stroke="white" points="693,-83.5 693,-106.5 "/>
<text text-anchor="middle" x="770" y="-91.3" font-family="Times,serif" font-size="14.00">d 0.9000 g 0.0000</text>
</g>
<!-- L2N1&#45;&gt;ON1 -->
<g id="edge7" class="edge">
<title>L2N1&#45;&gt;ON1</title>
<path fill="none" stroke="black" d="M626.11,-179.97C634.71,-177.34 643.46,-174.67 652.14,-172.01"/>
<polygon fill="black" stroke="black" points="653.37,-175.29 661.91,-169.02 651.32,-168.6 653.37,-175.29"/>
</g>
<!-- L2N2&#45;&gt;ON1 -->
<g id="edge8" class="edge">
<title>L2N2&#45;&gt;ON1</title>
<path fill="none" stroke="black" d="M626.11,-102.03C634.71,-104.66 643.46,-107.33 652.14,-109.99"/>
<polygon fill="black" stroke="black" points="651.32,-113.4 661.91,-112.98 653.37,-106.71 651.32,-113.4"/>
</g>
<!-- a -->
<g id="node7" class="node">
<title>a</title>
<polygon fill="none" stroke="black" points="67.5,-204 67.5,-240 132.5,-240 132.5,-204 67.5,-204"/>
<text text-anchor="middle" x="100" y="-218.3" font-family="Times,serif" font-size="14.00">hello 3</text>
</g>
</g>
</svg>
