<?xml version="1.0" encoding="UTF-8" standalone="no"?>
<!DOCTYPE svg PUBLIC "-//W3C//DTD SVG 1.1//EN"
 "http://www.w3.org/Graphics/SVG/1.1/DTD/svg11.dtd">
<!-- Generated by graphviz version 2.43.0 (0)
 -->
<!-- Title: %3 Pages: 1 -->
<svg width="692pt" height="267pt"
 viewBox="0.00 0.00 692.00 267.00" xmlns="http://www.w3.org/2000/svg" xmlns:xlink="http://www.w3.org/1999/xlink">
<g id="graph0" class="graph" transform="scale(1 1) rotate(0) translate(4 263)">
<title>%3</title>
<polygon fill="white" stroke="transparent" points="-4,4 -4,-263 688,-263 688,4 -4,4"/>
<g id="clust1" class="cluster">
<title>cluster_I</title>
<polygon fill="lightgrey" stroke="lightgrey" points="8,-86 8,-172 206,-172 206,-86 8,-86"/>
<text text-anchor="middle" x="107" y="-156.8" font-family="Times,serif" font-size="14.00">I</text>
</g>
<g id="clust2" class="cluster">
<title>cluster_L1</title>
<polygon fill="lightgrey" stroke="lightgrey" points="226,-8 226,-251 441,-251 441,-8 226,-8"/>
<text text-anchor="middle" x="333.5" y="-235.8" font-family="Times,serif" font-size="14.00">L1</text>
</g>
<g id="clust3" class="cluster">
<title>cluster_L2</title>
<polygon fill="lightgrey" stroke="lightgrey" points="461,-49 461,-204 676,-204 676,-49 461,-49"/>
<text text-anchor="middle" x="568.5" y="-188.8" font-family="Times,serif" font-size="14.00">L2</text>
</g>
<!-- i1 -->
<g id="node1" class="node">
<title>i1</title>
<polygon fill="white" stroke="white" points="16,-94 16,-140 198,-140 198,-94 16,-94"/>
<text text-anchor="middle" x="107" y="-124.8" font-family="Times,serif" font-size="14.00">i1</text>
<polyline fill="none" stroke="white" points="16,-117 198,-117 "/>
<text text-anchor="middle" x="26.5" y="-101.8" font-family="Times,serif" font-size="14.00">i</text>
<polyline fill="none" stroke="white" points="37,-94 37,-117 "/>
<text text-anchor="middle" x="117.5" y="-101.8" font-family="Times,serif" font-size="14.00">d 4.0000 g &#45;79.6243</text>
</g>
<!-- L1N1 -->
<g id="node2" class="node">
<title>L1N1</title>
<polygon fill="white" stroke="white" points="238.5,-127 238.5,-219 428.5,-219 428.5,-127 238.5,-127"/>
<text text-anchor="middle" x="333.5" y="-203.8" font-family="Times,serif" font-size="14.00">N1</text>
<polyline fill="none" stroke="white" points="238.5,-196 428.5,-196 "/>
<text text-anchor="middle" x="257.5" y="-180.8" font-family="Times,serif" font-size="14.00">w1</text>
<polyline fill="none" stroke="white" points="276.5,-173 276.5,-196 "/>
<text text-anchor="middle" x="352.5" y="-180.8" font-family="Times,serif" font-size="14.00">d &#45;1.3713 g 5.7502</text>
<polyline fill="none" stroke="white" points="238.5,-173 428.5,-173 "/>
<text text-anchor="middle" x="254.5" y="-157.8" font-family="Times,serif" font-size="14.00">b</text>
<polyline fill="none" stroke="white" points="270.5,-150 270.5,-173 "/>
<text text-anchor="middle" x="349.5" y="-157.8" font-family="Times,serif" font-size="14.00">d &#45;0.4678 g 1.4376</text>
<polyline fill="none" stroke="white" points="238.5,-150 428.5,-150 "/>
<text text-anchor="middle" x="254" y="-134.8" font-family="Times,serif" font-size="14.00">a</text>
<polyline fill="none" stroke="white" points="269.5,-127 269.5,-150 "/>
<text text-anchor="middle" x="349" y="-134.8" font-family="Times,serif" font-size="14.00">d &#45;5.9528 g 1.4376</text>
</g>
<!-- i1&#45;&gt;L1N1 -->
<g id="edge1" class="edge">
<title>i1&#45;&gt;L1N1</title>
<path fill="none" stroke="black" d="M198.02,-139.45C208.1,-141.97 218.42,-144.54 228.65,-147.1"/>
<polygon fill="black" stroke="black" points="227.87,-150.51 238.42,-149.53 229.57,-143.72 227.87,-150.51"/>
</g>
<!-- L1N2 -->
<g id="node3" class="node">
<title>L1N2</title>
<polygon fill="white" stroke="white" points="234,-16 234,-108 433,-108 433,-16 234,-16"/>
<text text-anchor="middle" x="333.5" y="-92.8" font-family="Times,serif" font-size="14.00">N2</text>
<polyline fill="none" stroke="white" points="234,-85 433,-85 "/>
<text text-anchor="middle" x="253" y="-69.8" font-family="Times,serif" font-size="14.00">w1</text>
<polyline fill="none" stroke="white" points="272,-62 272,-85 "/>
<text text-anchor="middle" x="352.5" y="-69.8" font-family="Times,serif" font-size="14.00">d &#45;8.6695 g 35.8280</text>
<polyline fill="none" stroke="white" points="234,-62 433,-62 "/>
<text text-anchor="middle" x="252" y="-46.8" font-family="Times,serif" font-size="14.00">b</text>
<polyline fill="none" stroke="white" points="270,-39 270,-62 "/>
<text text-anchor="middle" x="351.5" y="-46.8" font-family="Times,serif" font-size="14.00">d &#45;2.2924 g 8.9570</text>
<polyline fill="none" stroke="white" points="234,-39 433,-39 "/>
<text text-anchor="middle" x="249.5" y="-23.8" font-family="Times,serif" font-size="14.00">a</text>
<polyline fill="none" stroke="white" points="265,-16 265,-39 "/>
<text text-anchor="middle" x="349" y="-23.8" font-family="Times,serif" font-size="14.00">d &#45;36.9705 g 8.9570</text>
</g>
<!-- i1&#45;&gt;L1N2 -->
<g id="edge2" class="edge">
<title>i1&#45;&gt;L1N2</title>
<path fill="none" stroke="black" d="M198.02,-94.95C206.62,-92.84 215.39,-90.69 224.14,-88.55"/>
<polygon fill="black" stroke="black" points="225.11,-91.91 233.99,-86.13 223.45,-85.11 225.11,-91.91"/>
</g>
<!-- L2N1 -->
<g id="node4" class="node">
<title>L2N1</title>
<polygon fill="white" stroke="white" points="469,-57.5 469,-172.5 668,-172.5 668,-57.5 469,-57.5"/>
<text text-anchor="middle" x="568.5" y="-157.3" font-family="Times,serif" font-size="14.00">N1</text>
<polyline fill="none" stroke="white" points="469,-149.5 668,-149.5 "/>
<text text-anchor="middle" x="490" y="-134.3" font-family="Times,serif" font-size="14.00">w1</text>
<polyline fill="none" stroke="white" points="511,-126.5 511,-149.5 "/>
<text text-anchor="middle" x="589.5" y="-134.3" font-family="Times,serif" font-size="14.00">d 1.4376 g &#45;5.9528</text>
<polyline fill="none" stroke="white" points="469,-126.5 668,-126.5 "/>
<text text-anchor="middle" x="488" y="-111.3" font-family="Times,serif" font-size="14.00">w2</text>
<polyline fill="none" stroke="white" points="507,-103.5 507,-126.5 "/>
<text text-anchor="middle" x="587.5" y="-111.3" font-family="Times,serif" font-size="14.00">d 8.9570 g &#45;36.9705</text>
<polyline fill="none" stroke="white" points="469,-103.5 668,-103.5 "/>
<text text-anchor="middle" x="487" y="-88.3" font-family="Times,serif" font-size="14.00">b</text>
<polyline fill="none" stroke="white" points="505,-80.5 505,-103.5 "/>
<text text-anchor="middle" x="586.5" y="-88.3" font-family="Times,serif" font-size="14.00">d &#45;1.0000 g 1.0000</text>
<polyline fill="none" stroke="white" points="469,-80.5 668,-80.5 "/>
<text text-anchor="middle" x="482.5" y="-65.3" font-family="Times,serif" font-size="14.00">a</text>
<polyline fill="none" stroke="white" points="496,-57.5 496,-80.5 "/>
<text text-anchor="middle" x="582" y="-65.3" font-family="Times,serif" font-size="14.00">d &#45;340.7025 g 1.0000</text>
</g>
<!-- L1N1&#45;&gt;L2N1 -->
<g id="edge3" class="edge">
<title>L1N1&#45;&gt;L2N1</title>
<path fill="none" stroke="black" d="M428.6,-149.58C438.65,-147.07 448.93,-144.52 459.13,-141.98"/>
<polygon fill="black" stroke="black" points="460.01,-145.36 468.87,-139.55 458.32,-138.57 460.01,-145.36"/>
</g>
<!-- L1N2&#45;&gt;L2N1 -->
<g id="edge4" class="edge">
<title>L1N2&#45;&gt;L2N1</title>
<path fill="none" stroke="black" d="M433.31,-84.48C441.78,-86.4 450.38,-88.36 458.92,-90.3"/>
<polygon fill="black" stroke="black" points="458.38,-93.77 468.91,-92.57 459.93,-86.94 458.38,-93.77"/>
</g>
<!-- a -->
<g id="node5" class="node">
<title>a</title>
<polygon fill="none" stroke="black" points="62.5,-181 62.5,-217 151.5,-217 151.5,-181 62.5,-181"/>
<text text-anchor="middle" x="107" y="-195.3" font-family="Times,serif" font-size="14.00">clicked 44</text>
</g>
</g>
</svg>
