<?xml version="1.0" encoding="UTF-8" standalone="no"?>
<!DOCTYPE svg PUBLIC "-//W3C//DTD SVG 1.1//EN"
 "http://www.w3.org/Graphics/SVG/1.1/DTD/svg11.dtd">
<!-- Generated by graphviz version 2.43.0 (0)
 -->
<!-- Title: %3 Pages: 1 -->
<svg width="678pt" height="267pt"
 viewBox="0.00 0.00 678.00 267.00" xmlns="http://www.w3.org/2000/svg" xmlns:xlink="http://www.w3.org/1999/xlink">
<g id="graph0" class="graph" transform="scale(1 1) rotate(0) translate(4 263)">
<title>%3</title>
<polygon fill="white" stroke="transparent" points="-4,4 -4,-263 674,-263 674,4 -4,4"/>
<g id="clust1" class="cluster">
<title>cluster_I</title>
<polygon fill="lightgrey" stroke="lightgrey" points="8,-86 8,-172 192,-172 192,-86 8,-86"/>
<text text-anchor="middle" x="100" y="-156.8" font-family="Times,serif" font-size="14.00">I</text>
</g>
<g id="clust2" class="cluster">
<title>cluster_L1</title>
<polygon fill="lightgrey" stroke="lightgrey" points="212,-8 212,-251 422,-251 422,-8 212,-8"/>
<text text-anchor="middle" x="317" y="-235.8" font-family="Times,serif" font-size="14.00">L1</text>
</g>
<g id="clust3" class="cluster">
<title>cluster_L2</title>
<polygon fill="lightgrey" stroke="lightgrey" points="442,-49 442,-204 662,-204 662,-49 442,-49"/>
<text text-anchor="middle" x="552" y="-188.8" font-family="Times,serif" font-size="14.00">L2</text>
</g>
<!-- i1 -->
<g id="node1" class="node">
<title>i1</title>
<polygon fill="white" stroke="white" points="16,-94 16,-140 184,-140 184,-94 16,-94"/>
<text text-anchor="middle" x="100" y="-124.8" font-family="Times,serif" font-size="14.00">i1</text>
<polyline fill="none" stroke="white" points="16,-117 184,-117 "/>
<text text-anchor="middle" x="26.5" y="-101.8" font-family="Times,serif" font-size="14.00">i</text>
<polyline fill="none" stroke="white" points="37,-94 37,-117 "/>
<text text-anchor="middle" x="110.5" y="-101.8" font-family="Times,serif" font-size="14.00">d 4.0000 g 0.0000</text>
</g>
<!-- L1N1 -->
<g id="node2" class="node">
<title>L1N1</title>
<polygon fill="white" stroke="white" points="220,-127 220,-219 414,-219 414,-127 220,-127"/>
<text text-anchor="middle" x="317" y="-203.8" font-family="Times,serif" font-size="14.00">N1</text>
<polyline fill="none" stroke="white" points="220,-196 414,-196 "/>
<text text-anchor="middle" x="239" y="-180.8" font-family="Times,serif" font-size="14.00">w1</text>
<polyline fill="none" stroke="white" points="258,-173 258,-196 "/>
<text text-anchor="middle" x="336" y="-180.8" font-family="Times,serif" font-size="14.00">d 35.3800 g 0.0000</text>
<polyline fill="none" stroke="white" points="220,-173 414,-173 "/>
<text text-anchor="middle" x="238" y="-157.8" font-family="Times,serif" font-size="14.00">b</text>
<polyline fill="none" stroke="white" points="256,-150 256,-173 "/>
<text text-anchor="middle" x="335" y="-157.8" font-family="Times,serif" font-size="14.00">d 6.9200 g 0.0000</text>
<polyline fill="none" stroke="white" points="220,-150 414,-150 "/>
<text text-anchor="middle" x="233.5" y="-134.8" font-family="Times,serif" font-size="14.00">a</text>
<polyline fill="none" stroke="white" points="247,-127 247,-150 "/>
<text text-anchor="middle" x="330.5" y="-134.8" font-family="Times,serif" font-size="14.00">d 148.4400 g 0.0000</text>
</g>
<!-- i1&#45;&gt;L1N1 -->
<g id="edge1" class="edge">
<title>i1&#45;&gt;L1N1</title>
<path fill="none" stroke="black" d="M184.12,-138.65C192.62,-140.86 201.34,-143.13 210.04,-145.4"/>
<polygon fill="black" stroke="black" points="209.29,-148.82 219.84,-147.95 211.05,-142.05 209.29,-148.82"/>
</g>
<!-- L1N2 -->
<g id="node3" class="node">
<title>L1N2</title>
<polygon fill="white" stroke="white" points="224.5,-16 224.5,-108 409.5,-108 409.5,-16 224.5,-16"/>
<text text-anchor="middle" x="317" y="-92.8" font-family="Times,serif" font-size="14.00">N2</text>
<polyline fill="none" stroke="white" points="224.5,-85 409.5,-85 "/>
<text text-anchor="middle" x="243.5" y="-69.8" font-family="Times,serif" font-size="14.00">w1</text>
<polyline fill="none" stroke="white" points="262.5,-62 262.5,-85 "/>
<text text-anchor="middle" x="336" y="-69.8" font-family="Times,serif" font-size="14.00">d 5.5400 g 0.0000</text>
<polyline fill="none" stroke="white" points="224.5,-62 409.5,-62 "/>
<text text-anchor="middle" x="240.5" y="-46.8" font-family="Times,serif" font-size="14.00">b</text>
<polyline fill="none" stroke="white" points="256.5,-39 256.5,-62 "/>
<text text-anchor="middle" x="333" y="-46.8" font-family="Times,serif" font-size="14.00">d 0.4200 g 0.0000</text>
<polyline fill="none" stroke="white" points="224.5,-39 409.5,-39 "/>
<text text-anchor="middle" x="238" y="-23.8" font-family="Times,serif" font-size="14.00">a</text>
<polyline fill="none" stroke="white" points="251.5,-16 251.5,-39 "/>
<text text-anchor="middle" x="330.5" y="-23.8" font-family="Times,serif" font-size="14.00">d 22.5800 g 0.0000</text>
</g>
<!-- i1&#45;&gt;L1N2 -->
<g id="edge2" class="edge">
<title>i1&#45;&gt;L1N2</title>
<path fill="none" stroke="black" d="M184.12,-95.74C194.06,-93.19 204.3,-90.58 214.46,-87.98"/>
<polygon fill="black" stroke="black" points="215.35,-91.36 224.17,-85.49 213.61,-84.58 215.35,-91.36"/>
</g>
<!-- L2N1 -->
<g id="node4" class="node">
<title>L2N1</title>
<polygon fill="white" stroke="white" points="450,-57.5 450,-172.5 654,-172.5 654,-57.5 450,-57.5"/>
<text text-anchor="middle" x="552" y="-157.3" font-family="Times,serif" font-size="14.00">N1</text>
<polyline fill="none" stroke="white" points="450,-149.5 654,-149.5 "/>
<text text-anchor="middle" x="470" y="-134.3" font-family="Times,serif" font-size="14.00">w1</text>
<polyline fill="none" stroke="white" points="490,-126.5 490,-149.5 "/>
<text text-anchor="middle" x="572" y="-134.3" font-family="Times,serif" font-size="14.00">d &#45;21.9820 g 0.0000</text>
<polyline fill="none" stroke="white" points="450,-126.5 654,-126.5 "/>
<text text-anchor="middle" x="472.5" y="-111.3" font-family="Times,serif" font-size="14.00">w2</text>
<polyline fill="none" stroke="white" points="495,-103.5 495,-126.5 "/>
<text text-anchor="middle" x="574.5" y="-111.3" font-family="Times,serif" font-size="14.00">d &#45;8.2340 g 0.0000</text>
<polyline fill="none" stroke="white" points="450,-103.5 654,-103.5 "/>
<text text-anchor="middle" x="469.5" y="-88.3" font-family="Times,serif" font-size="14.00">b</text>
<polyline fill="none" stroke="white" points="489,-80.5 489,-103.5 "/>
<text text-anchor="middle" x="571.5" y="-88.3" font-family="Times,serif" font-size="14.00">d &#45;4.3000 g 0.0000</text>
<polyline fill="none" stroke="white" points="450,-80.5 654,-80.5 "/>
<text text-anchor="middle" x="462.5" y="-65.3" font-family="Times,serif" font-size="14.00">a</text>
<polyline fill="none" stroke="white" points="475,-57.5 475,-80.5 "/>
<text text-anchor="middle" x="564.5" y="-65.3" font-family="Times,serif" font-size="14.00">d &#45;3453.2318 g 0.0000</text>
</g>
<!-- L1N1&#45;&gt;L2N1 -->
<g id="edge3" class="edge">
<title>L1N1&#45;&gt;L2N1</title>
<path fill="none" stroke="black" d="M414.12,-149.07C422.68,-146.94 431.39,-144.77 440.06,-142.62"/>
<polygon fill="black" stroke="black" points="440.97,-146 449.82,-140.19 439.28,-139.2 440.97,-146"/>
</g>
<!-- L1N2&#45;&gt;L2N1 -->
<g id="edge4" class="edge">
<title>L1N2&#45;&gt;L2N1</title>
<path fill="none" stroke="black" d="M409.75,-82.87C419.59,-85.11 429.68,-87.4 439.71,-89.68"/>
<polygon fill="black" stroke="black" points="439.19,-93.16 449.71,-91.96 440.74,-86.33 439.19,-93.16"/>
</g>
<!-- a -->
<g id="node5" class="node">
<title>a</title>
<polygon fill="none" stroke="black" points="55.5,-181 55.5,-217 144.5,-217 144.5,-181 55.5,-181"/>
<text text-anchor="middle" x="100" y="-195.3" font-family="Times,serif" font-size="14.00">clicked 50</text>
</g>
</g>
</svg>
