<?xml version="1.0" encoding="UTF-8" standalone="no"?>
<!DOCTYPE svg PUBLIC "-//W3C//DTD SVG 1.1//EN"
 "http://www.w3.org/Graphics/SVG/1.1/DTD/svg11.dtd">
<!-- Generated by graphviz version 2.43.0 (0)
 -->
<!-- Title: %3 Pages: 1 -->
<svg width="665pt" height="267pt"
 viewBox="0.00 0.00 665.00 267.00" xmlns="http://www.w3.org/2000/svg" xmlns:xlink="http://www.w3.org/1999/xlink">
<g id="graph0" class="graph" transform="scale(1 1) rotate(0) translate(4 263)">
<title>%3</title>
<polygon fill="white" stroke="transparent" points="-4,4 -4,-263 661,-263 661,4 -4,4"/>
<g id="clust1" class="cluster">
<title>cluster_I</title>
<polygon fill="lightgrey" stroke="lightgrey" points="8,-86 8,-172 197,-172 197,-86 8,-86"/>
<text text-anchor="middle" x="102.5" y="-156.8" font-family="Times,serif" font-size="14.00">I</text>
</g>
<g id="clust2" class="cluster">
<title>cluster_L1</title>
<polygon fill="lightgrey" stroke="lightgrey" points="217,-8 217,-251 423,-251 423,-8 217,-8"/>
<text text-anchor="middle" x="320" y="-235.8" font-family="Times,serif" font-size="14.00">L1</text>
</g>
<g id="clust3" class="cluster">
<title>cluster_L2</title>
<polygon fill="lightgrey" stroke="lightgrey" points="443,-49 443,-204 649,-204 649,-49 443,-49"/>
<text text-anchor="middle" x="546" y="-188.8" font-family="Times,serif" font-size="14.00">L2</text>
</g>
<!-- i1 -->
<g id="node1" class="node">
<title>i1</title>
<polygon fill="white" stroke="white" points="16,-94 16,-140 189,-140 189,-94 16,-94"/>
<text text-anchor="middle" x="102.5" y="-124.8" font-family="Times,serif" font-size="14.00">i1</text>
<polyline fill="none" stroke="white" points="16,-117 189,-117 "/>
<text text-anchor="middle" x="26.5" y="-101.8" font-family="Times,serif" font-size="14.00">i</text>
<polyline fill="none" stroke="white" points="37,-94 37,-117 "/>
<text text-anchor="middle" x="113" y="-101.8" font-family="Times,serif" font-size="14.00">d 4.0000 g &#45;2.4664</text>
</g>
<!-- L1N1 -->
<g id="node2" class="node">
<title>L1N1</title>
<polygon fill="white" stroke="white" points="225,-127 225,-219 415,-219 415,-127 225,-127"/>
<text text-anchor="middle" x="320" y="-203.8" font-family="Times,serif" font-size="14.00">N1</text>
<polyline fill="none" stroke="white" points="225,-196 415,-196 "/>
<text text-anchor="middle" x="244" y="-180.8" font-family="Times,serif" font-size="14.00">w1</text>
<polyline fill="none" stroke="white" points="263,-173 263,-196 "/>
<text text-anchor="middle" x="339" y="-180.8" font-family="Times,serif" font-size="14.00">d &#45;0.2059 g 1.3719</text>
<polyline fill="none" stroke="white" points="225,-173 415,-173 "/>
<text text-anchor="middle" x="241" y="-157.8" font-family="Times,serif" font-size="14.00">b</text>
<polyline fill="none" stroke="white" points="257,-150 257,-173 "/>
<text text-anchor="middle" x="336" y="-157.8" font-family="Times,serif" font-size="14.00">d &#45;0.1765 g 0.3430</text>
<polyline fill="none" stroke="white" points="225,-150 415,-150 "/>
<text text-anchor="middle" x="240.5" y="-134.8" font-family="Times,serif" font-size="14.00">a</text>
<polyline fill="none" stroke="white" points="256,-127 256,-150 "/>
<text text-anchor="middle" x="335.5" y="-134.8" font-family="Times,serif" font-size="14.00">d &#45;1.0001 g 0.0000</text>
</g>
<!-- i1&#45;&gt;L1N1 -->
<g id="edge1" class="edge">
<title>i1&#45;&gt;L1N1</title>
<path fill="none" stroke="black" d="M189.29,-139.29C197.73,-141.49 206.36,-143.73 214.96,-145.96"/>
<polygon fill="black" stroke="black" points="214.09,-149.35 224.65,-148.48 215.85,-142.58 214.09,-149.35"/>
</g>
<!-- L1N2 -->
<g id="node3" class="node">
<title>L1N2</title>
<polygon fill="white" stroke="white" points="225,-16 225,-108 415,-108 415,-16 225,-16"/>
<text text-anchor="middle" x="320" y="-92.8" font-family="Times,serif" font-size="14.00">N2</text>
<polyline fill="none" stroke="white" points="225,-85 415,-85 "/>
<text text-anchor="middle" x="244" y="-69.8" font-family="Times,serif" font-size="14.00">w1</text>
<polyline fill="none" stroke="white" points="263,-62 263,-85 "/>
<text text-anchor="middle" x="339" y="-69.8" font-family="Times,serif" font-size="14.00">d &#45;1.7419 g 6.9365</text>
<polyline fill="none" stroke="white" points="225,-62 415,-62 "/>
<text text-anchor="middle" x="241" y="-46.8" font-family="Times,serif" font-size="14.00">b</text>
<polyline fill="none" stroke="white" points="257,-39 257,-62 "/>
<text text-anchor="middle" x="336" y="-46.8" font-family="Times,serif" font-size="14.00">d &#45;0.5605 g 1.7341</text>
<polyline fill="none" stroke="white" points="225,-39 415,-39 "/>
<text text-anchor="middle" x="240.5" y="-23.8" font-family="Times,serif" font-size="14.00">a</text>
<polyline fill="none" stroke="white" points="256,-16 256,-39 "/>
<text text-anchor="middle" x="335.5" y="-23.8" font-family="Times,serif" font-size="14.00">d &#45;7.5282 g 0.0000</text>
</g>
<!-- i1&#45;&gt;L1N2 -->
<g id="edge2" class="edge">
<title>i1&#45;&gt;L1N2</title>
<path fill="none" stroke="black" d="M189.29,-95.1C197.64,-92.97 206.18,-90.79 214.69,-88.62"/>
<polygon fill="black" stroke="black" points="215.82,-91.95 224.65,-86.08 214.09,-85.16 215.82,-91.95"/>
</g>
<!-- L2N1 -->
<g id="node4" class="node">
<title>L2N1</title>
<polygon fill="white" stroke="white" points="451,-57.5 451,-172.5 641,-172.5 641,-57.5 451,-57.5"/>
<text text-anchor="middle" x="546" y="-157.3" font-family="Times,serif" font-size="14.00">N1</text>
<polyline fill="none" stroke="white" points="451,-149.5 641,-149.5 "/>
<text text-anchor="middle" x="470" y="-134.3" font-family="Times,serif" font-size="14.00">w1</text>
<polyline fill="none" stroke="white" points="489,-126.5 489,-149.5 "/>
<text text-anchor="middle" x="565" y="-134.3" font-family="Times,serif" font-size="14.00">d 0.3784 g &#45;0.7085</text>
<polyline fill="none" stroke="white" points="451,-126.5 641,-126.5 "/>
<text text-anchor="middle" x="470" y="-111.3" font-family="Times,serif" font-size="14.00">w2</text>
<polyline fill="none" stroke="white" points="489,-103.5 489,-126.5 "/>
<text text-anchor="middle" x="565" y="-111.3" font-family="Times,serif" font-size="14.00">d 2.0368 g &#45;6.0542</text>
<polyline fill="none" stroke="white" points="451,-103.5 641,-103.5 "/>
<text text-anchor="middle" x="467" y="-88.3" font-family="Times,serif" font-size="14.00">b</text>
<polyline fill="none" stroke="white" points="483,-80.5 483,-103.5 "/>
<text text-anchor="middle" x="562" y="-88.3" font-family="Times,serif" font-size="14.00">d &#45;0.4500 g 1.0000</text>
<polyline fill="none" stroke="white" points="451,-80.5 641,-80.5 "/>
<text text-anchor="middle" x="464.5" y="-65.3" font-family="Times,serif" font-size="14.00">a</text>
<polyline fill="none" stroke="white" points="478,-57.5 478,-80.5 "/>
<text text-anchor="middle" x="559.5" y="-65.3" font-family="Times,serif" font-size="14.00">d &#45;16.1622 g 0.0000</text>
</g>
<!-- L1N1&#45;&gt;L2N1 -->
<g id="edge3" class="edge">
<title>L1N1&#45;&gt;L2N1</title>
<path fill="none" stroke="black" d="M415.02,-148.65C423.63,-146.43 432.39,-144.16 441.08,-141.91"/>
<polygon fill="black" stroke="black" points="442.06,-145.27 450.86,-139.38 440.3,-138.49 442.06,-145.27"/>
</g>
<!-- L1N2&#45;&gt;L2N1 -->
<g id="edge4" class="edge">
<title>L1N2&#45;&gt;L2N1</title>
<path fill="none" stroke="black" d="M415.02,-84.25C423.63,-86.28 432.39,-88.36 441.08,-90.41"/>
<polygon fill="black" stroke="black" points="440.32,-93.83 450.86,-92.73 441.93,-87.02 440.32,-93.83"/>
</g>
<!-- lossLabel -->
<g id="node5" class="node">
<title>lossLabel</title>
<polygon fill="none" stroke="black" points="53.5,-181 53.5,-217 151.5,-217 151.5,-181 53.5,-181"/>
<text text-anchor="middle" x="102.5" y="-195.3" font-family="Times,serif" font-size="14.00">loss 301.45</text>
</g>
</g>
</svg>
