<?xml version="1.0" encoding="UTF-8" standalone="no"?>
<!DOCTYPE svg PUBLIC "-//W3C//DTD SVG 1.1//EN"
 "http://www.w3.org/Graphics/SVG/1.1/DTD/svg11.dtd">
<!-- Generated by graphviz version 2.43.0 (0)
 -->
<!-- Title: %3 Pages: 1 -->
<svg width="1571pt" height="237pt"
 viewBox="0.00 0.00 1570.79 237.00" xmlns="http://www.w3.org/2000/svg" xmlns:xlink="http://www.w3.org/1999/xlink">
<g id="graph0" class="graph" transform="scale(1 1) rotate(0) translate(4 233)">
<title>%3</title>
<polygon fill="white" stroke="transparent" points="-4,4 -4,-233 1566.79,-233 1566.79,4 -4,4"/>
<!-- 140526705146368 -->
<g id="node1" class="node">
<title>140526705146368</title>
<polygon fill="none" stroke="black" points="334.5,-27.5 334.5,-63.5 540.5,-63.5 540.5,-27.5 334.5,-27.5"/>
<text text-anchor="middle" x="385.5" y="-41.8" font-family="Times,serif" font-size="14.00">data 0.2355</text>
<polyline fill="none" stroke="black" points="436.5,-27.5 436.5,-63.5 "/>
<text text-anchor="middle" x="488.5" y="-41.8" font-family="Times,serif" font-size="14.00">grad 1.0000</text>
</g>
<!-- 140526705146128+ -->
<g id="node11" class="node">
<title>140526705146128+</title>
<ellipse fill="none" stroke="black" cx="606" cy="-100.5" rx="27" ry="18"/>
<text text-anchor="middle" x="606" y="-96.8" font-family="Times,serif" font-size="14.00">+</text>
</g>
<!-- 140526705146368&#45;&gt;140526705146128+ -->
<g id="edge9" class="edge">
<title>140526705146368&#45;&gt;140526705146128+</title>
<path fill="none" stroke="black" d="M511.44,-63.55C522.11,-66.62 532.89,-69.97 543,-73.5 553.31,-77.1 564.31,-81.65 574.14,-85.98"/>
<polygon fill="black" stroke="black" points="572.95,-89.29 583.51,-90.2 575.83,-82.9 572.95,-89.29"/>
</g>
<!-- 140526705146368* -->
<g id="node2" class="node">
<title>140526705146368*</title>
<ellipse fill="none" stroke="black" cx="269" cy="-45.5" rx="27" ry="18"/>
<text text-anchor="middle" x="269" y="-41.8" font-family="Times,serif" font-size="14.00">*</text>
</g>
<!-- 140526705146368*&#45;&gt;140526705146368 -->
<g id="edge1" class="edge">
<title>140526705146368*&#45;&gt;140526705146368</title>
<path fill="none" stroke="black" d="M296.02,-45.5C304.26,-45.5 313.96,-45.5 324.35,-45.5"/>
<polygon fill="black" stroke="black" points="324.49,-49 334.49,-45.5 324.49,-42 324.49,-49"/>
</g>
<!-- 140526705087520 -->
<g id="node3" class="node">
<title>140526705087520</title>
<polygon fill="none" stroke="black" points="1356.79,-109.5 1356.79,-145.5 1562.79,-145.5 1562.79,-109.5 1356.79,-109.5"/>
<text text-anchor="middle" x="1407.79" y="-123.8" font-family="Times,serif" font-size="14.00">data 0.1024</text>
<polyline fill="none" stroke="black" points="1458.79,-109.5 1458.79,-145.5 "/>
<text text-anchor="middle" x="1510.79" y="-123.8" font-family="Times,serif" font-size="14.00">grad 1.0000</text>
</g>
<!-- 140526705087520ReLU -->
<g id="node4" class="node">
<title>140526705087520ReLU</title>
<ellipse fill="none" stroke="black" cx="1284.4" cy="-127.5" rx="36.29" ry="18"/>
<text text-anchor="middle" x="1284.4" y="-123.8" font-family="Times,serif" font-size="14.00">ReLU</text>
</g>
<!-- 140526705087520ReLU&#45;&gt;140526705087520 -->
<g id="edge2" class="edge">
<title>140526705087520ReLU&#45;&gt;140526705087520</title>
<path fill="none" stroke="black" d="M1320.9,-127.5C1328.76,-127.5 1337.5,-127.5 1346.64,-127.5"/>
<polygon fill="black" stroke="black" points="1346.71,-131 1356.71,-127.5 1346.71,-124 1346.71,-131"/>
</g>
<!-- 140526702580768 -->
<g id="node5" class="node">
<title>140526702580768</title>
<polygon fill="none" stroke="black" points="0,-55.5 0,-91.5 206,-91.5 206,-55.5 0,-55.5"/>
<text text-anchor="middle" x="51" y="-69.8" font-family="Times,serif" font-size="14.00">data 1.0000</text>
<polyline fill="none" stroke="black" points="102,-55.5 102,-91.5 "/>
<text text-anchor="middle" x="154" y="-69.8" font-family="Times,serif" font-size="14.00">grad 0.2355</text>
</g>
<!-- 140526702580768&#45;&gt;140526705146368* -->
<g id="edge7" class="edge">
<title>140526702580768&#45;&gt;140526705146368*</title>
<path fill="none" stroke="black" d="M206.47,-56.01C215.74,-54.42 224.64,-52.9 232.65,-51.54"/>
<polygon fill="black" stroke="black" points="233.36,-54.97 242.63,-49.83 232.18,-48.07 233.36,-54.97"/>
</g>
<!-- 140526705145888 -->
<g id="node6" class="node">
<title>140526705145888</title>
<polygon fill="none" stroke="black" points="669,-137.5 669,-173.5 880,-173.5 880,-137.5 669,-137.5"/>
<text text-anchor="middle" x="722.5" y="-151.8" font-family="Times,serif" font-size="14.00">data &#45;0.1331</text>
<polyline fill="none" stroke="black" points="776,-137.5 776,-173.5 "/>
<text text-anchor="middle" x="828" y="-151.8" font-family="Times,serif" font-size="14.00">grad 1.0000</text>
</g>
<!-- 140526705087424+ -->
<g id="node15" class="node">
<title>140526705087424+</title>
<ellipse fill="none" stroke="black" cx="943" cy="-127.5" rx="27" ry="18"/>
<text text-anchor="middle" x="943" y="-123.8" font-family="Times,serif" font-size="14.00">+</text>
</g>
<!-- 140526705145888&#45;&gt;140526705087424+ -->
<g id="edge8" class="edge">
<title>140526705145888&#45;&gt;140526705087424+</title>
<path fill="none" stroke="black" d="M880,-137.93C889.45,-136.34 898.51,-134.81 906.64,-133.45"/>
<polygon fill="black" stroke="black" points="907.48,-136.86 916.76,-131.74 906.32,-129.95 907.48,-136.86"/>
</g>
<!-- 140526705145888* -->
<g id="node7" class="node">
<title>140526705145888*</title>
<ellipse fill="none" stroke="black" cx="606" cy="-155.5" rx="27" ry="18"/>
<text text-anchor="middle" x="606" y="-151.8" font-family="Times,serif" font-size="14.00">*</text>
</g>
<!-- 140526705145888*&#45;&gt;140526705145888 -->
<g id="edge3" class="edge">
<title>140526705145888*&#45;&gt;140526705145888</title>
<path fill="none" stroke="black" d="M633.02,-155.5C640.62,-155.5 649.46,-155.5 658.93,-155.5"/>
<polygon fill="black" stroke="black" points="659,-159 669,-155.5 659,-152 659,-159"/>
</g>
<!-- 140526704176832 -->
<g id="node8" class="node">
<title>140526704176832</title>
<polygon fill="none" stroke="black" points="332.5,-192.5 332.5,-228.5 542.5,-228.5 542.5,-192.5 332.5,-192.5"/>
<text text-anchor="middle" x="383.5" y="-206.8" font-family="Times,serif" font-size="14.00">data 0.0665</text>
<polyline fill="none" stroke="black" points="434.5,-192.5 434.5,-228.5 "/>
<text text-anchor="middle" x="488.5" y="-206.8" font-family="Times,serif" font-size="14.00">grad &#45;2.0000</text>
</g>
<!-- 140526704176832&#45;&gt;140526705145888* -->
<g id="edge10" class="edge">
<title>140526704176832&#45;&gt;140526705145888*</title>
<path fill="none" stroke="black" d="M514.59,-192.47C524.23,-189.71 533.9,-186.7 543,-183.5 553.55,-179.78 564.79,-174.99 574.75,-170.41"/>
<polygon fill="black" stroke="black" points="576.28,-173.56 583.85,-166.14 573.31,-167.22 576.28,-173.56"/>
</g>
<!-- 140526705147616 -->
<g id="node9" class="node">
<title>140526705147616</title>
<polygon fill="none" stroke="black" points="334.5,-82.5 334.5,-118.5 540.5,-118.5 540.5,-82.5 334.5,-82.5"/>
<text text-anchor="middle" x="385.5" y="-96.8" font-family="Times,serif" font-size="14.00">data 0.0000</text>
<polyline fill="none" stroke="black" points="436.5,-82.5 436.5,-118.5 "/>
<text text-anchor="middle" x="488.5" y="-96.8" font-family="Times,serif" font-size="14.00">grad 1.0000</text>
</g>
<!-- 140526705147616&#45;&gt;140526705146128+ -->
<g id="edge14" class="edge">
<title>140526705147616&#45;&gt;140526705146128+</title>
<path fill="none" stroke="black" d="M540.63,-100.5C550.68,-100.5 560.34,-100.5 568.99,-100.5"/>
<polygon fill="black" stroke="black" points="568.99,-104 578.99,-100.5 568.99,-97 568.99,-104"/>
</g>
<!-- 140526705146128 -->
<g id="node10" class="node">
<title>140526705146128</title>
<polygon fill="none" stroke="black" points="671.5,-82.5 671.5,-118.5 877.5,-118.5 877.5,-82.5 671.5,-82.5"/>
<text text-anchor="middle" x="722.5" y="-96.8" font-family="Times,serif" font-size="14.00">data 0.2355</text>
<polyline fill="none" stroke="black" points="773.5,-82.5 773.5,-118.5 "/>
<text text-anchor="middle" x="825.5" y="-96.8" font-family="Times,serif" font-size="14.00">grad 1.0000</text>
</g>
<!-- 140526705146128&#45;&gt;140526705087424+ -->
<g id="edge11" class="edge">
<title>140526705146128&#45;&gt;140526705087424+</title>
<path fill="none" stroke="black" d="M877.63,-117.06C887.87,-118.72 897.71,-120.32 906.48,-121.74"/>
<polygon fill="black" stroke="black" points="906.17,-125.24 916.6,-123.38 907.29,-118.33 906.17,-125.24"/>
</g>
<!-- 140526705146128+&#45;&gt;140526705146128 -->
<g id="edge4" class="edge">
<title>140526705146128+&#45;&gt;140526705146128</title>
<path fill="none" stroke="black" d="M633.02,-100.5C641.26,-100.5 650.96,-100.5 661.35,-100.5"/>
<polygon fill="black" stroke="black" points="661.49,-104 671.49,-100.5 661.49,-97 661.49,-104"/>
</g>
<!-- 140526704170304 -->
<g id="node12" class="node">
<title>140526704170304</title>
<polygon fill="none" stroke="black" points="332,-137.5 332,-173.5 543,-173.5 543,-137.5 332,-137.5"/>
<text text-anchor="middle" x="385.5" y="-151.8" font-family="Times,serif" font-size="14.00">data &#45;2.0000</text>
<polyline fill="none" stroke="black" points="439,-137.5 439,-173.5 "/>
<text text-anchor="middle" x="491" y="-151.8" font-family="Times,serif" font-size="14.00">grad 0.0665</text>
</g>
<!-- 140526704170304&#45;&gt;140526705145888* -->
<g id="edge13" class="edge">
<title>140526704170304&#45;&gt;140526705145888*</title>
<path fill="none" stroke="black" d="M543,-155.5C552.08,-155.5 560.79,-155.5 568.67,-155.5"/>
<polygon fill="black" stroke="black" points="568.85,-159 578.85,-155.5 568.85,-152 568.85,-159"/>
</g>
<!-- 140526702591328 -->
<g id="node13" class="node">
<title>140526702591328</title>
<polygon fill="none" stroke="black" points="0,-0.5 0,-36.5 206,-36.5 206,-0.5 0,-0.5"/>
<text text-anchor="middle" x="51" y="-14.8" font-family="Times,serif" font-size="14.00">data 0.2355</text>
<polyline fill="none" stroke="black" points="102,-0.5 102,-36.5 "/>
<text text-anchor="middle" x="154" y="-14.8" font-family="Times,serif" font-size="14.00">grad 1.0000</text>
</g>
<!-- 140526702591328&#45;&gt;140526705146368* -->
<g id="edge12" class="edge">
<title>140526702591328&#45;&gt;140526705146368*</title>
<path fill="none" stroke="black" d="M206.47,-35.37C215.74,-36.9 224.64,-38.36 232.65,-39.68"/>
<polygon fill="black" stroke="black" points="232.19,-43.15 242.63,-41.32 233.33,-36.24 232.19,-43.15"/>
</g>
<!-- 140526705087424 -->
<g id="node14" class="node">
<title>140526705087424</title>
<polygon fill="none" stroke="black" points="1006,-109.5 1006,-145.5 1212,-145.5 1212,-109.5 1006,-109.5"/>
<text text-anchor="middle" x="1057" y="-123.8" font-family="Times,serif" font-size="14.00">data 0.1024</text>
<polyline fill="none" stroke="black" points="1108,-109.5 1108,-145.5 "/>
<text text-anchor="middle" x="1160" y="-123.8" font-family="Times,serif" font-size="14.00">grad 1.0000</text>
</g>
<!-- 140526705087424&#45;&gt;140526705087520ReLU -->
<g id="edge6" class="edge">
<title>140526705087424&#45;&gt;140526705087520ReLU</title>
<path fill="none" stroke="black" d="M1212.12,-127.5C1221.01,-127.5 1229.68,-127.5 1237.74,-127.5"/>
<polygon fill="black" stroke="black" points="1237.95,-131 1247.95,-127.5 1237.95,-124 1237.95,-131"/>
</g>
<!-- 140526705087424+&#45;&gt;140526705087424 -->
<g id="edge5" class="edge">
<title>140526705087424+&#45;&gt;140526705087424</title>
<path fill="none" stroke="black" d="M970.35,-127.5C977.8,-127.5 986.4,-127.5 995.61,-127.5"/>
<polygon fill="black" stroke="black" points="995.8,-131 1005.8,-127.5 995.8,-124 995.8,-131"/>
</g>
</g>
</svg>
