<?xml version="1.0" encoding="UTF-8" standalone="no"?>
<!DOCTYPE svg PUBLIC "-//W3C//DTD SVG 1.1//EN"
 "http://www.w3.org/Graphics/SVG/1.1/DTD/svg11.dtd">
<!-- Generated by graphviz version 2.43.0 (0)
 -->
<!-- Title: %3 Pages: 1 -->
<svg width="907pt" height="765pt"
 viewBox="0.00 0.00 907.00 765.00" xmlns="http://www.w3.org/2000/svg" xmlns:xlink="http://www.w3.org/1999/xlink">
<g id="graph0" class="graph" transform="scale(1 1) rotate(0) translate(4 761)">
<title>%3</title>
<polygon fill="white" stroke="transparent" points="-4,4 -4,-761 903,-761 903,4 -4,4"/>
<g id="clust1" class="cluster">
<title>cluster_I</title>
<polygon fill="lightgrey" stroke="lightgrey" points="8,-270 8,-486 201,-486 201,-270 8,-270"/>
<text text-anchor="middle" x="104.5" y="-470.8" font-family="Times,serif" font-size="14.00">I</text>
</g>
<g id="clust2" class="cluster">
<title>cluster_L1</title>
<polygon fill="lightgrey" stroke="lightgrey" points="221,-53 221,-703 431,-703 431,-53 221,-53"/>
<text text-anchor="middle" x="326" y="-687.8" font-family="Times,serif" font-size="14.00">L1</text>
</g>
<g id="clust3" class="cluster">
<title>cluster_L2</title>
<polygon fill="lightgrey" stroke="lightgrey" points="451,-8 451,-749 661,-749 661,-8 451,-8"/>
<text text-anchor="middle" x="556" y="-733.8" font-family="Times,serif" font-size="14.00">L2</text>
</g>
<g id="clust4" class="cluster">
<title>cluster_O</title>
<polygon fill="lightgrey" stroke="lightgrey" points="681,-278 681,-479 891,-479 891,-278 681,-278"/>
<text text-anchor="middle" x="786" y="-463.8" font-family="Times,serif" font-size="14.00">O</text>
</g>
<!-- i1 -->
<g id="node1" class="node">
<title>i1</title>
<polygon fill="white" stroke="white" points="20.5,-343 20.5,-389 188.5,-389 188.5,-343 20.5,-343"/>
<text text-anchor="middle" x="104.5" y="-373.8" font-family="Times,serif" font-size="14.00">i1</text>
<polyline fill="none" stroke="white" points="20.5,-366 188.5,-366 "/>
<text text-anchor="middle" x="31" y="-350.8" font-family="Times,serif" font-size="14.00">i</text>
<polyline fill="none" stroke="white" points="41.5,-343 41.5,-366 "/>
<text text-anchor="middle" x="115" y="-350.8" font-family="Times,serif" font-size="14.00">d 1.0000 g 5.5350</text>
</g>
<!-- L1N1 -->
<g id="node4" class="node">
<title>L1N1</title>
<polygon fill="white" stroke="white" points="233.5,-533 233.5,-671 418.5,-671 418.5,-533 233.5,-533"/>
<text text-anchor="middle" x="326" y="-655.8" font-family="Times,serif" font-size="14.00">N1</text>
<polyline fill="none" stroke="white" points="233.5,-648 418.5,-648 "/>
<text text-anchor="middle" x="252.5" y="-632.8" font-family="Times,serif" font-size="14.00">w1</text>
<polyline fill="none" stroke="white" points="271.5,-625 271.5,-648 "/>
<text text-anchor="middle" x="345" y="-632.8" font-family="Times,serif" font-size="14.00">d 0.5000 g 1.2300</text>
<polyline fill="none" stroke="white" points="233.5,-625 418.5,-625 "/>
<text text-anchor="middle" x="252.5" y="-609.8" font-family="Times,serif" font-size="14.00">w2</text>
<polyline fill="none" stroke="white" points="271.5,-602 271.5,-625 "/>
<text text-anchor="middle" x="345" y="-609.8" font-family="Times,serif" font-size="14.00">d 1.0000 g 2.4600</text>
<polyline fill="none" stroke="white" points="233.5,-602 418.5,-602 "/>
<text text-anchor="middle" x="252.5" y="-586.8" font-family="Times,serif" font-size="14.00">w3</text>
<polyline fill="none" stroke="white" points="271.5,-579 271.5,-602 "/>
<text text-anchor="middle" x="345" y="-586.8" font-family="Times,serif" font-size="14.00">d 1.5000 g 3.6900</text>
<polyline fill="none" stroke="white" points="233.5,-579 418.5,-579 "/>
<text text-anchor="middle" x="249.5" y="-563.8" font-family="Times,serif" font-size="14.00">b</text>
<polyline fill="none" stroke="white" points="265.5,-556 265.5,-579 "/>
<text text-anchor="middle" x="342" y="-563.8" font-family="Times,serif" font-size="14.00">d 0.0000 g 1.2300</text>
<polyline fill="none" stroke="white" points="233.5,-556 418.5,-556 "/>
<text text-anchor="middle" x="249" y="-540.8" font-family="Times,serif" font-size="14.00">a</text>
<polyline fill="none" stroke="white" points="264.5,-533 264.5,-556 "/>
<text text-anchor="middle" x="341.5" y="-540.8" font-family="Times,serif" font-size="14.00">d 7.0000 g 1.2300</text>
</g>
<!-- i1&#45;&gt;L1N1 -->
<g id="edge1" class="edge">
<title>i1&#45;&gt;L1N1</title>
<path fill="none" stroke="black" d="M188.61,-387.71C193.19,-390.96 197.39,-394.7 201,-399 237.18,-442.09 191.93,-475.83 221,-524 222.83,-527.04 224.84,-530 226.98,-532.88"/>
<polygon fill="black" stroke="black" points="224.35,-535.2 233.36,-540.78 229.79,-530.8 224.35,-535.2"/>
</g>
<!-- L1N2 -->
<g id="node5" class="node">
<title>L1N2</title>
<polygon fill="white" stroke="white" points="233.5,-376 233.5,-514 418.5,-514 418.5,-376 233.5,-376"/>
<text text-anchor="middle" x="326" y="-498.8" font-family="Times,serif" font-size="14.00">N2</text>
<polyline fill="none" stroke="white" points="233.5,-491 418.5,-491 "/>
<text text-anchor="middle" x="252.5" y="-475.8" font-family="Times,serif" font-size="14.00">w1</text>
<polyline fill="none" stroke="white" points="271.5,-468 271.5,-491 "/>
<text text-anchor="middle" x="345" y="-475.8" font-family="Times,serif" font-size="14.00">d 0.5000 g 2.4600</text>
<polyline fill="none" stroke="white" points="233.5,-468 418.5,-468 "/>
<text text-anchor="middle" x="252.5" y="-452.8" font-family="Times,serif" font-size="14.00">w2</text>
<polyline fill="none" stroke="white" points="271.5,-445 271.5,-468 "/>
<text text-anchor="middle" x="345" y="-452.8" font-family="Times,serif" font-size="14.00">d 1.0000 g 4.9200</text>
<polyline fill="none" stroke="white" points="233.5,-445 418.5,-445 "/>
<text text-anchor="middle" x="252.5" y="-429.8" font-family="Times,serif" font-size="14.00">w3</text>
<polyline fill="none" stroke="white" points="271.5,-422 271.5,-445 "/>
<text text-anchor="middle" x="345" y="-429.8" font-family="Times,serif" font-size="14.00">d 1.5000 g 7.3800</text>
<polyline fill="none" stroke="white" points="233.5,-422 418.5,-422 "/>
<text text-anchor="middle" x="249.5" y="-406.8" font-family="Times,serif" font-size="14.00">b</text>
<polyline fill="none" stroke="white" points="265.5,-399 265.5,-422 "/>
<text text-anchor="middle" x="342" y="-406.8" font-family="Times,serif" font-size="14.00">d 0.0000 g 2.4600</text>
<polyline fill="none" stroke="white" points="233.5,-399 418.5,-399 "/>
<text text-anchor="middle" x="249" y="-383.8" font-family="Times,serif" font-size="14.00">a</text>
<polyline fill="none" stroke="white" points="264.5,-376 264.5,-399 "/>
<text text-anchor="middle" x="341.5" y="-383.8" font-family="Times,serif" font-size="14.00">d 7.0000 g 2.4600</text>
</g>
<!-- i1&#45;&gt;L1N2 -->
<g id="edge2" class="edge">
<title>i1&#45;&gt;L1N2</title>
<path fill="none" stroke="black" d="M172.87,-389.07C182.33,-392.37 191.92,-395.75 201,-399 208.45,-401.67 216.15,-404.46 223.89,-407.28"/>
<polygon fill="black" stroke="black" points="222.74,-410.58 233.33,-410.73 225.14,-404.01 222.74,-410.58"/>
</g>
<!-- L1N3 -->
<g id="node6" class="node">
<title>L1N3</title>
<polygon fill="white" stroke="white" points="229,-219 229,-357 423,-357 423,-219 229,-219"/>
<text text-anchor="middle" x="326" y="-341.8" font-family="Times,serif" font-size="14.00">N3</text>
<polyline fill="none" stroke="white" points="229,-334 423,-334 "/>
<text text-anchor="middle" x="250" y="-318.8" font-family="Times,serif" font-size="14.00">w1</text>
<polyline fill="none" stroke="white" points="271,-311 271,-334 "/>
<text text-anchor="middle" x="347" y="-318.8" font-family="Times,serif" font-size="14.00">d 0.6000 g 3.6900</text>
<polyline fill="none" stroke="white" points="229,-311 423,-311 "/>
<text text-anchor="middle" x="250" y="-295.8" font-family="Times,serif" font-size="14.00">w2</text>
<polyline fill="none" stroke="white" points="271,-288 271,-311 "/>
<text text-anchor="middle" x="347" y="-295.8" font-family="Times,serif" font-size="14.00">d 1.2000 g 7.3800</text>
<polyline fill="none" stroke="white" points="229,-288 423,-288 "/>
<text text-anchor="middle" x="248" y="-272.8" font-family="Times,serif" font-size="14.00">w3</text>
<polyline fill="none" stroke="white" points="267,-265 267,-288 "/>
<text text-anchor="middle" x="345" y="-272.8" font-family="Times,serif" font-size="14.00">d 1.8000 g 11.0700</text>
<polyline fill="none" stroke="white" points="229,-265 423,-265 "/>
<text text-anchor="middle" x="247" y="-249.8" font-family="Times,serif" font-size="14.00">b</text>
<polyline fill="none" stroke="white" points="265,-242 265,-265 "/>
<text text-anchor="middle" x="344" y="-249.8" font-family="Times,serif" font-size="14.00">d 0.0000 g 3.6900</text>
<polyline fill="none" stroke="white" points="229,-242 423,-242 "/>
<text text-anchor="middle" x="247" y="-226.8" font-family="Times,serif" font-size="14.00">a</text>
<polyline fill="none" stroke="white" points="265,-219 265,-242 "/>
<text text-anchor="middle" x="344" y="-226.8" font-family="Times,serif" font-size="14.00">d 8.4000 g 3.6900</text>
</g>
<!-- i1&#45;&gt;L1N3 -->
<g id="edge3" class="edge">
<title>i1&#45;&gt;L1N3</title>
<path fill="none" stroke="black" d="M175.22,-342.93C183.91,-339.96 192.67,-336.94 201,-334 206.97,-331.89 213.09,-329.71 219.26,-327.48"/>
<polygon fill="black" stroke="black" points="220.77,-330.66 228.98,-323.96 218.39,-324.08 220.77,-330.66"/>
</g>
<!-- L1N4 -->
<g id="node7" class="node">
<title>L1N4</title>
<polygon fill="white" stroke="white" points="229,-62 229,-200 423,-200 423,-62 229,-62"/>
<text text-anchor="middle" x="326" y="-184.8" font-family="Times,serif" font-size="14.00">N4</text>
<polyline fill="none" stroke="white" points="229,-177 423,-177 "/>
<text text-anchor="middle" x="250" y="-161.8" font-family="Times,serif" font-size="14.00">w1</text>
<polyline fill="none" stroke="white" points="271,-154 271,-177 "/>
<text text-anchor="middle" x="347" y="-161.8" font-family="Times,serif" font-size="14.00">d 0.3000 g 4.9200</text>
<polyline fill="none" stroke="white" points="229,-154 423,-154 "/>
<text text-anchor="middle" x="250" y="-138.8" font-family="Times,serif" font-size="14.00">w2</text>
<polyline fill="none" stroke="white" points="271,-131 271,-154 "/>
<text text-anchor="middle" x="347" y="-138.8" font-family="Times,serif" font-size="14.00">d 0.6000 g 9.8400</text>
<polyline fill="none" stroke="white" points="229,-131 423,-131 "/>
<text text-anchor="middle" x="248" y="-115.8" font-family="Times,serif" font-size="14.00">w3</text>
<polyline fill="none" stroke="white" points="267,-108 267,-131 "/>
<text text-anchor="middle" x="345" y="-115.8" font-family="Times,serif" font-size="14.00">d 0.9000 g 14.7600</text>
<polyline fill="none" stroke="white" points="229,-108 423,-108 "/>
<text text-anchor="middle" x="247" y="-92.8" font-family="Times,serif" font-size="14.00">b</text>
<polyline fill="none" stroke="white" points="265,-85 265,-108 "/>
<text text-anchor="middle" x="344" y="-92.8" font-family="Times,serif" font-size="14.00">d 0.0000 g 4.9200</text>
<polyline fill="none" stroke="white" points="229,-85 423,-85 "/>
<text text-anchor="middle" x="247" y="-69.8" font-family="Times,serif" font-size="14.00">a</text>
<polyline fill="none" stroke="white" points="265,-62 265,-85 "/>
<text text-anchor="middle" x="344" y="-69.8" font-family="Times,serif" font-size="14.00">d 4.2000 g 4.9200</text>
</g>
<!-- i1&#45;&gt;L1N4 -->
<g id="edge4" class="edge">
<title>i1&#45;&gt;L1N4</title>
<path fill="none" stroke="black" d="M188.58,-345.17C193.17,-341.97 197.38,-338.27 201,-334 237.12,-291.44 192.27,-257.86 221,-210 221.67,-208.88 222.37,-207.77 223.08,-206.67"/>
<polygon fill="black" stroke="black" points="226,-208.61 228.97,-198.44 220.3,-204.54 226,-208.61"/>
</g>
<!-- i2 -->
<g id="node2" class="node">
<title>i2</title>
<polygon fill="white" stroke="white" points="16,-278 16,-324 193,-324 193,-278 16,-278"/>
<text text-anchor="middle" x="104.5" y="-308.8" font-family="Times,serif" font-size="14.00">i2</text>
<polyline fill="none" stroke="white" points="16,-301 193,-301 "/>
<text text-anchor="middle" x="26.5" y="-285.8" font-family="Times,serif" font-size="14.00">i</text>
<polyline fill="none" stroke="white" points="37,-278 37,-301 "/>
<text text-anchor="middle" x="115" y="-285.8" font-family="Times,serif" font-size="14.00">d 2.0000 g 11.0700</text>
</g>
<!-- i2&#45;&gt;L1N1 -->
<g id="edge5" class="edge">
<title>i2&#45;&gt;L1N1</title>
<path fill="none" stroke="black" d="M190.96,-324.07C194.67,-327 198.05,-330.29 201,-334 253.83,-400.48 179.1,-450.15 221,-524 222.86,-527.28 224.93,-530.47 227.16,-533.56"/>
<polygon fill="black" stroke="black" points="224.49,-535.83 233.43,-541.52 229.99,-531.5 224.49,-535.83"/>
</g>
<!-- i2&#45;&gt;L1N2 -->
<g id="edge6" class="edge">
<title>i2&#45;&gt;L1N2</title>
<path fill="none" stroke="black" d="M186.4,-324.22C191.57,-327.12 196.5,-330.36 201,-334 214.34,-344.77 209.49,-354.29 221,-367 222.57,-368.73 224.18,-370.45 225.83,-372.16"/>
<polygon fill="black" stroke="black" points="223.72,-374.99 233.29,-379.54 228.64,-370.02 223.72,-374.99"/>
</g>
<!-- i2&#45;&gt;L1N3 -->
<g id="edge7" class="edge">
<title>i2&#45;&gt;L1N3</title>
<path fill="none" stroke="black" d="M193.2,-295.81C201.61,-295.31 210.2,-294.8 218.76,-294.29"/>
<polygon fill="black" stroke="black" points="219.01,-297.78 228.79,-293.7 218.6,-290.8 219.01,-297.78"/>
</g>
<!-- i2&#45;&gt;L1N4 -->
<g id="edge8" class="edge">
<title>i2&#45;&gt;L1N4</title>
<path fill="none" stroke="black" d="M134.82,-277.67C158.1,-259.2 191.52,-232.81 221,-210 222.58,-208.78 224.18,-207.55 225.78,-206.31"/>
<polygon fill="black" stroke="black" points="228.11,-208.93 233.9,-200.06 223.84,-203.38 228.11,-208.93"/>
</g>
<!-- i3 -->
<g id="node3" class="node">
<title>i3</title>
<polygon fill="white" stroke="white" points="16,-408 16,-454 193,-454 193,-408 16,-408"/>
<text text-anchor="middle" x="104.5" y="-438.8" font-family="Times,serif" font-size="14.00">i3</text>
<polyline fill="none" stroke="white" points="16,-431 193,-431 "/>
<text text-anchor="middle" x="26.5" y="-415.8" font-family="Times,serif" font-size="14.00">i</text>
<polyline fill="none" stroke="white" points="37,-408 37,-431 "/>
<text text-anchor="middle" x="115" y="-415.8" font-family="Times,serif" font-size="14.00">d 3.0000 g 16.6050</text>
</g>
<!-- i3&#45;&gt;L1N1 -->
<g id="edge9" class="edge">
<title>i3&#45;&gt;L1N1</title>
<path fill="none" stroke="black" d="M133.76,-454.21C157.01,-473.19 190.92,-500.62 221,-524 222.38,-525.07 223.77,-526.15 225.17,-527.23"/>
<polygon fill="black" stroke="black" points="223.22,-530.15 233.28,-533.48 227.49,-524.6 223.22,-530.15"/>
</g>
<!-- i3&#45;&gt;L1N2 -->
<g id="edge10" class="edge">
<title>i3&#45;&gt;L1N2</title>
<path fill="none" stroke="black" d="M193.2,-436.59C203.14,-437.23 213.33,-437.88 223.43,-438.52"/>
<polygon fill="black" stroke="black" points="223.29,-442.02 233.49,-439.16 223.73,-435.03 223.29,-442.02"/>
</g>
<!-- i3&#45;&gt;L1N3 -->
<g id="edge11" class="edge">
<title>i3&#45;&gt;L1N3</title>
<path fill="none" stroke="black" d="M187.74,-407.81C192.42,-405.17 196.88,-402.25 201,-399 214.17,-388.61 209.69,-379.39 221,-367 221.76,-366.16 222.54,-365.33 223.32,-364.5"/>
<polygon fill="black" stroke="black" points="226.09,-366.68 230.6,-357.09 221.09,-361.77 226.09,-366.68"/>
</g>
<!-- i3&#45;&gt;L1N4 -->
<g id="edge12" class="edge">
<title>i3&#45;&gt;L1N4</title>
<path fill="none" stroke="black" d="M192.17,-407.85C195.4,-405.21 198.37,-402.27 201,-399 253.88,-333.13 179.52,-283.58 221,-210 221.66,-208.83 222.34,-207.68 223.05,-206.54"/>
<polygon fill="black" stroke="black" points="226.13,-208.23 228.9,-198.01 220.35,-204.27 226.13,-208.23"/>
</g>
<!-- L2N1 -->
<g id="node8" class="node">
<title>L2N1</title>
<polygon fill="white" stroke="white" points="463.5,-556.5 463.5,-717.5 648.5,-717.5 648.5,-556.5 463.5,-556.5"/>
<text text-anchor="middle" x="556" y="-702.3" font-family="Times,serif" font-size="14.00">N1</text>
<polyline fill="none" stroke="white" points="463.5,-694.5 648.5,-694.5 "/>
<text text-anchor="middle" x="482.5" y="-679.3" font-family="Times,serif" font-size="14.00">w1</text>
<polyline fill="none" stroke="white" points="501.5,-671.5 501.5,-694.5 "/>
<text text-anchor="middle" x="575" y="-679.3" font-family="Times,serif" font-size="14.00">d 0.5000 g 2.1000</text>
<polyline fill="none" stroke="white" points="463.5,-671.5 648.5,-671.5 "/>
<text text-anchor="middle" x="482.5" y="-656.3" font-family="Times,serif" font-size="14.00">w2</text>
<polyline fill="none" stroke="white" points="501.5,-648.5 501.5,-671.5 "/>
<text text-anchor="middle" x="575" y="-656.3" font-family="Times,serif" font-size="14.00">d 1.0000 g 2.1000</text>
<polyline fill="none" stroke="white" points="463.5,-648.5 648.5,-648.5 "/>
<text text-anchor="middle" x="482.5" y="-633.3" font-family="Times,serif" font-size="14.00">w3</text>
<polyline fill="none" stroke="white" points="501.5,-625.5 501.5,-648.5 "/>
<text text-anchor="middle" x="575" y="-633.3" font-family="Times,serif" font-size="14.00">d 1.5000 g 2.5200</text>
<polyline fill="none" stroke="white" points="463.5,-625.5 648.5,-625.5 "/>
<text text-anchor="middle" x="482.5" y="-610.3" font-family="Times,serif" font-size="14.00">w4</text>
<polyline fill="none" stroke="white" points="501.5,-602.5 501.5,-625.5 "/>
<text text-anchor="middle" x="575" y="-610.3" font-family="Times,serif" font-size="14.00">d 2.0000 g 1.2600</text>
<polyline fill="none" stroke="white" points="463.5,-602.5 648.5,-602.5 "/>
<text text-anchor="middle" x="479.5" y="-587.3" font-family="Times,serif" font-size="14.00">b</text>
<polyline fill="none" stroke="white" points="495.5,-579.5 495.5,-602.5 "/>
<text text-anchor="middle" x="572" y="-587.3" font-family="Times,serif" font-size="14.00">d 0.0000 g 0.3000</text>
<polyline fill="none" stroke="white" points="463.5,-579.5 648.5,-579.5 "/>
<text text-anchor="middle" x="477" y="-564.3" font-family="Times,serif" font-size="14.00">a</text>
<polyline fill="none" stroke="white" points="490.5,-556.5 490.5,-579.5 "/>
<text text-anchor="middle" x="569.5" y="-564.3" font-family="Times,serif" font-size="14.00">d 31.5000 g 0.3000</text>
</g>
<!-- L1N1&#45;&gt;L2N1 -->
<g id="edge13" class="edge">
<title>L1N1&#45;&gt;L2N1</title>
<path fill="none" stroke="black" d="M418.75,-616.08C430.14,-617.83 441.84,-619.63 453.36,-621.4"/>
<polygon fill="black" stroke="black" points="453.02,-624.89 463.44,-622.94 454.08,-617.97 453.02,-624.89"/>
</g>
<!-- L2N2 -->
<g id="node9" class="node">
<title>L2N2</title>
<polygon fill="white" stroke="white" points="463.5,-376.5 463.5,-537.5 648.5,-537.5 648.5,-376.5 463.5,-376.5"/>
<text text-anchor="middle" x="556" y="-522.3" font-family="Times,serif" font-size="14.00">N2</text>
<polyline fill="none" stroke="white" points="463.5,-514.5 648.5,-514.5 "/>
<text text-anchor="middle" x="482.5" y="-499.3" font-family="Times,serif" font-size="14.00">w1</text>
<polyline fill="none" stroke="white" points="501.5,-491.5 501.5,-514.5 "/>
<text text-anchor="middle" x="575" y="-499.3" font-family="Times,serif" font-size="14.00">d 0.5000 g 4.2000</text>
<polyline fill="none" stroke="white" points="463.5,-491.5 648.5,-491.5 "/>
<text text-anchor="middle" x="482.5" y="-476.3" font-family="Times,serif" font-size="14.00">w2</text>
<polyline fill="none" stroke="white" points="501.5,-468.5 501.5,-491.5 "/>
<text text-anchor="middle" x="575" y="-476.3" font-family="Times,serif" font-size="14.00">d 1.0000 g 4.2000</text>
<polyline fill="none" stroke="white" points="463.5,-468.5 648.5,-468.5 "/>
<text text-anchor="middle" x="482.5" y="-453.3" font-family="Times,serif" font-size="14.00">w3</text>
<polyline fill="none" stroke="white" points="501.5,-445.5 501.5,-468.5 "/>
<text text-anchor="middle" x="575" y="-453.3" font-family="Times,serif" font-size="14.00">d 1.5000 g 5.0400</text>
<polyline fill="none" stroke="white" points="463.5,-445.5 648.5,-445.5 "/>
<text text-anchor="middle" x="482.5" y="-430.3" font-family="Times,serif" font-size="14.00">w4</text>
<polyline fill="none" stroke="white" points="501.5,-422.5 501.5,-445.5 "/>
<text text-anchor="middle" x="575" y="-430.3" font-family="Times,serif" font-size="14.00">d 2.0000 g 2.5200</text>
<polyline fill="none" stroke="white" points="463.5,-422.5 648.5,-422.5 "/>
<text text-anchor="middle" x="479.5" y="-407.3" font-family="Times,serif" font-size="14.00">b</text>
<polyline fill="none" stroke="white" points="495.5,-399.5 495.5,-422.5 "/>
<text text-anchor="middle" x="572" y="-407.3" font-family="Times,serif" font-size="14.00">d 0.0000 g 0.6000</text>
<polyline fill="none" stroke="white" points="463.5,-399.5 648.5,-399.5 "/>
<text text-anchor="middle" x="477" y="-384.3" font-family="Times,serif" font-size="14.00">a</text>
<polyline fill="none" stroke="white" points="490.5,-376.5 490.5,-399.5 "/>
<text text-anchor="middle" x="569.5" y="-384.3" font-family="Times,serif" font-size="14.00">d 31.5000 g 0.6000</text>
</g>
<!-- L1N1&#45;&gt;L2N2 -->
<g id="edge14" class="edge">
<title>L1N1&#45;&gt;L2N2</title>
<path fill="none" stroke="black" d="M418.75,-543.65C430.6,-536.11 442.78,-528.37 454.76,-520.75"/>
<polygon fill="black" stroke="black" points="456.88,-523.55 463.44,-515.23 453.12,-517.64 456.88,-523.55"/>
</g>
<!-- L2N3 -->
<g id="node10" class="node">
<title>L2N3</title>
<polygon fill="white" stroke="white" points="463.5,-196.5 463.5,-357.5 648.5,-357.5 648.5,-196.5 463.5,-196.5"/>
<text text-anchor="middle" x="556" y="-342.3" font-family="Times,serif" font-size="14.00">N3</text>
<polyline fill="none" stroke="white" points="463.5,-334.5 648.5,-334.5 "/>
<text text-anchor="middle" x="482.5" y="-319.3" font-family="Times,serif" font-size="14.00">w1</text>
<polyline fill="none" stroke="white" points="501.5,-311.5 501.5,-334.5 "/>
<text text-anchor="middle" x="575" y="-319.3" font-family="Times,serif" font-size="14.00">d 0.6000 g 6.3000</text>
<polyline fill="none" stroke="white" points="463.5,-311.5 648.5,-311.5 "/>
<text text-anchor="middle" x="482.5" y="-296.3" font-family="Times,serif" font-size="14.00">w2</text>
<polyline fill="none" stroke="white" points="501.5,-288.5 501.5,-311.5 "/>
<text text-anchor="middle" x="575" y="-296.3" font-family="Times,serif" font-size="14.00">d 1.2000 g 6.3000</text>
<polyline fill="none" stroke="white" points="463.5,-288.5 648.5,-288.5 "/>
<text text-anchor="middle" x="482.5" y="-273.3" font-family="Times,serif" font-size="14.00">w3</text>
<polyline fill="none" stroke="white" points="501.5,-265.5 501.5,-288.5 "/>
<text text-anchor="middle" x="575" y="-273.3" font-family="Times,serif" font-size="14.00">d 1.8000 g 7.5600</text>
<polyline fill="none" stroke="white" points="463.5,-265.5 648.5,-265.5 "/>
<text text-anchor="middle" x="482.5" y="-250.3" font-family="Times,serif" font-size="14.00">w4</text>
<polyline fill="none" stroke="white" points="501.5,-242.5 501.5,-265.5 "/>
<text text-anchor="middle" x="575" y="-250.3" font-family="Times,serif" font-size="14.00">d 2.4000 g 3.7800</text>
<polyline fill="none" stroke="white" points="463.5,-242.5 648.5,-242.5 "/>
<text text-anchor="middle" x="479.5" y="-227.3" font-family="Times,serif" font-size="14.00">b</text>
<polyline fill="none" stroke="white" points="495.5,-219.5 495.5,-242.5 "/>
<text text-anchor="middle" x="572" y="-227.3" font-family="Times,serif" font-size="14.00">d 0.0000 g 0.9000</text>
<polyline fill="none" stroke="white" points="463.5,-219.5 648.5,-219.5 "/>
<text text-anchor="middle" x="477" y="-204.3" font-family="Times,serif" font-size="14.00">a</text>
<polyline fill="none" stroke="white" points="490.5,-196.5 490.5,-219.5 "/>
<text text-anchor="middle" x="569.5" y="-204.3" font-family="Times,serif" font-size="14.00">d 37.8000 g 0.9000</text>
</g>
<!-- L1N1&#45;&gt;L2N3 -->
<g id="edge15" class="edge">
<title>L1N1&#45;&gt;L2N3</title>
<path fill="none" stroke="black" d="M418.64,-541.17C423.29,-535.77 427.48,-530.05 431,-524 466.38,-463.2 417.77,-429 451,-367 452.91,-363.43 455.03,-359.94 457.31,-356.54"/>
<polygon fill="black" stroke="black" points="460.28,-358.4 463.31,-348.24 454.61,-354.29 460.28,-358.4"/>
</g>
<!-- L2N4 -->
<g id="node11" class="node">
<title>L2N4</title>
<polygon fill="white" stroke="white" points="459,-16.5 459,-177.5 653,-177.5 653,-16.5 459,-16.5"/>
<text text-anchor="middle" x="556" y="-162.3" font-family="Times,serif" font-size="14.00">N4</text>
<polyline fill="none" stroke="white" points="459,-154.5 653,-154.5 "/>
<text text-anchor="middle" x="480" y="-139.3" font-family="Times,serif" font-size="14.00">w1</text>
<polyline fill="none" stroke="white" points="501,-131.5 501,-154.5 "/>
<text text-anchor="middle" x="577" y="-139.3" font-family="Times,serif" font-size="14.00">d 0.2000 g 8.4000</text>
<polyline fill="none" stroke="white" points="459,-131.5 653,-131.5 "/>
<text text-anchor="middle" x="480" y="-116.3" font-family="Times,serif" font-size="14.00">w2</text>
<polyline fill="none" stroke="white" points="501,-108.5 501,-131.5 "/>
<text text-anchor="middle" x="577" y="-116.3" font-family="Times,serif" font-size="14.00">d 0.4000 g 8.4000</text>
<polyline fill="none" stroke="white" points="459,-108.5 653,-108.5 "/>
<text text-anchor="middle" x="478" y="-93.3" font-family="Times,serif" font-size="14.00">w3</text>
<polyline fill="none" stroke="white" points="497,-85.5 497,-108.5 "/>
<text text-anchor="middle" x="575" y="-93.3" font-family="Times,serif" font-size="14.00">d 0.6000 g 10.0800</text>
<polyline fill="none" stroke="white" points="459,-85.5 653,-85.5 "/>
<text text-anchor="middle" x="480" y="-70.3" font-family="Times,serif" font-size="14.00">w4</text>
<polyline fill="none" stroke="white" points="501,-62.5 501,-85.5 "/>
<text text-anchor="middle" x="577" y="-70.3" font-family="Times,serif" font-size="14.00">d 0.8000 g 5.0400</text>
<polyline fill="none" stroke="white" points="459,-62.5 653,-62.5 "/>
<text text-anchor="middle" x="477" y="-47.3" font-family="Times,serif" font-size="14.00">b</text>
<polyline fill="none" stroke="white" points="495,-39.5 495,-62.5 "/>
<text text-anchor="middle" x="574" y="-47.3" font-family="Times,serif" font-size="14.00">d 0.0000 g 1.2000</text>
<polyline fill="none" stroke="white" points="459,-39.5 653,-39.5 "/>
<text text-anchor="middle" x="474.5" y="-24.3" font-family="Times,serif" font-size="14.00">a</text>
<polyline fill="none" stroke="white" points="490,-16.5 490,-39.5 "/>
<text text-anchor="middle" x="571.5" y="-24.3" font-family="Times,serif" font-size="14.00">d 12.6000 g 1.2000</text>
</g>
<!-- L1N1&#45;&gt;L2N4 -->
<g id="edge16" class="edge">
<title>L1N1&#45;&gt;L2N4</title>
<path fill="none" stroke="black" d="M418.68,-541.96C423.39,-536.35 427.58,-530.36 431,-524 466.52,-457.92 417.81,-254.28 451,-187 451.8,-185.38 452.64,-183.78 453.52,-182.19"/>
<polygon fill="black" stroke="black" points="456.73,-183.66 459,-173.31 450.77,-179.99 456.73,-183.66"/>
</g>
<!-- L1N2&#45;&gt;L2N1 -->
<g id="edge17" class="edge">
<title>L1N2&#45;&gt;L2N1</title>
<path fill="none" stroke="black" d="M418.64,-512.88C422.88,-516.57 427.03,-520.28 431,-524 440.89,-533.26 441.41,-537.43 451,-547 452.61,-548.61 454.25,-550.23 455.91,-551.84"/>
<polygon fill="black" stroke="black" points="453.66,-554.54 463.3,-558.94 458.51,-549.49 453.66,-554.54"/>
</g>
<!-- L1N2&#45;&gt;L2N2 -->
<g id="edge18" class="edge">
<title>L1N2&#45;&gt;L2N2</title>
<path fill="none" stroke="black" d="M418.75,-449.83C430.14,-450.43 441.84,-451.04 453.36,-451.65"/>
<polygon fill="black" stroke="black" points="453.27,-455.15 463.44,-452.18 453.63,-448.16 453.27,-455.15"/>
</g>
<!-- L1N2&#45;&gt;L2N3 -->
<g id="edge19" class="edge">
<title>L1N2&#45;&gt;L2N3</title>
<path fill="none" stroke="black" d="M418.75,-377.39C430.71,-368.58 443.02,-359.51 455.11,-350.6"/>
<polygon fill="black" stroke="black" points="457.46,-353.22 463.44,-344.47 453.31,-347.58 457.46,-353.22"/>
</g>
<!-- L1N2&#45;&gt;L2N4 -->
<g id="edge20" class="edge">
<title>L1N2&#45;&gt;L2N4</title>
<path fill="none" stroke="black" d="M418.53,-384.49C423.24,-379.01 427.47,-373.17 431,-367 470.92,-297.11 413.54,-258.25 451,-187 451.73,-185.61 452.49,-184.24 453.28,-182.88"/>
<polygon fill="black" stroke="black" points="456.47,-184.38 458.88,-174.06 450.56,-180.62 456.47,-184.38"/>
</g>
<!-- L1N3&#45;&gt;L2N1 -->
<g id="edge21" class="edge">
<title>L1N3&#45;&gt;L2N1</title>
<path fill="none" stroke="black" d="M423.08,-355.02C425.99,-358.86 428.65,-362.86 431,-367 470.71,-437.02 413.54,-475.75 451,-547 452.97,-550.74 455.16,-554.4 457.54,-557.97"/>
<polygon fill="black" stroke="black" points="454.73,-560.04 463.41,-566.11 460.41,-555.95 454.73,-560.04"/>
</g>
<!-- L1N3&#45;&gt;L2N2 -->
<g id="edge22" class="edge">
<title>L1N3&#45;&gt;L2N2</title>
<path fill="none" stroke="black" d="M420.39,-357.23C431.77,-365.66 443.44,-374.31 454.91,-382.81"/>
<polygon fill="black" stroke="black" points="453.11,-385.83 463.22,-388.97 457.28,-380.21 453.11,-385.83"/>
</g>
<!-- L1N3&#45;&gt;L2N3 -->
<g id="edge23" class="edge">
<title>L1N3&#45;&gt;L2N3</title>
<path fill="none" stroke="black" d="M423.03,-283.37C433.07,-282.88 443.3,-282.39 453.4,-281.9"/>
<polygon fill="black" stroke="black" points="453.63,-285.39 463.45,-281.42 453.29,-278.4 453.63,-285.39"/>
</g>
<!-- L1N3&#45;&gt;L2N4 -->
<g id="edge24" class="edge">
<title>L1N3&#45;&gt;L2N4</title>
<path fill="none" stroke="black" d="M421.03,-218.96C424.44,-215.99 427.78,-213 431,-210 440.92,-200.77 441.41,-196.57 451,-187 451.78,-186.22 452.57,-185.44 453.36,-184.66"/>
<polygon fill="black" stroke="black" points="455.89,-187.08 460.63,-177.6 451.01,-182.06 455.89,-187.08"/>
</g>
<!-- L1N4&#45;&gt;L2N1 -->
<g id="edge25" class="edge">
<title>L1N4&#45;&gt;L2N1</title>
<path fill="none" stroke="black" d="M423.14,-197.6C426.06,-201.56 428.7,-205.7 431,-210 466.32,-276.19 417.81,-479.72 451,-547 452.93,-550.91 455.12,-554.73 457.51,-558.44"/>
<polygon fill="black" stroke="black" points="454.84,-560.73 463.45,-566.9 460.57,-556.7 454.84,-560.73"/>
</g>
<!-- L1N4&#45;&gt;L2N2 -->
<g id="edge26" class="edge">
<title>L1N4&#45;&gt;L2N2</title>
<path fill="none" stroke="black" d="M423.2,-198.34C426.05,-202.09 428.67,-205.98 431,-210 466.19,-270.91 417.77,-305 451,-367 452.91,-370.57 455.03,-374.06 457.31,-377.46"/>
<polygon fill="black" stroke="black" points="454.61,-379.71 463.31,-385.76 460.28,-375.6 454.61,-379.71"/>
</g>
<!-- L1N4&#45;&gt;L2N3 -->
<g id="edge27" class="edge">
<title>L1N4&#45;&gt;L2N3</title>
<path fill="none" stroke="black" d="M423.03,-192.49C433.59,-199.26 444.37,-206.16 454.98,-212.95"/>
<polygon fill="black" stroke="black" points="453.14,-215.93 463.45,-218.37 456.91,-210.03 453.14,-215.93"/>
</g>
<!-- L1N4&#45;&gt;L2N4 -->
<g id="edge28" class="edge">
<title>L1N4&#45;&gt;L2N4</title>
<path fill="none" stroke="black" d="M423.03,-116.68C431.52,-115.41 440.14,-114.13 448.7,-112.85"/>
<polygon fill="black" stroke="black" points="449.34,-116.3 458.71,-111.36 448.31,-109.37 449.34,-116.3"/>
</g>
<!-- ON1 -->
<g id="node12" class="node">
<title>ON1</title>
<polygon fill="white" stroke="white" points="689,-286.5 689,-447.5 883,-447.5 883,-286.5 689,-286.5"/>
<text text-anchor="middle" x="786" y="-432.3" font-family="Times,serif" font-size="14.00">N1</text>
<polyline fill="none" stroke="white" points="689,-424.5 883,-424.5 "/>
<text text-anchor="middle" x="708" y="-409.3" font-family="Times,serif" font-size="14.00">w1</text>
<polyline fill="none" stroke="white" points="727,-401.5 727,-424.5 "/>
<text text-anchor="middle" x="805" y="-409.3" font-family="Times,serif" font-size="14.00">d 0.3000 g 31.5000</text>
<polyline fill="none" stroke="white" points="689,-401.5 883,-401.5 "/>
<text text-anchor="middle" x="708" y="-386.3" font-family="Times,serif" font-size="14.00">w2</text>
<polyline fill="none" stroke="white" points="727,-378.5 727,-401.5 "/>
<text text-anchor="middle" x="805" y="-386.3" font-family="Times,serif" font-size="14.00">d 0.6000 g 31.5000</text>
<polyline fill="none" stroke="white" points="689,-378.5 883,-378.5 "/>
<text text-anchor="middle" x="708" y="-363.3" font-family="Times,serif" font-size="14.00">w3</text>
<polyline fill="none" stroke="white" points="727,-355.5 727,-378.5 "/>
<text text-anchor="middle" x="805" y="-363.3" font-family="Times,serif" font-size="14.00">d 0.9000 g 37.8000</text>
<polyline fill="none" stroke="white" points="689,-355.5 883,-355.5 "/>
<text text-anchor="middle" x="708" y="-340.3" font-family="Times,serif" font-size="14.00">w4</text>
<polyline fill="none" stroke="white" points="727,-332.5 727,-355.5 "/>
<text text-anchor="middle" x="805" y="-340.3" font-family="Times,serif" font-size="14.00">d 1.2000 g 12.6000</text>
<polyline fill="none" stroke="white" points="689,-332.5 883,-332.5 "/>
<text text-anchor="middle" x="707" y="-317.3" font-family="Times,serif" font-size="14.00">b</text>
<polyline fill="none" stroke="white" points="725,-309.5 725,-332.5 "/>
<text text-anchor="middle" x="804" y="-317.3" font-family="Times,serif" font-size="14.00">d 0.0000 g 1.0000</text>
<polyline fill="none" stroke="white" points="689,-309.5 883,-309.5 "/>
<text text-anchor="middle" x="704.5" y="-294.3" font-family="Times,serif" font-size="14.00">a</text>
<polyline fill="none" stroke="white" points="720,-286.5 720,-309.5 "/>
<text text-anchor="middle" x="801.5" y="-294.3" font-family="Times,serif" font-size="14.00">d 77.4900 g 1.0000</text>
</g>
<!-- L2N1&#45;&gt;ON1 -->
<g id="edge29" class="edge">
<title>L2N1&#45;&gt;ON1</title>
<path fill="none" stroke="black" d="M648.75,-560.01C652.99,-555.71 657.1,-551.36 661,-547 685.88,-519.22 709.92,-486.25 730.11,-456.16"/>
<polygon fill="black" stroke="black" points="733.08,-458.02 735.7,-447.76 727.25,-454.15 733.08,-458.02"/>
</g>
<!-- L2N2&#45;&gt;ON1 -->
<g id="edge30" class="edge">
<title>L2N2&#45;&gt;ON1</title>
<path fill="none" stroke="black" d="M648.75,-420.78C658.89,-416.78 669.27,-412.68 679.56,-408.62"/>
<polygon fill="black" stroke="black" points="680.95,-411.83 688.97,-404.91 678.38,-405.32 680.95,-411.83"/>
</g>
<!-- L2N3&#45;&gt;ON1 -->
<g id="edge31" class="edge">
<title>L2N3&#45;&gt;ON1</title>
<path fill="none" stroke="black" d="M648.75,-313.22C658.89,-317.22 669.27,-321.32 679.56,-325.38"/>
<polygon fill="black" stroke="black" points="678.38,-328.68 688.97,-329.09 680.95,-322.17 678.38,-328.68"/>
</g>
<!-- L2N4&#45;&gt;ON1 -->
<g id="edge32" class="edge">
<title>L2N4&#45;&gt;ON1</title>
<path fill="none" stroke="black" d="M652.35,-177.69C655.32,-180.78 658.21,-183.89 661,-187 685.88,-214.78 709.92,-247.75 730.11,-277.84"/>
<polygon fill="black" stroke="black" points="727.25,-279.85 735.7,-286.24 733.08,-275.98 727.25,-279.85"/>
</g>
</g>
</svg>
